<svg xmlns="http://www.w3.org/2000/svg" xmlns:xlink="http://www.w3.org/1999/xlink" viewBox="0 0 93.51 95.83"><defs><style>.cls-1{fill:none;}.cls-2{isolation:isolate;}.cls-3{fill:#fff;}.cls-4{clip-path:url(#clip-path);}.cls-5{fill:#eda478;}.cls-6{fill:#eb8e6c;}.cls-7{fill:#7c514b;}.cls-8{fill:#361c1b;}.cls-9{fill:#d38c69;}.cls-10{fill:#714944;}.cls-11{opacity:0.1;}.cls-12{fill:#53c9f4;}.cls-13{fill:#130300;}.cls-14{opacity:0.4;mix-blend-mode:screen;}.cls-15{fill:#572431;}.cls-16{fill:#dddbda;}.cls-17{fill:#cccecf;}.cls-18{fill:#eeefef;}.cls-19{fill:#8e9093;}.cls-20{fill:#e6e4e3;}</style><clipPath id="clip-path"><circle class="cls-1" cx="46.76" cy="46.76" r="46.76"/></clipPath></defs><title>81</title><g class="cls-2"><g id="Layer_2" data-name="Layer 2"><g id="Layer_1-2" data-name="Layer 1"><circle class="cls-3" cx="46.76" cy="46.76" r="46.76"/><g class="cls-4"><path class="cls-5" d="M58.22,67.76V55.49a58.69,58.69,0,0,0-18.39,0V67.76Z"/><path class="cls-5" d="M38.19,32.88c0,2.84-1,3.94-2.29,3.94s-1.56-1.24-2.3-3.94c-1.16-4.3,1-5.15,2.3-5.15S38.19,30,38.19,32.88Z"/><path class="cls-5" d="M60.11,32.88c0,2.84,1,3.94,2.29,3.94s1.56-1.24,2.3-3.94c1.16-4.3-1-5.15-2.3-5.15S60.11,30,60.11,32.88Z"/><path class="cls-5" d="M42.68,36.22,41.09,57.13c0,2.28,3.61,4.13,8.06,4.13s8.06-1.85,8.06-4.13L55.62,36.22Z"/><path class="cls-6" d="M45,53.08c2.35,0,4.66-.3,7-.36A7.51,7.51,0,0,1,57,54L55.62,36.22H42.68L41.45,52.41A10.27,10.27,0,0,0,45,53.08Z"/><path class="cls-5" d="M49.15,11.89c-4.56,0-15.48,1.17-13.89,11.79.74,5,2.26,6.78,1,13.72S43,49.51,49.15,49.51,63.36,44.35,62.07,37.4s.13-8.3,1-13.72C64.66,13.07,53.7,11.89,49.15,11.89Z"/><path class="cls-7" d="M62.07,37.4a22.77,22.77,0,0,1-.47-6.12l0-2.68c0,.72-.12,1.47-.17,2.19s0,1.58-.12,2.33A4.92,4.92,0,0,1,58.16,37c-2.22.83-4.75-.21-7-.44-1.13-.12-2.27-.13-3.41-.17a11.7,11.7,0,0,0-3.18.15c-2.13.52-4.92,2.42-6.79.22a4.46,4.46,0,0,1-.73-3.27c.08-1.66-.35-3.27-.33-4.92l0,2.68a22.68,22.68,0,0,1-.46,6.12c-1.29,7-1.68,14,12.92,14S63.36,44.35,62.07,37.4Z"/><path class="cls-8" d="M44.56,30c0,1-.45,1.85-1,1.85s-1-.83-1-1.85.44-1.85,1-1.85S44.56,29,44.56,30Z"/><path class="cls-8" d="M55.74,30c0,1-.45,1.85-1,1.85s-1-.83-1-1.85.45-1.85,1-1.85S55.74,29,55.74,30Z"/><path class="cls-8" d="M39.88,24.23a.48.48,0,0,1,.4-.46l4.94-.64a.35.35,0,0,1,.41.35v1.39a.41.41,0,0,1-.41.41H40.29a.41.41,0,0,1-.41-.41Z"/><path class="cls-8" d="M58.42,24.23a.48.48,0,0,0-.4-.46l-4.94-.64a.35.35,0,0,0-.41.35v1.39a.41.41,0,0,0,.41.41H58a.41.41,0,0,0,.41-.41Z"/><path class="cls-9" d="M49.9,34.79a1.28,1.28,0,0,1,0,.41,1.23,1.23,0,0,1-.26.42,1,1,0,0,1-.57.3.62.62,0,0,1-.2,0h-.17a1.18,1.18,0,0,1-1-.86,1.59,1.59,0,0,1,0-.48c0-.07,0-.17.06-.26a1.2,1.2,0,0,1,.11-.23,2.17,2.17,0,0,1,.68-.67.87.87,0,0,0,.15-.13l.1-.13a1.83,1.83,0,0,0,.18-.34,3.55,3.55,0,0,0,.22-.77,5.12,5.12,0,0,0,0-1.45,8.19,8.19,0,0,0-.2-1c-.08-.24-.12-.38-.12-.38l.2.35a5.06,5.06,0,0,1,.36,1,4.74,4.74,0,0,1,.1,1.54,3.13,3.13,0,0,1-.21.88,1.83,1.83,0,0,1-.21.42,1.63,1.63,0,0,1-.17.22,1.6,1.6,0,0,1-.19.16,2.09,2.09,0,0,0-.57.53.91.91,0,0,0-.12.31,1,1,0,0,0,0,.35.87.87,0,0,0,.35.54.84.84,0,0,0,.27.13l.17,0H49a.92.92,0,0,0,.5-.19,1,1,0,0,0,.28-.32,1.2,1.2,0,0,0,.1-.28C49.89,34.83,49.9,34.79,49.9,34.79Z"/><path class="cls-7" d="M36.71,31.82s-.33-9.55,3.7-14.89l-1.5-2.54S31.69,15.05,36.71,31.82Z"/><path class="cls-7" d="M61.57,31.82s.12-9.6-3.9-14.94l1.47-2.71S66.6,15.05,61.57,31.82Z"/><path class="cls-10" d="M57.85,16.9a21.09,21.09,0,0,1-17.51,2.15,7.57,7.57,0,0,1-4-3.4,9.18,9.18,0,0,1,2.16,0,3,3,0,0,1-1.15-2.1,6.88,6.88,0,0,0,1.6.27,7.1,7.1,0,0,1-.66-3.22,3.45,3.45,0,0,0,2.39,1.08,3.21,3.21,0,0,1,.29-3.29,5.74,5.74,0,0,0,3.78,2.16c2.31.2,4.48-.31,6.78-.47a7.79,7.79,0,0,1,6.59,2.51c.34.38,1.31,1.45,1.28,1.8A6.89,6.89,0,0,1,58,16.71,1.07,1.07,0,0,1,57.85,16.9Z"/><g class="cls-11"><path class="cls-12" d="M42.37,26.27c-3.43,0-5.17,1.24-5.17,3.69s.65,5.18,3.78,5.18c3,0,6.57-2.39,6.57-5.18C47.55,27.51,45.8,26.27,42.37,26.27Z"/><path class="cls-12" d="M55.93,26.27c-3.43,0-5.18,1.24-5.18,3.69,0,2.79,3.61,5.18,6.57,5.18,3.13,0,3.78-2.82,3.78-5.18S59.36,26.27,55.93,26.27Z"/></g><path class="cls-13" d="M41,35.48c-2.7,0-4.12-1.91-4.12-5.52,0-2.64,1.9-4,5.51-4s5.51,1.39,5.51,4C47.88,32.93,44.09,35.48,41,35.48Zm1.39-9.21c-3.43,0-5.17,1.24-5.17,3.69s.65,5.18,3.78,5.18c3,0,6.57-2.39,6.57-5.18C47.55,27.51,45.8,26.27,42.37,26.27Z"/><path class="cls-13" d="M57.32,35.48c-3.11,0-6.9-2.55-6.9-5.52,0-2.64,1.9-4,5.51-4s5.51,1.39,5.51,4C61.44,33.57,60,35.48,57.32,35.48Zm-1.39-9.21c-3.43,0-5.18,1.24-5.18,3.69,0,2.79,3.61,5.18,6.57,5.18,3.13,0,3.78-2.82,3.78-5.18S59.36,26.27,55.93,26.27Z"/><path class="cls-13" d="M50.71,29.08c-1.86-1.38-3.05-.08-3.09,0l-.26-.23a2.55,2.55,0,0,1,3.55,0Z"/><rect class="cls-13" x="43.25" y="25.97" width="11.81" height="0.34"/><path class="cls-13" d="M37.38,30.46a.55.55,0,0,1-.5.58h0a.54.54,0,0,1-.49-.58V28.94a.54.54,0,0,1,.49-.58h0a.55.55,0,0,1,.5.58Z"/><path class="cls-13" d="M61.91,30.46a.54.54,0,0,1-.49.58h0a.54.54,0,0,1-.49-.58V28.94a.54.54,0,0,1,.49-.58h0a.54.54,0,0,1,.49.58Z"/><path class="cls-13" d="M47.89,32.62a.27.27,0,0,1-.34.14h0a.25.25,0,0,1-.14-.33l.48-1.2a.25.25,0,0,1,.33-.14h0a.25.25,0,0,1,.14.33Z"/><path class="cls-13" d="M47.94,31.92a.17.17,0,0,1-.24.1l-.4-.15a.19.19,0,0,1-.1-.25h0a.19.19,0,0,1,.24-.11l.4.16a.19.19,0,0,1,.1.25Z"/><path class="cls-13" d="M50.41,32.62a.27.27,0,0,0,.34.14h0a.25.25,0,0,0,.14-.33l-.48-1.2a.25.25,0,0,0-.33-.14h0a.25.25,0,0,0-.14.33Z"/><path class="cls-13" d="M50.35,31.92a.19.19,0,0,0,.25.1l.4-.15a.2.2,0,0,0,.1-.25h0a.19.19,0,0,0-.24-.11l-.4.16a.2.2,0,0,0-.11.25Z"/><g class="cls-14"><path class="cls-3" d="M46.44,27.35l-7.73,7a3.42,3.42,0,0,0,2.27.74,7.18,7.18,0,0,0,.79-.06l5.77-5.27A3.17,3.17,0,0,0,46.44,27.35Z"/><path class="cls-3" d="M43.12,26.29l-5.8,5.29a7.43,7.43,0,0,0,.25,1.06l6.79-6.19A8.9,8.9,0,0,0,43.12,26.29Z"/><path class="cls-3" d="M59.89,27.26l-7,6.34a8.06,8.06,0,0,0,2.45,1.23l5.7-5.19A3.1,3.1,0,0,0,59.89,27.26Z"/><path class="cls-3" d="M56.48,26.28l-5.46,5a4.6,4.6,0,0,0,.47.87l6.27-5.72A9.89,9.89,0,0,0,56.48,26.28Z"/></g><path class="cls-15" d="M53.39,38.33a8.23,8.23,0,0,1-4.24.94,8.23,8.23,0,0,1-4.24-.94C43.48,37.46,43.16,43,49.15,43S54.82,37.46,53.39,38.33Z"/><path class="cls-3" d="M49.15,43c2.67,0,4.09-1.1,4.71-2.23-.06-.46-.22-1.16-.69-.8a9,9,0,0,1-8,0c-.47-.36-.63.36-.69.82C45.06,41.85,46.48,43,49.15,43Z"/><path class="cls-3" d="M53.47,39.52c.26-.23.17-.91.13-1.27a.46.46,0,0,0-.21.08,8.23,8.23,0,0,1-4.24.94,8.23,8.23,0,0,1-4.24-.94.5.5,0,0,0-.21-.08c0,.36-.13,1,.13,1.27.62.53,1.74,1.21,4.32,1.21S52.85,40.05,53.47,39.52Z"/><path class="cls-16" d="M47.27,95.83a136,136,0,0,1,1.9-29.2S39.49,62,39.49,56.76a9.23,9.23,0,0,1,.07-1.18c-11.14,1.85-17.67,6.33-17.67,6.33s-5,17.87,1.5,33.92Z"/><path class="cls-16" d="M75,95.83c6.51-16,1.5-33.92,1.5-33.92s-6.53-4.48-17.67-6.33a9.23,9.23,0,0,1,.07,1.18c0,5.21-9.68,9.87-9.68,9.87a136,136,0,0,0-1.9,29.2Z"/><path class="cls-17" d="M27,95.83c-.1-.47-.2-.94-.27-1.42-.27-1.86-.12-3.75-.33-5.62a18.75,18.75,0,0,0-1.63-5.42,29.23,29.23,0,0,0-4.73-7.61A50.65,50.65,0,0,0,23.4,95.83Z"/><path class="cls-17" d="M75,95.83a46.4,46.4,0,0,0,3.11-13.27A40.7,40.7,0,0,1,76,87.3a41.44,41.44,0,0,1-3.12,5A14,14,0,0,0,71.48,95q-.08.42-.18.84Z"/><path class="cls-16" d="M25,95.83c2.36-8.54,3-19.72-.87-33.15-1.32-4.6-8.3,4.25-13.3,13.61-2.94,5.52-5,13-6.36,19.54Z"/><path class="cls-16" d="M93.51,95.83c-1.33-6.53-3.41-14-6.36-19.54-5-9.36-12-18.21-13.3-13.61C70,76.11,70.62,87.29,73,95.83Z"/><path class="cls-18" d="M49.17,66.63s-7.18-.95-8.06,4.3c0,0-7.86-15.55.26-17.33,0,0-.45,5.77,2.11,7.57A25.66,25.66,0,0,1,49.17,66.63Z"/><path class="cls-18" d="M49.17,66.63s7.18-.95,8.06,4.3c0,0,7.86-15.55-.26-17.33,0,0,.45,5.77-2.11,7.57A25.66,25.66,0,0,0,49.17,66.63Z"/><path class="cls-19" d="M49.8,69.2a.58.58,0,0,1-.6-.6.58.58,0,0,1,.17-.41.61.61,0,0,1,.84,0,.59.59,0,0,1,.18.41.66.66,0,0,1-.17.43A.63.63,0,0,1,49.8,69.2Z"/><path class="cls-19" d="M48.36,92.83a.6.6,0,0,1,.58-.61h0a.59.59,0,0,1,.61.58h0a.59.59,0,0,1-.58.61h0A.6.6,0,0,1,48.36,92.83Z"/><path class="cls-19" d="M48.92,88.56a.6.6,0,0,1-.6-.6h0a.59.59,0,0,1,.6-.58h0a.58.58,0,0,1,.59.59h0a.59.59,0,0,1-.59.59Z"/><path class="cls-19" d="M49,83.71a.58.58,0,0,1-.58-.6h0a.6.6,0,0,1,.61-.57h0a.59.59,0,0,1,.58.61h0a.59.59,0,0,1-.59.57h0Z"/><path class="cls-19" d="M49.17,78.87a.6.6,0,0,1-.58-.62h0a.6.6,0,0,1,.63-.56h0a.58.58,0,0,1,.56.62h0a.59.59,0,0,1-.59.57h0Z"/><path class="cls-19" d="M49.41,74a.59.59,0,0,1-.55-.63h0a.59.59,0,0,1,.63-.55h0a.58.58,0,0,1,.55.62h0a.57.57,0,0,1-.58.55h-.05Z"/><path class="cls-20" d="M67.35,94a9.14,9.14,0,0,1-10.26,0,37,37,0,0,1,.16-9.69,28.67,28.67,0,0,1,10,0A36.57,36.57,0,0,1,67.35,94Z"/><path class="cls-18" d="M57,84.17c-.15,1-.25,2-.32,3a10.47,10.47,0,0,0,11.19,0c-.07-1-.17-2-.32-3A30.64,30.64,0,0,0,57,84.17Z"/></g></g></g></g></svg>