<svg xmlns="http://www.w3.org/2000/svg" viewBox="0 0 33.96 36.78"><defs><style>.cls-1{fill:#00dc7f;}.cls-2{fill:#00a963;}.cls-3{fill:#fefefe;}.cls-4{fill:#e0eaef;}.cls-5{fill:#b4d1d6;}.cls-6{fill:#6fa5aa;}</style></defs><title>Asset 17</title><g id="Layer_2" data-name="Layer 2"><g id="Layer_1-2" data-name="Layer 1"><path class="cls-1" d="M17,36.76a3.44,3.44,0,0,1-1.7-.37C6.16,33.28,1.21,27.22.25,18.31a72.9,72.9,0,0,1-.2-9.23A4,4,0,0,1,4.18,5a17.25,17.25,0,0,0,11-4.29A2.36,2.36,0,0,1,17,0a.82.82,0,0,1,.32.64A76.59,76.59,0,0,1,17.22,9c-.4.73-1.21.6-1.86.71a9.66,9.66,0,0,0-6.2,3.52c-4.27,5.44-.68,13.08,6.58,14,.53.07,1.15,0,1.46.55A34.59,34.59,0,0,1,17.35,33c0,.88,0,1.76,0,2.65A1.4,1.4,0,0,1,17,36.76Z"/><path class="cls-2" d="M17,36.76V27.57a1.47,1.47,0,0,0,.1-.13c1-.28,2-.3,3-.62a8.9,8.9,0,0,0,6.5-8.57,9,9,0,0,0-7.68-8.56,7.67,7.67,0,0,1-1.84-.35,1.47,1.47,0,0,0-.1-.13V0a2.25,2.25,0,0,1,1.87.72A17,17,0,0,0,29.76,4.93a4,4,0,0,1,4.07,3.54c.2,5.36.41,10.74-1.61,15.92S26.56,33,21.42,35.29A11.76,11.76,0,0,1,17,36.76Z"/><path class="cls-3" d="M17,27.57c-5.25-.22-9.15-3.33-9.85-7.85-.82-5.33,3.33-10,9.19-10.46l.66,0,0,.06a1.27,1.27,0,0,1,.36,1c0,2.48.08,5,0,7.44,0,.11,0,.22-.05.33a2.4,2.4,0,0,1-.72.9c-1.14,1.08-1.25,1.09-2.52.13-.41-.31-.87-.69-1.36-.24s-.26.95.11,1.38a11.76,11.76,0,0,0,1.09,1c1.07,1,1.15,1,2.45.28.36-.2.72-.45.95.14a39.42,39.42,0,0,1,.08,5,1,1,0,0,1-.35.83Z"/><path class="cls-4" d="M17,18.09q0-4.41,0-8.82c5.26-.22,10,4.12,10,9.13s-4.7,9.33-10,9.11c0-2.05,0-4.11,0-6.16a.27.27,0,0,1-.05-.27c1.13-1.32,2.54-2.38,3.76-3.6.46-.46,1.18-.89.55-1.64-.42-.51-.93-.37-1.83.46-.5.45-1,.93-1.49,1.37C17.66,17.89,17.43,18.21,17,18.09Z"/><path class="cls-5" d="M17,21.12v.23c-.28.22-.55.45-.84.66a1.36,1.36,0,0,1-2-.05c-.58-.57-1.22-1.09-1.79-1.68a1.12,1.12,0,1,1,1.49-1.67c.5.33.79,1.13,1.42,1s.93-.74,1.39-1.14c.08-.07.18-.13.26-.19A2.63,2.63,0,0,1,17,21.12Z"/><path class="cls-6" d="M17,21.12c0-.95,0-1.91,0-2.86a.59.59,0,0,0,0-.17c.91-.82,1.82-1.62,2.71-2.44a1.17,1.17,0,0,1,1.75-.09,1,1,0,0,1,0,1.55C20,18.45,18.59,19.9,17,21.12Z"/></g></g></svg>