<svg xmlns="http://www.w3.org/2000/svg" viewBox="0 0 68.2 74.39"><defs><style>.cls-1{fill:#c11e67;}</style></defs><title>Asset 41</title><g id="Layer_2" data-name="Layer 2"><g id="Layer_1-2" data-name="Layer 1"><path class="cls-1" d="M68.19,43.5c0,7.2,0,14.39,0,21.59,0,5.81-3.5,9.29-9.3,9.3h-34c-5.81,0-9.28-3.48-9.29-9.3q0-21.79,0-43.6c0-5.47,3.41-9,8.87-9.07q17.44-.09,34.89,0c5.45,0,8.86,3.57,8.88,9.07C68.21,28.82,68.19,36.16,68.19,43.5ZM42,24.88c-3.73,0-7.47,0-11.2,0-1.63,0-2.81.52-2.8,2.28s1.23,2.3,2.82,2.3c7.34,0,14.67,0,22,0,1.91,0,3.12-1,3-2.42-.22-1.7-1.38-2.18-3-2.15C49.21,24.91,45.61,24.88,42,24.88ZM41.83,52.7c3.6,0,7.2,0,10.8,0,1.67,0,3-.48,3.12-2.26S54.46,48,52.81,48Q41.91,48,31,48c-1.57,0-3,.41-3,2.36s1.38,2.34,3,2.33C34.63,52.69,38.23,52.7,41.83,52.7Zm0-15.49h-11c-1.56,0-2.78.53-2.77,2.34s1.28,2.33,2.81,2.34c7.33,0,14.67,0,22,0,1.56,0,2.88-.63,2.92-2.29s-1.26-2.42-2.95-2.41C49.14,37.23,45.47,37.21,41.8,37.21Zm.13,23.27c-3.66,0-7.33,0-11,0-1.55,0-2.85.37-2.92,2.18s1.29,2.48,2.88,2.49q11,.06,22,0c1.52,0,2.86-.64,2.85-2.35s-1.36-2.34-3-2.33C49.13,60.5,45.53,60.48,41.93,60.48Z"/><path class="cls-1" d="M52.15,6.25c-9.36,0-18.57,0-27.77,0-7.42,0-13.1,4.53-14.72,11.6a16.91,16.91,0,0,0-.29,3.7q0,20.57,0,41.11V64.9A8.29,8.29,0,0,1,.22,58.17,20.37,20.37,0,0,1,0,54.86Q0,32.23,0,9.6C0,3.38,3.39,0,9.63,0Q26.76,0,43.89,0A8.18,8.18,0,0,1,52.15,6.25Z"/></g></g></svg>