<svg xmlns="http://www.w3.org/2000/svg" viewBox="0 0 295.76 324.85"><defs><style>.cls-1{fill:#5793ce;}.cls-2{fill:#396caa;}.cls-3,.cls-8{fill:#d4ecff;}.cls-4{fill:#b2d3ea;}.cls-5{fill:#fafdff;}.cls-6{fill:#173d7a;}.cls-7{fill:#fff;}.cls-8{opacity:0.4;}.cls-9{fill:#274f89;}</style></defs><title>Asset 31</title><g id="Layer_2" data-name="Layer 2"><g id="Layer_1-2" data-name="Layer 1"><path class="cls-1" d="M21.62,244.67a.9.9,0,0,1-.42-.1l-20-10.39a2.25,2.25,0,0,1-.05-4L21,219.37a.39.39,0,0,0,0-.68L1.4,207.79a2.24,2.24,0,0,1-.06-3.88l27.57-16.56a6.69,6.69,0,0,1,6.73-.09L51,196a.92.92,0,1,1-.91,1.61l-15.32-8.69a4.85,4.85,0,0,0-4.87.07L2.29,205.5a.39.39,0,0,0,0,.67l19.6,10.9a2.24,2.24,0,0,1,0,3.92L2.05,231.85a.39.39,0,0,0-.2.34.37.37,0,0,0,.21.34l20,10.39a.93.93,0,0,1-.43,1.75Z"/><rect class="cls-1" x="17.94" y="238.39" width="4.96" height="10.71" transform="translate(242.04 347.27) rotate(119.83)"/><path class="cls-1" d="M14,242.1a3.89,3.89,0,0,1,1.74-3c1-.57,1.76-.11,1.76,1a3.88,3.88,0,0,1-1.74,3.05C14.82,243.67,14,243.22,14,242.1Z"/><rect class="cls-1" x="26.71" y="241.26" width="8.04" height="16.8" transform="translate(262.6 347.18) rotate(119.83)"/><path class="cls-2" d="M24.78,243.38l-3.15-1.8a6.43,6.43,0,0,0-2.47,4.3l3.15,1.81A6.47,6.47,0,0,0,24.78,243.38Z"/><path class="cls-1" d="M20.61,247.13a6.26,6.26,0,0,1,2.83-4.93c1.57-.92,2.84-.18,2.85,1.63a6.32,6.32,0,0,1-2.83,4.93C21.89,249.67,20.61,248.94,20.61,247.13Z"/><ellipse class="cls-3" cx="17.78" cy="240.47" rx="1.16" ry="0.67" transform="translate(-0.72 0.05) rotate(-0.17)"/><path class="cls-4" d="M84.45,177.3l-49-28c-1.8-1-1.57-2.85.5-4.05L64.13,129a7.82,7.82,0,0,1,7-.29l49,28c1.8,1,1.57,2.84-.5,4L91.45,177A7.75,7.75,0,0,1,84.45,177.3Z"/><path class="cls-2" d="M124.55,147.26h0V32.76L79,20.85,70.64,16c-1.92-1.11-5.28-1-7.5.31l-7.83,4.52L31,20.82l7.19,110.54a2.2,2.2,0,0,0,1.29,2l45.43,34.27c1.92,1.12,5.28,1,7.51-.31l30.27-17.47C124,149.12,124.62,148.16,124.55,147.26Z"/><path class="cls-3" d="M67.16,15.26a8.65,8.65,0,0,0-4,1.06l-7.83,4.52L31,20.82V135.63a2.19,2.19,0,0,0,1.29,2l52.62,30a6.73,6.73,0,0,0,3.48.75L89,52.86Z"/><path class="cls-1" d="M85.42,167.88a8.56,8.56,0,0,0,6-.07V51.5h-6Z"/><path class="cls-3" d="M84.94,52.88l-52.62-30c-1.92-1.11-1.68-3.05.54-4.33L63.14,1.06c2.22-1.28,5.58-1.42,7.5-.31l52.62,30c1.92,1.11,1.68,3-.54,4.34L92.45,52.56C90.22,53.85,86.86,54,84.94,52.88Z"/><path class="cls-5" d="M122.72,33,92.45,50.44c-2.23,1.28-5.59,1.42-7.51.31l-52.62-30a2.78,2.78,0,0,1-1-.85c-.66,1.07-.36,2.22,1,3l52.62,30c1.92,1.11,5.28,1,7.51-.32l30.27-17.47c1.73-1,2.25-2.39,1.5-3.49A4.11,4.11,0,0,1,122.72,33Z"/><path class="cls-6" d="M86.43,40.72l-35-20.31c-.9-.52-.79-1.43.25-2L65.82,10.2a3.9,3.9,0,0,1,3.51-.14l35,20.3c.9.52.79,1.43-.25,2L89.94,40.57A3.9,3.9,0,0,1,86.43,40.72Z"/><path class="cls-3" d="M67.52,21.32l-2-1.17c-.13-.07-.11-.2,0-.28l2-1.13a.56.56,0,0,1,.49,0l2,1.17c.12.07.11.2,0,.28L68,21.3A.51.51,0,0,1,67.52,21.32Z"/><path class="cls-3" d="M74.3,25.22l-2-1.17c-.13-.07-.11-.2,0-.28l2-1.13a.53.53,0,0,1,.49,0l2,1.17c.12.07.11.2,0,.28l-2,1.13A.54.54,0,0,1,74.3,25.22Z"/><path class="cls-3" d="M81.08,29.12l-2-1.17c-.13-.07-.11-.2,0-.28l2-1.13a.51.51,0,0,1,.49,0l2,1.17c.12.07.11.2,0,.28l-2,1.13A.54.54,0,0,1,81.08,29.12Z"/><path class="cls-3" d="M87.86,33l-2-1.17c-.12-.07-.11-.2,0-.28l2-1.13a.51.51,0,0,1,.49,0l2,1.17c.13.07.11.2,0,.28l-2,1.13A.57.57,0,0,1,87.86,33Z"/><path class="cls-1" d="M51.4,20.41l0,0,.21-.14,14.17-8.18A3.9,3.9,0,0,1,69.33,12l35,20.29c.83-.6.87-1.41,0-1.89l-35-20.3a3.9,3.9,0,0,0-3.51.14L51.65,18.38C50.61,19,50.5,19.89,51.4,20.41Z"/><path class="cls-6" d="M98.36,75.56l19.91-11.4a4.88,4.88,0,0,0,2-3.88V53.16c0-1.5-.91-2.18-2-1.54L98.36,63a4.84,4.84,0,0,0-2,3.87V74C96.33,75.52,97.24,76.21,98.36,75.56Z"/><path class="cls-7" d="M119.26,51.41a2,2,0,0,1,.51,1.48V60a4.86,4.86,0,0,1-2,3.88L97.82,75.29a1.44,1.44,0,0,1-1,.22,1.21,1.21,0,0,0,1.52,0l19.91-11.4a4.88,4.88,0,0,0,2-3.88V53.16C120.3,52.14,119.88,51.51,119.26,51.41Z"/><path class="cls-2" d="M104.35,67.82l1.82-1a1.05,1.05,0,0,0,.45-.85V64c0-.32-.2-.47-.45-.33l-1.82,1a1.05,1.05,0,0,0-.45.85v1.95C103.9,67.81,104.1,68,104.35,67.82Z"/><path class="cls-7" d="M110.46,64.3l1.82-1.06a1,1,0,0,0,.45-.84V60.45c0-.33-.2-.48-.45-.34l-1.82,1.06A1,1,0,0,0,110,62v2C110,64.29,110.21,64.44,110.46,64.3Z"/><path class="cls-6" d="M98.36,127l19.91-11.4a4.88,4.88,0,0,0,2-3.88v-7.12c0-1.5-.91-2.19-2-1.54L98.36,114.5a4.84,4.84,0,0,0-2,3.87v7.13C96.33,127,97.24,127.68,98.36,127Z"/><path class="cls-7" d="M119.26,102.88a2,2,0,0,1,.51,1.48v7.12a4.86,4.86,0,0,1-2,3.88l-19.92,11.4a1.44,1.44,0,0,1-1,.22,1.21,1.21,0,0,0,1.52,0l19.91-11.4a4.88,4.88,0,0,0,2-3.88v-7.12C120.3,103.61,119.88,103,119.26,102.88Z"/><path class="cls-2" d="M104.35,119.29l1.82-1.05a1.05,1.05,0,0,0,.45-.85v-2c0-.33-.2-.47-.45-.33l-1.82,1a1.05,1.05,0,0,0-.45.85V119C103.9,119.28,104.1,119.43,104.35,119.29Z"/><path class="cls-7" d="M110.46,115.76l1.82-1.05a1.05,1.05,0,0,0,.45-.85v-2c0-.32-.2-.47-.45-.33l-1.82,1a1.05,1.05,0,0,0-.45.85v2C110,115.76,110.21,115.91,110.46,115.76Z"/><path class="cls-6" d="M98.36,152.76l19.91-11.4a4.86,4.86,0,0,0,2-3.88v-7.12c0-1.49-.91-2.18-2-1.53l-19.91,11.4a4.86,4.86,0,0,0-2,3.88v7.12C96.33,152.72,97.24,153.41,98.36,152.76Z"/><path class="cls-7" d="M119.26,128.61a2,2,0,0,1,.51,1.48v7.13a4.84,4.84,0,0,1-2,3.87L97.82,152.5a1.49,1.49,0,0,1-1,.21,1.21,1.21,0,0,0,1.52,0l19.91-11.4a4.86,4.86,0,0,0,2-3.88v-7.12C120.3,129.35,119.88,128.72,119.26,128.61Z"/><path class="cls-2" d="M104.35,145l1.82-1.06a1,1,0,0,0,.45-.84v-2c0-.32-.2-.47-.45-.33l-1.82,1.06a1,1,0,0,0-.45.84v1.95C103.9,145,104.1,145.17,104.35,145Z"/><path class="cls-7" d="M110.46,141.5l1.82-1.06a1,1,0,0,0,.45-.84v-1.95c0-.33-.2-.48-.45-.34l-1.82,1.06a1,1,0,0,0-.45.84v1.95C110,141.49,110.21,141.64,110.46,141.5Z"/><path class="cls-6" d="M98.36,101.3l19.91-11.41a4.86,4.86,0,0,0,2-3.88V78.89c0-1.49-.91-2.18-2-1.53L98.36,88.76a4.86,4.86,0,0,0-2,3.88v7.12C96.33,101.26,97.24,101.94,98.36,101.3Z"/><path class="cls-7" d="M119.26,77.14a2,2,0,0,1,.51,1.48v7.13a4.84,4.84,0,0,1-2,3.87L97.82,101a1.43,1.43,0,0,1-1,.21,1.21,1.21,0,0,0,1.52.06l19.91-11.41a4.86,4.86,0,0,0,2-3.88V78.89C120.3,77.88,119.88,77.25,119.26,77.14Z"/><path class="cls-2" d="M104.35,93.56l1.82-1.06a1,1,0,0,0,.45-.84v-2c0-.33-.2-.48-.45-.34l-1.82,1.06a1,1,0,0,0-.45.84v2C103.9,93.55,104.1,93.7,104.35,93.56Z"/><path class="cls-7" d="M110.46,90l1.82-1a1.07,1.07,0,0,0,.45-.85V86.18c0-.33-.2-.48-.45-.34l-1.82,1.06a1,1,0,0,0-.45.84v2C110,90,110.21,90.17,110.46,90Z"/><path class="cls-1" d="M81.11,68.27,35.16,41.74a4.46,4.46,0,0,1-1.87-3.56V29.42c0-1.37.84-2,1.87-1.41l46,26.53A4.5,4.5,0,0,1,83,58.1v8.76C83,68.23,82.13,68.86,81.11,68.27Z"/><path class="cls-8" d="M79.79,65.2l-43.32-25a2.26,2.26,0,0,1-.94-1.8V31.8c0-.7.42-1,.94-.72l43.32,25a2.26,2.26,0,0,1,.94,1.81v6.58C80.73,65.18,80.31,65.5,79.79,65.2Z"/><path class="cls-3" d="M45.5,42.07,39,38.34a2.19,2.19,0,0,1-.92-1.75h0c0-.68.41-1,.92-.7l6.46,3.74a2.17,2.17,0,0,1,.92,1.75h0C46.42,42.05,46,42.37,45.5,42.07Z"/><ellipse class="cls-6" cx="49.95" cy="43.42" rx="0.86" ry="1.5" transform="matrix(0.87, -0.5, 0.5, 0.87, -15.02, 30.79)"/><path class="cls-6" d="M54.75,46.19c0,.67-.48,1-1.06.61A2.33,2.33,0,0,1,52.63,45c0-.67.47-1,1.06-.61A2.36,2.36,0,0,1,54.75,46.19Z"/><path class="cls-3" d="M58.48,48.35c0,.67-.47.94-1.06.61a2.35,2.35,0,0,1-1.05-1.84c0-.67.47-.95,1.05-.61A2.33,2.33,0,0,1,58.48,48.35Z"/><path class="cls-6" d="M62.22,50.5c0,.68-.47,1-1.06.61a2.33,2.33,0,0,1-1.06-1.83c0-.68.48-1,1.06-.61A2.33,2.33,0,0,1,62.22,50.5Z"/><path class="cls-6" d="M78,61.53l-2.18-1.26a1.4,1.4,0,0,1-.59-1.12V56.84c0-.43.26-.63.59-.44L78,57.66a1.4,1.4,0,0,1,.58,1.12v2.3C78.55,61.52,78.29,61.72,78,61.53Z"/><path class="cls-1" d="M81.11,83.72,35.16,57.19a4.46,4.46,0,0,1-1.87-3.56V44.87c0-1.37.84-2,1.87-1.41L81.11,70A4.5,4.5,0,0,1,83,73.55v8.76C83,83.68,82.13,84.31,81.11,83.72Z"/><path class="cls-8" d="M79.79,80.65l-43.32-25a2.26,2.26,0,0,1-.94-1.8V47.25c0-.7.42-1,.94-.71l43.32,25a2.26,2.26,0,0,1,.94,1.81v6.58C80.73,80.63,80.31,81,79.79,80.65Z"/><path class="cls-3" d="M45.5,57.52,39,53.79A2.19,2.19,0,0,1,38.12,52h0c0-.68.41-1,.92-.69l6.46,3.73a2.17,2.17,0,0,1,.92,1.75h0C46.42,57.51,46,57.82,45.5,57.52Z"/><path class="cls-7" d="M51,59.48c0,.68-.48,1-1.06.61a2.33,2.33,0,0,1-1.06-1.83c0-.68.47-.95,1.06-.61A2.33,2.33,0,0,1,51,59.48Z"/><path class="cls-6" d="M54.75,61.64c0,.67-.48,1-1.06.61a2.33,2.33,0,0,1-1.06-1.84c0-.67.47-.94,1.06-.61A2.36,2.36,0,0,1,54.75,61.64Z"/><path class="cls-3" d="M58.48,63.8c0,.67-.47,1-1.06.61a2.35,2.35,0,0,1-1.05-1.84c0-.67.47-1,1.05-.61A2.33,2.33,0,0,1,58.48,63.8Z"/><ellipse class="cls-6" cx="61.16" cy="65.34" rx="0.86" ry="1.5" transform="translate(-24.48 39.34) rotate(-30)"/><path class="cls-6" d="M78,77l-2.18-1.26a1.38,1.38,0,0,1-.59-1.12V72.29c0-.43.26-.63.59-.44L78,73.11a1.4,1.4,0,0,1,.58,1.12v2.31C78.55,77,78.29,77.17,78,77Z"/><path class="cls-1" d="M81.11,99.17,35.16,72.64a4.45,4.45,0,0,1-1.87-3.56V60.32c0-1.37.84-2,1.87-1.41l46,26.53A4.5,4.5,0,0,1,83,89v8.76C83,99.13,82.13,99.77,81.11,99.17Z"/><path class="cls-8" d="M79.79,96.1l-43.32-25a2.26,2.26,0,0,1-.94-1.8V62.7c0-.7.42-1,.94-.71L79.79,87a2.26,2.26,0,0,1,.94,1.81v6.58C80.73,96.08,80.31,96.4,79.79,96.1Z"/><path class="cls-3" d="M45.5,73,39,69.24a2.17,2.17,0,0,1-.92-1.75h0c0-.68.41-1,.92-.69l6.46,3.73a2.19,2.19,0,0,1,.92,1.75h0C46.42,73,46,73.27,45.5,73Z"/><path class="cls-7" d="M51,74.93c0,.68-.48.95-1.06.61a2.32,2.32,0,0,1-1.06-1.83c0-.68.47-.95,1.06-.61A2.34,2.34,0,0,1,51,74.93Z"/><path class="cls-6" d="M54.75,77.09c0,.67-.48,1-1.06.61a2.33,2.33,0,0,1-1.06-1.83c0-.68.47-1,1.06-.62A2.36,2.36,0,0,1,54.75,77.09Z"/><path class="cls-3" d="M58.48,79.25c0,.67-.47,1-1.06.61A2.35,2.35,0,0,1,56.37,78c0-.67.47-1,1.05-.61A2.33,2.33,0,0,1,58.48,79.25Z"/><path class="cls-6" d="M62.22,81.4c0,.68-.47.95-1.06.62a2.36,2.36,0,0,1-1.06-1.84c0-.67.48-1,1.06-.61A2.33,2.33,0,0,1,62.22,81.4Z"/><path class="cls-6" d="M78,92.43l-2.18-1.26a1.38,1.38,0,0,1-.59-1.12v-2.3c0-.44.26-.64.59-.45L78,88.56a1.42,1.42,0,0,1,.58,1.12V92C78.55,92.42,78.29,92.62,78,92.43Z"/><path class="cls-1" d="M81.11,114.62,35.16,88.09a4.45,4.45,0,0,1-1.87-3.56V75.77c0-1.37.84-2,1.87-1.4l46,26.52A4.5,4.5,0,0,1,83,104.45v8.76C83,114.59,82.13,115.22,81.11,114.62Z"/><path class="cls-8" d="M79.79,111.55l-43.32-25a2.26,2.26,0,0,1-.94-1.8V78.15c0-.69.42-1,.94-.71l43.32,25a2.26,2.26,0,0,1,.94,1.81v6.59C80.73,111.53,80.31,111.85,79.79,111.55Z"/><path class="cls-3" d="M45.5,88.43,39,84.69a2.17,2.17,0,0,1-.92-1.75h0c0-.68.41-1,.92-.69L45.5,86a2.19,2.19,0,0,1,.92,1.75h0C46.42,88.41,46,88.72,45.5,88.43Z"/><path class="cls-6" d="M51,90.38c0,.68-.48,1-1.06.61a2.32,2.32,0,0,1-1.06-1.83c0-.68.47-1,1.06-.61A2.34,2.34,0,0,1,51,90.38Z"/><ellipse class="cls-6" cx="53.69" cy="91.93" rx="0.86" ry="1.5" transform="translate(-38.77 39.16) rotate(-30)"/><path class="cls-3" d="M58.48,94.7c0,.67-.47,1-1.06.61a2.35,2.35,0,0,1-1.05-1.84c0-.67.47-1,1.05-.61A2.33,2.33,0,0,1,58.48,94.7Z"/><path class="cls-6" d="M62.22,96.86c0,.67-.47.94-1.06.61a2.36,2.36,0,0,1-1.06-1.84c0-.67.48-.95,1.06-.61A2.33,2.33,0,0,1,62.22,96.86Z"/><path class="cls-3" d="M78,107.88l-2.18-1.26a1.38,1.38,0,0,1-.59-1.12v-2.3c0-.44.26-.64.59-.45L78,104a1.42,1.42,0,0,1,.58,1.12v2.31C78.55,107.87,78.29,108.07,78,107.88Z"/><path class="cls-1" d="M81.11,130.07,35.16,103.54A4.44,4.44,0,0,1,33.29,100V91.22c0-1.37.84-2,1.87-1.4l46,26.53A4.46,4.46,0,0,1,83,119.9v8.77C83,130,82.13,130.67,81.11,130.07Z"/><path class="cls-8" d="M79.79,127,36.47,102a2.25,2.25,0,0,1-.94-1.8V93.6c0-.69.42-1,.94-.71l43.32,25a2.28,2.28,0,0,1,.94,1.81v6.59C80.73,127,80.31,127.3,79.79,127Z"/><path class="cls-3" d="M45.5,103.88,39,100.14a2.17,2.17,0,0,1-.92-1.75h0c0-.67.41-1,.92-.69l6.46,3.73a2.19,2.19,0,0,1,.92,1.75h0C46.42,103.86,46,104.17,45.5,103.88Z"/><path class="cls-6" d="M51,105.83c0,.68-.48,1-1.06.61a2.3,2.3,0,0,1-1.06-1.83c0-.68.47-1,1.06-.61A2.36,2.36,0,0,1,51,105.83Z"/><path class="cls-7" d="M54.75,108c0,.68-.48,1-1.06.61a2.33,2.33,0,0,1-1.06-1.83c0-.68.47-1,1.06-.61A2.34,2.34,0,0,1,54.75,108Z"/><path class="cls-3" d="M58.48,110.15c0,.67-.47.95-1.06.61a2.35,2.35,0,0,1-1.05-1.83c0-.68.47-1,1.05-.62A2.33,2.33,0,0,1,58.48,110.15Z"/><path class="cls-7" d="M62.22,112.31c0,.67-.47,1-1.06.61a2.36,2.36,0,0,1-1.06-1.84c0-.67.48-1,1.06-.61A2.33,2.33,0,0,1,62.22,112.31Z"/><path class="cls-3" d="M78,123.33l-2.18-1.25A1.42,1.42,0,0,1,75.2,121v-2.3c0-.44.26-.64.59-.45L78,119.46a1.42,1.42,0,0,1,.58,1.12v2.31C78.55,123.32,78.29,123.52,78,123.33Z"/><path class="cls-1" d="M81.11,145.52,35.16,119a4.44,4.44,0,0,1-1.87-3.55v-8.77c0-1.37.84-2,1.87-1.4l46,26.53A4.46,4.46,0,0,1,83,135.35v8.77C83,145.49,82.13,146.12,81.11,145.52Z"/><path class="cls-8" d="M79.79,142.45l-43.32-25a2.28,2.28,0,0,1-.94-1.81v-6.59c0-.69.42-1,.94-.71l43.32,25a2.25,2.25,0,0,1,.94,1.8v6.59C80.73,142.43,80.31,142.75,79.79,142.45Z"/><path class="cls-3" d="M45.5,119.33,39,115.59a2.17,2.17,0,0,1-.92-1.75h0c0-.67.41-1,.92-.69l6.46,3.73a2.19,2.19,0,0,1,.92,1.75h0C46.42,119.31,46,119.62,45.5,119.33Z"/><ellipse class="cls-6" cx="49.95" cy="120.67" rx="0.86" ry="1.5" transform="translate(-53.65 41.15) rotate(-30)"/><path class="cls-6" d="M54.75,123.44c0,.68-.48,1-1.06.61a2.32,2.32,0,0,1-1.06-1.83c0-.68.47-1,1.06-.61A2.34,2.34,0,0,1,54.75,123.44Z"/><path class="cls-3" d="M58.48,125.6c0,.67-.47,1-1.06.61a2.35,2.35,0,0,1-1.05-1.83c0-.68.47-.95,1.05-.62A2.33,2.33,0,0,1,58.48,125.6Z"/><path class="cls-6" d="M62.22,127.76c0,.67-.47,1-1.06.61a2.36,2.36,0,0,1-1.06-1.84c0-.67.48-1,1.06-.61A2.33,2.33,0,0,1,62.22,127.76Z"/><path class="cls-6" d="M78,138.78l-2.18-1.25a1.4,1.4,0,0,1-.59-1.13v-2.3c0-.44.26-.63.59-.45L78,134.91a1.42,1.42,0,0,1,.58,1.12v2.31C78.55,138.77,78.29,139,78,138.78Z"/><path class="cls-1" d="M81.11,161,35.16,134.45a4.48,4.48,0,0,1-1.87-3.56v-8.76c0-1.38.84-2,1.87-1.41l46,26.53A4.47,4.47,0,0,1,83,150.81v8.76C83,160.94,82.13,161.57,81.11,161Z"/><path class="cls-8" d="M79.79,157.9l-43.32-25a2.26,2.26,0,0,1-.94-1.81V124.5c0-.69.42-1,.94-.71l43.32,25a2.26,2.26,0,0,1,.94,1.8v6.59C80.73,157.88,80.31,158.2,79.79,157.9Z"/><path class="cls-3" d="M45.5,134.78,39,131.05a2.21,2.21,0,0,1-.92-1.76h0c0-.67.41-1,.92-.69l6.46,3.73a2.19,2.19,0,0,1,.92,1.75h0C46.42,134.76,46,135.07,45.5,134.78Z"/><path class="cls-7" d="M52.19,137.57c0,1.28-.9,1.79-2,1.16a4.41,4.41,0,0,1-2-3.47c0-1.28.89-1.79,2-1.16A4.44,4.44,0,0,1,52.19,137.57Z"/><path class="cls-6" d="M59.93,142.1c0,.68-.47,1-1.06.61a2.36,2.36,0,0,1-1.06-1.83c0-.68.48-.95,1.06-.61A2.3,2.3,0,0,1,59.93,142.1Z"/><path class="cls-3" d="M63.67,144.26c0,.67-.48,1-1.06.61A2.33,2.33,0,0,1,61.55,143c0-.67.47-.94,1.06-.61A2.36,2.36,0,0,1,63.67,144.26Z"/><path class="cls-6" d="M67.41,146.42c0,.67-.48,1-1.06.61a2.33,2.33,0,0,1-1.06-1.84c0-.67.47-.95,1.06-.61A2.36,2.36,0,0,1,67.41,146.42Z"/><path class="cls-3" d="M78,154.23,75.79,153a1.4,1.4,0,0,1-.59-1.13v-2.3c0-.43.26-.63.59-.45L78,150.36a1.42,1.42,0,0,1,.58,1.13v2.3C78.55,154.22,78.29,154.42,78,154.23Z"/><path class="cls-1" d="M78.06,199.77a.93.93,0,0,1-.46-.12L25.36,170a2,2,0,0,1,0-3.5l22.41-13.23A2.6,2.6,0,0,0,49,151V136.42a.93.93,0,0,1,1.86,0V151a4.47,4.47,0,0,1-2.2,3.84l-22.4,13.22a.18.18,0,0,0-.09.15.16.16,0,0,0,.09.15L78.51,198a.92.92,0,0,1-.45,1.73Z"/><rect class="cls-1" x="62.21" y="185.99" width="4.96" height="10.71" transform="translate(262.87 230.4) rotate(119.83)"/><path class="cls-1" d="M58.3,189.7a3.89,3.89,0,0,1,1.74-3c1-.57,1.76-.12,1.76,1a3.88,3.88,0,0,1-1.74,3.05C59.09,191.27,58.3,190.82,58.3,189.7Z"/><rect class="cls-1" x="70.98" y="188.86" width="8.04" height="16.8" transform="translate(283.43 230.32) rotate(119.83)"/><path class="cls-2" d="M69.05,191l-3.15-1.8a6.43,6.43,0,0,0-2.47,4.3l3.15,1.81A6.47,6.47,0,0,0,69.05,191Z"/><path class="cls-1" d="M64.88,194.73a6.26,6.26,0,0,1,2.83-4.93c1.57-.92,2.84-.18,2.85,1.63a6.32,6.32,0,0,1-2.83,4.93C66.16,197.27,64.88,196.54,64.88,194.73Z"/><path class="cls-3" d="M61.23,188.55a.5.5,0,0,1,0-1,1.79,1.79,0,0,1,1.64,0,.5.5,0,0,1,0,1A1.84,1.84,0,0,1,61.23,188.55Z"/><rect class="cls-1" x="50.92" y="192.82" width="4.96" height="10.71" transform="translate(251.88 250.43) rotate(119.83)"/><path class="cls-1" d="M47,196.53a3.91,3.91,0,0,1,1.75-3.05c1-.56,1.75-.11,1.76,1a3.87,3.87,0,0,1-1.75,3C47.79,198.1,47,197.65,47,196.53Z"/><rect class="cls-1" x="59.69" y="195.68" width="8.04" height="16.8" transform="translate(272.44 250.34) rotate(119.83)"/><path class="cls-2" d="M57.75,197.81,54.61,196a6.45,6.45,0,0,0-2.47,4.31l3.14,1.8A6.43,6.43,0,0,0,57.75,197.81Z"/><path class="cls-1" d="M53.58,201.55a6.29,6.29,0,0,1,2.83-4.93c1.57-.91,2.84-.18,2.85,1.64a6.29,6.29,0,0,1-2.83,4.93C54.86,204.1,53.59,203.37,53.58,201.55Z"/><path class="cls-3" d="M49.93,195.38a.5.5,0,0,1,0-.95,1.81,1.81,0,0,1,1.65,0,.5.5,0,0,1,0,1A1.81,1.81,0,0,1,49.93,195.38Z"/><path class="cls-1" d="M237.33,116.63l-.21,0a.93.93,0,0,1-.7-1.11l9-39.19a.93.93,0,1,1,1.81.41l-9,39.19A.93.93,0,0,1,237.33,116.63Z"/><path class="cls-1" d="M225.33,113.87a.76.76,0,0,1-.21,0,.91.91,0,0,1-.69-1.11l9-39.19a.93.93,0,0,1,1.81.42l-9,39.19A.93.93,0,0,1,225.33,113.87Z"/><path class="cls-1" d="M213.33,111.1a.75.75,0,0,1-.21,0,.91.91,0,0,1-.69-1.11l9-39.19a.93.93,0,0,1,1.81.42l-9,39.19A.92.92,0,0,1,213.33,111.1Z"/><rect class="cls-1" x="216.51" y="80.58" width="4.96" height="10.71" transform="translate(25.39 -47.71) rotate(13.19)"/><path class="cls-1" d="M219.25,92.54a3.92,3.92,0,0,1-3.42-.8,1.08,1.08,0,0,1,.47-2,3.89,3.89,0,0,1,3.41.8A1.07,1.07,0,0,1,219.25,92.54Z"/><rect class="cls-1" x="217.69" y="65.97" width="8.04" height="16.8" transform="translate(22.82 -48.63) rotate(13.19)"/><path class="cls-2" d="M217.4,81.87l-.83,3.53a6.4,6.4,0,0,0,4.83,1.13l.83-3.52A6.45,6.45,0,0,0,217.4,81.87Z"/><path class="cls-1" d="M222.18,84.79a6.23,6.23,0,0,1-5.53-1.3c-1.32-1.24-1-2.67.75-3.19a6.26,6.26,0,0,1,5.53,1.3C224.25,82.84,223.92,84.27,222.18,84.79Z"/><path class="cls-3" d="M217.31,90.06a.5.5,0,0,1-.91.27,1.82,1.82,0,0,1-.48-1.57c.12-.51.53-.64.91-.28A1.81,1.81,0,0,1,217.31,90.06Z"/><rect class="cls-1" x="227.64" y="87.21" width="4.96" height="10.71" transform="translate(27.19 -50.07) rotate(13.19)"/><path class="cls-1" d="M230.38,99.16a3.88,3.88,0,0,1-3.42-.8c-.82-.77-.61-1.65.46-2a3.86,3.86,0,0,1,3.42.8A1.07,1.07,0,0,1,230.38,99.16Z"/><rect class="cls-1" x="228.81" y="72.6" width="8.04" height="16.8" transform="translate(24.63 -51) rotate(13.19)"/><path class="cls-2" d="M228.52,88.5,227.7,92a6.43,6.43,0,0,0,4.83,1.13l.83-3.53A6.42,6.42,0,0,0,228.52,88.5Z"/><path class="cls-1" d="M233.31,91.42a6.31,6.31,0,0,1-5.54-1.3c-1.32-1.24-1-2.67.75-3.2a6.3,6.3,0,0,1,5.54,1.3C235.38,89.46,235,90.89,233.31,91.42Z"/><path class="cls-3" d="M228.44,96.68c-.12.51-.53.64-.91.28a1.81,1.81,0,0,1-.48-1.58.5.5,0,0,1,.91-.27A1.82,1.82,0,0,1,228.44,96.68Z"/><rect class="cls-1" x="238.89" y="93.78" width="4.96" height="10.71" transform="translate(28.99 -52.47) rotate(13.19)"/><path class="cls-1" d="M241.63,105.74a3.88,3.88,0,0,1-3.42-.81c-.82-.76-.61-1.64.46-2a3.92,3.92,0,0,1,3.42.8A1.08,1.08,0,0,1,241.63,105.74Z"/><rect class="cls-1" x="240.06" y="79.17" width="8.04" height="16.8" transform="translate(26.43 -53.39) rotate(13.19)"/><path class="cls-2" d="M239.77,95.07,239,98.6a6.39,6.39,0,0,0,4.83,1.13l.83-3.53A6.47,6.47,0,0,0,239.77,95.07Z"/><path class="cls-1" d="M244.56,98a6.27,6.27,0,0,1-5.54-1.3c-1.32-1.24-1-2.67.75-3.19a6.27,6.27,0,0,1,5.54,1.29C246.63,96,246.29,97.47,244.56,98Z"/><path class="cls-3" d="M239.69,103.26a.5.5,0,0,1-.91.27,1.79,1.79,0,0,1-.48-1.57c.12-.52.53-.64.91-.28A1.84,1.84,0,0,1,239.69,103.26Z"/><path class="cls-4" d="M163.68,289.37,56.18,227.31c-3-1.76-2.66-4.82.85-6.85l73.2-42.25c3.51-2,8.83-2.24,11.87-.49l107.49,62.07c3,1.75,2.66,4.82-.85,6.85l-73.2,42.24C172,290.91,166.72,291.13,163.68,289.37Z"/><path class="cls-6" d="M274.77,129.84,167.27,67.78a4.32,4.32,0,0,0-3.64-.45h0l-.2.07,0,0-3.89,1.49L163,70.6a1.8,1.8,0,0,0-.05.19L145.44,150.5c-.88,4,.88,8.64,3.92,10.4l104.91,60.57-.37,4.45,4.24-1.65a6,6,0,0,0,3-4.33l17.51-79.7C279.57,136.25,277.81,131.6,274.77,129.84Z"/><path class="cls-2" d="M274.77,129.84,167.27,67.78a4.32,4.32,0,0,0-3.64-.45h0l-.2.07,0,0-3.89,1.49L163,70.6a1.8,1.8,0,0,0-.05.19l-11.54,52.53,52.59,41,74.17-30.18A8.42,8.42,0,0,0,274.77,129.84Z"/><path class="cls-9" d="M270.72,142.09l8.18-3.48a10.27,10.27,0,0,0-3.31-8.2l-13,5.45Z"/><path class="cls-3" d="M250.16,225.49l-107.5-62.06c-3-1.76-4.79-6.41-3.92-10.4l17.51-79.71c.88-4,4.05-5.79,7.1-4l107.49,62.07c3,1.75,4.8,6.41,3.92,10.4l-17.51,79.7C256.38,225.44,253.2,227.25,250.16,225.49Z"/><path class="cls-7" d="M247.83,219.56l-101.1-58.34c-2.78-1.6-4.39-5.87-3.59-9.52l16-72.93c.8-3.65,3.7-5.31,6.49-3.7l101.1,58.34c2.78,1.61,4.39,5.87,3.58,9.52l-16,72.93C253.52,219.51,250.61,221.17,247.83,219.56Z"/><path class="cls-7" d="M247.83,219.56l-101.1-58.34c-2.78-1.6-4.39-5.87-3.59-9.52l16-72.93c.8-3.65,3.7-5.31,6.49-3.7l101.1,58.34c2.78,1.61,4.39,5.87,3.58,9.52l-16,72.93C253.52,219.51,250.61,221.17,247.83,219.56Z"/><path class="cls-6" d="M251.65,228.2,237,226.26,142.1,171.49c-3-1.75-8.36-1.53-11.87.49L63,210.77l-8.89-1.17v5h0a3.47,3.47,0,0,0,2,3.12l107.5,62.06c3,1.76,8.35,1.54,11.86-.49l73.2-42.25c2-1.14,3-2.61,2.9-4h0Z"/><path class="cls-2" d="M180.37,193.59l-6.73-3.89H99.54L63,210.77l-8.89-1.17v5h0a3.47,3.47,0,0,0,2,3.12l107.5,62.06A11.11,11.11,0,0,0,169.8,281Z"/><path class="cls-1" d="M58.08,210.12l-3.95-.52v5h0a3.47,3.47,0,0,0,2,3.12l1.9,1.09Z"/><path class="cls-9" d="M164.76,280.33a13.79,13.79,0,0,0,10.08-.63V268.45H164.76Z"/><path class="cls-3" d="M163.68,274.79,56.18,212.72c-3-1.75-2.66-4.82.85-6.85l73.2-42.24c3.51-2,8.83-2.25,11.87-.5L249.59,225.2c3,1.75,2.66,4.82-.85,6.85l-73.2,42.25C172,276.32,166.72,276.54,163.68,274.79Z"/><path class="cls-7" d="M248.74,230.21l-73.2,42.24c-3.51,2-8.82,2.25-11.86.5L56.18,210.88a4,4,0,0,1-1.89-2.07c-.47,1.44.13,2.9,1.89,3.91l107.5,62.07c3,1.75,8.35,1.53,11.86-.49l73.2-42.25c2.36-1.36,3.3-3.2,2.75-4.78A5.8,5.8,0,0,1,248.74,230.21Z"/><path class="cls-6" d="M101.9,192.18,97,189.37c-.39-.23-.34-.62.11-.88l5.74-3.32a1.67,1.67,0,0,1,1.52-.06l4.87,2.81c.39.22.34.62-.11.88l-5.74,3.31A1.73,1.73,0,0,1,101.9,192.18Z"/><path class="cls-6" d="M109.41,196.51l-4.86-2.81c-.39-.22-.34-.62.11-.88l5.74-3.31a1.67,1.67,0,0,1,1.52-.06l4.87,2.8c.39.23.34.62-.11.88l-5.74,3.32A1.69,1.69,0,0,1,109.41,196.51Z"/><path class="cls-6" d="M116.92,200.85,112.06,198c-.39-.22-.34-.62.11-.88l5.74-3.31a1.71,1.71,0,0,1,1.52-.07l4.87,2.81c.39.23.34.62-.11.88l-5.74,3.32A1.72,1.72,0,0,1,116.92,200.85Z"/><path class="cls-6" d="M127.31,197.27l-4.86-2.81c-.39-.23-.34-.62.11-.88l4.82-2.78a1.71,1.71,0,0,1,1.52-.07l4.87,2.81c.39.23.34.62-.11.88l-4.82,2.78A1.73,1.73,0,0,1,127.31,197.27Z"/><path class="cls-6" d="M134.82,201.6,130,198.8c-.39-.23-.34-.62.11-.88l4.82-2.79a1.7,1.7,0,0,1,1.52-.06l4.87,2.81c.39.22.34.62-.11.88l-4.82,2.78A1.69,1.69,0,0,1,134.82,201.6Z"/><path class="cls-6" d="M142.34,205.94l-4.87-2.81c-.39-.22-.34-.62.11-.88l4.82-2.78a1.67,1.67,0,0,1,1.52-.06l4.87,2.81c.39.22.34.62-.11.88l-4.82,2.78A1.67,1.67,0,0,1,142.34,205.94Z"/><path class="cls-6" d="M149.85,210.28,145,207.47c-.39-.23-.34-.62.11-.88l4.82-2.78a1.73,1.73,0,0,1,1.53-.07l4.86,2.81c.39.23.34.62-.11.88l-4.82,2.78A1.71,1.71,0,0,1,149.85,210.28Z"/><path class="cls-6" d="M157.36,214.61l-4.87-2.8c-.39-.23-.34-.62.11-.88l4.82-2.79a1.72,1.72,0,0,1,1.53-.06l4.86,2.81c.39.22.34.62-.11.88l-4.82,2.78A1.67,1.67,0,0,1,157.36,214.61Z"/><path class="cls-6" d="M164.87,219,160,216.14c-.39-.22-.35-.62.11-.88l4.81-2.78a1.69,1.69,0,0,1,1.53-.06l4.86,2.81c.39.22.34.61-.11.88l-4.82,2.78A1.67,1.67,0,0,1,164.87,219Z"/><path class="cls-6" d="M172.38,223.29l-4.86-2.81c-.39-.23-.34-.62.11-.88l4.82-2.78a1.71,1.71,0,0,1,1.52-.07l4.86,2.81c.39.23.34.62-.11.88l-4.82,2.78A1.71,1.71,0,0,1,172.38,223.29Z"/><path class="cls-6" d="M179.89,227.62l-4.86-2.8c-.39-.23-.34-.62.11-.88l4.82-2.79a1.7,1.7,0,0,1,1.52-.06l4.86,2.81c.39.22.35.62-.1.88l-4.82,2.78A1.69,1.69,0,0,1,179.89,227.62Z"/><path class="cls-6" d="M187.4,232l-4.86-2.81c-.39-.22-.34-.62.11-.88l4.82-2.78a1.67,1.67,0,0,1,1.52-.06l4.87,2.81c.39.22.34.61-.11.88l-4.82,2.78A1.69,1.69,0,0,1,187.4,232Z"/><path class="cls-6" d="M194.91,236.3l-4.86-2.81c-.39-.23-.34-.62.11-.88l4.82-2.78a1.71,1.71,0,0,1,1.52-.07l4.87,2.81c.39.23.34.62-.11.88l-4.82,2.78A1.73,1.73,0,0,1,194.91,236.3Z"/><path class="cls-2" d="M138.38,195.21l-4.86-2.8c-.39-.23-.34-.62.11-.88l4.82-2.79a1.7,1.7,0,0,1,1.52-.06l4.86,2.81c.39.22.34.62-.11.88l-4.82,2.78A1.67,1.67,0,0,1,138.38,195.21Z"/><path class="cls-2" d="M130.76,190.81,125.89,188c-.39-.22-.34-.61.11-.87l4.82-2.79a1.69,1.69,0,0,1,1.53-.06l4.86,2.81c.39.22.34.62-.11.88l-4.82,2.78A1.67,1.67,0,0,1,130.76,190.81Z"/><path class="cls-6" d="M123.12,186.4l-10.47-6c-.39-.23-.35-.62.11-.88l4.81-2.79a1.73,1.73,0,0,1,1.53-.06l10.47,6.05c.39.22.35.62-.11.88l-4.82,2.78A1.67,1.67,0,0,1,123.12,186.4Z"/><path class="cls-6" d="M128.46,181l-8.5-4.9c-.39-.23-.34-.62.11-.88l4.82-2.79a1.67,1.67,0,0,1,1.52-.06l8.5,4.91c.39.22.34.62-.11.88L130,181A1.67,1.67,0,0,1,128.46,181Z"/><path class="cls-2" d="M145.89,199.55,141,196.74c-.39-.22-.34-.62.11-.88l4.82-2.78a1.67,1.67,0,0,1,1.52-.06l4.86,2.81c.39.22.35.62-.11.88l-4.81,2.78A1.69,1.69,0,0,1,145.89,199.55Z"/><path class="cls-6" d="M153.4,203.89l-4.86-2.81c-.39-.23-.34-.62.11-.88l4.82-2.78a1.71,1.71,0,0,1,1.52-.07l4.87,2.81c.39.23.34.62-.11.88l-4.82,2.78A1.7,1.7,0,0,1,153.4,203.89Z"/><path class="cls-6" d="M160.91,208.22l-4.86-2.8c-.39-.23-.34-.62.11-.88l4.82-2.79a1.7,1.7,0,0,1,1.52-.06l4.87,2.81c.39.22.34.62-.11.88l-4.82,2.78A1.69,1.69,0,0,1,160.91,208.22Z"/><path class="cls-6" d="M168.43,212.56l-4.87-2.81c-.39-.22-.34-.62.11-.88l4.82-2.78A1.67,1.67,0,0,1,170,206l4.87,2.81c.39.22.34.62-.11.88L170,212.5A1.67,1.67,0,0,1,168.43,212.56Z"/><path class="cls-6" d="M175.94,216.9l-4.87-2.81c-.39-.23-.34-.62.11-.88l4.82-2.78a1.73,1.73,0,0,1,1.53-.07l4.86,2.81c.39.23.34.62-.11.88l-4.82,2.78A1.71,1.71,0,0,1,175.94,216.9Z"/><path class="cls-6" d="M183.45,221.23l-4.87-2.8c-.39-.23-.34-.62.11-.88l4.82-2.79a1.72,1.72,0,0,1,1.53-.06l4.86,2.81c.39.22.34.62-.11.88L185,221.17A1.67,1.67,0,0,1,183.45,221.23Z"/><path class="cls-6" d="M191,225.57l-4.86-2.81c-.39-.22-.35-.62.11-.88L191,219.1a1.69,1.69,0,0,1,1.53-.06l4.86,2.81c.39.22.34.62-.11.88l-4.82,2.78A1.67,1.67,0,0,1,191,225.57Z"/><path class="cls-6" d="M198.47,229.91l-4.86-2.81c-.39-.23-.34-.62.11-.88l4.82-2.78a1.71,1.71,0,0,1,1.52-.07l4.86,2.81c.39.23.34.62-.11.88L200,229.84A1.71,1.71,0,0,1,198.47,229.91Z"/><path class="cls-6" d="M206,234.24l-4.86-2.8c-.39-.23-.34-.62.11-.88l4.82-2.79a1.7,1.7,0,0,1,1.52-.06l4.86,2.81c.39.22.35.62-.1.88l-4.82,2.78A1.69,1.69,0,0,1,206,234.24Z"/><path class="cls-6" d="M219.34,242l-10.62-6.12c-.39-.23-.34-.62.11-.88l4.82-2.79a1.72,1.72,0,0,1,1.53-.06l10.61,6.13c.39.22.34.62-.11.88l-4.82,2.78A1.67,1.67,0,0,1,219.34,242Z"/><path class="cls-6" d="M234,233.51l-9-5.17c-.39-.23-.34-.62.11-.88l4.82-2.78a1.71,1.71,0,0,1,1.52-.07l9,5.18c.39.22.34.62-.11.88l-4.82,2.78A1.67,1.67,0,0,1,234,233.51Z"/><path class="cls-6" d="M159.05,198.7l-4.87-2.81c-.39-.22-.34-.61.11-.88l4.82-2.78a1.67,1.67,0,0,1,1.52-.06L165.5,195c.39.22.34.62-.11.88l-4.82,2.78A1.67,1.67,0,0,1,159.05,198.7Z"/><path class="cls-6" d="M151.35,194.26l-4.87-2.81c-.39-.23-.34-.62.11-.88l4.82-2.78a1.73,1.73,0,0,1,1.53-.07l4.86,2.81c.39.23.34.62-.11.88l-4.82,2.78A1.67,1.67,0,0,1,151.35,194.26Z"/><path class="cls-2" d="M143.65,189.81l-4.86-2.8c-.39-.23-.35-.62.11-.88l4.81-2.79a1.69,1.69,0,0,1,1.53-.06l4.86,2.81c.39.22.34.62-.11.88l-4.82,2.78A1.67,1.67,0,0,1,143.65,189.81Z"/><path class="cls-6" d="M136,185.37l-4.86-2.81c-.39-.22-.34-.62.11-.88L136,178.9a1.67,1.67,0,0,1,1.52-.06l4.86,2.8c.39.23.35.62-.11.88l-4.81,2.79A1.73,1.73,0,0,1,136,185.37Z"/><path class="cls-6" d="M166.56,203l-4.87-2.81c-.39-.22-.34-.62.11-.88l4.82-2.78a1.69,1.69,0,0,1,1.53-.06l4.86,2.8c.39.23.34.62-.11.88L168.08,203A1.7,1.7,0,0,1,166.56,203Z"/><path class="cls-6" d="M174.07,207.38l-4.87-2.81c-.39-.23-.34-.62.11-.88l4.82-2.78a1.73,1.73,0,0,1,1.53-.07l4.86,2.81c.39.23.34.62-.11.88l-4.82,2.78A1.71,1.71,0,0,1,174.07,207.38Z"/><path class="cls-6" d="M181.58,211.71l-4.86-2.81c-.39-.22-.35-.61.11-.88l4.81-2.78a1.69,1.69,0,0,1,1.53-.06L188,208c.39.22.34.62-.11.88l-4.82,2.78A1.67,1.67,0,0,1,181.58,211.71Z"/><path class="cls-6" d="M189.09,216.05l-4.86-2.81c-.39-.22-.34-.62.11-.88l4.82-2.78a1.67,1.67,0,0,1,1.52-.06l4.86,2.8c.39.23.34.62-.11.88L190.61,216A1.7,1.7,0,0,1,189.09,216.05Z"/><path class="cls-6" d="M196.6,220.39l-4.86-2.81c-.39-.23-.34-.62.11-.88l4.82-2.78a1.71,1.71,0,0,1,1.52-.07l4.86,2.81c.39.23.35.62-.1.88l-4.82,2.78A1.73,1.73,0,0,1,196.6,220.39Z"/><path class="cls-6" d="M204.11,224.72l-4.86-2.81c-.39-.22-.34-.61.11-.88l4.82-2.78a1.67,1.67,0,0,1,1.52-.06l4.87,2.81c.39.22.34.62-.11.88l-4.82,2.78A1.69,1.69,0,0,1,204.11,224.72Z"/><path class="cls-6" d="M211.62,229.06l-4.86-2.81c-.39-.22-.34-.62.11-.88l4.82-2.78a1.67,1.67,0,0,1,1.52-.06l4.87,2.8c.39.23.34.62-.11.88L213.15,229A1.72,1.72,0,0,1,211.62,229.06Z"/><path class="cls-6" d="M219.14,233.4l-4.87-2.81c-.39-.23-.34-.62.11-.88l4.82-2.78a1.71,1.71,0,0,1,1.52-.07l4.87,2.81c.39.23.34.62-.11.88l-4.82,2.78A1.71,1.71,0,0,1,219.14,233.4Z"/><path class="cls-6" d="M226.65,237.73l-4.87-2.81c-.39-.22-.34-.61.11-.88l4.82-2.78a1.69,1.69,0,0,1,1.53-.06L233.1,234c.39.22.34.62-.11.88l-4.82,2.78A1.67,1.67,0,0,1,226.65,237.73Z"/><path class="cls-6" d="M155.09,188l-4.86-2.81c-.39-.23-.34-.62.11-.88l4.82-2.78a1.71,1.71,0,0,1,1.52-.07l4.86,2.81c.39.23.34.62-.11.88l-4.82,2.78A1.71,1.71,0,0,1,155.09,188Z"/><path class="cls-6" d="M147.62,183.66l-4.87-2.81c-.39-.22-.34-.62.11-.88l4.82-2.78a1.69,1.69,0,0,1,1.53-.06l4.86,2.81c.39.22.34.62-.11.88l-4.82,2.78A1.67,1.67,0,0,1,147.62,183.66Z"/><path class="cls-6" d="M140.14,179.35l-4.86-2.81c-.39-.23-.34-.62.11-.88l4.82-2.78a1.71,1.71,0,0,1,1.52-.07l4.87,2.81c.39.23.34.62-.11.88l-4.82,2.78A1.73,1.73,0,0,1,140.14,179.35Z"/><path class="cls-6" d="M132.67,175l-4.87-2.81c-.39-.22-.34-.62.11-.88l4.82-2.78a1.69,1.69,0,0,1,1.53-.06l4.86,2.81c.39.22.34.62-.11.88L134.19,175A1.67,1.67,0,0,1,132.67,175Z"/><path class="cls-6" d="M140.35,170.59l-4.86-2.8c-.39-.23-.34-.62.11-.88l1.59-.92a1.73,1.73,0,0,1,1.53-.07l4.86,2.81c.39.23.34.62-.11.88l-1.59.92A1.69,1.69,0,0,1,140.35,170.59Z"/><path class="cls-6" d="M150.11,176.23l-4.87-2.81c-.39-.23-.34-.62.11-.88l1.6-.92a1.71,1.71,0,0,1,1.52-.07l4.86,2.81c.39.23.35.62-.11.88l-1.59.92A1.71,1.71,0,0,1,150.11,176.23Z"/><path class="cls-6" d="M157.55,180.52l-4.86-2.81c-.39-.22-.34-.62.11-.88l1.59-.92a1.7,1.7,0,0,1,1.52-.06l4.87,2.81c.39.22.34.62-.11.88l-1.6.92A1.67,1.67,0,0,1,157.55,180.52Z"/><path class="cls-6" d="M165,184.82,160.13,182c-.39-.22-.34-.62.11-.88l1.59-.92a1.69,1.69,0,0,1,1.53-.06l4.86,2.81c.39.22.34.62-.11.88l-1.59.92A1.72,1.72,0,0,1,165,184.82Z"/><path class="cls-6" d="M172.44,189.12l-4.87-2.81c-.39-.23-.34-.62.11-.88l1.59-.92a1.69,1.69,0,0,1,1.53-.06l4.86,2.8c.39.23.34.62-.11.88l-1.59.92A1.71,1.71,0,0,1,172.44,189.12Z"/><path class="cls-6" d="M214,213.11l-4.87-2.81c-.39-.23-.34-.62.11-.88l1.6-.92a1.67,1.67,0,0,1,1.52-.06l4.86,2.8c.39.23.35.62-.11.88l-1.59.92A1.71,1.71,0,0,1,214,213.11Z"/><path class="cls-6" d="M221.43,217.4l-4.86-2.8c-.39-.23-.34-.62.11-.88l1.59-.92a1.71,1.71,0,0,1,1.52-.07l4.87,2.81c.39.23.34.62-.11.88l-1.6.92A1.67,1.67,0,0,1,221.43,217.4Z"/><path class="cls-6" d="M228.87,221.7,224,218.89c-.39-.22-.34-.62.11-.88l1.59-.92a1.69,1.69,0,0,1,1.53-.06l4.86,2.81c.39.22.34.62-.11.88l-1.59.92A1.69,1.69,0,0,1,228.87,221.7Z"/><path class="cls-6" d="M236.32,226l-4.87-2.81c-.39-.23-.34-.62.11-.88l1.59-.92a1.69,1.69,0,0,1,1.53-.06l4.86,2.8c.39.23.34.62-.11.88l-1.59.92A1.71,1.71,0,0,1,236.32,226Z"/><path class="cls-6" d="M162.6,192.31l-4.86-2.81c-.39-.22-.34-.61.11-.87l4.82-2.79a1.67,1.67,0,0,1,1.52-.06l4.86,2.81c.39.22.35.62-.11.88l-4.81,2.78A1.69,1.69,0,0,1,162.6,192.31Z"/><path class="cls-6" d="M170.11,196.65l-4.86-2.81c-.39-.22-.34-.62.11-.88l4.82-2.78a1.67,1.67,0,0,1,1.52-.06l4.87,2.8c.39.23.34.62-.11.88l-4.82,2.79A1.72,1.72,0,0,1,170.11,196.65Z"/><path class="cls-6" d="M177.62,201l-4.86-2.81c-.39-.23-.34-.62.11-.88l4.82-2.78a1.71,1.71,0,0,1,1.52-.07l4.87,2.81c.39.23.34.62-.11.88l-4.82,2.78A1.73,1.73,0,0,1,177.62,201Z"/><path class="cls-6" d="M185.14,205.32l-4.87-2.81c-.39-.22-.34-.61.11-.87l4.82-2.79a1.67,1.67,0,0,1,1.52-.06l4.87,2.81c.39.22.34.62-.11.88l-4.82,2.78A1.67,1.67,0,0,1,185.14,205.32Z"/><path class="cls-6" d="M192.65,209.66l-4.87-2.81c-.39-.22-.34-.62.11-.88l4.82-2.78a1.69,1.69,0,0,1,1.53-.06l4.86,2.8c.39.23.34.62-.11.88l-4.82,2.79A1.7,1.7,0,0,1,192.65,209.66Z"/><path class="cls-6" d="M200.16,214l-4.87-2.81c-.39-.23-.34-.62.11-.88l4.82-2.78a1.73,1.73,0,0,1,1.53-.07l4.86,2.81c.39.23.34.62-.11.88l-4.82,2.78A1.71,1.71,0,0,1,200.16,214Z"/><path class="cls-6" d="M207.67,218.33l-4.86-2.81c-.39-.22-.35-.61.11-.88l4.81-2.78a1.69,1.69,0,0,1,1.53-.06l4.86,2.81c.39.22.34.62-.11.88l-4.82,2.78A1.67,1.67,0,0,1,207.67,218.33Z"/><path class="cls-6" d="M215.18,222.67l-4.86-2.81c-.39-.22-.34-.62.11-.88l4.82-2.78a1.67,1.67,0,0,1,1.52-.06l4.86,2.8c.39.23.34.62-.11.88l-4.82,2.79A1.7,1.7,0,0,1,215.18,222.67Z"/><path class="cls-6" d="M222.69,227l-4.86-2.81c-.39-.23-.34-.62.11-.88l4.82-2.78a1.71,1.71,0,0,1,1.52-.07l4.86,2.81c.39.23.35.62-.1.88l-4.82,2.78A1.73,1.73,0,0,1,222.69,227Z"/><path class="cls-6" d="M119.66,192.85l-14.33-8.27c-.39-.23-.34-.62.11-.88l4.82-2.78a1.73,1.73,0,0,1,1.53-.07l14.32,8.27c.39.23.34.62-.11.88l-4.82,2.79A1.7,1.7,0,0,1,119.66,192.85Z"/><path class="cls-6" d="M211.94,246.13l-14.33-8.28c-.39-.22-.34-.61.11-.87l4.82-2.79a1.67,1.67,0,0,1,1.52-.06l14.33,8.27c.39.23.34.62-.11.88l-4.82,2.78A1.71,1.71,0,0,1,211.94,246.13Z"/><path class="cls-6" d="M181.9,238.36,177,235.55c-.39-.22-.34-.62.11-.88l5.74-3.31a1.69,1.69,0,0,1,1.53-.06l4.86,2.8c.39.23.34.62-.11.88l-5.74,3.32A1.67,1.67,0,0,1,181.9,238.36Z"/><path class="cls-6" d="M127.35,206.87l-7.78-4.49c-.39-.23-.34-.62.11-.88l5.74-3.32a1.69,1.69,0,0,1,1.53-.06l7.77,4.49c.4.23.35.62-.1.88l-5.75,3.32A1.7,1.7,0,0,1,127.35,206.87Z"/><path class="cls-6" d="M174.66,234.18l-7.78-4.49c-.39-.22-.34-.62.11-.88l5.74-3.31a1.73,1.73,0,0,1,1.53-.07l7.77,4.5c.4.22.35.61-.1.88l-5.75,3.31A1.67,1.67,0,0,1,174.66,234.18Z"/><path class="cls-6" d="M138.19,213.13l-7.78-4.5c-.39-.22-.34-.61.11-.88l5.74-3.31a1.67,1.67,0,0,1,1.52-.06l7.78,4.49c.39.22.34.62-.11.88l-5.74,3.31A1.71,1.71,0,0,1,138.19,213.13Z"/><path class="cls-6" d="M137.84,204.41l33.82,19.52c.42.25.42.64,0,.88l-5.86,3.38a1.69,1.69,0,0,1-1.52,0l-33.82-19.53Z"/><path class="cls-6" d="M202.89,246.22l5.42,3.13c.32.19.28.51-.09.72l-2.35,1.36a1.38,1.38,0,0,1-1.25,0l-5.42-3.13c-.32-.18-.28-.5.09-.72l2.35-1.35A1.39,1.39,0,0,1,202.89,246.22Z"/><path class="cls-6" d="M195.32,241.85l5.42,3.13c.32.18.27.51-.09.72l-2.35,1.36a1.42,1.42,0,0,1-1.25.05L191.63,244c-.32-.18-.28-.51.09-.72l2.35-1.36A1.42,1.42,0,0,1,195.32,241.85Z"/><path class="cls-6" d="M187.81,237.51l5.41,3.13c.32.19.28.51-.09.72l-2.34,1.36a1.38,1.38,0,0,1-1.25.05l-5.42-3.13c-.32-.18-.28-.5.09-.72l2.35-1.35A1.39,1.39,0,0,1,187.81,237.51Z"/><path class="cls-6" d="M199.47,239.46l5.41,3.12c.32.19.28.51-.09.73l-2.35,1.35a1.33,1.33,0,0,1-1.24.05l-5.42-3.12c-.32-.19-.28-.51.09-.73l2.35-1.35A1.38,1.38,0,0,1,199.47,239.46Z"/><path class="cls-3" d="M189.51,106.53l-7.18-4.15a2.06,2.06,0,0,1-.88-2.13h0a1,1,0,0,1,1.54-.74l7.18,4.15a2.06,2.06,0,0,1,.88,2.13h0A1,1,0,0,1,189.51,106.53Z"/><path class="cls-3" d="M206.63,116.41,196,110.29a2.06,2.06,0,0,1-.88-2.13h0a1,1,0,0,1,1.54-.73l10.6,6.12a2.07,2.07,0,0,1,.87,2.13h0A1,1,0,0,1,206.63,116.41Z"/><path class="cls-3" d="M177,140.08l-7.18-4.15a2.06,2.06,0,0,1-.88-2.13h0a1,1,0,0,1,1.54-.74l7.18,4.15a2.06,2.06,0,0,1,.88,2.13h0A1,1,0,0,1,177,140.08Z"/><path class="cls-3" d="M192.25,148.89l-10.6-6.12a2.06,2.06,0,0,1-.88-2.13h0a1,1,0,0,1,1.54-.73l10.6,6.12a2,2,0,0,1,.87,2.12h0A1,1,0,0,1,192.25,148.89Z"/><path class="cls-3" d="M168.31,101.08l-4.49-2.59a2.06,2.06,0,0,1-.88-2.13h0a1,1,0,0,1,1.54-.73L169,98.22a2.06,2.06,0,0,1,.88,2.13h0A1,1,0,0,1,168.31,101.08Z"/><path class="cls-3" d="M182.15,115.87,168.43,108a2.06,2.06,0,0,1-.88-2.13h0a1,1,0,0,1,1.54-.74L182.81,113a2,2,0,0,1,.88,2.12h0A1,1,0,0,1,182.15,115.87Z"/><path class="cls-3" d="M170.15,122.54l-4.49-2.6a2,2,0,0,1-.88-2.12h0a1,1,0,0,1,1.54-.74l4.49,2.59a2.06,2.06,0,0,1,.88,2.13h0A1,1,0,0,1,170.15,122.54Z"/><path class="cls-3" d="M194.56,163.82l-12-6.93a2,2,0,0,1-.87-2.13h0a1,1,0,0,1,1.53-.73l12,6.92a2.06,2.06,0,0,1,.87,2.13h0A1,1,0,0,1,194.56,163.82Z"/><path class="cls-3" d="M165.77,133.6l-2.88-1.66a2.06,2.06,0,0,1-.88-2.13h0a1,1,0,0,1,1.54-.73l2.88,1.66a2.06,2.06,0,0,1,.88,2.13h0A1,1,0,0,1,165.77,133.6Z"/><path class="cls-3" d="M163.7,146l-3.58-2.06a2.08,2.08,0,0,1-.88-2.13h0a1,1,0,0,1,1.54-.74l3.58,2.07a2.06,2.06,0,0,1,.88,2.13h0A1,1,0,0,1,163.7,146Z"/><path class="cls-3" d="M177.63,154l-9.44-5.45a2,2,0,0,1-.88-2.12h0a1,1,0,0,1,1.54-.74l9.44,5.45a2,2,0,0,1,.87,2.13h0A1,1,0,0,1,177.63,154Z"/><path class="cls-3" d="M165.52,153.85l-6.78-3.92a2,2,0,0,1-.88-2.12h0a1,1,0,0,1,1.54-.74l6.78,3.92a2.06,2.06,0,0,1,.88,2.13h0A1,1,0,0,1,165.52,153.85Z"/><path class="cls-3" d="M204.85,169.79l-4.36-2.52a2.06,2.06,0,0,1-.88-2.13h0a1,1,0,0,1,1.54-.73l4.36,2.52a2,2,0,0,1,.87,2.12h0A1,1,0,0,1,204.85,169.79Z"/><path class="cls-3" d="M186.85,132.18l-12-6.92a2.06,2.06,0,0,1-.88-2.13h0a1,1,0,0,1,1.54-.74l12,6.93a2,2,0,0,1,.88,2.13h0A1,1,0,0,1,186.85,132.18Z"/><path class="cls-3" d="M188,126,167,114a2.07,2.07,0,0,1-.87-2.13h0a1,1,0,0,1,1.54-.74l20.9,12.07a2.06,2.06,0,0,1,.87,2.13h0A1,1,0,0,1,188,126Z"/><path class="cls-3" d="M176.27,132.87l-12-6.93a2.06,2.06,0,0,1-.88-2.13h0a1,1,0,0,1,1.54-.73l12,6.92a2.06,2.06,0,0,1,.88,2.13h0A1,1,0,0,1,176.27,132.87Z"/><path class="cls-3" d="M196,137.43l-4.36-2.51a2.06,2.06,0,0,1-.88-2.13h0a1,1,0,0,1,1.54-.74l4.36,2.52a2.06,2.06,0,0,1,.88,2.13h0A1,1,0,0,1,196,137.43Z"/><path class="cls-3" d="M239,135.07l-25.8-14.89a2.06,2.06,0,0,1-.88-2.13h0a1,1,0,0,1,1.54-.74l25.8,14.9a2.06,2.06,0,0,1,.88,2.13h0A1,1,0,0,1,239,135.07Z"/><path class="cls-3" d="M175.92,146.26l-14.41-8.32a2.06,2.06,0,0,1-.88-2.13h0a1,1,0,0,1,1.54-.73l14.41,8.32a2.06,2.06,0,0,1,.88,2.13h0A1,1,0,0,1,175.92,146.26Z"/><path class="cls-3" d="M175.8,98.61l-10.6-6.12a2,2,0,0,1-.87-2.13h0a1,1,0,0,1,1.53-.73l10.6,6.12a2,2,0,0,1,.88,2.13h0A1,1,0,0,1,175.8,98.61Z"/><path class="cls-3" d="M163.63,159.56l-12.27-7.09a2.06,2.06,0,0,1-.88-2.13h0a1,1,0,0,1,1.54-.73l12.27,7.09a2,2,0,0,1,.88,2.12h0A1,1,0,0,1,163.63,159.56Z"/><path class="cls-3" d="M246.71,185.43l-7.19-4.15a2.06,2.06,0,0,1-.88-2.13h0a1,1,0,0,1,1.54-.73l7.19,4.15a2,2,0,0,1,.87,2.13h0A1,1,0,0,1,246.71,185.43Z"/><path class="cls-3" d="M251.87,161.22l-13.72-7.92a2.06,2.06,0,0,1-.88-2.13h0a1,1,0,0,1,1.54-.73l13.72,7.92a2.06,2.06,0,0,1,.88,2.13h0A1,1,0,0,1,251.87,161.22Z"/><path class="cls-3" d="M239.87,167.89l-4.49-2.59a2.06,2.06,0,0,1-.88-2.13h0a1,1,0,0,1,1.54-.73l4.49,2.59a2.06,2.06,0,0,1,.88,2.13h0A1,1,0,0,1,239.87,167.89Z"/><path class="cls-3" d="M235.49,179l-2.88-1.67a2,2,0,0,1-.87-2.12h0a1,1,0,0,1,1.53-.74l2.89,1.67a2.05,2.05,0,0,1,.87,2.12h0A1,1,0,0,1,235.49,179Z"/><path class="cls-3" d="M256.57,177.53l-12-6.92a2.06,2.06,0,0,1-.88-2.13h0a1,1,0,0,1,1.54-.73l12,6.92a2.06,2.06,0,0,1,.88,2.13h0A1,1,0,0,1,256.57,177.53Z"/><path class="cls-3" d="M257.67,171.37l-20.9-12.07a2.06,2.06,0,0,1-.88-2.13h0a1,1,0,0,1,1.54-.73l20.9,12.07a2,2,0,0,1,.88,2.12h0A1,1,0,0,1,257.67,171.37Z"/><path class="cls-3" d="M246,178.22l-12-6.92a2.06,2.06,0,0,1-.88-2.13h0a1,1,0,0,1,1.54-.74l12,6.93a2.06,2.06,0,0,1,.88,2.13h0A1,1,0,0,1,246,178.22Z"/><path class="cls-3" d="M245.64,191.62l-14.41-8.33a2.06,2.06,0,0,1-.88-2.13h0a1,1,0,0,1,1.54-.73l14.41,8.32a2.06,2.06,0,0,1,.88,2.13h0A1,1,0,0,1,245.64,191.62Z"/><polygon class="cls-1" points="277.91 105.26 289.24 100.75 286.69 84.09 281.19 88.96 277.91 105.26"/><path class="cls-1" d="M202.1,27.56l27.37-10.93s-5.05,10.91-5.05,10.93-14.62,3.38-14.62,3.38Z"/><path class="cls-1" d="M287.92,72.91a12,12,0,0,0-4.43-1.53c1.51-10.07-2.85-20.7-11.2-25.53a18.1,18.1,0,0,0-7.82-2.45c3.27-12.21-1.78-26.09-12.08-32a19,19,0,0,0-16.33-1.57h0l-.25.1-.4.16-8.57,3.37,3.42,2.94c-4.64,1.46-8.65,5.21-10.77,10.76-3.9,10.22.1,22.65,8.95,27.76L281,99.19c6.64,3.84,10.68,2.24,13.61-5.44S294.56,76.74,287.92,72.91Z"/><path class="cls-1" d="M221.9,22.61l29.49-11.79a18.85,18.85,0,0,0-15.33-1h0l-.25.1-.4.16-8.57,3.37,3.42,2.94A16.34,16.34,0,0,0,221.9,22.61Z"/><path class="cls-1" d="M263,66.82l19.48-7.76a23.45,23.45,0,0,0-10.26-13.27,19,19,0,0,0-2-1L243.39,55.52Z"/><path class="cls-3" d="M232.83,14.64l8.36,4.83,14.5-5.77a23.16,23.16,0,0,0-3.3-2.34,20.64,20.64,0,0,0-5.67-2.25Z"/><path class="cls-3" d="M281.15,55.81l-14,5.59,4.13,5.81,12-4.79A26.91,26.91,0,0,0,281.15,55.81Z"/><path class="cls-3" d="M278.54,76.59a12.05,12.05,0,0,0-4.43-1.52c1.51-10.08-2.95-20.77-11.3-25.6a17.69,17.69,0,0,0-7.72-2.39c3.28-12.21-1.78-26.08-12.08-32-11.08-6.4-24-1.21-28.91,11.59-.17.43-.32.87-.46,1.31-8.45-3.76-17.8.47-21.47,10.08-3.9,10.22.1,22.65,9,27.76l66.81,38.59c6.64,3.84,14.4.73,17.33-6.94S285.19,80.43,278.54,76.59Z"/><path class="cls-7" d="M279.92,75.82a11.87,11.87,0,0,0-4.43-1.52c1.51-10.08-2.95-20.77-11.3-25.6a17.77,17.77,0,0,0-7.72-2.39c3.28-12.21-1.78-26.08-12.08-32a18.84,18.84,0,0,0-19.73.09,18.86,18.86,0,0,1,18.35.68c10.3,5.95,15.36,19.82,12.08,32a17.69,17.69,0,0,1,7.72,2.39c8.35,4.83,12.81,15.52,11.3,25.6a12.05,12.05,0,0,1,4.43,1.52c6.65,3.84,9.65,13.17,6.72,20.85a13.75,13.75,0,0,1-5.22,6.7,13.39,13.39,0,0,0,6.6-7.47C289.57,89,286.57,79.66,279.92,75.82Z"/><path class="cls-7" d="M213.64,28c.12-.39.26-.77.4-1.15a14.9,14.9,0,0,0-13.26,1.35A14.91,14.91,0,0,1,213.64,28Z"/><path class="cls-2" d="M206.09,30a8.77,8.77,0,0,0-3.53.71c-2.65,1.16-4.94,3.84-6.29,7.37-3.43,9,.24,20.36,8,24.85l66.81,38.6a7,7,0,0,0,6,.84,8.19,8.19,0,0,0,4.11-4.88c2.48-6.48-.17-14.7-5.78-17.94a8.54,8.54,0,0,0-3.17-1.11L269.49,78l.35-2.33c1.4-9.28-2.89-19.09-10.19-23.31a14.09,14.09,0,0,0-6.15-2l-3.36-.22.75-2.82c3-11.19-1.85-24.12-11-29.43-4.27-2.47-8.78-3-12.68-1.41s-7.08,5.15-9,10.09c-.15.38-.28.76-.41,1.15L216,33.33,210.75,31A11.47,11.47,0,0,0,206.09,30Z"/><polygon class="cls-1" points="238.83 72.88 241.13 71.95 239.34 70.58 238.83 72.88"/><polygon class="cls-1" points="237.68 47.94 239.91 47.04 239.75 47.98 237.68 47.94"/><polygon class="cls-1" points="246.05 67.05 248.39 66.11 244.99 62.69 246.05 67.05"/><path class="cls-1" d="M240.52,71.89l-8.91-5.14a1.43,1.43,0,0,1-.61-1.47l2.13-10.12,10.56,6.09-2.14,10.12A.67.67,0,0,1,240.52,71.89Z"/><path class="cls-1" d="M239.89,47.05l-12,6.07c-.51.26-.34,1.22.28,1.58L238,60.38l9.84,5.68c.62.35,1.11-.22.81-1L241.46,48C241.15,47.21,240.41,46.79,239.89,47.05Z"/><path class="cls-3" d="M238.18,72.84l-8.91-5.15a1.44,1.44,0,0,1-.61-1.47L230.8,56.1l10.55,6.1-2.14,10.11A.67.67,0,0,1,238.18,72.84Z"/><path class="cls-3" d="M237.55,48,225.5,54.07c-.51.25-.34,1.22.28,1.57l9.84,5.68L245.45,67c.62.36,1.11-.22.81-1L239.12,48.9C238.81,48.16,238.07,47.73,237.55,48Z"/><path class="cls-4" d="M12,274.55l35.65-20.48c2.81-1.61,7.71-1.4,11,.48L131.73,297c3.23,1.88,3.58,4.71.77,6.32L96.85,323.76c-2.81,1.62-7.71,1.41-10.95-.47L12.8,280.88C9.57,279,9.22,276.17,12,274.55Z"/><path class="cls-2" d="M98.28,317l36.5-21a4.22,4.22,0,0,0,2.44-3.43h0l0-6.28-1.17,2a8.78,8.78,0,0,0-2.29-1.84L60.28,243.85c-4.16-2.42-10.47-2.7-14.08-.62l-36.5,21a7,7,0,0,0-1,.72l-1.4-1.79,0,5.91h0c0,1.63,1.11,3.36,3.44,4.71l73.5,42.64C88.35,318.8,94.66,319.07,98.28,317Z"/><path class="cls-3" d="M9.72,259.53l36.5-21c3.62-2.08,9.93-1.8,14.09.62l73.5,42.64c4.17,2.41,4.61,6.06,1,8.13l-36.5,21c-3.62,2.08-9.93,1.81-14.09-.61l-73.5-42.64C6.55,265.25,6.11,261.61,9.72,259.53Z"/><path class="cls-7" d="M134.81,290l-36.5,21c-3.62,2.08-9.93,1.81-14.09-.61l-73.5-42.64c-2-1.17-3.16-2.63-3.39-4.06-.29,1.75.86,3.67,3.39,5.13l73.5,42.65c4.16,2.41,10.47,2.69,14.09.61l36.5-21c1.86-1.07,2.64-2.56,2.39-4.08A4.4,4.4,0,0,1,134.81,290Z"/><path class="cls-7" d="M12,260.38,47.68,239.9c2.81-1.62,7.71-1.4,11,.48l73.1,42.4c3.23,1.88,3.58,4.71.77,6.33L96.85,309.59c-2.81,1.61-7.71,1.4-10.95-.48L12.8,266.7C9.57,264.82,9.22,262,12,260.38Z"/><path class="cls-4" d="M69.46,267.83l-13.2-7.62c-.49-.28-.43-.78.14-1.1h0a2.12,2.12,0,0,1,1.91-.08l13.19,7.62c.49.28.43.77-.14,1.1h0A2.13,2.13,0,0,1,69.46,267.83Z"/><path class="cls-4" d="M57,265.25l-4.71-2.72c-.49-.28-.43-.78.14-1.1h0a2.12,2.12,0,0,1,1.91-.08L59,264.07c.48.28.42.77-.14,1.1h0A2.15,2.15,0,0,1,57,265.25Z"/><path class="cls-2" d="M64.85,269.81l-4.71-2.72c-.49-.28-.43-.78.14-1.1h0a2.12,2.12,0,0,1,1.91-.08l4.7,2.72c.49.28.43.77-.13,1.1h0A2.12,2.12,0,0,1,64.85,269.81Z"/><path class="cls-4" d="M80.82,279,68,271.65c-.49-.28-.43-.77.14-1.1h0a2.12,2.12,0,0,1,1.91-.08l12.78,7.38c.49.28.42.77-.14,1.1h0A2.12,2.12,0,0,1,80.82,279Z"/><path class="cls-4" d="M64.71,274.37l-16.49-9.52c-.49-.28-.42-.78.14-1.1h0a2.12,2.12,0,0,1,1.91-.08l16.49,9.52c.49.28.42.77-.14,1.1h0A2.12,2.12,0,0,1,64.71,274.37Z"/><path class="cls-2" d="M84.54,290.46,44.21,267.17c-.49-.28-.43-.78.13-1.1h0a2.12,2.12,0,0,1,1.91-.08l40.33,23.29c.49.28.43.77-.13,1.1h0A2.12,2.12,0,0,1,84.54,290.46Z"/><path class="cls-4" d="M96.31,283.33,73.1,269.93c-.49-.28-.43-.77.14-1.1h0a2.1,2.1,0,0,1,1.9-.08l23.21,13.4c.49.28.43.77-.14,1.1h0A2.1,2.1,0,0,1,96.31,283.33Z"/><path class="cls-3" d="M67.88,305.21l-3.4-2a1.48,1.48,0,0,1-.61-1.17h0c0-.45.28-.66.61-.46l3.4,2a1.45,1.45,0,0,1,.61,1.17h0C68.49,305.2,68.22,305.4,67.88,305.21Z"/><path class="cls-3" d="M73.22,308.3l-3.4-2a1.48,1.48,0,0,1-.61-1.17h0c0-.45.28-.65.61-.46l3.4,2a1.45,1.45,0,0,1,.61,1.17h0C73.83,308.29,73.56,308.5,73.22,308.3Z"/></g></g></svg>