<svg xmlns="http://www.w3.org/2000/svg" xmlns:xlink="http://www.w3.org/1999/xlink" viewBox="0 0 1966.46 856"><defs><style>.cls-1{opacity:0.35;}.cls-2{fill:url(#linear-gradient);}.cls-3{fill:url(#linear-gradient-2);}.cls-4{fill:url(#linear-gradient-3);}</style><linearGradient id="linear-gradient" x1="1011.1" y1="244.37" x2="1966.46" y2="244.37" gradientUnits="userSpaceOnUse"><stop offset="0" stop-color="#630d0d"/><stop offset="1" stop-color="#371211"/></linearGradient><linearGradient id="linear-gradient-2" x1="16.5" y1="378.3" x2="1962.49" y2="378.3" xlink:href="#linear-gradient"/><linearGradient id="linear-gradient-3" x1="0" y1="700.58" x2="1757.99" y2="700.58" xlink:href="#linear-gradient"/></defs><title>Asset 51</title><g id="Layer_2" data-name="Layer 2"><g id="Layer_1-2" data-name="Layer 1"><g class="cls-1"><path class="cls-2" d="M1026.26,129.36c24.89,27.86,76.58,43.84,127.57,54,64.71,12.86,132.75,19,198.44,30s131.07,27.81,176.87,57.41c55.78,36,75.88,86.5,125.91,125.31,77,59.71,201.87,75.86,311.41,56.52V166a186.21,186.21,0,0,1-22.08,8.11c-81.4,24.34-190.76,19.49-263.3-11.67-33.84-14.54-61.33-34.5-102.47-42.2-28.39-5.31-59.44-4-89.57-3.76-51.58.38-106.53-3.43-146.28-20.75-35.7-15.57-54.21-42.21-41.48-65.69.29-.54.63-1.07,1-1.61h-252.6a126.73,126.73,0,0,0-24.37,24.26C1007.12,76.88,1005.3,105.91,1026.26,129.36Z"/><path class="cls-3" d="M1844.33,562.6c-124.82,3.12-261.74-6.92-349.42-58.82-62.25-36.84-89.15-88.61-130.84-134.26s-112.94-90-201.6-88.44c-64.44,1.14-119.07,26.11-175.18,44.63C898,355.17,792.17,369.87,691.2,359.26S496,310.73,454.23,256.08C396,179.8,442.58,83.24,363.49,13.64A159.68,159.68,0,0,0,345.39,0H16.5V535.63c40,15.38,84.83,26.51,131.74,32.24,122,14.91,233.62-5.7,328.79-50.2,52-24.33,103.07-51.2,166.13-63.89,75.18-15.13,160.14-7.8,231.23,13s129.57,54,178.43,90.63c38.54,28.86,72.19,60.33,118.26,85.15,139.8,75.32,336.41,7.13,491.68,56.87,43.62,14,77,36.24,111.73,57.17h188V563.38C1924.29,560,1883.21,561.63,1844.33,562.6Z"/><path class="cls-4" d="M1646.26,798.83C1491,749.08,1294.37,817.27,1154.58,742c-46.07-24.82-79.72-56.28-118.26-85.14C987.46,620.21,929,587,857.89,566.18s-156.06-28.12-231.24-13c-63,12.68-114.08,39.55-166.12,63.88-95.17,44.5-206.79,65.11-328.79,50.21C84.82,661.55,40,650.42,0,635V808.7c10.79,2.17,21.84,3.95,32.83,5.39,107.26,14.12,219.59,4.53,318.61-22.16C445.49,766.58,534,729.55,639.16,721.7c37.28-2.78,76.59-1.44,110.11,8.48,58.24,17.23,56.8,49.15,74.62,81,9.32,16.64,25,32,45.4,44.85H1758C1723.22,835.07,1689.88,812.8,1646.26,798.83Z"/></g></g></g></svg>