<svg xmlns="http://www.w3.org/2000/svg" xmlns:xlink="http://www.w3.org/1999/xlink" viewBox="0 0 1002.15 354.33"><defs><style>.cls-1,.cls-2,.cls-3{fill:none;stroke:#bbbdbf;stroke-linecap:round;stroke-miterlimit:10;stroke-width:3px;}.cls-2{stroke-dasharray:4.82 4.82 4.82 4.82;}.cls-3{stroke-dasharray:4.82 4.82 4.82 4.82 4.82 4.82;}.cls-4{fill:#f6921e;}.cls-5,.cls-7{fill:#fff;}.cls-19,.cls-6{opacity:0.4;}.cls-7{opacity:0.5;}.cls-8{fill:#7dc3ea;}.cls-9{fill:#396caa;}.cls-10{fill:url(#Áåçûìÿííûé_ãðàäèåíò_13);}.cls-11,.cls-19{fill:#d4ecff;}.cls-12{fill:#5793ce;}.cls-13{fill:url(#Áåçûìÿííûé_ãðàäèåíò_45);}.cls-14{fill:url(#Áåçûìÿííûé_ãðàäèåíò_13-2);}.cls-15{fill:url(#Áåçûìÿííûé_ãðàäèåíò_45-2);}.cls-16{fill:url(#Áåçûìÿííûé_ãðàäèåíò_13-3);}.cls-17{fill:#fafdff;}.cls-18{fill:#173d7a;}.cls-20{fill:url(#Áåçûìÿííûé_ãðàäèåíò_12);}.cls-21{fill:url(#Áåçûìÿííûé_ãðàäèåíò_13-4);}.cls-22{fill:url(#Áåçûìÿííûé_ãðàäèåíò_12-2);}.cls-23{fill:url(#Áåçûìÿííûé_ãðàäèåíò_70);}.cls-24{fill:url(#Áåçûìÿííûé_ãðàäèåíò_13-5);}.cls-25{fill:url(#Áåçûìÿííûé_ãðàäèåíò_45-3);}.cls-26{fill:url(#Áåçûìÿííûé_ãðàäèåíò_13-6);}.cls-27{fill:url(#Áåçûìÿííûé_ãðàäèåíò_45-4);}.cls-28{fill:#1ca9ea;}.cls-29{fill:#c9e8f9;}.cls-30{fill:#009dd5;}.cls-31{fill:#76bde9;}.cls-32{fill:#ffb584;}.cls-33{fill:#0065b7;}.cls-34{fill:#3c4f77;}.cls-35{fill:#e29d74;}.cls-36{fill:#fbb486;}.cls-37{fill:#00436b;}.cls-38{fill:#9fdbf9;}.cls-39{fill:#0082e0;}</style><radialGradient id="Áåçûìÿííûé_ãðàäèåíò_13" cx="837.58" cy="146.95" r="39.32" gradientUnits="userSpaceOnUse"><stop offset="0" stop-color="#699dd1"/><stop offset="0.27" stop-color="#6396cc"/><stop offset="0.64" stop-color="#5184bd"/><stop offset="1" stop-color="#396caa"/></radialGradient><linearGradient id="Áåçûìÿííûé_ãðàäèåíò_45" x1="845" y1="134.35" x2="906.59" y2="171.07" gradientUnits="userSpaceOnUse"><stop offset="0" stop-color="#d4ecff"/><stop offset="0.2" stop-color="#d0eafe"/><stop offset="0.39" stop-color="#c5e2f9"/><stop offset="0.57" stop-color="#b2d6f2"/><stop offset="0.74" stop-color="#98c4e7"/><stop offset="0.84" stop-color="#86b8e0"/></linearGradient><radialGradient id="Áåçûìÿííûé_ãðàäèåíò_13-2" cx="922.29" cy="195.65" r="39.32" xlink:href="#Áåçûìÿííûé_ãðàäèåíò_13"/><linearGradient id="Áåçûìÿííûé_ãðàäèåíò_45-2" x1="929.71" y1="183.04" x2="991.31" y2="219.76" xlink:href="#Áåçûìÿííûé_ãðàäèåíò_45"/><radialGradient id="Áåçûìÿííûé_ãðàäèåíò_13-3" cx="690.84" cy="79.9" r="125.44" xlink:href="#Áåçûìÿííûé_ãðàäèåíò_13"/><linearGradient id="Áåçûìÿííûé_ãðàäèåíò_12" x1="800.4" y1="93.42" x2="768.5" y2="39.5" gradientUnits="userSpaceOnUse"><stop offset="0" stop-color="#86b8e0"/><stop offset="0.12" stop-color="#98c4e7"/><stop offset="0.33" stop-color="#b2d6f2"/><stop offset="0.54" stop-color="#c5e2f9"/><stop offset="0.76" stop-color="#d0eafe"/><stop offset="1" stop-color="#d4ecff"/></linearGradient><radialGradient id="Áåçûìÿííûé_ãðàäèåíò_13-4" cx="792.87" cy="117.55" r="118.55" xlink:href="#Áåçûìÿííûé_ãðàäèåíò_13"/><linearGradient id="Áåçûìÿííûé_ãðàäèåíò_12-2" x1="880.22" y1="139.74" x2="855.06" y2="97.2" xlink:href="#Áåçûìÿííûé_ãðàäèåíò_12"/><radialGradient id="Áåçûìÿííûé_ãðàäèåíò_70" cx="890.27" cy="111.82" r="39.08" gradientUnits="userSpaceOnUse"><stop offset="0" stop-color="#173d7a"/><stop offset="1" stop-color="#274f89"/></radialGradient><radialGradient id="Áåçûìÿííûé_ãðàäèåíò_13-5" cx="663.04" cy="238.68" r="39.32" xlink:href="#Áåçûìÿííûé_ãðàäèåíò_13"/><linearGradient id="Áåçûìÿííûé_ãðàäèåíò_45-3" x1="670.47" y1="226.07" x2="732.06" y2="262.8" xlink:href="#Áåçûìÿííûé_ãðàäèåíò_45"/><radialGradient id="Áåçûìÿííûé_ãðàäèåíò_13-6" cx="747.76" cy="287.37" r="39.32" xlink:href="#Áåçûìÿííûé_ãðàäèåíò_13"/><linearGradient id="Áåçûìÿííûé_ãðàäèåíò_45-4" x1="755.18" y1="274.77" x2="816.77" y2="311.49" xlink:href="#Áåçûìÿííûé_ãðàäèåíò_45"/></defs><title>Asset 11</title><g id="Layer_2" data-name="Layer 2"><g id="Layer_1-2" data-name="Layer 1"><line class="cls-1" x1="386.2" y1="258.11" x2="388.7" y2="258.11"/><line class="cls-2" x1="393.52" y1="258.11" x2="410.39" y2="258.11"/><path class="cls-3" d="M412.8,258.11h47.06a64.32,64.32,0,0,0,64.32-64.32V26.12"/><line class="cls-1" x1="524.18" y1="23.71" x2="524.18" y2="21.21"/><line class="cls-1" x1="687.89" y1="258.11" x2="685.39" y2="258.11"/><line class="cls-2" x1="680.57" y1="258.11" x2="663.7" y2="258.11"/><path class="cls-3" d="M661.29,258.11h-47a64.31,64.31,0,0,1-64.32-64.32V26.12"/><line class="cls-1" x1="549.92" y1="23.71" x2="549.92" y2="21.21"/><circle class="cls-4" cx="536.05" cy="47.74" r="47.74"/><path class="cls-5" d="M535.82,52.72c-4,0-7.67,0-11.38,0-5.87-.08-10.44-3.54-11.82-8.86A11.85,11.85,0,0,1,523.68,29l1.23-.08A9.53,9.53,0,0,1,528.32,21a9.31,9.31,0,0,1,6-2.22c4.93-.11,8.21,2.93,9.74,9.08,2.27-.31,4.56-.28,6.57,1.09a8.22,8.22,0,0,1,3.57,5.76,9.14,9.14,0,0,1,7.26,5,8.87,8.87,0,0,1-7.55,13c-4.37.16-8.75,0-13.13,0h-1.89c0,1.82,0,3.53,0,5.25,0,.24.49.45.73.7.93.95,1.84,1.93,2.8,2.85.32.31.75.71,1.14.72,2.4.06,4.8.08,7.2,0a1.92,1.92,0,0,0,1.24-1,5.67,5.67,0,0,1,6.17-2.94,5.59,5.59,0,0,1,4.42,5.34,5.66,5.66,0,0,1-4.06,5.48,5.38,5.38,0,0,1-6.41-2.83,1.7,1.7,0,0,0-1.84-1.08c-2.11,0-4.23,0-6.35,0a1.49,1.49,0,0,0-1.63,1,5.18,5.18,0,0,1-4.95,3.14,5.47,5.47,0,0,1-5.09-3.19,1.91,1.91,0,0,0-1.33-.84c-2.21-.09-4.42,0-6.63-.06a1.61,1.61,0,0,0-1.74,1,5.47,5.47,0,0,1-7.18,2.64,5.6,5.6,0,1,1,4.67-10.18,4.88,4.88,0,0,1,2.53,2.62,1.46,1.46,0,0,0,1.62,1c2.21,0,4.42,0,6.63,0a1.59,1.59,0,0,0,1.53-.89,10.12,10.12,0,0,1,2.6-2.62,1.59,1.59,0,0,0,.88-1.53C535.79,55.8,535.82,54.35,535.82,52.72Zm15.26-15a8,8,0,0,1,0-.88,5,5,0,0,0-2.38-5.58c-2.12-1.25-4.14-.84-6,.69-.51.42-1.08.77-1.86,1.31,0-2,.08-3.74,0-5.43a6.42,6.42,0,0,0-6.64-6.11,6.56,6.56,0,0,0-6.34,6.48c0,1.17,0,2.34,0,3.8-1.69,0-3.3-.13-4.87,0a8.76,8.76,0,0,0-7.83,9.12,9,9,0,0,0,9.37,8.61c9.41,0,18.82,0,28.23,0a8.18,8.18,0,0,0,1.4-.12,6,6,0,0,0,5.27-6.12,6.06,6.06,0,0,0-6.12-5.79ZM540,63.74a2.68,2.68,0,0,0-2.64-2.58,2.64,2.64,0,0,0-2.6,2.61,2.58,2.58,0,0,0,2.63,2.55A2.61,2.61,0,0,0,540,63.74Zm-22.52,2.57a2.57,2.57,0,0,0,2.8-2.55,2.63,2.63,0,0,0-2.6-2.6,2.58,2.58,0,0,0-.2,5.15Zm42.16-2.58a2.59,2.59,0,1,0-5.17.05,2.59,2.59,0,0,0,5.17-.05Z"/><g class="cls-6"><path class="cls-5" d="M970,139.23l-32.19-18.58L970,102.07l32.19,18.58Zm-29.91-18.58L970,137.92l29.91-17.27L970,103.38Z"/><path class="cls-5" d="M907.87,139.23l-32.19-18.58,32.19-18.59,32.18,18.59ZM878,120.65l29.91,17.26,29.9-17.26-29.9-17.27Z"/><path class="cls-5" d="M938.91,157.16l-32.18-18.59L938.91,120l32.19,18.58ZM909,138.57l29.9,17.27,29.91-17.27-29.91-17.26Z"/><path class="cls-5" d="M970,175.08,937.77,156.5,970,137.92l32.19,18.58ZM940.05,156.5,970,173.76l29.91-17.26L970,139.23Z"/><path class="cls-5" d="M845.77,139.23l-32.18-18.58,32.18-18.59L878,120.65Zm-29.9-18.58,29.9,17.26,29.91-17.26-29.91-17.27Z"/><path class="cls-5" d="M876.82,157.16l-32.19-18.59L876.82,120,909,138.57Zm-29.91-18.59,29.91,17.27,29.91-17.27-29.91-17.26Z"/><path class="cls-5" d="M907.87,175.08,875.68,156.5l32.19-18.59,32.18,18.59ZM878,156.5l29.91,17.26,29.9-17.26-29.9-17.27Z"/><path class="cls-5" d="M938.91,193l-32.18-18.59,32.18-18.58,32.19,18.58ZM909,174.42l29.9,17.27,29.91-17.27-29.91-17.26Z"/><path class="cls-5" d="M970,210.93l-32.19-18.58L970,173.76l32.19,18.59Zm-29.91-18.58L970,209.61l29.91-17.26L970,175.08Z"/><path class="cls-5" d="M783.68,139.23l-32.19-18.58,32.19-18.59,32.19,18.59Zm-29.91-18.58,29.91,17.26,29.91-17.26-29.91-17.27Z"/><path class="cls-5" d="M814.73,157.15l-32.19-18.58L814.73,120l32.18,18.58Zm-29.91-18.58,29.91,17.27,29.9-17.27-29.9-17.26Z"/><path class="cls-5" d="M845.77,175.08,813.59,156.5l32.18-18.59L878,156.5Zm-29.9-18.58,29.9,17.26,29.91-17.26-29.91-17.27Z"/><path class="cls-5" d="M876.82,193l-32.19-18.59,32.19-18.58L909,174.42Zm-29.91-18.59,29.91,17.27,29.91-17.27-29.91-17.26Z"/><path class="cls-5" d="M907.87,210.93l-32.19-18.58,32.19-18.59,32.18,18.59ZM878,192.35l29.91,17.26,29.9-17.26-29.9-17.27Z"/><path class="cls-5" d="M938.91,228.86l-32.18-18.59,32.18-18.58,32.19,18.58ZM909,210.27l29.9,17.27,29.91-17.27L938.91,193Z"/><path class="cls-5" d="M970,246.78,937.77,228.2,970,209.61l32.19,18.59ZM940.05,228.2,970,245.46l29.91-17.26L970,210.93Z"/><path class="cls-5" d="M721.59,139.23,689.4,120.65l32.18-18.59,32.19,18.59Zm-29.91-18.58,29.91,17.26,29.9-17.26-29.91-17.27Z"/><path class="cls-5" d="M752.63,157.15l-32.18-18.58L752.63,120l32.19,18.58Zm-29.9-18.58,29.9,17.27,29.91-17.27L752.63,121.3Z"/><path class="cls-5" d="M783.68,175.08,751.49,156.5l32.19-18.59,32.19,18.59ZM753.77,156.5l29.91,17.26,29.91-17.26-29.91-17.27Z"/><path class="cls-5" d="M814.73,193l-32.19-18.58,32.19-18.58,32.18,18.58Zm-29.91-18.58,29.91,17.27,29.9-17.27-29.9-17.27Z"/><path class="cls-5" d="M845.77,210.93l-32.18-18.58,32.18-18.59L878,192.35Zm-29.9-18.58,29.9,17.26,29.91-17.26-29.91-17.27Z"/><path class="cls-5" d="M876.82,228.85l-32.19-18.58,32.19-18.58L909,210.27Zm-29.91-18.58,29.91,17.27,29.91-17.27L876.82,193Z"/><path class="cls-5" d="M907.87,246.78,875.68,228.2l32.19-18.59,32.18,18.59ZM878,228.2l29.91,17.26,29.9-17.26-29.9-17.27Z"/><path class="cls-5" d="M938.92,264.71l-32.19-18.59,32.18-18.58,32.19,18.58ZM909,246.12l29.91,17.27,29.9-17.27-29.91-17.26Z"/><path class="cls-5" d="M970,282.63l-32.18-18.58L970,245.46l32.19,18.59Zm-29.9-18.58L970,281.31l29.91-17.26L970,246.78Z"/><path class="cls-5" d="M659.49,139.23l-32.18-18.58,32.18-18.59,32.19,18.59Zm-29.91-18.58,29.91,17.26,29.91-17.26-29.91-17.27Z"/><path class="cls-5" d="M690.54,157.15l-32.19-18.58L690.54,120l32.19,18.58Zm-29.91-18.58,29.91,17.27,29.91-17.27L690.54,121.3Z"/><path class="cls-5" d="M721.59,175.08,689.4,156.5l32.19-18.59,32.18,18.59ZM691.68,156.5l29.91,17.26,29.9-17.26-29.9-17.27Z"/><path class="cls-5" d="M752.63,193l-32.18-18.58,32.18-18.58,32.19,18.58Zm-29.9-18.58,29.9,17.27,29.91-17.27-29.91-17.27Z"/><path class="cls-5" d="M783.68,210.93l-32.19-18.58,32.19-18.59,32.19,18.59Zm-29.91-18.58,29.91,17.26,29.91-17.26-29.91-17.27Z"/><path class="cls-5" d="M814.73,228.85l-32.19-18.58,32.19-18.58,32.18,18.58Zm-29.91-18.58,29.91,17.27,29.9-17.27L814.73,193Z"/><path class="cls-5" d="M845.77,246.78,813.59,228.2l32.18-18.59L878,228.2Zm-29.9-18.58,29.9,17.26,29.91-17.26-29.91-17.27Z"/><path class="cls-5" d="M876.82,264.7l-32.18-18.58,32.18-18.58L909,246.12Zm-29.91-18.58,29.91,17.27,29.91-17.27-29.91-17.27Z"/><path class="cls-5" d="M907.87,282.63l-32.19-18.58,32.19-18.59,32.19,18.59ZM878,264.05l29.91,17.26,29.91-17.26-29.91-17.27Z"/><path class="cls-5" d="M938.92,300.55,906.73,282l32.19-18.58L971.1,282ZM909,282l29.91,17.27L968.82,282l-29.9-17.26Z"/><path class="cls-5" d="M970,318.48,937.78,299.9,970,281.31l32.19,18.59Zm-29.9-18.58L970,317.16l29.91-17.26L970,282.63Z"/><path class="cls-5" d="M659.49,175.08,627.31,156.5l32.18-18.59,32.19,18.59Zm-29.9-18.58,29.9,17.26L689.4,156.5l-29.91-17.27Z"/><path class="cls-5" d="M690.54,193l-32.19-18.58,32.19-18.58,32.19,18.58Zm-29.91-18.58,29.91,17.27,29.91-17.27-29.91-17.27Z"/><path class="cls-5" d="M721.59,210.93,689.4,192.35l32.19-18.59,32.18,18.59Zm-29.91-18.58,29.91,17.26,29.9-17.26-29.9-17.27Z"/><path class="cls-5" d="M752.63,228.85l-32.18-18.58,32.18-18.58,32.19,18.58Zm-29.9-18.58,29.9,17.27,29.91-17.27L752.63,193Z"/><path class="cls-5" d="M783.68,246.78,751.49,228.2l32.19-18.59,32.19,18.59ZM753.77,228.2l29.91,17.26,29.91-17.26-29.91-17.27Z"/><path class="cls-5" d="M814.73,264.7l-32.19-18.58,32.19-18.58,32.18,18.58Zm-29.91-18.58,29.91,17.27,29.91-17.27-29.91-17.27Z"/><path class="cls-5" d="M845.78,282.63l-32.19-18.58,32.18-18.59L878,264.05Zm-29.91-18.58,29.91,17.26,29.9-17.26-29.91-17.27Z"/><path class="cls-5" d="M876.82,300.55,844.64,282l32.18-18.58L909,282ZM846.92,282l29.9,17.27L906.73,282,876.82,264.7Z"/><path class="cls-5" d="M907.87,318.48,875.68,299.9l32.19-18.59,32.19,18.59ZM878,299.9l29.91,17.26,29.91-17.26-29.91-17.27Z"/><path class="cls-5" d="M938.92,336.4l-32.19-18.58,32.19-18.58,32.18,18.58ZM909,317.82l29.91,17.27,29.9-17.27-29.9-17.27Z"/><path class="cls-5" d="M970,354.33l-32.18-18.58L970,317.16l32.19,18.59Zm-29.9-18.58L970,353l29.91-17.26L970,318.48Z"/><path class="cls-5" d="M659.49,210.93l-32.18-18.58,32.18-18.59,32.19,18.59Zm-29.9-18.58,29.9,17.26,29.91-17.26-29.91-17.27Z"/><path class="cls-5" d="M690.54,228.85l-32.19-18.58,32.19-18.58,32.19,18.58Zm-29.91-18.58,29.91,17.27,29.91-17.27L690.54,193Z"/><path class="cls-5" d="M721.59,246.78,689.4,228.19l32.19-18.58,32.18,18.59Zm-29.91-18.59,29.91,17.27,29.9-17.26-29.9-17.27Z"/><path class="cls-5" d="M752.63,264.7l-32.18-18.58,32.18-18.58,32.19,18.58Zm-29.9-18.58,29.9,17.27,29.91-17.27-29.91-17.27Z"/><path class="cls-5" d="M783.68,282.63,751.5,264.05l32.18-18.59,32.19,18.59Zm-29.91-18.58,29.91,17.26,29.91-17.26-29.91-17.27Z"/><path class="cls-5" d="M814.73,300.55,782.54,282l32.19-18.58L846.92,282ZM784.82,282l29.91,17.27L844.64,282,814.73,264.7Z"/><path class="cls-5" d="M845.78,318.48,813.59,299.9l32.19-18.59L878,299.9ZM815.87,299.9l29.91,17.26,29.9-17.26-29.9-17.27Z"/><path class="cls-5" d="M876.82,336.4l-32.18-18.58,32.18-18.58L909,317.82Zm-29.9-18.58,29.9,17.27,29.91-17.27-29.91-17.27Z"/><path class="cls-5" d="M907.87,354.33l-32.19-18.58,32.19-18.59,32.19,18.59ZM878,335.75,907.87,353l29.91-17.26-29.91-17.27Z"/><path class="cls-5" d="M659.49,246.78l-32.18-18.59,32.18-18.58,32.19,18.58Zm-29.9-18.59,29.9,17.27,29.91-17.27-29.91-17.26Z"/><path class="cls-5" d="M690.54,264.7l-32.19-18.58,32.19-18.58,32.19,18.58Zm-29.91-18.58,29.91,17.27,29.91-17.27-29.91-17.27Z"/><path class="cls-5" d="M721.59,282.63,689.4,264.05l32.19-18.59,32.18,18.59Zm-29.91-18.58,29.91,17.26,29.91-17.26-29.91-17.27Z"/><path class="cls-5" d="M752.64,300.55,720.45,282l32.18-18.58L784.82,282ZM722.73,282l29.91,17.27L782.54,282,752.63,264.7Z"/><path class="cls-5" d="M783.68,318.48,751.5,299.89l32.18-18.58,32.19,18.59Zm-29.9-18.59,29.9,17.27,29.91-17.26-29.91-17.27Z"/><path class="cls-5" d="M814.73,336.4l-32.19-18.58,32.19-18.58,32.19,18.58Zm-29.91-18.58,29.91,17.27,29.91-17.27-29.91-17.27Z"/><path class="cls-5" d="M845.78,354.33l-32.19-18.58,32.19-18.59L878,335.75Zm-29.91-18.58L845.78,353l29.9-17.26-29.9-17.27Z"/><path class="cls-5" d="M659.5,282.63,627.31,264l32.18-18.58,32.19,18.59ZM629.59,264l29.91,17.27,29.9-17.26-29.91-17.27Z"/><path class="cls-5" d="M690.54,300.55,658.36,282l32.18-18.58L722.73,282ZM660.63,282l29.91,17.27L720.45,282,690.54,264.7Z"/><path class="cls-5" d="M721.59,318.48,689.4,299.89l32.19-18.58,32.19,18.58Zm-29.91-18.59,29.91,17.27,29.91-17.27-29.91-17.26Z"/><path class="cls-5" d="M752.64,336.4l-32.19-18.58,32.19-18.58,32.18,18.58Zm-29.91-18.58,29.91,17.27,29.9-17.27-29.9-17.27Z"/><path class="cls-5" d="M783.68,354.33,751.5,335.74l32.18-18.58,32.19,18.59Zm-29.9-18.59L783.68,353l29.91-17.26-29.91-17.27Z"/><path class="cls-5" d="M659.5,318.48l-32.19-18.59,32.19-18.58,32.18,18.58Zm-29.91-18.59,29.91,17.27,29.9-17.27-29.9-17.26Z"/><path class="cls-5" d="M690.54,336.4l-32.18-18.58,32.18-18.58,32.19,18.58Zm-29.9-18.58,29.9,17.27,29.91-17.27-29.91-17.27Z"/><path class="cls-5" d="M721.59,354.33,689.4,335.74l32.19-18.58,32.19,18.58Zm-29.91-18.59L721.59,353l29.91-17.27-29.91-17.26Z"/><path class="cls-5" d="M659.5,354.33l-32.19-18.59,32.19-18.58,32.18,18.58Zm-29.91-18.59L659.5,353l29.9-17.27-29.9-17.26Z"/></g><path class="cls-5" d="M691.23,144a10.5,10.5,0,0,0-1.75,1.29c-.25-7.89-6-11-13-7-5.72,3.3-10.56,10.36-12.29,17.28a7.75,7.75,0,0,0-4.85,1.21c-5.12,3-9.26,10.13-9.26,16s4.14,8.3,9.26,5.34l31.85-18.39a15.1,15.1,0,0,0,6.84-11.84C698.07,143.55,695,141.78,691.23,144Z"/><path class="cls-5" d="M975.25,127.71A10.93,10.93,0,0,0,973.5,129c-.24-7.9-5.94-11-13-7-5.71,3.3-10.56,10.36-12.29,17.28a7.75,7.75,0,0,0-4.85,1.21c-5.11,3-9.26,10.13-9.26,16s4.15,8.3,9.26,5.34l31.85-18.39a15.1,15.1,0,0,0,6.84-11.84C982.09,127.3,979,125.53,975.25,127.71Z"/><path class="cls-5" d="M826.19,354.23a1.57,1.57,0,0,1-.72-.18,1.55,1.55,0,0,1-.66-2.1,17.57,17.57,0,0,1,6.37-7,8.29,8.29,0,0,1,4.5-1.24c2,.1,4.51-1.41,6.7-4.05a15.3,15.3,0,0,1,4-3.51,8.31,8.31,0,0,1,4.5-1.25c2,.11,4.52-1.41,6.7-4a15.23,15.23,0,0,1,4.06-3.52,8.24,8.24,0,0,1,4.49-1.24c2,.11,4.52-1.42,6.7-4.05a15.15,15.15,0,0,1,4.06-3.51c2.29-1.33,4.57-1.61,6.43-.81a1.57,1.57,0,0,1-1.25,2.87,4.14,4.14,0,0,0-3.62.64,12.19,12.19,0,0,0-3.21,2.81c-2.86,3.43-6.25,5.32-9.26,5.17a5.38,5.38,0,0,0-2.78.82,12.6,12.6,0,0,0-3.22,2.81c-2.85,3.44-6.24,5.32-9.26,5.17a5.25,5.25,0,0,0-2.77.83,12.22,12.22,0,0,0-3.22,2.81c-2.85,3.43-6.24,5.31-9.26,5.17a5.16,5.16,0,0,0-2.77.83,14.35,14.35,0,0,0-5.18,5.75A1.55,1.55,0,0,1,826.19,354.23Z"/><path class="cls-5" d="M647.89,220a6.64,6.64,0,0,1-3,5.21c-1.66,1-3,.18-3-1.74a6.64,6.64,0,0,1,3-5.2C646.55,217.33,647.89,218.11,647.89,220Z"/><path class="cls-5" d="M657.63,214.4a6.65,6.65,0,0,1-3,5.21c-1.65.95-3,.18-3-1.74a6.67,6.67,0,0,1,3-5.2C656.28,211.71,657.63,212.49,657.63,214.4Z"/><path class="cls-5" d="M667.36,208.78a6.61,6.61,0,0,1-3,5.2c-1.66,1-3,.19-3-1.73a6.64,6.64,0,0,1,3-5.2C666,206.09,667.36,206.87,667.36,208.78Z"/><path class="cls-5" d="M677.1,203.16a6.62,6.62,0,0,1-3,5.2c-1.66,1-3,.19-3-1.73a6.64,6.64,0,0,1,3-5.2C675.75,200.47,677.1,201.25,677.1,203.16Z"/><path class="cls-5" d="M929.49,297.65a6.44,6.44,0,0,1-2.91,5.05c-1.61.93-2.92.17-2.92-1.69a6.45,6.45,0,0,1,2.92-5C928.19,295,929.49,295.79,929.49,297.65Z"/><path class="cls-5" d="M937.53,293a6.44,6.44,0,0,1-2.91,5.05c-1.61.92-2.92.17-2.92-1.69a6.43,6.43,0,0,1,2.92-5C936.23,290.4,937.53,291.15,937.53,293Z"/><path class="cls-5" d="M929.49,288.37a6.41,6.41,0,0,1-2.91,5c-1.61.93-2.92.18-2.92-1.68a6.45,6.45,0,0,1,2.92-5.05C928.19,285.76,929.49,286.51,929.49,288.37Z"/><path class="cls-5" d="M937.53,283.73a6.44,6.44,0,0,1-2.91,5c-1.61.93-2.92.18-2.92-1.68a6.45,6.45,0,0,1,2.92-5C936.23,281.11,937.53,281.87,937.53,283.73Z"/><polygon class="cls-5" points="860.94 52.47 854.93 55.94 854.93 49 860.94 45.53 860.94 52.47"/><polygon class="cls-5" points="869.28 47.59 863.27 51.06 863.27 44.13 869.28 40.66 869.28 47.59"/><polygon class="cls-5" points="860.99 61.47 854.99 64.93 854.99 58 860.99 54.53 860.99 61.47"/><polygon class="cls-5" points="869.28 56.68 863.27 60.15 863.27 53.21 869.28 49.75 869.28 56.68"/><path class="cls-7" d="M713.46,303.37a11,11,0,0,0-2.85,2.44c-.13-5.61-4.16-7.85-9.12-5a16.52,16.52,0,0,0-4.38,3.83c-2.21-3.86-6.79-4.76-12.09-1.7-7.45,4.3-13.5,14.77-13.5,23.38a16,16,0,0,0,.14,2,5.14,5.14,0,0,0-3.78.76,14.27,14.27,0,0,0-6.46,11.19c0,4.12,2.89,5.79,6.46,3.73l45.58-26.32A13.71,13.71,0,0,0,719.67,307C719.67,303,716.89,301.39,713.46,303.37Z"/><path class="cls-8" d="M868,201.77l-31.12-18c-1.91-1.1-1.67-3,.54-4.3l30-17.34a8.27,8.27,0,0,1,7.45-.31l31.11,18c1.91,1.1,1.67,3-.54,4.3l-30,17.34C873.24,202.74,869.9,202.88,868,201.77Z"/><path class="cls-5" d="M871.25,194.46a8.32,8.32,0,0,1-4.14-1l-31.11-18a4,4,0,0,1-2.17-3.4,4.76,4.76,0,0,1,2.71-4l30-17.34a9.91,9.91,0,0,1,9.21-.31l31.11,18a4,4,0,0,1,2.18,3.4,4.76,4.76,0,0,1-2.71,4l-30,17.35A10.34,10.34,0,0,1,871.25,194.46Zm.44-41.41a7,7,0,0,0-3.35.82l-30,17.34c-.75.44-.93.83-.94.9a1,1,0,0,0,.41.34l31.11,18a6.51,6.51,0,0,0,5.68-.31l30-17.34c.76-.43.94-.83.94-.9a1.12,1.12,0,0,0-.4-.34l-31.12-18A4.7,4.7,0,0,0,871.69,153.05Z"/><path class="cls-9" d="M907.3,160.85h0V150.12l-24.07,0-8.32-4.8a8.3,8.3,0,0,0-7.45.31l-7.76,4.48H835.6v11a2.18,2.18,0,0,0,1.28,2l31.12,18c1.9,1.11,5.24,1,7.44-.3l30-17.35C906.76,162.69,907.37,161.74,907.3,160.85Z"/><path class="cls-10" d="M871.45,144.56a8.65,8.65,0,0,0-4,1.05l-7.76,4.48H835.6v11a2.18,2.18,0,0,0,1.28,2l31.12,18a6.72,6.72,0,0,0,3.45.74Z"/><path class="cls-11" d="M838.33,150.08H835.6v11a2.18,2.18,0,0,0,1.28,2l1.45.84Z"/><path class="cls-12" d="M868.47,181.31a8.5,8.5,0,0,0,6-.07V168.71h-6Z"/><path class="cls-13" d="M868,170.07l-31.12-18c-1.91-1.1-1.67-3,.54-4.3l30-17.34a8.27,8.27,0,0,1,7.45-.31l31.11,18c1.91,1.1,1.67,3-.54,4.3l-30,17.35C873.24,171,869.9,171.18,868,170.07Z"/><path class="cls-5" d="M905.48,150.31l-30,17.34A8.25,8.25,0,0,1,868,168l-31.12-18a2.94,2.94,0,0,1-1-.85,2,2,0,0,0,1,3l31.12,18c1.9,1.11,5.24,1,7.44-.3l30-17.35c1.72-1,2.24-2.37,1.49-3.45A4.12,4.12,0,0,1,905.48,150.31Z"/><path class="cls-11" d="M895.86,163.68a2.78,2.78,0,0,1-1.26,2.18c-.69.4-1.26.08-1.26-.72A2.78,2.78,0,0,1,894.6,163C895.29,162.56,895.86,162.88,895.86,163.68Z"/><path class="cls-11" d="M899.9,161.35a2.77,2.77,0,0,1-1.26,2.18c-.69.4-1.25.07-1.25-.73a2.8,2.8,0,0,1,1.25-2.18C899.34,160.22,899.9,160.55,899.9,161.35Z"/><path class="cls-11" d="M903.94,159a2.75,2.75,0,0,1-1.26,2.17c-.69.4-1.25.08-1.25-.72a2.79,2.79,0,0,1,1.25-2.18C903.38,157.89,903.94,158.21,903.94,159Z"/><path class="cls-12" d="M869.83,158.94l-14.55-8.41c-.9-.51-.79-1.41.25-2l14.05-8.12a3.89,3.89,0,0,1,3.49-.14l14.56,8.41c.89.51.78,1.41-.25,2l-14.06,8.11A3.89,3.89,0,0,1,869.83,158.94Z"/><path class="cls-11" d="M871.23,151.9l-2-1.16c-.12-.07-.1-.2,0-.28l1.94-1.12a.53.53,0,0,1,.49,0l2,1.16c.12.07.11.2,0,.28l-1.95,1.12A.54.54,0,0,1,871.23,151.9Z"/><path class="cls-9" d="M855.28,150.53l0,0,.21-.15,14.05-8.11a3.89,3.89,0,0,1,3.49-.15l14.52,8.38c.82-.59.86-1.39,0-1.86l-14.56-8.41a3.89,3.89,0,0,0-3.49.14l-14.05,8.12C854.49,149.12,854.38,150,855.28,150.53Z"/><path class="cls-8" d="M952.71,250.47l-31.11-18c-1.91-1.11-1.67-3,.53-4.31l30-17.34a8.3,8.3,0,0,1,7.45-.31l31.11,18c1.91,1.11,1.67,3-.53,4.3l-30,17.35A8.3,8.3,0,0,1,952.71,250.47Z"/><path class="cls-5" d="M956,243.16a8.42,8.42,0,0,1-4.14-1l-31.11-18a4,4,0,0,1-2.17-3.4,4.77,4.77,0,0,1,2.71-4l30-17.34c2.78-1.6,6.74-1.74,9.21-.31l31.11,18a4,4,0,0,1,2.18,3.4,4.75,4.75,0,0,1-2.71,4l-30,17.35A10.35,10.35,0,0,1,956,243.16Zm-2.37-4a6.57,6.57,0,0,0,5.68-.31l30-17.35c.76-.43.94-.83.94-.9a1.12,1.12,0,0,0-.4-.34l-31.11-18a6.56,6.56,0,0,0-5.69.31l-30,17.35c-.75.43-.93.82-.94.9a1.28,1.28,0,0,0,.41.33Z"/><path class="cls-9" d="M992,209.54h0V198.81H967.94L959.62,194a8.3,8.3,0,0,0-7.45.31l-7.76,4.48H920.32v11a2.15,2.15,0,0,0,1.28,2l31.11,18a8.3,8.3,0,0,0,7.45-.31l30-17.34C991.47,211.38,992.08,210.43,992,209.54Z"/><path class="cls-14" d="M956.16,193.25a8.71,8.71,0,0,0-4,1.05l-7.76,4.48H920.32v11a2.15,2.15,0,0,0,1.28,2l31.11,18a6.72,6.72,0,0,0,3.45.74Z"/><path class="cls-11" d="M923,198.77h-2.72v11a2.15,2.15,0,0,0,1.28,2l1.44.83Z"/><path class="cls-12" d="M953.19,230a8.42,8.42,0,0,0,5.95-.07V217.4h-5.95Z"/><path class="cls-15" d="M952.71,218.77l-31.11-18c-1.91-1.11-1.67-3,.53-4.3l30-17.35a8.3,8.3,0,0,1,7.45-.31l31.11,18c1.91,1.11,1.67,3-.53,4.31l-30,17.34A8.3,8.3,0,0,1,952.71,218.77Z"/><path class="cls-5" d="M990.2,199l-30,17.35a8.3,8.3,0,0,1-7.45.31l-31.11-18a2.86,2.86,0,0,1-1-.84c-.65,1.05-.36,2.2,1,3l31.11,18a8.3,8.3,0,0,0,7.45-.31l30-17.34c1.71-1,2.23-2.38,1.48-3.46A4.17,4.17,0,0,1,990.2,199Z"/><path class="cls-11" d="M980.57,212.38a2.78,2.78,0,0,1-1.26,2.17c-.69.4-1.26.08-1.26-.72a2.8,2.8,0,0,1,1.26-2.18C980,211.25,980.57,211.58,980.57,212.38Z"/><path class="cls-11" d="M984.61,210a2.77,2.77,0,0,1-1.26,2.18c-.69.4-1.25.08-1.25-.73a2.77,2.77,0,0,1,1.25-2.17C984.05,208.92,984.61,209.24,984.61,210Z"/><path class="cls-11" d="M988.65,207.71a2.79,2.79,0,0,1-1.25,2.18c-.7.4-1.26.07-1.26-.73A2.77,2.77,0,0,1,987.4,207C988.09,206.58,988.65,206.91,988.65,207.71Z"/><path class="cls-12" d="M954.55,207.63,940,199.23c-.9-.52-.78-1.42.25-2l14.06-8.11a3.87,3.87,0,0,1,3.48-.15l14.56,8.41c.89.51.78,1.42-.25,2L958,207.49A3.87,3.87,0,0,1,954.55,207.63Z"/><path class="cls-11" d="M955.94,200.59l-2-1.16c-.13-.07-.11-.19,0-.28l1.95-1.12a.54.54,0,0,1,.48,0l2,1.16c.13.07.11.2,0,.28l-2,1.12A.49.49,0,0,1,955.94,200.59Z"/><path class="cls-9" d="M940,199.23l0,0a1.53,1.53,0,0,1,.21-.14L954.3,191a3.83,3.83,0,0,1,3.48-.14l14.52,8.38c.82-.59.87-1.39,0-1.87L957.78,189a3.87,3.87,0,0,0-3.48.15l-14.06,8.11C939.21,197.81,939.09,198.71,940,199.23Z"/><path class="cls-8" d="M770.2,259,836,221.5c2.4-1.39,2.1-3.82-.68-5.42l-37.87-21.87c-2.78-1.6-7-1.78-9.39-.39l-65.81,37.53c-2.41,1.39-2.11,3.82.67,5.42l37.87,21.87C763.59,260.24,767.79,260.42,770.2,259Z"/><path class="cls-5" d="M766.11,250.65a12.63,12.63,0,0,1-6.18-1.56l-37.87-21.86c-2-1.17-3.18-2.85-3.18-4.6a4.55,4.55,0,0,1,2.5-3.89l65.83-37.53c2.93-1.69,7.83-1.52,11.15.39l37.87,21.87c2,1.17,3.18,2.84,3.18,4.6A4.56,4.56,0,0,1,836.9,212l-65.82,37.53A10.14,10.14,0,0,1,766.11,250.65Zm26-67.07a6.49,6.49,0,0,0-3.17.7l-65.83,37.53c-.45.26-.73.57-.73.82s.44,1,1.42,1.54L761.69,246c2.21,1.28,5.78,1.46,7.63.39h0l65.81-37.52c.46-.27.73-.58.73-.82s-.43-1-1.41-1.54l-37.87-21.86A9.19,9.19,0,0,0,792.14,183.58Z"/><path class="cls-16" d="M720.66,210.77h0V67.54l56.94-14.9,10.48-6.06c2.41-1.39,6.61-1.21,9.39.39l9.79,5.65,30.37,0-9,138.27a2.72,2.72,0,0,1-1.62,2.51L770.2,236.26c-2.41,1.39-6.61,1.22-9.39-.39L722.94,214C721.34,213.08,720.57,211.88,720.66,210.77Z"/><path class="cls-11" d="M792.44,45.65a10.82,10.82,0,0,1,5,1.32l9.79,5.65,30.37,0V196.22a2.72,2.72,0,0,1-1.61,2.51L770.2,236.26a8.49,8.49,0,0,1-4.36.93l-.68-144.51Z"/><path class="cls-12" d="M769.6,236.56a10.68,10.68,0,0,1-7.51-.09V91h7.51Z"/><path class="cls-11" d="M770.2,92.7,836,55.17c2.4-1.39,2.1-3.82-.68-5.42L797.47,27.88c-2.78-1.6-7-1.77-9.39-.39L722.27,65c-2.41,1.39-2.11,3.82.67,5.42l37.87,21.87C763.59,93.91,767.79,94.09,770.2,92.7Z"/><path class="cls-17" d="M722.94,67.78l37.87,21.87c2.78,1.6,7,1.77,9.39.38L836,52.51a3.73,3.73,0,0,0,1.2-1.07c.82,1.33.45,2.77-1.2,3.73L770.2,92.7c-2.41,1.39-6.61,1.21-9.39-.39L722.94,70.44c-2.16-1.24-2.81-3-1.87-4.35A5.12,5.12,0,0,0,722.94,67.78Z"/><path class="cls-18" d="M768.34,77.49l43.82-25.4c1.12-.65,1-1.79-.32-2.54L794.12,39.32a4.88,4.88,0,0,0-4.39-.18l-43.82,25.4c-1.13.65-1,1.78.31,2.53L764,77.31A4.88,4.88,0,0,0,768.34,77.49Z"/><path class="cls-11" d="M792,53.23l2.53-1.47c.16-.09.14-.24,0-.35L792,50a.66.66,0,0,0-.61,0l-2.54,1.47c-.15.09-.13.24.05.35l2.45,1.41A.66.66,0,0,0,792,53.23Z"/><path class="cls-11" d="M783.51,58.11l2.54-1.47c.16-.09.14-.25,0-.35l-2.45-1.42a.69.69,0,0,0-.61,0l-2.54,1.46c-.16.09-.14.25,0,.36l2.45,1.41A.69.69,0,0,0,783.51,58.11Z"/><path class="cls-11" d="M775,63l2.54-1.46c.16-.09.14-.25,0-.35l-2.46-1.42a.67.67,0,0,0-.6,0l-2.54,1.46c-.16.09-.14.25,0,.35L774.42,63A.69.69,0,0,0,775,63Z"/><path class="cls-11" d="M766.55,67.86l2.54-1.46c.15-.09.13-.25-.05-.36l-2.45-1.41a.66.66,0,0,0-.61,0l-2.54,1.47c-.15.09-.13.25,0,.35l2.45,1.42A.69.69,0,0,0,766.55,67.86Z"/><path class="cls-12" d="M812.16,52.09l0,0a2.53,2.53,0,0,0-.27-.18L794.12,41.71a4.85,4.85,0,0,0-4.39-.19L746,66.89c-1-.74-1.09-1.75-.05-2.35l43.82-25.4a4.88,4.88,0,0,1,4.39.18l17.72,10.23C813.14,50.3,813.28,51.44,812.16,52.09Z"/><path class="cls-18" d="M753.42,121.07,728.5,106.81A6.09,6.09,0,0,1,726,102V93.05c0-1.87,1.14-2.73,2.54-1.92l24.92,14.27a6.07,6.07,0,0,1,2.54,4.85v8.91C756,121,754.82,121.88,753.42,121.07Z"/><path class="cls-5" d="M727.27,90.86a2.5,2.5,0,0,0-.64,1.86v8.91a6.1,6.1,0,0,0,2.54,4.85l24.91,14.26a1.86,1.86,0,0,0,1.24.27,1.51,1.51,0,0,1-1.9.06L728.5,106.81A6.09,6.09,0,0,1,726,102V93.05C726,91.78,726.49,91,727.27,90.86Z"/><path class="cls-9" d="M745.92,111.4l-2.28-1.32a1.33,1.33,0,0,1-.56-1.06v-2.44c0-.41.25-.6.56-.42l2.28,1.32a1.33,1.33,0,0,1,.56,1.06V111C746.48,111.38,746.23,111.57,745.92,111.4Z"/><path class="cls-5" d="M738.28,107,736,105.66a1.31,1.31,0,0,1-.56-1v-2.44c0-.41.25-.6.56-.42l2.28,1.32a1.31,1.31,0,0,1,.56,1.05v2.45C738.84,107,738.59,107.16,738.28,107Z"/><path class="cls-18" d="M753.42,185.45,728.5,171.19a6.09,6.09,0,0,1-2.54-4.85v-8.91c0-1.87,1.14-2.73,2.54-1.92l24.92,14.27a6.09,6.09,0,0,1,2.54,4.85v8.91C756,185.41,754.82,186.26,753.42,185.45Z"/><path class="cls-5" d="M727.27,155.24a2.5,2.5,0,0,0-.64,1.86V166a6.09,6.09,0,0,0,2.54,4.85l24.91,14.26a1.86,1.86,0,0,0,1.24.27,1.51,1.51,0,0,1-1.9.06L728.5,171.19a6.09,6.09,0,0,1-2.54-4.85v-8.91C726,156.16,726.49,155.38,727.27,155.24Z"/><path class="cls-9" d="M745.92,175.78l-2.28-1.32a1.33,1.33,0,0,1-.56-1.06V171c0-.41.25-.6.56-.42l2.28,1.32a1.33,1.33,0,0,1,.56,1.06v2.44C746.48,175.77,746.23,176,745.92,175.78Z"/><path class="cls-5" d="M738.28,171.36,736,170.05a1.33,1.33,0,0,1-.56-1.06v-2.44c0-.41.25-.6.56-.42l2.28,1.32a1.31,1.31,0,0,1,.56,1.06V171C738.84,171.35,738.59,171.54,738.28,171.36Z"/><path class="cls-18" d="M753.42,217.65,728.5,203.38a6.09,6.09,0,0,1-2.54-4.85v-8.91c0-1.87,1.14-2.73,2.54-1.92L753.42,202a6.09,6.09,0,0,1,2.54,4.85v8.91C756,217.6,754.82,218.45,753.42,217.65Z"/><path class="cls-5" d="M727.27,187.43a2.5,2.5,0,0,0-.64,1.86v8.91a6.09,6.09,0,0,0,2.54,4.85l24.91,14.26a1.86,1.86,0,0,0,1.24.27,1.52,1.52,0,0,1-1.9.07L728.5,203.38a6.09,6.09,0,0,1-2.54-4.85v-8.91C726,188.35,726.49,187.57,727.27,187.43Z"/><path class="cls-9" d="M745.92,208l-2.28-1.32a1.33,1.33,0,0,1-.56-1.06v-2.44c0-.41.25-.6.56-.42l2.28,1.32a1.33,1.33,0,0,1,.56,1.06v2.44C746.48,208,746.23,208.14,745.92,208Z"/><path class="cls-5" d="M738.28,203.55,736,202.24a1.33,1.33,0,0,1-.56-1.06v-2.44c0-.41.25-.6.56-.42l2.28,1.32a1.31,1.31,0,0,1,.56,1.06v2.44C738.84,203.54,738.59,203.73,738.28,203.55Z"/><path class="cls-18" d="M753.42,153.26,728.5,139a6.09,6.09,0,0,1-2.54-4.85v-8.91c0-1.87,1.14-2.73,2.54-1.92l24.92,14.27a6.09,6.09,0,0,1,2.54,4.85v8.91C756,153.21,754.82,154.07,753.42,153.26Z"/><path class="cls-5" d="M727.27,123.05a2.5,2.5,0,0,0-.64,1.86v8.91a6.09,6.09,0,0,0,2.54,4.85l24.91,14.26a1.86,1.86,0,0,0,1.24.27,1.51,1.51,0,0,1-1.9.06L728.5,139a6.09,6.09,0,0,1-2.54-4.85v-8.91C726,124,726.49,123.18,727.27,123.05Z"/><path class="cls-9" d="M745.92,143.59l-2.28-1.32a1.33,1.33,0,0,1-.56-1.06v-2.44c0-.41.25-.6.56-.42l2.28,1.32a1.33,1.33,0,0,1,.56,1.06v2.44C746.48,143.58,746.23,143.76,745.92,143.59Z"/><path class="cls-5" d="M738.28,139.17,736,137.85a1.31,1.31,0,0,1-.56-1v-2.44c0-.41.25-.6.56-.42l2.28,1.32a1.31,1.31,0,0,1,.56,1.05v2.45C738.84,139.16,738.59,139.35,738.28,139.17Z"/><path class="cls-12" d="M775,112l57.47-33.18a5.57,5.57,0,0,0,2.33-4.45v-11c0-1.72-1-2.51-2.33-1.76L775,94.78a5.57,5.57,0,0,0-2.33,4.45v11C772.67,111.91,773.71,112.7,775,112Z"/><path class="cls-19" d="M776.65,108.11l54.17-31.28A2.83,2.83,0,0,0,832,74.57V66.33c0-.87-.53-1.27-1.19-.89L776.65,96.72A2.83,2.83,0,0,0,775.46,99v8.24C775.46,108.09,776,108.49,776.65,108.11Z"/><path class="cls-11" d="M819.53,79.18l8.09-4.66a2.77,2.77,0,0,0,1.15-2.2h0c0-.84-.52-1.23-1.15-.86l-8.09,4.66a2.77,2.77,0,0,0-1.14,2.2h0C818.39,79.16,818.9,79.55,819.53,79.18Z"/><path class="cls-18" d="M812.64,81.63c0,.85.6,1.19,1.33.77a2.94,2.94,0,0,0,1.32-2.3c0-.84-.59-1.19-1.32-.76A2.93,2.93,0,0,0,812.64,81.63Z"/><path class="cls-18" d="M808,84.33c0,.85.59,1.19,1.32.77a3,3,0,0,0,1.33-2.3c0-.84-.6-1.19-1.33-.76A2.92,2.92,0,0,0,808,84.33Z"/><path class="cls-11" d="M803.29,87c0,.85.6,1.19,1.33.77a2.94,2.94,0,0,0,1.32-2.3c0-.84-.59-1.19-1.32-.76A2.93,2.93,0,0,0,803.29,87Z"/><path class="cls-18" d="M798.62,89.73c0,.84.59,1.19,1.32.76a2.93,2.93,0,0,0,1.33-2.29c0-.85-.6-1.19-1.33-.77A2.94,2.94,0,0,0,798.62,89.73Z"/><path class="cls-18" d="M778.92,103.52l2.73-1.57a1.76,1.76,0,0,0,.73-1.41V97.66c0-.54-.33-.79-.73-.56l-2.73,1.58a1.76,1.76,0,0,0-.73,1.4V103C778.19,103.51,778.52,103.76,778.92,103.52Z"/><path class="cls-12" d="M775,131.28,832.47,98.1a5.59,5.59,0,0,0,2.33-4.45v-11c0-1.72-1-2.51-2.33-1.77L775,114.11a5.56,5.56,0,0,0-2.33,4.45v11C772.67,131.24,773.71,132,775,131.28Z"/><path class="cls-19" d="M776.65,127.44l54.17-31.28A2.83,2.83,0,0,0,832,93.9V85.66c0-.87-.53-1.27-1.19-.89l-54.17,31.28a2.79,2.79,0,0,0-1.19,2.25v8.24C775.46,127.41,776,127.81,776.65,127.44Z"/><path class="cls-11" d="M819.53,98.51l8.09-4.67a2.74,2.74,0,0,0,1.15-2.19h0c0-.84-.52-1.23-1.15-.87l-8.09,4.67a2.76,2.76,0,0,0-1.14,2.19h0C818.39,98.49,818.9,98.88,819.53,98.51Z"/><path class="cls-5" d="M812.64,101c0,.84.6,1.19,1.33.76a2.92,2.92,0,0,0,1.32-2.29c0-.85-.59-1.19-1.32-.77A3,3,0,0,0,812.64,101Z"/><path class="cls-18" d="M808,103.66c0,.84.59,1.19,1.32.76a2.93,2.93,0,0,0,1.33-2.29c0-.85-.6-1.19-1.33-.77A2.94,2.94,0,0,0,808,103.66Z"/><path class="cls-11" d="M803.29,106.36c0,.84.6,1.19,1.33.76a2.92,2.92,0,0,0,1.32-2.29c0-.85-.59-1.19-1.32-.77A2.94,2.94,0,0,0,803.29,106.36Z"/><path class="cls-18" d="M798.62,109.06c0,.84.59,1.18,1.32.76a2.93,2.93,0,0,0,1.33-2.29c0-.85-.6-1.19-1.33-.77A2.93,2.93,0,0,0,798.62,109.06Z"/><path class="cls-18" d="M778.92,122.85l2.73-1.57a1.79,1.79,0,0,0,.73-1.41V117c0-.54-.33-.79-.73-.56L778.92,118a1.79,1.79,0,0,0-.73,1.41v2.88C778.19,122.84,778.52,123.08,778.92,122.85Z"/><path class="cls-12" d="M775,150.61l57.47-33.19A5.56,5.56,0,0,0,834.8,113V102c0-1.71-1-2.5-2.33-1.76L775,133.44a5.56,5.56,0,0,0-2.33,4.45v11C772.67,150.56,773.71,151.35,775,150.61Z"/><path class="cls-19" d="M776.65,146.77l54.17-31.28a2.83,2.83,0,0,0,1.19-2.26V105c0-.87-.53-1.27-1.19-.9l-54.17,31.28a2.83,2.83,0,0,0-1.19,2.26v8.24C775.46,146.74,776,147.14,776.65,146.77Z"/><path class="cls-11" d="M819.53,117.84l8.09-4.67a2.77,2.77,0,0,0,1.15-2.19h0c0-.85-.52-1.24-1.15-.87l-8.09,4.67a2.75,2.75,0,0,0-1.14,2.19h0C818.39,117.82,818.9,118.2,819.53,117.84Z"/><path class="cls-5" d="M812.64,120.29c0,.84.6,1.18,1.33.76a2.92,2.92,0,0,0,1.32-2.29c0-.85-.59-1.19-1.32-.77A2.94,2.94,0,0,0,812.64,120.29Z"/><path class="cls-18" d="M808,123c0,.84.59,1.18,1.32.76a2.93,2.93,0,0,0,1.33-2.29c0-.85-.6-1.19-1.33-.77A2.93,2.93,0,0,0,808,123Z"/><path class="cls-11" d="M803.29,125.68c0,.85.6,1.19,1.33.77a2.93,2.93,0,0,0,1.32-2.3c0-.84-.59-1.18-1.32-.76A2.93,2.93,0,0,0,803.29,125.68Z"/><path class="cls-18" d="M798.62,128.38c0,.85.59,1.19,1.32.77a2.94,2.94,0,0,0,1.33-2.3c0-.84-.6-1.18-1.33-.76A2.92,2.92,0,0,0,798.62,128.38Z"/><path class="cls-18" d="M778.92,142.18l2.73-1.58a1.76,1.76,0,0,0,.73-1.4v-2.88c0-.55-.33-.8-.73-.56l-2.73,1.57a1.79,1.79,0,0,0-.73,1.41v2.88C778.19,142.16,778.52,142.41,778.92,142.18Z"/><path class="cls-12" d="M775,169.94l57.47-33.19a5.57,5.57,0,0,0,2.33-4.45v-11c0-1.72-1-2.5-2.33-1.76L775,152.76a5.59,5.59,0,0,0-2.33,4.45v11C772.67,169.89,773.71,170.68,775,169.94Z"/><path class="cls-19" d="M776.65,166.09l54.17-31.28a2.81,2.81,0,0,0,1.19-2.26v-8.24c0-.87-.53-1.27-1.19-.89L776.65,154.7a2.83,2.83,0,0,0-1.19,2.26v8.24C775.46,166.07,776,166.47,776.65,166.09Z"/><path class="cls-11" d="M819.53,137.17l8.09-4.67a2.77,2.77,0,0,0,1.15-2.2h0c0-.84-.52-1.23-1.15-.86l-8.09,4.67a2.73,2.73,0,0,0-1.14,2.19h0C818.39,137.14,818.9,137.53,819.53,137.17Z"/><path class="cls-18" d="M812.64,139.61c0,.85.6,1.19,1.33.77a2.93,2.93,0,0,0,1.32-2.3c0-.84-.59-1.18-1.32-.76A2.93,2.93,0,0,0,812.64,139.61Z"/><path class="cls-18" d="M808,142.31c0,.85.59,1.19,1.32.77a2.94,2.94,0,0,0,1.33-2.3c0-.84-.6-1.19-1.33-.76A2.92,2.92,0,0,0,808,142.31Z"/><path class="cls-11" d="M803.29,145c0,.85.6,1.19,1.33.77a2.94,2.94,0,0,0,1.32-2.3c0-.84-.59-1.19-1.32-.76A2.93,2.93,0,0,0,803.29,145Z"/><path class="cls-18" d="M798.62,147.71c0,.85.59,1.19,1.32.77a3,3,0,0,0,1.33-2.3c0-.84-.6-1.19-1.33-.76A2.92,2.92,0,0,0,798.62,147.71Z"/><path class="cls-11" d="M778.92,161.5l2.73-1.57a1.76,1.76,0,0,0,.73-1.41v-2.88c0-.54-.33-.79-.73-.55l-2.73,1.57a1.76,1.76,0,0,0-.73,1.41V161C778.19,161.49,778.52,161.74,778.92,161.5Z"/><path class="cls-12" d="M775,189.26l57.47-33.18a5.59,5.59,0,0,0,2.33-4.45v-11c0-1.72-1-2.51-2.33-1.76L775,172.09a5.57,5.57,0,0,0-2.33,4.45v11C772.67,189.22,773.71,190,775,189.26Z"/><path class="cls-19" d="M776.65,185.42l54.17-31.28a2.83,2.83,0,0,0,1.19-2.26v-8.24c0-.87-.53-1.27-1.19-.89L776.65,174a2.83,2.83,0,0,0-1.19,2.26v8.24C775.46,185.4,776,185.8,776.65,185.42Z"/><path class="cls-11" d="M819.53,156.49l8.09-4.67a2.74,2.74,0,0,0,1.15-2.19h0c0-.84-.52-1.23-1.15-.87l-8.09,4.67a2.77,2.77,0,0,0-1.14,2.2h0C818.39,156.47,818.9,156.86,819.53,156.49Z"/><path class="cls-18" d="M812.64,158.94c0,.85.6,1.19,1.33.77a2.94,2.94,0,0,0,1.32-2.3c0-.84-.59-1.19-1.32-.76A2.93,2.93,0,0,0,812.64,158.94Z"/><path class="cls-5" d="M808,161.64c0,.85.59,1.19,1.32.76a2.93,2.93,0,0,0,1.33-2.29c0-.85-.6-1.19-1.33-.77A2.94,2.94,0,0,0,808,161.64Z"/><path class="cls-11" d="M803.29,164.34c0,.84.6,1.19,1.33.76a2.92,2.92,0,0,0,1.32-2.29c0-.85-.59-1.19-1.32-.77A3,3,0,0,0,803.29,164.34Z"/><path class="cls-5" d="M798.62,167c0,.84.59,1.19,1.32.76a2.93,2.93,0,0,0,1.33-2.29c0-.85-.6-1.19-1.33-.77A2.94,2.94,0,0,0,798.62,167Z"/><path class="cls-11" d="M778.92,180.83l2.73-1.57a1.79,1.79,0,0,0,.73-1.41V175c0-.54-.33-.79-.73-.56L778.92,176a1.76,1.76,0,0,0-.73,1.4v2.88C778.19,180.82,778.52,181.07,778.92,180.83Z"/><path class="cls-12" d="M775,208.59l57.47-33.19A5.56,5.56,0,0,0,834.8,171V160c0-1.71-1-2.5-2.33-1.76L775,191.42a5.56,5.56,0,0,0-2.33,4.45v11C772.67,208.54,773.71,209.33,775,208.59Z"/><path class="cls-19" d="M776.65,204.75l54.17-31.28a2.83,2.83,0,0,0,1.19-2.26V163c0-.87-.53-1.27-1.19-.89l-54.17,31.28a2.79,2.79,0,0,0-1.19,2.25v8.24C775.46,204.72,776,205.12,776.65,204.75Z"/><path class="cls-11" d="M819.53,175.82l8.09-4.67a2.75,2.75,0,0,0,1.15-2.19h0c0-.85-.52-1.23-1.15-.87l-8.09,4.67a2.76,2.76,0,0,0-1.14,2.19h0C818.39,175.8,818.9,176.19,819.53,175.82Z"/><path class="cls-18" d="M812.64,178.27c0,.84.6,1.19,1.33.76a2.92,2.92,0,0,0,1.32-2.29c0-.85-.59-1.19-1.32-.77A3,3,0,0,0,812.64,178.27Z"/><path class="cls-18" d="M808,181c0,.84.59,1.18,1.32.76a2.93,2.93,0,0,0,1.33-2.29c0-.85-.6-1.19-1.33-.77A2.93,2.93,0,0,0,808,181Z"/><path class="cls-11" d="M803.29,183.67c0,.84.6,1.18,1.33.76a2.92,2.92,0,0,0,1.32-2.29c0-.85-.59-1.19-1.32-.77A2.94,2.94,0,0,0,803.29,183.67Z"/><path class="cls-18" d="M798.62,186.37c0,.84.59,1.18,1.32.76a2.93,2.93,0,0,0,1.33-2.29c0-.85-.6-1.19-1.33-.77A2.93,2.93,0,0,0,798.62,186.37Z"/><path class="cls-18" d="M778.92,200.16l2.73-1.57a1.79,1.79,0,0,0,.73-1.41V194.3c0-.55-.33-.79-.73-.56l-2.73,1.57a1.79,1.79,0,0,0-.73,1.41v2.88C778.19,200.14,778.52,200.39,778.92,200.16Z"/><path class="cls-12" d="M775,227.92l57.47-33.19a5.56,5.56,0,0,0,2.33-4.45v-11c0-1.71-1-2.5-2.33-1.76L775,210.74a5.59,5.59,0,0,0-2.33,4.46v11C772.67,227.87,773.71,228.66,775,227.92Z"/><path class="cls-19" d="M776.65,224.07l54.17-31.28a2.79,2.79,0,0,0,1.19-2.25V182.3c0-.87-.53-1.27-1.19-.9l-54.17,31.28a2.83,2.83,0,0,0-1.19,2.26v8.24C775.46,224.05,776,224.45,776.65,224.07Z"/><path class="cls-11" d="M819.53,195.15l8.09-4.67a2.77,2.77,0,0,0,1.15-2.19h0c0-.85-.52-1.24-1.15-.87l-8.09,4.67a2.73,2.73,0,0,0-1.14,2.19h0C818.39,195.12,818.9,195.51,819.53,195.15Z"/><path class="cls-5" d="M811.17,198.64c0,1.6,1.12,2.24,2.5,1.45a5.54,5.54,0,0,0,2.5-4.34c0-1.6-1.12-2.24-2.5-1.44A5.51,5.51,0,0,0,811.17,198.64Z"/><path class="cls-18" d="M801.48,204.31c0,.84.6,1.18,1.33.76a2.92,2.92,0,0,0,1.32-2.29c0-.85-.59-1.19-1.32-.77A2.94,2.94,0,0,0,801.48,204.31Z"/><path class="cls-11" d="M796.81,207c0,.84.59,1.18,1.32.76a2.93,2.93,0,0,0,1.33-2.29c0-.85-.6-1.19-1.33-.77A2.93,2.93,0,0,0,796.81,207Z"/><path class="cls-18" d="M792.13,209.71c0,.84.6,1.18,1.33.76a2.92,2.92,0,0,0,1.32-2.29c0-.85-.59-1.19-1.32-.77A2.94,2.94,0,0,0,792.13,209.71Z"/><path class="cls-11" d="M778.92,219.49l2.73-1.58a1.76,1.76,0,0,0,.73-1.4v-2.89c0-.54-.33-.79-.73-.55l-2.73,1.57a1.76,1.76,0,0,0-.73,1.41v2.88C778.19,219.47,778.52,219.72,778.92,219.49Z"/><path class="cls-20" d="M770.2,90.09,836,52.56c2.4-1.39,2.1-3.82-.68-5.42L797.47,25.27c-2.78-1.6-7-1.78-9.39-.39L722.27,62.41c-2.41,1.39-2.11,3.82.67,5.42L760.81,89.7C763.59,91.3,767.79,91.48,770.2,90.09Z"/><path class="cls-18" d="M798.13,47.77a3.79,3.79,0,0,0-3.41,0L762.48,66.43a1,1,0,0,0,0,2,3.81,3.81,0,0,0,3.42,0l32.23-18.66A1,1,0,0,0,798.13,47.77Z"/><path class="cls-8" d="M852,306.08l65.82-37.53c2.41-1.39,2.1-3.82-.68-5.42l-37.86-21.86c-2.78-1.61-7-1.78-9.39-.39l-65.82,37.53c-2.41,1.39-2.1,3.81.67,5.42l37.87,21.86C845.39,307.3,849.6,307.47,852,306.08Z"/><path class="cls-5" d="M847.92,297.7a12.57,12.57,0,0,1-6.19-1.56l-37.87-21.86c-2-1.17-3.18-2.84-3.18-4.6a4.54,4.54,0,0,1,2.51-3.88L869,228.26c2.93-1.69,7.83-1.51,11.15.4L918,250.52c2,1.17,3.18,2.85,3.18,4.6A4.55,4.55,0,0,1,918.7,259l-65.82,37.53A10.07,10.07,0,0,1,847.92,297.7Zm26-67.07a6.52,6.52,0,0,0-3.17.7L805,268.86c-.46.27-.74.58-.74.82s.44,1,1.42,1.54l37.87,21.86c2.21,1.28,5.77,1.46,7.62.39h0l65.81-37.53c.46-.26.74-.57.74-.82s-.44-1-1.42-1.54l-37.87-21.86A9.3,9.3,0,0,0,873.94,230.63Z"/><path class="cls-21" d="M802.46,257.82h0V114.59l56.94-14.9,10.49-6c2.4-1.39,6.61-1.22,9.39.38l9.78,5.65h30.37l-9,138.26a2.74,2.74,0,0,1-1.61,2.52L852,283.31c-2.4,1.39-6.61,1.22-9.39-.39l-37.87-21.86C803.14,260.14,802.37,258.94,802.46,257.82Z"/><path class="cls-11" d="M874.24,92.7a11,11,0,0,1,5,1.32l9.78,5.65h30.37V243.27a2.72,2.72,0,0,1-1.61,2.52L852,283.31a8.55,8.55,0,0,1-4.35.94L847,139.73Z"/><path class="cls-12" d="M851.4,283.61a10.68,10.68,0,0,1-7.51-.09V138h7.51Z"/><path class="cls-22" d="M852,139.75l65.82-37.53c2.41-1.39,2.1-3.81-.68-5.42L879.28,74.94c-2.78-1.61-7-1.78-9.39-.39l-65.82,37.53c-2.41,1.39-2.1,3.81.67,5.42l37.87,21.86C845.39,141,849.6,141.14,852,139.75Z"/><path class="cls-17" d="M804.74,114.84l37.87,21.86c2.78,1.6,7,1.78,9.39.39l65.82-37.53a3.52,3.52,0,0,0,1.2-1.07c.83,1.34.45,2.78-1.2,3.73L852,139.75c-2.4,1.39-6.61,1.22-9.39-.39L804.74,117.5c-2.16-1.25-2.81-3-1.87-4.36A5.31,5.31,0,0,0,804.74,114.84Z"/><path class="cls-23" d="M850.14,124.54,894,99.14c1.13-.65,1-1.78-.32-2.54L875.92,86.37a4.88,4.88,0,0,0-4.39-.18l-43.82,25.4c-1.13.65-1,1.79.32,2.54l17.72,10.23A4.88,4.88,0,0,0,850.14,124.54Z"/><path class="cls-11" d="M873.8,100.28l2.54-1.46c.15-.09.13-.25-.05-.35l-2.45-1.42a.69.69,0,0,0-.61,0l-2.54,1.46c-.15.09-.13.25,0,.35l2.45,1.42A.69.69,0,0,0,873.8,100.28Z"/><path class="cls-11" d="M865.32,105.16l2.53-1.47c.16-.09.14-.24,0-.35l-2.45-1.41a.66.66,0,0,0-.61,0l-2.54,1.47c-.15.09-.13.25,0,.35l2.45,1.42A.69.69,0,0,0,865.32,105.16Z"/><path class="cls-11" d="M856.83,110l2.54-1.47c.16-.09.14-.25,0-.35l-2.45-1.41a.66.66,0,0,0-.61,0l-2.54,1.47c-.16.09-.14.24,0,.35l2.45,1.41A.66.66,0,0,0,856.83,110Z"/><path class="cls-11" d="M848.35,114.92l2.54-1.47c.15-.09.13-.25,0-.35l-2.45-1.42a.67.67,0,0,0-.6,0l-2.54,1.46c-.16.09-.14.25,0,.35l2.45,1.42A.69.69,0,0,0,848.35,114.92Z"/><path class="cls-12" d="M894,99.14l-.05,0-.27-.18L875.92,88.76a4.88,4.88,0,0,0-4.39-.18L827.76,114c-1-.75-1.09-1.76,0-2.36l43.82-25.4a4.88,4.88,0,0,1,4.39.18L893.64,96.6C895,97.36,895.09,98.49,894,99.14Z"/><path class="cls-18" d="M835.22,168.13l-24.91-14.27a6.06,6.06,0,0,1-2.54-4.85V140.1c0-1.86,1.13-2.72,2.54-1.91l24.91,14.26a6.09,6.09,0,0,1,2.54,4.85v8.91C837.76,168.08,836.62,168.94,835.22,168.13Z"/><path class="cls-5" d="M809.07,137.92a2.49,2.49,0,0,0-.64,1.85v8.91a6.09,6.09,0,0,0,2.54,4.85l24.92,14.26a1.78,1.78,0,0,0,1.23.27,1.51,1.51,0,0,1-1.9.07l-24.91-14.27a6.06,6.06,0,0,1-2.54-4.85V140.1C807.77,138.84,808.3,138.05,809.07,137.92Z"/><path class="cls-9" d="M827.73,158.45l-2.29-1.32a1.32,1.32,0,0,1-.55-1.06v-2.44c0-.41.24-.59.55-.42l2.29,1.32a1.34,1.34,0,0,1,.55,1.06V158C828.28,158.44,828,158.63,827.73,158.45Z"/><path class="cls-5" d="M820.08,154l-2.28-1.32a1.32,1.32,0,0,1-.55-1.06v-2.44c0-.41.24-.59.55-.42l2.28,1.32a1.33,1.33,0,0,1,.56,1.06v2.44C820.64,154,820.39,154.21,820.08,154Z"/><path class="cls-18" d="M835.22,232.51l-24.91-14.27a6,6,0,0,1-2.54-4.85v-8.9c0-1.87,1.13-2.73,2.54-1.92l24.91,14.26a6.09,6.09,0,0,1,2.54,4.85v8.91C837.76,232.46,836.62,233.32,835.22,232.51Z"/><path class="cls-5" d="M809.07,202.3a2.49,2.49,0,0,0-.64,1.85v8.91a6.09,6.09,0,0,0,2.54,4.85l24.92,14.27a1.77,1.77,0,0,0,1.23.26,1.51,1.51,0,0,1-1.9.07l-24.91-14.27a6,6,0,0,1-2.54-4.85v-8.9C807.77,203.22,808.3,202.43,809.07,202.3Z"/><path class="cls-9" d="M827.73,222.83l-2.29-1.32a1.32,1.32,0,0,1-.55-1.06V218c0-.4.24-.59.55-.42l2.29,1.32a1.34,1.34,0,0,1,.55,1.06v2.44C828.28,222.82,828,223,827.73,222.83Z"/><path class="cls-5" d="M820.08,218.42l-2.28-1.32a1.32,1.32,0,0,1-.55-1.06V213.6c0-.41.24-.59.55-.42l2.28,1.32a1.33,1.33,0,0,1,.56,1.06V218C820.64,218.41,820.39,218.6,820.08,218.42Z"/><path class="cls-18" d="M835.22,264.7l-24.91-14.26a6.08,6.08,0,0,1-2.54-4.86v-8.9c0-1.87,1.13-2.73,2.54-1.92L835.22,249a6.09,6.09,0,0,1,2.54,4.85v8.91C837.76,264.65,836.62,265.51,835.22,264.7Z"/><path class="cls-5" d="M809.07,234.49a2.49,2.49,0,0,0-.64,1.85v8.91A6.09,6.09,0,0,0,811,250.1l24.92,14.27a1.77,1.77,0,0,0,1.23.26,1.51,1.51,0,0,1-1.9.07l-24.91-14.26a6.08,6.08,0,0,1-2.54-4.86v-8.9C807.77,235.41,808.3,234.62,809.07,234.49Z"/><path class="cls-9" d="M827.73,255l-2.29-1.32a1.3,1.3,0,0,1-.55-1.06V250.2c0-.4.24-.59.55-.41l2.29,1.31a1.34,1.34,0,0,1,.55,1.06v2.44C828.28,255,828,255.2,827.73,255Z"/><path class="cls-5" d="M820.08,250.61l-2.28-1.32a1.32,1.32,0,0,1-.55-1.06v-2.44c0-.41.24-.59.55-.42l2.28,1.32a1.33,1.33,0,0,1,.56,1.06v2.44C820.64,250.6,820.39,250.79,820.08,250.61Z"/><path class="cls-18" d="M835.22,200.32l-24.91-14.27a6,6,0,0,1-2.54-4.85v-8.91c0-1.86,1.13-2.72,2.54-1.91l24.91,14.26a6.09,6.09,0,0,1,2.54,4.85v8.91C837.76,200.27,836.62,201.13,835.22,200.32Z"/><path class="cls-5" d="M809.07,170.11a2.49,2.49,0,0,0-.64,1.85v8.91a6.09,6.09,0,0,0,2.54,4.85L835.89,200a1.78,1.78,0,0,0,1.23.27,1.51,1.51,0,0,1-1.9.07l-24.91-14.27a6,6,0,0,1-2.54-4.85v-8.91C807.77,171,808.3,170.24,809.07,170.11Z"/><path class="cls-9" d="M827.73,190.64l-2.29-1.32a1.32,1.32,0,0,1-.55-1.06v-2.44c0-.4.24-.59.55-.42l2.29,1.32a1.34,1.34,0,0,1,.55,1.06v2.44C828.28,190.63,828,190.82,827.73,190.64Z"/><path class="cls-5" d="M820.08,186.23l-2.28-1.32a1.32,1.32,0,0,1-.55-1.06v-2.44c0-.41.24-.59.55-.42l2.28,1.32a1.33,1.33,0,0,1,.56,1.06v2.44C820.64,186.22,820.39,186.4,820.08,186.23Z"/><path class="cls-12" d="M856.8,159l57.48-33.19a5.58,5.58,0,0,0,2.33-4.45v-11c0-1.71-1.05-2.5-2.33-1.76L856.8,141.84a5.56,5.56,0,0,0-2.33,4.45v11C854.47,159,855.51,159.75,856.8,159Z"/><path class="cls-19" d="M858.45,155.17l54.18-31.28a2.85,2.85,0,0,0,1.18-2.26v-8.24c0-.87-.53-1.27-1.18-.9l-54.18,31.28a2.82,2.82,0,0,0-1.18,2.26v8.24C857.27,155.14,857.79,155.54,858.45,155.17Z"/><path class="cls-11" d="M901.34,126.24l8.08-4.67a2.77,2.77,0,0,0,1.15-2.19h0c0-.85-.52-1.24-1.15-.87l-8.08,4.67a2.73,2.73,0,0,0-1.15,2.19h0C900.19,126.22,900.7,126.6,901.34,126.24Z"/><path class="cls-18" d="M894.44,128.69c0,.84.6,1.18,1.33.76a2.93,2.93,0,0,0,1.33-2.29c0-.85-.6-1.19-1.33-.77A2.94,2.94,0,0,0,894.44,128.69Z"/><path class="cls-18" d="M889.77,131.39c0,.84.59,1.18,1.33.76a2.92,2.92,0,0,0,1.32-2.29c0-.85-.59-1.19-1.32-.77A2.91,2.91,0,0,0,889.77,131.39Z"/><path class="cls-11" d="M885.09,134.08c0,.85.6,1.19,1.33.77a2.94,2.94,0,0,0,1.33-2.3c0-.84-.6-1.18-1.33-.76A2.93,2.93,0,0,0,885.09,134.08Z"/><path class="cls-18" d="M880.42,136.78c0,.85.59,1.19,1.32.77a2.91,2.91,0,0,0,1.33-2.3c0-.84-.59-1.18-1.33-.76A2.92,2.92,0,0,0,880.42,136.78Z"/><path class="cls-18" d="M860.73,150.58l2.72-1.58a1.74,1.74,0,0,0,.74-1.4v-2.88c0-.55-.33-.8-.74-.56l-2.72,1.57a1.77,1.77,0,0,0-.74,1.41V150C860,150.56,860.32,150.81,860.73,150.58Z"/><path class="cls-12" d="M856.8,178.34l57.48-33.19a5.6,5.6,0,0,0,2.33-4.45v-11c0-1.72-1.05-2.5-2.33-1.76L856.8,161.16a5.59,5.59,0,0,0-2.33,4.45v11C854.47,178.29,855.51,179.08,856.8,178.34Z"/><path class="cls-19" d="M858.45,174.49l54.18-31.28a2.83,2.83,0,0,0,1.18-2.26v-8.24c0-.87-.53-1.27-1.18-.89L858.45,163.1a2.82,2.82,0,0,0-1.18,2.26v8.24C857.27,174.47,857.79,174.87,858.45,174.49Z"/><path class="cls-11" d="M901.34,145.57l8.08-4.67a2.77,2.77,0,0,0,1.15-2.2h0c0-.84-.52-1.23-1.15-.86l-8.08,4.67a2.71,2.71,0,0,0-1.15,2.19h0C900.19,145.54,900.7,145.93,901.34,145.57Z"/><path class="cls-5" d="M894.44,148c0,.85.6,1.19,1.33.77a2.94,2.94,0,0,0,1.33-2.3c0-.84-.6-1.18-1.33-.76A2.93,2.93,0,0,0,894.44,148Z"/><path class="cls-18" d="M889.77,150.71c0,.85.59,1.19,1.33.77a2.93,2.93,0,0,0,1.32-2.3c0-.84-.59-1.18-1.32-.76A2.91,2.91,0,0,0,889.77,150.71Z"/><path class="cls-11" d="M885.09,153.41c0,.85.6,1.19,1.33.77a3,3,0,0,0,1.33-2.3c0-.84-.6-1.19-1.33-.76A2.93,2.93,0,0,0,885.09,153.41Z"/><path class="cls-18" d="M880.42,156.11c0,.85.59,1.19,1.32.77a2.92,2.92,0,0,0,1.33-2.3c0-.84-.59-1.19-1.33-.76A2.92,2.92,0,0,0,880.42,156.11Z"/><path class="cls-18" d="M860.73,169.9l2.72-1.57a1.74,1.74,0,0,0,.74-1.41V164c0-.54-.33-.79-.74-.55l-2.72,1.57a1.74,1.74,0,0,0-.74,1.41v2.88C860,169.89,860.32,170.14,860.73,169.9Z"/><path class="cls-12" d="M856.8,197.66l57.48-33.18a5.61,5.61,0,0,0,2.33-4.45v-11c0-1.72-1.05-2.51-2.33-1.76L856.8,180.49a5.57,5.57,0,0,0-2.33,4.45v11C854.47,197.62,855.51,198.41,856.8,197.66Z"/><path class="cls-19" d="M858.45,193.82l54.18-31.28a2.85,2.85,0,0,0,1.18-2.26V152c0-.87-.53-1.27-1.18-.89l-54.18,31.28a2.82,2.82,0,0,0-1.18,2.26v8.24C857.27,193.8,857.79,194.2,858.45,193.82Z"/><path class="cls-11" d="M901.34,164.89l8.08-4.67a2.74,2.74,0,0,0,1.15-2.19h0c0-.84-.52-1.23-1.15-.87l-8.08,4.67a2.75,2.75,0,0,0-1.15,2.2h0C900.19,164.87,900.7,165.26,901.34,164.89Z"/><path class="cls-5" d="M894.44,167.34c0,.85.6,1.19,1.33.77a3,3,0,0,0,1.33-2.3c0-.84-.6-1.19-1.33-.76A2.93,2.93,0,0,0,894.44,167.34Z"/><path class="cls-18" d="M889.77,170c0,.85.59,1.19,1.33.77a3,3,0,0,0,1.32-2.3c0-.85-.59-1.19-1.32-.77A2.92,2.92,0,0,0,889.77,170Z"/><path class="cls-11" d="M885.09,172.74c0,.84.6,1.19,1.33.76a2.93,2.93,0,0,0,1.33-2.29c0-.85-.6-1.19-1.33-.77A3,3,0,0,0,885.09,172.74Z"/><path class="cls-18" d="M880.42,175.44c0,.84.59,1.19,1.32.76a2.91,2.91,0,0,0,1.33-2.29c0-.85-.59-1.19-1.33-.77A2.94,2.94,0,0,0,880.42,175.44Z"/><path class="cls-18" d="M860.73,189.23l2.72-1.57a1.77,1.77,0,0,0,.74-1.41v-2.88c0-.54-.33-.79-.74-.56l-2.72,1.58a1.74,1.74,0,0,0-.74,1.4v2.88C860,189.22,860.32,189.47,860.73,189.23Z"/><path class="cls-12" d="M856.8,217l57.48-33.19a5.58,5.58,0,0,0,2.33-4.45v-11c0-1.71-1.05-2.5-2.33-1.76L856.8,199.82a5.56,5.56,0,0,0-2.33,4.45v11C854.47,216.94,855.51,217.73,856.8,217Z"/><path class="cls-19" d="M858.45,213.15l54.18-31.28a2.85,2.85,0,0,0,1.18-2.26v-8.24c0-.87-.53-1.27-1.18-.89l-54.18,31.28a2.78,2.78,0,0,0-1.18,2.25v8.24C857.27,213.12,857.79,213.52,858.45,213.15Z"/><path class="cls-11" d="M901.34,184.22l8.08-4.67a2.75,2.75,0,0,0,1.15-2.19h0c0-.85-.52-1.23-1.15-.87l-8.08,4.67a2.74,2.74,0,0,0-1.15,2.19h0C900.19,184.2,900.7,184.59,901.34,184.22Z"/><path class="cls-18" d="M894.44,186.67c0,.84.6,1.19,1.33.76a2.93,2.93,0,0,0,1.33-2.29c0-.85-.6-1.19-1.33-.77A3,3,0,0,0,894.44,186.67Z"/><path class="cls-18" d="M889.77,189.37c0,.84.59,1.18,1.33.76a2.92,2.92,0,0,0,1.32-2.29c0-.85-.59-1.19-1.32-.77A2.91,2.91,0,0,0,889.77,189.37Z"/><path class="cls-11" d="M885.09,192.07c0,.84.6,1.18,1.33.76a2.93,2.93,0,0,0,1.33-2.29c0-.85-.6-1.19-1.33-.77A2.94,2.94,0,0,0,885.09,192.07Z"/><path class="cls-18" d="M880.42,194.77c0,.84.59,1.18,1.32.76a2.91,2.91,0,0,0,1.33-2.29c0-.85-.59-1.19-1.33-.77A2.93,2.93,0,0,0,880.42,194.77Z"/><path class="cls-11" d="M860.73,208.56l2.72-1.57a1.77,1.77,0,0,0,.74-1.41V202.7c0-.55-.33-.79-.74-.56l-2.72,1.57a1.77,1.77,0,0,0-.74,1.41V208C860,208.54,860.32,208.79,860.73,208.56Z"/><path class="cls-12" d="M856.8,236.32l57.48-33.19a5.58,5.58,0,0,0,2.33-4.45v-11c0-1.71-1.05-2.5-2.33-1.76L856.8,219.14a5.59,5.59,0,0,0-2.33,4.46v11C854.47,236.27,855.51,237.06,856.8,236.32Z"/><path class="cls-19" d="M858.45,232.47l54.18-31.28a2.81,2.81,0,0,0,1.18-2.25V190.7c0-.87-.53-1.27-1.18-.9l-54.18,31.28a2.82,2.82,0,0,0-1.18,2.26v8.24C857.27,232.45,857.79,232.85,858.45,232.47Z"/><path class="cls-11" d="M901.34,203.55l8.08-4.67a2.77,2.77,0,0,0,1.15-2.19h0c0-.85-.52-1.24-1.15-.87l-8.08,4.67a2.71,2.71,0,0,0-1.15,2.19h0C900.19,203.52,900.7,203.91,901.34,203.55Z"/><path class="cls-18" d="M894.44,206c0,.84.6,1.18,1.33.76a2.94,2.94,0,0,0,1.33-2.3c0-.84-.6-1.18-1.33-.76A2.94,2.94,0,0,0,894.44,206Z"/><path class="cls-5" d="M889.77,208.69c0,.85.59,1.19,1.33.77a2.93,2.93,0,0,0,1.32-2.3c0-.84-.59-1.18-1.32-.76A2.91,2.91,0,0,0,889.77,208.69Z"/><path class="cls-11" d="M885.09,211.39c0,.85.6,1.19,1.33.77a2.94,2.94,0,0,0,1.33-2.3c0-.84-.6-1.18-1.33-.76A2.93,2.93,0,0,0,885.09,211.39Z"/><path class="cls-5" d="M880.42,214.09c0,.85.59,1.19,1.32.77a2.92,2.92,0,0,0,1.33-2.3c0-.84-.59-1.19-1.33-.76A2.92,2.92,0,0,0,880.42,214.09Z"/><path class="cls-11" d="M860.73,227.89l2.72-1.58a1.74,1.74,0,0,0,.74-1.4V222c0-.54-.33-.79-.74-.55L860.73,223a1.74,1.74,0,0,0-.74,1.41v2.88C860,227.87,860.32,228.12,860.73,227.89Z"/><path class="cls-12" d="M856.8,255.64l57.48-33.18a5.6,5.6,0,0,0,2.33-4.45v-11c0-1.72-1.05-2.51-2.33-1.76L856.8,238.47a5.57,5.57,0,0,0-2.33,4.45v11C854.47,255.6,855.51,256.39,856.8,255.64Z"/><path class="cls-19" d="M858.45,251.8l54.18-31.28a2.85,2.85,0,0,0,1.18-2.26V210c0-.87-.53-1.27-1.18-.89l-54.18,31.28a2.82,2.82,0,0,0-1.18,2.26v8.24C857.27,251.78,857.79,252.18,858.45,251.8Z"/><path class="cls-11" d="M901.34,222.87l8.08-4.66a2.77,2.77,0,0,0,1.15-2.2h0c0-.84-.52-1.23-1.15-.86l-8.08,4.66a2.75,2.75,0,0,0-1.15,2.2h0C900.19,222.85,900.7,223.24,901.34,222.87Z"/><path class="cls-18" d="M894.44,225.32c0,.85.6,1.19,1.33.77a3,3,0,0,0,1.33-2.3c0-.84-.6-1.19-1.33-.76A2.93,2.93,0,0,0,894.44,225.32Z"/><path class="cls-18" d="M889.77,228c0,.85.59,1.19,1.33.77a2.94,2.94,0,0,0,1.32-2.3c0-.84-.59-1.19-1.32-.76A2.91,2.91,0,0,0,889.77,228Z"/><path class="cls-11" d="M885.09,230.72c0,.85.6,1.19,1.33.77a3,3,0,0,0,1.33-2.3c0-.84-.6-1.19-1.33-.76A2.93,2.93,0,0,0,885.09,230.72Z"/><path class="cls-18" d="M880.42,233.42c0,.84.59,1.19,1.32.76a2.91,2.91,0,0,0,1.33-2.29c0-.85-.59-1.19-1.33-.77A2.94,2.94,0,0,0,880.42,233.42Z"/><path class="cls-18" d="M860.73,247.21l2.72-1.57a1.74,1.74,0,0,0,.74-1.41v-2.88c0-.54-.33-.79-.74-.56l-2.72,1.58a1.74,1.74,0,0,0-.74,1.4v2.89C860,247.2,860.32,247.45,860.73,247.21Z"/><path class="cls-12" d="M856.8,275l57.48-33.18a5.61,5.61,0,0,0,2.33-4.45v-11c0-1.72-1.05-2.51-2.33-1.77L856.8,257.8a5.56,5.56,0,0,0-2.33,4.45v11C854.47,274.93,855.51,275.71,856.8,275Z"/><path class="cls-19" d="M858.45,271.13l54.18-31.28a2.85,2.85,0,0,0,1.18-2.26v-8.24c0-.87-.53-1.27-1.18-.89l-54.18,31.28a2.79,2.79,0,0,0-1.18,2.26v8.23C857.27,271.1,857.79,271.5,858.45,271.13Z"/><path class="cls-11" d="M901.34,242.2l8.08-4.67a2.74,2.74,0,0,0,1.15-2.19h0c0-.84-.52-1.23-1.15-.87l-8.08,4.67a2.74,2.74,0,0,0-1.15,2.19h0C900.19,242.18,900.7,242.57,901.34,242.2Z"/><path class="cls-5" d="M893,245.7c0,1.59,1.12,2.24,2.5,1.44a5.54,5.54,0,0,0,2.5-4.33c0-1.6-1.12-2.25-2.5-1.45A5.54,5.54,0,0,0,893,245.7Z"/><path class="cls-18" d="M883.28,251.36c0,.85.6,1.19,1.33.77a2.94,2.94,0,0,0,1.32-2.3c0-.84-.59-1.19-1.32-.76A2.93,2.93,0,0,0,883.28,251.36Z"/><path class="cls-11" d="M878.61,254.06c0,.85.59,1.19,1.32.77a2.92,2.92,0,0,0,1.33-2.3c0-.84-.59-1.19-1.33-.76A2.92,2.92,0,0,0,878.61,254.06Z"/><path class="cls-18" d="M873.93,256.76c0,.84.6,1.19,1.33.76a2.92,2.92,0,0,0,1.32-2.29c0-.85-.59-1.19-1.32-.77A3,3,0,0,0,873.93,256.76Z"/><path class="cls-11" d="M860.73,266.54l2.72-1.57a1.77,1.77,0,0,0,.74-1.41v-2.88c0-.54-.33-.79-.74-.56l-2.72,1.57a1.77,1.77,0,0,0-.74,1.41V266C860,266.53,860.32,266.77,860.73,266.54Z"/><path class="cls-8" d="M693.46,293.5l-31.11-18c-1.91-1.1-1.67-3,.54-4.3l30-17.35c2.2-1.27,5.54-1.41,7.45-.3l31.11,18c1.91,1.1,1.67,3-.54,4.3l-30,17.34A8.27,8.27,0,0,1,693.46,293.5Z"/><path class="cls-5" d="M696.72,286.19a8.42,8.42,0,0,1-4.14-1l-31.11-18a4,4,0,0,1-2.17-3.4,4.75,4.75,0,0,1,2.7-4l30-17.35c2.78-1.6,6.75-1.73,9.22-.3l31.11,18a4,4,0,0,1,2.17,3.4,4.75,4.75,0,0,1-2.7,4l-30,17.34A10.35,10.35,0,0,1,696.72,286.19Zm-2.37-4.05a6.54,6.54,0,0,0,5.68-.31l30-17.34c.75-.44.94-.83.94-.9a1,1,0,0,0-.4-.34l-31.12-18a6.54,6.54,0,0,0-5.68.3l-30,17.35c-.75.43-.93.83-.94.9a1.1,1.1,0,0,0,.41.34Z"/><path class="cls-9" d="M732.77,252.58h0V241.84H708.7l-8.32-4.8a8.27,8.27,0,0,0-7.45.31l-7.76,4.48-24.1,0v11a2.18,2.18,0,0,0,1.28,2l31.11,18a8.27,8.27,0,0,0,7.45-.31l30-17.34C732.23,254.42,732.84,253.46,732.77,252.58Z"/><path class="cls-24" d="M696.92,236.29a8.41,8.41,0,0,0-4,1.05l-7.76,4.48-24.1,0v11a2.18,2.18,0,0,0,1.28,2l31.11,18a6.78,6.78,0,0,0,3.46.74Z"/><path class="cls-11" d="M663.8,241.81h-2.73v11a2.18,2.18,0,0,0,1.28,2l1.45.84Z"/><path class="cls-12" d="M693.94,273a8.56,8.56,0,0,0,6-.07V260.43h-6Z"/><path class="cls-25" d="M693.46,261.8l-31.11-18c-1.91-1.1-1.67-3,.54-4.3l30-17.34a8.24,8.24,0,0,1,7.45-.31l31.11,18c1.91,1.1,1.67,3-.54,4.3l-30,17.34A8.27,8.27,0,0,1,693.46,261.8Z"/><path class="cls-5" d="M731,242l-30,17.34a8.3,8.3,0,0,1-7.45.31l-31.11-18a3,3,0,0,1-1-.85c-.66,1.06-.36,2.2,1,3l31.11,18a8.27,8.27,0,0,0,7.45-.31l30-17.34c1.72-1,2.24-2.37,1.49-3.46A4.13,4.13,0,0,1,731,242Z"/><path class="cls-11" d="M721.32,255.41a2.79,2.79,0,0,1-1.25,2.18c-.7.4-1.26.07-1.26-.73a2.75,2.75,0,0,1,1.26-2.17C720.76,254.29,721.32,254.61,721.32,255.41Z"/><path class="cls-11" d="M725.37,253.08a2.78,2.78,0,0,1-1.26,2.17c-.69.4-1.26.08-1.26-.72a2.8,2.8,0,0,1,1.26-2.18C724.8,252,725.37,252.28,725.37,253.08Z"/><path class="cls-11" d="M729.41,250.74a2.77,2.77,0,0,1-1.26,2.18c-.69.4-1.25.08-1.25-.73a2.77,2.77,0,0,1,1.25-2.17C728.85,249.62,729.41,249.94,729.41,250.74Z"/><path class="cls-12" d="M695.3,250.67l-14.56-8.41c-.89-.52-.78-1.42.26-2l14-8.12a3.89,3.89,0,0,1,3.49-.14l14.56,8.4c.89.52.78,1.42-.25,2l-14.06,8.11A3.89,3.89,0,0,1,695.3,250.67Z"/><path class="cls-11" d="M696.7,243.63l-2-1.16c-.12-.08-.11-.2,0-.28l1.94-1.13a.54.54,0,0,1,.48,0l2,1.17c.12.07.11.19,0,.28l-1.94,1.12A.54.54,0,0,1,696.7,243.63Z"/><path class="cls-9" d="M680.74,242.26l0,0,.21-.14,14-8.12a3.89,3.89,0,0,1,3.49-.14l14.52,8.38c.82-.59.86-1.39,0-1.87L698.54,232a3.89,3.89,0,0,0-3.49.14l-14,8.12C680,240.84,679.85,241.74,680.74,242.26Z"/><path class="cls-8" d="M778.18,342.19l-31.12-18c-1.91-1.1-1.67-3,.54-4.3l30-17.34a8.3,8.3,0,0,1,7.45-.31l31.11,18c1.91,1.1,1.67,3-.54,4.3l-30,17.35C783.42,343.16,780.08,343.3,778.18,342.19Z"/><path class="cls-5" d="M781.43,334.88a8.42,8.42,0,0,1-4.14-1l-31.11-18a3.94,3.94,0,0,1-2.17-3.39,4.76,4.76,0,0,1,2.7-4l30-17.34a9.91,9.91,0,0,1,9.21-.31l31.11,18a4,4,0,0,1,2.18,3.4,4.75,4.75,0,0,1-2.71,4l-30,17.35A10.34,10.34,0,0,1,781.43,334.88Zm-2.37-4.05a6.53,6.53,0,0,0,5.68-.3l30-17.35c.76-.43.94-.83.94-.9a1.12,1.12,0,0,0-.4-.34l-31.11-18a6.56,6.56,0,0,0-5.69.31l-30,17.34c-.75.44-.93.83-.94.91a1.14,1.14,0,0,0,.41.33Z"/><path class="cls-9" d="M817.48,301.27h0V290.54l-24.07,0-8.32-4.8a8.3,8.3,0,0,0-7.45.31l-7.76,4.48h-24.1v11a2.18,2.18,0,0,0,1.28,2l31.12,18c1.9,1.1,5.24,1,7.44-.31l30-17.35C816.94,303.11,817.55,302.16,817.48,301.27Z"/><path class="cls-26" d="M781.63,285a8.65,8.65,0,0,0-4,1l-7.76,4.48h-24.1v11a2.18,2.18,0,0,0,1.28,2l31.12,18a6.62,6.62,0,0,0,3.45.73Z"/><path class="cls-11" d="M748.51,290.5h-2.73v11a2.18,2.18,0,0,0,1.28,2l1.45.84Z"/><path class="cls-12" d="M778.65,321.73a8.45,8.45,0,0,0,6-.07V309.13h-6Z"/><path class="cls-27" d="M778.18,310.5l-31.12-18c-1.91-1.1-1.67-3,.54-4.3l30-17.34a8.3,8.3,0,0,1,7.45-.31l31.11,18c1.91,1.1,1.67,3-.54,4.3l-30,17.35C783.42,311.46,780.08,311.6,778.18,310.5Z"/><path class="cls-5" d="M815.66,290.73l-30,17.34c-2.2,1.28-5.54,1.42-7.44.31l-31.12-18a2.92,2.92,0,0,1-.95-.84,2,2,0,0,0,.95,2.95l31.12,18c1.9,1.1,5.24,1,7.44-.31l30-17.35c1.72-1,2.24-2.37,1.49-3.45A4.12,4.12,0,0,1,815.66,290.73Z"/><path class="cls-11" d="M806,304.11a2.78,2.78,0,0,1-1.26,2.17c-.69.4-1.26.08-1.26-.72a2.8,2.8,0,0,1,1.26-2.18C805.47,303,806,303.3,806,304.11Z"/><path class="cls-11" d="M810.08,301.77a2.77,2.77,0,0,1-1.26,2.18c-.69.4-1.25.07-1.25-.73a2.77,2.77,0,0,1,1.25-2.17C809.52,300.65,810.08,301,810.08,301.77Z"/><path class="cls-11" d="M814.12,299.44a2.77,2.77,0,0,1-1.25,2.17c-.7.4-1.26.08-1.26-.72a2.77,2.77,0,0,1,1.26-2.18C813.56,298.31,814.12,298.64,814.12,299.44Z"/><path class="cls-12" d="M780,299.36,765.46,291c-.9-.51-.79-1.41.25-2l14-8.11a3.89,3.89,0,0,1,3.49-.15l14.56,8.41c.89.51.78,1.41-.25,2l-14.06,8.12A3.89,3.89,0,0,1,780,299.36Z"/><path class="cls-11" d="M781.41,292.32l-2-1.16c-.12-.07-.1-.2,0-.28l1.94-1.12a.56.56,0,0,1,.49,0l2,1.16c.12.07.11.2,0,.28l-2,1.12A.54.54,0,0,1,781.41,292.32Z"/><path class="cls-9" d="M765.46,291l0,0,.21-.15,14-8.11a3.89,3.89,0,0,1,3.49-.15L797.77,291c.82-.59.86-1.4,0-1.87l-14.56-8.41a3.89,3.89,0,0,0-3.49.15l-14,8.11C764.67,289.54,764.56,290.44,765.46,291Z"/><g id="servers"><path class="cls-28" d="M370.74,314.1a3.45,3.45,0,0,0,0-2.9V287.67H0v27.09H.68c8.1,12.53,87.77,22.38,184.85,22.38s176.75-9.85,184.85-22.38h.36Z"/><ellipse class="cls-29" cx="185.53" cy="288.16" rx="185.53" ry="24.49"/><polygon class="cls-30" points="271.9 87.11 271.9 297.18 224.54 280.2 227.88 102.94 271.9 87.11"/><path class="cls-31" d="M327.63,284.36,271.9,297.18V87.11a132.8,132.8,0,0,1,55.73,8.36Z"/><path class="cls-29" d="M324.28,269.87l-47.92,7.25V94.91a174.6,174.6,0,0,1,47.36,6.69Q324,185.74,324.28,269.87Z"/><path class="cls-31" d="M309.73,107.12c0,4.09-3,7.12-6.69,6.77s-6.78-4-6.78-8.14S299.31,98.57,303,99,309.73,103,309.73,107.12Z"/><path class="cls-5" d="M303.62,114.4c-.21,0-.41,0-.62,0-4-.37-7.22-4.24-7.22-8.62a7.58,7.58,0,0,1,2.38-5.67,6.28,6.28,0,0,1,4.94-1.58c3.92.43,7.12,4.3,7.12,8.62a7.62,7.62,0,0,1-2.35,5.64A6.27,6.27,0,0,1,303.62,114.4Zm-1.24-15a5.29,5.29,0,0,0-3.57,1.37,6.6,6.6,0,0,0-2.06,5c0,3.89,2.84,7.33,6.34,7.66a5.3,5.3,0,0,0,4.12-1.37,6.6,6.6,0,0,0,2-4.92c0-3.85-2.81-7.28-6.26-7.66C302.79,99.44,302.58,99.43,302.38,99.43Z"/><polygon class="cls-30" points="317.66 128.63 283.84 125.9 283.84 119.22 317.66 122.17 317.66 128.63"/><polygon class="cls-30" points="317.59 143.29 283.91 141.09 283.91 133.75 317.59 136.19 317.59 143.29"/><polygon class="cls-30" points="317.59 157.32 283.91 155.61 283.91 148.34 317.59 150.3 317.59 157.32"/><polygon class="cls-30" points="317.59 171.36 283.91 170.13 283.91 162.8 317.59 164.27 317.59 171.36"/><polygon class="cls-30" points="317.59 185.25 283.91 184.5 283.91 177.25 317.59 178.25 317.59 185.25"/><polygon class="cls-30" points="317.59 199.29 283.91 199.02 283.91 191.85 317.59 192.35 317.59 199.29"/><polygon class="cls-30" points="317.59 213.74 283.91 213.98 283.91 206.3 317.59 206.32 317.59 213.74"/><polygon class="cls-30" points="317.59 227.36 283.91 228.06 283.91 220.9 317.59 220.43 317.59 227.36"/><polygon class="cls-30" points="317.59 241.39 283.91 242.58 283.91 235.35 317.59 234.4 317.59 241.39"/><polygon class="cls-30" points="317.59 255.42 283.91 257.1 283.91 249.81 317.59 248.37 317.59 255.42"/><path class="cls-5" d="M323.77,251.59a2.9,2.9,0,0,1-2.52,3,2.56,2.56,0,0,1-2.54-2.76,2.91,2.91,0,0,1,2.54-3A2.57,2.57,0,0,1,323.77,251.59Z"/><path class="cls-5" d="M323.72,237.63a2.76,2.76,0,0,1-2.44,2.88,2.53,2.53,0,0,1-2.45-2.7,2.74,2.74,0,0,1,2.45-2.87A2.51,2.51,0,0,1,323.72,237.63Z"/><path class="cls-5" d="M323.36,223.63a2.71,2.71,0,0,1-2.44,2.84,2.57,2.57,0,0,1-2.45-2.74,2.7,2.7,0,0,1,2.45-2.84A2.57,2.57,0,0,1,323.36,223.63Z"/><path class="cls-5" d="M323.5,209.59a2.7,2.7,0,0,1-2.44,2.84,2.56,2.56,0,0,1-2.45-2.73,2.69,2.69,0,0,1,2.45-2.84A2.56,2.56,0,0,1,323.5,209.59Z"/><path class="cls-5" d="M323.22,195.84a2.7,2.7,0,0,1-2.44,2.84,2.56,2.56,0,0,1-2.45-2.74,2.71,2.71,0,0,1,2.45-2.84A2.58,2.58,0,0,1,323.22,195.84Z"/><path class="cls-5" d="M323.22,181.81a2.71,2.71,0,0,1-2.44,2.84,2.57,2.57,0,0,1-2.45-2.74,2.69,2.69,0,0,1,2.45-2.84A2.57,2.57,0,0,1,323.22,181.81Z"/><path class="cls-5" d="M323.22,167.63a2.7,2.7,0,0,1-2.44,2.84,2.56,2.56,0,0,1-2.45-2.73,2.71,2.71,0,0,1,2.45-2.85A2.58,2.58,0,0,1,323.22,167.63Z"/><path class="cls-5" d="M323.22,153.6a2.71,2.71,0,0,1-2.44,2.84,2.57,2.57,0,0,1-2.45-2.74,2.7,2.7,0,0,1,2.45-2.84A2.57,2.57,0,0,1,323.22,153.6Z"/><path class="cls-5" d="M323.22,139.84a2.7,2.7,0,0,1-2.44,2.84,2.56,2.56,0,0,1-2.45-2.73,2.69,2.69,0,0,1,2.45-2.84A2.56,2.56,0,0,1,323.22,139.84Z"/><path class="cls-5" d="M323.23,125.79a2.65,2.65,0,0,1-2.44,2.8,2.61,2.61,0,0,1-2.46-2.77,2.65,2.65,0,0,1,2.46-2.81A2.62,2.62,0,0,1,323.23,125.79Z"/><path class="cls-31" d="M73,111.07V284.92l51.26,12.26V103.27A115.49,115.49,0,0,0,73,111.07Z"/><path class="cls-30" d="M172.16,278.79l-47.92,18.39V103.27L172.16,125Z"/><path class="cls-29" d="M119,280.09a78.6,78.6,0,0,1-38.63-7.8V115.53A116.09,116.09,0,0,1,119,111.81Z"/><path class="cls-31" d="M103.15,122.09c0,3.88-2.83,7.33-6.3,7.7s-6.19-2.43-6.19-6.25,2.76-7.26,6.19-7.69S103.15,118.21,103.15,122.09Z"/><path class="cls-5" d="M96.26,130.31a5.76,5.76,0,0,1-3.88-1.49,7.06,7.06,0,0,1-2.2-5.28c0-4.05,3-7.71,6.61-8.17a5.8,5.8,0,0,1,4.6,1.4,7,7,0,0,1,2.25,5.32c0,4.11-3,7.78-6.73,8.18C96.69,130.29,96.47,130.31,96.26,130.31Zm1.29-14a4.68,4.68,0,0,0-.64,0c-3.18.4-5.76,3.63-5.76,7.21A6.08,6.08,0,0,0,93,128.1a4.79,4.79,0,0,0,3.77,1.21c3.24-.35,5.87-3.59,5.87-7.22a6.06,6.06,0,0,0-1.92-4.59A4.78,4.78,0,0,0,97.55,116.29Z"/><path class="cls-5" d="M116.55,133.94c0,1.76-1,3.27-2.25,3.38s-2.24-1.2-2.24-2.94,1-3.26,2.24-3.38S116.55,132.19,116.55,133.94Z"/><path class="cls-5" d="M116.55,145.31c0,1.75-1,3.27-2.25,3.38s-2.24-1.2-2.24-2.95,1-3.25,2.24-3.38S116.55,143.56,116.55,145.31Z"/><path class="cls-5" d="M116.55,157.52c0,1.75-1,3.27-2.25,3.38s-2.24-1.2-2.24-3,1-3.25,2.24-3.38S116.55,155.77,116.55,157.52Z"/><path class="cls-5" d="M116.55,169.73c0,1.75-1,3.27-2.25,3.38s-2.24-1.2-2.24-3,1-3.25,2.24-3.38S116.55,168,116.55,169.73Z"/><path class="cls-5" d="M116.55,181.1c0,1.75-1,3.26-2.25,3.38s-2.24-1.21-2.24-2.95,1-3.25,2.24-3.38S116.55,179.35,116.55,181.1Z"/><path class="cls-5" d="M116.55,193.45c0,1.75-1,3.26-2.25,3.38s-2.24-1.21-2.24-3,1-3.25,2.24-3.38S116.55,191.7,116.55,193.45Z"/><path class="cls-5" d="M116.55,205c0,1.75-1,3.26-2.25,3.38s-2.24-1.21-2.24-3,1-3.26,2.24-3.38S116.55,203.2,116.55,205Z"/><path class="cls-5" d="M116.55,216.88c0,1.76-1,3.27-2.25,3.39s-2.24-1.21-2.24-3,1-3.26,2.24-3.38S116.55,215.13,116.55,216.88Z"/><path class="cls-5" d="M116.55,228.81c0,1.76-1,3.27-2.25,3.39s-2.24-1.21-2.24-2.95,1-3.26,2.24-3.38S116.55,227.06,116.55,228.81Z"/><path class="cls-5" d="M116.55,240.74c0,1.76-1,3.27-2.25,3.38s-2.24-1.2-2.24-2.94,1-3.26,2.24-3.38S116.55,239,116.55,240.74Z"/><path class="cls-5" d="M116.55,252.67c0,1.75-1,3.27-2.25,3.38s-2.24-1.2-2.24-2.94,1-3.26,2.24-3.38S116.55,250.92,116.55,252.67Z"/><polygon class="cls-30" points="110.31 136.41 82.8 138.96 82.8 135.15 110.31 132.46 110.31 136.41"/><polygon class="cls-30" points="110.31 148.2 82.8 150.33 82.8 146.52 110.31 144.25 110.31 148.2"/><polygon class="cls-30" points="110.31 159.99 82.8 161.7 82.8 157.89 110.31 156.04 110.31 159.99"/><polygon class="cls-30" points="110.31 171.78 82.8 173.06 82.8 169.25 110.31 167.83 110.31 171.78"/><polygon class="cls-30" points="110.31 183.57 82.8 184.43 82.8 180.62 110.31 179.62 110.31 183.57"/><polygon class="cls-30" points="110.31 195.36 82.8 195.8 82.8 191.99 110.31 191.41 110.31 195.36"/><polygon class="cls-30" points="110.31 207.15 82.8 207.17 82.8 203.36 110.31 203.19 110.31 207.15"/><polygon class="cls-30" points="111.15 219.36 82.8 218.93 82.8 214.72 111.15 214.99 111.15 219.36"/><polygon class="cls-30" points="111.15 230.3 82.8 229.47 82.8 226.09 111.15 226.79 111.15 230.3"/><polygon class="cls-30" points="111.15 242.51 82.8 241.23 82.8 237.46 111.15 238.59 111.15 242.51"/><polygon class="cls-30" points="111.15 254.3 82.8 252.59 82.8 248.83 111.15 250.4 111.15 254.3"/><rect class="cls-31" x="151.73" y="66.86" width="99.18" height="228.08"/><path class="cls-29" d="M243.86,285.29a389.48,389.48,0,0,1-44.39,2.41,387.84,387.84,0,0,1-42.17-2.41V76.89a361.52,361.52,0,0,1,86.56,0Z"/><rect class="cls-30" x="163.78" y="108.38" width="63.04" height="8.7"/><circle class="cls-30" cx="235.28" cy="112.73" r="5.26"/><rect class="cls-30" x="163.78" y="128.57" width="63.04" height="8.7"/><circle class="cls-30" cx="235.28" cy="132.92" r="5.26"/><rect class="cls-30" x="163.78" y="148.76" width="63.04" height="8.7"/><circle class="cls-30" cx="235.28" cy="153.11" r="5.26"/><rect class="cls-30" x="163.78" y="168.95" width="63.04" height="8.7"/><circle class="cls-30" cx="235.28" cy="173.3" r="5.26" transform="translate(20.62 371.56) rotate(-79.1)"/><rect class="cls-30" x="163.78" y="189.14" width="63.04" height="8.7"/><circle class="cls-30" cx="235.28" cy="193.49" r="5.26"/><rect class="cls-30" x="163.78" y="209.33" width="63.04" height="8.7"/><circle class="cls-30" cx="235.28" cy="213.68" r="5.26"/><rect class="cls-30" x="163.78" y="229.52" width="63.04" height="8.7"/><circle class="cls-30" cx="235.28" cy="233.87" r="5.26"/><rect class="cls-30" x="163.78" y="249.71" width="63.04" height="8.7"/><circle class="cls-30" cx="235.28" cy="254.06" r="5.26"/><path class="cls-29" d="M203,102.09a10.34,10.34,0,1,1,10.35-10.34A10.35,10.35,0,0,1,203,102.09Z"/></g><g id="man_with_cable" data-name="man with cable"><g id="legs"><g id="legs-2" data-name="legs"><rect class="cls-32" x="402.02" y="279.14" width="6.97" height="11.08" rx="3.4" transform="translate(-84.25 209.74) rotate(-26.37)"/><path class="cls-33" d="M411.26,286a21.12,21.12,0,0,1-1.51-2c-.34-.59-.54-1.07-.72-1s-.1.71-.42,1.54a3.65,3.65,0,0,1-1.19,1.57,5.15,5.15,0,0,1-2.11.83,3.4,3.4,0,0,1-1.76.17,2.66,2.66,0,0,1-1.2-.79L400.7,288l-3.21,3.58L393.57,295l-1.84,1.34a13.52,13.52,0,0,1-1.11,1.06c-.95.82-1.38,1-1.73,1.57-.07.12-.75,1.21-.37,1.8s1.42.41,1.86.35c3.07-.42,7.26-3.52,9.83-5.17,5.4-3.46,8.09-5.19,10.56-5.65.44-.08,1.87-.32,2.09-1.2C413,288.44,412.43,287.63,411.26,286Z"/><path class="cls-34" d="M414.07,290l-24.42,12.85-.93-1.78,23.95-12.6.47-.24Z"/><rect class="cls-32" x="389.98" y="287.02" width="7.69" height="11.75" rx="3.76" transform="translate(-49.31 81.91) rotate(-11.18)"/><g id="_Ãðóïïà_ì" data-name="&lt;Ãðóïïà&gt;ì"><path class="cls-33" d="M398.73,297.08a20.41,20.41,0,0,1-.42-2.66c0-.72,0-1.27-.18-1.33s-.44.62-1.14,1.24a3.85,3.85,0,0,1-1.9.9,5.59,5.59,0,0,1-2.39-.26,3.44,3.44,0,0,1-1.73-.7,2.76,2.76,0,0,1-.75-1.33l-2.38.81-4.78,1.8-5.35,1.27-2.39.36c-.35.12-.89.29-1.56.45a8.18,8.18,0,0,0-2.39.63c-.12.08-1.3.77-1.23,1.52s1.13,1.07,1.57,1.23c3.1,1.11,8.56.24,11.79-.05,6.77-.61,10.15-.92,12.69-.14.46.14,1.92.61,2.56-.1C399.19,300.21,399,299.17,398.73,297.08Z"/><path class="cls-34" d="M399.41,302.22l-29.26.13v-2.13l28.7-.13h.56Z"/></g></g><path class="cls-33" d="M368.15,194.82q-2.2,16.52-3.83,34-.68,7.26-1.2,14.37a7.13,7.13,0,0,0-.24,3.83,7.39,7.39,0,0,0,2.15,3.6c2.43,2.36,16.51,17.19,35.94,37.6l7.18-6.22a77.46,77.46,0,0,0-18.44-27.31,75.7,75.7,0,0,0-13.66-10.3,64,64,0,0,0,17-26.83c2.5-7.91,5.61-17.77.48-23.24C388.8,189.3,378.35,189.39,368.15,194.82Z"/><path class="cls-30" d="M379.89,196.74A90.51,90.51,0,0,0,383.24,242a150,150,0,0,0,4.55,50.07h9.1a113.29,113.29,0,0,0,0-48.15,70.9,70.9,0,0,0-.95-54.86Z"/></g><g id="body"><path class="cls-35" d="M325,215.42c.22.7,3.15.73,5.75-.24,3.22-1.2,4.28-3.33,6.71-5.51a21.18,21.18,0,0,1,9.82-4.79,6.16,6.16,0,0,0-2.64-2.87c-3.69-1.92-8.55,2-9.1,2.39-3.11,2.51-2.34,4.22-6,7.43C327,214.11,324.83,214.8,325,215.42Z"/><path class="cls-5" d="M355.93,177.1a72.23,72.23,0,0,1-15.57,25.63q2.52,3.22,5,6.47l12.46-10.78a47.35,47.35,0,0,0,8.86-17.49c.9-3.41,3.84-15.22-1.68-25.15-.6-1.08-2.86-5.16-4.79-4.79-1.41.27-2.13,2.85-2.87,7.42A115.93,115.93,0,0,0,355.93,177.1Z"/><path class="cls-5" d="M359.13,151.31c-.27,1.34.08,2.36.95,5.27.67,2.2,1.22,4.43,1.92,6.62,1.3,4,1.32,7.26,1.52,12.3.25,6.48.75,14.8,1.43,25.39a71.65,71.65,0,0,0,8.71,1,68.54,68.54,0,0,0,16-.88,62.8,62.8,0,0,0,10.7-3c-.29-.95-.69-2.33-1.12-4a66.42,66.42,0,0,1-1.84-8.86,28.15,28.15,0,0,1,1.52-15.33c2.09-6.65,3.14-10,3.43-11.82.34-2.05,1.86-11.44-3.87-17.16-3-3.05-8.29-5.22-12.22-3.6-3,1.23-2.22,3.39-5.27,5.63-5.63,4.14-11.45-.82-18.08,3.6C361.88,147.22,359.63,148.77,359.13,151.31Z"/><path class="cls-35" d="M383.24,139c-.53-.89-1.36-.77-3.35-2a15.89,15.89,0,0,1-4-3.51c-2.17,2.69-7.77,9.83-7.58,12.7,0,.12,0,.42.08,1,.22,3.23,0,4,.56,4.64a3,3,0,0,0,2.23.79c3.78.19,6.92-3.44,8.23-4.95C380.39,146.58,384.74,141.55,383.24,139Z"/></g><g id="head"><path class="cls-36" d="M360.89,139.25c3.74,6.47,10,9.84,14,7.53s4.23-9.44.49-15.91-10-9.85-14-7.53S357.15,132.78,360.89,139.25Z"/><path class="cls-37" d="M354.5,130.15c-.06-.67,0-1.7,1.67-4.79,3.32-6.07,3.52-5.49,4.31-6,3.9-2.47,8.84-.5,9.58-.2a12.36,12.36,0,0,1,5.28,4c3.45,4.74,1.91,10.38,1.69,11.15-.29-2.64-2-4.3-3.37-4.2a2.9,2.9,0,0,0-2.21,1.77c-.62,1.47.35,2.7-.19,3.14s-2.29-.24-3.35-1.56c-1.66-2.07-.38-4.17-1.92-5.51a3.19,3.19,0,0,0-3.83-.24c-.88.83,0,2.05-.72,3.83-.63,1.47-2.28,3.07-3.95,2.84S354.64,131.81,354.5,130.15Z"/><path class="cls-37" d="M362.4,144.58a7.54,7.54,0,0,0,4.31,4.43,5.26,5.26,0,0,0,2.82.24c1.06-.18,3.72-1.81,6.7-4.67a1.48,1.48,0,0,0,.12-.72,1.74,1.74,0,0,0-.48-1c-.2-.23.29.26-2.93-5.57-.38-.68-.89-1.61-1.51-2.71l-1,.6a21,21,0,0,0-.26,5.05,1.67,1.67,0,0,1,0,.78c0,.09-.15.67-.53.83s-.83-.14-1.08-.3a8.44,8.44,0,0,0-3.54-1.07c-.27,0-2-.12-2.75.92S362.07,143.63,362.4,144.58Z"/><path class="cls-36" d="M366.89,146.68a1.71,1.71,0,0,1-1.14.17c-.91-.12-1.84-.9-1.73-1.55.07-.43.58-.7.74-.79.51-.27.76-.09,1.16-.27.9-.39.85-1.77,1.21-1.77s.58,1,.6,1.87C367.74,144.88,367.76,146.15,366.89,146.68Z"/></g><g id="hand"><path class="cls-29" d="M403,143.8c-6-8.47-19.79-12.89-24.1-.67-2.56,7.3-4.73,14.77-7.44,22.1-1.12,3.05-4.37,17.52-13.58,25.67-9.64,8.52-23.41,8.42-32.15,7.27-.45,1.55-.87,3.84.28,4.91s2.77.4,5.6,0c4.49-.64,4.4.17,8.69-.28a33.22,33.22,0,0,0,11.92-3.41,32.76,32.76,0,0,0,7.91-6c6-5.94,9.18-13.35,12.5-22.18S380.05,154,383.05,145C386.49,134.63,395.23,140.67,403,143.8Z"/><path class="cls-5" d="M386.11,142.72c-.69,1.79-.08,3.42.48,4.91a14,14,0,0,0,3.84,5.51c4.69,4.15,10.58,4.17,22.27,4.19,2.74,0,5.29-.09,5.75-1.31s-1.3-2.92-2.63-4.19a27.2,27.2,0,0,0-7.19-4.8c-8.7-4.38-7.72-2.8-12.81-5.62-2.29-1.27-3.85-2.35-5.87-1.92A5.45,5.45,0,0,0,386.11,142.72Z"/><path class="cls-36" d="M373.3,160.81a4.65,4.65,0,0,1-3-2.52,3.76,3.76,0,0,1-.23-1.55,5.56,5.56,0,0,1,1.19-2.76c1.89-3,1.79-3.34,2.64-3.95a6.23,6.23,0,0,1,2.27-1c1.62-.38,2.65-.08,4.55.12l5.15.12,5.63.12c4.91,0,5.47-.46,9.23-.48a28.58,28.58,0,0,1,9.58,1.08c2.05.65,7.51,2.38,8.14,6a5.13,5.13,0,0,1-.6,3.23,5.89,5.89,0,0,1-3.35,2.4,11.16,11.16,0,0,1-5.75.36c-3.83-.68-4.26-2.32-8.86-3.48a39,39,0,0,0-4.19-.72c-4-.55-5.36-.37-7.31-1.31a9.85,9.85,0,0,1-3.11-2.4A5.12,5.12,0,0,1,383.6,156c-.78.52-1.12.38-2.76,1-2,.68-2.06,1.08-3.23,1.19a4.11,4.11,0,0,1-2.51-.36c-1.07-.58-1.25-1.51-1.8-1.43s-.88,1.07-1,1.67A3.65,3.65,0,0,0,373.3,160.81Z"/></g><g id="cable"><polygon class="cls-30" points="284.06 211.83 283.31 197.18 297.49 196.07 298.02 210.87 284.06 211.83"/><polygon class="cls-5" points="283.43 197.17 298.34 196.08 298.38 198.24 283.61 199.01 283.43 197.17"/><path class="cls-38" d="M298.2,209c-.52-.3-14,.79-14,.79L283.61,199,298,197.93Z"/><path class="cls-33" d="M286.94,206l1.67-.14h.09a.29.29,0,0,1,.32.27l.15,1.76a.29.29,0,0,1-.26.32l-1.77.16a.3.3,0,0,1-.32-.27V208l-.15-1.71A.29.29,0,0,1,286.94,206Z"/><path class="cls-39" d="M286.94,206l1.67-.14.15,1.7a.3.3,0,0,1-.27.32l-1.67.15-.15-1.71A.29.29,0,0,1,286.94,206Z"/><path class="cls-33" d="M286.54,200l1.67-.15h.09a.28.28,0,0,1,.32.26l.16,1.77a.3.3,0,0,1-.27.32l-1.77.15a.29.29,0,0,1-.32-.26V202l-.15-1.7A.3.3,0,0,1,286.54,200Z"/><path class="cls-39" d="M286.54,200l1.67-.15.15,1.71a.31.31,0,0,1-.27.32l-1.67.14-.15-1.7A.3.3,0,0,1,286.54,200Z"/><polygon class="cls-39" points="283.94 204.63 283.9 204.05 286.86 203.84 286.78 203.14 288.61 202.99 288.68 203.77 292.13 203.53 292.12 202.85 293.69 202.69 293.75 203.46 297.27 203.27 297.3 203.85 293.22 204.06 293.16 203.32 292.7 203.37 292.71 204.07 288.16 204.38 288.09 203.61 287.42 203.66 287.5 204.37 283.94 204.63"/><rect class="cls-39" x="295.95" y="193.61" width="4.06" height="19.76" transform="translate(606.49 390.62) rotate(176.91)"/><path class="cls-33" d="M333.12,192.77l.83,17.46a2.53,2.53,0,0,1-2.41,2.64l-33.41,1.58a.16.16,0,0,1-.16-.15l-1-22.09a.26.26,0,0,1,.25-.28l33.3-1.56A2.51,2.51,0,0,1,333.12,192.77Z"/><rect class="cls-39" x="297.7" y="193.3" width="35.84" height="18.03" rx="4.19" transform="translate(-10.45 17.3) rotate(-3.09)"/></g></g></g></g></svg>