<svg xmlns="http://www.w3.org/2000/svg" viewBox="0 0 429.92 265.01"><defs><style>.cls-1{fill:#ececec;}.cls-2{fill:#e1e1e1;}.cls-3{fill:#f5f5f5;}.cls-4{fill:#fafafa;}.cls-5{fill:#1a2e35;}.cls-6{fill:#ff4f5b;}.cls-7{opacity:0.3;}.cls-11,.cls-8{fill:#fff;}.cls-9{fill:#375a64;}.cls-10,.cls-11{opacity:0.5;}.cls-12{fill:#ffbf9d;}.cls-13{fill:#ff9a6c;}.cls-14{opacity:0.2;}</style></defs><title>Asset -42</title><g id="Layer_2" data-name="Layer 2"><g id="Layer_1-2" data-name="Layer 1"><path class="cls-1" d="M65.88,253.81C77.61,243.53,78.67,226.73,76.54,212c-.36-2.46-.38-5.1-1.79-7.14s-4.33-3.22-6.43-1.93c-1.74,1.06-2.3,3.29-3.13,5.17A14.59,14.59,0,0,1,60,214.25c-1.49,1-3.38,1.7-5,1-2.26-1-2.84-3.86-3.09-6.33l-1.44-13.76A23,23,0,0,0,48.9,188a7.71,7.71,0,0,0-5.37-4.63c-2.41-.4-5.15,1.27-5.38,3.73a21.09,21.09,0,0,0,.27,3.07,2.63,2.63,0,0,1-1.25,2.61c-1,.39-2-.2-2.83-.84-2.81-2.2-4.88-5.21-6.84-8.21A45.36,45.36,0,0,0,21,175.15c-2.6-2.46-6-4.25-9.57-4.07s-7.06,2.78-7.56,6.34,1.9,6.86,4.41,9.42a55.07,55.07,0,0,0,12.63,9.64,4.5,4.5,0,0,1,2.14,1.84c.71,1.58-.66,3.38-2.22,4.1-1.77.81-3.78.84-5.67,1.28s-3.88,1.51-4.4,3.41c-.73,2.62,1.66,5,3.92,6.52a47.25,47.25,0,0,0,14.81,6.5A15.93,15.93,0,0,1,35,222.07c1.59,1.11,2.72,3.23,2,5.06s-2.89,2.63-4.83,2.49-3.74-1-5.62-1.47c-3.52-.9-7.86-.19-9.71,3a7.82,7.82,0,0,0-.06,7,18,18,0,0,0,4.39,5.67,47.63,47.63,0,0,0,21.76,12c8.14,1.85,15.49,1.79,23-1.92"/><path class="cls-2" d="M67.28,264.77A108.24,108.24,0,0,0,61,244.94a223.17,223.17,0,0,0-11.37-22.76l-3.28-5.81c-1.08-1.91-2.16-3.8-3.32-5.58a112.15,112.15,0,0,0-7.28-9.87c-2.47-3-4.92-5.8-7.23-8.39s-4.52-4.94-6.62-7a88.53,88.53,0,0,0-10.64-9c-1.33-1-2.39-1.67-3.12-2.15l-.82-.53-.29-.17s.08.08.26.21l.8.57c.71.5,1.75,1.23,3.07,2.22a93.59,93.59,0,0,1,10.51,9.1c2.08,2.08,4.27,4.45,6.57,7s4.74,5.38,7.19,8.4A110.94,110.94,0,0,1,42.68,211c1.16,1.77,2.22,3.64,3.31,5.56l3.28,5.81a225.65,225.65,0,0,1,11.37,22.7A110.69,110.69,0,0,1,67,264.84"/><path class="cls-2" d="M42.93,210.79a5.43,5.43,0,0,0,.12-1.08c.06-.69.1-1.7.14-2.94.08-2.49.07-5.93,0-9.72s0-7.22.13-9.7c0-1.24.11-2.24.15-2.94a4.47,4.47,0,0,0,0-1.08,5,5,0,0,0-.19,1.07c-.1.68-.21,1.69-.3,2.93-.2,2.48-.29,5.92-.26,9.72s.06,7.12.09,9.71v2.94A4.57,4.57,0,0,0,42.93,210.79Z"/><path class="cls-2" d="M10.65,208.36a5.85,5.85,0,0,0,1.28,0c.82,0,2,0,3.47,0,2.93,0,7,.12,11.44.46s8.49.84,11.39,1.28c1.45.21,2.62.41,3.43.54a6.8,6.8,0,0,0,1.27.17,5.92,5.92,0,0,0-1.24-.35c-.8-.18-2-.43-3.41-.68-2.9-.53-6.93-1.07-11.41-1.42A112.74,112.74,0,0,0,15.4,208c-1.47,0-2.66.11-3.48.19A6.71,6.71,0,0,0,10.65,208.36Z"/><path class="cls-2" d="M60.58,244.41a2.5,2.5,0,0,0,.17-.41l.41-1.21c.36-1,.83-2.57,1.4-4.47,1.12-3.79,2.51-9.07,4-14.93s2.8-11.14,3.84-14.95c.51-1.85.94-3.38,1.25-4.51.14-.49.25-.9.34-1.23a1.3,1.3,0,0,0,.08-.44,2.5,2.5,0,0,0-.17.41c-.11.33-.25.72-.42,1.21-.35,1-.83,2.57-1.39,4.47-1.12,3.79-2.52,9.07-4,14.93s-2.8,11.14-3.84,14.95c-.52,1.85-.94,3.38-1.25,4.51-.14.49-.25.9-.34,1.23A1.3,1.3,0,0,0,60.58,244.41Z"/><path class="cls-2" d="M17.06,235.5a1.91,1.91,0,0,0,.44.12l1.26.28,4.66,1c3.94.81,9.36,2,15.35,3.32s11.43,2.45,15.38,3.18c2,.37,3.58.65,4.69.82l1.28.19a2.23,2.23,0,0,0,.46,0,1.59,1.59,0,0,0-.44-.13L58.87,244l-4.66-1c-3.93-.81-9.35-2-15.34-3.31s-11.43-2.46-15.38-3.19c-2-.37-3.58-.65-4.7-.82l-1.28-.19A1.29,1.29,0,0,0,17.06,235.5Z"/><rect class="cls-3" x="66.86" y="91.23" width="56.64" height="173.5"/><rect class="cls-4" x="123.32" y="91.23" width="44.76" height="173.5"/><rect class="cls-2" x="69.9" y="119" width="48.04" height="13.53"/><rect class="cls-3" x="71.24" y="120.7" width="2.69" height="10.35"/><path class="cls-4" d="M77.1,122.87a.86.86,0,1,1-.85-.85A.85.85,0,0,1,77.1,122.87Z"/><circle class="cls-4" cx="76.25" cy="126.53" r="0.86"/><rect class="cls-3" x="80.52" y="122.02" width="2.64" height="7.95"/><rect class="cls-3" x="84.34" y="122.02" width="2.64" height="7.95"/><rect class="cls-3" x="88.16" y="122.02" width="2.64" height="7.95"/><rect class="cls-3" x="91.97" y="122.02" width="2.64" height="7.95"/><rect class="cls-3" x="95.79" y="122.02" width="2.64" height="7.95"/><rect class="cls-3" x="99.61" y="122.02" width="2.64" height="7.95"/><rect class="cls-3" x="103.43" y="122.02" width="2.64" height="7.95"/><rect class="cls-3" x="107.25" y="122.02" width="2.64" height="7.95"/><rect class="cls-3" x="111.07" y="122.02" width="2.64" height="7.95"/><rect class="cls-3" x="114.89" y="122.02" width="2.64" height="7.95"/><rect class="cls-2" x="69.9" y="140.66" width="48.04" height="13.53"/><rect class="cls-3" x="71.24" y="142.36" width="2.69" height="10.35"/><path class="cls-4" d="M77.1,144.54a.86.86,0,0,1-1.71,0,.86.86,0,1,1,1.71,0Z"/><circle class="cls-4" cx="76.25" cy="148.2" r="0.86"/><rect class="cls-3" x="80.52" y="143.68" width="2.64" height="7.95"/><rect class="cls-3" x="84.34" y="143.68" width="2.64" height="7.95"/><rect class="cls-3" x="88.16" y="143.68" width="2.64" height="7.95"/><rect class="cls-3" x="91.97" y="143.68" width="2.64" height="7.95"/><rect class="cls-3" x="95.79" y="143.68" width="2.64" height="7.95"/><rect class="cls-3" x="99.61" y="143.68" width="2.64" height="7.95"/><rect class="cls-3" x="103.43" y="143.68" width="2.64" height="7.95"/><rect class="cls-3" x="107.25" y="143.68" width="2.64" height="7.95"/><rect class="cls-3" x="111.07" y="143.68" width="2.64" height="7.95"/><rect class="cls-3" x="114.89" y="143.68" width="2.64" height="7.95"/><rect class="cls-2" x="69.9" y="162.32" width="48.04" height="13.53"/><rect class="cls-3" x="71.24" y="164.03" width="2.69" height="10.35"/><path class="cls-4" d="M77.1,166.2a.86.86,0,1,1-.85-.85A.85.85,0,0,1,77.1,166.2Z"/><circle class="cls-4" cx="76.25" cy="169.86" r="0.86"/><rect class="cls-3" x="80.52" y="165.35" width="2.64" height="7.95"/><rect class="cls-3" x="84.34" y="165.35" width="2.64" height="7.95"/><rect class="cls-3" x="88.16" y="165.35" width="2.64" height="7.95"/><rect class="cls-3" x="91.97" y="165.35" width="2.64" height="7.95"/><rect class="cls-3" x="95.79" y="165.35" width="2.64" height="7.95"/><rect class="cls-3" x="99.61" y="165.35" width="2.64" height="7.95"/><rect class="cls-3" x="103.43" y="165.35" width="2.64" height="7.95"/><rect class="cls-3" x="107.25" y="165.35" width="2.64" height="7.95"/><rect class="cls-3" x="111.07" y="165.35" width="2.64" height="7.95"/><rect class="cls-3" x="114.89" y="165.35" width="2.64" height="7.95"/><rect class="cls-2" x="69.9" y="183.99" width="48.04" height="13.53"/><rect class="cls-3" x="71.24" y="185.69" width="2.69" height="10.35"/><path class="cls-4" d="M77.1,187.87a.86.86,0,0,1-1.71,0,.86.86,0,1,1,1.71,0Z"/><circle class="cls-4" cx="76.25" cy="191.53" r="0.86"/><rect class="cls-3" x="80.52" y="187.01" width="2.64" height="7.95"/><rect class="cls-3" x="84.34" y="187.01" width="2.64" height="7.95"/><rect class="cls-3" x="88.16" y="187.01" width="2.64" height="7.95"/><rect class="cls-3" x="91.97" y="187.01" width="2.64" height="7.95"/><rect class="cls-3" x="95.79" y="187.01" width="2.64" height="7.95"/><rect class="cls-3" x="99.61" y="187.01" width="2.64" height="7.95"/><rect class="cls-3" x="103.43" y="187.01" width="2.64" height="7.95"/><rect class="cls-3" x="107.25" y="187.01" width="2.64" height="7.95"/><rect class="cls-3" x="111.07" y="187.01" width="2.64" height="7.95"/><rect class="cls-3" x="114.89" y="187.01" width="2.64" height="7.95"/><rect class="cls-2" x="69.9" y="205.65" width="48.04" height="13.53"/><rect class="cls-3" x="71.24" y="207.35" width="2.69" height="10.35"/><path class="cls-4" d="M77.1,209.53a.86.86,0,1,1-.85-.85A.85.85,0,0,1,77.1,209.53Z"/><circle class="cls-4" cx="76.25" cy="213.19" r="0.86"/><rect class="cls-3" x="80.52" y="208.68" width="2.64" height="7.95"/><rect class="cls-3" x="84.34" y="208.68" width="2.64" height="7.95"/><rect class="cls-3" x="88.16" y="208.68" width="2.64" height="7.95"/><rect class="cls-3" x="91.97" y="208.68" width="2.64" height="7.95"/><rect class="cls-3" x="95.79" y="208.68" width="2.64" height="7.95"/><rect class="cls-3" x="99.61" y="208.68" width="2.64" height="7.95"/><rect class="cls-3" x="103.43" y="208.68" width="2.64" height="7.95"/><rect class="cls-3" x="107.25" y="208.68" width="2.64" height="7.95"/><rect class="cls-3" x="111.07" y="208.68" width="2.64" height="7.95"/><rect class="cls-3" x="114.89" y="208.68" width="2.64" height="7.95"/><rect class="cls-2" x="69.9" y="227.32" width="48.04" height="13.53"/><rect class="cls-3" x="71.24" y="229.02" width="2.69" height="10.35"/><path class="cls-4" d="M77.1,231.2a.86.86,0,0,1-1.71,0,.86.86,0,1,1,1.71,0Z"/><circle class="cls-4" cx="76.25" cy="234.86" r="0.86"/><rect class="cls-3" x="80.52" y="230.34" width="2.64" height="7.95"/><rect class="cls-3" x="84.34" y="230.34" width="2.64" height="7.95"/><rect class="cls-3" x="88.16" y="230.34" width="2.64" height="7.95"/><rect class="cls-3" x="91.97" y="230.34" width="2.64" height="7.95"/><rect class="cls-3" x="95.79" y="230.34" width="2.64" height="7.95"/><rect class="cls-3" x="99.61" y="230.34" width="2.64" height="7.95"/><rect class="cls-3" x="103.43" y="230.34" width="2.64" height="7.95"/><rect class="cls-3" x="107.25" y="230.34" width="2.64" height="7.95"/><rect class="cls-3" x="111.07" y="230.34" width="2.64" height="7.95"/><rect class="cls-3" x="114.89" y="230.34" width="2.64" height="7.95"/><rect class="cls-2" x="69.9" y="248.98" width="48.04" height="13.53"/><rect class="cls-3" x="71.24" y="250.68" width="2.69" height="10.35"/><circle class="cls-4" cx="76.25" cy="252.86" r="0.86"/><circle class="cls-4" cx="76.25" cy="256.52" r="0.86"/><rect class="cls-3" x="80.52" y="252.01" width="2.64" height="7.95"/><rect class="cls-3" x="84.34" y="252.01" width="2.64" height="7.95"/><rect class="cls-3" x="88.16" y="252.01" width="2.64" height="7.95"/><rect class="cls-3" x="91.97" y="252.01" width="2.64" height="7.95"/><rect class="cls-3" x="95.79" y="252.01" width="2.64" height="7.95"/><rect class="cls-3" x="99.61" y="252.01" width="2.64" height="7.95"/><rect class="cls-3" x="103.43" y="252.01" width="2.64" height="7.95"/><rect class="cls-3" x="107.25" y="252.01" width="2.64" height="7.95"/><rect class="cls-3" x="111.07" y="252.01" width="2.64" height="7.95"/><rect class="cls-3" x="114.89" y="252.01" width="2.64" height="7.95"/><path class="cls-2" d="M99.61,119a2.1,2.1,0,0,1,0-.42c0-.28,0-.68,0-1.2s0-1.16-.06-1.9a12.35,12.35,0,0,0-.34-2.47,8.72,8.72,0,0,0-1.28-2.7,6,6,0,0,0-2.62-2.11,13,13,0,0,0-3.73-.75l-4.14-.36c-5.67-.49-10.81-.81-14.54-.88-1.86,0-3.37,0-4.42,0h-1.2a2,2,0,0,1-.42,0,2.1,2.1,0,0,1,.42,0l1.2-.07c1,0,2.55-.1,4.42-.09,3.74,0,8.89.29,14.57.78l4.14.37a12.62,12.62,0,0,1,3.82.8,6.24,6.24,0,0,1,2.74,2.24,8.84,8.84,0,0,1,1.28,2.8,12.11,12.11,0,0,1,.29,2.52c0,.74,0,1.38,0,1.91v1.2A2.08,2.08,0,0,1,99.61,119Z"/><path class="cls-2" d="M85,119a1.6,1.6,0,0,1,0-.4c0-.3,0-.67,0-1.13s0-1.09-.06-1.78a5.66,5.66,0,0,0-.59-2.22,4.22,4.22,0,0,0-2.17-1.66,5.81,5.81,0,0,0-3.15-.32,5.07,5.07,0,0,0-1.63.55,3.08,3.08,0,0,0-1.26,1.19,1.71,1.71,0,0,0,0,1.68A2.25,2.25,0,0,0,77.56,116a1.81,1.81,0,0,0,1.67-.48,2.48,2.48,0,0,0,.75-1.59,2.41,2.41,0,0,0-.5-1.63,3.77,3.77,0,0,0-1.27-1.12,4.66,4.66,0,0,0-1.58-.4c-.54-.08-1.07-.16-1.58-.21-1-.12-2-.19-2.85-.22-1.75-.07-3.17,0-4.15,0H66.92l-.4,0a1.6,1.6,0,0,1,.4,0l1.13-.06c1,0,2.4-.11,4.16-.07.88,0,1.84.08,2.87.18.52,0,1,.12,1.6.19l.83.13a3.31,3.31,0,0,1,.85.3,3.83,3.83,0,0,1,1.39,1.21,2.72,2.72,0,0,1-.29,3.66,2.13,2.13,0,0,1-2,.57,2.57,2.57,0,0,1-1.65-1.24,2,2,0,0,1,0-2,3.35,3.35,0,0,1,1.4-1.32,5.7,5.7,0,0,1,1.73-.58,6.22,6.22,0,0,1,3.32.37,4.46,4.46,0,0,1,2.27,1.81,5.45,5.45,0,0,1,.57,2.33,17.67,17.67,0,0,1,0,1.79l-.05,1.13A2.12,2.12,0,0,1,85,119Z"/><path class="cls-2" d="M103.53,119a3.88,3.88,0,0,1-.1-.45c-.05-.3-.14-.73-.25-1.29a25.21,25.21,0,0,0-1.43-4.57,13.37,13.37,0,0,0-4.17-5.61,8,8,0,0,0-3.83-1.45,38.45,38.45,0,0,0-4.5-.24c-6.21-.12-11.84-.1-15.91-.26-2-.07-3.68-.17-4.82-.25l-1.3-.11a2.19,2.19,0,0,1-.46-.07,2.69,2.69,0,0,1,.46,0l1.31,0c1.14,0,2.78.1,4.82.14,4.07.1,9.69,0,15.91.16a37.46,37.46,0,0,1,4.54.25,8.21,8.21,0,0,1,4,1.54,12.45,12.45,0,0,1,2.65,2.8,16.65,16.65,0,0,1,1.56,3,23.66,23.66,0,0,1,1.33,4.65c.1.56.16,1,.19,1.3A1.77,1.77,0,0,1,103.53,119Z"/><rect class="cls-2" x="70.56" y="93.39" width="46.72" height="6.78"/><rect class="cls-3" x="80.84" y="96.78" width="25.44" height="3.39"/><path class="cls-5" d="M429.92,264.84c0,.09-96.25.17-214.95.17s-215-.08-215-.17,96.23-.18,215-.18S429.92,264.74,429.92,264.84Z"/><path class="cls-6" d="M394.62,181.33s-3.85-2.5-8.44,6.7a117.77,117.77,0,0,0-6.32,14.5s-1.22,1.93-2.55.69-3.16-4.79-5.4-4.13-3.06,3.28-2.59,7.09,1.21,12.19,1.27,12.95-.35,1.85-1.39,1.15-7.05-7.29-10-4.25.12,13.43.43,14.57.09,1.64-.45,1.93-2.35-2.12-4.14-3.92-4.17-3.58-5.73-1.69-2,9.72,5.55,22.36l3.88,5.62,6.85-.43c14.6-1.83,20.5-7,21-9.39s-2.33-3.18-4.85-3.48-5.53-.25-5.64-.85.15-1.08,1.24-1.54,11.18-4.43,11.75-8.63-8.31-4.88-9.5-5.27-.58-1.4,0-1.81,7.7-5,11-7,4.89-4.16,4-6.41-4.78-1.43-6.58-1.71-1-2.43-1-2.43a117.77,117.77,0,0,0,7.54-13.91c4.43-9.28,0-10.79,0-10.79"/><path class="cls-5" d="M390.49,189.56a1.57,1.57,0,0,1-.08.2l-.26.58c-.24.51-.58,1.25-1,2.2-.89,1.92-2.21,4.68-3.85,8.08-3.27,6.8-7.88,16.17-13,26.49s-9.75,19.68-13.06,26.47l-3.92,8c-.45.94-.81,1.67-1.06,2.18l-.28.57-.11.19.08-.2.27-.58,1-2.2c.9-1.91,2.21-4.67,3.85-8.08,3.28-6.8,7.88-16.17,13-26.49s9.74-19.68,13.06-26.46c1.65-3.39,3-6.14,3.91-8l1.07-2.19.28-.57A1.94,1.94,0,0,0,390.49,189.56Z"/><path class="cls-5" d="M374.28,204.15a2.48,2.48,0,0,1,.18.46c.1.3.24.74.4,1.29.32,1.09.72,2.6,1.13,4.28s.76,3.16,1,4.31c.13.52.23.95.32,1.31a2.31,2.31,0,0,1,.1.48,1.63,1.63,0,0,1-.18-.46c-.11-.3-.24-.74-.4-1.29-.31-1.09-.69-2.61-1.1-4.29s-.78-3.15-1.07-4.3l-.33-1.3A1.89,1.89,0,0,1,374.28,204.15Z"/><path class="cls-5" d="M378.08,216.4c0-.06,3.07-1,6.9-2.17s6.94-2,7-1.94-3.07,1-6.9,2.16S378.1,216.46,378.08,216.4Z"/><path class="cls-5" d="M369.5,231.9a1.66,1.66,0,0,1,.5,0h1.37c1.16,0,2.76,0,4.52-.11s3.36-.21,4.51-.31l1.37-.11a2.37,2.37,0,0,1,.5,0,1.92,1.92,0,0,1-.49.11c-.32.05-.78.12-1.36.19-1.15.14-2.75.29-4.52.37s-3.37.08-4.53,0L370,232A1.73,1.73,0,0,1,369.5,231.9Z"/><path class="cls-5" d="M363.62,221.58s.12.13.28.38l.67,1.07c.56.91,1.32,2.18,2.15,3.59s1.56,2.69,2.08,3.63c.26.46.47.84.61,1.11a2.81,2.81,0,0,1,.2.42s-.11-.12-.28-.37l-.67-1.08c-.56-.91-1.32-2.18-2.14-3.59s-1.57-2.69-2.09-3.63c-.26-.46-.47-.84-.61-1.11A2,2,0,0,1,363.62,221.58Z"/><path class="cls-5" d="M354.31,234.3a2.54,2.54,0,0,1,.35.49l.86,1.37c.73,1.17,1.71,2.79,2.79,4.58s2,3.43,2.72,4.62l.81,1.41a4.23,4.23,0,0,1,.27.54,2.54,2.54,0,0,1-.35-.49l-.87-1.37c-.72-1.17-1.7-2.79-2.78-4.59s-2-3.42-2.73-4.61l-.8-1.41A3,3,0,0,1,354.31,234.3Z"/><path class="cls-5" d="M362,246.94a4.53,4.53,0,0,1,.63-.05l1.74-.07c1.47-.07,3.5-.16,5.73-.33s4.25-.36,5.71-.51l1.73-.18a3.07,3.07,0,0,1,.64,0,4,4,0,0,1-.62.13l-1.73.25c-1.45.19-3.47.42-5.71.58s-4.27.24-5.74.26c-.74,0-1.33,0-1.74,0A2.89,2.89,0,0,1,362,246.94Z"/><path class="cls-6" d="M63.84,246.4a11.08,11.08,0,0,0-6.87-.88,5.72,5.72,0,0,0-3.4,1.49,2.44,2.44,0,0,0-.06,3.39,3.29,3.29,0,0,0,2.14.56c1.81,0,3.83-.32,5.27.79.83.63,1.37,1.67,2.36,2a2.34,2.34,0,0,0,2.58-1.13,4,4,0,0,0,.31-2.95A4.5,4.5,0,0,0,63.84,246.4Z"/><g class="cls-7"><path d="M63.84,246.4a11.08,11.08,0,0,0-6.87-.88,5.72,5.72,0,0,0-3.4,1.49,2.44,2.44,0,0,0-.06,3.39,3.29,3.29,0,0,0,2.14.56c1.81,0,3.83-.32,5.27.79.83.63,1.37,1.67,2.36,2a2.34,2.34,0,0,0,2.58-1.13,4,4,0,0,0,.31-2.95A4.5,4.5,0,0,0,63.84,246.4Z"/></g><path class="cls-6" d="M68.69,237.2c-1.29,1.81-3.77,1.19-4.91.07A9.19,9.19,0,0,1,61.73,233c-1-3.53-2-7.23-1.21-10.8a6,6,0,0,1,1.4-2.93,3.12,3.12,0,0,1,3-1A4.61,4.61,0,0,1,67.47,221a25.61,25.61,0,0,1,2.46,11.05,8.92,8.92,0,0,1-1.24,5.11"/><g class="cls-7"><path class="cls-8" d="M68.69,237.2c-1.29,1.81-3.77,1.19-4.91.07A9.19,9.19,0,0,1,61.73,233c-1-3.53-2-7.23-1.21-10.8a6,6,0,0,1,1.4-2.93,3.12,3.12,0,0,1,3-1A4.61,4.61,0,0,1,67.47,221a25.61,25.61,0,0,1,2.46,11.05,8.92,8.92,0,0,1-1.24,5.11"/></g><path class="cls-6" d="M72.18,239.84a6.64,6.64,0,0,1-1-6.12,11.72,11.72,0,0,1,3.66-5.22,19.39,19.39,0,0,1,6.5-3.78,7,7,0,0,1,2.92-.48,3.08,3.08,0,0,1,2.44,1.5c.67,1.31,0,2.88-.71,4.16a48.88,48.88,0,0,1-4.3,6.45,11.52,11.52,0,0,1-4.71,4c-1.95.73-4,.63-5-.73"/><path class="cls-5" d="M68.58,264.73a4.55,4.55,0,0,1-.11-.83c0-.61-.12-1.37-.2-2.27a31.85,31.85,0,0,0-.49-3.32,24.33,24.33,0,0,0-1.18-3.93,14.41,14.41,0,0,0-2-3.56,7.59,7.59,0,0,0-2.52-2.12A7.22,7.22,0,0,0,60,248a4,4,0,0,1-.83-.12,3.91,3.91,0,0,1,.84,0,6.32,6.32,0,0,1,2.22.6,7.35,7.35,0,0,1,2.65,2.14,13.79,13.79,0,0,1,2,3.63,23.59,23.59,0,0,1,1.17,4,26.7,26.7,0,0,1,.42,3.36c.07,1,.09,1.74.1,2.28A3.08,3.08,0,0,1,68.58,264.73Z"/><path class="cls-5" d="M68.44,263a1.59,1.59,0,0,1,0-.38c0-.29,0-.65,0-1.1,0-1,0-2.34,0-4.05-.06-3.41-.32-8.12-.85-13.3S66.3,234.3,65.63,231c-.16-.84-.32-1.59-.47-2.26s-.26-1.23-.38-1.69-.18-.79-.25-1.07-.08-.38-.06-.38a1.91,1.91,0,0,1,.13.36c.08.28.18.62.31,1.05s.28,1,.44,1.69.34,1.41.52,2.25a125.81,125.81,0,0,1,2,13.21c.53,5.19.75,9.92.75,13.34,0,1.71,0,3.1-.09,4.05,0,.45,0,.81-.07,1.1A1.65,1.65,0,0,1,68.44,263Z"/><path class="cls-5" d="M68.48,253.87a7.19,7.19,0,0,1,0-1.15,28.79,28.79,0,0,1,.37-3.11,40.51,40.51,0,0,1,1-4.53,39.33,39.33,0,0,1,1.93-5.36,28.55,28.55,0,0,1,5.63-8.63,13.89,13.89,0,0,1,1.32-1.21c.2-.17.38-.34.57-.47l.51-.35a7.54,7.54,0,0,1,1-.61,31.41,31.41,0,0,0-3.19,2.81,30,30,0,0,0-5.5,8.6,42.33,42.33,0,0,0-1.94,5.31,46,46,0,0,0-1.11,4.48c-.25,1.3-.39,2.35-.48,3.08A7.21,7.21,0,0,1,68.48,253.87Z"/><path class="cls-5" d="M178.14,65.81c-.09,0-.17-7.37-.17-16.46s.08-16.47.17-16.47.18,7.37.18,16.47S178.24,65.81,178.14,65.81Z"/><rect class="cls-5" x="271.96" y="177.48" width="75.31" height="82.63"/><rect class="cls-9" x="260.96" y="194" width="82.33" height="20.43"/><rect class="cls-5" x="264.62" y="198.21" width="16.21" height="2.49"/><rect class="cls-5" x="264.62" y="202.5" width="16.21" height="2.49"/><rect class="cls-5" x="264.62" y="206.94" width="16.21" height="2.49"/><path class="cls-5" d="M287.24,199.72a.93.93,0,1,1-1.86,0,.93.93,0,1,1,1.86,0Z"/><path class="cls-5" d="M291.34,199.72a.93.93,0,1,1-.93-.93A.93.93,0,0,1,291.34,199.72Z"/><path class="cls-5" d="M295.44,199.72a.93.93,0,1,1-.93-.93A.93.93,0,0,1,295.44,199.72Z"/><path class="cls-5" d="M299.55,199.72a.93.93,0,0,1-1.86,0,.93.93,0,0,1,1.86,0Z"/><path class="cls-5" d="M331.34,199.72a.93.93,0,1,1-.93-.93A.93.93,0,0,1,331.34,199.72Z"/><path class="cls-5" d="M335.53,199.72a.93.93,0,1,1-1.86,0,.93.93,0,0,1,1.86,0Z"/><path class="cls-5" d="M303.65,199.72a.93.93,0,1,1-.93-.93A.93.93,0,0,1,303.65,199.72Z"/><path class="cls-5" d="M323.8,199.72a.93.93,0,1,1-.93-.93A.93.93,0,0,1,323.8,199.72Z"/><path class="cls-3" d="M307.75,199.72a.93.93,0,1,1-.93-.93A.93.93,0,0,1,307.75,199.72Z"/><path class="cls-3" d="M311.86,199.72a.93.93,0,1,1-1.86,0,.93.93,0,1,1,1.86,0Z"/><path class="cls-3" d="M320.18,199.72a.93.93,0,1,1-.93-.93A.93.93,0,0,1,320.18,199.72Z"/><path class="cls-3" d="M338.93,199.72a.93.93,0,1,1-.93-.93A.93.93,0,0,1,338.93,199.72Z"/><path class="cls-6" d="M316,199.72a.93.93,0,1,1-.93-.93A.93.93,0,0,1,316,199.72Z"/><path class="cls-6" d="M327.71,199.72a.93.93,0,1,1-1.86,0,.93.93,0,0,1,1.86,0Z"/><path class="cls-5" d="M337.07,204.2a.93.93,0,1,1,.93.93A.93.93,0,0,1,337.07,204.2Z"/><path class="cls-5" d="M333,204.2a.93.93,0,1,1,.93.93A.93.93,0,0,1,333,204.2Z"/><path class="cls-5" d="M328.87,204.2a.93.93,0,0,1,1.86,0,.93.93,0,0,1-1.86,0Z"/><path class="cls-5" d="M324.76,204.2a.93.93,0,1,1,.93.93A.93.93,0,0,1,324.76,204.2Z"/><path class="cls-5" d="M293,204.2a.93.93,0,1,1,.93.93A.93.93,0,0,1,293,204.2Z"/><path class="cls-5" d="M288.78,204.2a.93.93,0,1,1,.93.93A.93.93,0,0,1,288.78,204.2Z"/><path class="cls-5" d="M320.66,204.2a.93.93,0,1,1,.93.93A.93.93,0,0,1,320.66,204.2Z"/><path class="cls-5" d="M300.51,204.2a.93.93,0,1,1,1.86,0,.93.93,0,0,1-1.86,0Z"/><path class="cls-3" d="M316.56,204.2a.93.93,0,0,1,1.86,0,.93.93,0,0,1-1.86,0Z"/><path class="cls-3" d="M312.45,204.2a.93.93,0,1,1,.93.93A.93.93,0,0,1,312.45,204.2Z"/><path class="cls-3" d="M304.13,204.2a.93.93,0,1,1,1.86,0,.93.93,0,0,1-1.86,0Z"/><path class="cls-3" d="M285.38,204.2a.93.93,0,1,1,1.86,0,.93.93,0,0,1-1.86,0Z"/><path class="cls-6" d="M308.35,204.2a.93.93,0,1,1,.93.93A.93.93,0,0,1,308.35,204.2Z"/><path class="cls-6" d="M296.6,204.2a.93.93,0,1,1,.93.93A.93.93,0,0,1,296.6,204.2Z"/><circle class="cls-5" cx="286.31" cy="208.18" r="0.93"/><circle class="cls-5" cx="290.41" cy="208.18" r="0.93"/><circle class="cls-5" cx="294.51" cy="208.18" r="0.93"/><circle class="cls-5" cx="298.62" cy="208.18" r="0.93"/><circle class="cls-5" cx="330.41" cy="208.18" r="0.93"/><circle class="cls-5" cx="334.6" cy="208.18" r="0.93"/><circle class="cls-5" cx="302.72" cy="208.18" r="0.93"/><path class="cls-5" d="M323.8,208.18a.93.93,0,1,1-.93-.93A.93.93,0,0,1,323.8,208.18Z"/><circle class="cls-3" cx="306.82" cy="208.18" r="0.93"/><path class="cls-3" d="M311.86,208.18a.93.93,0,1,1-.93-.93A.93.93,0,0,1,311.86,208.18Z"/><circle class="cls-3" cx="319.25" cy="208.18" r="0.93"/><path class="cls-3" d="M338.93,208.18a.93.93,0,0,1-1.86,0,.93.93,0,0,1,1.86,0Z"/><circle class="cls-6" cx="315.03" cy="208.18" r="0.93"/><circle class="cls-6" cx="326.78" cy="208.18" r="0.93"/><rect class="cls-9" x="260.96" y="219.21" width="82.33" height="20.43"/><path class="cls-5" d="M287,224.72a.93.93,0,1,1-.93-.93A.93.93,0,0,1,287,224.72Z"/><path class="cls-5" d="M291.13,224.72a.93.93,0,1,1-.93-.93A.93.93,0,0,1,291.13,224.72Z"/><path class="cls-5" d="M295.24,224.72a.93.93,0,0,1-1.86,0,.93.93,0,1,1,1.86,0Z"/><path class="cls-5" d="M299.34,224.72a.93.93,0,1,1-.93-.93A.93.93,0,0,1,299.34,224.72Z"/><path class="cls-5" d="M331.14,224.72a.93.93,0,1,1-.93-.93A.93.93,0,0,1,331.14,224.72Z"/><path class="cls-5" d="M335.32,224.72a.93.93,0,1,1-.93-.93A.93.93,0,0,1,335.32,224.72Z"/><path class="cls-5" d="M303.44,224.72a.93.93,0,1,1-.92-.93A.93.93,0,0,1,303.44,224.72Z"/><path class="cls-5" d="M323.6,224.72a.93.93,0,1,1-1.86,0,.93.93,0,1,1,1.86,0Z"/><path class="cls-3" d="M307.55,224.72a.93.93,0,1,1-.93-.93A.93.93,0,0,1,307.55,224.72Z"/><path class="cls-3" d="M311.65,224.72a.93.93,0,1,1-.93-.93A.93.93,0,0,1,311.65,224.72Z"/><path class="cls-3" d="M320,224.72a.93.93,0,0,1-1.86,0,.93.93,0,1,1,1.86,0Z"/><path class="cls-3" d="M338.73,224.72a.93.93,0,1,1-.93-.93A.93.93,0,0,1,338.73,224.72Z"/><path class="cls-6" d="M315.76,224.72a.93.93,0,0,1-1.86,0,.93.93,0,1,1,1.86,0Z"/><path class="cls-6" d="M327.5,224.72a.93.93,0,1,1-.93-.93A.93.93,0,0,1,327.5,224.72Z"/><path class="cls-5" d="M336.87,229.2a.93.93,0,1,1,.93.93A.93.93,0,0,1,336.87,229.2Z"/><path class="cls-5" d="M332.77,229.2a.93.93,0,1,1,.93.93A.93.93,0,0,1,332.77,229.2Z"/><path class="cls-5" d="M328.66,229.2a.93.93,0,1,1,.93.93A.93.93,0,0,1,328.66,229.2Z"/><path class="cls-5" d="M324.56,229.2a.93.93,0,1,1,.93.93A.93.93,0,0,1,324.56,229.2Z"/><path class="cls-5" d="M292.76,229.2a.93.93,0,1,1,.93.93A.93.93,0,0,1,292.76,229.2Z"/><path class="cls-5" d="M288.58,229.2a.93.93,0,1,1,.93.93A.93.93,0,0,1,288.58,229.2Z"/><path class="cls-5" d="M320.46,229.2a.93.93,0,1,1,.93.93A.93.93,0,0,1,320.46,229.2Z"/><path class="cls-5" d="M300.3,229.2a.93.93,0,1,1,.93.93A.93.93,0,0,1,300.3,229.2Z"/><path class="cls-3" d="M316.35,229.2a.93.93,0,1,1,.93.93A.93.93,0,0,1,316.35,229.2Z"/><path class="cls-3" d="M312.25,229.2a.93.93,0,1,1,.93.93A.93.93,0,0,1,312.25,229.2Z"/><path class="cls-3" d="M303.92,229.2a.93.93,0,1,1,.93.93A.93.93,0,0,1,303.92,229.2Z"/><path class="cls-3" d="M285.17,229.2a.93.93,0,1,1,.93.93A.93.93,0,0,1,285.17,229.2Z"/><path class="cls-6" d="M308.14,229.2a.93.93,0,1,1,.93.93A.93.93,0,0,1,308.14,229.2Z"/><path class="cls-6" d="M296.4,229.2a.93.93,0,1,1,.93.93A.93.93,0,0,1,296.4,229.2Z"/><circle class="cls-5" cx="286.1" cy="233.19" r="0.93"/><circle class="cls-5" cx="290.2" cy="233.19" r="0.93"/><circle class="cls-5" cx="294.31" cy="233.19" r="0.93"/><circle class="cls-5" cx="298.41" cy="233.19" r="0.93"/><circle class="cls-5" cx="330.21" cy="233.19" r="0.93"/><circle class="cls-5" cx="334.39" cy="233.19" r="0.93"/><circle class="cls-5" cx="302.52" cy="233.19" r="0.93"/><circle class="cls-5" cx="322.67" cy="233.19" r="0.93"/><circle class="cls-3" cx="306.62" cy="233.19" r="0.93"/><circle class="cls-3" cx="310.72" cy="233.19" r="0.93"/><circle class="cls-3" cx="319.05" cy="233.19" r="0.93"/><path class="cls-3" d="M338.73,233.19a.93.93,0,1,1-.93-.93A.93.93,0,0,1,338.73,233.19Z"/><circle class="cls-6" cx="314.83" cy="233.19" r="0.93"/><circle class="cls-6" cx="326.57" cy="233.19" r="0.93"/><rect class="cls-5" x="264.62" y="223.41" width="16.21" height="2.49"/><rect class="cls-5" x="264.62" y="227.71" width="16.21" height="2.49"/><rect class="cls-5" x="264.62" y="232.14" width="16.21" height="2.49"/><rect class="cls-9" x="260.96" y="244.41" width="82.33" height="20.43"/><rect class="cls-5" x="264.62" y="248.62" width="16.21" height="2.49"/><rect class="cls-5" x="264.62" y="252.91" width="16.21" height="2.49"/><rect class="cls-5" x="264.62" y="257.35" width="16.21" height="2.49"/><path class="cls-5" d="M286.73,249.92a.93.93,0,1,1-1.86,0,.93.93,0,0,1,1.86,0Z"/><path class="cls-5" d="M290.84,249.92a.93.93,0,1,1-.93-.93A.93.93,0,0,1,290.84,249.92Z"/><path class="cls-5" d="M294.94,249.92A.93.93,0,1,1,294,249,.93.93,0,0,1,294.94,249.92Z"/><path class="cls-5" d="M299,249.92a.93.93,0,0,1-1.86,0,.93.93,0,0,1,1.86,0Z"/><path class="cls-5" d="M330.84,249.92a.93.93,0,1,1-1.86,0,.93.93,0,1,1,1.86,0Z"/><path class="cls-5" d="M335,249.92a.93.93,0,1,1-.93-.93A.93.93,0,0,1,335,249.92Z"/><path class="cls-5" d="M303.15,249.92a.93.93,0,1,1-.93-.93A.93.93,0,0,1,303.15,249.92Z"/><path class="cls-5" d="M323.3,249.92a.93.93,0,1,1-.93-.93A.93.93,0,0,1,323.3,249.92Z"/><path class="cls-3" d="M307.25,249.92a.93.93,0,1,1-.93-.93A.93.93,0,0,1,307.25,249.92Z"/><path class="cls-3" d="M311.35,249.92a.93.93,0,1,1-1.86,0,.93.93,0,0,1,1.86,0Z"/><path class="cls-3" d="M319.68,249.92a.93.93,0,1,1-.93-.93A.93.93,0,0,1,319.68,249.92Z"/><path class="cls-3" d="M338.43,249.92a.93.93,0,1,1-.93-.93A.93.93,0,0,1,338.43,249.92Z"/><path class="cls-6" d="M315.46,249.92a.93.93,0,1,1-.93-.93A.93.93,0,0,1,315.46,249.92Z"/><path class="cls-6" d="M327.21,249.92a.93.93,0,1,1-.93-.93A.93.93,0,0,1,327.21,249.92Z"/><path class="cls-5" d="M336.57,254.41a.93.93,0,1,1,.93.93A.93.93,0,0,1,336.57,254.41Z"/><path class="cls-5" d="M332.47,254.41a.93.93,0,0,1,1.86,0,.93.93,0,1,1-1.86,0Z"/><path class="cls-5" d="M328.36,254.41a.93.93,0,1,1,.93.93A.93.93,0,0,1,328.36,254.41Z"/><path class="cls-5" d="M324.26,254.41a.93.93,0,1,1,.93.93A.93.93,0,0,1,324.26,254.41Z"/><path class="cls-5" d="M292.46,254.41a.93.93,0,1,1,.93.93A.93.93,0,0,1,292.46,254.41Z"/><path class="cls-5" d="M288.28,254.41a.93.93,0,1,1,1.86,0,.93.93,0,1,1-1.86,0Z"/><path class="cls-5" d="M320.16,254.41a.93.93,0,0,1,1.86,0,.93.93,0,1,1-1.86,0Z"/><path class="cls-5" d="M300,254.41a.93.93,0,1,1,.92.93A.92.92,0,0,1,300,254.41Z"/><path class="cls-3" d="M316.05,254.41a.93.93,0,1,1,.93.93A.93.93,0,0,1,316.05,254.41Z"/><path class="cls-3" d="M312,254.41a.93.93,0,1,1,.93.93A.93.93,0,0,1,312,254.41Z"/><path class="cls-3" d="M303.62,254.41a.93.93,0,1,1,.93.93A.93.93,0,0,1,303.62,254.41Z"/><path class="cls-3" d="M284.87,254.41a.93.93,0,1,1,.93.93A.93.93,0,0,1,284.87,254.41Z"/><path class="cls-6" d="M307.85,254.41a.93.93,0,1,1,1.86,0,.93.93,0,1,1-1.86,0Z"/><path class="cls-6" d="M296.1,254.41a.93.93,0,1,1,1.86,0,.93.93,0,1,1-1.86,0Z"/><path class="cls-5" d="M286.73,258.39a.93.93,0,1,1-1.86,0,.93.93,0,1,1,1.86,0Z"/><path class="cls-5" d="M290.84,258.39a.93.93,0,1,1-.93-.93A.93.93,0,0,1,290.84,258.39Z"/><path class="cls-5" d="M294.94,258.39a.93.93,0,1,1-.93-.93A.93.93,0,0,1,294.94,258.39Z"/><path class="cls-5" d="M299,258.39a.93.93,0,0,1-1.86,0,.93.93,0,0,1,1.86,0Z"/><path class="cls-5" d="M330.84,258.39a.93.93,0,1,1-1.86,0,.93.93,0,0,1,1.86,0Z"/><path class="cls-5" d="M335,258.39a.93.93,0,1,1-.93-.93A.93.93,0,0,1,335,258.39Z"/><path class="cls-5" d="M303.15,258.39a.93.93,0,1,1-.93-.93A.93.93,0,0,1,303.15,258.39Z"/><path class="cls-5" d="M323.3,258.39a.93.93,0,1,1-.93-.93A.93.93,0,0,1,323.3,258.39Z"/><path class="cls-3" d="M307.25,258.39a.93.93,0,1,1-.93-.93A.93.93,0,0,1,307.25,258.39Z"/><path class="cls-3" d="M311.35,258.39a.93.93,0,1,1-1.86,0,.93.93,0,1,1,1.86,0Z"/><path class="cls-3" d="M319.68,258.39a.93.93,0,1,1-.93-.93A.93.93,0,0,1,319.68,258.39Z"/><path class="cls-3" d="M338.43,258.39a.93.93,0,1,1-.93-.93A.93.93,0,0,1,338.43,258.39Z"/><path class="cls-6" d="M315.46,258.39a.93.93,0,1,1-.93-.93A.93.93,0,0,1,315.46,258.39Z"/><path class="cls-6" d="M327.21,258.39a.93.93,0,1,1-.93-.93A.93.93,0,0,1,327.21,258.39Z"/><polygon class="cls-5" points="355.66 214.39 343.29 214.43 343.29 194 355.66 193.97 355.66 214.39"/><polygon class="cls-5" points="355.66 189.56 343.29 189.59 343.29 169.17 355.66 169.13 355.66 189.56"/><polygon class="cls-5" points="355.66 239.44 343.29 239.47 343.29 219.05 355.66 219.01 355.66 239.44"/><polygon class="cls-5" points="355.66 264.81 343.29 264.84 343.29 244.41 355.66 244.38 355.66 264.81"/><rect class="cls-9" x="261.56" y="168.98" width="82.33" height="20.43"/><rect class="cls-5" x="265.21" y="173.18" width="16.21" height="2.49"/><rect class="cls-5" x="265.21" y="177.48" width="16.21" height="2.49"/><rect class="cls-5" x="265.21" y="181.91" width="16.21" height="2.49"/><path class="cls-5" d="M287.83,174.69a.93.93,0,1,1-.93-.93A.93.93,0,0,1,287.83,174.69Z"/><path class="cls-5" d="M291.93,174.69a.93.93,0,0,1-1.86,0,.93.93,0,0,1,1.86,0Z"/><path class="cls-5" d="M296,174.69a.93.93,0,1,1-.93-.93A.93.93,0,0,1,296,174.69Z"/><path class="cls-5" d="M300.14,174.69a.93.93,0,0,1-1.86,0,.93.93,0,0,1,1.86,0Z"/><path class="cls-5" d="M331.94,174.69a.93.93,0,1,1-.93-.93A.93.93,0,0,1,331.94,174.69Z"/><path class="cls-5" d="M336.12,174.69a.93.93,0,0,1-1.86,0,.93.93,0,0,1,1.86,0Z"/><path class="cls-5" d="M304.25,174.69a.93.93,0,1,1-.93-.93A.93.93,0,0,1,304.25,174.69Z"/><path class="cls-5" d="M324.4,174.69a.93.93,0,1,1-.93-.93A.93.93,0,0,1,324.4,174.69Z"/><path class="cls-3" d="M308.35,174.69a.93.93,0,1,1-.93-.93A.93.93,0,0,1,308.35,174.69Z"/><path class="cls-3" d="M312.45,174.69a.93.93,0,0,1-1.86,0,.93.93,0,0,1,1.86,0Z"/><path class="cls-3" d="M320.78,174.69a.93.93,0,1,1-.93-.93A.93.93,0,0,1,320.78,174.69Z"/><path class="cls-3" d="M339.53,174.69a.93.93,0,1,1-.93-.93A.93.93,0,0,1,339.53,174.69Z"/><path class="cls-6" d="M316.56,174.69a.93.93,0,1,1-.93-.93A.93.93,0,0,1,316.56,174.69Z"/><path class="cls-6" d="M328.3,174.69a.93.93,0,0,1-1.86,0,.93.93,0,0,1,1.86,0Z"/><path class="cls-5" d="M337.67,179.17a.93.93,0,1,1,.93.93A.93.93,0,0,1,337.67,179.17Z"/><path class="cls-5" d="M333.57,179.17a.93.93,0,1,1,.93.93A.93.93,0,0,1,333.57,179.17Z"/><path class="cls-5" d="M329.46,179.17a.93.93,0,1,1,1.86,0,.93.93,0,0,1-1.86,0Z"/><path class="cls-5" d="M325.36,179.17a.93.93,0,1,1,.93.93A.93.93,0,0,1,325.36,179.17Z"/><path class="cls-5" d="M293.56,179.17a.93.93,0,1,1,.93.93A.93.93,0,0,1,293.56,179.17Z"/><path class="cls-5" d="M289.38,179.17a.93.93,0,1,1,.93.93A.93.93,0,0,1,289.38,179.17Z"/><path class="cls-5" d="M321.26,179.17a.93.93,0,1,1,.92.93A.93.93,0,0,1,321.26,179.17Z"/><path class="cls-5" d="M301.1,179.17a.93.93,0,1,1,1.86,0,.93.93,0,0,1-1.86,0Z"/><path class="cls-3" d="M317.15,179.17a.93.93,0,1,1,1.86,0,.93.93,0,1,1-1.86,0Z"/><path class="cls-3" d="M313.05,179.17a.93.93,0,1,1,.93.93A.93.93,0,0,1,313.05,179.17Z"/><path class="cls-3" d="M304.72,179.17a.93.93,0,1,1,1.86,0,.93.93,0,0,1-1.86,0Z"/><path class="cls-3" d="M286,179.17a.93.93,0,1,1,.93.93A.93.93,0,0,1,286,179.17Z"/><path class="cls-6" d="M308.94,179.17a.93.93,0,1,1,1.86,0,.93.93,0,0,1-1.86,0Z"/><path class="cls-6" d="M297.2,179.17a.93.93,0,1,1,.93.93A.93.93,0,0,1,297.2,179.17Z"/><path class="cls-5" d="M287.83,183.16a.93.93,0,1,1-.93-.93A.93.93,0,0,1,287.83,183.16Z"/><path class="cls-5" d="M291.93,183.16a.93.93,0,1,1-.93-.93A.93.93,0,0,1,291.93,183.16Z"/><path class="cls-5" d="M296,183.16a.93.93,0,1,1-.93-.93A.93.93,0,0,1,296,183.16Z"/><path class="cls-5" d="M300.14,183.16a.93.93,0,1,1-.93-.93A.93.93,0,0,1,300.14,183.16Z"/><path class="cls-5" d="M331.94,183.16a.93.93,0,1,1-.93-.93A.93.93,0,0,1,331.94,183.16Z"/><path class="cls-5" d="M336.12,183.16a.93.93,0,1,1-.93-.93A.93.93,0,0,1,336.12,183.16Z"/><path class="cls-5" d="M304.25,183.16a.93.93,0,1,1-.93-.93A.93.93,0,0,1,304.25,183.16Z"/><path class="cls-5" d="M324.4,183.16a.93.93,0,1,1-.93-.93A.93.93,0,0,1,324.4,183.16Z"/><path class="cls-3" d="M308.35,183.16a.93.93,0,1,1-.93-.93A.93.93,0,0,1,308.35,183.16Z"/><path class="cls-3" d="M312.45,183.16a.93.93,0,1,1-.93-.93A.93.93,0,0,1,312.45,183.16Z"/><path class="cls-3" d="M320.78,183.16a.93.93,0,1,1-.93-.93A.93.93,0,0,1,320.78,183.16Z"/><path class="cls-3" d="M339.53,183.16a.93.93,0,1,1-.93-.93A.93.93,0,0,1,339.53,183.16Z"/><path class="cls-6" d="M316.56,183.16a.93.93,0,1,1-.93-.93A.93.93,0,0,1,316.56,183.16Z"/><path class="cls-6" d="M328.3,183.16a.93.93,0,1,1-.93-.93A.93.93,0,0,1,328.3,183.16Z"/><path class="cls-5" d="M208.35,22.54H209l2,0,7.76,0,28.54-.06,94.16-.05a20.81,20.81,0,0,1,6.79,1,19,19,0,0,1,5.95,3.27A19.64,19.64,0,0,1,361,37.87a32.67,32.67,0,0,1,.38,6.45v6.32c0,4.17,0,8.26,0,12.24,0,15.93,0,30.28,0,42.33,0,3,0,5.88,0,8.6v4a7.85,7.85,0,0,1-.72,3.65,7.52,7.52,0,0,1-5,4.14,11.48,11.48,0,0,1-2.94.22H350l-7.76,0h-2l-.69,0,.69,0,2,0,7.76,0h2.67a11.06,11.06,0,0,0,2.9-.23,7.4,7.4,0,0,0,4.91-4.06,7.73,7.73,0,0,0,.68-3.57c0-1.28,0-2.6,0-4q0-4.08,0-8.6c0-12,0-26.4,0-42.33V44.32a32.46,32.46,0,0,0-.38-6.38A19.34,19.34,0,0,0,354,27a18.49,18.49,0,0,0-5.84-3.21,20.32,20.32,0,0,0-6.68-1l-94.16,0-28.54-.06-7.76,0-2,0C208.58,22.56,208.35,22.54,208.35,22.54Z"/><rect class="cls-1" x="140.96" y="66.72" width="64.55" height="197.75"/><polygon class="cls-2" points="256.44 264.47 205.52 264.47 205.43 66.72 256.44 66.72 256.44 264.47"/><rect class="cls-5" x="144.54" y="98.37" width="54.76" height="15.42"/><rect class="cls-9" x="146.06" y="100.31" width="3.07" height="11.8"/><path class="cls-8" d="M152.74,102.79a1,1,0,1,1-1-1A1,1,0,0,1,152.74,102.79Z"/><path class="cls-8" d="M152.74,107a1,1,0,1,1-1-1A1,1,0,0,1,152.74,107Z"/><rect class="cls-9" x="156.64" y="101.82" width="3.01" height="9.06"/><rect class="cls-9" x="160.99" y="101.82" width="3.01" height="9.06"/><rect class="cls-9" x="165.34" y="101.82" width="3.01" height="9.06"/><rect class="cls-9" x="169.7" y="101.82" width="3.01" height="9.06"/><rect class="cls-9" x="174.05" y="101.82" width="3.01" height="9.06"/><rect class="cls-9" x="178.4" y="101.82" width="3.01" height="9.06"/><rect class="cls-9" x="182.75" y="101.82" width="3.01" height="9.06"/><rect class="cls-9" x="187.11" y="101.82" width="3.01" height="9.06"/><rect class="cls-9" x="191.46" y="101.82" width="3.01" height="9.06"/><rect class="cls-9" x="195.81" y="101.82" width="3.01" height="9.06"/><rect class="cls-5" x="144.54" y="120.52" width="54.76" height="15.42"/><rect class="cls-9" x="146.06" y="122.46" width="3.07" height="11.8"/><path class="cls-8" d="M152.74,124.94a1,1,0,0,1-2,0,1,1,0,1,1,2,0Z"/><path class="cls-8" d="M152.74,129.11a1,1,0,0,1-2,0,1,1,0,1,1,2,0Z"/><rect class="cls-9" x="156.64" y="123.96" width="3.01" height="9.06"/><rect class="cls-9" x="160.99" y="123.96" width="3.01" height="9.06"/><rect class="cls-9" x="165.34" y="123.96" width="3.01" height="9.06"/><rect class="cls-9" x="169.7" y="123.96" width="3.01" height="9.06"/><rect class="cls-9" x="174.05" y="123.96" width="3.01" height="9.06"/><rect class="cls-9" x="178.4" y="123.96" width="3.01" height="9.06"/><rect class="cls-9" x="182.75" y="123.96" width="3.01" height="9.06"/><rect class="cls-9" x="187.11" y="123.96" width="3.01" height="9.06"/><rect class="cls-9" x="191.46" y="123.96" width="3.01" height="9.06"/><rect class="cls-9" x="195.81" y="123.96" width="3.01" height="9.06"/><rect class="cls-5" x="144.54" y="142.84" width="54.76" height="15.42"/><rect class="cls-9" x="146.06" y="144.78" width="3.07" height="11.8"/><path class="cls-8" d="M152.74,147.26a1,1,0,1,1-1-1A1,1,0,0,1,152.74,147.26Z"/><path class="cls-8" d="M152.74,151.43a1,1,0,1,1-1-1A1,1,0,0,1,152.74,151.43Z"/><rect class="cls-9" x="156.64" y="146.29" width="3.01" height="9.06"/><rect class="cls-9" x="160.99" y="146.29" width="3.01" height="9.06"/><rect class="cls-9" x="165.34" y="146.29" width="3.01" height="9.06"/><rect class="cls-9" x="169.7" y="146.29" width="3.01" height="9.06"/><rect class="cls-9" x="174.05" y="146.29" width="3.01" height="9.06"/><rect class="cls-9" x="178.4" y="146.29" width="3.01" height="9.06"/><rect class="cls-9" x="182.75" y="146.29" width="3.01" height="9.06"/><rect class="cls-9" x="187.11" y="146.29" width="3.01" height="9.06"/><rect class="cls-9" x="191.46" y="146.29" width="3.01" height="9.06"/><rect class="cls-9" x="195.81" y="146.29" width="3.01" height="9.06"/><rect class="cls-5" x="144.54" y="166.96" width="54.76" height="15.42"/><rect class="cls-9" x="146.06" y="168.9" width="3.07" height="11.8"/><path class="cls-8" d="M152.74,171.38a1,1,0,0,1-2,0,1,1,0,1,1,2,0Z"/><path class="cls-8" d="M152.74,175.55a1,1,0,0,1-2,0,1,1,0,1,1,2,0Z"/><rect class="cls-9" x="156.64" y="170.4" width="3.01" height="9.06"/><rect class="cls-9" x="160.99" y="170.4" width="3.01" height="9.06"/><rect class="cls-9" x="165.34" y="170.4" width="3.01" height="9.06"/><rect class="cls-9" x="169.7" y="170.4" width="3.01" height="9.06"/><rect class="cls-9" x="174.05" y="170.4" width="3.01" height="9.06"/><rect class="cls-9" x="178.4" y="170.4" width="3.01" height="9.06"/><rect class="cls-9" x="182.75" y="170.4" width="3.01" height="9.06"/><rect class="cls-9" x="187.11" y="170.4" width="3.01" height="9.06"/><rect class="cls-9" x="191.46" y="170.4" width="3.01" height="9.06"/><rect class="cls-9" x="195.81" y="170.4" width="3.01" height="9.06"/><rect class="cls-5" x="144.54" y="191.31" width="54.76" height="15.42"/><rect class="cls-9" x="146.06" y="193.25" width="3.07" height="11.8"/><path class="cls-8" d="M152.74,195.73a1,1,0,1,1-1-1A1,1,0,0,1,152.74,195.73Z"/><path class="cls-8" d="M152.74,199.9a1,1,0,1,1-1-1A1,1,0,0,1,152.74,199.9Z"/><rect class="cls-9" x="156.64" y="194.76" width="3.01" height="9.06"/><rect class="cls-9" x="160.99" y="194.76" width="3.01" height="9.06"/><rect class="cls-9" x="165.34" y="194.76" width="3.01" height="9.06"/><rect class="cls-9" x="169.7" y="194.76" width="3.01" height="9.06"/><rect class="cls-9" x="174.05" y="194.76" width="3.01" height="9.06"/><rect class="cls-9" x="178.4" y="194.76" width="3.01" height="9.06"/><rect class="cls-9" x="182.75" y="194.76" width="3.01" height="9.06"/><rect class="cls-9" x="187.11" y="194.76" width="3.01" height="9.06"/><rect class="cls-9" x="191.46" y="194.76" width="3.01" height="9.06"/><rect class="cls-9" x="195.81" y="194.76" width="3.01" height="9.06"/><rect class="cls-5" x="144.54" y="239.78" width="54.76" height="15.42"/><rect class="cls-9" x="146.06" y="241.72" width="3.07" height="11.8"/><path class="cls-8" d="M152.74,244.2a1,1,0,1,1-1-1A1,1,0,0,1,152.74,244.2Z"/><path class="cls-8" d="M152.74,248.37a1,1,0,1,1-1-1A1,1,0,0,1,152.74,248.37Z"/><rect class="cls-9" x="156.64" y="243.23" width="3.01" height="9.06"/><rect class="cls-9" x="160.99" y="243.23" width="3.01" height="9.06"/><rect class="cls-9" x="165.34" y="243.23" width="3.01" height="9.06"/><rect class="cls-9" x="169.7" y="243.23" width="3.01" height="9.06"/><rect class="cls-9" x="174.05" y="243.23" width="3.01" height="9.06"/><rect class="cls-9" x="178.4" y="243.23" width="3.01" height="9.06"/><rect class="cls-9" x="182.75" y="243.23" width="3.01" height="9.06"/><rect class="cls-9" x="187.11" y="243.23" width="3.01" height="9.06"/><rect class="cls-9" x="191.46" y="243.23" width="3.01" height="9.06"/><rect class="cls-9" x="195.81" y="243.23" width="3.01" height="9.06"/><rect class="cls-5" x="144.54" y="215.57" width="54.76" height="15.42"/><rect class="cls-9" x="146.06" y="217.51" width="3.07" height="11.8"/><path class="cls-8" d="M152.74,220a1,1,0,1,1-1-1A1,1,0,0,1,152.74,220Z"/><path class="cls-8" d="M152.74,224.16a1,1,0,0,1-2,0,1,1,0,1,1,2,0Z"/><rect class="cls-9" x="156.64" y="219.02" width="3.01" height="9.06"/><rect class="cls-9" x="160.99" y="219.02" width="3.01" height="9.06"/><rect class="cls-9" x="165.34" y="219.02" width="3.01" height="9.06"/><rect class="cls-9" x="169.7" y="219.02" width="3.01" height="9.06"/><rect class="cls-9" x="174.05" y="219.02" width="3.01" height="9.06"/><rect class="cls-9" x="178.4" y="219.02" width="3.01" height="9.06"/><rect class="cls-9" x="182.75" y="219.02" width="3.01" height="9.06"/><rect class="cls-9" x="187.11" y="219.02" width="3.01" height="9.06"/><rect class="cls-9" x="191.46" y="219.02" width="3.01" height="9.06"/><rect class="cls-9" x="195.81" y="219.02" width="3.01" height="9.06"/><path class="cls-5" d="M178.4,98.37a2.48,2.48,0,0,1-.05-.47c0-.32,0-.78-.06-1.37s0-1.33-.06-2.17a13.73,13.73,0,0,0-.38-2.81,9.92,9.92,0,0,0-1.46-3.08,6.83,6.83,0,0,0-3-2.42,14.39,14.39,0,0,0-4.26-.86l-4.72-.41c-6.46-.56-12.32-.92-16.57-1-2.12,0-3.84,0-5,0H141a2.12,2.12,0,0,1,.48-.06l1.37-.08c1.18-.05,2.91-.1,5-.08,4.26,0,10.14.33,16.6.89l4.72.42a14.4,14.4,0,0,1,4.35.91,7,7,0,0,1,3.11,2.54,9.91,9.91,0,0,1,1.47,3.19,13.52,13.52,0,0,1,.33,2.87c0,.84,0,1.57,0,2.16s0,1,0,1.37A2.49,2.49,0,0,1,178.4,98.37Z"/><path class="cls-5" d="M161.79,98.37a2.56,2.56,0,0,1,0-.45l0-1.29c0-.56,0-1.24-.06-2a6.29,6.29,0,0,0-.67-2.54,4.91,4.91,0,0,0-2.48-1.9,6.79,6.79,0,0,0-3.61-.37,6.11,6.11,0,0,0-1.86.63,3.68,3.68,0,0,0-1.45,1.37,2,2,0,0,0,0,1.94A2.6,2.6,0,0,0,153.26,95a2.09,2.09,0,0,0,1.92-.55,2.75,2.75,0,0,0,.29-3.71A4,4,0,0,0,154,89.43a5,5,0,0,0-1.81-.47l-1.8-.24c-1.16-.13-2.25-.2-3.25-.25-2-.07-3.61,0-4.73,0h-1.29a1.72,1.72,0,0,1-.45,0,3.09,3.09,0,0,1,.45,0l1.28-.07c1.12,0,2.74-.11,4.75-.06,1,0,2.1.09,3.27.2.59.06,1.19.14,1.82.23.31,0,.62.08,1,.14a3.79,3.79,0,0,1,1,.34,4.38,4.38,0,0,1,1.57,1.37,3.08,3.08,0,0,1-.32,4.15,2.44,2.44,0,0,1-2.24.64,2.91,2.91,0,0,1-1.86-1.4,2.32,2.32,0,0,1,0-2.27,3.88,3.88,0,0,1,1.59-1.5,6.54,6.54,0,0,1,2-.66,7.06,7.06,0,0,1,3.77.42,5.15,5.15,0,0,1,2.58,2,6.31,6.31,0,0,1,.65,2.65,20,20,0,0,1,0,2c0,.53,0,1,0,1.29A3.09,3.09,0,0,1,161.79,98.37Z"/><path class="cls-5" d="M182.87,98.37a3,3,0,0,1-.11-.51c-.06-.34-.15-.83-.29-1.46a28.12,28.12,0,0,0-1.61-5.23,15.15,15.15,0,0,0-4.77-6.39,8.91,8.91,0,0,0-4.36-1.67,47.35,47.35,0,0,0-5.14-.27c-7.08-.14-13.49-.11-18.13-.29-2.32-.08-4.2-.19-5.49-.28l-1.49-.12a4.48,4.48,0,0,1-.52-.07,3.43,3.43,0,0,1,.52,0l1.5.06c1.29,0,3.17.12,5.49.17,4.63.11,11,0,18.13.18a43.57,43.57,0,0,1,5.17.29,9.21,9.21,0,0,1,4.52,1.74,13.87,13.87,0,0,1,3,3.19,19.09,19.09,0,0,1,1.79,3.37,25.87,25.87,0,0,1,1.51,5.29c.12.64.19,1.14.23,1.48A2.89,2.89,0,0,1,182.87,98.37Z"/><rect class="cls-5" x="145.29" y="69.18" width="53.25" height="7.73"/><rect class="cls-9" x="157" y="73.05" width="28.99" height="3.87"/><path class="cls-5" d="M220.27,229.51s-.59.1-1.61.4a13.6,13.6,0,0,0-4,2,10.77,10.77,0,0,0-2.26,2.1,7.49,7.49,0,0,0-.93,1.43,9.93,9.93,0,0,0-.58,1.72,29.37,29.37,0,0,0-.3,8.15,17.06,17.06,0,0,1-1.22,8.14,9,9,0,0,1-2.18,2.9,10.49,10.49,0,0,1-2.67,1.7,10,10,0,0,1-2.49.74,9.14,9.14,0,0,1-2,.09,7.1,7.1,0,0,1-1.23-.2,2.56,2.56,0,0,1-.41-.12s.58.14,1.64.18a9.93,9.93,0,0,0,1.93-.14,10.62,10.62,0,0,0,5-2.46,9,9,0,0,0,2.08-2.83,17.08,17.08,0,0,0,1.16-8c-.12-2.9-.3-5.74.34-8.24a9.6,9.6,0,0,1,.62-1.78,8,8,0,0,1,1-1.48,11.34,11.34,0,0,1,2.34-2.11,12.86,12.86,0,0,1,4.13-1.9,10.08,10.08,0,0,1,1.22-.24A2.31,2.31,0,0,1,220.27,229.51Z"/><rect class="cls-5" x="195.72" y="256.14" width="4.37" height="5.32"/><rect class="cls-9" x="220.27" y="216.08" width="24.51" height="26.86"/><circle class="cls-5" cx="232.53" cy="229.62" r="8.07" transform="translate(-41.87 407.1) rotate(-77.54)"/><path class="cls-9" d="M236.56,229.62a4,4,0,1,1-4-4A4,4,0,0,1,236.56,229.62Z"/><circle class="cls-5" cx="223.58" cy="220.25" r="0.75"/><circle class="cls-5" cx="241.03" cy="220.25" r="0.75"/><path class="cls-5" d="M241.94,240.09a.75.75,0,1,1-.75-.75A.75.75,0,0,1,241.94,240.09Z"/><circle class="cls-5" cx="223.58" cy="240.39" r="0.75"/><rect class="cls-5" x="244.78" y="216.08" width="1.98" height="26.86"/><path class="cls-6" d="M214.94,37c2.42-5.65,1-11.55-3-16.24a17.05,17.05,0,0,0-16.66-5.4,18.62,18.62,0,0,0-36.93,2.4,13.94,13.94,0,0,0-10.65,18.92Z"/><path class="cls-5" d="M354.21,181.17a.64.64,0,0,1,.24,0l.7,0,2.69,0a15,15,0,0,0,4.19-.49,12.92,12.92,0,0,0,8.72-8.06,14.11,14.11,0,0,0,.51-1.78,13,13,0,0,0,.23-1.89c.08-1.29,0-2.65,0-4,0-5.52,0-11.59,0-18v-4.72a17.33,17.33,0,0,0-.09-2.29,9.52,9.52,0,0,0-.51-2.17,10.38,10.38,0,0,0-5.67-6c-2.52-1.16-5.23-.76-7.67-.87l-6.83-.07-9.89-.12-2.69-.05-.7,0-.23,0a.6.6,0,0,1,.23,0h.7l2.69,0,9.89,0,6.84,0,3.8,0a10.41,10.41,0,0,1,4,.83,10.7,10.7,0,0,1,5.86,6.23,10.47,10.47,0,0,1,.54,2.24,20.17,20.17,0,0,1,.09,2.33v4.72c0,6.37,0,12.44,0,18,0,1.39,0,2.72-.05,4.05a11.68,11.68,0,0,1-.78,3.75,13.08,13.08,0,0,1-8.94,8.15,14.68,14.68,0,0,1-4.24.43l-2.69,0-.7,0Z"/><polygon class="cls-8" points="176 36.75 176 27.28 171.26 27.28 178.4 17.2 185.54 27.21 180.89 27.21 180.89 36.75 176 36.75"/><polygon class="cls-2" points="338.46 159.52 343.51 166.11 353.11 161.86 346.97 152 338.46 159.52"/><polygon class="cls-9" points="341.45 160.3 341.61 163.56 344.79 165.04 344.62 161.71 341.45 160.3"/><polygon class="cls-9" points="344.47 158.47 344.62 161.73 347.8 163.22 347.64 159.88 344.47 158.47"/><polygon class="cls-9" points="347.53 156.65 347.69 159.91 350.86 161.4 350.7 158.06 347.53 156.65"/><path class="cls-6" d="M353.49,161.73l-1.09-1.68L343,166l2.22,3.71.61-.3c2.74-1.4,13.82-7.28,15.28-8.85C362.72,158.82,353.49,161.73,353.49,161.73Z"/><g class="cls-10"><path class="cls-8" d="M348.64,167.62a3.93,3.93,0,0,0-2.39-1.43,3.23,3.23,0,0,0-2.72.72l1.61,2.67Z"/></g><path class="cls-11" d="M358.09,160.45s3.34-.84,3.25-.16-11,7.05-16.13,9.43l-.11-.22L358,162.18S357.54,160.8,358.09,160.45Z"/><path class="cls-5" d="M344.94,169.58l.18-.08.49-.24,1.79-.94c1.5-.81,3.57-1.94,5.82-3.25s4.27-2.53,5.72-3.44l1.7-1.09.46-.3.15-.11s-.06,0-.17.09l-.47.28-1.72,1.05c-1.46.89-3.48,2.1-5.73,3.4s-4.31,2.46-5.81,3.28l-1.77,1-.48.27Z"/><path class="cls-5" d="M358,162.33a4.59,4.59,0,0,1-.16-1,4.75,4.75,0,0,1,.21-1,1.81,1.81,0,0,0,0,2Z"/><path class="cls-5" d="M354.37,162.54s.08-.24.09-.55,0-.55,0-.55a1.51,1.51,0,0,0-.09.55C354.31,162.29,354.33,162.54,354.37,162.54Z"/><path class="cls-5" d="M353.35,162.58s.13-.18.21-.42a1,1,0,0,0,.08-.47s-.13.18-.21.42A1,1,0,0,0,353.35,162.58Z"/><path class="cls-5" d="M352.33,162a1.34,1.34,0,0,0,.54-.23c.28-.16.49-.31.47-.34s-.25.06-.53.22S352.32,161.92,352.33,162Z"/><path class="cls-5" d="M351.79,161.42a1.19,1.19,0,0,0,.66-.17c.34-.16.55-.38.53-.41a4.16,4.16,0,0,0-.59.29A4.05,4.05,0,0,0,351.79,161.42Z"/><path class="cls-5" d="M354.21,161.51a2.24,2.24,0,0,0,.61-.36,4.51,4.51,0,0,0,.58-.53,2.24,2.24,0,0,0,.28-.37.39.39,0,0,0,.05-.28.29.29,0,0,0-.24-.2,1.32,1.32,0,0,0-1.21,1.15,1.21,1.21,0,0,0,0,.53c0,.12.07.18.08.17a2.14,2.14,0,0,1,0-.69,1.39,1.39,0,0,1,.33-.65,1.11,1.11,0,0,1,.77-.37c.14,0,.17.15.1.28a3,3,0,0,1-.27.35,3.8,3.8,0,0,1-.54.53C354.43,161.35,354.2,161.49,354.21,161.51Z"/><path class="cls-5" d="M354.39,161.45a.73.73,0,0,0-.18-.47,1.31,1.31,0,0,0-.43-.36.72.72,0,0,0-.7,0,.27.27,0,0,0,0,.39.67.67,0,0,0,.26.22,2.23,2.23,0,0,0,.51.2,1.13,1.13,0,0,0,.5.05s-.19,0-.47-.14a2.81,2.81,0,0,1-.48-.22c-.16-.08-.35-.28-.21-.4a.65.65,0,0,1,.56,0,1.05,1.05,0,0,1,.4.3C354.33,161.26,354.36,161.46,354.39,161.45Z"/><path class="cls-5" d="M343.61,166.84s.26-.19.73-.39a3.58,3.58,0,0,1,1.91-.26A3.52,3.52,0,0,1,348,167c.38.32.56.59.58.58a.82.82,0,0,0-.11-.2,3,3,0,0,0-.41-.45,3.36,3.36,0,0,0-3.78-.56,2.39,2.39,0,0,0-.52.32A.51.51,0,0,0,343.61,166.84Z"/><path class="cls-5" d="M349.31,166a5.67,5.67,0,0,0,1.48-.67,6.31,6.31,0,0,0,1.34-.93s-.62.37-1.4.81S349.29,166,349.31,166Z"/><path class="cls-5" d="M347.42,167.07s.13.11.28.21.26.22.29.2,0-.18-.21-.3S347.43,167,347.42,167.07Z"/><path class="cls-5" d="M346.2,166.6s.11.1.27.15.29.05.3,0-.11-.1-.26-.14S346.21,166.57,346.2,166.6Z"/><path class="cls-5" d="M345,166.79s.16,0,.33-.08.31,0,.32-.05-.14-.12-.35-.08S344.93,166.77,345,166.79Z"/><path class="cls-5" d="M344.12,167s.09,0,.19,0,.17-.06.16-.1-.09-.05-.18,0S344.11,167,344.12,167Z"/><path class="cls-5" d="M274.73,154.64l37.57-35.43a12.36,12.36,0,0,1,8.84-3.72h0a12.34,12.34,0,0,1,10.72,6.22l19.22,33-12.19,7-18.52-23.54L301.82,155Z"/><path class="cls-5" d="M263.67,156.42c-.16.48-1.28,12.58,15,12.58h43.41a10,10,0,0,0,9.95-9.95h0a10,10,0,0,0-9.95-10H281.63a10,10,0,0,0-4.19.93Z"/><path class="cls-9" d="M325.89,149.1c0,.1-9,.18-20,.18s-20-.08-20-.18,9-.17,20-.17S325.89,149,325.89,149.1Z"/><path class="cls-9" d="M319.19,130c.1,0,.11,1.88.45,4.16s.86,4.08.76,4.11a13.33,13.33,0,0,1-1.11-4.06A13.17,13.17,0,0,1,319.19,130Z"/><path class="cls-9" d="M321,129.68a17.59,17.59,0,0,1,0,4.28,17.7,17.7,0,0,1-.71,4.21c-.1,0,.17-1.9.37-4.24S320.93,129.69,321,129.68Z"/><path class="cls-5" d="M287.37,76.39a1.29,1.29,0,0,1-.64,1.24,1.31,1.31,0,0,1-1.4-.1c-.74-.58-.62-1.74-.28-2.61a4.79,4.79,0,0,0,.62-2.7,6.55,6.55,0,0,0-1.11-1.83,4,4,0,0,1-.45-3.58,3.39,3.39,0,0,1,2.81-2.18c1.27-.11,2.69.55,3.76-.14.77-.51,1-1.54,1.67-2.2,1-1,2.7-.88,4.06-.42s2.69,1.19,4.13,1.12A19.57,19.57,0,0,0,304,62a6.29,6.29,0,0,1,6.38,10c-.58.73-1.9,2.91-4.51,2.37"/><path class="cls-12" d="M288.86,66.5l-.35,1.89-5.45,28.14a6.15,6.15,0,0,0,5.17,7.07h0a6.5,6.5,0,0,0,7.66-4.77c.73-3.45,1.56-7.07,1.56-7.07s4.61.18,6.74-5.44a63.25,63.25,0,0,0,2.45-11.48,6.26,6.26,0,0,0-5.57-7.12Z"/><path class="cls-5" d="M304,77.64a.77.77,0,0,1-.88.6.74.74,0,0,1-.63-.83.76.76,0,0,1,.88-.6A.73.73,0,0,1,304,77.64Z"/><path class="cls-5" d="M305.1,77.09c-.11.08-.59-.45-1.39-.62s-1.47.12-1.54,0,.1-.21.4-.34a2.08,2.08,0,0,1,2.34.5C305.11,76.87,305.16,77.06,305.1,77.09Z"/><path class="cls-5" d="M296.34,76.08a.76.76,0,0,1-.87.6.72.72,0,0,1-.63-.83.75.75,0,0,1,.87-.6A.72.72,0,0,1,296.34,76.08Z"/><path class="cls-5" d="M297.19,75.61c-.11.07-.59-.46-1.39-.62s-1.47.11-1.54,0,.1-.2.4-.34a2.13,2.13,0,0,1,1.25-.12,2,2,0,0,1,1.08.62C297.2,75.38,297.25,75.57,297.19,75.61Z"/><path class="cls-5" d="M298.87,82.16a5.25,5.25,0,0,1,1.35,0c.21,0,.41,0,.47-.11a1.07,1.07,0,0,0,0-.64c-.09-.53-.18-1.09-.28-1.68a26.54,26.54,0,0,1-.51-4.36,27.17,27.17,0,0,1,.86,4.31c.09.59.18,1.15.26,1.69a1.24,1.24,0,0,1-.06.82.54.54,0,0,1-.4.23,1.94,1.94,0,0,1-.36,0A6.11,6.11,0,0,1,298.87,82.16Z"/><path class="cls-13" d="M297.45,91.76a15,15,0,0,1-7.34-3.7s1.05,4.39,7,5Z"/><path class="cls-5" d="M296.4,82.22c.13,0,0,.89.56,1.66s1.57.87,1.55,1-.24.13-.64.06a2.28,2.28,0,0,1-1.3-.78,2,2,0,0,1-.42-1.38C296.19,82.4,296.34,82.2,296.4,82.22Z"/><path class="cls-5" d="M298.05,72.51c-.12.2-.9-.07-1.86-.15s-1.78,0-1.86-.21.13-.28.48-.43a3.32,3.32,0,0,1,1.46-.19,3.15,3.15,0,0,1,1.38.46C298,72.2,298.11,72.41,298.05,72.51Z"/><path class="cls-5" d="M305.29,74.71c-.18.15-.69-.15-1.35-.3s-1.25-.13-1.34-.34.09-.27.37-.39a1.83,1.83,0,0,1,1.16-.07,1.86,1.86,0,0,1,1,.59C305.33,74.43,305.37,74.64,305.29,74.71Z"/><path class="cls-5" d="M307.37,72.31a8.45,8.45,0,0,1-6.89-1.73c-2.36-1.74-5.27-2.9-6-2.5s-1.36,3-4.06,3.38c0,0-.71,5.12-2.71,4.59s.41-10.62.41-10.62l5.63.86,5.59-.07,5,1.61,3.76,1.77Z"/><path class="cls-5" d="M288.25,64c0-.08.5-.16,1,.16s.68.81.6.83-.33-.31-.76-.57S288.25,64.05,288.25,64Z"/><path class="cls-5" d="M290.28,62.6c.1,0-.06.61-.1,1.32s.16,1.27.07,1.31a1.68,1.68,0,0,1-.38-1.32A2.08,2.08,0,0,1,290.28,62.6Z"/><path class="cls-12" d="M288.23,74c-.08-.06-3.12-1.85-3.86,1.53s2.81,3.43,2.83,3.33S288.23,74,288.23,74Z"/><path class="cls-13" d="M286.45,77.34s-.07,0-.18.06a.65.65,0,0,1-.44-.09,1.51,1.51,0,0,1-.39-1.46,2,2,0,0,1,.35-.8.69.69,0,0,1,.54-.36.32.32,0,0,1,.32.24.93.93,0,0,1,0,.18s.09,0,.09-.19a.36.36,0,0,0-.09-.24.49.49,0,0,0-.3-.16.84.84,0,0,0-.73.39,1.92,1.92,0,0,0-.41.9,1.56,1.56,0,0,0,.54,1.65.65.65,0,0,0,.56,0C286.43,77.42,286.46,77.35,286.45,77.34Z"/><path class="cls-9" d="M299.43,76s0-.32-.18-.86a3.56,3.56,0,0,0-1.31-1.89,3.44,3.44,0,1,0,0,5.51,3.54,3.54,0,0,0,1.31-1.9c.15-.54.15-.86.18-.86a.64.64,0,0,1,0,.24,2.22,2.22,0,0,1-.07.66,3.57,3.57,0,0,1-1.29,2.06,3.73,3.73,0,0,1-3.53.57,3.65,3.65,0,0,1-1.75-1.3,3.72,3.72,0,0,1,0-4.45,3.65,3.65,0,0,1,1.75-1.3,3.7,3.7,0,0,1,3.53.57,3.57,3.57,0,0,1,1.29,2.06,2.19,2.19,0,0,1,.07.66C299.45,75.89,299.44,76,299.43,76Z"/><path class="cls-9" d="M308.05,77.52s0-.32-.17-.86a3.64,3.64,0,0,0-1.32-1.9,3.45,3.45,0,1,0,0,5.52,3.6,3.6,0,0,0,1.32-1.9c.15-.54.14-.86.17-.86s0,.08,0,.23a3.21,3.21,0,0,1-.07.67,3.62,3.62,0,0,1-1.3,2.06,3.72,3.72,0,0,1-5.28-.73,3.72,3.72,0,0,1,0-4.45,3.63,3.63,0,0,1,1.75-1.3,3.7,3.7,0,0,1,3.53.57,3.59,3.59,0,0,1,1.3,2.06,3.13,3.13,0,0,1,.07.66C308.07,77.44,308.07,77.52,308.05,77.52Z"/><path class="cls-9" d="M292.65,74a6.58,6.58,0,0,1-2.16.18,7,7,0,0,1-2.16-.16,6.63,6.63,0,0,1,2.16-.18A6.94,6.94,0,0,1,292.65,74Z"/><path class="cls-9" d="M300.87,76.84c-.09,0-.3-.29-.7-.4s-.75,0-.8,0,0-.14.19-.23a1,1,0,0,1,1.27.37C300.92,76.7,300.91,76.82,300.87,76.84Z"/><polygon class="cls-2" points="292.92 148.82 292.92 146.59 324.66 147.24 342.93 118.04 344.61 119.25 325.89 149.1 292.92 148.82"/><path class="cls-12" d="M314.88,139.09l1.59,2.37v4.87a1,1,0,0,1-1.15-.47,19.54,19.54,0,0,1-.77-2.92l-.78,2a1.72,1.72,0,0,1-2,1.05l-5.89-1.48,2.41-6.87Z"/><path class="cls-6" d="M282.38,92s-8.79,2.2-11.42,6.15-5.64,10.52-8.87,23.24c-2.82,11.1-5,28.84-1.94,33a13,13,0,0,0,3.44,3.59l6.78-2.43A52.44,52.44,0,0,0,288,144.91l10.41-9.49-5.51-4.35s4.19-22.62,3.08-30.53C295,93.63,282.38,92,282.38,92Z"/><path class="cls-6" d="M284.65,98.8c-3.38.84-6.63,2.21-11.25,2.6a5.12,5.12,0,0,1-3.12-.68c-2.92-1.8-1.91-5.13-.31-7.38s4.35-4.43,7.25-4.13a3.35,3.35,0,0,1,1.66-3.92,5.48,5.48,0,0,1,4.49-.1,16.32,16.32,0,0,1,3.94,2.42l5,3.75a9.41,9.41,0,0,1,2.9,3c.65,1.24,3,6.1,2,7a3.33,3.33,0,0,1-2,0l-.12-.09A12.15,12.15,0,0,0,284.65,98.8Z"/><path class="cls-6" d="M279.66,102.92l-5.81,27.14A9.71,9.71,0,0,0,280,141.23l25.23,4.84,3.15-9.41h0l-20.48-6.39,6-26.22Z"/><path class="cls-5" d="M273.63,135.23s0,.05,0,.15l.1.47.07.35.14.41.18.47.27.5a6.9,6.9,0,0,0,2,2.16,11.54,11.54,0,0,0,3.71,1.61l25,4.57-.16.1c1-3,2.13-6.13,3.28-9.41l.1.21-20.48-6.38-.16-.05,0-.16,1.13-4.4c1.19-4.76,2.3-9.41,3.27-13.92.48-2.26.93-4.49,1.24-6.68.09-.55.09-1.09.14-1.63a7,7,0,0,0-.18-1.59,6.66,6.66,0,0,0-1.4-2.78,6.8,6.8,0,0,0-5.35-2.39,7,7,0,0,0-5,2.51,13.22,13.22,0,0,0-2.56,4.72,43.42,43.42,0,0,0-1.16,4.88c-1.24,6.3-2.24,11.39-2.94,14.93-.35,1.75-.63,3.11-.82,4.05-.09.45-.17.8-.22,1a3.57,3.57,0,0,1-.09.36s0-.12,0-.36.11-.61.19-1.06c.18-.94.43-2.31.76-4.07.67-3.54,1.64-8.64,2.83-14.94a40.36,40.36,0,0,1,1.15-4.92,13.24,13.24,0,0,1,2.6-4.83,7.26,7.26,0,0,1,5.17-2.63A7.17,7.17,0,0,1,292.21,99a7,7,0,0,1,1.47,2.92,7.68,7.68,0,0,1,.19,1.66c-.05.56-.05,1.13-.14,1.67-.31,2.22-.76,4.44-1.23,6.71-1,4.52-2.08,9.18-3.28,13.93-.38,1.51-.76,3-1.12,4.41l-.12-.21,20.48,6.4.16.05-.06.16c-1.15,3.27-2.26,6.42-3.3,9.4l0,.12-.13,0c-10.33-1.94-18.93-3.51-25-4.7a11.38,11.38,0,0,1-3.73-1.67,6.73,6.73,0,0,1-2-2.22c-.09-.19-.18-.36-.27-.52s-.11-.33-.16-.48l-.14-.41-.06-.36-.07-.47A1,1,0,0,1,273.63,135.23Z"/><path class="cls-5" d="M284.41,133.83s-.07-.32,0-.81a3.88,3.88,0,0,1,1-1.69,3.71,3.71,0,0,1,1.72-.94c.5-.11.82-.06.82,0a4.45,4.45,0,0,1-.75.25,4.53,4.53,0,0,0-1.55,1,4.37,4.37,0,0,0-1,1.51C284.52,133.54,284.47,133.83,284.41,133.83Z"/><g class="cls-14"><path d="M279.06,102.56a156.29,156.29,0,0,0-6.07,29,23.29,23.29,0,0,0-.14,6.82,7.57,7.57,0,0,0,9.58,6.65c2.1-.4,5.49-.86,7.41-1.77l-11.29-2.33s-7.28-.45-4.15-14.39S279.06,102.56,279.06,102.56Z"/></g><g class="cls-14"><path d="M269.44,100.24c-.05,1.12.06,2.49,1.07,3s2.17-.39,3-1.17A48.26,48.26,0,0,1,285,94.16a26.89,26.89,0,0,0-15.54,6.28"/></g><path class="cls-5" d="M291.55,96.84a17.86,17.86,0,0,0-3.11-1.66,12.78,12.78,0,0,0-3.7-.84,12.24,12.24,0,0,0-4.61.5,23.11,23.11,0,0,0-4.29,1.87c-1.27.7-2.4,1.35-3.38,1.86a24.71,24.71,0,0,1-2.35,1.12,4.76,4.76,0,0,1-.91.3,7,7,0,0,1,.85-.42c.55-.27,1.34-.67,2.3-1.21l3.34-1.93A22.27,22.27,0,0,1,280,94.5a12.24,12.24,0,0,1,4.73-.48,12.61,12.61,0,0,1,3.77.93,11.47,11.47,0,0,1,2.29,1.27c.25.18.43.34.56.44S291.56,96.83,291.55,96.84Z"/><path class="cls-5" d="M295.09,98.25s-.85-.76-2.26-1.89a33.73,33.73,0,0,0-5.94-3.82,32.62,32.62,0,0,0-6.62-2.44c-1.76-.45-2.87-.6-2.87-.67a4,4,0,0,1,.8.06,19.24,19.24,0,0,1,2.13.37,29.58,29.58,0,0,1,6.72,2.37A29.14,29.14,0,0,1,293,96.17a19.38,19.38,0,0,1,1.58,1.48A3.82,3.82,0,0,1,295.09,98.25Z"/><path class="cls-2" d="M296.77,120.21a2.24,2.24,0,0,1-.13-.56,15.91,15.91,0,0,1-.22-1.6,8.08,8.08,0,0,1,.11-2.5,1.45,1.45,0,0,1,1.1-1.12.86.86,0,0,1,.86.35.77.77,0,0,1-.05,1l0,0h0a1.09,1.09,0,0,1-1-.38,1.85,1.85,0,0,1-.41-.94c-.08-.67-.08-1.31-.12-2-.17-3.2-.3-6.1-.38-8.2,0-1-.05-1.84-.07-2.49a4.19,4.19,0,0,1,0-.92,5.46,5.46,0,0,1,.11.91l.19,2.49c.14,2.09.31,5,.47,8.19.05.67.05,1.35.12,2a1.49,1.49,0,0,0,.32.77.78.78,0,0,0,.66.28l-.09,0a.45.45,0,0,0,0-.56.51.51,0,0,0-.54-.23,1.17,1.17,0,0,0-.88.9,8.63,8.63,0,0,0-.18,2.4C296.7,119.4,296.82,120.21,296.77,120.21Z"/><path class="cls-5" d="M285.8,142.31a6.09,6.09,0,0,1-.81.77c-.54.48-1.34,1.15-2.35,1.95a75.72,75.72,0,0,1-8.32,5.69,72,72,0,0,1-9,4.47c-1.2.48-2.18.85-2.86,1.08a5.61,5.61,0,0,1-1.07.32,7.65,7.65,0,0,1,1-.45c.67-.27,1.63-.67,2.81-1.18a84.27,84.27,0,0,0,8.95-4.54,89.09,89.09,0,0,0,8.35-5.59c1-.77,1.85-1.41,2.41-1.86A7,7,0,0,1,285.8,142.31Z"/><path class="cls-5" d="M265.45,157.5c-.08.06-.48-.35-.89-.9s-.69-1-.62-1.1.48.34.9.89S265.53,157.44,265.45,157.5Z"/><path class="cls-5" d="M269.48,155.79c-.05.08-.6-.23-1.12-.8s-.78-1.15-.69-1.2.45.42.95,1S269.54,155.71,269.48,155.79Z"/><path class="cls-5" d="M274.55,154.12c-.07.07-.63-.45-1.25-1.15a4.32,4.32,0,0,1-1-1.38c.07-.07.63.45,1.25,1.15A4.32,4.32,0,0,1,274.55,154.12Z"/><path class="cls-5" d="M280,151.23c-.08.07-.67-.53-1.33-1.33a5.24,5.24,0,0,1-1.07-1.56c.07-.07.67.53,1.33,1.33A5.24,5.24,0,0,1,280,151.23Z"/><path class="cls-5" d="M285,147.46c-.07.07-.7-.4-1.43-1.06s-1.26-1.24-1.19-1.31a4.8,4.8,0,0,1,1.43,1C284.57,146.8,285.1,147.39,285,147.46Z"/><circle class="cls-9" cx="331.96" cy="93.23" r="1.55" transform="translate(164.86 394.84) rotate(-76.7)"/><path class="cls-9" d="M328.86,91.25a4.3,4.3,0,0,1,6.22-.09.87.87,0,0,0,1.24-1.22,6.06,6.06,0,0,0-8.69.07c-.77.81.45,2,1.23,1.24Z"/><path class="cls-9" d="M323.59,84a12.73,12.73,0,0,1,8.33-3.34A12.38,12.38,0,0,1,340.41,84c.82.76,2.06-.46,1.24-1.23A14.15,14.15,0,0,0,331.93,79a14.57,14.57,0,0,0-9.57,3.84c-.85.73.38,2,1.23,1.24Z"/><path class="cls-9" d="M325.67,88a8.52,8.52,0,0,1,12.54-.18c.78.8,2-.43,1.24-1.23a10.28,10.28,0,0,0-15,.17c-.76.82.47,2.06,1.23,1.24Z"/></g></g></svg>