<svg xmlns="http://www.w3.org/2000/svg" viewBox="0 0 116.62 49.55"><defs><style>.cls-1{fill:#fff;}.cls-2{fill:#263d7e;}.cls-3{fill:#229bd4;}.cls-4{fill:#2a3f7f;}.cls-5{fill:#242f65;}</style></defs><title>Asset 70</title><g id="Layer_2" data-name="Layer 2"><g id="Layer_1-2" data-name="Layer 1"><rect class="cls-1" width="116.62" height="49.55" rx="8.75"/><path class="cls-2" d="M26.06,11.47c2.79.52,3.89,2.16,3.8,5.69a.35.35,0,0,0-.17,0,5.57,5.57,0,0,0-2.23-.78c-2.46-.06-4.93,0-7.39,0a1,1,0,0,0-1.17.94c-.26,1.71-.47,3.42-.73,5.13-.1.66-.63,1.44,0,2.16a4.51,4.51,0,0,0-.56,1.8,61.09,61.09,0,0,1-1.05,6H16a23.42,23.42,0,0,0-4.27-.08c-.48-.26-.38-.71-.32-1.13q1.16-7.16,2.33-14.32a13.19,13.19,0,0,0,.88-5.2v0c.19,0,.27-.06.19-.25l.07-.08a3.21,3.21,0,0,0,.73.17Z"/><path class="cls-3" d="M76.39,31.07c-.3,0-.6,0-.9,0-.81.05-1-.28-.89-1.08.6-3.62,1.11-7.25,1.72-10.87.55-3.23.58-3.22,3.91-3.22,1.16,0,2.31,0,3.46,0,3,.15,4.49,2,4,5-.56,3.34-2.63,5.1-6.11,5.18-2.47.05-2.47.05-2.9,2.46,0,.21-.1.41-.13.62C78.27,31.07,78.27,31.07,76.39,31.07Zm4.19-8a8.59,8.59,0,0,0,1-.07,2.26,2.26,0,0,0,2.07-2.57c-.11-1.18-.94-1.38-1.9-1.42-1.6-.07-1.62-.05-1.89,1.91a4.15,4.15,0,0,1-.11.88C79.35,22.84,79.76,23.19,80.58,23Z"/><path class="cls-4" d="M42,15.94a18.78,18.78,0,0,1,3.75.19,3.51,3.51,0,0,1,3,4.11c-.39,3.85-2.43,5.7-6.32,5.75a4.82,4.82,0,0,1-.76,0c-1.23-.16-1.86.33-1.85,1.61a4.67,4.67,0,0,1-.16.88c-.52,3,.13,2.53-3.28,2.58-.71,0-.86-.31-.75-1q1.05-6.49,2.05-13c.13-.81.48-1.2,1.34-1.15S40.81,15.94,42,15.94Zm.31,3c-.94-.24-1.34.3-1.4,1.29a13.15,13.15,0,0,1-.21,1.38c-.24,1.45-.21,1.49,1.3,1.41.21,0,.43,0,.64-.05a2.27,2.27,0,0,0,2-2.5C44.54,19.39,43.93,19,42.26,18.94Z"/><path class="cls-3" d="M29.69,17.2a.35.35,0,0,1,.17,0,4,4,0,0,1,1.93,4.38c-.66,4.78-2.9,6.79-7.74,6.89-1,0-1.49.37-1.61,1.37-.18,1.39-.47,2.77-.66,4.16-.12.92-.61,1.21-1.48,1.17a24,24,0,0,0-2.81,0c-1,0-1.33-.34-1.13-1.3a12.57,12.57,0,0,0,.16-1.39,61.09,61.09,0,0,0,1.05-6,4.51,4.51,0,0,1,.56-1.8c1.4-.5,2.86-.15,4.28-.26A7.56,7.56,0,0,0,29.69,17.2Z"/><path class="cls-3" d="M96.39,31.07c-.48-.22-1.31.46-1.62-.62-.13-.47-.49,0-.7.11a5.5,5.5,0,0,1-2.41.76c-3.1.09-4.79-1.57-4.71-4.68a5.92,5.92,0,0,1,8.67-5.22c.25.14.46.47.64-.05s.52-.37.86-.4c2.8-.2,2.81-.2,2.38,2.56-.29,1.9-.61,3.79-.93,5.68S98.26,31.07,96.39,31.07Zm-3.58-2.58a2.85,2.85,0,0,0,2.88-2.92,2,2,0,0,0-2.27-2,2.87,2.87,0,0,0-2.87,2.94C90.56,27.78,91.38,28.5,92.81,28.49Z"/><path class="cls-4" d="M57.31,31.05c-.5-.24-1.49.56-1.75-.72,0-.18-.56.21-.86.36-2.51,1.27-5.27.58-6.33-1.59A6.11,6.11,0,0,1,50,22.22a5.56,5.56,0,0,1,6.62-.69c.18.11.46.37.51.19.29-1.2,1.23-.68,1.89-.71,1.79-.06,1.8,0,1.52,1.72-.34,2.19-.68,4.38-1,6.57C59.21,31.05,59.21,31.05,57.31,31.05Zm-2.85-7.56a3,3,0,0,0-3,3,2.06,2.06,0,0,0,2.22,2.12,3,3,0,0,0,3-3A2.08,2.08,0,0,0,54.46,23.49Z"/><path class="cls-4" d="M67.35,26.62l3.14-4.57a4,4,0,0,1,3.86-1c.61.34.19.73,0,1.06-1.06,1.55-2.14,3.08-3.21,4.62l-4.75,6.84c-.59.84-3,1.46-3.89,1-.53-.3-.2-.65,0-1,.65-.94,1.3-1.9,2-2.81a1.41,1.41,0,0,0,.21-1.52c-.83-2.32-1.56-4.69-2.42-7-.38-1-.06-1.33.93-1.24a5.07,5.07,0,0,0,1,0,1.43,1.43,0,0,1,1.8,1.3C66.36,23.67,66.86,25,67.35,26.62Z"/><path class="cls-3" d="M102.18,31.07c-2.07,0-2.11,0-1.83-1.79.64-4,1.33-8.08,1.92-12.13.14-1,.47-1.38,1.45-1.26a10.93,10.93,0,0,0,1.28,0c.65,0,.94.23.83.93-.71,4.38-1.42,8.76-2.08,13.14C103.56,31.25,102.71,31.1,102.18,31.07Z"/><path class="cls-4" d="M26.06,11.47l-10.42,0a3.21,3.21,0,0,1-.73-.17c.18-.09.36-.28.54-.28a90.66,90.66,0,0,1,10,.19A3.14,3.14,0,0,1,26.06,11.47Z"/><path class="cls-4" d="M14.65,11.7a13.19,13.19,0,0,1-.88,5.2A31.56,31.56,0,0,1,14.65,11.7Z"/><path class="cls-2" d="M11.76,32.35a23.42,23.42,0,0,1,4.27.08A12.76,12.76,0,0,1,11.76,32.35Z"/><path class="cls-4" d="M14.84,11.42c.08.19,0,.26-.19.25C14.71,11.59,14.77,11.5,14.84,11.42Z"/><path class="cls-5" d="M29.69,17.2a7.56,7.56,0,0,1-7.28,7.16c-1.42.11-2.88-.24-4.28.26-.59-.72-.06-1.5,0-2.16.26-1.71.47-3.42.73-5.13a1,1,0,0,1,1.17-.94c2.46,0,4.93,0,7.39,0A5.57,5.57,0,0,1,29.69,17.2Z"/></g></g></svg>