<svg xmlns="http://www.w3.org/2000/svg" viewBox="0 0 37.99 42.45"><defs><style>.cls-1{fill:#fee178;}.cls-2{fill:#feb354;}.cls-3{fill:#d7225b;}.cls-4{fill:#dc5958;}.cls-5{fill:#fe7d47;}.cls-6{fill:#d9e6fb;}.cls-7{fill:#ebf1fe;}</style></defs><title>Asset 19</title><g id="Layer_2" data-name="Layer 2"><g id="Layer_1-2" data-name="Layer 1"><path class="cls-1" d="M11.12,37.52A1.21,1.21,0,0,0,9.92,37c-1.33,0-2.66,0-4,0a5.53,5.53,0,0,1-5.37-3.2A4.93,4.93,0,0,1,1.61,27.9a1,1,0,0,1,.18-.17c3.19-1.95,3.65-5,4-8.14.4-3.85.89-7.68,1.54-11.5C8.09,3.51,13-.14,17.86,0a1.88,1.88,0,0,1,.41,1.57c-.07,11.26.06,22.53,0,33.79,0,1.77-.3,2-2.27,2.05C14.37,37.44,12.74,37.4,11.12,37.52Z"/><path class="cls-2" d="M11.12,37.52c.13-.63.67-.49,1.12-.49,1.33,0,2.66-.08,4,0s1.67-.22,1.66-1.47c-.06-11.34,0-22.68,0-34,0-.52,0-1,0-1.54A10.53,10.53,0,0,1,26.1,3.5c-.25.45-.75.49-1.18.64-4.66,1.55-7.19,5.5-6.4,10,.73,4.2,4.68,7.27,9.48,7.36.81.09,1.65-.3,2.45.11a5.28,5.28,0,0,0,2.12,4.72,7.85,7.85,0,0,1,3.12,4.08,5.56,5.56,0,0,1-5.38,6.66c-1.37,0-2.74,0-4.11,0a2.57,2.57,0,0,0-1.37.2,2.93,2.93,0,0,1-1.84.37c-1.07,0-2.14,0-3.21,0-1.41,0-1.49.1-1.52,1.44,0,.68,0,1.35,0,2a1.67,1.67,0,0,1-.39,1.33A6.81,6.81,0,0,1,11.12,37.52Z"/><path class="cls-3" d="M30.45,21.6a7.75,7.75,0,0,1-2.54.18c-.81-1.43-.59-4,.42-5a1.67,1.67,0,0,0,.7-1.45c0-1.82,0-3.64,0-5.45,0-1-.77-1.42-1.35-2a8.25,8.25,0,0,1-.17-3.63c.12-1.25,1.15-.84,2-.79A9.31,9.31,0,0,1,38,12.91C37.84,17.07,35.27,20,30.45,21.6Z"/><path class="cls-4" d="M28.64,17.1a1.09,1.09,0,0,0-.77,1.17c.07,1.16,0,2.34,0,3.51-4.95.2-9.65-3.93-9.84-8.48a8.73,8.73,0,0,1,3.17-7.54A10.69,10.69,0,0,1,26.1,3.5c1.13,0,2.25-.48,3.39,0-1.38-.19-1.74.42-1.62,1.59a28.42,28.42,0,0,1,0,2.92l-.12.15c-.62.35-1.33.16-2,.27s-1.06.22-1.1.8.49.79,1,.84a1.52,1.52,0,0,1,1.54,1.78c0,1.18,0,2.36,0,3.53,0,.53,0,1.15.73,1.35A1,1,0,0,1,28.64,17.1Z"/><path class="cls-5" d="M17.86,42.44c0-1.34,0-2.69,0-4,0-.86.21-1.21,1.21-1.18,1.93.07,3.86,0,5.79,0A6.76,6.76,0,0,1,17.86,42.44Z"/><path class="cls-6" d="M28.64,17.1l-.76,0a1.59,1.59,0,0,1-.41-1.2q0-3.3,0-6.58a1.41,1.41,0,0,1,.43-1.19l0-.09c1.09.06,1.59.57,1.57,1.6,0,2.05,0,4.1,0,6.15A1.33,1.33,0,0,1,28.64,17.1Z"/><path class="cls-7" d="M27.9,8.09l0,9c-.9,0-1.09-.62-1.1-1.31,0-1.38,0-2.76,0-4.14,0-.78-.17-1.19-1.12-1.12s-1.53-.37-1.51-1.23S24.82,8,25.72,8Z"/></g></g></svg>