<svg xmlns="http://www.w3.org/2000/svg" viewBox="0 0 36.46 33.64"><defs><style>.cls-1{fill:#85d9f0;}.cls-2{fill:#03a96f;}</style></defs><title>Asset 15</title><g id="Layer_2" data-name="Layer 2"><g id="Layer_1-2" data-name="Layer 1"><path class="cls-1" d="M31.36,5.27A9.45,9.45,0,0,1,34,8.64c.11.42-.29.44-.54.54A9.69,9.69,0,0,1,27,9.73a2.1,2.1,0,0,1-1.34-.93A1.69,1.69,0,0,0,23.94,8c-.51,0-1,0-1.53,0-1.6,0-2.6,1-2.38,2.48.49,3.11,0,2.46,3,3.72a4.73,4.73,0,0,0,2.95.29c1.88-.43,3.22.58,3.24,2.33a3.83,3.83,0,0,0,.52,2c.47.8.85,1.64,1.33,2.44a4.66,4.66,0,0,1,.81,2.95,1.59,1.59,0,0,0,.63,1.42,2.07,2.07,0,0,1,.71.79A18,18,0,0,1,20.38,33.5,18.55,18.55,0,0,1,4.72,28.14,15.42,15.42,0,0,1,.15,18.92,15.11,15.11,0,0,1,1,11.36c.1-.29.11-.63.44-.82.54.13.58.6.66,1a4,4,0,0,0,2.32,2.77c.71.38,1.56.67,1.92,1.46a1,1,0,0,1-.31.58A2.81,2.81,0,0,0,7.93,20.9l.6.11c1.14.24,1.3.42,1.32,1.54,0,1.29,0,2.57,0,3.85a6.81,6.81,0,0,0,.95,3.13,1,1,0,0,0,.56.53c.41.17.85.16.75-.35-.3-1.66.73-2.54,2.06-3.31a1.07,1.07,0,0,0,.61-1A2.51,2.51,0,0,1,16,23.14a4.31,4.31,0,0,0,1.67-2.91c.08-.53-.08-.83-.67-.76A2.2,2.2,0,0,1,14.58,18a2.28,2.28,0,0,0-2.65-1.4c-.27,0-.55,0-.82,0a2.16,2.16,0,0,1-2.6-1.42c-.22-.64-.61-.65-1.1-.17-.29.28-.57.65-1.09.58a.75.75,0,0,1-.22-.42,4,4,0,0,0-1.22-2.86C4,11.37,4.67,10.26,6,10a12.5,12.5,0,0,1,1.71-.22A8.58,8.58,0,0,0,12.05,8a5.3,5.3,0,0,0,1.42-1.93,3,3,0,0,1,1.87-1.48A1.3,1.3,0,0,0,16,4.24c.58-.62.43-1.07-.44-1.21A7.73,7.73,0,0,1,11.7,1.77c-.18-.14-.4-.24-.49-.46a19.28,19.28,0,0,1,15.26.55,5.57,5.57,0,0,1-3.62,1.42,1.92,1.92,0,0,0-2.13,1.49c-.11.33.07.36.3.45a2.62,2.62,0,0,0,1.87.09A4.56,4.56,0,0,1,26,5.37a27,27,0,0,0,3,.61,1.63,1.63,0,0,0,1.23-.32C30.52,5.45,30.86,5.15,31.36,5.27Z"/><path class="cls-2" d="M33.21,26.39c-1.06-.59-1.9-1.29-1.68-2.6a2.83,2.83,0,0,0-.49-2c-.47-.79-.83-1.64-1.33-2.42a4.88,4.88,0,0,1-.8-3,2,2,0,0,0-2.41-1.7c-2.37.86-4.11-.59-6.07-1.26-.45-.15-.35-.65-.43-1-.19-.85-.28-1.72-.41-2.58,0-.22-.1-.45.1-.62.85-.76,1.5-1.83,3-1.56a4.16,4.16,0,0,0,1.22,0,1.67,1.67,0,0,1,1.94,1c.27.57.78.72,1.41.89A9.61,9.61,0,0,0,34,8.64a12.31,12.31,0,0,1,2.18,5.47A15.43,15.43,0,0,1,33.21,26.39Z"/><path class="cls-2" d="M11.21,1.31a11.19,11.19,0,0,0,5.21,1.55c.28,0,.45.13.34.5-.24.78-.45,1.49-1.52,1.58a1.56,1.56,0,0,0-1.32,1,7.49,7.49,0,0,1-4,3.63,13.59,13.59,0,0,1-3,.57c-.32.07-.66.09-1,.15-.94.17-1.56,1.38-.83,1.94,1.24,1,1.2,2.13,1.19,3.37h0A3.72,3.72,0,0,0,6,15.43C3.73,14.37,1.9,13,1.46,10.54a3.73,3.73,0,0,1,.81-1.88A17.93,17.93,0,0,1,11.21,1.31Z"/><path class="cls-2" d="M31.36,5.27c-1.78,1.65-3.74.78-5.63.29a3.68,3.68,0,0,0-2.34-.1,3.5,3.5,0,0,1-3.16-.31c.3-.56.63-1.15.94-1.75.11-.21.26-.42.52-.37,1.8.31,3.25-.56,4.78-1.17A15.93,15.93,0,0,1,31.36,5.27Z"/><path class="cls-2" d="M6.3,15.63c.47-.4,1-.79,1.4-1.21s.59-.38.71.09c.46,1.87,1.91,2.1,3.61,1.85a2.22,2.22,0,0,1,2.73,1.45,2.16,2.16,0,0,0,2.67,1.4c.56-.1.71.08.64.68a5.29,5.29,0,0,1-2.33,3.87,1.38,1.38,0,0,0-.66,1.46,1.22,1.22,0,0,1-.81,1.45c-.12,0-.19.18-.31.23a2.29,2.29,0,0,0-1.5,2.74c0,.3.26.93-.25.92s-1.32,0-1.58-.66c-.51-1.2-1.23-2.34-1.13-3.74s0-2.57,0-3.85c0-.71-.32-.94-1-1a1.27,1.27,0,0,1-.2,0c-.75-.24-1.77,0-2.23-.69a4.73,4.73,0,0,1-1.08-3.42c.13-.73.95-.94,1.24-1.54Z"/></g></g></svg>