<svg xmlns="http://www.w3.org/2000/svg" viewBox="0 0 56.84 74.26"><defs><style>.cls-1{fill:#1e94d2;}</style></defs><title>Asset 44</title><g id="Layer_2" data-name="Layer 2"><g id="Layer_1-2" data-name="Layer 1"><path class="cls-1" d="M0,27c0-4.08,0-8.16,0-12.24,0-2.28.7-3,3-3A32.63,32.63,0,0,0,25.64,1.89C28.18-.61,28.57-.62,31,1.81a32.52,32.52,0,0,0,22.84,9.84c1.88,0,2.89.85,2.87,2.74-.08,8.51.5,17.09-.41,25.51C54.51,56.57,45.21,68,29.61,74.08a4.58,4.58,0,0,1-3-.16A41,41,0,0,1,0,35.88c0-3,0-6,0-8.93ZM28.36,56.67A19.58,19.58,0,1,0,8.74,37.14,19.63,19.63,0,0,0,28.36,56.67Z"/><path class="cls-1" d="M13.15,37.13A15.23,15.23,0,1,1,28.28,52.38,15.26,15.26,0,0,1,13.15,37.13Zm12.14,4.39c-1.41-1.54-2.66-3-4-4.38a2.16,2.16,0,1,0-3,3.08C20.1,42.1,22,44,23.83,45.79a2.14,2.14,0,0,0,3.3,0q5.75-5.7,11.43-11.45c1-1,1.1-2.32-.07-3-.71-.44-2-.18-2.93,0-.52.12-.91.81-1.35,1.25C31.34,35.46,28.46,38.34,25.29,41.52Z"/></g></g></svg>