<svg xmlns="http://www.w3.org/2000/svg" viewBox="0 0 35.44 32.76"><defs><style>.cls-1{fill:#d53a2f;}.cls-2{fill:#f34336;}.cls-3{fill:#556d79;}.cls-4{fill:#5f7c8a;}.cls-5{fill:#d9d9d9;}.cls-6{fill:#f9f9f9;}.cls-7{fill:#f9f8f8;}.cls-8{fill:#d9d8d8;}.cls-9{fill:#f34437;}.cls-10{fill:#f6f2f2;}.cls-11{fill:#d33a2f;}</style></defs><title>Asset 18</title><g id="Layer_2" data-name="Layer 2"><g id="Layer_1-2" data-name="Layer 1"><path class="cls-1" d="M17.84,32.72C10.06,33.11,2.38,27.63.51,20.37-1.81,11.31,4,2.49,13.81.44A18.19,18.19,0,0,1,28,3.1l1.25.83a2.85,2.85,0,0,1-2,1.79A34.28,34.28,0,0,1,24,4.14,16,16,0,0,0,17.86,2.8C9.39,2.79,2.58,9.25,3,17.05c.34,6.37,5.47,12.2,13.65,13,.5,0,1.06,0,1.4.45A2.33,2.33,0,0,1,17.84,32.72Z"/><path class="cls-2" d="M17.84,32.72V30.37c.36-.42.93-.26,1.38-.45,7.28-.69,12.42-6,13.16-11.92a12.82,12.82,0,0,0-2.29-9,8.05,8.05,0,0,1-.92-1.4,2.3,2.3,0,0,1,2-1.83,15.65,15.65,0,0,1,4.23,11.08c-.14,7.69-6.52,14.45-14.77,15.66A10.74,10.74,0,0,1,17.84,32.72Z"/><path class="cls-3" d="M30,3.36c.31.39.07.94.46,1.31A25.75,25.75,0,0,1,26.9,8.4c-2.83,2.78-5.82,5.43-8.75,8.12-.38.35-.7.81-1.35.79a1.22,1.22,0,0,1-.27-1.95,11.44,11.44,0,0,1,1.55-1.48c.65-.63,1.33-1.23,2-1.86.89-.79,1.75-1.6,2.62-2.41C23.33,9,24,8.44,24.6,7.85c.95-.7,1.53-1.8,2.77-2.19l1.9-1.73Z"/><path class="cls-4" d="M16.83,17.22a28.66,28.66,0,0,0,3.25-2.86c3.19-2.93,6.4-5.83,9.43-8.9a8.35,8.35,0,0,1,1-.79h.2c.38.34.89.22,1.33.31l-.8.82a9.49,9.49,0,0,0-1.89,1.74C28.76,8.54,27.65,9.1,27,10a10.38,10.38,0,0,0-1.92,1.76A28.74,28.74,0,0,0,22.52,14c-.75.66-1.47,1.34-2.19,2S19,17.7,17.78,17.85C17.35,17.79,16.93,17.71,16.83,17.22Z"/><path class="cls-5" d="M19.33,30.17c-.47.25-1,.06-1.49.2C11.49,30.12,6.74,27.5,4,22.15-.16,13.88,5.5,4.18,15.26,2.68a11.86,11.86,0,0,1,2.59-.15c.62,1,.34,2,.25,3a.94.94,0,0,1-.19.32c-1.27.52-2.69.48-4,.91-5.93,1.92-9,8.4-6.42,13.7C9.19,24,12.12,26,16.2,26.61a6.32,6.32,0,0,1,1.61.33.75.75,0,0,1,.24.26,1.7,1.7,0,0,1,.13.94A1.68,1.68,0,0,0,19.33,30.17Z"/><path class="cls-6" d="M17.84,5.76c0-1.08,0-2.15,0-3.23a15.88,15.88,0,0,1,9.52,3.13A22.31,22.31,0,0,1,24.79,8,1,1,0,0,1,24,7.88a12.7,12.7,0,0,0-5.35-1.77A1.13,1.13,0,0,1,17.84,5.76Z"/><path class="cls-6" d="M19.33,30.17c-1.23.14-1.67-.37-1.5-1.47a10.94,10.94,0,0,0,0-1.62c.49-.46,1.17-.39,1.78-.5,8-1.44,11.79-9.29,7.57-15.71-.2-.31-.52-.58-.38-1a16.48,16.48,0,0,1,2.51-2.35c5.18,6.28,4.58,14-1.58,19.24A14.16,14.16,0,0,1,19.33,30.17Z"/><path class="cls-2" d="M17.84,5.76A12.16,12.16,0,0,1,24.78,8L22.9,9.77c-.74.13-1.21-.41-1.81-.62A17.6,17.6,0,0,0,19,8.62c-.42-.16-.95-.09-1.26-.49a2.29,2.29,0,0,1,.16-2.29Z"/><path class="cls-7" d="M19.08,8.39A7.85,7.85,0,0,1,22.9,9.77a19,19,0,0,1-2.59,2.4,3.79,3.79,0,0,1-2.65-.85,3.6,3.6,0,0,1-.19-1.69C17.51,8.37,17.67,8.25,19.08,8.39Z"/><path class="cls-8" d="M16.83,17.22a1.7,1.7,0,0,0,1,.42,2.41,2.41,0,0,1,.54,1.18.61.61,0,0,1-.62.32c-1.83-.31-2.69-1-2.84-2.29-.22-1.81.81-2.92,3-3.17.2,0,.4.1.45.32-.48.47-1,.93-1.44,1.42S16.12,16.6,16.83,17.22Z"/><path class="cls-9" d="M18.34,14l-.51-.12a2.4,2.4,0,0,1-.14-2.28l.15-.14a5.6,5.6,0,0,1,2.47.71Z"/><path class="cls-2" d="M26.81,9.88c2.71,3.38,3.28,7.06,1.4,10.89s-5.38,5.94-10,6.26l-.35,0,0-.09a2.26,2.26,0,0,1-.18-2.26c.25-.35.68-.37,1.05-.49,4.33-.77,6.71-2.95,7.46-6.87a7.12,7.12,0,0,0-.86-4.55c-.19-.38-.59-.71-.41-1.2A7.15,7.15,0,0,1,26.81,9.88Z"/><path class="cls-6" d="M24.92,11.62C28.46,16.54,26,22.79,20,24.29a9.14,9.14,0,0,1-1.17.16c-.93.29-1.3-.12-1.33-.93a5.64,5.64,0,0,1,.11-1.92c.24-.55.83-.6,1.35-.75,3-.91,4.3-3.11,3.48-5.94a1.51,1.51,0,0,1-.09-1A16.37,16.37,0,0,1,24.92,11.62Z"/><path class="cls-2" d="M22.34,14c1.89,3.52,0,6.6-4.49,7.41-.33.18-.62.23-.77-.19.59-.65.21-1.58.76-2.25l.5-.18c1-.75,1.91-1.56,1.93-2.88A12.16,12.16,0,0,1,22.34,14Z"/><path class="cls-10" d="M20.27,15.86c.34,1.42-.32,2.41-1.93,2.88-.75-.14-.43-.69-.49-1.1C18.92,17.35,19.38,16.36,20.27,15.86Z"/><path class="cls-11" d="M17.84,24.67c0,.77,0,1.54,0,2.32A11.29,11.29,0,0,1,6.57,18.85c-1.75-6.62,4-13.3,11.28-13,0,.78,0,1.56,0,2.33a2.85,2.85,0,0,1-1.65.53c-4.07.79-7,4-7,7.61,0,3.85,2.87,7,7.05,7.84C16.76,24.26,17.39,24.22,17.84,24.67Z"/><path class="cls-5" d="M17.84,24.67c-4.06-.28-7.08-2-8.47-5.59-2-5.17,1.89-10.38,8-10.86l.47-.05c.4.11.86-.06,1.24.22-1-.1-1.38.32-1.25,1.24a14,14,0,0,1,0,1.83v.08a4.39,4.39,0,0,1-1.43.48,4.72,4.72,0,0,0-3.68,4.2,4.75,4.75,0,0,0,3.4,4.53c.32.11.71.11.92.43l.79.18c0,.72,0,1.44,0,2.15s.27,1,1,.94Z"/><path class="cls-11" d="M17.06,21.18a4.91,4.91,0,0,1-4.63-5,5.16,5.16,0,0,1,5.42-4.6c0,.78,0,1.56,0,2.34-1.32.28-2.48.74-2.65,2.2s.56,2.31,2.66,2.84c0,.52,0,1,0,1.54S17.56,21.16,17.06,21.18Z"/></g></g></svg>