<svg xmlns="http://www.w3.org/2000/svg" viewBox="0 0 47.08 33.48"><defs><style>.cls-1{fill:#00a963;}.cls-2{fill:#00dc7f;}</style></defs><title>Asset 21</title><g id="Layer_2" data-name="Layer 2"><g id="Layer_1-2" data-name="Layer 1"><path class="cls-1" d="M23.43,0a32.76,32.76,0,0,1,23.32,9c.52.49.36.75-.09,1.15-1.11,1-2.23,2-3.26,3-.61.62-.95.52-1.53,0A26,26,0,0,0,28.4,6.44a19.42,19.42,0,0,0-3.66-.38C23.06,5.87,23,5.82,23,4.18c0-1,0-1.94,0-2.92A1.52,1.52,0,0,1,23.43,0Z"/><path class="cls-2" d="M23.43,0c0,1.41.06,2.81,0,4.21-.06,1,.1,1.71,1.34,1.82A26.52,26.52,0,0,0,5,13.32c-.37.35-.54.57-1,.13C2.77,12.3,1.56,11.16.31,10.08c-.66-.57-.12-.83.23-1.16A32.13,32.13,0,0,1,18.05.46,24.23,24.23,0,0,1,23.43,0Z"/><path class="cls-1" d="M23.43,8.59a23.21,23.21,0,0,1,16.75,6.53c.54.49.34.78-.1,1.17-1.14,1-2.29,2-3.35,3.12-.59.59-.92.49-1.43-.05a15.17,15.17,0,0,0-8-4.27c-1.19-.27-2.43-.32-3.64-.47-.2-.1-.44-.19-.47-.4C23,12.34,22.61,10.45,23.43,8.59Z"/><path class="cls-2" d="M23.43,8.59c0,1.58,0,3.16,0,4.74a2,2,0,0,0,.27,1.29,16.69,16.69,0,0,0-12.2,5c-.31.32-.5.36-.84.05-1.23-1.16-2.47-2.33-3.74-3.46-.69-.61-.08-.94.28-1.28A22.84,22.84,0,0,1,17.44,9.32,19.81,19.81,0,0,1,23.43,8.59Z"/><path class="cls-1" d="M25.57,17.33a13.41,13.41,0,0,1,8.07,4c.32.32.4.56,0,.91-1.24,1.1-2.45,2.22-3.66,3.35-.33.31-.6.42-1,0a8.5,8.5,0,0,0-5.59-2.44A1.8,1.8,0,0,1,23,21.69c0-.77,0-1.55,0-2.32C23,17.14,23.12,17,25.57,17.33Z"/><path class="cls-2" d="M25.57,17.33c-2.15.05-2.15.05-2.15,2.06,0,1.26,0,2.52,0,3.78a8,8,0,0,0-5.25,2.28c-.43.44-.73.45-1.17,0q-1.71-1.63-3.48-3.19c-.36-.32-.35-.56-.08-.93C15.44,18.6,22.19,16.35,25.57,17.33Z"/><path class="cls-1" d="M23.41,25.89a3.82,3.82,0,1,1,0,7.57c-.08-.14-.05.06-.08-.09A14.48,14.48,0,0,1,23.41,25.89Z"/><path class="cls-2" d="M23.41,25.89c0,2.53,0,5.05,0,7.57-2.58-.21-4.1-1.71-4-4A3.79,3.79,0,0,1,23.41,25.89Z"/></g></g></svg>