<svg xmlns="http://www.w3.org/2000/svg" viewBox="0 0 71.84 106.45"><defs><style>.cls-1{fill:#f6921e;}</style></defs><title>Asset 60</title><g id="Layer_2" data-name="Layer 2"><g id="Layer_1-2" data-name="Layer 1"><path class="cls-1" d="M15.53,103l1,.29c1.34.37,3.63-.85,3.55,1.7,0,.52-2.48,1.29-3.85,1.35-3.85.19-7.72.11-11.59,0-3.09,0-4.57-1.47-4.59-4.56C0,91-.08,80.22.11,69.43c.1-5.9,3.25-10.1,8.68-12.36s10.69-4.17,16-6.27c2.47-1,2.87-3.46,1.33-5.63-1.79-2.53-3.18-5.34-4.85-8a4.38,4.38,0,0,0-1.9-1.52c-4.15-1.77-5.31-5.26-3.76-9.46.85-2.3.77-5,.85-7.51A19.27,19.27,0,0,1,31.28.53c12.29-2.84,23.36,6,23.92,19a46.74,46.74,0,0,0,1.22,8.05,7,7,0,0,1-4,8.1,7.73,7.73,0,0,0-2.53,2.72c-1.3,2-2.22,4.2-3.69,6-2.41,2.92-2,5.38,1.47,6.74,5,1.94,10,3.85,14.92,5.82A13.67,13.67,0,0,1,71.8,70.17c0,3.17.11,6.34-.07,9.5,0,.79-1,1.53-1.61,2.29-.5-.75-1.38-1.47-1.42-2.24-.17-3.06,0-6.14-.1-9.21-.1-5.58-2.38-8.87-7.53-10.89-3.2-1.26-6.42-2.47-9.84-3.78-1.39,2.74-2.76,5.36-4,8C46,66.31,44.75,68.43,41,65.94a20.79,20.79,0,0,0-.27,4.15c1.21,7.62,2.39,15.25,3.9,22.82.59,3,.1,5.17-2.2,7.11a29.25,29.25,0,0,0-2.77,3.15H56.33V99.92c0-8.42,0-16.84,0-25.26,0-1.33-.7-3.38,1.61-3.36.49,0,1.37,2.1,1.38,3.24.12,8.42.07,16.84.07,25.26v2.92c.37.33.44.44.52.45,8.67,1,8.67,1,8.67-7.54,0-2.38-.1-4.77.1-7.13.06-.78.93-1.49,1.43-2.23.56.78,1.56,1.54,1.59,2.33.15,4.56.14,9.12,0,13.67a3.82,3.82,0,0,1-4.14,4.1q-20.35.07-40.71,0c-.74,0-1.46-.93-2.2-1.42.79-.53,1.52-1.37,2.37-1.52a32,32,0,0,1,5.12-.07c-1.48-1.73-2.83-2.89-3.63-4.35S27,95.73,27.2,94.24c1.15-8.13,2.61-16.21,4-24.31.35-2.12.52-3.84-2.73-3-.83.22-2.51-1-3.1-2-1.73-2.86-3.1-5.93-4.71-9.14-4,1.57-7.91,2.9-11.63,4.66a9.22,9.22,0,0,0-5.61,8.48c-.14,10.8-.13,21.59,0,32.39,0,.67,1.31,1.79,2.11,1.89a58.61,58.61,0,0,0,7,.09V100c0-8.62,0-17.24.07-25.85,0-1,.93-2,1.44-3.06.52,1,1.49,2,1.51,3,.12,8.52.07,17,.07,25.56Zm8.69-78c0,2.92-.25,6.58.06,10.2A11.48,11.48,0,0,0,36.22,45.64,11.64,11.64,0,0,0,47.41,34c0-2.57-.23-5.18.06-7.72a7,7,0,0,0-3.18-6.81Zm-4.47-2.34c1.86-.67,3.5-1.75,5.16-1.78a31.32,31.32,0,0,0,16.37-4.58c2.09-1.3,3.68-1,5.19.81s3.25,3.75,4.91,5.66C53.07,17.67,50.91,11.05,46.3,7A16.28,16.28,0,0,0,28.24,5C21.94,8.25,19,14.43,19.75,22.65Zm16.18,79.78a41.32,41.32,0,0,0,4.23-4.71,6.63,6.63,0,0,0,1.26-4.17c-1.05-7.34-2.33-14.65-3.68-21.94-.17-.87-1.25-1.56-1.91-2.33-.59.74-1.55,1.42-1.7,2.24q-2,11.24-3.8,22.52A4.27,4.27,0,0,0,31,97C32.44,98.86,34.16,100.51,35.93,102.43ZM30,48.3c0,4.24,3.91,6.12,6,9.68,1.76-3.79,6.17-5.46,5.57-9.68ZM43.66,63.77c.85-1.67,1.61-3.14,2.35-4.61l2.61-5.29c-2.35,0-4.42-.63-5.41.14-1.93,1.5-3.26,3.78-5,5.93ZM23.74,54.91l2.19,4.38,2.28,4.51,5.38-3.87c-1.21-1.53-2.23-2.83-3.26-4.12C27.81,52.67,27.81,52.67,23.74,54.91ZM50.66,32.5l.94.41c.62-1.3,1.72-2.6,1.73-3.91,0-1-1.34-2.05-2.08-3.08l-.59.48Zm-12,32c-2.89-2.85-3-2.85-5.53.17C35,66.71,37.18,66.64,38.69,64.52Zm-18-38.08-.76-.38c-.66,1.15-1.84,2.3-1.83,3.45s1.23,2.22,1.92,3.33l.67-.4Z"/></g></g></svg>