<svg xmlns="http://www.w3.org/2000/svg" viewBox="0 0 304.69 259.61"><defs><style>.cls-1,.cls-2,.cls-3{fill:none;stroke:#bbbdbf;stroke-linecap:round;stroke-miterlimit:10;stroke-width:3px;}.cls-2{stroke-dasharray:4.82 4.82 4.82 4.82;}.cls-3{stroke-dasharray:4.82 4.82 4.82 4.82 4.82 4.82;}.cls-4{fill:#f6921e;}.cls-5{fill:#fff;}</style></defs><title>Asset 8</title><g id="Layer_2" data-name="Layer 2"><g id="Layer_1-2" data-name="Layer 1"><line class="cls-1" x1="1.5" y1="258.11" x2="4" y2="258.11"/><line class="cls-2" x1="8.82" y1="258.11" x2="25.69" y2="258.11"/><path class="cls-3" d="M28.1,258.11H75.16a64.32,64.32,0,0,0,64.32-64.32V26.12"/><line class="cls-1" x1="139.48" y1="23.71" x2="139.48" y2="21.21"/><line class="cls-1" x1="303.19" y1="258.11" x2="300.69" y2="258.11"/><line class="cls-2" x1="295.87" y1="258.11" x2="279" y2="258.11"/><path class="cls-3" d="M276.59,258.11h-47a64.31,64.31,0,0,1-64.32-64.32V26.12"/><line class="cls-1" x1="165.22" y1="23.71" x2="165.22" y2="21.21"/><circle class="cls-4" cx="151.35" cy="47.74" r="47.74"/><path class="cls-5" d="M151.12,52.72c-4,0-7.67,0-11.38,0-5.87-.08-10.44-3.54-11.82-8.86A11.85,11.85,0,0,1,139,29l1.23-.08A9.53,9.53,0,0,1,143.62,21a9.3,9.3,0,0,1,5.95-2.22c4.94-.11,8.22,2.93,9.75,9.08,2.27-.31,4.56-.28,6.57,1.09a8.22,8.22,0,0,1,3.57,5.76,9.14,9.14,0,0,1,7.26,5,8.87,8.87,0,0,1-7.55,13c-4.37.16-8.75,0-13.13,0h-1.89c0,1.82,0,3.53,0,5.25,0,.24.5.45.74.7.93.95,1.84,1.93,2.8,2.85.32.31.75.71,1.14.72,2.4.06,4.8.08,7.2,0a1.92,1.92,0,0,0,1.24-1,5.67,5.67,0,0,1,6.17-2.94,5.6,5.6,0,0,1,4.42,5.34,5.67,5.67,0,0,1-4.06,5.48,5.38,5.38,0,0,1-6.41-2.83,1.7,1.7,0,0,0-1.84-1.08c-2.12,0-4.23,0-6.35,0a1.49,1.49,0,0,0-1.63,1,5.18,5.18,0,0,1-4.95,3.14,5.47,5.47,0,0,1-5.09-3.19,1.91,1.91,0,0,0-1.33-.84c-2.21-.09-4.42,0-6.64-.06a1.6,1.6,0,0,0-1.73,1,5.47,5.47,0,0,1-7.18,2.64,5.6,5.6,0,1,1,4.67-10.18,4.88,4.88,0,0,1,2.53,2.62,1.46,1.46,0,0,0,1.62,1c2.21,0,4.42,0,6.63,0a1.59,1.59,0,0,0,1.53-.89,10.12,10.12,0,0,1,2.6-2.62,1.59,1.59,0,0,0,.88-1.53C151.09,55.8,151.12,54.35,151.12,52.72Zm15.26-15a8,8,0,0,1,.05-.88,5,5,0,0,0-2.38-5.58c-2.12-1.25-4.14-.84-6,.69-.51.42-1.08.77-1.86,1.31,0-2,.08-3.74,0-5.43a6.43,6.43,0,0,0-6.65-6.11,6.56,6.56,0,0,0-6.33,6.48c0,1.17,0,2.34,0,3.8-1.7,0-3.3-.13-4.87,0a8.76,8.76,0,0,0-7.83,9.12,9,9,0,0,0,9.37,8.61c9.41,0,18.82,0,28.23,0a8.18,8.18,0,0,0,1.4-.12,6,6,0,0,0,5.27-6.12,6.06,6.06,0,0,0-6.12-5.79Zm-11.13,26a2.68,2.68,0,0,0-2.65-2.58A2.64,2.64,0,0,0,150,63.77a2.58,2.58,0,0,0,2.63,2.55A2.61,2.61,0,0,0,155.25,63.74Zm-22.52,2.57a2.57,2.57,0,0,0,2.8-2.55,2.63,2.63,0,0,0-2.6-2.6,2.58,2.58,0,0,0-.2,5.15Zm42.16-2.58a2.59,2.59,0,1,0-5.18.05,2.54,2.54,0,0,0,2.62,2.54A2.51,2.51,0,0,0,174.89,63.73Z"/></g></g></svg>