<svg xmlns="http://www.w3.org/2000/svg" viewBox="0 0 418.52 270.27"><defs><style>.cls-1{fill:#1ca9ea;}.cls-2{fill:#c9e8f9;}.cls-3{fill:#009dd5;}.cls-4{fill:#76bde9;}.cls-5{fill:#fff;}.cls-6{fill:#ffb584;}.cls-7{fill:#0065b7;}.cls-8{fill:#3c4f77;}.cls-9{fill:#e29d74;}.cls-10{fill:#fbb486;}.cls-11{fill:#00436b;}.cls-12{fill:#9fdbf9;}.cls-13{fill:#0082e0;}</style></defs><title>Asset 6 (2)</title><g id="Layer_2" data-name="Layer 2"><g id="Layer_1-2" data-name="Layer 1"><g id="servers"><path class="cls-1" d="M370.74,247.24a3.47,3.47,0,0,0,0-2.91V220.81H0v27.08H.68c8.1,12.54,87.77,22.38,184.85,22.38s176.75-9.84,184.85-22.38h.36Z"/><ellipse class="cls-2" cx="185.53" cy="221.3" rx="185.53" ry="24.49"/><polygon class="cls-3" points="271.9 20.25 271.9 230.31 224.54 213.34 227.88 36.08 271.9 20.25"/><path class="cls-4" d="M327.63,217.5,271.9,230.31V20.25a133.06,133.06,0,0,1,55.73,8.35Z"/><path class="cls-2" d="M324.28,203l-47.92,7.24V28.05a175.19,175.19,0,0,1,47.36,6.68Q324,118.88,324.28,203Z"/><path class="cls-4" d="M309.73,40.25c0,4.09-3,7.13-6.69,6.78s-6.78-4-6.78-8.15,3.05-7.17,6.78-6.76S309.73,36.17,309.73,40.25Z"/><path class="cls-5" d="M303.62,47.54c-.21,0-.41,0-.62,0-4-.37-7.22-4.24-7.22-8.63a7.59,7.59,0,0,1,2.38-5.67,6.31,6.31,0,0,1,4.94-1.57c3.92.43,7.12,4.29,7.12,8.61a7.59,7.59,0,0,1-2.35,5.64A6.23,6.23,0,0,1,303.62,47.54Zm-1.24-15a5.25,5.25,0,0,0-3.57,1.37,6.57,6.57,0,0,0-2.06,4.94c0,3.9,2.84,7.34,6.34,7.67a5.34,5.34,0,0,0,4.12-1.37,6.6,6.6,0,0,0,2-4.93c0-3.84-2.81-7.27-6.26-7.65C302.79,32.58,302.58,32.57,302.38,32.57Z"/><polygon class="cls-3" points="317.66 61.76 283.84 59.04 283.84 52.36 317.66 55.31 317.66 61.76"/><polygon class="cls-3" points="317.59 76.43 283.91 74.23 283.91 66.89 317.59 69.33 317.59 76.43"/><polygon class="cls-3" points="317.59 90.46 283.91 88.75 283.91 81.48 317.59 83.44 317.59 90.46"/><polygon class="cls-3" points="317.59 104.5 283.91 103.27 283.91 95.94 317.59 97.41 317.59 104.5"/><polygon class="cls-3" points="317.59 118.39 283.91 117.64 283.91 110.39 317.59 111.38 317.59 118.39"/><polygon class="cls-3" points="317.59 132.43 283.91 132.16 283.91 124.99 317.59 125.49 317.59 132.43"/><polygon class="cls-3" points="317.59 146.88 283.91 147.12 283.91 139.44 317.59 139.46 317.59 146.88"/><polygon class="cls-3" points="317.59 160.49 283.91 161.2 283.91 154.04 317.59 153.57 317.59 160.49"/><polygon class="cls-3" points="317.59 174.53 283.91 175.72 283.91 168.49 317.59 167.54 317.59 174.53"/><polygon class="cls-3" points="317.59 188.56 283.91 190.24 283.91 182.95 317.59 181.51 317.59 188.56"/><path class="cls-5" d="M323.77,184.73a2.9,2.9,0,0,1-2.52,3,2.57,2.57,0,0,1-2.54-2.76,2.89,2.89,0,0,1,2.54-3A2.56,2.56,0,0,1,323.77,184.73Z"/><path class="cls-5" d="M323.72,170.77a2.75,2.75,0,0,1-2.44,2.87,2.51,2.51,0,0,1-2.45-2.69,2.75,2.75,0,0,1,2.45-2.88A2.53,2.53,0,0,1,323.72,170.77Z"/><path class="cls-5" d="M323.36,156.77a2.71,2.71,0,0,1-2.44,2.84,2.57,2.57,0,0,1-2.45-2.74,2.69,2.69,0,0,1,2.45-2.84A2.57,2.57,0,0,1,323.36,156.77Z"/><path class="cls-5" d="M323.5,142.73a2.7,2.7,0,0,1-2.44,2.84,2.56,2.56,0,0,1-2.45-2.73,2.71,2.71,0,0,1,2.45-2.85A2.58,2.58,0,0,1,323.5,142.73Z"/><path class="cls-5" d="M323.22,129a2.71,2.71,0,0,1-2.44,2.84,2.57,2.57,0,0,1-2.45-2.74,2.7,2.7,0,0,1,2.45-2.84A2.57,2.57,0,0,1,323.22,129Z"/><path class="cls-5" d="M323.22,114.94a2.7,2.7,0,0,1-2.44,2.84,2.56,2.56,0,0,1-2.45-2.73,2.69,2.69,0,0,1,2.45-2.84A2.56,2.56,0,0,1,323.22,114.94Z"/><path class="cls-5" d="M323.22,100.77a2.7,2.7,0,0,1-2.44,2.84,2.57,2.57,0,0,1-2.45-2.74A2.71,2.71,0,0,1,320.78,98,2.58,2.58,0,0,1,323.22,100.77Z"/><path class="cls-5" d="M323.22,86.74a2.71,2.71,0,0,1-2.44,2.84,2.57,2.57,0,0,1-2.45-2.74A2.69,2.69,0,0,1,320.78,84,2.57,2.57,0,0,1,323.22,86.74Z"/><path class="cls-5" d="M323.22,73a2.7,2.7,0,0,1-2.44,2.84,2.56,2.56,0,0,1-2.45-2.73,2.71,2.71,0,0,1,2.45-2.85A2.58,2.58,0,0,1,323.22,73Z"/><path class="cls-5" d="M323.23,58.93a2.65,2.65,0,0,1-2.44,2.8A2.62,2.62,0,0,1,318.33,59a2.65,2.65,0,0,1,2.46-2.8A2.62,2.62,0,0,1,323.23,58.93Z"/><path class="cls-4" d="M73,44.21V218.05l51.26,12.26V36.4A115.66,115.66,0,0,0,73,44.21Z"/><path class="cls-3" d="M172.16,211.93l-47.92,18.38V36.4l47.92,21.74Z"/><path class="cls-2" d="M119,213.23a78.45,78.45,0,0,1-38.63-7.81V48.66A116.46,116.46,0,0,1,119,45Z"/><path class="cls-4" d="M103.15,55.23c0,3.88-2.83,7.33-6.3,7.7s-6.19-2.44-6.19-6.25,2.76-7.26,6.19-7.69S103.15,51.35,103.15,55.23Z"/><path class="cls-5" d="M96.26,63.44A5.75,5.75,0,0,1,92.38,62a7.06,7.06,0,0,1-2.2-5.28c0-4,3-7.72,6.61-8.17a5.73,5.73,0,0,1,4.6,1.4,7,7,0,0,1,2.25,5.32c0,4.11-3,7.78-6.73,8.18Zm1.29-14a4.68,4.68,0,0,0-.64,0c-3.18.4-5.76,3.63-5.76,7.21A6.08,6.08,0,0,0,93,61.24a4.82,4.82,0,0,0,3.77,1.2c3.24-.34,5.87-3.58,5.87-7.21a6.06,6.06,0,0,0-1.92-4.59A4.78,4.78,0,0,0,97.55,49.43Z"/><path class="cls-5" d="M116.55,67.08c0,1.75-1,3.27-2.25,3.38s-2.24-1.2-2.24-2.95,1-3.25,2.24-3.38S116.55,65.33,116.55,67.08Z"/><path class="cls-5" d="M116.55,78.45c0,1.75-1,3.26-2.25,3.38s-2.24-1.21-2.24-3,1-3.25,2.24-3.38S116.55,76.7,116.55,78.45Z"/><path class="cls-5" d="M116.55,90.66c0,1.75-1,3.26-2.25,3.38s-2.24-1.21-2.24-3,1-3.25,2.24-3.38S116.55,88.91,116.55,90.66Z"/><path class="cls-5" d="M116.55,102.87c0,1.75-1,3.26-2.25,3.38s-2.24-1.21-2.24-3,1-3.25,2.24-3.38S116.55,101.12,116.55,102.87Z"/><path class="cls-5" d="M116.55,114.24c0,1.75-1,3.26-2.25,3.38s-2.24-1.21-2.24-3,1-3.26,2.24-3.38S116.55,112.48,116.55,114.24Z"/><path class="cls-5" d="M116.55,126.59c0,1.75-1,3.26-2.25,3.38s-2.24-1.21-2.24-3,1-3.26,2.24-3.38S116.55,124.83,116.55,126.59Z"/><path class="cls-5" d="M116.55,138.09c0,1.76-1,3.27-2.25,3.38s-2.24-1.2-2.24-2.94,1-3.26,2.24-3.38S116.55,136.34,116.55,138.09Z"/><path class="cls-5" d="M116.55,150c0,1.75-1,3.27-2.25,3.38s-2.24-1.2-2.24-2.94,1-3.26,2.24-3.38S116.55,148.27,116.55,150Z"/><path class="cls-5" d="M116.55,162c0,1.75-1,3.27-2.25,3.38s-2.24-1.2-2.24-2.94,1-3.26,2.24-3.39S116.55,160.2,116.55,162Z"/><path class="cls-5" d="M116.55,173.88c0,1.75-1,3.27-2.25,3.38s-2.24-1.2-2.24-2.95,1-3.25,2.24-3.38S116.55,172.13,116.55,173.88Z"/><path class="cls-5" d="M116.55,185.81c0,1.75-1,3.27-2.25,3.38s-2.24-1.2-2.24-2.95,1-3.25,2.24-3.38S116.55,184.06,116.55,185.81Z"/><polygon class="cls-3" points="110.31 69.55 82.8 72.1 82.8 68.29 110.31 65.6 110.31 69.55"/><polygon class="cls-3" points="110.31 81.34 82.8 83.47 82.8 79.66 110.31 77.39 110.31 81.34"/><polygon class="cls-3" points="110.31 93.13 82.8 94.83 82.8 91.02 110.31 89.18 110.31 93.13"/><polygon class="cls-3" points="110.31 104.92 82.8 106.2 82.8 102.39 110.31 100.97 110.31 104.92"/><polygon class="cls-3" points="110.31 116.71 82.8 117.57 82.8 113.76 110.31 112.76 110.31 116.71"/><polygon class="cls-3" points="110.31 128.5 82.8 128.94 82.8 125.13 110.31 124.54 110.31 128.5"/><polygon class="cls-3" points="110.31 140.28 82.8 140.31 82.8 136.5 110.31 136.33 110.31 140.28"/><polygon class="cls-3" points="111.15 152.49 82.8 152.07 82.8 147.86 111.15 148.13 111.15 152.49"/><polygon class="cls-3" points="111.15 163.44 82.8 162.61 82.8 159.23 111.15 159.93 111.15 163.44"/><polygon class="cls-3" points="111.15 175.65 82.8 174.37 82.8 170.6 111.15 171.73 111.15 175.65"/><polygon class="cls-3" points="111.15 187.44 82.8 185.73 82.8 181.97 111.15 183.53 111.15 187.44"/><rect class="cls-4" x="151.73" width="99.18" height="228.08"/><path class="cls-2" d="M243.86,218.43a389.48,389.48,0,0,1-44.39,2.41,387.84,387.84,0,0,1-42.17-2.41V10a361.52,361.52,0,0,1,86.56,0Z"/><rect class="cls-3" x="163.78" y="41.52" width="63.04" height="8.7"/><circle class="cls-3" cx="235.28" cy="45.87" r="5.26"/><rect class="cls-3" x="163.78" y="61.71" width="63.04" height="8.7"/><circle class="cls-3" cx="235.28" cy="66.06" r="5.26"/><rect class="cls-3" x="163.78" y="81.9" width="63.04" height="8.7"/><circle class="cls-3" cx="235.28" cy="86.25" r="5.26"/><rect class="cls-3" x="163.78" y="102.09" width="63.04" height="8.7"/><circle class="cls-3" cx="235.28" cy="106.44" r="5.26" transform="translate(86.27 317.35) rotate(-79.1)"/><rect class="cls-3" x="163.78" y="122.28" width="63.04" height="8.7"/><circle class="cls-3" cx="235.28" cy="126.63" r="5.26"/><rect class="cls-3" x="163.78" y="142.46" width="63.04" height="8.7"/><circle class="cls-3" cx="235.28" cy="146.82" r="5.26"/><rect class="cls-3" x="163.78" y="162.65" width="63.04" height="8.7"/><circle class="cls-3" cx="235.28" cy="167" r="5.26"/><rect class="cls-3" x="163.78" y="182.84" width="63.04" height="8.7"/><circle class="cls-3" cx="235.28" cy="187.19" r="5.26"/><path class="cls-2" d="M203,35.23a10.35,10.35,0,1,1,10.35-10.34A10.35,10.35,0,0,1,203,35.23Z"/></g><g id="man_with_cable" data-name="man with cable"><g id="legs"><g id="legs-2" data-name="legs"><rect class="cls-6" x="402.02" y="212.27" width="6.97" height="11.08" rx="3.4" transform="translate(-54.55 202.78) rotate(-26.37)"/><path class="cls-7" d="M411.26,219.16a21.07,21.07,0,0,1-1.51-2c-.34-.58-.54-1.06-.72-1s-.1.71-.42,1.54a3.72,3.72,0,0,1-1.19,1.57,5.3,5.3,0,0,1-2.11.83,3.4,3.4,0,0,1-1.76.17,2.66,2.66,0,0,1-1.2-.79l-1.65,1.72-3.21,3.58-3.92,3.39-1.84,1.34c-.24.25-.62.63-1.11,1.06-.95.81-1.38,1-1.73,1.57-.07.12-.75,1.2-.37,1.8s1.42.41,1.86.35c3.07-.42,7.26-3.52,9.83-5.18,5.4-3.46,8.09-5.18,10.56-5.64.44-.09,1.87-.32,2.09-1.2C413,221.58,412.43,220.77,411.26,219.16Z"/><path class="cls-8" d="M414.07,223.16,389.65,236l-.93-1.78,23.95-12.6.47-.25Z"/><rect class="cls-6" x="389.98" y="220.15" width="7.69" height="11.75" rx="3.76" transform="translate(-36.35 80.64) rotate(-11.18)"/><g id="_Ãðóïïà_ì" data-name="&lt;Ãðóïïà&gt;ì"><path class="cls-7" d="M398.73,230.22a20.52,20.52,0,0,1-.42-2.67c0-.71,0-1.26-.18-1.33s-.44.62-1.14,1.25a4,4,0,0,1-1.9.9,5.59,5.59,0,0,1-2.39-.26,3.44,3.44,0,0,1-1.73-.7,2.76,2.76,0,0,1-.75-1.33l-2.38.81-4.78,1.8L377.71,230l-2.39.37c-.35.12-.89.29-1.56.45a7.87,7.87,0,0,0-2.39.63c-.12.08-1.3.77-1.23,1.52s1.13,1.07,1.57,1.23c3.1,1.11,8.56.24,11.79-.05,6.77-.61,10.15-.92,12.69-.15.46.15,1.92.62,2.56-.1C399.19,233.35,399,232.3,398.73,230.22Z"/><path class="cls-8" d="M399.41,235.36l-29.26.13v-2.13l28.7-.13h.56Z"/></g></g><path class="cls-7" d="M368.15,128q-2.2,16.52-3.83,34-.68,7.26-1.2,14.37a7.12,7.12,0,0,0-.24,3.83,7.29,7.29,0,0,0,2.15,3.59c2.43,2.37,16.51,17.19,35.94,37.61l7.18-6.23a77.53,77.53,0,0,0-18.44-27.3,75.23,75.23,0,0,0-13.66-10.3,64.09,64.09,0,0,0,17-26.83c2.5-7.92,5.61-17.77.48-23.24C388.8,122.44,378.35,122.53,368.15,128Z"/><path class="cls-3" d="M379.89,129.88a90.51,90.51,0,0,0,3.35,45.27,150,150,0,0,0,4.55,50.06h9.1a113.25,113.25,0,0,0,0-48.14,70.9,70.9,0,0,0-.95-54.86Z"/></g><g id="body"><path class="cls-9" d="M325,148.56c.22.69,3.15.73,5.75-.24,3.22-1.2,4.28-3.33,6.71-5.51a21.18,21.18,0,0,1,9.82-4.79,6.12,6.12,0,0,0-2.64-2.87c-3.69-1.93-8.55,1.95-9.1,2.39-3.11,2.51-2.34,4.22-6,7.43C327,147.25,324.83,147.93,325,148.56Z"/><path class="cls-5" d="M355.93,110.23a72.41,72.41,0,0,1-15.57,25.64l5,6.46,12.46-10.78a47.25,47.25,0,0,0,8.86-17.48c.9-3.41,3.84-15.22-1.68-25.15-.6-1.08-2.86-5.16-4.79-4.8-1.41.27-2.13,2.86-2.87,7.43A115.89,115.89,0,0,0,355.93,110.23Z"/><path class="cls-5" d="M359.13,84.44c-.27,1.35.08,2.37.95,5.27.67,2.21,1.22,4.44,1.92,6.63,1.3,4,1.32,7.26,1.52,12.3.25,6.48.75,14.79,1.43,25.39a73.72,73.72,0,0,0,8.71,1,69.14,69.14,0,0,0,16-.88,63,63,0,0,0,10.7-3c-.29-.94-.69-2.32-1.12-4a66.76,66.76,0,0,1-1.84-8.86,33.26,33.26,0,0,1-.32-7.67,33.34,33.34,0,0,1,1.84-7.66c2.09-6.66,3.14-10,3.43-11.82.34-2.06,1.86-11.44-3.87-17.17-3-3-8.29-5.22-12.22-3.59-3,1.23-2.22,3.39-5.27,5.63-5.63,4.14-11.45-.83-18.08,3.59C361.88,80.36,359.63,81.9,359.13,84.44Z"/><path class="cls-9" d="M383.24,72.15c-.53-.89-1.36-.77-3.35-2a15.89,15.89,0,0,1-4-3.51c-2.17,2.69-7.77,9.82-7.58,12.69,0,.12,0,.42.08,1,.22,3.23,0,4,.56,4.63a3,3,0,0,0,2.23.8c3.78.19,6.92-3.44,8.23-5C380.39,79.72,384.74,74.69,383.24,72.15Z"/></g><g id="head"><path class="cls-10" d="M360.89,72.39c3.74,6.47,10,9.84,14,7.53s4.23-9.44.49-15.92-10-9.84-14-7.53S357.15,65.91,360.89,72.39Z"/><path class="cls-11" d="M354.5,63.28c-.06-.66,0-1.69,1.67-4.79,3.32-6.06,3.52-5.48,4.31-6,3.9-2.48,8.84-.5,9.58-.2a12.36,12.36,0,0,1,5.28,4c3.45,4.74,1.91,10.37,1.69,11.15-.29-2.65-2-4.3-3.37-4.21a2.94,2.94,0,0,0-2.21,1.78c-.62,1.47.35,2.7-.19,3.14S369,68,367.91,66.64c-1.66-2.07-.38-4.18-1.92-5.51a3.18,3.18,0,0,0-3.83-.24c-.88.82,0,2-.72,3.83-.63,1.47-2.28,3.07-3.95,2.83S354.64,65,354.5,63.28Z"/><path class="cls-11" d="M362.4,77.72a7.57,7.57,0,0,0,4.31,4.43,5.26,5.26,0,0,0,2.82.24c1.06-.19,3.72-1.81,6.7-4.67a1.51,1.51,0,0,0,.12-.72,1.74,1.74,0,0,0-.48-1c-.2-.24.29.26-2.93-5.57-.38-.69-.89-1.61-1.51-2.71l-1,.59a21.13,21.13,0,0,0-.26,5.06,1.63,1.63,0,0,1,0,.77c0,.1-.15.68-.53.84s-.83-.14-1.08-.3A8.54,8.54,0,0,0,365,73.58c-.27,0-2-.11-2.75.93S362.07,76.76,362.4,77.72Z"/><path class="cls-10" d="M366.89,79.81a1.66,1.66,0,0,1-1.14.18c-.91-.13-1.84-.9-1.73-1.55.07-.44.58-.71.74-.79.51-.27.76-.09,1.16-.27.9-.39.85-1.77,1.21-1.77s.58,1,.6,1.87C367.74,78,367.76,79.29,366.89,79.81Z"/></g><g id="hand"><path class="cls-2" d="M403,76.94c-6-8.47-19.79-12.89-24.1-.67-2.56,7.29-4.73,14.77-7.44,22.1-1.12,3-4.37,17.52-13.58,25.67-9.64,8.52-23.41,8.42-32.15,7.27-.45,1.55-.87,3.84.28,4.9s2.77.4,5.6,0c4.49-.63,4.4.18,8.69-.28a30.55,30.55,0,0,0,19.83-9.37c6-6,9.18-13.35,12.5-22.18s7.38-17.23,10.38-26.26C386.49,67.77,395.23,73.8,403,76.94Z"/><path class="cls-5" d="M386.11,75.86c-.69,1.78-.08,3.42.48,4.91a14,14,0,0,0,3.84,5.51c4.69,4.15,10.58,4.16,22.27,4.19,2.74,0,5.29-.09,5.75-1.32s-1.3-2.91-2.63-4.19a27.4,27.4,0,0,0-7.19-4.79c-8.7-4.38-7.72-2.8-12.81-5.63-2.29-1.26-3.85-2.34-5.87-1.91A5.43,5.43,0,0,0,386.11,75.86Z"/><path class="cls-10" d="M373.3,94a4.65,4.65,0,0,1-3-2.52,3.79,3.79,0,0,1-.23-1.56,5.53,5.53,0,0,1,1.19-2.75c1.89-3,1.79-3.35,2.64-4a5.9,5.9,0,0,1,2.27-1c1.62-.39,2.65-.09,4.55.12l5.15.12,5.63.12c4.91,0,5.47-.46,9.23-.48a28.58,28.58,0,0,1,9.58,1.08c2.05.65,7.51,2.38,8.14,6a5.14,5.14,0,0,1-.6,3.24,5.82,5.82,0,0,1-3.35,2.39,10.93,10.93,0,0,1-5.75.36c-3.83-.67-4.26-2.31-8.86-3.47A39,39,0,0,0,395.7,91c-4-.55-5.36-.38-7.31-1.32a9.65,9.65,0,0,1-3.11-2.39,5.1,5.1,0,0,1-1.68,1.91c-.78.52-1.12.39-2.76,1-2,.69-2.06,1.08-3.23,1.2A4.11,4.11,0,0,1,375.1,91c-1.07-.59-1.25-1.51-1.8-1.44s-.88,1.07-1,1.68A3.67,3.67,0,0,0,373.3,94Z"/></g><g id="cable"><polygon class="cls-3" points="284.06 144.96 283.31 130.32 297.49 129.21 298.02 144 284.06 144.96"/><polygon class="cls-5" points="283.43 130.3 298.34 129.22 298.38 131.38 283.61 132.15 283.43 130.3"/><path class="cls-12" d="M298.2,142.12c-.52-.3-14,.79-14,.79l-.55-10.76L298,131.07Z"/><path class="cls-7" d="M286.94,139.14l1.67-.15h.09a.29.29,0,0,1,.32.26l.15,1.77a.29.29,0,0,1-.26.32l-1.77.15a.29.29,0,0,1-.32-.27v-.06l-.15-1.7A.29.29,0,0,1,286.94,139.14Z"/><path class="cls-13" d="M286.94,139.14l1.67-.15.15,1.71a.31.31,0,0,1-.27.32l-1.67.14-.15-1.7A.29.29,0,0,1,286.94,139.14Z"/><path class="cls-7" d="M286.54,133.16l1.67-.15h.09a.29.29,0,0,1,.32.27l.16,1.77a.31.31,0,0,1-.27.32l-1.77.15a.29.29,0,0,1-.32-.27v-.06l-.15-1.7A.3.3,0,0,1,286.54,133.16Z"/><path class="cls-13" d="M286.54,133.16l1.67-.15.15,1.71a.31.31,0,0,1-.27.32l-1.67.14-.15-1.7A.3.3,0,0,1,286.54,133.16Z"/><polygon class="cls-13" points="283.94 137.76 283.9 137.19 286.86 136.98 286.78 136.28 288.61 136.13 288.68 136.91 292.13 136.67 292.12 135.99 293.69 135.83 293.75 136.6 297.27 136.41 297.3 136.98 293.22 137.2 293.16 136.46 292.7 136.51 292.71 137.21 288.16 137.52 288.09 136.75 287.42 136.8 287.5 137.51 283.94 137.76"/><rect class="cls-13" x="295.95" y="126.74" width="4.06" height="19.76" transform="translate(602.89 256.99) rotate(176.91)"/><path class="cls-7" d="M333.12,125.91l.83,17.46a2.53,2.53,0,0,1-2.41,2.64l-33.41,1.57a.15.15,0,0,1-.16-.14l-1-22.09a.26.26,0,0,1,.25-.28l33.3-1.57A2.52,2.52,0,0,1,333.12,125.91Z"/><rect class="cls-13" x="297.7" y="126.44" width="35.84" height="18.03" rx="4.19" transform="translate(-6.84 17.21) rotate(-3.09)"/></g></g></g></g></svg>