<svg xmlns="http://www.w3.org/2000/svg" viewBox="0 0 99.04 90.69"><defs><style>.cls-1{fill:#f6921e;}</style></defs><title>Asset 63</title><g id="Layer_2" data-name="Layer 2"><g id="Layer_1-2" data-name="Layer 1"><path class="cls-1" d="M50.28,0C60.66.28,69.45,5,75.62,14.39a5.5,5.5,0,0,0,3.83,2.66,24.62,24.62,0,0,1,3.09,47.34c-1.39.49-3,1.32-3.8-.61s.76-2.71,2.32-3.26c7.52-2.68,12.11-8.07,13.45-15.79,1.39-8-1.25-14.85-7.76-19.73A24.93,24.93,0,0,0,78,21.21c-2.5-.62-4.17-1.48-5.5-3.82a26.27,26.27,0,0,0-26.35-13c-11,1.55-20.06,9.32-22.48,20-.78,3.44-2.1,4.54-5.57,4.82-7.2.56-13.22,7.27-13.87,14.66A16.53,16.53,0,0,0,15.81,61c1,.31,2.1.24,2.9.76a8.94,8.94,0,0,1,1.86,2.31c-.84.52-1.7,1.52-2.52,1.49a17,17,0,0,1-11.1-5c-6.16-5.8-8.39-13-6-21.12S8.84,26.59,17.12,25.12c1.81-.33,2.33-1.23,2.77-2.78C23.6,9.26,35.91,0,50.28,0Z"/><path class="cls-1" d="M39.3,66c-3.29,0-6.23.11-9.15-.06a4.1,4.1,0,0,1-2.89-1.37c-.33-.52.36-2.09,1-2.77,6.39-6.51,12.89-12.91,19.31-19.39,1.4-1.42,2.53-1.46,3.94,0C58,48.81,64.45,55.22,70.83,61.72c.67.69,1.38,2.24,1.06,2.77A4,4,0,0,1,69,65.88c-2.92.18-5.87.07-9.17.07v9c0,3.68,0,7.37,0,11,0,3-1.37,4.5-4.33,4.61-3.95.16-7.92.16-11.88,0-3.08-.12-4.31-1.63-4.32-4.88C39.28,79.27,39.3,72.83,39.3,66ZM34.77,61.7c1.85,0,3.74,0,5.62,0,2.1,0,3,.93,3,3,0,1,0,2,0,3V86.27H55.8V83.08c0-6.08,0-12.16,0-18.24,0-2.23.88-3.23,3.11-3.16,1.86.07,3.72,0,5.86,0l-15-15Z"/></g></g></svg>