<svg xmlns="http://www.w3.org/2000/svg" xmlns:xlink="http://www.w3.org/1999/xlink" viewBox="0 0 374.84 330.38"><defs><style>.cls-1,.cls-15{opacity:0.4;}.cls-2,.cls-3{fill:#fff;}.cls-3{opacity:0.5;}.cls-4{fill:#7dc3ea;}.cls-5{fill:#396caa;}.cls-6{fill:url(#Áåçûìÿííûé_ãðàäèåíò_13);}.cls-15,.cls-7{fill:#d4ecff;}.cls-8{fill:#5793ce;}.cls-9{fill:url(#Áåçûìÿííûé_ãðàäèåíò_45);}.cls-10{fill:url(#Áåçûìÿííûé_ãðàäèåíò_13-2);}.cls-11{fill:url(#Áåçûìÿííûé_ãðàäèåíò_45-2);}.cls-12{fill:url(#Áåçûìÿííûé_ãðàäèåíò_13-3);}.cls-13{fill:#fafdff;}.cls-14{fill:#173d7a;}.cls-16{fill:url(#Áåçûìÿííûé_ãðàäèåíò_12);}.cls-17{fill:url(#Áåçûìÿííûé_ãðàäèåíò_13-4);}.cls-18{fill:url(#Áåçûìÿííûé_ãðàäèåíò_12-2);}.cls-19{fill:url(#Áåçûìÿííûé_ãðàäèåíò_70);}.cls-20{fill:url(#Áåçûìÿííûé_ãðàäèåíò_13-5);}.cls-21{fill:url(#Áåçûìÿííûé_ãðàäèåíò_45-3);}.cls-22{fill:url(#Áåçûìÿííûé_ãðàäèåíò_13-6);}.cls-23{fill:url(#Áåçûìÿííûé_ãðàäèåíò_45-4);}</style><radialGradient id="Áåçûìÿííûé_ãðàäèåíò_13" cx="210.27" cy="123.01" r="39.32" gradientUnits="userSpaceOnUse"><stop offset="0" stop-color="#699dd1"/><stop offset="0.27" stop-color="#6396cc"/><stop offset="0.64" stop-color="#5184bd"/><stop offset="1" stop-color="#396caa"/></radialGradient><linearGradient id="Áåçûìÿííûé_ãðàäèåíò_45" x1="217.69" y1="110.4" x2="279.29" y2="147.12" gradientUnits="userSpaceOnUse"><stop offset="0" stop-color="#d4ecff"/><stop offset="0.2" stop-color="#d0eafe"/><stop offset="0.39" stop-color="#c5e2f9"/><stop offset="0.57" stop-color="#b2d6f2"/><stop offset="0.74" stop-color="#98c4e7"/><stop offset="0.84" stop-color="#86b8e0"/></linearGradient><radialGradient id="Áåçûìÿííûé_ãðàäèåíò_13-2" cx="294.98" cy="171.7" r="39.32" xlink:href="#Áåçûìÿííûé_ãðàäèåíò_13"/><linearGradient id="Áåçûìÿííûé_ãðàäèåíò_45-2" x1="302.4" y1="159.09" x2="364" y2="195.82" xlink:href="#Áåçûìÿííûé_ãðàäèåíò_45"/><radialGradient id="Áåçûìÿííûé_ãðàäèåíò_13-3" cx="63.54" cy="55.95" r="125.44" xlink:href="#Áåçûìÿííûé_ãðàäèåíò_13"/><linearGradient id="Áåçûìÿííûé_ãðàäèåíò_12" x1="173.1" y1="69.48" x2="141.2" y2="15.55" gradientUnits="userSpaceOnUse"><stop offset="0" stop-color="#86b8e0"/><stop offset="0.12" stop-color="#98c4e7"/><stop offset="0.33" stop-color="#b2d6f2"/><stop offset="0.54" stop-color="#c5e2f9"/><stop offset="0.76" stop-color="#d0eafe"/><stop offset="1" stop-color="#d4ecff"/></linearGradient><radialGradient id="Áåçûìÿííûé_ãðàäèåíò_13-4" cx="165.56" cy="93.61" r="118.55" xlink:href="#Áåçûìÿííûé_ãðàäèåíò_13"/><linearGradient id="Áåçûìÿííûé_ãðàäèåíò_12-2" x1="252.91" y1="115.79" x2="227.76" y2="73.26" xlink:href="#Áåçûìÿííûé_ãðàäèåíò_12"/><radialGradient id="Áåçûìÿííûé_ãðàäèåíò_70" cx="262.96" cy="87.88" r="39.08" gradientUnits="userSpaceOnUse"><stop offset="0" stop-color="#173d7a"/><stop offset="1" stop-color="#274f89"/></radialGradient><radialGradient id="Áåçûìÿííûé_ãðàäèåíò_13-5" cx="35.74" cy="214.74" r="39.32" xlink:href="#Áåçûìÿííûé_ãðàäèåíò_13"/><linearGradient id="Áåçûìÿííûé_ãðàäèåíò_45-3" x1="43.16" y1="202.13" x2="104.76" y2="238.85" xlink:href="#Áåçûìÿííûé_ãðàäèåíò_45"/><radialGradient id="Áåçûìÿííûé_ãðàäèåíò_13-6" cx="120.45" cy="263.43" r="39.32" xlink:href="#Áåçûìÿííûé_ãðàäèåíò_13"/><linearGradient id="Áåçûìÿííûé_ãðàäèåíò_45-4" x1="127.87" y1="250.82" x2="189.47" y2="287.54" xlink:href="#Áåçûìÿííûé_ãðàäèåíò_45"/></defs><title>Asset 5 (2)</title><g id="Layer_2" data-name="Layer 2"><g id="Layer_1-2" data-name="Layer 1"><g class="cls-1"><path class="cls-2" d="M342.65,115.29,310.47,96.7l32.18-18.58L374.84,96.7ZM312.75,96.7,342.65,114,372.56,96.7,342.65,79.44Z"/><path class="cls-2" d="M280.56,115.28,248.37,96.7l32.19-18.58L312.75,96.7ZM250.65,96.7,280.56,114,310.47,96.7,280.56,79.44Z"/><path class="cls-2" d="M311.61,133.21l-32.19-18.58L311.61,96l32.18,18.59ZM281.7,114.63l29.91,17.26,29.9-17.26-29.9-17.27Z"/><path class="cls-2" d="M342.65,151.14l-32.18-18.59L342.65,114l32.19,18.58Zm-29.9-18.59,29.9,17.27,29.91-17.27-29.91-17.26Z"/><path class="cls-2" d="M218.47,115.28,186.28,96.7l32.19-18.58L250.65,96.7ZM188.56,96.7,218.47,114l29.9-17.27-29.9-17.26Z"/><path class="cls-2" d="M249.51,133.21l-32.18-18.58L249.51,96l32.19,18.59Zm-29.9-18.58,29.9,17.26,29.91-17.26L249.51,97.36Z"/><path class="cls-2" d="M280.56,151.14l-32.19-18.59L280.56,114l32.19,18.58Zm-29.91-18.59,29.91,17.27,29.91-17.27-29.91-17.27Z"/><path class="cls-2" d="M311.61,169.06l-32.19-18.58,32.19-18.59,32.18,18.59ZM281.7,150.48l29.91,17.26,29.9-17.26-29.9-17.27Z"/><path class="cls-2" d="M342.66,187,310.47,168.4l32.18-18.58,32.19,18.58ZM312.75,168.4l29.91,17.27,29.9-17.27-29.91-17.26Z"/><path class="cls-2" d="M156.37,115.28,124.19,96.7l32.18-18.58L188.56,96.7ZM126.47,96.7,156.37,114,186.28,96.7,156.37,79.43Z"/><path class="cls-2" d="M187.42,133.21l-32.19-18.58L187.42,96l32.19,18.59Zm-29.91-18.58,29.91,17.26,29.91-17.26L187.42,97.36Z"/><path class="cls-2" d="M218.47,151.13l-32.19-18.58L218.47,114l32.18,18.58Zm-29.91-18.58,29.91,17.27,29.9-17.27-29.9-17.27Z"/><path class="cls-2" d="M249.51,169.06l-32.18-18.58,32.18-18.59,32.19,18.59Zm-29.9-18.58,29.9,17.26,29.91-17.26-29.91-17.27Z"/><path class="cls-2" d="M280.56,187,248.37,168.4l32.19-18.58,32.19,18.58ZM250.65,168.4l29.91,17.27,29.91-17.27-29.91-17.26Z"/><path class="cls-2" d="M311.61,204.91l-32.19-18.58,32.19-18.59,32.18,18.59ZM281.7,186.33l29.91,17.26,29.91-17.26-29.91-17.27Z"/><path class="cls-2" d="M342.66,222.83l-32.19-18.58,32.19-18.58,32.18,18.58Zm-29.91-18.58,29.91,17.27,29.9-17.27L342.66,187Z"/><path class="cls-2" d="M94.28,115.28,62.09,96.7,94.28,78.12,126.47,96.7ZM64.37,96.7,94.28,114,124.19,96.7,94.28,79.43Z"/><path class="cls-2" d="M125.33,133.21,93.14,114.63,125.33,96l32.18,18.59ZM95.42,114.63l29.91,17.26,29.9-17.26-29.9-17.27Z"/><path class="cls-2" d="M156.37,151.13l-32.18-18.58L156.37,114l32.19,18.58Zm-29.9-18.58,29.9,17.27,29.91-17.27-29.91-17.27Z"/><path class="cls-2" d="M187.42,169.06l-32.18-18.58,32.18-18.59,32.19,18.59Zm-29.91-18.58,29.91,17.26,29.91-17.26-29.91-17.27Z"/><path class="cls-2" d="M218.47,187,186.28,168.4l32.19-18.58,32.18,18.58ZM188.56,168.4l29.91,17.27,29.9-17.27-29.9-17.27Z"/><path class="cls-2" d="M249.52,204.91l-32.19-18.58,32.18-18.59,32.19,18.59Zm-29.91-18.58,29.91,17.26,29.9-17.26-29.91-17.27Z"/><path class="cls-2" d="M280.56,222.83l-32.18-18.58,32.18-18.58,32.19,18.58Zm-29.9-18.58,29.9,17.27,29.91-17.27L280.56,187Z"/><path class="cls-2" d="M311.61,240.76l-32.19-18.58,32.19-18.59,32.19,18.59ZM281.7,222.18l29.91,17.26,29.91-17.26-29.91-17.27Z"/><path class="cls-2" d="M342.66,258.68,310.47,240.1l32.19-18.58,32.18,18.58ZM312.75,240.1l29.91,17.27,29.9-17.27-29.9-17.27Z"/><path class="cls-2" d="M32.19,115.28,0,96.7,32.19,78.12,64.37,96.7ZM2.28,96.7,32.19,114,62.09,96.7,32.19,79.43Z"/><path class="cls-2" d="M63.23,133.21,31.05,114.62,63.23,96l32.19,18.59Zm-29.9-18.59,29.9,17.27,29.91-17.26L63.23,97.36Z"/><path class="cls-2" d="M94.28,151.13,62.09,132.55,94.28,114l32.19,18.58ZM64.37,132.55l29.91,17.27,29.91-17.27L94.28,115.28Z"/><path class="cls-2" d="M125.33,169.06,93.14,150.48l32.19-18.59,32.18,18.59ZM95.42,150.48l29.91,17.26,29.91-17.26-29.91-17.27Z"/><path class="cls-2" d="M156.37,187,124.19,168.4l32.18-18.58,32.19,18.58Zm-29.9-18.58,29.9,17.27,29.91-17.27-29.91-17.27Z"/><path class="cls-2" d="M187.42,204.91l-32.18-18.58,32.18-18.59,32.19,18.59Zm-29.91-18.58,29.91,17.26,29.91-17.26-29.91-17.27Z"/><path class="cls-2" d="M218.47,222.83l-32.19-18.58,32.19-18.58,32.19,18.58Zm-29.91-18.58,29.91,17.27,29.91-17.27L218.47,187Z"/><path class="cls-2" d="M249.52,240.76l-32.19-18.58,32.19-18.59,32.18,18.59Zm-29.91-18.58,29.91,17.26,29.9-17.26-29.9-17.27Z"/><path class="cls-2" d="M280.56,258.68,248.38,240.1l32.18-18.58,32.19,18.58Zm-29.9-18.58,29.9,17.27,29.91-17.27-29.91-17.27Z"/><path class="cls-2" d="M311.61,276.61,279.42,258l32.19-18.59L343.8,258ZM281.7,258l29.91,17.26L341.52,258l-29.91-17.27Z"/><path class="cls-2" d="M342.66,294.53,310.47,276l32.19-18.58L374.84,276ZM312.75,276l29.91,17.27L372.56,276l-29.9-17.27Z"/><path class="cls-2" d="M32.19,151.13,0,132.55,32.19,114l32.18,18.58ZM2.28,132.55l29.91,17.27,29.9-17.27-29.9-17.27Z"/><path class="cls-2" d="M63.24,169.06,31.05,150.47l32.18-18.58,32.19,18.59ZM33.33,150.47l29.91,17.27,29.9-17.26L63.23,133.21Z"/><path class="cls-2" d="M94.28,187,62.1,168.4l32.18-18.58,32.19,18.58ZM64.37,168.4l29.91,17.27,29.91-17.27L94.28,151.13Z"/><path class="cls-2" d="M125.33,204.91,93.14,186.32l32.19-18.58,32.18,18.59ZM95.42,186.32l29.91,17.27,29.91-17.26-29.91-17.27Z"/><path class="cls-2" d="M156.38,222.83l-32.19-18.58,32.18-18.58,32.19,18.58Zm-29.91-18.58,29.91,17.27,29.9-17.27L156.37,187Z"/><path class="cls-2" d="M187.42,240.76l-32.18-18.58,32.18-18.59,32.19,18.59Zm-29.9-18.58,29.9,17.26,29.91-17.26-29.91-17.27Z"/><path class="cls-2" d="M218.47,258.68,186.28,240.1l32.19-18.58,32.19,18.58ZM188.56,240.1l29.91,17.27,29.91-17.27-29.91-17.27Z"/><path class="cls-2" d="M249.52,276.61,217.33,258l32.19-18.58L281.7,258ZM219.61,258l29.91,17.27L279.42,258l-29.9-17.27Z"/><path class="cls-2" d="M280.56,294.53,248.38,276l32.18-18.58L312.75,276ZM250.66,276l29.9,17.27L310.47,276l-29.91-17.27Z"/><path class="cls-2" d="M311.61,312.46l-32.19-18.58,32.19-18.59,32.19,18.59ZM281.7,293.88l29.91,17.26,29.91-17.26-29.91-17.27Z"/><path class="cls-2" d="M342.66,330.38,310.47,311.8l32.19-18.58,32.18,18.58ZM312.75,311.8l29.91,17.27,29.91-17.27-29.91-17.27Z"/><path class="cls-2" d="M32.19,187,0,168.4l32.19-18.58L64.37,168.4ZM2.28,168.4l29.91,17.27L62.1,168.4,32.19,151.13Z"/><path class="cls-2" d="M63.24,204.91,31.05,186.32l32.19-18.58,32.18,18.58ZM33.33,186.32l29.91,17.27,29.9-17.27-29.9-17.26Z"/><path class="cls-2" d="M94.28,222.83,62.1,204.25l32.18-18.58,32.19,18.58ZM64.37,204.25l29.91,17.27,29.91-17.27L94.28,187Z"/><path class="cls-2" d="M125.33,240.76,93.14,222.17l32.19-18.58,32.19,18.59ZM95.42,222.17l29.91,17.27,29.91-17.26-29.91-17.27Z"/><path class="cls-2" d="M156.38,258.68,124.19,240.1l32.19-18.58,32.18,18.58ZM126.47,240.1l29.91,17.27,29.9-17.27-29.9-17.27Z"/><path class="cls-2" d="M187.42,276.61,155.24,258l32.18-18.58L219.61,258ZM157.52,258l29.9,17.27L217.33,258l-29.91-17.26Z"/><path class="cls-2" d="M218.47,294.53,186.28,276l32.19-18.58L250.66,276ZM188.56,276l29.91,17.27L248.38,276l-29.91-17.27Z"/><path class="cls-2" d="M249.52,312.46l-32.19-18.58,32.19-18.59,32.18,18.59Zm-29.91-18.58,29.91,17.26,29.9-17.26-29.9-17.27Z"/><path class="cls-2" d="M280.57,330.38,248.38,311.8l32.18-18.58,32.19,18.58ZM250.66,311.8l29.91,17.27,29.9-17.27-29.91-17.27Z"/><path class="cls-2" d="M32.19,222.83,0,204.25l32.19-18.58,32.18,18.58ZM2.28,204.25l29.91,17.27L62.1,204.25,32.19,187Z"/><path class="cls-2" d="M63.24,240.76,31.05,222.17l32.19-18.58,32.18,18.58ZM33.33,222.17l29.91,17.27,29.9-17.27-29.9-17.26Z"/><path class="cls-2" d="M94.28,258.68,62.1,240.1l32.18-18.58,32.19,18.58ZM64.38,240.1l29.9,17.27,29.91-17.27L94.28,222.83Z"/><path class="cls-2" d="M125.33,276.61,93.14,258l32.19-18.58L157.52,258ZM95.42,258l29.91,17.27L155.24,258l-29.91-17.26Z"/><path class="cls-2" d="M156.38,294.53,124.19,276l32.19-18.58L188.56,276ZM126.47,276l29.91,17.27L186.28,276l-29.9-17.27Z"/><path class="cls-2" d="M187.42,312.46l-32.18-18.59,32.18-18.58,32.19,18.59Zm-29.9-18.59,29.9,17.27,29.91-17.26-29.91-17.27Z"/><path class="cls-2" d="M218.47,330.38,186.29,311.8l32.18-18.58,32.19,18.58ZM188.56,311.8l29.91,17.27,29.91-17.27-29.91-17.27Z"/><path class="cls-2" d="M32.19,258.68,0,240.1l32.19-18.58L64.38,240.1ZM2.28,240.1l29.91,17.27L62.1,240.1,32.19,222.83Z"/><path class="cls-2" d="M63.24,276.61,31.05,258l32.19-18.58L95.42,258ZM33.33,258l29.91,17.27L93.14,258l-29.9-17.26Z"/><path class="cls-2" d="M94.28,294.53,62.1,276l32.18-18.58L126.47,276ZM64.38,276l29.9,17.27L124.19,276,94.28,258.68Z"/><path class="cls-2" d="M125.33,312.46,93.14,293.87l32.19-18.58,32.19,18.58ZM95.42,293.87l29.91,17.27,29.91-17.27-29.91-17.26Z"/><path class="cls-2" d="M156.38,330.38,124.19,311.8l32.19-18.58,32.18,18.58ZM126.47,311.8l29.91,17.27,29.91-17.27-29.91-17.27Z"/><path class="cls-2" d="M32.19,294.53,0,276l32.19-18.58L64.38,276ZM2.28,276l29.91,17.27L62.1,276,32.19,258.68Z"/><path class="cls-2" d="M63.24,312.46,31.05,293.87l32.19-18.58,32.18,18.58ZM33.33,293.87l29.91,17.27,29.9-17.27-29.9-17.26Z"/><path class="cls-2" d="M94.29,330.38,62.1,311.8l32.18-18.58,32.19,18.58ZM64.38,311.8l29.91,17.27,29.9-17.27L94.28,294.53Z"/><path class="cls-2" d="M32.19,330.38,0,311.8l32.19-18.58L64.38,311.8ZM2.28,311.8l29.91,17.26L62.1,311.8,32.19,294.53Z"/></g><path class="cls-2" d="M63.93,120a11.09,11.09,0,0,0-1.76,1.28c-.24-7.89-5.94-11-13-7-5.71,3.3-10.55,10.36-12.29,17.29a7.73,7.73,0,0,0-4.85,1.2c-5.11,2.95-9.26,10.14-9.26,16s4.15,8.3,9.26,5.35l31.86-18.39A15.12,15.12,0,0,0,70.76,124C70.76,119.61,67.7,117.84,63.93,120Z"/><path class="cls-2" d="M348,103.77a11.09,11.09,0,0,0-1.76,1.28c-.24-7.89-5.94-11-13-7-5.71,3.3-10.55,10.36-12.29,17.29a7.7,7.7,0,0,0-4.84,1.2c-5.12,3-9.27,10.13-9.27,16s4.15,8.3,9.27,5.35L348,119.56a15.15,15.15,0,0,0,6.84-11.85C354.79,103.35,351.72,101.59,348,103.77Z"/><path class="cls-2" d="M198.88,330.28A1.55,1.55,0,0,1,197.5,328a17.55,17.55,0,0,1,6.38-7,8.27,8.27,0,0,1,4.49-1.25c2,.1,4.52-1.41,6.7-4a15.38,15.38,0,0,1,4.06-3.52,8.26,8.26,0,0,1,4.49-1.24c2,.11,4.52-1.41,6.71-4.05a15.19,15.19,0,0,1,4-3.52,8.32,8.32,0,0,1,4.49-1.24c2,.11,4.52-1.41,6.71-4a15.34,15.34,0,0,1,4-3.52c2.29-1.32,4.57-1.61,6.43-.8a1.56,1.56,0,1,1-1.24,2.86,4.2,4.2,0,0,0-3.62.64,12.25,12.25,0,0,0-3.22,2.81c-2.85,3.44-6.25,5.33-9.26,5.17a5.43,5.43,0,0,0-2.78.83,12.32,12.32,0,0,0-3.21,2.8c-2.86,3.44-6.25,5.33-9.26,5.18a5.15,5.15,0,0,0-2.78.82,12.56,12.56,0,0,0-3.21,2.81c-2.86,3.44-6.24,5.31-9.26,5.17a5.28,5.28,0,0,0-2.78.83,14.36,14.36,0,0,0-5.17,5.76A1.56,1.56,0,0,1,198.88,330.28Z"/><path class="cls-2" d="M20.59,196.08a6.65,6.65,0,0,1-3,5.2c-1.65,1-3,.18-3-1.73a6.67,6.67,0,0,1,3-5.21C19.24,193.39,20.59,194.16,20.59,196.08Z"/><path class="cls-2" d="M30.32,190.46a6.64,6.64,0,0,1-3,5.2c-1.66,1-3,.18-3-1.73a6.64,6.64,0,0,1,3-5.21C29,187.77,30.32,188.54,30.32,190.46Z"/><path class="cls-2" d="M40.06,184.84a6.65,6.65,0,0,1-3,5.2c-1.66,1-3,.18-3-1.73a6.64,6.64,0,0,1,3-5.21C38.71,182.15,40.06,182.92,40.06,184.84Z"/><path class="cls-2" d="M49.79,179.22a6.64,6.64,0,0,1-3,5.2c-1.66,1-3,.18-3-1.73a6.65,6.65,0,0,1,3-5.21C48.45,176.53,49.79,177.3,49.79,179.22Z"/><path class="cls-2" d="M302.19,273.7a6.45,6.45,0,0,1-2.92,5.05c-1.61.93-2.91.18-2.91-1.68a6.44,6.44,0,0,1,2.91-5.05C300.88,271.09,302.19,271.85,302.19,273.7Z"/><path class="cls-2" d="M310.23,269.06a6.45,6.45,0,0,1-2.92,5.05c-1.61.93-2.91.18-2.91-1.68a6.44,6.44,0,0,1,2.91-5.05C308.92,266.45,310.23,267.2,310.23,269.06Z"/><path class="cls-2" d="M302.19,264.42a6.45,6.45,0,0,1-2.92,5.05c-1.61.93-2.91.17-2.91-1.68a6.44,6.44,0,0,1,2.91-5.05C300.88,261.81,302.19,262.56,302.19,264.42Z"/><path class="cls-2" d="M310.23,259.78a6.45,6.45,0,0,1-2.92,5.05c-1.61.93-2.91.17-2.91-1.68a6.44,6.44,0,0,1,2.91-5C308.92,257.17,310.23,257.92,310.23,259.78Z"/><polygon class="cls-2" points="233.64 28.52 227.63 31.99 227.63 25.05 233.64 21.59 233.64 28.52"/><polygon class="cls-2" points="241.97 23.65 235.97 27.12 235.97 20.18 241.97 16.71 241.97 23.65"/><polygon class="cls-2" points="233.69 37.52 227.68 40.99 227.68 34.05 233.69 30.58 233.69 37.52"/><polygon class="cls-2" points="241.97 32.74 235.97 36.2 235.97 29.27 241.97 25.8 241.97 32.74"/><path class="cls-3" d="M86.15,279.42a11,11,0,0,0-2.85,2.45c-.13-5.62-4.16-7.86-9.12-5a16.52,16.52,0,0,0-4.38,3.83c-2.21-3.86-6.78-4.76-12.08-1.7-7.46,4.31-13.5,14.78-13.5,23.38a15.91,15.91,0,0,0,.13,2,5.11,5.11,0,0,0-3.78.77,14.29,14.29,0,0,0-6.45,11.18c0,4.12,2.89,5.79,6.45,3.73l45.58-26.31A13.73,13.73,0,0,0,92.36,283C92.36,279.05,89.58,277.44,86.15,279.42Z"/><path class="cls-4" d="M240.69,177.83l-31.11-18c-1.91-1.11-1.67-3,.53-4.3l30-17.35a8.3,8.3,0,0,1,7.45-.31l31.11,18c1.91,1.11,1.67,3-.53,4.31l-30,17.34A8.3,8.3,0,0,1,240.69,177.83Z"/><path class="cls-2" d="M243.94,170.52a8.36,8.36,0,0,1-4.13-1l-31.11-18a4,4,0,0,1-2.18-3.4,4.77,4.77,0,0,1,2.71-4l30-17.34c2.78-1.6,6.74-1.74,9.22-.31l31.11,18a4,4,0,0,1,2.17,3.4,4.77,4.77,0,0,1-2.71,4l-30,17.34A10.35,10.35,0,0,1,243.94,170.52Zm.45-41.42a7,7,0,0,0-3.35.82l-30,17.35c-.76.43-.94.82-.94.9a1.12,1.12,0,0,0,.4.34l31.11,18a6.56,6.56,0,0,0,5.69-.31l30-17.34c.75-.44.93-.83.94-.91a1.22,1.22,0,0,0-.41-.34l-31.11-18A4.86,4.86,0,0,0,244.39,129.1Z"/><path class="cls-5" d="M280,136.91h0V126.17H255.92l-8.32-4.81a8.3,8.3,0,0,0-7.45.31l-7.76,4.48H208.3v11a2.15,2.15,0,0,0,1.28,2l31.11,18a8.3,8.3,0,0,0,7.45-.31l30-17.34C279.45,138.74,280.06,137.79,280,136.91Z"/><path class="cls-6" d="M244.15,120.62a8.59,8.59,0,0,0-4,1l-7.76,4.48H208.3v11a2.15,2.15,0,0,0,1.28,2l31.11,18a6.75,6.75,0,0,0,3.46.74Z"/><path class="cls-7" d="M211,126.13H208.3v11a2.15,2.15,0,0,0,1.28,2L211,140Z"/><path class="cls-8" d="M241.17,157.36a8.47,8.47,0,0,0,6-.06V144.76h-6Z"/><path class="cls-9" d="M240.69,146.13l-31.11-18c-1.91-1.11-1.67-3,.53-4.3l30-17.35a8.3,8.3,0,0,1,7.45-.31l31.11,18c1.91,1.1,1.67,3-.53,4.3l-30,17.34A8.3,8.3,0,0,1,240.69,146.13Z"/><path class="cls-2" d="M278.18,126.36l-30,17.35a8.3,8.3,0,0,1-7.45.31l-31.11-18a2.73,2.73,0,0,1-1-.84c-.66,1.05-.36,2.2,1,3l31.11,18a8.3,8.3,0,0,0,7.45-.31l30-17.34c1.71-1,2.23-2.37,1.49-3.46A4.12,4.12,0,0,1,278.18,126.36Z"/><path class="cls-7" d="M268.55,139.74a2.79,2.79,0,0,1-1.26,2.18c-.69.4-1.25.07-1.25-.73a2.79,2.79,0,0,1,1.25-2.18C268,138.61,268.55,138.94,268.55,139.74Z"/><path class="cls-7" d="M272.59,137.4a2.77,2.77,0,0,1-1.25,2.18c-.7.4-1.26.08-1.26-.72a2.76,2.76,0,0,1,1.26-2.18C272,136.28,272.59,136.6,272.59,137.4Z"/><path class="cls-7" d="M276.64,135.07a2.8,2.8,0,0,1-1.26,2.18c-.69.4-1.26.07-1.26-.73a2.82,2.82,0,0,1,1.26-2.18C276.07,133.94,276.64,134.27,276.64,135.07Z"/><path class="cls-8" d="M242.53,135,228,126.59c-.89-.52-.78-1.42.25-2l14.06-8.11a3.87,3.87,0,0,1,3.48-.15l14.56,8.41c.9.52.78,1.42-.25,2l-14,8.12A3.89,3.89,0,0,1,242.53,135Z"/><path class="cls-7" d="M243.92,128l-2-1.17c-.12-.07-.11-.19,0-.28l1.95-1.12a.54.54,0,0,1,.48,0l2,1.16c.13.08.11.2,0,.28l-1.94,1.13A.56.56,0,0,1,243.92,128Z"/><path class="cls-5" d="M228,126.59l0,0a1.53,1.53,0,0,1,.21-.14l14.06-8.12a3.87,3.87,0,0,1,3.48-.14l14.52,8.38c.83-.59.87-1.39,0-1.87l-14.56-8.41a3.87,3.87,0,0,0-3.48.15l-14.06,8.11C227.19,125.17,227.08,126.07,228,126.59Z"/><path class="cls-4" d="M325.4,226.52l-31.11-18c-1.91-1.1-1.67-3,.53-4.3l30-17.35c2.21-1.27,5.54-1.41,7.45-.3l31.12,18c1.9,1.1,1.67,3-.54,4.3l-30,17.34A8.27,8.27,0,0,1,325.4,226.52Z"/><path class="cls-2" d="M328.65,219.21a8.36,8.36,0,0,1-4.13-1l-31.11-18a4,4,0,0,1-2.18-3.4,4.76,4.76,0,0,1,2.71-4l30-17.35a10,10,0,0,1,9.22-.3l31.11,18a4,4,0,0,1,2.17,3.4,4.77,4.77,0,0,1-2.7,4l-30,17.34A10.35,10.35,0,0,1,328.65,219.21Zm-2.37-4.05a6.56,6.56,0,0,0,5.69-.31l30-17.34c.75-.44.93-.83.94-.9a1,1,0,0,0-.41-.34l-31.11-18a6.5,6.5,0,0,0-5.68.31l-30,17.34c-.76.43-.94.83-.94.9a1.12,1.12,0,0,0,.4.34Z"/><path class="cls-5" d="M364.7,185.6h0V174.86H340.63l-8.32-4.8a8.27,8.27,0,0,0-7.45.31l-7.76,4.48-24.09,0v11a2.17,2.17,0,0,0,1.28,2l31.11,18a8.27,8.27,0,0,0,7.45-.31l30-17.34C364.16,187.44,364.78,186.48,364.7,185.6Z"/><path class="cls-10" d="M328.86,169.31a8.6,8.6,0,0,0-4,1.05l-7.76,4.48-24.09,0v11a2.17,2.17,0,0,0,1.28,2l31.11,18a6.78,6.78,0,0,0,3.46.74Z"/><path class="cls-7" d="M295.74,174.83H293v11a2.17,2.17,0,0,0,1.28,2l1.45.84Z"/><path class="cls-8" d="M325.88,206.06a8.53,8.53,0,0,0,5.95-.07V193.45h-5.95Z"/><path class="cls-11" d="M325.4,194.82l-31.11-18c-1.91-1.1-1.67-3,.53-4.3l30-17.34c2.21-1.28,5.54-1.42,7.45-.31l31.12,18c1.9,1.1,1.67,3-.54,4.3l-30,17.34A8.27,8.27,0,0,1,325.4,194.82Z"/><path class="cls-2" d="M362.89,175.06l-30,17.34a8.3,8.3,0,0,1-7.45.31l-31.11-18a2.85,2.85,0,0,1-1-.85c-.66,1.06-.36,2.2,1,3l31.11,18a8.27,8.27,0,0,0,7.45-.31l30-17.34c1.71-1,2.23-2.37,1.49-3.46A4.13,4.13,0,0,1,362.89,175.06Z"/><path class="cls-7" d="M353.26,188.43a2.77,2.77,0,0,1-1.26,2.18c-.69.4-1.25.07-1.25-.73a2.77,2.77,0,0,1,1.25-2.17C352.7,187.31,353.26,187.63,353.26,188.43Z"/><path class="cls-7" d="M357.3,186.1a2.77,2.77,0,0,1-1.25,2.17c-.7.41-1.26.08-1.26-.72a2.77,2.77,0,0,1,1.26-2.18C356.74,185,357.3,185.3,357.3,186.1Z"/><path class="cls-7" d="M361.35,183.76a2.78,2.78,0,0,1-1.26,2.18c-.69.4-1.26.08-1.26-.73a2.78,2.78,0,0,1,1.26-2.17C360.78,182.64,361.35,183,361.35,183.76Z"/><path class="cls-8" d="M327.24,183.69l-14.56-8.41c-.89-.51-.78-1.42.25-2L327,165.15a3.89,3.89,0,0,1,3.49-.14l14.55,8.4c.9.52.79,1.42-.25,2l-14,8.11A3.89,3.89,0,0,1,327.24,183.69Z"/><path class="cls-7" d="M328.63,176.65l-2-1.16c-.12-.08-.11-.2,0-.28l2-1.13a.54.54,0,0,1,.48,0l2,1.17c.12.07.1.19,0,.28l-1.94,1.12A.56.56,0,0,1,328.63,176.65Z"/><path class="cls-5" d="M312.68,175.28l0,0,.21-.14L327,167.05a3.86,3.86,0,0,1,3.49-.15L345,175.28c.83-.59.87-1.39,0-1.87L330.48,165a3.89,3.89,0,0,0-3.49.14l-14.06,8.12C311.9,173.86,311.79,174.77,312.68,175.28Z"/><path class="cls-4" d="M142.9,235.08l65.81-37.53c2.41-1.39,2.11-3.82-.67-5.42l-37.87-21.86c-2.78-1.61-7-1.78-9.39-.39L95,207.41c-2.4,1.39-2.1,3.81.68,5.42l37.87,21.86C136.28,236.3,140.49,236.47,142.9,235.08Z"/><path class="cls-2" d="M138.81,226.7a12.59,12.59,0,0,1-6.19-1.56L94.75,203.28c-2-1.17-3.18-2.84-3.18-4.6a4.56,4.56,0,0,1,2.51-3.88l65.82-37.53c2.93-1.69,7.83-1.53,11.15.39l37.87,21.86c2,1.17,3.18,2.85,3.18,4.6a4.54,4.54,0,0,1-2.51,3.89l-65.82,37.53A10.07,10.07,0,0,1,138.81,226.7Zm26-67.07a6.52,6.52,0,0,0-3.17.7L95.84,197.86c-.46.27-.74.58-.74.82s.44,1,1.42,1.54l37.87,21.86c2.21,1.28,5.77,1.46,7.62.39h0l65.82-37.53c.45-.26.73-.57.73-.82s-.44-1-1.42-1.54l-37.86-21.86A9.23,9.23,0,0,0,164.83,159.63Z"/><path class="cls-12" d="M93.35,186.82h0V43.59l56.94-14.9,10.49-6.05c2.4-1.39,6.61-1.22,9.39.38L180,28.67h30.37l-9,138.26a2.74,2.74,0,0,1-1.61,2.52L142.9,212.31c-2.41,1.39-6.62,1.22-9.39-.39L95.64,190.06C94,189.14,93.26,187.94,93.35,186.82Z"/><path class="cls-7" d="M165.13,21.7a11,11,0,0,1,5,1.32L180,28.67h30.37V172.27a2.72,2.72,0,0,1-1.61,2.52L142.9,212.31a8.59,8.59,0,0,1-4.36.94l-.68-144.52Z"/><path class="cls-8" d="M142.29,212.61a10.68,10.68,0,0,1-7.51-.09V67h7.51Z"/><path class="cls-7" d="M142.9,68.75l65.81-37.53c2.41-1.39,2.11-3.81-.67-5.42L170.17,3.94c-2.78-1.61-7-1.78-9.39-.39L95,41.08c-2.4,1.39-2.1,3.81.68,5.42l37.87,21.86C136.28,70,140.49,70.14,142.9,68.75Z"/><path class="cls-13" d="M95.64,43.84,133.51,65.7c2.77,1.6,7,1.78,9.39.39l65.81-37.53a3.52,3.52,0,0,0,1.2-1.07c.83,1.34.45,2.78-1.2,3.73L142.9,68.75c-2.41,1.39-6.62,1.22-9.39-.39L95.64,46.5c-2.16-1.25-2.82-3-1.88-4.36A5.35,5.35,0,0,0,95.64,43.84Z"/><path class="cls-14" d="M141,53.54l43.82-25.4c1.13-.65,1-1.78-.31-2.54L166.82,15.37a4.9,4.9,0,0,0-4.4-.18L118.6,40.59c-1.12.65-1,1.79.32,2.54l17.72,10.23A4.88,4.88,0,0,0,141,53.54Z"/><path class="cls-7" d="M164.69,29.28l2.54-1.46c.16-.09.14-.25,0-.35l-2.46-1.42a.67.67,0,0,0-.6,0l-2.54,1.46c-.16.09-.14.25,0,.35l2.45,1.42A.69.69,0,0,0,164.69,29.28Z"/><path class="cls-7" d="M156.21,34.16l2.54-1.47c.15-.09.13-.24-.05-.35l-2.45-1.41a.66.66,0,0,0-.61,0l-2.54,1.47c-.15.09-.13.25.05.35l2.45,1.42A.69.69,0,0,0,156.21,34.16Z"/><path class="cls-7" d="M147.72,39l2.54-1.47c.16-.09.14-.25,0-.35l-2.45-1.41a.66.66,0,0,0-.61,0l-2.54,1.47c-.15.09-.14.24,0,.35L147.12,39A.64.64,0,0,0,147.72,39Z"/><path class="cls-7" d="M139.24,43.92l2.54-1.47c.16-.09.14-.25,0-.35l-2.45-1.42a.69.69,0,0,0-.61,0l-2.54,1.46c-.16.09-.14.25,0,.35l2.45,1.42A.69.69,0,0,0,139.24,43.92Z"/><path class="cls-8" d="M184.85,28.14l0,0-.26-.18L166.82,17.76a4.9,4.9,0,0,0-4.4-.18L118.66,43c-1-.75-1.1-1.76-.06-2.36l43.82-25.4a4.9,4.9,0,0,1,4.4.18L184.54,25.6C185.84,26.36,186,27.49,184.85,28.14Z"/><path class="cls-14" d="M126.11,97.13,101.2,82.86A6.09,6.09,0,0,1,98.66,78V69.1c0-1.86,1.14-2.72,2.54-1.91l24.91,14.26a6.09,6.09,0,0,1,2.54,4.85v8.91C128.65,97.08,127.51,97.94,126.11,97.13Z"/><path class="cls-2" d="M100,66.92a2.49,2.49,0,0,0-.63,1.85v8.91a6.06,6.06,0,0,0,2.54,4.85l24.91,14.26a1.79,1.79,0,0,0,1.23.27,1.51,1.51,0,0,1-1.9.07L101.2,82.86A6.09,6.09,0,0,1,98.66,78V69.1C98.66,67.84,99.19,67.05,100,66.92Z"/><path class="cls-5" d="M118.62,87.45l-2.29-1.32a1.34,1.34,0,0,1-.55-1.06V82.63c0-.41.25-.59.55-.42l2.29,1.32a1.34,1.34,0,0,1,.55,1.06V87C119.17,87.44,118.92,87.63,118.62,87.45Z"/><path class="cls-2" d="M111,83l-2.29-1.32a1.34,1.34,0,0,1-.55-1.06V78.22c0-.41.25-.59.55-.42L111,79.12a1.34,1.34,0,0,1,.55,1.06v2.44C111.53,83,111.28,83.21,111,83Z"/><path class="cls-14" d="M126.11,161.51,101.2,147.24a6.07,6.07,0,0,1-2.54-4.85v-8.9c0-1.87,1.14-2.73,2.54-1.92l24.91,14.26a6.09,6.09,0,0,1,2.54,4.85v8.91C128.65,161.46,127.51,162.32,126.11,161.51Z"/><path class="cls-2" d="M100,131.3a2.49,2.49,0,0,0-.63,1.85v8.91a6.06,6.06,0,0,0,2.54,4.85l24.91,14.27a1.77,1.77,0,0,0,1.23.26,1.51,1.51,0,0,1-1.9.07L101.2,147.24a6.07,6.07,0,0,1-2.54-4.85v-8.9C98.66,132.22,99.19,131.43,100,131.3Z"/><path class="cls-5" d="M118.62,151.83l-2.29-1.32a1.33,1.33,0,0,1-.55-1.06V147c0-.4.25-.59.55-.42l2.29,1.32a1.34,1.34,0,0,1,.55,1.06v2.44C119.17,151.82,118.92,152,118.62,151.83Z"/><path class="cls-2" d="M111,147.42l-2.29-1.32a1.34,1.34,0,0,1-.55-1.06V142.6c0-.41.25-.59.55-.42L111,143.5a1.34,1.34,0,0,1,.55,1.06V147C111.53,147.41,111.28,147.6,111,147.42Z"/><path class="cls-14" d="M126.11,193.7,101.2,179.44a6.1,6.1,0,0,1-2.54-4.85v-8.91c0-1.87,1.14-2.73,2.54-1.92L126.11,178a6.09,6.09,0,0,1,2.54,4.85v8.91C128.65,193.65,127.51,194.51,126.11,193.7Z"/><path class="cls-2" d="M100,163.49a2.49,2.49,0,0,0-.63,1.85v8.91a6.06,6.06,0,0,0,2.54,4.85l24.91,14.27a1.77,1.77,0,0,0,1.23.26,1.51,1.51,0,0,1-1.9.07L101.2,179.44a6.1,6.1,0,0,1-2.54-4.85v-8.91C98.66,164.41,99.19,163.62,100,163.49Z"/><path class="cls-5" d="M118.62,184l-2.29-1.32a1.33,1.33,0,0,1-.55-1.06V179.2c0-.4.25-.59.55-.41l2.29,1.31a1.34,1.34,0,0,1,.55,1.06v2.44C119.17,184,118.92,184.2,118.62,184Z"/><path class="cls-2" d="M111,179.61l-2.29-1.32a1.34,1.34,0,0,1-.55-1.06v-2.44c0-.41.25-.59.55-.42l2.29,1.32a1.34,1.34,0,0,1,.55,1.06v2.44C111.53,179.6,111.28,179.79,111,179.61Z"/><path class="cls-14" d="M126.11,129.32,101.2,115.05a6.07,6.07,0,0,1-2.54-4.85v-8.91c0-1.86,1.14-2.72,2.54-1.91l24.91,14.26a6.09,6.09,0,0,1,2.54,4.85v8.91C128.65,129.27,127.51,130.13,126.11,129.32Z"/><path class="cls-2" d="M100,99.11a2.49,2.49,0,0,0-.63,1.85v8.91a6.06,6.06,0,0,0,2.54,4.85L126.78,129a1.79,1.79,0,0,0,1.23.27,1.51,1.51,0,0,1-1.9.07L101.2,115.05a6.07,6.07,0,0,1-2.54-4.85v-8.91C98.66,100,99.19,99.24,100,99.11Z"/><path class="cls-5" d="M118.62,119.64l-2.29-1.32a1.34,1.34,0,0,1-.55-1.06v-2.44c0-.4.25-.59.55-.42l2.29,1.32a1.34,1.34,0,0,1,.55,1.06v2.44C119.17,119.63,118.92,119.82,118.62,119.64Z"/><path class="cls-2" d="M111,115.23l-2.29-1.32a1.34,1.34,0,0,1-.55-1.06v-2.44c0-.41.25-.59.55-.42l2.29,1.32a1.34,1.34,0,0,1,.55,1.06v2.44C111.53,115.22,111.28,115.4,111,115.23Z"/><path class="cls-8" d="M147.69,88l57.48-33.19a5.58,5.58,0,0,0,2.33-4.45v-11c0-1.71-1.05-2.5-2.33-1.76L147.69,70.84a5.56,5.56,0,0,0-2.33,4.45v11C145.36,88,146.4,88.75,147.69,88Z"/><path class="cls-15" d="M149.34,84.17l54.18-31.28a2.85,2.85,0,0,0,1.18-2.26V42.39c0-.87-.53-1.27-1.18-.9L149.34,72.77A2.85,2.85,0,0,0,148.16,75v8.24C148.16,84.14,148.69,84.54,149.34,84.17Z"/><path class="cls-7" d="M192.23,55.24l8.08-4.67a2.74,2.74,0,0,0,1.15-2.19h0c0-.85-.51-1.24-1.15-.87l-8.08,4.67a2.73,2.73,0,0,0-1.15,2.19h0C191.08,55.22,191.59,55.6,192.23,55.24Z"/><path class="cls-14" d="M185.34,57.69c0,.84.59,1.18,1.32.76A2.93,2.93,0,0,0,188,56.16c0-.85-.6-1.19-1.33-.77A2.93,2.93,0,0,0,185.34,57.69Z"/><path class="cls-14" d="M180.66,60.39c0,.84.6,1.18,1.33.76a2.92,2.92,0,0,0,1.32-2.29c0-.85-.59-1.19-1.32-.77A2.94,2.94,0,0,0,180.66,60.39Z"/><path class="cls-7" d="M176,63.08c0,.85.59,1.19,1.32.77a2.94,2.94,0,0,0,1.33-2.3c0-.84-.6-1.18-1.33-.76A2.92,2.92,0,0,0,176,63.08Z"/><path class="cls-14" d="M171.31,65.78c0,.85.6,1.19,1.33.77a2.93,2.93,0,0,0,1.32-2.3c0-.84-.59-1.18-1.32-.76A2.93,2.93,0,0,0,171.31,65.78Z"/><path class="cls-14" d="M151.62,79.58,154.34,78a1.74,1.74,0,0,0,.74-1.4V73.72c0-.55-.33-.8-.74-.56l-2.72,1.57a1.77,1.77,0,0,0-.74,1.41V79C150.88,79.56,151.21,79.81,151.62,79.58Z"/><path class="cls-8" d="M147.69,107.34l57.48-33.19a5.6,5.6,0,0,0,2.33-4.45v-11c0-1.72-1.05-2.5-2.33-1.76L147.69,90.16a5.59,5.59,0,0,0-2.33,4.45v11C145.36,107.29,146.4,108.08,147.69,107.34Z"/><path class="cls-15" d="M149.34,103.49l54.18-31.28A2.83,2.83,0,0,0,204.7,70V61.71c0-.87-.53-1.27-1.18-.89L149.34,92.1a2.85,2.85,0,0,0-1.18,2.26v8.24C148.16,103.47,148.69,103.87,149.34,103.49Z"/><path class="cls-7" d="M192.23,74.57l8.08-4.67a2.74,2.74,0,0,0,1.15-2.19h0c0-.84-.51-1.23-1.15-.86l-8.08,4.67a2.71,2.71,0,0,0-1.15,2.19h0C191.08,74.54,191.59,74.93,192.23,74.57Z"/><path class="cls-2" d="M185.34,77c0,.85.59,1.19,1.32.77a2.94,2.94,0,0,0,1.33-2.3c0-.84-.6-1.18-1.33-.76A2.92,2.92,0,0,0,185.34,77Z"/><path class="cls-14" d="M180.66,79.71c0,.85.6,1.19,1.33.77a2.93,2.93,0,0,0,1.32-2.3c0-.84-.59-1.18-1.32-.76A2.93,2.93,0,0,0,180.66,79.71Z"/><path class="cls-7" d="M176,82.41c0,.85.59,1.19,1.32.77a3,3,0,0,0,1.33-2.3c0-.84-.6-1.19-1.33-.76A2.92,2.92,0,0,0,176,82.41Z"/><path class="cls-14" d="M171.31,85.11c0,.85.6,1.19,1.33.77a2.94,2.94,0,0,0,1.32-2.3c0-.84-.59-1.19-1.32-.76A2.93,2.93,0,0,0,171.31,85.11Z"/><path class="cls-14" d="M151.62,98.9l2.72-1.57a1.74,1.74,0,0,0,.74-1.41V93c0-.54-.33-.79-.74-.55l-2.72,1.57a1.74,1.74,0,0,0-.74,1.41v2.88C150.88,98.89,151.21,99.14,151.62,98.9Z"/><path class="cls-8" d="M147.69,126.66l57.48-33.18A5.61,5.61,0,0,0,207.5,89v-11c0-1.72-1.05-2.51-2.33-1.76l-57.48,33.18a5.57,5.57,0,0,0-2.33,4.45v11C145.36,126.62,146.4,127.41,147.69,126.66Z"/><path class="cls-15" d="M149.34,122.82l54.18-31.28a2.85,2.85,0,0,0,1.18-2.26V81c0-.87-.53-1.27-1.18-.89l-54.18,31.28a2.85,2.85,0,0,0-1.18,2.26v8.24C148.16,122.8,148.69,123.2,149.34,122.82Z"/><path class="cls-7" d="M192.23,93.89l8.08-4.67A2.71,2.71,0,0,0,201.46,87h0c0-.84-.51-1.23-1.15-.87l-8.08,4.67a2.75,2.75,0,0,0-1.15,2.2h0C191.08,93.87,191.59,94.26,192.23,93.89Z"/><path class="cls-2" d="M185.34,96.34c0,.85.59,1.19,1.32.77a3,3,0,0,0,1.33-2.3c0-.84-.6-1.19-1.33-.76A2.92,2.92,0,0,0,185.34,96.34Z"/><path class="cls-14" d="M180.66,99c0,.85.6,1.19,1.33.77a3,3,0,0,0,1.32-2.3c0-.85-.59-1.19-1.32-.77A3,3,0,0,0,180.66,99Z"/><path class="cls-7" d="M176,101.74c0,.84.59,1.19,1.32.76a2.93,2.93,0,0,0,1.33-2.29c0-.85-.6-1.19-1.33-.77A2.94,2.94,0,0,0,176,101.74Z"/><path class="cls-14" d="M171.31,104.44c0,.84.6,1.19,1.33.76a2.92,2.92,0,0,0,1.32-2.29c0-.85-.59-1.19-1.32-.77A3,3,0,0,0,171.31,104.44Z"/><path class="cls-14" d="M151.62,118.23l2.72-1.57a1.77,1.77,0,0,0,.74-1.41v-2.88c0-.54-.33-.79-.74-.56l-2.72,1.58a1.74,1.74,0,0,0-.74,1.4v2.88C150.88,118.22,151.21,118.47,151.62,118.23Z"/><path class="cls-8" d="M147.69,146l57.48-33.19a5.58,5.58,0,0,0,2.33-4.45v-11c0-1.71-1.05-2.5-2.33-1.76l-57.48,33.19a5.56,5.56,0,0,0-2.33,4.45v11C145.36,145.94,146.4,146.73,147.69,146Z"/><path class="cls-15" d="M149.34,142.15l54.18-31.28a2.85,2.85,0,0,0,1.18-2.26v-8.24c0-.87-.53-1.27-1.18-.89l-54.18,31.28a2.81,2.81,0,0,0-1.18,2.25v8.24C148.16,142.12,148.69,142.52,149.34,142.15Z"/><path class="cls-7" d="M192.23,113.22l8.08-4.67a2.73,2.73,0,0,0,1.15-2.19h0c0-.85-.51-1.23-1.15-.87l-8.08,4.67a2.74,2.74,0,0,0-1.15,2.19h0C191.08,113.2,191.59,113.59,192.23,113.22Z"/><path class="cls-14" d="M185.34,115.67c0,.84.59,1.19,1.32.76a2.93,2.93,0,0,0,1.33-2.29c0-.85-.6-1.19-1.33-.77A2.94,2.94,0,0,0,185.34,115.67Z"/><path class="cls-14" d="M180.66,118.37c0,.84.6,1.18,1.33.76a2.92,2.92,0,0,0,1.32-2.29c0-.85-.59-1.19-1.32-.77A2.94,2.94,0,0,0,180.66,118.37Z"/><path class="cls-7" d="M176,121.07c0,.84.59,1.18,1.32.76a2.93,2.93,0,0,0,1.33-2.29c0-.85-.6-1.19-1.33-.77A2.93,2.93,0,0,0,176,121.07Z"/><path class="cls-14" d="M171.31,123.77c0,.84.6,1.18,1.33.76a2.92,2.92,0,0,0,1.32-2.29c0-.85-.59-1.19-1.32-.77A2.94,2.94,0,0,0,171.31,123.77Z"/><path class="cls-7" d="M151.62,137.56l2.72-1.57a1.77,1.77,0,0,0,.74-1.41V131.7c0-.55-.33-.79-.74-.56l-2.72,1.57a1.77,1.77,0,0,0-.74,1.41V137C150.88,137.54,151.21,137.79,151.62,137.56Z"/><path class="cls-8" d="M147.69,165.32l57.48-33.19a5.58,5.58,0,0,0,2.33-4.45v-11c0-1.71-1.05-2.5-2.33-1.76l-57.48,33.19a5.56,5.56,0,0,0-2.33,4.45v11C145.36,165.27,146.4,166.06,147.69,165.32Z"/><path class="cls-15" d="M149.34,161.47l54.18-31.28a2.81,2.81,0,0,0,1.18-2.25V119.7c0-.87-.53-1.27-1.18-.9l-54.18,31.28a2.85,2.85,0,0,0-1.18,2.26v8.24C148.16,161.45,148.69,161.85,149.34,161.47Z"/><path class="cls-7" d="M192.23,132.55l8.08-4.67a2.74,2.74,0,0,0,1.15-2.19h0c0-.85-.51-1.24-1.15-.87l-8.08,4.67a2.71,2.71,0,0,0-1.15,2.19h0C191.08,132.52,191.59,132.91,192.23,132.55Z"/><path class="cls-14" d="M185.34,135c0,.84.59,1.18,1.32.76a2.94,2.94,0,0,0,1.33-2.3c0-.84-.6-1.18-1.33-.76A2.93,2.93,0,0,0,185.34,135Z"/><path class="cls-2" d="M180.66,137.69c0,.85.6,1.19,1.33.77a2.93,2.93,0,0,0,1.32-2.3c0-.84-.59-1.18-1.32-.76A2.93,2.93,0,0,0,180.66,137.69Z"/><path class="cls-7" d="M176,140.39c0,.85.59,1.19,1.32.77a2.94,2.94,0,0,0,1.33-2.3c0-.84-.6-1.18-1.33-.76A2.92,2.92,0,0,0,176,140.39Z"/><path class="cls-2" d="M171.31,143.09c0,.85.6,1.19,1.33.77a2.93,2.93,0,0,0,1.32-2.3c0-.84-.59-1.19-1.32-.76A2.93,2.93,0,0,0,171.31,143.09Z"/><path class="cls-7" d="M151.62,156.89l2.72-1.58a1.74,1.74,0,0,0,.74-1.4V151c0-.54-.33-.79-.74-.55L151.62,152a1.74,1.74,0,0,0-.74,1.41v2.88C150.88,156.87,151.21,157.12,151.62,156.89Z"/><path class="cls-8" d="M147.69,184.64l57.48-33.18A5.6,5.6,0,0,0,207.5,147v-11c0-1.72-1.05-2.51-2.33-1.76l-57.48,33.18a5.57,5.57,0,0,0-2.33,4.45v11C145.36,184.6,146.4,185.39,147.69,184.64Z"/><path class="cls-15" d="M149.34,180.8l54.18-31.28a2.85,2.85,0,0,0,1.18-2.26V139c0-.87-.53-1.27-1.18-.89l-54.18,31.28a2.85,2.85,0,0,0-1.18,2.26v8.24C148.16,180.78,148.69,181.18,149.34,180.8Z"/><path class="cls-7" d="M192.23,151.87l8.08-4.66a2.75,2.75,0,0,0,1.15-2.2h0c0-.84-.51-1.23-1.15-.86l-8.08,4.66a2.75,2.75,0,0,0-1.15,2.2h0C191.08,151.85,191.59,152.24,192.23,151.87Z"/><path class="cls-14" d="M185.34,154.32c0,.85.59,1.19,1.32.77a3,3,0,0,0,1.33-2.3c0-.84-.6-1.19-1.33-.76A2.92,2.92,0,0,0,185.34,154.32Z"/><path class="cls-14" d="M180.66,157c0,.85.6,1.19,1.33.77a2.94,2.94,0,0,0,1.32-2.3c0-.84-.59-1.19-1.32-.76A2.93,2.93,0,0,0,180.66,157Z"/><path class="cls-7" d="M176,159.72c0,.85.59,1.19,1.32.77a3,3,0,0,0,1.33-2.3c0-.84-.6-1.19-1.33-.76A2.92,2.92,0,0,0,176,159.72Z"/><path class="cls-14" d="M171.31,162.42c0,.84.6,1.19,1.33.76a2.92,2.92,0,0,0,1.32-2.29c0-.85-.59-1.19-1.32-.77A3,3,0,0,0,171.31,162.42Z"/><path class="cls-14" d="M151.62,176.21l2.72-1.57a1.74,1.74,0,0,0,.74-1.41v-2.88c0-.54-.33-.79-.74-.56l-2.72,1.58a1.74,1.74,0,0,0-.74,1.4v2.89C150.88,176.2,151.21,176.45,151.62,176.21Z"/><path class="cls-8" d="M147.69,204l57.48-33.18a5.61,5.61,0,0,0,2.33-4.45v-11c0-1.72-1.05-2.51-2.33-1.77L147.69,186.8a5.56,5.56,0,0,0-2.33,4.45v11C145.36,203.93,146.4,204.71,147.69,204Z"/><path class="cls-15" d="M149.34,200.13l54.18-31.28a2.85,2.85,0,0,0,1.18-2.26v-8.24c0-.87-.53-1.27-1.18-.89l-54.18,31.28a2.82,2.82,0,0,0-1.18,2.26v8.23C148.16,200.11,148.69,200.51,149.34,200.13Z"/><path class="cls-7" d="M192.23,171.2l8.08-4.67a2.71,2.71,0,0,0,1.15-2.19h0c0-.84-.51-1.23-1.15-.87l-8.08,4.67a2.74,2.74,0,0,0-1.15,2.19h0C191.08,171.18,191.59,171.57,192.23,171.2Z"/><path class="cls-2" d="M183.86,174.7c0,1.59,1.12,2.24,2.5,1.44a5.52,5.52,0,0,0,2.51-4.33c0-1.6-1.12-2.25-2.51-1.45A5.54,5.54,0,0,0,183.86,174.7Z"/><path class="cls-14" d="M174.18,180.36c0,.85.59,1.19,1.32.77a3,3,0,0,0,1.33-2.3c0-.84-.6-1.19-1.33-.76A2.92,2.92,0,0,0,174.18,180.36Z"/><path class="cls-7" d="M169.5,183.06c0,.85.59,1.19,1.33.77a2.94,2.94,0,0,0,1.32-2.3c0-.84-.59-1.19-1.32-.76A2.91,2.91,0,0,0,169.5,183.06Z"/><path class="cls-14" d="M164.83,185.76c0,.84.59,1.19,1.32.76a2.93,2.93,0,0,0,1.33-2.29c0-.85-.6-1.19-1.33-.77A2.94,2.94,0,0,0,164.83,185.76Z"/><path class="cls-7" d="M151.62,195.54l2.72-1.57a1.77,1.77,0,0,0,.74-1.41v-2.88c0-.54-.33-.79-.74-.56l-2.72,1.57a1.77,1.77,0,0,0-.74,1.41V195C150.88,195.53,151.21,195.77,151.62,195.54Z"/><path class="cls-16" d="M142.9,66.14l65.81-37.53c2.41-1.39,2.11-3.81-.67-5.42L170.17,1.33c-2.78-1.61-7-1.78-9.39-.39L95,38.47c-2.4,1.39-2.1,3.81.68,5.42l37.87,21.86C136.28,67.36,140.49,67.53,142.9,66.14Z"/><path class="cls-14" d="M170.83,23.82a3.81,3.81,0,0,0-3.42,0L135.18,42.48c-1,.55-1,1.43,0,2a3.73,3.73,0,0,0,3.41,0L170.83,25.8A1,1,0,0,0,170.83,23.82Z"/><path class="cls-4" d="M224.7,282.13l65.81-37.52c2.41-1.39,2.11-3.82-.67-5.43L252,217.32c-2.78-1.6-7-1.78-9.39-.39l-65.82,37.53c-2.4,1.39-2.1,3.82.68,5.42l37.87,21.87C218.09,283.35,222.29,283.52,224.7,282.13Z"/><path class="cls-2" d="M220.61,273.76a12.7,12.7,0,0,1-6.19-1.56l-37.86-21.86c-2-1.17-3.19-2.85-3.19-4.6a4.56,4.56,0,0,1,2.51-3.89l65.82-37.53c2.94-1.69,7.84-1.52,11.15.39l37.87,21.87c2,1.17,3.18,2.84,3.18,4.59a4.55,4.55,0,0,1-2.5,3.89l-65.82,37.53A10.14,10.14,0,0,1,220.61,273.76Zm26-67.07a6.54,6.54,0,0,0-3.17.7l-65.82,37.53c-.46.26-.73.57-.73.82s.43,1,1.41,1.53l37.87,21.87c2.21,1.27,5.77,1.46,7.62.39h0L289.64,232c.45-.26.73-.57.73-.82s-.44-1-1.41-1.53l-37.87-21.86A9.23,9.23,0,0,0,246.63,206.69Z"/><path class="cls-17" d="M175.15,233.88h0V90.65l56.94-14.91,10.49-6c2.41-1.39,6.61-1.22,9.39.39l9.79,5.65,30.37,0-9,138.27a2.7,2.7,0,0,1-1.61,2.51L224.7,259.37c-2.41,1.39-6.61,1.21-9.39-.39l-37.87-21.86C175.84,236.19,175.06,235,175.15,233.88Z"/><path class="cls-7" d="M246.94,68.76a10.82,10.82,0,0,1,5,1.32l9.79,5.65,30.37,0V219.32a2.75,2.75,0,0,1-1.62,2.52L224.7,259.37a8.49,8.49,0,0,1-4.36.93l-.68-144.51Z"/><path class="cls-8" d="M224.09,259.66a10.71,10.71,0,0,1-7.5-.08V114.08h7.5Z"/><path class="cls-18" d="M224.7,115.81l65.81-37.53c2.41-1.39,2.11-3.82-.67-5.42L252,51c-2.78-1.6-7-1.78-9.39-.39L176.76,88.13c-2.4,1.39-2.1,3.82.68,5.42l37.87,21.87C218.09,117,222.29,117.2,224.7,115.81Z"/><path class="cls-13" d="M177.44,90.89l37.87,21.86c2.78,1.61,7,1.78,9.39.39l65.81-37.53a3.61,3.61,0,0,0,1.2-1.06c.83,1.33.46,2.77-1.2,3.73L224.7,115.81c-2.41,1.39-6.61,1.21-9.39-.39L177.44,93.55c-2.16-1.24-2.82-3-1.88-4.35A5.33,5.33,0,0,0,177.44,90.89Z"/><path class="cls-19" d="M222.84,100.6l43.81-25.4c1.13-.65,1-1.79-.31-2.54L248.62,62.43a4.9,4.9,0,0,0-4.4-.18l-43.81,25.4c-1.13.65-1,1.78.31,2.53l17.72,10.23A4.87,4.87,0,0,0,222.84,100.6Z"/><path class="cls-7" d="M246.49,76.34,249,74.87c.16-.09.14-.25,0-.35l-2.45-1.42a.69.69,0,0,0-.61,0l-2.54,1.47c-.16.09-.14.24,0,.35l2.45,1.41A.66.66,0,0,0,246.49,76.34Z"/><path class="cls-7" d="M238,81.21l2.54-1.46c.15-.09.13-.25-.05-.35L238.05,78a.67.67,0,0,0-.6,0l-2.54,1.46c-.16.09-.14.25,0,.35l2.45,1.42A.69.69,0,0,0,238,81.21Z"/><path class="cls-7" d="M229.53,86.09l2.54-1.46c.15-.09.13-.25,0-.35l-2.45-1.42a.69.69,0,0,0-.61,0l-2.54,1.47c-.15.09-.13.25.05.35l2.45,1.42A.69.69,0,0,0,229.53,86.09Z"/><path class="cls-7" d="M221,91l2.54-1.47c.16-.09.14-.24,0-.35l-2.45-1.41a.66.66,0,0,0-.61,0l-2.54,1.47c-.16.09-.14.25,0,.35l2.46,1.41A.64.64,0,0,0,221,91Z"/><path class="cls-8" d="M266.65,75.2l0,0a2.93,2.93,0,0,0-.26-.19L248.62,64.81a4.9,4.9,0,0,0-4.4-.18L200.46,90c-1-.74-1.09-1.75-.05-2.35l43.81-25.4a4.9,4.9,0,0,1,4.4.18l17.72,10.23C267.64,73.41,267.78,74.55,266.65,75.2Z"/><path class="cls-14" d="M207.91,144.18,183,129.92a6.09,6.09,0,0,1-2.54-4.85v-8.91c0-1.87,1.14-2.73,2.54-1.92l24.91,14.26a6.07,6.07,0,0,1,2.54,4.85v8.91C210.45,144.13,209.32,145,207.91,144.18Z"/><path class="cls-2" d="M181.77,114a2.45,2.45,0,0,0-.64,1.85v8.91a6.07,6.07,0,0,0,2.54,4.85l24.91,14.27a1.84,1.84,0,0,0,1.23.27,1.51,1.51,0,0,1-1.9.06L183,129.92a6.09,6.09,0,0,1-2.54-4.85v-8.91C180.46,114.89,181,114.1,181.77,114Z"/><path class="cls-5" d="M200.42,134.5l-2.29-1.31a1.34,1.34,0,0,1-.55-1.06v-2.44c0-.41.25-.6.55-.42l2.29,1.32a1.3,1.3,0,0,1,.55,1.06v2.44C201,134.49,200.73,134.68,200.42,134.5Z"/><path class="cls-2" d="M192.78,130.09l-2.29-1.32a1.33,1.33,0,0,1-.55-1.05v-2.45c0-.4.25-.59.55-.41l2.29,1.32a1.33,1.33,0,0,1,.55,1v2.44C193.33,130.08,193.08,130.27,192.78,130.09Z"/><path class="cls-14" d="M207.91,208.56,183,194.3a6.09,6.09,0,0,1-2.54-4.85v-8.91c0-1.87,1.14-2.73,2.54-1.92l24.91,14.26a6.08,6.08,0,0,1,2.54,4.86v8.9C210.45,208.51,209.32,209.37,207.91,208.56Z"/><path class="cls-2" d="M181.77,178.35a2.46,2.46,0,0,0-.64,1.86v8.9a6.1,6.1,0,0,0,2.54,4.86l24.91,14.26a1.84,1.84,0,0,0,1.23.27,1.51,1.51,0,0,1-1.9.06L183,194.3a6.09,6.09,0,0,1-2.54-4.85v-8.91C180.46,179.27,181,178.48,181.77,178.35Z"/><path class="cls-5" d="M200.42,198.89l-2.29-1.32a1.34,1.34,0,0,1-.55-1.06v-2.44c0-.41.25-.6.55-.42l2.29,1.32A1.32,1.32,0,0,1,201,196v2.44C201,198.87,200.73,199.06,200.42,198.89Z"/><path class="cls-2" d="M192.78,194.47l-2.29-1.32a1.33,1.33,0,0,1-.55-1.05v-2.44c0-.41.25-.6.55-.42l2.29,1.32a1.33,1.33,0,0,1,.55,1.05v2.45C193.33,194.46,193.08,194.65,192.78,194.47Z"/><path class="cls-14" d="M207.91,240.75,183,226.49a6.09,6.09,0,0,1-2.54-4.85v-8.91c0-1.87,1.14-2.73,2.54-1.92l24.91,14.27a6,6,0,0,1,2.54,4.85v8.9C210.45,240.7,209.32,241.56,207.91,240.75Z"/><path class="cls-2" d="M181.77,210.54a2.46,2.46,0,0,0-.64,1.86v8.91a6.1,6.1,0,0,0,2.54,4.85l24.91,14.26a1.84,1.84,0,0,0,1.23.27,1.51,1.51,0,0,1-1.9.06L183,226.49a6.09,6.09,0,0,1-2.54-4.85v-8.91C180.46,211.46,181,210.67,181.77,210.54Z"/><path class="cls-5" d="M200.42,231.08l-2.29-1.32a1.34,1.34,0,0,1-.55-1.06v-2.44c0-.41.25-.6.55-.42l2.29,1.32a1.32,1.32,0,0,1,.55,1.06v2.44C201,231.06,200.73,231.25,200.42,231.08Z"/><path class="cls-2" d="M192.78,226.66l-2.29-1.32a1.33,1.33,0,0,1-.55-1.05v-2.44c0-.41.25-.6.55-.42l2.29,1.32a1.33,1.33,0,0,1,.55,1.05v2.45C193.33,226.65,193.08,226.84,192.78,226.66Z"/><path class="cls-14" d="M207.91,176.37,183,162.11a6.09,6.09,0,0,1-2.54-4.85v-8.91c0-1.87,1.14-2.73,2.54-1.92l24.91,14.26a6.07,6.07,0,0,1,2.54,4.85v8.91C210.45,176.32,209.32,177.18,207.91,176.37Z"/><path class="cls-2" d="M181.77,146.16a2.46,2.46,0,0,0-.64,1.86v8.9a6.07,6.07,0,0,0,2.54,4.85L208.58,176a1.84,1.84,0,0,0,1.23.27,1.51,1.51,0,0,1-1.9.06L183,162.11a6.09,6.09,0,0,1-2.54-4.85v-8.91C180.46,147.08,181,146.29,181.77,146.16Z"/><path class="cls-5" d="M200.42,166.69l-2.29-1.31a1.34,1.34,0,0,1-.55-1.06v-2.44c0-.41.25-.6.55-.42l2.29,1.32a1.3,1.3,0,0,1,.55,1.06v2.44C201,166.68,200.73,166.87,200.42,166.69Z"/><path class="cls-2" d="M192.78,162.28,190.49,161a1.33,1.33,0,0,1-.55-1.05v-2.44c0-.41.25-.6.55-.42l2.29,1.32a1.33,1.33,0,0,1,.55,1v2.44C193.33,162.27,193.08,162.46,192.78,162.28Z"/><path class="cls-8" d="M229.49,135.06,287,101.88a5.59,5.59,0,0,0,2.33-4.45v-11c0-1.72-1-2.51-2.33-1.76l-57.48,33.18a5.6,5.6,0,0,0-2.33,4.45v11C227.16,135,228.21,135.81,229.49,135.06Z"/><path class="cls-15" d="M231.14,131.22l54.18-31.28a2.85,2.85,0,0,0,1.18-2.26V89.44c0-.87-.53-1.27-1.18-.89l-54.18,31.28a2.85,2.85,0,0,0-1.18,2.26v8.24C230,131.2,230.49,131.6,231.14,131.22Z"/><path class="cls-7" d="M274,102.29l8.08-4.67a2.71,2.71,0,0,0,1.15-2.19h0c0-.84-.51-1.23-1.15-.87L274,99.23a2.77,2.77,0,0,0-1.15,2.2h0C272.88,102.27,273.4,102.66,274,102.29Z"/><path class="cls-14" d="M267.14,104.74c0,.85.59,1.19,1.32.77a2.92,2.92,0,0,0,1.33-2.3c0-.84-.59-1.19-1.33-.76A2.92,2.92,0,0,0,267.14,104.74Z"/><path class="cls-14" d="M262.46,107.44c0,.85.6,1.19,1.33.77a3,3,0,0,0,1.32-2.3c0-.85-.59-1.19-1.32-.77A3,3,0,0,0,262.46,107.44Z"/><path class="cls-7" d="M257.79,110.14c0,.84.59,1.19,1.32.76a2.91,2.91,0,0,0,1.33-2.29c0-.85-.59-1.19-1.33-.77A2.94,2.94,0,0,0,257.79,110.14Z"/><path class="cls-14" d="M253.11,112.84c0,.84.6,1.19,1.33.76a2.92,2.92,0,0,0,1.32-2.29c0-.85-.59-1.19-1.32-.77A3,3,0,0,0,253.11,112.84Z"/><path class="cls-14" d="M233.42,126.63l2.72-1.57a1.77,1.77,0,0,0,.74-1.41v-2.88c0-.54-.33-.79-.74-.56l-2.72,1.58a1.74,1.74,0,0,0-.74,1.4v2.88C232.68,126.62,233,126.87,233.42,126.63Z"/><path class="cls-8" d="M229.49,154.39,287,121.2a5.56,5.56,0,0,0,2.33-4.45v-11c0-1.71-1-2.5-2.33-1.76l-57.48,33.19a5.58,5.58,0,0,0-2.33,4.45v11C227.16,154.34,228.21,155.13,229.49,154.39Z"/><path class="cls-15" d="M231.14,150.55l54.18-31.28A2.85,2.85,0,0,0,286.5,117v-8.24c0-.87-.53-1.27-1.18-.89l-54.18,31.28a2.81,2.81,0,0,0-1.18,2.25v8.24C230,150.52,230.49,150.92,231.14,150.55Z"/><path class="cls-7" d="M274,121.62l8.08-4.67a2.73,2.73,0,0,0,1.15-2.19h0c0-.85-.51-1.23-1.15-.87L274,118.56a2.77,2.77,0,0,0-1.15,2.19h0C272.88,121.6,273.4,122,274,121.62Z"/><path class="cls-2" d="M267.14,124.07c0,.84.59,1.19,1.32.76a2.91,2.91,0,0,0,1.33-2.29c0-.85-.59-1.19-1.33-.77A2.94,2.94,0,0,0,267.14,124.07Z"/><path class="cls-14" d="M262.46,126.77c0,.84.6,1.18,1.33.76a2.92,2.92,0,0,0,1.32-2.29c0-.85-.59-1.19-1.32-.77A2.94,2.94,0,0,0,262.46,126.77Z"/><path class="cls-7" d="M257.79,129.47c0,.84.59,1.18,1.32.76a2.91,2.91,0,0,0,1.33-2.29c0-.85-.59-1.19-1.33-.77A2.93,2.93,0,0,0,257.79,129.47Z"/><path class="cls-14" d="M253.11,132.17c0,.84.6,1.18,1.33.76a2.92,2.92,0,0,0,1.32-2.29c0-.85-.59-1.19-1.32-.77A2.94,2.94,0,0,0,253.11,132.17Z"/><path class="cls-14" d="M233.42,146l2.72-1.57a1.77,1.77,0,0,0,.74-1.41V140.1c0-.55-.33-.79-.74-.56l-2.72,1.57a1.77,1.77,0,0,0-.74,1.41v2.88C232.68,145.94,233,146.19,233.42,146Z"/><path class="cls-8" d="M229.49,173.72,287,140.53a5.56,5.56,0,0,0,2.33-4.45v-11c0-1.71-1-2.5-2.33-1.76l-57.48,33.19a5.58,5.58,0,0,0-2.33,4.45v11C227.16,173.67,228.21,174.46,229.49,173.72Z"/><path class="cls-15" d="M231.14,169.87l54.18-31.28a2.81,2.81,0,0,0,1.18-2.25V128.1c0-.87-.53-1.27-1.18-.9l-54.18,31.28a2.85,2.85,0,0,0-1.18,2.26V169C230,169.85,230.49,170.25,231.14,169.87Z"/><path class="cls-7" d="M274,141l8.08-4.67a2.74,2.74,0,0,0,1.15-2.19h0c0-.85-.51-1.24-1.15-.87L274,137.89a2.74,2.74,0,0,0-1.15,2.19h0C272.88,140.92,273.4,141.31,274,141Z"/><path class="cls-2" d="M267.14,143.4c0,.84.59,1.18,1.32.76a2.91,2.91,0,0,0,1.33-2.29c0-.85-.59-1.19-1.33-.77A2.93,2.93,0,0,0,267.14,143.4Z"/><path class="cls-14" d="M262.46,146.09c0,.85.6,1.19,1.33.77a2.93,2.93,0,0,0,1.32-2.3c0-.84-.59-1.18-1.32-.76A2.93,2.93,0,0,0,262.46,146.09Z"/><path class="cls-7" d="M257.79,148.79c0,.85.59,1.19,1.32.77a2.91,2.91,0,0,0,1.33-2.3c0-.84-.59-1.18-1.33-.76A2.92,2.92,0,0,0,257.79,148.79Z"/><path class="cls-14" d="M253.11,151.49c0,.85.6,1.19,1.33.77a2.93,2.93,0,0,0,1.32-2.3c0-.84-.59-1.19-1.32-.76A2.93,2.93,0,0,0,253.11,151.49Z"/><path class="cls-14" d="M233.42,165.29l2.72-1.58a1.74,1.74,0,0,0,.74-1.4v-2.89c0-.54-.33-.79-.74-.55l-2.72,1.57a1.74,1.74,0,0,0-.74,1.41v2.88C232.68,165.27,233,165.52,233.42,165.29Z"/><path class="cls-8" d="M229.49,193,287,159.86a5.57,5.57,0,0,0,2.33-4.45v-11c0-1.72-1-2.51-2.33-1.76l-57.48,33.18a5.6,5.6,0,0,0-2.33,4.45v11C227.16,193,228.21,193.79,229.49,193Z"/><path class="cls-15" d="M231.14,189.2l54.18-31.28a2.85,2.85,0,0,0,1.18-2.26v-8.24c0-.87-.53-1.27-1.18-.89l-54.18,31.28a2.85,2.85,0,0,0-1.18,2.26v8.24C230,189.18,230.49,189.58,231.14,189.2Z"/><path class="cls-7" d="M274,160.27l8.08-4.66a2.75,2.75,0,0,0,1.15-2.2h0c0-.84-.51-1.23-1.15-.86L274,157.21a2.77,2.77,0,0,0-1.15,2.2h0C272.88,160.25,273.4,160.64,274,160.27Z"/><path class="cls-14" d="M267.14,162.72c0,.85.59,1.19,1.32.77a2.92,2.92,0,0,0,1.33-2.3c0-.84-.59-1.19-1.33-.76A2.92,2.92,0,0,0,267.14,162.72Z"/><path class="cls-14" d="M262.46,165.42c0,.85.6,1.19,1.33.77a2.94,2.94,0,0,0,1.32-2.3c0-.84-.59-1.19-1.32-.76A2.93,2.93,0,0,0,262.46,165.42Z"/><path class="cls-7" d="M257.79,168.12c0,.85.59,1.19,1.32.77a2.92,2.92,0,0,0,1.33-2.3c0-.84-.59-1.19-1.33-.76A2.92,2.92,0,0,0,257.79,168.12Z"/><path class="cls-14" d="M253.11,170.82c0,.84.6,1.19,1.33.76a2.92,2.92,0,0,0,1.32-2.29c0-.85-.59-1.19-1.32-.77A3,3,0,0,0,253.11,170.82Z"/><path class="cls-7" d="M233.42,184.61l2.72-1.57a1.74,1.74,0,0,0,.74-1.41v-2.88c0-.54-.33-.79-.74-.56l-2.72,1.58a1.74,1.74,0,0,0-.74,1.4v2.89C232.68,184.6,233,184.85,233.42,184.61Z"/><path class="cls-8" d="M229.49,212.37,287,179.19a5.59,5.59,0,0,0,2.33-4.45v-11c0-1.72-1-2.51-2.33-1.77L229.49,195.2a5.58,5.58,0,0,0-2.33,4.45v11C227.16,212.33,228.21,213.11,229.49,212.37Z"/><path class="cls-15" d="M231.14,208.53l54.18-31.28A2.85,2.85,0,0,0,286.5,175v-8.24c0-.87-.53-1.27-1.18-.89l-54.18,31.28A2.82,2.82,0,0,0,230,199.4v8.23C230,208.51,230.49,208.9,231.14,208.53Z"/><path class="cls-7" d="M274,179.6l8.08-4.67a2.71,2.71,0,0,0,1.15-2.19h0c0-.84-.51-1.23-1.15-.87L274,176.54a2.77,2.77,0,0,0-1.15,2.19h0C272.88,179.58,273.4,180,274,179.6Z"/><path class="cls-14" d="M267.14,182.05c0,.84.59,1.19,1.32.76a2.91,2.91,0,0,0,1.33-2.29c0-.85-.59-1.19-1.33-.77A2.94,2.94,0,0,0,267.14,182.05Z"/><path class="cls-2" d="M262.46,184.75c0,.84.6,1.19,1.33.76a2.92,2.92,0,0,0,1.32-2.29c0-.85-.59-1.19-1.32-.77A3,3,0,0,0,262.46,184.75Z"/><path class="cls-7" d="M257.79,187.45c0,.84.59,1.19,1.32.76a2.91,2.91,0,0,0,1.33-2.29c0-.85-.59-1.19-1.33-.77A2.93,2.93,0,0,0,257.79,187.45Z"/><path class="cls-2" d="M253.11,190.15c0,.84.6,1.18,1.33.76a2.92,2.92,0,0,0,1.32-2.29c0-.85-.59-1.19-1.32-.77A2.94,2.94,0,0,0,253.11,190.15Z"/><path class="cls-7" d="M233.42,203.94l2.72-1.57a1.77,1.77,0,0,0,.74-1.41v-2.88c0-.54-.33-.79-.74-.56l-2.72,1.57a1.77,1.77,0,0,0-.74,1.41v2.88C232.68,203.93,233,204.17,233.42,203.94Z"/><path class="cls-8" d="M229.49,231.7,287,198.51a5.56,5.56,0,0,0,2.33-4.45v-11c0-1.71-1-2.5-2.33-1.76l-57.48,33.19a5.58,5.58,0,0,0-2.33,4.45v11C227.16,231.65,228.21,232.44,229.49,231.7Z"/><path class="cls-15" d="M231.14,227.86l54.18-31.28a2.85,2.85,0,0,0,1.18-2.26v-8.24c0-.87-.53-1.27-1.18-.9l-54.18,31.28a2.85,2.85,0,0,0-1.18,2.26V227C230,227.83,230.49,228.23,231.14,227.86Z"/><path class="cls-7" d="M274,198.93l8.08-4.67a2.74,2.74,0,0,0,1.15-2.19h0c0-.85-.51-1.24-1.15-.87L274,195.87a2.75,2.75,0,0,0-1.15,2.19h0C272.88,198.91,273.4,199.29,274,198.93Z"/><path class="cls-14" d="M267.14,201.38c0,.84.59,1.18,1.32.76a2.91,2.91,0,0,0,1.33-2.29c0-.85-.59-1.19-1.33-.77A2.93,2.93,0,0,0,267.14,201.38Z"/><path class="cls-14" d="M262.46,204.08c0,.84.6,1.18,1.33.76a2.92,2.92,0,0,0,1.32-2.29c0-.85-.59-1.19-1.32-.77A2.94,2.94,0,0,0,262.46,204.08Z"/><path class="cls-7" d="M257.79,206.77c0,.85.59,1.19,1.32.77a2.91,2.91,0,0,0,1.33-2.3c0-.84-.59-1.18-1.33-.76A2.92,2.92,0,0,0,257.79,206.77Z"/><path class="cls-14" d="M253.11,209.47c0,.85.6,1.19,1.33.77a2.93,2.93,0,0,0,1.32-2.3c0-.84-.59-1.18-1.32-.76A2.93,2.93,0,0,0,253.11,209.47Z"/><path class="cls-14" d="M233.42,223.27l2.72-1.58a1.74,1.74,0,0,0,.74-1.4v-2.88c0-.55-.33-.8-.74-.56l-2.72,1.57a1.77,1.77,0,0,0-.74,1.41v2.88C232.68,223.25,233,223.5,233.42,223.27Z"/><path class="cls-8" d="M229.49,251,287,217.84a5.57,5.57,0,0,0,2.33-4.45v-11c0-1.72-1-2.5-2.33-1.76l-57.48,33.18a5.61,5.61,0,0,0-2.33,4.45v11C227.16,251,228.21,251.77,229.49,251Z"/><path class="cls-15" d="M231.14,247.18l54.18-31.28a2.83,2.83,0,0,0,1.18-2.26V205.4c0-.87-.53-1.27-1.18-.89l-54.18,31.28a2.85,2.85,0,0,0-1.18,2.26v8.24C230,247.16,230.49,247.56,231.14,247.18Z"/><path class="cls-7" d="M274,218.26l8.08-4.67a2.74,2.74,0,0,0,1.15-2.19h0c0-.85-.51-1.24-1.15-.87L274,215.2a2.74,2.74,0,0,0-1.15,2.19h0C272.88,218.23,273.4,218.62,274,218.26Z"/><path class="cls-2" d="M265.66,221.75c0,1.6,1.12,2.24,2.5,1.44a5.49,5.49,0,0,0,2.51-4.33c0-1.6-1.12-2.24-2.51-1.45A5.54,5.54,0,0,0,265.66,221.75Z"/><path class="cls-14" d="M256,227.42c0,.84.59,1.18,1.32.76a2.91,2.91,0,0,0,1.33-2.29c0-.85-.59-1.19-1.33-.77A2.93,2.93,0,0,0,256,227.42Z"/><path class="cls-7" d="M251.3,230.12c0,.84.6,1.18,1.33.76a2.93,2.93,0,0,0,1.32-2.3c0-.84-.59-1.18-1.32-.76A2.94,2.94,0,0,0,251.3,230.12Z"/><path class="cls-14" d="M246.63,232.81c0,.85.59,1.19,1.32.77a2.91,2.91,0,0,0,1.33-2.3c0-.84-.59-1.18-1.33-.76A2.92,2.92,0,0,0,246.63,232.81Z"/><path class="cls-7" d="M233.42,242.59l2.72-1.57a1.74,1.74,0,0,0,.74-1.41v-2.88c0-.54-.33-.79-.74-.55l-2.72,1.57a1.74,1.74,0,0,0-.74,1.41V242C232.68,242.58,233,242.83,233.42,242.59Z"/><path class="cls-4" d="M66.16,269.56l-31.11-18c-1.91-1.1-1.67-3,.53-4.3l30-17.34a8.3,8.3,0,0,1,7.45-.31l31.11,18c1.91,1.1,1.67,3-.53,4.3l-30,17.35A8.3,8.3,0,0,1,66.16,269.56Z"/><path class="cls-2" d="M69.41,262.25a8.36,8.36,0,0,1-4.13-1l-31.12-18A3.94,3.94,0,0,1,32,239.9a4.77,4.77,0,0,1,2.71-4l30-17.34a9.93,9.93,0,0,1,9.22-.31l31.11,18a4,4,0,0,1,2.17,3.4,4.75,4.75,0,0,1-2.71,4L74.49,261A10.35,10.35,0,0,1,69.41,262.25ZM67,258.2a6.57,6.57,0,0,0,5.68-.31l30-17.35c.76-.43.94-.83.95-.9a1.37,1.37,0,0,0-.41-.34l-31.11-18a6.57,6.57,0,0,0-5.68.31L36.47,239c-.76.44-.94.83-.95.91a1.44,1.44,0,0,0,.41.33Z"/><path class="cls-5" d="M105.46,228.63h0V217.9H81.39l-8.32-4.81a8.3,8.3,0,0,0-7.45.31l-7.76,4.48H33.77v11a2.14,2.14,0,0,0,1.28,2l31.11,18a8.3,8.3,0,0,0,7.45-.31l30-17.35C104.92,230.47,105.53,229.52,105.46,228.63Z"/><path class="cls-20" d="M69.62,212.34a8.72,8.72,0,0,0-4,1l-7.76,4.48H33.77v11a2.14,2.14,0,0,0,1.28,2l31.11,18a6.75,6.75,0,0,0,3.46.74Z"/><path class="cls-7" d="M36.49,217.86H33.77v11a2.14,2.14,0,0,0,1.28,2l1.44.84Z"/><path class="cls-8" d="M66.64,249.09a8.42,8.42,0,0,0,6-.07V236.49h-6Z"/><path class="cls-21" d="M66.16,237.86l-31.11-18c-1.91-1.1-1.67-3,.53-4.3l30-17.34a8.3,8.3,0,0,1,7.45-.31l31.11,18c1.91,1.11,1.67,3-.53,4.3l-30,17.35A8.3,8.3,0,0,1,66.16,237.86Z"/><path class="cls-2" d="M103.65,218.09l-30,17.35c-2.21,1.27-5.54,1.41-7.45.3l-31.11-18a2.86,2.86,0,0,1-1-.84c-.65,1.05-.35,2.2,1,2.95l31.11,18a8.3,8.3,0,0,0,7.45-.31l30-17.35c1.71-1,2.23-2.37,1.49-3.45A4.21,4.21,0,0,1,103.65,218.09Z"/><path class="cls-7" d="M94,231.47a2.75,2.75,0,0,1-1.26,2.17c-.69.4-1.25.08-1.25-.72a2.79,2.79,0,0,1,1.25-2.18C93.46,230.34,94,230.66,94,231.47Z"/><path class="cls-7" d="M98.06,229.13a2.79,2.79,0,0,1-1.25,2.18c-.7.4-1.26.07-1.26-.73a2.75,2.75,0,0,1,1.26-2.17C97.5,228,98.06,228.33,98.06,229.13Z"/><path class="cls-7" d="M102.1,226.8a2.77,2.77,0,0,1-1.25,2.17c-.7.41-1.26.08-1.26-.72a2.77,2.77,0,0,1,1.26-2.18C101.54,225.67,102.1,226,102.1,226.8Z"/><path class="cls-8" d="M68,226.72l-14.56-8.4c-.89-.52-.78-1.42.25-2l14.06-8.11a3.87,3.87,0,0,1,3.48-.15l14.56,8.41c.9.51.78,1.41-.25,2l-14.06,8.12A3.87,3.87,0,0,1,68,226.72Z"/><path class="cls-7" d="M69.39,219.68l-2-1.16c-.13-.07-.11-.2,0-.28l2-1.12a.54.54,0,0,1,.48,0l2,1.16c.13.07.11.2,0,.28l-1.95,1.12A.51.51,0,0,1,69.39,219.68Z"/><path class="cls-5" d="M53.44,218.32l0,0a1.53,1.53,0,0,1,.21-.14l14.06-8.12a3.87,3.87,0,0,1,3.48-.15l14.52,8.39c.82-.59.87-1.4,0-1.87L71.23,208a3.87,3.87,0,0,0-3.48.15L53.69,216.3C52.66,216.9,52.55,217.8,53.44,218.32Z"/><path class="cls-4" d="M150.87,318.25l-31.11-18c-1.91-1.11-1.67-3,.53-4.3l30-17.35a8.3,8.3,0,0,1,7.45-.31l31.11,18c1.91,1.1,1.67,3-.53,4.3l-30,17.34A8.3,8.3,0,0,1,150.87,318.25Z"/><path class="cls-2" d="M154.12,310.94a8.36,8.36,0,0,1-4.13-1l-31.11-18a4,4,0,0,1-2.18-3.4,4.75,4.75,0,0,1,2.71-4l30-17.35a10,10,0,0,1,9.22-.31l31.11,18a3.94,3.94,0,0,1,2.17,3.39,4.77,4.77,0,0,1-2.71,4l-30,17.34A10.35,10.35,0,0,1,154.12,310.94Zm-2.37-4.05a6.54,6.54,0,0,0,5.68-.31l30-17.34c.75-.44.93-.83.94-.91A1.28,1.28,0,0,0,188,288L156.9,270a6.57,6.57,0,0,0-5.68.31l-30,17.35c-.76.43-.94.83-.94.9a1.12,1.12,0,0,0,.4.34Z"/><path class="cls-5" d="M190.17,277.33h0V266.59H166.1l-8.32-4.8c-1.91-1.11-5.24-1-7.45.3l-7.76,4.49-24.09,0v11a2.15,2.15,0,0,0,1.28,2l31.11,18a8.3,8.3,0,0,0,7.45-.31l30-17.34C189.63,279.16,190.24,278.21,190.17,277.33Z"/><path class="cls-22" d="M154.33,261a8.59,8.59,0,0,0-4,1l-7.76,4.49-24.09,0v11a2.15,2.15,0,0,0,1.28,2l31.11,18a6.75,6.75,0,0,0,3.46.74Z"/><path class="cls-7" d="M121.21,266.55h-2.73v11a2.15,2.15,0,0,0,1.28,2l1.45.83Z"/><path class="cls-8" d="M151.35,297.78a8.47,8.47,0,0,0,6-.06V285.18h-6Z"/><path class="cls-23" d="M150.87,286.55l-31.11-18c-1.91-1.1-1.67-3,.53-4.3l30-17.35a8.3,8.3,0,0,1,7.45-.31l31.11,18c1.91,1.1,1.67,3-.53,4.3l-30,17.34A8.3,8.3,0,0,1,150.87,286.55Z"/><path class="cls-2" d="M188.36,266.79l-30,17.34a8.3,8.3,0,0,1-7.45.31l-31.11-18a2.85,2.85,0,0,1-1-.85c-.66,1.06-.36,2.2,1,3l31.11,18a8.3,8.3,0,0,0,7.45-.31l30-17.34c1.71-1,2.23-2.37,1.49-3.46A4.22,4.22,0,0,1,188.36,266.79Z"/><path class="cls-7" d="M178.73,280.16a2.77,2.77,0,0,1-1.26,2.18c-.69.4-1.25.07-1.25-.73a2.8,2.8,0,0,1,1.25-2.18C178.17,279,178.73,279.36,178.73,280.16Z"/><path class="cls-7" d="M182.77,277.83a2.77,2.77,0,0,1-1.25,2.17c-.7.4-1.26.08-1.26-.72a2.77,2.77,0,0,1,1.26-2.18C182.21,276.7,182.77,277,182.77,277.83Z"/><path class="cls-7" d="M186.82,275.49a2.8,2.8,0,0,1-1.26,2.18c-.69.4-1.26.07-1.26-.73a2.78,2.78,0,0,1,1.26-2.17C186.25,274.37,186.82,274.69,186.82,275.49Z"/><path class="cls-8" d="M152.71,275.41,138.15,267c-.89-.52-.78-1.42.25-2l14.06-8.12a3.83,3.83,0,0,1,3.48-.14l14.56,8.4c.9.52.78,1.42-.25,2l-14.05,8.12A3.86,3.86,0,0,1,152.71,275.41Z"/><path class="cls-7" d="M154.1,268.38l-2-1.17c-.12-.07-.11-.19,0-.28l1.95-1.12a.54.54,0,0,1,.48,0l2,1.16c.13.08.11.2,0,.28l-1.94,1.13A.56.56,0,0,1,154.1,268.38Z"/><path class="cls-5" d="M138.15,267l0,0a1.53,1.53,0,0,1,.21-.14l14.06-8.12a3.87,3.87,0,0,1,3.48-.14L170.46,267c.83-.59.87-1.39,0-1.87l-14.56-8.4a3.83,3.83,0,0,0-3.48.14L138.4,265C137.37,265.59,137.26,266.49,138.15,267Z"/></g></g></svg>