<svg xmlns="http://www.w3.org/2000/svg" viewBox="0 0 116.72 90.26"><defs><style>.cls-1{fill:#fabe00;}.cls-2{fill:#feda0c;}.cls-3{fill:#fea900;}.cls-4{fill:#fe431f;}.cls-5{fill:#a3041c;}.cls-6{fill:#dd061a;}.cls-7{fill:#fe8802;}.cls-8{fill:#870417;}.cls-9{fill:#fe8800;}</style></defs><title>Asset 13_1</title><g id="Layer_2" data-name="Layer 2"><g id="Layer_1-2" data-name="Layer 1"><path class="cls-1" d="M92,21.25c1.18,7.29,2.37,14.58,3.66,22.46l12-11.78c1.6-.32,3.11-.33,4.14,1.24-1.32.4-1.36,1.57-1.52,2.62-2.68,17.34-5.77,34.63-4.8,52.31a5,5,0,0,1-.4,1.5l-.45-.43c-1.34-3.9-.54-7.93-.64-11.9-.22-9,1-8.06-8.24-8.1-10.71,0-21.42,0-32.13,0a14.58,14.58,0,0,1-4.83-.4,2.66,2.66,0,0,1-1-.73,7.38,7.38,0,0,1-.75-4.1q0-24.58,0-49.18a10.32,10.32,0,0,1,.36-3.22,2.17,2.17,0,0,1,3-1.3c3.42,9.73,6.85,19.46,10.5,29.86L87.49,20A4.9,4.9,0,0,1,92,21.25Z"/><path class="cls-2" d="M58,10.74V68.08c-1.41,1.38-3.22,1.07-4.91,1.07-11.9,0-23.8,0-35.69,0-4.41,0-4.49.17-4.62,4.57-.06,1.88.47,3.94-1.17,5.51a3.53,3.53,0,0,1-.36-2.5C11.92,62.59,8,49,6.51,35,6.33,33.33,5.05,33.46,4.08,33a4.74,4.74,0,0,1,5.09-.84L20.28,44.2l1-.74q1.73-11.12,3.46-22.21A5,5,0,0,1,29.21,20L45.78,40.18c3.75-10.23,7.33-20,10.91-29.7A1.1,1.1,0,0,1,58,10.74Z"/><path class="cls-3" d="M11.65,79.26c0-2.7.24-5.42.07-8.11-.15-2.46.74-3.12,3.14-3.11,14.39.1,28.79,0,43.18,0l.68,0c.9,4.62.17,9.28.4,13.92,0,.87,0,1.74,0,2.61.1,3.52.36,3.84,4,3.86,12.26,0,24.52,0,36.78,0,1.7,0,3.5-.29,5,1l.14.09c-.86,1-2,.54-3,.54-29.08,0-58.16-.13-87.25-.1-2.61,0-3.43-.76-3.21-3.3S11.63,81.76,11.65,79.26Z"/><path class="cls-4" d="M29.21,20a6.89,6.89,0,0,1-4.42,1.23c-3.68-1.56-5.14-4-4.17-6.91a5.3,5.3,0,0,1,6.15-3.59A5.44,5.44,0,0,1,29.21,20Z"/><path class="cls-5" d="M92,21.25A7.16,7.16,0,0,1,87.49,20,5.44,5.44,0,0,1,90,10.75a5.29,5.29,0,0,1,6.14,3.6C97.1,17.26,95.63,19.69,92,21.25Z"/><path class="cls-6" d="M58,10.74l-1.35-.26c-2.34-1.27-3.92-3-3.55-5.9A5,5,0,0,1,56.58.3a5.4,5.4,0,0,1,6.57,2.64c1.27,2.66.32,5.16-2.78,7.28Z"/><path class="cls-7" d="M9.17,32.13A12.47,12.47,0,0,1,4.08,33C.59,31.57-.79,28.9.45,26a5.26,5.26,0,0,1,7-2.89c3,1.25,4,4.33,2.47,7.61C9.65,31.17,9.4,31.65,9.17,32.13Z"/><path class="cls-8" d="M111.76,33.17a7.64,7.64,0,0,1-4.14-1.24c-1.54-2.2-2.17-4.52-.58-6.94a4.81,4.81,0,0,1,5-2.31,5.21,5.21,0,0,1,4.64,5.1C116.89,30.52,115.14,32.36,111.76,33.17Z"/><path class="cls-9" d="M104.9,89.51l-44.13.09c-1.3,0-2.72.19-2.71-1.82,0-6.06,0-12.11.07-18.17a4.78,4.78,0,0,1,.59-1.49c14.33,0,28.66,0,43-.08,2.48,0,3.46.57,3.36,3.25C104.84,77.36,104.93,83.44,104.9,89.51Z"/></g></g></svg>