<svg xmlns="http://www.w3.org/2000/svg" viewBox="0 0 69.71 69.71"><defs><style>.cls-1{fill:#009345;}</style></defs><title>Asset 46</title><g id="Layer_2" data-name="Layer 2"><g id="Layer_1-2" data-name="Layer 1"><path class="cls-1" d="M35,69.71a34.86,34.86,0,1,1,34.75-35A34.74,34.74,0,0,1,35,69.71ZM34.8,42.15c5,0,8.36-4.39,7.05-9.47a2.63,2.63,0,0,1,.84-3c3.72-3.69,7.38-7.44,11.08-11.16,1-1,2-2.21.55-3.26-.57-.42-2.36,0-3,.66-3.7,3.47-7.27,7.1-10.81,10.74-1.1,1.13-2,1.71-3.77,1.15a6.65,6.65,0,0,0-7.49,2.38,7,7,0,0,0-.9,7.84A6.91,6.91,0,0,0,34.8,42.15ZM11,34.74c.23.27.82,1.56,1.67,1.76,1.63.39,1.9-1,2-2.37a27.79,27.79,0,0,1,.46-3.65c2.79-12.27,15.26-18.8,27.34-14.32,1.33.49,2.76.95,3.23-.75.18-.65-.8-2.1-1.59-2.46C29.47,6.1,11.24,17.62,11,34.74ZM59.16,34c-.85-3.11-1.51-5.71-2.28-8.28-.38-1.25-1.23-2.48-2.63-1.6-.62.39-.87,1.92-.74,2.85.33,2.32,1.05,4.59,1.48,6.9.24,1.32.24,3,2,2.61C57.89,36.31,58.48,34.85,59.16,34Z"/><path class="cls-1" d="M38.52,34.92a3.67,3.67,0,1,1-3.47-3.72A3.71,3.71,0,0,1,38.52,34.92Z"/></g></g></svg>