<svg xmlns="http://www.w3.org/2000/svg" viewBox="0 0 463.17 460.79"><defs><style>.cls-1,.cls-2,.cls-3{fill:none;stroke:#bbbdbf;stroke-linecap:round;stroke-miterlimit:10;stroke-width:3px;}.cls-2{stroke-dasharray:4.9 4.9 4.9 4.9;}.cls-3{stroke-dasharray:4.9 4.9 4.9 4.9 4.9 4.9;}.cls-4{fill:#f6921e;}.cls-5{fill:#fff;}</style></defs><title>Asset 11 (2)</title><g id="Layer_2" data-name="Layer 2"><g id="Layer_1-2" data-name="Layer 1"><line class="cls-1" x1="1.5" y1="459.29" x2="4" y2="459.29"/><line class="cls-2" x1="8.9" y1="459.29" x2="26.07" y2="459.29"/><path class="cls-3" d="M28.52,459.29h85.33A98.12,98.12,0,0,0,212,361.18V102.89"/><line class="cls-1" x1="211.96" y1="100.44" x2="211.96" y2="97.94"/><line class="cls-1" x1="461.67" y1="459.29" x2="459.17" y2="459.29"/><line class="cls-2" x1="454.27" y1="459.29" x2="437.1" y2="459.29"/><path class="cls-3" d="M434.65,459.29H349.32a98.11,98.11,0,0,1-98.1-98.11V102.89"/><line class="cls-1" x1="251.22" y1="100.44" x2="251.22" y2="97.94"/><circle class="cls-4" cx="230.07" cy="72.82" r="72.82"/><path class="cls-5" d="M229.72,80.42c-6,0-11.7.06-17.36,0-9-.12-15.93-5.4-18-13.52a18.06,18.06,0,0,1,16.86-22.71c.57,0,1.13-.07,1.89-.12a14.54,14.54,0,0,1,5.19-12,14.26,14.26,0,0,1,9.09-3.39c7.53-.16,12.52,4.47,14.86,13.85,3.47-.47,6.95-.42,10,1.67A12.54,12.54,0,0,1,257.69,53c4.91.74,8.78,3.06,11.08,7.55a13.55,13.55,0,0,1-11.53,19.82c-6.66.24-13.34.07-20,.08h-2.88c0,2.76-.05,5.38,0,8,0,.37.75.69,1.12,1.07,1.43,1.45,2.81,2.94,4.28,4.35a3.19,3.19,0,0,0,1.73,1.09c3.66.1,7.33.13,11,0a2.94,2.94,0,0,0,1.9-1.47,8.53,8.53,0,1,1,10,12,8.21,8.21,0,0,1-9.77-4.31,2.6,2.6,0,0,0-2.81-1.66c-3.23.09-6.46.06-9.69,0A2.26,2.26,0,0,0,239.6,101a7.93,7.93,0,0,1-7.55,4.79c-3.58,0-6.05-1.76-7.76-4.86a2.89,2.89,0,0,0-2-1.3c-3.37-.13-6.74,0-10.11-.08a2.46,2.46,0,0,0-2.66,1.55,8.33,8.33,0,0,1-10.95,4,8.62,8.62,0,0,1-4.75-10.18c1.47-4.9,6.63-7.5,11.88-5.34a7.5,7.5,0,0,1,3.87,4A2.18,2.18,0,0,0,212,95c3.37-.06,6.75-.06,10.12,0a2.4,2.4,0,0,0,2.33-1.35,15.56,15.56,0,0,1,4-4,2.39,2.39,0,0,0,1.33-2.33C229.67,85.11,229.72,82.9,229.72,80.42ZM253,57.59c0-.64,0-1,.08-1.34.59-3.61-.42-6.61-3.63-8.51s-6.32-1.28-9.16,1c-.78.64-1.65,1.17-2.83,2,0-3.13.13-5.72,0-8.28a9.81,9.81,0,0,0-10.14-9.33,10,10,0,0,0-9.66,9.89c0,1.78,0,3.57,0,5.78-2.59,0-5-.19-7.43,0a13.37,13.37,0,0,0-11.94,13.91c.37,7.54,6.33,13.1,14.29,13.13,14.36,0,28.71,0,43.06,0a13.83,13.83,0,0,0,2.14-.18c4.87-.77,8.31-4.78,8-9.34a9.25,9.25,0,0,0-9.34-8.84C255.32,57.57,254.19,57.59,253,57.59ZM236,97.22a4.1,4.1,0,0,0-4-3.94,4,4,0,0,0-4,4,4,4,0,0,0,8,0Zm-34.35,3.93a3.92,3.92,0,0,0,4.27-3.9,4,4,0,0,0-4-4,3.94,3.94,0,0,0-.31,7.86ZM266,97.21a4,4,0,1,0-7.9.08,4,4,0,0,0,7.9-.08Z"/></g></g></svg>