<svg xmlns="http://www.w3.org/2000/svg" viewBox="0 0 41.53 36.68"><defs><style>.cls-1{fill:#01579a;}.cls-2{fill:#ebeef0;}.cls-3{fill:#0276bc;}</style></defs><title>Asset 22</title><g id="Layer_2" data-name="Layer 2"><g id="Layer_1-2" data-name="Layer 1"><path class="cls-1" d="M13.94,17.18c1.75-3.5,3.32-6.66,4.92-9.81a2.24,2.24,0,0,0,.17-1c0-1.39,0-2.78,0-4.17A1.57,1.57,0,0,1,20.14.51a4.23,4.23,0,0,1,5,.69C27.77,3.45,28,6.25,27.31,9.26a17.82,17.82,0,0,1-.65,2.38c-.35.86-.23,1.16.87,1.14,3-.06,6.11.07,9.15,0,4.16-.15,6.08,3.84,4,6.29-.29.34-.13.52.07.82a3.29,3.29,0,0,1-.84,4.92.72.72,0,0,0-.31,1,3.28,3.28,0,0,1-1.37,3.8.78.78,0,0,0-.38,1,3.58,3.58,0,0,1-3.68,4.57c-5.49.06-11,0-16.45,0a8.25,8.25,0,0,1-3.14-.66c-.59-.25-.71-.11-.74.44-.1,1.8-.12,1.8-2,1.8-3.44,0-6.88,0-10.31,0C.44,36.69,0,36.39,0,35.34q.06-9,0-18.07c0-1,.4-1.39,1.5-1.38,3.62,0,7.25,0,10.88,0C13.15,15.9,13.79,16,13.94,17.18Z"/><path class="cls-2" d="M25.8,33.45H18.62a12.46,12.46,0,0,1-1.5-.05c-2.74-.3-3.23-.8-3.23-3.28,0-3.46,0-6.91,0-10.37,0-.62.06-1.11.81-1.32a1.72,1.72,0,0,0,1.07-1.05Q18.08,12.69,20.45,8a3,3,0,0,0,.34-1.44c0-1.14,0-2.28,0-3.42,0-.46-.26-1.06.44-1.31a2.07,2.07,0,0,1,2.08.08A5.26,5.26,0,0,1,25.89,7a24,24,0,0,1-1.42,5.82c-.46,1.19-.15,1.57,1.21,1.57,3.75,0,7.49,0,11.24,0,1.95,0,3.11,1.29,2.75,2.9a2.12,2.12,0,0,1-.89,1.33c-.77.56-.91,1.12,0,1.69a1.85,1.85,0,0,1,.94,2A2,2,0,0,1,38,23.86c-1.05.28-1.15.68-.5,1.57,1,1.35.53,2.64-1.14,3.21-1.14.38-1.25.66-.56,1.59A1.89,1.89,0,0,1,36,32.44a2.11,2.11,0,0,1-2,1C31.29,33.44,28.55,33.45,25.8,33.45Z"/><path class="cls-3" d="M12.07,26.45c0,2.56,0,5.13,0,7.7,0,.72-.19,1-1,1-2.74,0-5.49,0-8.23,0-.92,0-1.2-.31-1.2-1.13,0-5.1,0-10.19,0-15.29,0-.9.35-1.17,1.29-1.15,2.7,0,5.41,0,8.11,0,.8,0,1.07.21,1.06,1C12.05,21.17,12.07,23.81,12.07,26.45Z"/></g></g></svg>