<svg xmlns="http://www.w3.org/2000/svg" viewBox="0 0 74.42 61.24"><defs><style>.cls-1{fill:#171e4c;}</style></defs><title>Asset 45</title><g id="Layer_2" data-name="Layer 2"><g id="Layer_1-2" data-name="Layer 1"><path class="cls-1" d="M54.37,28.74H51.71c-8.44,0-16.88-.06-25.32,0-2.87,0-4.74-1.08-5.83-3.7-.53-1.27-1.28-2.45-1.79-3.73a2.15,2.15,0,0,0-2.38-1.47c-4.43.06-8.85,0-13.28,0-2.56,0-3.1.6-3.1,3.25Q0,40.58,0,58c0,2.6.58,3.22,3.13,3.22q24.08,0,48.14,0c2.61,0,3.19-.58,3.19-3.15q0-13.71,0-27.4C54.47,30.14,54.42,29.59,54.37,28.74ZM39.11,56.25c-1.8,0-2.19-1.26-2.2-2.83s.48-2.83,2.25-2.78,2.18,1.4,2.06,2.79C41.29,55.08,40.81,56.26,39.11,56.25Zm7.19,0c-1.65,0-2.22-1.09-2.24-2.62,0-2,.8-3.15,2.26-3,1.65.13,2.15,1.27,2.15,2.75S48.12,56.22,46.3,56.26Z"/><path class="cls-1" d="M19.91,5.54c0-1.18,0-2.14,0-3.09A2.19,2.19,0,0,1,22.36,0c4.78,0,9.55,0,14.32.05A2.68,2.68,0,0,1,38.5,1.29a28.18,28.18,0,0,1,2,4.07,5.35,5.35,0,0,0,5.52,3.5c8.31-.08,16.61,0,24.92,0,2.8,0,3.39.58,3.39,3.4,0,8.17-.07,16.34,0,24.5,0,4-.13,5.08-5.6,4.39v-3c0-6,0-11.9,0-17.85,0-4.12-1.7-5.84-5.78-5.85-8.72,0-17.44,0-26.16,0a2.44,2.44,0,0,1-2.68-1.69c-.57-1.4-1.36-2.72-2-4.1a5.05,5.05,0,0,0-5.12-3.15C24.76,5.57,22.43,5.54,19.91,5.54Z"/><path class="cls-1" d="M58.88,51.13V34.45c0-1.52,0-3,0-4.57,0-3.65-1.84-5.49-5.5-5.51-8.72,0-17.44-.06-26.16,0a2.93,2.93,0,0,1-3.13-2c-3.42-7.19-2.86-7-11-6.92H10c0-1,0-1.81,0-2.62,0-2.28.66-2.91,3-2.92,4.5,0,9-.07,13.49,0a3.23,3.23,0,0,1,2.15,1.35,25,25,0,0,1,2.06,4.06,5.25,5.25,0,0,0,5.38,3.39c8.44-.07,16.89,0,25.33,0h2.94c0,.84.11,1.56.11,2.29V46.62C64.43,51.25,64,51.61,58.88,51.13Z"/></g></g></svg>