<svg xmlns="http://www.w3.org/2000/svg" viewBox="0 0 42.16 57.87"><defs><style>.cls-1{fill:#fff;}</style></defs><title>Asset 12</title><g id="Layer_2" data-name="Layer 2"><g id="Layer_1-2" data-name="Layer 1"><path class="cls-1" d="M26.69,49c0,2.23.06,4.46,0,6.68,0,.68-.31,1.68-.78,1.92s-1.45-.11-2.05-.45c-1.38-.79-2.66-1.72-4.06-2.65-1.42.95-2.81,1.92-4.23,2.83-1.63,1-2.65.5-2.66-1.41,0-5.37,0-10.74,0-16.11a2,2,0,0,0-1.43-2.19A19.74,19.74,0,1,1,39.2,16.2a19.2,19.2,0,0,1-5.34,17.36c-.3.31-.62.62-.92.94-.07.07-.12.18-.57.66,1.26,1.1,2.57,2.16,3.78,3.32,1.82,1.74,3.6,3.53,5.34,5.34,1.12,1.16.8,2.29-.74,2.66-1.7.41-3.92.23-5,1.26s-.92,3.25-1.33,4.94-1.52,2-2.71.83c-1.55-1.54-3-3.15-4.53-4.72Zm-7-12.3A17,17,0,1,0,2.79,19.81,16.93,16.93,0,0,0,19.71,36.72ZM23.8,54.14V39.38h-8V54.16C18.5,50.93,21.1,51.07,23.8,54.14Zm14.4-9.75c-2.74-2.74-5.07-5.1-7.44-7.42a1.2,1.2,0,0,0-1-.17c-2.76.89-3.07,1.36-3.07,4.26,0,.87,0,1.75,0,2.62A2.08,2.08,0,0,0,27,44.89c1.58,1.68,3.23,3.31,4.86,5l.47.14C32,45.84,34.09,44.2,38.2,44.39Z"/><path class="cls-1" d="M34.08,19.85A14.28,14.28,0,1,1,19.89,5.43,14.35,14.35,0,0,1,34.08,19.85ZM19.89,8.28A11.48,11.48,0,1,0,31.26,19.87,11.47,11.47,0,0,0,19.89,8.28Z"/><path class="cls-1" d="M14.14,25.25a.9.9,0,0,1,0-.16c1-2.69.32-4.8-2-6.49a1.67,1.67,0,0,1-.51-1.52c.21-.48.92-.76,1.43-1.1a.87.87,0,0,1,.49-.05,4.27,4.27,0,0,0,4.57-3.29c.22-.64,1.06-1.49,1.62-1.49s1.15.9,1.66,1.47A3.66,3.66,0,0,1,22,13.79a2.76,2.76,0,0,0,2.65,2c1.13.12,3-.28,3.16,1.31.11.86-.91,2.08-1.72,2.8a3.29,3.29,0,0,0-1,3.6c.21,1,1,2.51-.33,3.1-.75.33-2.09-.18-2.94-.7a3.22,3.22,0,0,0-4,0,6.2,6.2,0,0,1-1.74.88A1.39,1.39,0,0,1,14.14,25.25Zm8-2.42c-1-2,.18-3.18,1.57-4.62-2.31.31-3.29-.88-4.07-2.63-.34,2.14-1.86,2.62-4,2.87a3.42,3.42,0,0,1,1.74,4.43A3.89,3.89,0,0,1,22.18,22.83Z"/></g></g></svg>