<svg xmlns="http://www.w3.org/2000/svg" viewBox="0 0 432.89 257.9"><defs><style>.cls-1{fill:#f5f5f5;}.cls-2{fill:#e1e1e1;}.cls-3{fill:#ececec;}.cls-4{fill:#fafafa;}.cls-5{fill:#1a2e35;}.cls-6{fill:#375a64;}.cls-7{fill:#ff4f5b;}.cls-8{fill:#fff;}.cls-9{fill:#ffbf9d;}.cls-10{fill:#ff9a6c;}.cls-11{opacity:0.2;}</style></defs><title>Asset -41</title><g id="Layer_2" data-name="Layer 2"><g id="Layer_1-2" data-name="Layer 1"><path class="cls-1" d="M370.5,144.83c-9.77-8.38-10.8-22.24-9.16-34.45.27-2,.26-4.21,1.41-5.91s3.55-2.69,5.29-1.65c1.45.87,1.93,2.7,2.64,4.24a12,12,0,0,0,4.33,5.06c1.24.8,2.81,1.38,4.16.8,1.86-.8,2.31-3.21,2.5-5.25q.54-5.69,1.07-11.37a19.18,19.18,0,0,1,1.21-6,6.36,6.36,0,0,1,4.39-3.87c2-.34,4.27,1,4.48,3a19.89,19.89,0,0,1-.2,2.54,2.16,2.16,0,0,0,1.05,2.13,2.46,2.46,0,0,0,2.33-.71,27,27,0,0,0,5.58-6.84,37.38,37.38,0,0,1,5.28-7.11,11,11,0,0,1,7.87-3.43c2.92.12,5.85,2.23,6.3,5.16s-1.51,5.68-3.56,7.82a45.62,45.62,0,0,1-10.35,8.06,3.82,3.82,0,0,0-1.75,1.54c-.58,1.32.57,2.79,1.87,3.37a24.3,24.3,0,0,0,4.69,1c1.57.34,3.21,1.21,3.66,2.77.63,2.16-1.33,4.16-3.18,5.42a39.14,39.14,0,0,1-12.16,5.49,13.25,13.25,0,0,0-4.49,1.65c-1.31.94-2.22,2.69-1.63,4.19s2.41,2.15,4,2a26.36,26.36,0,0,0,4.64-1.26c2.89-.77,6.48-.22,8,2.37a6.48,6.48,0,0,1,.12,5.76,14.81,14.81,0,0,1-3.58,4.71,39.32,39.32,0,0,1-17.86,10.07c-6.71,1.6-12.77,1.61-19-1.39"/><path class="cls-2" d="M374.43,137.47a183.11,183.11,0,0,1,9.18-18.89l2.67-4.83c.87-1.58,1.74-3.15,2.69-4.63a91.22,91.22,0,0,1,5.92-8.21c2-2.52,4-4.84,5.9-7s3.69-4.12,5.41-5.85a72.06,72.06,0,0,1,8.7-7.53c1.09-.81,2-1.41,2.55-1.8l.68-.45a1,1,0,0,1,.24-.14l-.22.17-.65.48c-.58.42-1.44,1-2.52,1.86a76.4,76.4,0,0,0-8.6,7.6C404.68,90,402.9,92,401,94.13s-3.86,4.48-5.86,7a91.52,91.52,0,0,0-5.88,8.19c-.94,1.47-1.8,3-2.68,4.62l-2.66,4.82a187.9,187.9,0,0,0-9.19,18.84"/><path class="cls-2" d="M389.08,109.11a3.24,3.24,0,0,1-.11-.88c-.06-.57-.1-1.4-.14-2.43-.09-2-.11-4.89-.12-8s-.08-6-.19-8c-.06-1-.11-1.85-.16-2.42a3.68,3.68,0,0,1,0-.9,5.25,5.25,0,0,1,.17.88c.09.57.18,1.4.27,2.42.19,2,.29,4.89.3,8s0,5.89,0,8c0,1,0,1.78,0,2.43A5.21,5.21,0,0,1,389.08,109.11Z"/><path class="cls-2" d="M415.7,106.84a6.65,6.65,0,0,1-1.05,0c-.68,0-1.66,0-2.87,0-2.42,0-5.76.17-9.44.49s-7,.76-9.39,1.15c-1.2.18-2.16.36-2.83.48a4.73,4.73,0,0,1-1,.14,6.89,6.89,0,0,1,1-.29c.66-.16,1.62-.38,2.82-.6,2.38-.45,5.71-.93,9.4-1.26s7-.42,9.47-.38c1.21,0,2.2.08,2.87.13A5.35,5.35,0,0,1,415.7,106.84Z"/><path class="cls-2" d="M374.8,137s-.07-.11-.15-.33-.21-.6-.35-1c-.31-.87-.71-2.12-1.19-3.68-1-3.12-2.16-7.47-3.41-12.29s-2.4-9.18-3.3-12.32l-1.07-3.71c-.12-.4-.21-.74-.29-1s-.09-.36-.07-.36a1.51,1.51,0,0,1,.14.34q.15.39.36,1c.3.86.7,2.12,1.18,3.68,1,3.12,2.16,7.47,3.41,12.29s2.41,9.17,3.3,12.31l1.08,3.71c.11.4.2.74.28,1A1.88,1.88,0,0,1,374.8,137Z"/><path class="cls-2" d="M410.64,129.29s-.12.05-.36.11l-1,.24-3.84.83c-3.24.71-7.71,1.73-12.64,2.87s-9.41,2.13-12.67,2.77c-1.63.32-2.95.56-3.87.71l-1.05.17c-.24,0-.37,0-.37,0a1.4,1.4,0,0,1,.36-.11l1-.23,3.84-.84c3.24-.7,7.7-1.73,12.64-2.87s9.41-2.12,12.67-2.76c1.63-.32,2.95-.57,3.86-.72l1.06-.17A1.71,1.71,0,0,1,410.64,129.29Z"/><path class="cls-3" d="M7.64,144.08s-4.06,2.29,2.05,10.76a120.39,120.39,0,0,0,10.08,12.53s1.16,2-.58,2.61-5.8.6-6.26,2.92,1.51,4.31,5.16,5.67,11.55,4.66,12.26,5,1.49,1.19.37,1.79-9.88,2.92-8.54,7,12.15,6.23,13.33,6.48,1.51.69,1.51,1.31-3,1.13-5.47,1.88-5.19,2.07-4.22,4.37,7.81,6.37,22.74,5.54l6.89-.84,2.84-6.38c5.23-14,3.36-21.74,1.46-23.35s-4,.6-5.42,2.73-2.83,4.86-3.42,4.67-.91-.64-.8-1.84,1.27-12.15-2.24-14.65-8.31,5.18-9.22,6.07-1.53-.13-1.61-.88-.87-9.29-1.09-13.18-1.44-6.36-3.88-6.62-3.55,3.63-4.65,5.12-2.67-.23-2.67-.23a120.94,120.94,0,0,0-9-13.34c-6.27-8.35-9.74-5.05-9.74-5.05"/><path class="cls-2" d="M57.57,212.62C53,206.47,45,195.39,38.14,185.91s-13.12-18-17.67-24.22c-2.27-3.09-4.12-5.58-5.4-7.32l-1.46-2-.38-.52-.12-.18.14.17.39.51c.35.45.86,1.11,1.5,2,1.3,1.71,3.16,4.2,5.45,7.27,4.59,6.16,10.84,14.72,17.72,24.19s14.83,20.57,19.38,26.75"/><path class="cls-2" d="M18.6,173.15a3,3,0,0,1,.5.06l1.34.25c1.13.23,2.69.58,4.4,1l4.37,1.09,1.32.33A2.44,2.44,0,0,1,31,176a1.71,1.71,0,0,1-.5,0c-.31-.05-.77-.14-1.34-.26-1.13-.23-2.68-.61-4.39-1l-4.37-1.06-1.33-.32A1.69,1.69,0,0,1,18.6,173.15Z"/><path class="cls-2" d="M31.41,175.5c-.05,0,.53-3.24,1.31-7.23s1.47-7.19,1.53-7.18-.53,3.24-1.31,7.23S31.47,175.52,31.41,175.5Z"/><path class="cls-2" d="M41.33,190.53a1.84,1.84,0,0,1,.21-.47l.64-1.23c.54-1.05,1.28-2.5,2-4.12s1.4-3.12,1.85-4.21c.22-.51.39-.94.54-1.28a2.2,2.2,0,0,1,.22-.47,3.13,3.13,0,0,1-.14.5c-.11.31-.27.76-.48,1.31-.41,1.1-1,2.61-1.79,4.24s-1.52,3.07-2.1,4.1c-.28.51-.52.93-.7,1.21A2.33,2.33,0,0,1,41.33,190.53Z"/><path class="cls-2" d="M29.27,191a1.62,1.62,0,0,1,.47-.07L31,190.8c1.09-.08,2.59-.16,4.25-.24s3.15-.14,4.24-.17l1.29,0a1.75,1.75,0,0,1,.47,0,2,2,0,0,1-.47.06l-1.28.1c-1.09.07-2.59.16-4.24.24s-3.16.14-4.25.17l-1.29,0A2.51,2.51,0,0,1,29.27,191Z"/><path class="cls-2" d="M36.33,205.33a4,4,0,0,1,.61-.07l1.64-.13c1.39-.1,3.31-.22,5.44-.35s4-.22,5.44-.28l1.65-.06a2.52,2.52,0,0,1,.6,0,4.3,4.3,0,0,1-.6.08l-1.64.12c-1.39.1-3.32.23-5.44.35s-4.05.22-5.44.28l-1.65.06A2.64,2.64,0,0,1,36.33,205.33Z"/><path class="cls-2" d="M51.34,204.37a4.59,4.59,0,0,1,.25-.6c.2-.41.45-1,.76-1.6.64-1.35,1.51-3.22,2.41-5.31s1.68-4,2.23-5.39l.65-1.64a4.16,4.16,0,0,1,.26-.6,4.05,4.05,0,0,1-.18.63c-.13.39-.33,1-.59,1.67-.51,1.4-1.26,3.33-2.17,5.42s-1.8,4-2.47,5.29c-.34.66-.62,1.2-.82,1.57A5.76,5.76,0,0,1,51.34,204.37Z"/><rect class="cls-1" x="54.22" y="15.12" width="65.76" height="201.46"/><rect class="cls-4" x="119.78" y="15.12" width="51.98" height="201.46"/><rect class="cls-2" x="57.75" y="47.36" width="55.79" height="15.71"/><rect class="cls-1" x="59.3" y="49.34" width="3.12" height="12.02"/><path class="cls-4" d="M66.11,51.87a1,1,0,1,1-1-1A1,1,0,0,1,66.11,51.87Z"/><path class="cls-4" d="M66.11,56.11a1,1,0,1,1-2,0,1,1,0,0,1,2,0Z"/><rect class="cls-1" x="70.08" y="50.87" width="3.07" height="9.23"/><rect class="cls-1" x="74.51" y="50.87" width="3.07" height="9.23"/><rect class="cls-1" x="78.94" y="50.87" width="3.07" height="9.23"/><rect class="cls-1" x="83.38" y="50.87" width="3.07" height="9.23"/><rect class="cls-1" x="87.81" y="50.87" width="3.07" height="9.23"/><rect class="cls-1" x="92.25" y="50.87" width="3.07" height="9.23"/><rect class="cls-1" x="96.68" y="50.87" width="3.07" height="9.23"/><rect class="cls-1" x="101.11" y="50.87" width="3.07" height="9.23"/><rect class="cls-1" x="105.55" y="50.87" width="3.07" height="9.23"/><rect class="cls-1" x="109.98" y="50.87" width="3.07" height="9.23"/><rect class="cls-2" x="57.75" y="72.52" width="55.79" height="15.71"/><rect class="cls-1" x="59.3" y="74.49" width="3.12" height="12.02"/><path class="cls-4" d="M66.11,77a1,1,0,1,1-1-1A1,1,0,0,1,66.11,77Z"/><circle class="cls-4" cx="65.11" cy="81.27" r="0.99"/><rect class="cls-1" x="70.08" y="76.03" width="3.07" height="9.23"/><rect class="cls-1" x="74.51" y="76.03" width="3.07" height="9.23"/><rect class="cls-1" x="78.94" y="76.03" width="3.07" height="9.23"/><rect class="cls-1" x="83.38" y="76.03" width="3.07" height="9.23"/><rect class="cls-1" x="87.81" y="76.03" width="3.07" height="9.23"/><rect class="cls-1" x="92.25" y="76.03" width="3.07" height="9.23"/><rect class="cls-1" x="96.68" y="76.03" width="3.07" height="9.23"/><rect class="cls-1" x="101.11" y="76.03" width="3.07" height="9.23"/><rect class="cls-1" x="105.55" y="76.03" width="3.07" height="9.23"/><rect class="cls-1" x="109.98" y="76.03" width="3.07" height="9.23"/><rect class="cls-2" x="57.75" y="97.68" width="55.79" height="15.71"/><rect class="cls-1" x="59.3" y="99.65" width="3.12" height="12.02"/><path class="cls-4" d="M66.11,102.18a1,1,0,1,1-1-1A1,1,0,0,1,66.11,102.18Z"/><circle class="cls-4" cx="65.11" cy="106.43" r="0.99"/><rect class="cls-1" x="70.08" y="101.19" width="3.07" height="9.23"/><rect class="cls-1" x="74.51" y="101.19" width="3.07" height="9.23"/><rect class="cls-1" x="78.94" y="101.19" width="3.07" height="9.23"/><rect class="cls-1" x="83.38" y="101.19" width="3.07" height="9.23"/><rect class="cls-1" x="87.81" y="101.19" width="3.07" height="9.23"/><rect class="cls-1" x="92.25" y="101.19" width="3.07" height="9.23"/><rect class="cls-1" x="96.68" y="101.19" width="3.07" height="9.23"/><rect class="cls-1" x="101.11" y="101.19" width="3.07" height="9.23"/><rect class="cls-1" x="105.55" y="101.19" width="3.07" height="9.23"/><rect class="cls-1" x="109.98" y="101.19" width="3.07" height="9.23"/><rect class="cls-2" x="57.75" y="122.83" width="55.79" height="15.71"/><rect class="cls-1" x="59.3" y="124.81" width="3.12" height="12.02"/><path class="cls-4" d="M66.11,127.33a1,1,0,1,1-1-1A1,1,0,0,1,66.11,127.33Z"/><path class="cls-4" d="M66.11,131.58a1,1,0,1,1-1-1A1,1,0,0,1,66.11,131.58Z"/><rect class="cls-1" x="70.08" y="126.34" width="3.07" height="9.23"/><rect class="cls-1" x="74.51" y="126.34" width="3.07" height="9.23"/><rect class="cls-1" x="78.94" y="126.34" width="3.07" height="9.23"/><rect class="cls-1" x="83.38" y="126.34" width="3.07" height="9.23"/><rect class="cls-1" x="87.81" y="126.34" width="3.07" height="9.23"/><rect class="cls-1" x="92.25" y="126.34" width="3.07" height="9.23"/><rect class="cls-1" x="96.68" y="126.34" width="3.07" height="9.23"/><rect class="cls-1" x="101.11" y="126.34" width="3.07" height="9.23"/><rect class="cls-1" x="105.55" y="126.34" width="3.07" height="9.23"/><rect class="cls-1" x="109.98" y="126.34" width="3.07" height="9.23"/><rect class="cls-2" x="57.75" y="147.99" width="55.79" height="15.71"/><rect class="cls-1" x="59.3" y="149.96" width="3.12" height="12.02"/><path class="cls-4" d="M66.11,152.49a1,1,0,1,1-1-1A1,1,0,0,1,66.11,152.49Z"/><circle class="cls-4" cx="65.11" cy="156.74" r="0.99"/><rect class="cls-1" x="70.08" y="151.5" width="3.07" height="9.23"/><rect class="cls-1" x="74.51" y="151.5" width="3.07" height="9.23"/><rect class="cls-1" x="78.94" y="151.5" width="3.07" height="9.23"/><rect class="cls-1" x="83.38" y="151.5" width="3.07" height="9.23"/><rect class="cls-1" x="87.81" y="151.5" width="3.07" height="9.23"/><rect class="cls-1" x="92.25" y="151.5" width="3.07" height="9.23"/><rect class="cls-1" x="96.68" y="151.5" width="3.07" height="9.23"/><rect class="cls-1" x="101.11" y="151.5" width="3.07" height="9.23"/><rect class="cls-1" x="105.55" y="151.5" width="3.07" height="9.23"/><rect class="cls-1" x="109.98" y="151.5" width="3.07" height="9.23"/><rect class="cls-2" x="57.75" y="173.14" width="55.79" height="15.71"/><rect class="cls-1" x="59.3" y="175.12" width="3.12" height="12.02"/><path class="cls-4" d="M66.11,177.65a1,1,0,1,1-1-1A1,1,0,0,1,66.11,177.65Z"/><path class="cls-4" d="M66.11,181.89a1,1,0,1,1-1-1A1,1,0,0,1,66.11,181.89Z"/><rect class="cls-1" x="70.08" y="176.65" width="3.07" height="9.23"/><rect class="cls-1" x="74.51" y="176.65" width="3.07" height="9.23"/><rect class="cls-1" x="78.94" y="176.65" width="3.07" height="9.23"/><rect class="cls-1" x="83.38" y="176.65" width="3.07" height="9.23"/><rect class="cls-1" x="87.81" y="176.65" width="3.07" height="9.23"/><rect class="cls-1" x="92.25" y="176.65" width="3.07" height="9.23"/><rect class="cls-1" x="96.68" y="176.65" width="3.07" height="9.23"/><rect class="cls-1" x="101.11" y="176.65" width="3.07" height="9.23"/><rect class="cls-1" x="105.55" y="176.65" width="3.07" height="9.23"/><rect class="cls-1" x="109.98" y="176.65" width="3.07" height="9.23"/><rect class="cls-2" x="57.75" y="198.3" width="55.79" height="15.71"/><rect class="cls-1" x="59.3" y="200.27" width="3.12" height="12.02"/><path class="cls-4" d="M66.11,202.8a1,1,0,1,1-2,0,1,1,0,0,1,2,0Z"/><circle class="cls-4" cx="65.11" cy="207.05" r="0.99"/><rect class="cls-1" x="70.08" y="201.81" width="3.07" height="9.23"/><rect class="cls-1" x="74.51" y="201.81" width="3.07" height="9.23"/><rect class="cls-1" x="78.94" y="201.81" width="3.07" height="9.23"/><rect class="cls-1" x="83.38" y="201.81" width="3.07" height="9.23"/><rect class="cls-1" x="87.81" y="201.81" width="3.07" height="9.23"/><rect class="cls-1" x="92.25" y="201.81" width="3.07" height="9.23"/><rect class="cls-1" x="96.68" y="201.81" width="3.07" height="9.23"/><rect class="cls-1" x="101.11" y="201.81" width="3.07" height="9.23"/><rect class="cls-1" x="105.55" y="201.81" width="3.07" height="9.23"/><rect class="cls-1" x="109.98" y="201.81" width="3.07" height="9.23"/><path class="cls-2" d="M92.25,47.36a1.5,1.5,0,0,1-.06-.48c0-.32,0-.79-.06-1.4s0-1.34-.08-2.2a13.5,13.5,0,0,0-.38-2.86,10.42,10.42,0,0,0-1.49-3.14,7,7,0,0,0-3.05-2.45A14.87,14.87,0,0,0,82.8,34L78,33.54c-6.59-.57-12.56-.94-16.89-1-2.16-.05-3.91,0-5.12,0l-1.4,0a2,2,0,0,1-.48,0,2.74,2.74,0,0,1,.48-.06L56,32.33c1.21-.06,3-.11,5.14-.1,4.33,0,10.32.33,16.91.91l4.81.42a14.56,14.56,0,0,1,4.43.93,7.17,7.17,0,0,1,3.18,2.6A10.39,10.39,0,0,1,92,40.34a14.19,14.19,0,0,1,.33,2.93c0,.86,0,1.61,0,2.21s0,1,0,1.4A4.57,4.57,0,0,1,92.25,47.36Z"/><path class="cls-2" d="M75.32,47.36a2.77,2.77,0,0,1,0-.46c0-.34,0-.77,0-1.31s0-1.26-.07-2.07a6.39,6.39,0,0,0-.69-2.58A5,5,0,0,0,72,39a7,7,0,0,0-3.67-.37,6.33,6.33,0,0,0-1.89.65A3.53,3.53,0,0,0,65,40.67a2,2,0,0,0,0,1.95,2.61,2.61,0,0,0,1.66,1.25,2.13,2.13,0,0,0,1.94-.56,2.9,2.9,0,0,0,.87-1.85,2.8,2.8,0,0,0-.58-1.89,4.05,4.05,0,0,0-1.47-1.3,5.44,5.44,0,0,0-1.84-.48l-1.83-.24c-1.19-.13-2.3-.21-3.31-.25-2-.08-3.68,0-4.82-.06H54.29l-.46,0a1.57,1.57,0,0,1,.45-.05l1.31-.07C56.73,37,58.38,37,60.43,37c1,0,2.14.09,3.33.21.6.06,1.22.14,1.86.22l1,.15a3.89,3.89,0,0,1,1,.35,4.41,4.41,0,0,1,1.61,1.4,3.18,3.18,0,0,1-.33,4.26,2.5,2.5,0,0,1-2.3.66,3,3,0,0,1-1.92-1.44,2.36,2.36,0,0,1,0-2.33A4,4,0,0,1,66.26,39a6.27,6.27,0,0,1,2-.67,7.16,7.16,0,0,1,3.85.42,5.25,5.25,0,0,1,2.64,2.1,6.59,6.59,0,0,1,.66,2.71c0,.81,0,1.51,0,2.08s0,1,0,1.32A1.66,1.66,0,0,1,75.32,47.36Z"/><path class="cls-2" d="M96.8,47.36a3.53,3.53,0,0,1-.12-.52c-.06-.34-.16-.84-.3-1.49A28.94,28.94,0,0,0,94.73,40a15.46,15.46,0,0,0-4.85-6.51,9.14,9.14,0,0,0-4.44-1.69,46.26,46.26,0,0,0-5.23-.28c-7.2-.13-13.74-.11-18.47-.3-2.36-.08-4.27-.19-5.59-.29l-1.52-.13a4.05,4.05,0,0,1-.52-.07,2,2,0,0,1,.53,0l1.52,0c1.32.05,3.23.12,5.59.17,4.72.11,11.25,0,18.47.18a45.58,45.58,0,0,1,5.28.29,9.58,9.58,0,0,1,4.61,1.78,14.24,14.24,0,0,1,3.07,3.26A18.55,18.55,0,0,1,95,39.93a26.59,26.59,0,0,1,1.54,5.39c.11.65.19,1.16.22,1.51A3,3,0,0,1,96.8,47.36Z"/><rect class="cls-2" x="58.51" y="17.63" width="54.25" height="7.88"/><rect class="cls-1" x="70.45" y="21.56" width="29.54" height="3.94"/><rect class="cls-5" x="151.63" y="140.27" width="87.49" height="61.94"/><rect class="cls-6" x="138.86" y="133.87" width="95.65" height="23.73"/><path class="cls-5" d="M169.15,140.27a1.09,1.09,0,1,1-1.09-1.08A1.08,1.08,0,0,1,169.15,140.27Z"/><path class="cls-5" d="M173.91,140.27a1.08,1.08,0,1,1-2.16,0,1.08,1.08,0,1,1,2.16,0Z"/><path class="cls-5" d="M178.68,140.27a1.08,1.08,0,1,1-1.08-1.08A1.08,1.08,0,0,1,178.68,140.27Z"/><path class="cls-5" d="M183.45,140.27a1.08,1.08,0,1,1-1.08-1.08A1.08,1.08,0,0,1,183.45,140.27Z"/><path class="cls-5" d="M220.39,140.27a1.08,1.08,0,1,1-1.08-1.08A1.08,1.08,0,0,1,220.39,140.27Z"/><path class="cls-5" d="M225.25,140.27a1.08,1.08,0,1,1-2.16,0,1.08,1.08,0,1,1,2.16,0Z"/><path class="cls-5" d="M188.22,140.27a1.09,1.09,0,1,1-1.09-1.08A1.08,1.08,0,0,1,188.22,140.27Z"/><path class="cls-5" d="M211.63,140.27a1.08,1.08,0,1,1-1.08-1.08A1.08,1.08,0,0,1,211.63,140.27Z"/><path class="cls-1" d="M193,140.27a1.08,1.08,0,1,1-2.16,0,1.08,1.08,0,1,1,2.16,0Z"/><path class="cls-1" d="M197.75,140.27a1.08,1.08,0,1,1-1.08-1.08A1.08,1.08,0,0,1,197.75,140.27Z"/><path class="cls-1" d="M207.42,140.27a1.08,1.08,0,1,1-2.16,0,1.08,1.08,0,1,1,2.16,0Z"/><path class="cls-1" d="M229.21,140.27a1.08,1.08,0,1,1-1.08-1.08A1.08,1.08,0,0,1,229.21,140.27Z"/><path class="cls-7" d="M202.52,140.27a1.08,1.08,0,1,1-1.08-1.08A1.08,1.08,0,0,1,202.52,140.27Z"/><path class="cls-7" d="M216.17,140.27a1.08,1.08,0,1,1-1.08-1.08A1.08,1.08,0,0,1,216.17,140.27Z"/><path class="cls-5" d="M227.05,145.48a1.08,1.08,0,1,1,1.08,1.08A1.08,1.08,0,0,1,227.05,145.48Z"/><circle class="cls-5" cx="223.36" cy="145.48" r="1.08"/><path class="cls-5" d="M217.51,145.48a1.08,1.08,0,1,1,1.08,1.08A1.08,1.08,0,0,1,217.51,145.48Z"/><path class="cls-5" d="M212.75,145.48a1.08,1.08,0,1,1,1.08,1.08A1.08,1.08,0,0,1,212.75,145.48Z"/><path class="cls-5" d="M175.8,145.48a1.08,1.08,0,1,1,1.08,1.08A1.08,1.08,0,0,1,175.8,145.48Z"/><path class="cls-5" d="M170.94,145.48a1.08,1.08,0,1,1,1.08,1.08A1.08,1.08,0,0,1,170.94,145.48Z"/><circle class="cls-5" cx="209.06" cy="145.48" r="1.08"/><circle class="cls-5" cx="185.65" cy="145.48" r="1.08"/><path class="cls-1" d="M203.21,145.48a1.08,1.08,0,1,1,1.08,1.08A1.08,1.08,0,0,1,203.21,145.48Z"/><path class="cls-1" d="M198.44,145.48a1.08,1.08,0,1,1,1.08,1.08A1.08,1.08,0,0,1,198.44,145.48Z"/><path class="cls-1" d="M188.77,145.48a1.08,1.08,0,1,1,1.08,1.08A1.08,1.08,0,0,1,188.77,145.48Z"/><path class="cls-1" d="M167,145.48a1.09,1.09,0,1,1,1.08,1.08A1.08,1.08,0,0,1,167,145.48Z"/><path class="cls-7" d="M193.68,145.48a1.08,1.08,0,1,1,1.08,1.08A1.08,1.08,0,0,1,193.68,145.48Z"/><path class="cls-7" d="M180,145.48a1.08,1.08,0,1,1,1.08,1.08A1.08,1.08,0,0,1,180,145.48Z"/><path class="cls-5" d="M169.15,150.11a1.09,1.09,0,1,1-1.09-1.08A1.08,1.08,0,0,1,169.15,150.11Z"/><path class="cls-5" d="M173.91,150.11a1.08,1.08,0,1,1-2.16,0,1.08,1.08,0,1,1,2.16,0Z"/><path class="cls-5" d="M178.68,150.11A1.08,1.08,0,1,1,177.6,149,1.08,1.08,0,0,1,178.68,150.11Z"/><path class="cls-5" d="M183.45,150.11a1.08,1.08,0,1,1-1.08-1.08A1.08,1.08,0,0,1,183.45,150.11Z"/><path class="cls-5" d="M220.39,150.11a1.08,1.08,0,1,1-1.08-1.08A1.08,1.08,0,0,1,220.39,150.11Z"/><path class="cls-5" d="M225.25,150.11a1.08,1.08,0,1,1-2.16,0,1.08,1.08,0,1,1,2.16,0Z"/><path class="cls-5" d="M188.22,150.11a1.09,1.09,0,1,1-1.09-1.08A1.08,1.08,0,0,1,188.22,150.11Z"/><path class="cls-5" d="M211.63,150.11a1.08,1.08,0,1,1-1.08-1.08A1.08,1.08,0,0,1,211.63,150.11Z"/><path class="cls-1" d="M193,150.11a1.08,1.08,0,1,1-2.16,0,1.08,1.08,0,1,1,2.16,0Z"/><path class="cls-1" d="M197.75,150.11a1.08,1.08,0,1,1-1.08-1.08A1.08,1.08,0,0,1,197.75,150.11Z"/><path class="cls-1" d="M207.42,150.11a1.08,1.08,0,1,1-2.16,0,1.08,1.08,0,1,1,2.16,0Z"/><path class="cls-1" d="M229.21,150.11a1.08,1.08,0,1,1-1.08-1.08A1.08,1.08,0,0,1,229.21,150.11Z"/><path class="cls-7" d="M202.52,150.11a1.08,1.08,0,1,1-1.08-1.08A1.08,1.08,0,0,1,202.52,150.11Z"/><path class="cls-7" d="M216.17,150.11a1.08,1.08,0,1,1-1.08-1.08A1.08,1.08,0,0,1,216.17,150.11Z"/><rect class="cls-5" x="143.1" y="138.76" width="18.83" height="2.9"/><rect class="cls-5" x="143.1" y="143.74" width="18.83" height="2.9"/><rect class="cls-5" x="143.1" y="148.9" width="18.83" height="2.9"/><rect class="cls-6" x="138.86" y="163.16" width="95.65" height="23.73"/><rect class="cls-5" x="143.1" y="168.04" width="18.83" height="2.9"/><rect class="cls-5" x="143.1" y="173.03" width="18.83" height="2.9"/><rect class="cls-5" x="143.1" y="178.18" width="18.83" height="2.9"/><path class="cls-5" d="M168.8,169.56a1.08,1.08,0,1,1-1.08-1.08A1.08,1.08,0,0,1,168.8,169.56Z"/><path class="cls-5" d="M173.57,169.56a1.08,1.08,0,1,1-2.16,0,1.08,1.08,0,1,1,2.16,0Z"/><path class="cls-5" d="M178.33,169.56a1.08,1.08,0,1,1-1.08-1.08A1.08,1.08,0,0,1,178.33,169.56Z"/><path class="cls-5" d="M183.1,169.56a1.08,1.08,0,1,1-1.08-1.08A1.08,1.08,0,0,1,183.1,169.56Z"/><path class="cls-5" d="M220,169.56a1.08,1.08,0,1,1-1.08-1.08A1.08,1.08,0,0,1,220,169.56Z"/><path class="cls-5" d="M224.91,169.56a1.08,1.08,0,1,1-2.16,0,1.08,1.08,0,1,1,2.16,0Z"/><path class="cls-5" d="M187.87,169.56a1.08,1.08,0,0,1-2.16,0,1.08,1.08,0,0,1,2.16,0Z"/><path class="cls-5" d="M211.28,169.56a1.08,1.08,0,1,1-1.08-1.08A1.08,1.08,0,0,1,211.28,169.56Z"/><path class="cls-1" d="M192.64,169.56a1.08,1.08,0,1,1-2.16,0,1.08,1.08,0,1,1,2.16,0Z"/><path class="cls-1" d="M197.4,169.56a1.08,1.08,0,1,1-1.08-1.08A1.08,1.08,0,0,1,197.4,169.56Z"/><path class="cls-1" d="M207.08,169.56a1.08,1.08,0,1,1-2.16,0,1.08,1.08,0,0,1,2.16,0Z"/><path class="cls-1" d="M228.86,169.56a1.08,1.08,0,1,1-1.08-1.08A1.08,1.08,0,0,1,228.86,169.56Z"/><path class="cls-7" d="M202.17,169.56a1.08,1.08,0,1,1-1.08-1.08A1.08,1.08,0,0,1,202.17,169.56Z"/><path class="cls-7" d="M215.82,169.56a1.08,1.08,0,1,1-1.08-1.08A1.08,1.08,0,0,1,215.82,169.56Z"/><path class="cls-5" d="M226.7,174.77a1.08,1.08,0,1,1,1.08,1.08A1.08,1.08,0,0,1,226.7,174.77Z"/><path class="cls-5" d="M221.93,174.77a1.08,1.08,0,1,1,1.08,1.08A1.08,1.08,0,0,1,221.93,174.77Z"/><path class="cls-5" d="M217.17,174.77a1.08,1.08,0,0,1,2.16,0,1.08,1.08,0,1,1-2.16,0Z"/><path class="cls-5" d="M212.4,174.77a1.08,1.08,0,1,1,1.08,1.08A1.08,1.08,0,0,1,212.4,174.77Z"/><path class="cls-5" d="M175.46,174.77a1.08,1.08,0,0,1,2.16,0,1.08,1.08,0,0,1-2.16,0Z"/><path class="cls-5" d="M170.59,174.77a1.08,1.08,0,1,1,1.08,1.08A1.08,1.08,0,0,1,170.59,174.77Z"/><path class="cls-5" d="M207.63,174.77a1.08,1.08,0,1,1,1.08,1.08A1.08,1.08,0,0,1,207.63,174.77Z"/><path class="cls-5" d="M184.22,174.77a1.08,1.08,0,1,1,1.08,1.08A1.08,1.08,0,0,1,184.22,174.77Z"/><path class="cls-1" d="M202.86,174.77a1.08,1.08,0,1,1,1.08,1.08A1.08,1.08,0,0,1,202.86,174.77Z"/><path class="cls-1" d="M198.1,174.77a1.08,1.08,0,1,1,2.16,0,1.08,1.08,0,1,1-2.16,0Z"/><path class="cls-1" d="M188.42,174.77a1.08,1.08,0,1,1,1.08,1.08A1.08,1.08,0,0,1,188.42,174.77Z"/><path class="cls-1" d="M166.64,174.77a1.08,1.08,0,1,1,1.08,1.08A1.08,1.08,0,0,1,166.64,174.77Z"/><path class="cls-7" d="M193.33,174.77a1.08,1.08,0,1,1,1.08,1.08A1.08,1.08,0,0,1,193.33,174.77Z"/><path class="cls-7" d="M179.68,174.77a1.08,1.08,0,1,1,1.08,1.08A1.08,1.08,0,0,1,179.68,174.77Z"/><path class="cls-5" d="M168.8,179.4a1.08,1.08,0,1,1-1.08-1.08A1.08,1.08,0,0,1,168.8,179.4Z"/><path class="cls-5" d="M173.57,179.4a1.08,1.08,0,1,1-2.16,0,1.08,1.08,0,1,1,2.16,0Z"/><path class="cls-5" d="M178.33,179.4a1.08,1.08,0,1,1-1.08-1.08A1.08,1.08,0,0,1,178.33,179.4Z"/><path class="cls-5" d="M183.1,179.4a1.08,1.08,0,1,1-1.08-1.08A1.08,1.08,0,0,1,183.1,179.4Z"/><path class="cls-5" d="M220,179.4a1.08,1.08,0,1,1-1.08-1.08A1.08,1.08,0,0,1,220,179.4Z"/><path class="cls-5" d="M224.91,179.4a1.08,1.08,0,1,1-2.16,0,1.08,1.08,0,1,1,2.16,0Z"/><path class="cls-5" d="M187.87,179.4a1.08,1.08,0,1,1-2.16,0,1.08,1.08,0,1,1,2.16,0Z"/><path class="cls-5" d="M211.28,179.4a1.08,1.08,0,1,1-1.08-1.08A1.08,1.08,0,0,1,211.28,179.4Z"/><path class="cls-1" d="M192.64,179.4a1.08,1.08,0,1,1-2.16,0,1.08,1.08,0,1,1,2.16,0Z"/><path class="cls-1" d="M197.4,179.4a1.08,1.08,0,1,1-1.08-1.08A1.08,1.08,0,0,1,197.4,179.4Z"/><path class="cls-1" d="M207.08,179.4a1.08,1.08,0,1,1-2.16,0,1.08,1.08,0,0,1,2.16,0Z"/><path class="cls-1" d="M228.86,179.4a1.08,1.08,0,1,1-1.08-1.08A1.08,1.08,0,0,1,228.86,179.4Z"/><path class="cls-7" d="M202.17,179.4a1.08,1.08,0,1,1-1.08-1.08A1.08,1.08,0,0,1,202.17,179.4Z"/><path class="cls-7" d="M215.82,179.4a1.08,1.08,0,1,1-1.08-1.08A1.08,1.08,0,0,1,215.82,179.4Z"/><polygon class="cls-5" points="248.88 157.38 234.5 157.42 234.5 133.69 248.88 133.65 248.88 157.38"/><polygon class="cls-5" points="248.88 186.85 234.5 186.89 234.5 163.16 248.88 163.12 248.88 186.85"/><polygon class="cls-5" points="248 216.54 233.62 216.58 233.62 192.85 248 192.81 248 216.54"/><rect class="cls-6" x="138.66" y="192.85" width="95.65" height="23.73"/><rect class="cls-5" x="142.91" y="197.73" width="18.83" height="2.9"/><rect class="cls-5" x="142.91" y="202.72" width="18.83" height="2.9"/><path class="cls-5" d="M169.19,199.48a1.08,1.08,0,1,1-1.08-1.08A1.08,1.08,0,0,1,169.19,199.48Z"/><path class="cls-5" d="M174,199.48a1.08,1.08,0,1,1-1.08-1.08A1.08,1.08,0,0,1,174,199.48Z"/><path class="cls-5" d="M178.72,199.48a1.08,1.08,0,0,1-2.16,0,1.08,1.08,0,0,1,2.16,0Z"/><path class="cls-5" d="M183.49,199.48a1.08,1.08,0,1,1-1.08-1.08A1.08,1.08,0,0,1,183.49,199.48Z"/><path class="cls-5" d="M220.43,199.48a1.08,1.08,0,0,1-2.16,0,1.08,1.08,0,0,1,2.16,0Z"/><path class="cls-5" d="M225.3,199.48a1.08,1.08,0,1,1-1.08-1.08A1.08,1.08,0,0,1,225.3,199.48Z"/><path class="cls-5" d="M188.26,199.48a1.08,1.08,0,1,1-1.08-1.08A1.08,1.08,0,0,1,188.26,199.48Z"/><path class="cls-5" d="M211.67,199.48a1.08,1.08,0,1,1-1.08-1.08A1.08,1.08,0,0,1,211.67,199.48Z"/><path class="cls-1" d="M193,199.48A1.08,1.08,0,1,1,192,198.4,1.08,1.08,0,0,1,193,199.48Z"/><path class="cls-1" d="M197.79,199.48a1.08,1.08,0,1,1-2.16,0,1.08,1.08,0,0,1,2.16,0Z"/><path class="cls-1" d="M207.47,199.48a1.08,1.08,0,1,1-1.08-1.08A1.08,1.08,0,0,1,207.47,199.48Z"/><path class="cls-1" d="M229.25,199.48a1.08,1.08,0,1,1-1.08-1.08A1.08,1.08,0,0,1,229.25,199.48Z"/><path class="cls-7" d="M202.56,199.48a1.08,1.08,0,1,1-1.08-1.08A1.08,1.08,0,0,1,202.56,199.48Z"/><path class="cls-7" d="M216.21,199.48a1.08,1.08,0,1,1-1.08-1.08A1.08,1.08,0,0,1,216.21,199.48Z"/><path class="cls-5" d="M227.09,204.69a1.08,1.08,0,1,1,1.08,1.08A1.08,1.08,0,0,1,227.09,204.69Z"/><path class="cls-5" d="M222.32,204.69a1.08,1.08,0,1,1,2.16,0,1.08,1.08,0,1,1-2.16,0Z"/><path class="cls-5" d="M217.56,204.69a1.08,1.08,0,1,1,1.08,1.08A1.08,1.08,0,0,1,217.56,204.69Z"/><path class="cls-5" d="M212.79,204.69a1.08,1.08,0,1,1,1.08,1.08A1.08,1.08,0,0,1,212.79,204.69Z"/><path class="cls-5" d="M175.85,204.69a1.08,1.08,0,1,1,1.08,1.08A1.08,1.08,0,0,1,175.85,204.69Z"/><path class="cls-5" d="M171,204.69a1.08,1.08,0,0,1,2.16,0,1.08,1.08,0,0,1-2.16,0Z"/><path class="cls-5" d="M208,204.69a1.08,1.08,0,1,1,1.08,1.08A1.08,1.08,0,0,1,208,204.69Z"/><path class="cls-5" d="M184.61,204.69a1.08,1.08,0,1,1,1.08,1.08A1.08,1.08,0,0,1,184.61,204.69Z"/><path class="cls-1" d="M203.25,204.69a1.08,1.08,0,1,1,2.16,0,1.08,1.08,0,1,1-2.16,0Z"/><path class="cls-1" d="M198.49,204.69a1.08,1.08,0,1,1,1.08,1.08A1.08,1.08,0,0,1,198.49,204.69Z"/><path class="cls-1" d="M188.81,204.69a1.08,1.08,0,0,1,2.16,0,1.08,1.08,0,0,1-2.16,0Z"/><path class="cls-1" d="M167,204.69a1.08,1.08,0,1,1,1.08,1.08A1.08,1.08,0,0,1,167,204.69Z"/><path class="cls-7" d="M193.72,204.69a1.08,1.08,0,1,1,1.08,1.08A1.08,1.08,0,0,1,193.72,204.69Z"/><path class="cls-7" d="M180.07,204.69a1.08,1.08,0,1,1,1.08,1.08A1.08,1.08,0,0,1,180.07,204.69Z"/><path class="cls-5" d="M169.19,209.32a1.08,1.08,0,1,1-1.08-1.08A1.08,1.08,0,0,1,169.19,209.32Z"/><path class="cls-5" d="M174,209.32a1.08,1.08,0,1,1-1.08-1.08A1.08,1.08,0,0,1,174,209.32Z"/><path class="cls-5" d="M178.72,209.32a1.08,1.08,0,0,1-2.16,0,1.08,1.08,0,0,1,2.16,0Z"/><path class="cls-5" d="M183.49,209.32a1.08,1.08,0,1,1-1.08-1.08A1.08,1.08,0,0,1,183.49,209.32Z"/><path class="cls-5" d="M220.43,209.32a1.08,1.08,0,0,1-2.16,0,1.08,1.08,0,0,1,2.16,0Z"/><path class="cls-5" d="M225.3,209.32a1.08,1.08,0,1,1-1.08-1.08A1.08,1.08,0,0,1,225.3,209.32Z"/><path class="cls-5" d="M188.26,209.32a1.08,1.08,0,1,1-1.08-1.08A1.08,1.08,0,0,1,188.26,209.32Z"/><path class="cls-5" d="M211.67,209.32a1.08,1.08,0,1,1-1.08-1.08A1.08,1.08,0,0,1,211.67,209.32Z"/><path class="cls-1" d="M193,209.32a1.08,1.08,0,1,1-1.08-1.08A1.08,1.08,0,0,1,193,209.32Z"/><path class="cls-1" d="M197.79,209.32a1.08,1.08,0,0,1-2.16,0,1.08,1.08,0,0,1,2.16,0Z"/><path class="cls-1" d="M207.47,209.32a1.08,1.08,0,1,1-1.08-1.08A1.08,1.08,0,0,1,207.47,209.32Z"/><path class="cls-1" d="M229.25,209.32a1.08,1.08,0,1,1-1.08-1.08A1.08,1.08,0,0,1,229.25,209.32Z"/><path class="cls-7" d="M202.56,209.32a1.08,1.08,0,1,1-1.08-1.08A1.08,1.08,0,0,1,202.56,209.32Z"/><path class="cls-7" d="M216.21,209.32a1.08,1.08,0,1,1-1.08-1.08A1.08,1.08,0,0,1,216.21,209.32Z"/><rect class="cls-3" x="252.23" width="70.7" height="216.58"/><polygon class="cls-2" points="378.71 216.58 322.93 216.58 322.83 0 378.71 0 378.71 216.58"/><rect class="cls-5" x="256.15" y="34.66" width="59.97" height="16.88"/><rect class="cls-6" x="257.82" y="36.78" width="3.36" height="12.92"/><path class="cls-8" d="M265.14,39.5a1.07,1.07,0,1,1-1.07-1.06A1.07,1.07,0,0,1,265.14,39.5Z"/><path class="cls-8" d="M265.14,44.07A1.07,1.07,0,1,1,264.07,43,1.07,1.07,0,0,1,265.14,44.07Z"/><rect class="cls-6" x="269.4" y="38.44" width="3.3" height="9.93"/><rect class="cls-6" x="274.17" y="38.44" width="3.3" height="9.93"/><rect class="cls-6" x="278.94" y="38.44" width="3.3" height="9.93"/><rect class="cls-6" x="283.7" y="38.44" width="3.3" height="9.93"/><rect class="cls-6" x="288.47" y="38.44" width="3.3" height="9.93"/><rect class="cls-6" x="293.24" y="38.44" width="3.3" height="9.93"/><rect class="cls-6" x="298" y="38.44" width="3.3" height="9.93"/><rect class="cls-6" x="302.77" y="38.44" width="3.3" height="9.93"/><rect class="cls-6" x="307.54" y="38.44" width="3.3" height="9.93"/><rect class="cls-6" x="312.3" y="38.44" width="3.3" height="9.93"/><rect class="cls-5" x="256.15" y="58.92" width="59.97" height="16.88"/><rect class="cls-6" x="257.82" y="61.04" width="3.36" height="12.92"/><path class="cls-8" d="M265.14,63.76a1.07,1.07,0,1,1-1.07-1.07A1.07,1.07,0,0,1,265.14,63.76Z"/><path class="cls-8" d="M265.14,68.33a1.07,1.07,0,1,1-1.07-1.07A1.07,1.07,0,0,1,265.14,68.33Z"/><rect class="cls-6" x="269.4" y="62.69" width="3.3" height="9.93"/><rect class="cls-6" x="274.17" y="62.69" width="3.3" height="9.93"/><rect class="cls-6" x="278.94" y="62.69" width="3.3" height="9.93"/><rect class="cls-6" x="283.7" y="62.69" width="3.3" height="9.93"/><rect class="cls-6" x="288.47" y="62.69" width="3.3" height="9.93"/><rect class="cls-6" x="293.24" y="62.69" width="3.3" height="9.93"/><rect class="cls-6" x="298" y="62.69" width="3.3" height="9.93"/><rect class="cls-6" x="302.77" y="62.69" width="3.3" height="9.93"/><rect class="cls-6" x="307.54" y="62.69" width="3.3" height="9.93"/><rect class="cls-6" x="312.3" y="62.69" width="3.3" height="9.93"/><rect class="cls-5" x="256.15" y="83.37" width="59.97" height="16.88"/><rect class="cls-6" x="257.82" y="85.49" width="3.36" height="12.92"/><path class="cls-8" d="M265.14,88.21a1.07,1.07,0,1,1-1.07-1.07A1.07,1.07,0,0,1,265.14,88.21Z"/><path class="cls-8" d="M265.14,92.78a1.07,1.07,0,1,1-1.07-1.07A1.07,1.07,0,0,1,265.14,92.78Z"/><rect class="cls-6" x="269.4" y="87.14" width="3.3" height="9.93"/><rect class="cls-6" x="274.17" y="87.14" width="3.3" height="9.93"/><rect class="cls-6" x="278.94" y="87.14" width="3.3" height="9.93"/><rect class="cls-6" x="283.7" y="87.14" width="3.3" height="9.93"/><rect class="cls-6" x="288.47" y="87.14" width="3.3" height="9.93"/><rect class="cls-6" x="293.24" y="87.14" width="3.3" height="9.93"/><rect class="cls-6" x="298" y="87.14" width="3.3" height="9.93"/><rect class="cls-6" x="302.77" y="87.14" width="3.3" height="9.93"/><rect class="cls-6" x="307.54" y="87.14" width="3.3" height="9.93"/><rect class="cls-6" x="312.3" y="87.14" width="3.3" height="9.93"/><rect class="cls-5" x="256.15" y="109.78" width="59.97" height="16.88"/><rect class="cls-6" x="257.82" y="111.9" width="3.36" height="12.92"/><path class="cls-8" d="M265.14,114.62a1.07,1.07,0,1,1-1.07-1.07A1.07,1.07,0,0,1,265.14,114.62Z"/><path class="cls-8" d="M265.14,119.19a1.07,1.07,0,1,1-1.07-1.07A1.07,1.07,0,0,1,265.14,119.19Z"/><rect class="cls-6" x="269.4" y="113.55" width="3.3" height="9.93"/><rect class="cls-6" x="274.17" y="113.55" width="3.3" height="9.93"/><rect class="cls-6" x="278.94" y="113.55" width="3.3" height="9.93"/><rect class="cls-6" x="283.7" y="113.55" width="3.3" height="9.93"/><rect class="cls-6" x="288.47" y="113.55" width="3.3" height="9.93"/><rect class="cls-6" x="293.24" y="113.55" width="3.3" height="9.93"/><rect class="cls-6" x="298" y="113.55" width="3.3" height="9.93"/><rect class="cls-6" x="302.77" y="113.55" width="3.3" height="9.93"/><rect class="cls-6" x="307.54" y="113.55" width="3.3" height="9.93"/><rect class="cls-6" x="312.3" y="113.55" width="3.3" height="9.93"/><rect class="cls-5" x="256.15" y="136.45" width="59.97" height="16.88"/><rect class="cls-6" x="257.82" y="138.58" width="3.36" height="12.92"/><path class="cls-8" d="M265.14,141.3a1.07,1.07,0,1,1-1.07-1.07A1.07,1.07,0,0,1,265.14,141.3Z"/><path class="cls-8" d="M265.14,145.86a1.07,1.07,0,1,1-1.07-1.07A1.07,1.07,0,0,1,265.14,145.86Z"/><rect class="cls-6" x="269.4" y="140.23" width="3.3" height="9.93"/><rect class="cls-6" x="274.17" y="140.23" width="3.3" height="9.93"/><rect class="cls-6" x="278.94" y="140.23" width="3.3" height="9.93"/><rect class="cls-6" x="283.7" y="140.23" width="3.3" height="9.93"/><rect class="cls-6" x="288.47" y="140.23" width="3.3" height="9.93"/><rect class="cls-6" x="293.24" y="140.23" width="3.3" height="9.93"/><rect class="cls-6" x="298" y="140.23" width="3.3" height="9.93"/><rect class="cls-6" x="302.77" y="140.23" width="3.3" height="9.93"/><rect class="cls-6" x="307.54" y="140.23" width="3.3" height="9.93"/><rect class="cls-6" x="312.3" y="140.23" width="3.3" height="9.93"/><rect class="cls-5" x="256.15" y="189.54" width="59.97" height="16.88"/><rect class="cls-6" x="257.82" y="191.66" width="3.36" height="12.92"/><path class="cls-8" d="M265.14,194.38a1.07,1.07,0,1,1-1.07-1.07A1.07,1.07,0,0,1,265.14,194.38Z"/><path class="cls-8" d="M265.14,199a1.07,1.07,0,1,1-1.07-1.07A1.06,1.06,0,0,1,265.14,199Z"/><rect class="cls-6" x="269.4" y="193.31" width="3.3" height="9.93"/><rect class="cls-6" x="274.17" y="193.31" width="3.3" height="9.93"/><rect class="cls-6" x="278.94" y="193.31" width="3.3" height="9.93"/><rect class="cls-6" x="283.7" y="193.31" width="3.3" height="9.93"/><rect class="cls-6" x="288.47" y="193.31" width="3.3" height="9.93"/><rect class="cls-6" x="293.24" y="193.31" width="3.3" height="9.93"/><rect class="cls-6" x="298" y="193.31" width="3.3" height="9.93"/><rect class="cls-6" x="302.77" y="193.31" width="3.3" height="9.93"/><rect class="cls-6" x="307.54" y="193.31" width="3.3" height="9.93"/><rect class="cls-6" x="312.3" y="193.31" width="3.3" height="9.93"/><rect class="cls-5" x="256.15" y="163.02" width="59.97" height="16.88"/><rect class="cls-6" x="257.82" y="165.14" width="3.36" height="12.92"/><path class="cls-8" d="M265.14,167.86a1.07,1.07,0,1,1-1.07-1.07A1.07,1.07,0,0,1,265.14,167.86Z"/><path class="cls-8" d="M265.14,172.43a1.07,1.07,0,1,1-1.07-1.07A1.06,1.06,0,0,1,265.14,172.43Z"/><rect class="cls-6" x="269.4" y="166.79" width="3.3" height="9.93"/><rect class="cls-6" x="274.17" y="166.79" width="3.3" height="9.93"/><rect class="cls-6" x="278.94" y="166.79" width="3.3" height="9.93"/><rect class="cls-6" x="283.7" y="166.79" width="3.3" height="9.93"/><rect class="cls-6" x="288.47" y="166.79" width="3.3" height="9.93"/><rect class="cls-6" x="293.24" y="166.79" width="3.3" height="9.93"/><rect class="cls-6" x="298" y="166.79" width="3.3" height="9.93"/><rect class="cls-6" x="302.77" y="166.79" width="3.3" height="9.93"/><rect class="cls-6" x="307.54" y="166.79" width="3.3" height="9.93"/><rect class="cls-6" x="312.3" y="166.79" width="3.3" height="9.93"/><path class="cls-5" d="M293.24,34.66a1.81,1.81,0,0,1-.06-.52c0-.34-.05-.85-.06-1.5s0-1.45-.07-2.37a15.85,15.85,0,0,0-.41-3.08A11.07,11.07,0,0,0,291,23.81a7.46,7.46,0,0,0-3.28-2.64,16.08,16.08,0,0,0-4.67-1l-5.16-.45c-7.08-.61-13.5-1-18.15-1.09-2.33-.05-4.21,0-5.51,0h-1.5a2.15,2.15,0,0,1-.53,0,3.08,3.08,0,0,1,.52,0l1.5-.09c1.3-.06,3.19-.11,5.52-.1,4.66,0,11.1.37,18.18,1l5.17.46a16,16,0,0,1,4.76,1,7.83,7.83,0,0,1,3.41,2.79,11.13,11.13,0,0,1,1.61,3.49,15.67,15.67,0,0,1,.36,3.14c0,.93,0,1.73,0,2.38s0,1.12,0,1.5A4.15,4.15,0,0,1,293.24,34.66Z"/><path class="cls-5" d="M275,34.66a3.14,3.14,0,0,1,0-.49c0-.36,0-.83,0-1.41s0-1.36-.07-2.22a6.86,6.86,0,0,0-.73-2.79,5.38,5.38,0,0,0-2.71-2.08,7.58,7.58,0,0,0-4-.41,7.05,7.05,0,0,0-2,.7,3.87,3.87,0,0,0-1.58,1.5,2.14,2.14,0,0,0,0,2.12,2.86,2.86,0,0,0,1.8,1.35,2.28,2.28,0,0,0,2.11-.61,3.08,3.08,0,0,0,.94-2,3,3,0,0,0-.62-2.05,4.55,4.55,0,0,0-1.59-1.41,6.09,6.09,0,0,0-2-.51c-.68-.1-1.34-.19-2-.26-1.27-.14-2.47-.22-3.56-.27-2.18-.08-4-.05-5.18-.05h-1.41a2.83,2.83,0,0,1-.5,0,2,2,0,0,1,.5-.05l1.41-.07c1.22-.05,3-.13,5.19-.08,1.1,0,2.3.1,3.59.23.64.06,1.3.15,2,.24l1,.16a4,4,0,0,1,1.06.37,4.69,4.69,0,0,1,1.72,1.51,3.39,3.39,0,0,1,.71,2.29,3.47,3.47,0,0,1-1.06,2.25,2.68,2.68,0,0,1-2.45.7,3.21,3.21,0,0,1-2.05-1.54,2.54,2.54,0,0,1,0-2.48,4.22,4.22,0,0,1,1.74-1.64,6.88,6.88,0,0,1,2.16-.72,7.75,7.75,0,0,1,4.12.45,5.56,5.56,0,0,1,2.83,2.25,7.06,7.06,0,0,1,.72,2.9c0,.88,0,1.63,0,2.24s0,1.05-.05,1.41A1.91,1.91,0,0,1,275,34.66Z"/><path class="cls-5" d="M298.13,34.66a4.41,4.41,0,0,1-.12-.56c-.06-.36-.17-.91-.31-1.6a31.85,31.85,0,0,0-1.77-5.72,16.72,16.72,0,0,0-5.22-7A9.85,9.85,0,0,0,285.93,18a48.7,48.7,0,0,0-5.63-.3c-7.75-.15-14.77-.12-19.85-.31-2.55-.09-4.6-.21-6-.31l-1.63-.14a3.35,3.35,0,0,1-.57-.07,4.26,4.26,0,0,1,.58,0l1.63.06c1.42.06,3.47.13,6,.19,5.08.12,12.1.05,19.86.2a47.66,47.66,0,0,1,5.67.31,10.18,10.18,0,0,1,4.94,1.91,15,15,0,0,1,3.3,3.49,20.17,20.17,0,0,1,2,3.7,29.13,29.13,0,0,1,1.66,5.79c.13.7.21,1.25.25,1.62A2.45,2.45,0,0,1,298.13,34.66Z"/><rect class="cls-5" x="256.97" y="2.69" width="58.32" height="8.47"/><rect class="cls-6" x="269.8" y="6.93" width="31.75" height="4.23"/><path class="cls-5" d="M339.09,178.29s-.64.11-1.76.43a15.47,15.47,0,0,0-4.41,2.16,12.26,12.26,0,0,0-2.47,2.3,9,9,0,0,0-1,1.57,10.37,10.37,0,0,0-.63,1.88c-.67,2.67-.47,5.73-.34,8.93s-.07,6.36-1.33,8.91a10.05,10.05,0,0,1-2.38,3.18,11.52,11.52,0,0,1-2.92,1.86,11,11,0,0,1-2.74.81,9.69,9.69,0,0,1-2.15.1,7.1,7.1,0,0,1-1.34-.22,2.18,2.18,0,0,1-.45-.13s.64.15,1.8.2a10.45,10.45,0,0,0,2.11-.16,11.13,11.13,0,0,0,2.66-.85,11.52,11.52,0,0,0,2.82-1.84,9.66,9.66,0,0,0,2.27-3.1c1.2-2.48,1.41-5.58,1.27-8.75s-.33-6.29.38-9a10.33,10.33,0,0,1,.67-1.94A8.92,8.92,0,0,1,330.2,183a12.46,12.46,0,0,1,2.57-2.32,14.26,14.26,0,0,1,4.52-2.08,10.31,10.31,0,0,1,1.33-.26A2.77,2.77,0,0,1,339.09,178.29Z"/><rect class="cls-5" x="312.21" y="207.45" width="4.79" height="5.82"/><rect class="cls-6" x="339.09" y="163.58" width="26.85" height="29.42"/><circle class="cls-5" cx="352.52" cy="178.41" r="8.84"/><circle class="cls-6" cx="352.52" cy="178.41" r="4.42"/><circle class="cls-5" cx="342.72" cy="168.15" r="0.82"/><path class="cls-5" d="M362.65,168.15a.82.82,0,1,1-.82-.82A.82.82,0,0,1,362.65,168.15Z"/><path class="cls-5" d="M362.83,189.87a.82.82,0,1,1-.82-.82A.82.82,0,0,1,362.83,189.87Z"/><path class="cls-5" d="M343.54,190.21a.82.82,0,1,1-.82-.82A.82.82,0,0,1,343.54,190.21Z"/><rect class="cls-5" x="365.94" y="163.58" width="2.17" height="29.42"/><path class="cls-5" d="M41.62,87.87,29.91,85,30,85a19.37,19.37,0,0,1-10.11,3,20.72,20.72,0,0,1-6.26-.91,19.26,19.26,0,0,1-6.1-3.24,19.58,19.58,0,0,1-7.39-13A20,20,0,0,1,.87,62.6a19.89,19.89,0,0,1,4.3-7.41,21.1,21.1,0,0,1,3.39-3c.64-.39,1.26-.79,1.91-1.14l1-.47.5-.24.51-.19a19.58,19.58,0,0,1,22.14,5.69A19.44,19.44,0,0,1,38.08,62a20.23,20.23,0,0,1,1.08,6.32,19.34,19.34,0,0,1-2.81,10.14v-.1c3.26,5.87,4.9,8.84,5.27,9.49-.38-.64-2.08-3.58-5.45-9.39l0,0,0-.05a19.22,19.22,0,0,0,2.7-10,19.83,19.83,0,0,0-1.09-6.21A19.15,19.15,0,0,0,20.87,49.28a19.34,19.34,0,0,0-8.25,1.27l-.5.18-.49.24-1,.47c-.63.33-1.25.73-1.87,1.12a19.79,19.79,0,0,0-3.32,2.89A19,19,0,0,0,.52,70.77a19.32,19.32,0,0,0,13.21,16,20.69,20.69,0,0,0,6.16.92,19.32,19.32,0,0,0,10-2.92l0,0h0Z"/><path class="cls-7" d="M18,59.75l.62,9.78A1.59,1.59,0,0,0,20.08,71h0a1.59,1.59,0,0,0,1.67-1.41l1.09-9.83a1.25,1.25,0,0,0-1.26-1.38l-2.38,0A1.25,1.25,0,0,0,18,59.75Z"/><path class="cls-7" d="M22.67,76.52a2.39,2.39,0,1,1-1.51-3A2.38,2.38,0,0,1,22.67,76.52Z"/><path class="cls-5" d="M178.75,59s-.59-.68-1.52-1.79S175,54.61,173.51,53s-2.78-3.19-3.66-4.35c-.44-.58-.79-1.05-1-1.4a2.23,2.23,0,0,1-.33-.54,23.49,23.49,0,0,1,1.52,1.8c.93,1.11,2.25,2.62,3.73,4.27s2.77,3.19,3.66,4.35c.44.58.78,1.06,1,1.4A2.64,2.64,0,0,1,178.75,59Z"/><path class="cls-5" d="M190.84,52.43c-.08,0-2.73-7.59-5.91-17s-5.68-17.1-5.59-17.13,2.73,7.59,5.91,17S190.93,52.4,190.84,52.43Z"/><path class="cls-5" d="M201.32,54.41c-.09,0,1.2-4.24,2.88-9.41s3.11-9.34,3.2-9.31-1.21,4.24-2.89,9.41S201.41,54.44,201.32,54.41Z"/><path class="cls-5" d="M219.06,53.88c.06.08-1.55,1.31-3.46,2.92s-3.41,3-3.48,2.92a5.27,5.27,0,0,1,.89-1c.58-.58,1.41-1.36,2.37-2.17s1.87-1.49,2.54-2A5,5,0,0,1,219.06,53.88Z"/><path class="cls-5" d="M209.51,28.51c.09,0,0,.5-.17,1s-.4,1-.49,1,0-.5.18-1.05S209.43,28.48,209.51,28.51Z"/><path class="cls-5" d="M165.45,43.31c-.08,0-.32-.16-.55-.49s-.36-.62-.28-.67.32.16.55.48S165.52,43.26,165.45,43.31Z"/><path class="cls-5" d="M233.13,63.5H153.69A2.48,2.48,0,0,0,151.21,66v56.11a2.48,2.48,0,0,0,2.48,2.48h30.49a7.66,7.66,0,0,1-4.08,9.1h28.51s-6.79-2.33-5-9.1h29.56a2.48,2.48,0,0,0,2.48-2.48V66A2.48,2.48,0,0,0,233.13,63.5Z"/><path class="cls-6" d="M194.47,118.67a1.53,1.53,0,0,1-2.16,2.16.57.57,0,0,1-.13-.14,1.53,1.53,0,0,1,2.15-2.15A.44.44,0,0,1,194.47,118.67Z"/><path class="cls-8" d="M155.42,64.53h76a2.85,2.85,0,0,1,2.85,2.85v46.93a0,0,0,0,1,0,0H152.57a0,0,0,0,1,0,0V67.38A2.85,2.85,0,0,1,155.42,64.53Z"/><path class="cls-3" d="M155.55,64.53h76.24A2.45,2.45,0,0,1,234.24,67v1.69a0,0,0,0,1,0,0H152.57a0,0,0,0,1,0,0V67.51A3,3,0,0,1,155.55,64.53Z"/><path class="cls-2" d="M155.75,66.68a.58.58,0,1,1-.57-.57A.58.58,0,0,1,155.75,66.68Z"/><path class="cls-2" d="M157.46,66.68a.58.58,0,1,1-.57-.57A.58.58,0,0,1,157.46,66.68Z"/><path class="cls-2" d="M159.09,66.68a.58.58,0,1,1-.58-.57A.58.58,0,0,1,159.09,66.68Z"/><path class="cls-6" d="M218.92,124.58s-11.3,0-25.24,0-25.25,0-25.25,0,11.3,0,25.25,0S218.92,124.55,218.92,124.58Z"/><path class="cls-7" d="M185.68,87c0,2.51-1.85,4.7-5.9,4.7a9.85,9.85,0,0,1-5.42-1.52l1.3-2.52a6.75,6.75,0,0,0,4,1.28c1.65,0,2.66-.69,2.66-1.84s-.73-1.85-3.3-1.85h-3.63l.73-8h8.65v2.64h-5.92l-.22,2.7h1.16C184,82.56,185.68,84.44,185.68,87Z"/><path class="cls-7" d="M187,84.32c0-4.68,2.6-7.34,6.08-7.34s6.08,2.66,6.08,7.34-2.57,7.34-6.08,7.34S187,89,187,84.32Zm8.86,0c0-3.22-1.13-4.56-2.78-4.56s-2.75,1.34-2.75,4.56,1.13,4.56,2.75,4.56S195.87,87.54,195.87,84.32Z"/><path class="cls-7" d="M200.77,84.32c0-4.68,2.6-7.34,6.09-7.34s6.08,2.66,6.08,7.34-2.58,7.34-6.08,7.34S200.77,89,200.77,84.32Zm8.86,0c0-3.22-1.13-4.56-2.77-4.56s-2.76,1.34-2.76,4.56,1.13,4.56,2.76,4.56S209.63,87.54,209.63,84.32Z"/><path class="cls-5" d="M164.68,95.11h.6v4.2h-.6Z"/><path class="cls-5" d="M170.15,95.11v4.2h-.5l-2.51-3.13v3.13h-.6v-4.2H167l2.52,3.13V95.11Z"/><path class="cls-5" d="M172.23,95.63H170.8v-.52h3.47v.52h-1.44v3.68h-.6Z"/><path class="cls-5" d="M178,98.78v.53h-3v-4.2h3v.52h-2.36v1.29h2.1v.51h-2.1v1.35Z"/><path class="cls-5" d="M181.74,99.31,180.83,98h-1.3v1.28h-.6v-4.2h1.64c1.09,0,1.75.55,1.75,1.46a1.33,1.33,0,0,1-.93,1.33l1,1.41Zm0-2.74c0-.6-.4-.94-1.17-.94h-1v1.89h1C181.32,97.52,181.72,97.17,181.72,96.57Z"/><path class="cls-5" d="M186.89,95.11v4.2h-.49l-2.52-3.13v3.13h-.59v-4.2h.49l2.51,3.13V95.11Z"/><path class="cls-5" d="M190.82,98.26h-2.23l-.46,1h-.62l1.9-4.2h.6l1.9,4.2h-.63Zm-.21-.48-.9-2.06-.91,2.06Z"/><path class="cls-5" d="M192.53,95.11h.6v3.67h2.27v.53h-2.87Z"/><path class="cls-5" d="M197.32,98.83l.22-.47a2.18,2.18,0,0,0,1.39.48c.72,0,1-.28,1-.64,0-1-2.54-.38-2.54-1.94,0-.65.5-1.2,1.61-1.2a2.48,2.48,0,0,1,1.35.37l-.2.48a2.21,2.21,0,0,0-1.15-.34c-.72,0-1,.3-1,.67,0,1,2.54.38,2.54,1.92,0,.64-.52,1.19-1.62,1.19A2.48,2.48,0,0,1,197.32,98.83Z"/><path class="cls-5" d="M204.47,98.78v.53h-3.05v-4.2h3v.52H202v1.29h2.11v.51H202v1.35Z"/><path class="cls-5" d="M208.24,99.31l-.9-1.29H206v1.28h-.59v-4.2h1.63c1.09,0,1.75.55,1.75,1.46a1.32,1.32,0,0,1-.92,1.33l1,1.41Zm0-2.74c0-.6-.4-.94-1.17-.94h-1v1.89h1C207.82,97.52,208.22,97.17,208.22,96.57Z"/><path class="cls-5" d="M213.43,95.11l-1.84,4.2H211l-1.85-4.2h.65l1.51,3.45,1.52-3.45Z"/><path class="cls-5" d="M217,98.78v.53h-3v-4.2h3v.52h-2.37v1.29h2.11v.51h-2.11v1.35Z"/><path class="cls-5" d="M220.78,99.31l-.9-1.29h-1.3v1.28H218v-4.2h1.63c1.09,0,1.75.55,1.75,1.46a1.32,1.32,0,0,1-.92,1.33l1,1.41Zm0-2.74c0-.6-.41-.94-1.17-.94h-1v1.89h1C220.36,97.52,220.77,97.17,220.77,96.57Z"/><path class="cls-5" d="M186.54,106v.83h-3.46v-4.47h3.38v.83h-2.35v1h2.07v.8h-2.07v1Z"/><path class="cls-5" d="M190.2,106.85l-.86-1.25h-1v1.25h-1v-4.47h1.93c1.2,0,1.94.62,1.94,1.62a1.45,1.45,0,0,1-.92,1.41l1,1.44Zm-1-3.63h-.85v1.56h.85c.63,0,.95-.29.95-.78S189.87,103.22,189.24,103.22Z"/><path class="cls-5" d="M194.89,106.85,194,105.6h-.95v1.25h-1v-4.47H194c1.19,0,1.94.62,1.94,1.62a1.45,1.45,0,0,1-.92,1.41l1,1.44Zm-1-3.63h-.84v1.56h.84c.63,0,1-.29,1-.78S194.55,103.22,193.92,103.22Z"/><path class="cls-5" d="M196.45,104.61a2.45,2.45,0,1,1,2.45,2.31A2.31,2.31,0,0,1,196.45,104.61Zm3.84,0A1.4,1.4,0,1,0,198.9,106,1.36,1.36,0,0,0,200.29,104.61Z"/><path class="cls-5" d="M205,106.85l-.86-1.25h-.95v1.25h-1v-4.47h1.93c1.19,0,1.94.62,1.94,1.62a1.45,1.45,0,0,1-.92,1.41l1,1.44Zm-1-3.63h-.84v1.56H204c.63,0,.95-.29.95-.78S204.62,103.22,204,103.22Z"/><path class="cls-7" d="M161,90.21a1.52,1.52,0,0,1-1.3-2.27l4.39-7.53a1.51,1.51,0,0,1,1.31-.75h0a1.51,1.51,0,0,1,1.3.77L171,88a1.51,1.51,0,0,1-1.32,2.26l-8.71,0Zm4.41-10.09h0a1,1,0,0,0-.92.52l-4.39,7.53a1.06,1.06,0,0,0,0,1.06,1,1,0,0,0,.91.53h0l8.71,0a1.07,1.07,0,0,0,.93-1.59l-4.32-7.56A1,1,0,0,0,165.42,80.12Z"/><path class="cls-7" d="M164.75,87.79a.56.56,0,0,1,.59-.55.55.55,0,0,1,.57.55.56.56,0,0,1-.57.57A.57.57,0,0,1,164.75,87.79Zm.06-4.53h1.06l-.18,3.37H165Z"/><path class="cls-7" d="M216.59,90.21a1.51,1.51,0,0,1-1.29-2.27l4.39-7.53a1.51,1.51,0,0,1,1.31-.75h0a1.51,1.51,0,0,1,1.3.77L226.63,88a1.51,1.51,0,0,1-1.32,2.26l-8.71,0ZM221,80.12h0a1,1,0,0,0-.92.52l-4.39,7.53a1.06,1.06,0,0,0,0,1.06,1,1,0,0,0,.91.53h0l8.71,0a1.07,1.07,0,0,0,.93-1.59l-4.32-7.56A1,1,0,0,0,221,80.12Z"/><path class="cls-7" d="M220.34,87.79a.56.56,0,0,1,.59-.55.55.55,0,0,1,.57.55.56.56,0,0,1-.57.57A.57.57,0,0,1,220.34,87.79Zm.06-4.53h1.06l-.18,3.37h-.71Z"/><path class="cls-5" d="M432.89,216.58c0,.09-96.48.16-215.48.16s-215.5-.07-215.5-.16,96.47-.17,215.5-.17S432.89,216.49,432.89,216.58Z"/><path class="cls-9" d="M71.57,83.71h.73a14,14,0,0,1,14,12.68c.54,6.64,1.05,14,1,17.56-.11,7.38-7.69,8.51-7.69,8.51l.28,6.56a9,9,0,0,1-8.49,9.31h0a9,9,0,0,1-9.55-8.58L60.32,98.57C59.66,90.91,63.68,84.14,71.57,83.71Z"/><path class="cls-10" d="M79.71,122.45a18.8,18.8,0,0,1-9.92-2.85s2.32,5.31,9.89,4.66Z"/><path class="cls-5" d="M84.75,101.76a1.07,1.07,0,0,1-1,1.07,1,1,0,0,1-1.11-1,1.07,1.07,0,0,1,1-1.06A1,1,0,0,1,84.75,101.76Z"/><path class="cls-5" d="M84.72,100c-.14.14-1-.45-2.12-.45s-2,.57-2.15.43.08-.31.45-.58a3.08,3.08,0,0,1,1.72-.51,2.91,2.91,0,0,1,1.68.54C84.66,99.68,84.78,99.93,84.72,100Z"/><path class="cls-5" d="M74,101.76A1.07,1.07,0,0,1,73,102.83a1,1,0,0,1-1.11-1,1.07,1.07,0,0,1,1-1.06A1,1,0,0,1,74,101.76Z"/><path class="cls-5" d="M73.84,100.18c-.13.14-1-.45-2.12-.45s-2,.56-2.14.43.07-.31.45-.58a3,3,0,0,1,1.71-.51,3,3,0,0,1,1.69.53C73.79,99.87,73.91,100.12,73.84,100.18Z"/><path class="cls-5" d="M77.48,108.6a8.49,8.49,0,0,1,1.89-.33c.3,0,.58-.08.63-.28a1.41,1.41,0,0,0-.2-.86c-.28-.7-.57-1.43-.87-2.21a36.87,36.87,0,0,1-2-5.77,36.83,36.83,0,0,1,2.44,5.61l.84,2.22a1.65,1.65,0,0,1,.15,1.13.74.74,0,0,1-.49.43,2,2,0,0,1-.51.06A7.38,7.38,0,0,1,77.48,108.6Z"/><path class="cls-5" d="M67.73,97c0-.33,1.13-.62,2.34-1.27s2.11-1.39,2.38-1.2c.12.09,0,.43-.25.87a4.49,4.49,0,0,1-1.59,1.35,4.56,4.56,0,0,1-2,.54C68.06,97.33,67.74,97.2,67.73,97Z"/><path class="cls-5" d="M81.51,96c.29-.16.92.41,1.8.8s1.7.55,1.77.87c0,.15-.2.34-.62.42a2.93,2.93,0,0,1-2.88-1.35C81.37,96.41,81.37,96.12,81.51,96Z"/><path class="cls-9" d="M61.45,104c-.13-.06-5.2-1.51-5.05,3.53s5.33,3.86,5.33,3.71S61.45,104,61.45,104Z"/><path class="cls-10" d="M60.55,109.42s-.09.06-.24.13a.94.94,0,0,1-.68,0,2.17,2.17,0,0,1-1.09-1.92,2.91,2.91,0,0,1,.21-1.27,1,1,0,0,1,.66-.69.45.45,0,0,1,.54.22c.08.14,0,.24.07.25s.11-.09.07-.3a.64.64,0,0,0-.22-.31.69.69,0,0,0-.5-.11,1.26,1.26,0,0,0-.92.81,3,3,0,0,0-.27,1.42,2.29,2.29,0,0,0,1.38,2.14,1,1,0,0,0,.83-.16C60.54,109.54,60.57,109.43,60.55,109.42Z"/><path class="cls-5" d="M64.85,89l21.61.46a9.63,9.63,0,0,0-3.18-3.57A17.1,17.1,0,0,0,73.5,82.5C70,82.44,62.8,86.62,60.25,89c-2,1.9-2,3.54-2,3.54-.33,2.72,1.24,5.83,1.87,8.5.32,1.39.94,5.56.94,5.56h0c1.19,0,1.63-.92,1.45-2.07L62.26,100a6.71,6.71,0,0,0,2.13-7.94C64.08,91.68,63.42,89.8,64.85,89Z"/><path class="cls-10" d="M69.39,105a.15.15,0,0,1-.16-.11.13.13,0,0,1,.1-.16.14.14,0,0,1,.16.11A.14.14,0,0,1,69.39,105Z"/><path class="cls-10" d="M71.61,104.51a.14.14,0,0,1-.15-.13.15.15,0,0,1,.09-.18.16.16,0,0,1,.16.13A.14.14,0,0,1,71.61,104.51Z"/><path class="cls-10" d="M73.11,104.48c-.07,0-.14-.08-.15-.19s0-.21.1-.22.14.08.15.19S73.18,104.47,73.11,104.48Z"/><path class="cls-10" d="M70.48,106.36c-.07,0-.13,0-.13-.08s.06-.08.13-.08.13,0,.13.08S70.55,106.36,70.48,106.36Z"/><path class="cls-10" d="M72.52,105.9a.13.13,0,0,1-.14-.13.14.14,0,0,1,.12-.15.13.13,0,0,1,.14.13A.14.14,0,0,1,72.52,105.9Z"/><path class="cls-10" d="M83.14,104.69a.14.14,0,0,1,0-.28.13.13,0,0,1,.15.12A.13.13,0,0,1,83.14,104.69Z"/><path class="cls-10" d="M84.66,104.56a.15.15,0,0,1-.14-.15.15.15,0,0,1,.11-.17.15.15,0,0,1,.14.15A.14.14,0,0,1,84.66,104.56Z"/><path class="cls-10" d="M81.8,104.72a.11.11,0,0,1-.14-.08.11.11,0,0,1,.1-.13.12.12,0,0,1,.15.08A.12.12,0,0,1,81.8,104.72Z"/><path class="cls-10" d="M82.93,106.2a.14.14,0,0,1-.18-.08A.13.13,0,1,1,83,106,.13.13,0,0,1,82.93,106.2Z"/><path class="cls-10" d="M84.22,106c-.07,0-.11-.08-.09-.13a.11.11,0,0,1,.15-.07c.07,0,.11.08.09.13A.11.11,0,0,1,84.22,106Z"/><path class="cls-5" d="M60.11,89.27a6,6,0,0,1,1.21-5.41,6.41,6.41,0,0,1,5.17-2.32,20.44,20.44,0,0,0,3,.21c1.86-.2,3.31-1.66,5-2.37a6.7,6.7,0,0,1,7.77,2.27c.66,1,1.09,2.14,2.1,2.74a11.87,11.87,0,0,0,2.94.76,4.68,4.68,0,0,1,3.23,4.64,5.52,5.52,0,0,1-3.45,4.64,7.14,7.14,0,0,1-6-.41c-1.63-.89-3.09-2.39-5-2.34s-3.62,1.83-5.52,1.46a5.37,5.37,0,0,1-2.49-1.63,4.37,4.37,0,0,0-2.57-1.44c-1-.06-1.54,1.3-1.18,2.22l-4.35-3"/><path class="cls-6" d="M86,86.83l0,.08a2,2,0,0,1-.12.2,3.47,3.47,0,0,1-.62.68,3.87,3.87,0,0,1-5.31-.3,25.22,25.22,0,0,1-1.49-2.22,3,3,0,0,0-1-.92,3.19,3.19,0,0,0-2.9.08,2.64,2.64,0,0,0-1.09,1.08c-.26.46-.45,1-.76,1.42a1.79,1.79,0,0,1-1.38.82,2.77,2.77,0,0,1-1.51-.42,5.92,5.92,0,0,1-1.15-.93,4.78,4.78,0,0,0-2.14-1.48,2.78,2.78,0,0,0-2.17.49,3.72,3.72,0,0,0-1.2,1.44,5.83,5.83,0,0,0-.44,1.35,8.54,8.54,0,0,0-.14.9,2.1,2.1,0,0,1-.05.31v-.32c0-.2,0-.51.11-.9A5.6,5.6,0,0,1,63,86.8a3.71,3.71,0,0,1,1.21-1.5,2.94,2.94,0,0,1,2.3-.55,5,5,0,0,1,2.24,1.52,5.11,5.11,0,0,0,1.11.89,2.54,2.54,0,0,0,1.39.39,1.58,1.58,0,0,0,1.23-.73c.29-.42.48-.93.75-1.41a2.94,2.94,0,0,1,1.16-1.16A3.53,3.53,0,0,1,76,83.84a3.18,3.18,0,0,1,1.53.34,3.1,3.1,0,0,1,1.11,1,22.9,22.9,0,0,0,1.47,2.21,3.7,3.7,0,0,0,2,1.12,3.6,3.6,0,0,0,1.89-.08,3.87,3.87,0,0,0,1.27-.68A4.77,4.77,0,0,0,86,86.83Z"/><path class="cls-6" d="M90,86.91a1,1,0,0,1,.08.4,3,3,0,0,1-.11,1.13,3.77,3.77,0,0,1-.81,1.48,4.62,4.62,0,0,1-1.7,1.22,7.24,7.24,0,0,1-3.77.41,10.58,10.58,0,0,1-1.14-.22,2,2,0,0,1-.4-.13s.59.11,1.55.21A7.57,7.57,0,0,0,87.33,91,4.72,4.72,0,0,0,89,89.8a3.92,3.92,0,0,0,.81-1.4A4.37,4.37,0,0,0,90,86.91Z"/><path class="cls-10" d="M76.52,110.4a8.64,8.64,0,0,0-1.62-.85,1.31,1.31,0,0,0-1.14.22,1.45,1.45,0,0,0-.41.91,1.67,1.67,0,0,0,.25,1.2,2.3,2.3,0,0,0,1.15.71,1.68,1.68,0,0,0,1.12.12,1.14,1.14,0,0,0,.7-.87,3.32,3.32,0,0,0,0-1.44"/><path class="cls-5" d="M75.07,112.65a1.55,1.55,0,0,1-1-.25,1.92,1.92,0,0,1-.8-.84,1.45,1.45,0,0,1,.07-1.45,1.22,1.22,0,0,1,.6-.5,1.55,1.55,0,0,1,.73-.06,3.32,3.32,0,0,1,1,.44c.54.34.89.46.88.5s-.42,0-1-.29a3.57,3.57,0,0,0-1-.35,1,1,0,0,0-1,.44,1.22,1.22,0,0,0-.07,1.14,1.8,1.8,0,0,0,.65.77C74.69,112.53,75.09,112.59,75.07,112.65Z"/><path class="cls-5" d="M66.38,97.88c-.09,0-.12-.55-.12-1.21s0-1.2.11-1.21.22.53.22,1.21S66.47,97.89,66.38,97.88Z"/><path class="cls-5" d="M65.65,98.18a3.64,3.64,0,0,1-.18-1.51,3.41,3.41,0,0,1,.15-1.51,3.68,3.68,0,0,1,.18,1.51A3.59,3.59,0,0,1,65.65,98.18Z"/><path class="cls-7" d="M29.82,217.79a3.19,3.19,0,0,0-1.38,1L27.5,220a3.19,3.19,0,0,0-.48,3h0a3.19,3.19,0,0,0,3.07,2.11l28-.64-2.8-11.23L54,210.05h0"/><path class="cls-8" d="M41.56,224.94c.09,0-.16-.83-.05-1.84a17.58,17.58,0,0,1,.4-1.8,2.62,2.62,0,0,0-.72,1.77A2.68,2.68,0,0,0,41.56,224.94Z"/><path class="cls-5" d="M43.85,224.33a12.11,12.11,0,0,1,.37-1.54,14.08,14.08,0,0,1,.81-1.35c0-.08-.74.34-1.1,1.24A1.94,1.94,0,0,0,43.85,224.33Z"/><path class="cls-8" d="M38.34,225.1c.09,0-.11-.91,0-2s.48-1.92.4-2a3.16,3.16,0,0,0-.71,1.93A3.21,3.21,0,0,0,38.34,225.1Z"/><path class="cls-8" d="M35.51,225a4.9,4.9,0,0,1,.43-3.84s-.22.13-.43.44A3.37,3.37,0,0,0,35,223a3.25,3.25,0,0,0,.17,1.47C35.32,224.87,35.47,225.05,35.51,225Z"/><path class="cls-5" d="M54,212.32v.31S54.45,212.21,54,212.32Z"/><path class="cls-5" d="M53.89,212.37l0,0Z"/><path class="cls-5" d="M53.85,212.39l-.17.07Z"/><path class="cls-5" d="M44,212.84,30.3,217.3a6.56,6.56,0,0,0-2.07,1.11c-1.14,1-2.08,2.69-1.51,4.27.74,2.06,2,2.2,2,2.2s-1.53-1.88-1.09-3.31,2.1-2.76,4.11-3.53l22.15-5.67.15-.05v-2.27Z"/><path class="cls-5" d="M53.68,212.46Z"/><path class="cls-8" d="M32.65,225.31a10.52,10.52,0,0,0,.57-3.63,10.29,10.29,0,0,0-1-3.53,2.45,2.45,0,0,1,.65.91,6.45,6.45,0,0,1,.72,2.59,6.61,6.61,0,0,1-.37,2.67A2.86,2.86,0,0,1,32.65,225.31Z"/><path class="cls-8" d="M53.89,216.47a3.67,3.67,0,0,1-2.32-1,3.57,3.57,0,0,1-1.42-2.09,13.1,13.1,0,0,0,1.63,1.84A14.85,14.85,0,0,0,53.89,216.47Z"/><path class="cls-5" d="M83.06,83.7a3,3,0,0,1,1.38-2.15c.07.42.15.84.23,1.26a3.78,3.78,0,0,1,3-1.66l-.92,1.63a4.5,4.5,0,0,1,2-.27,4.73,4.73,0,0,1-1.6,1.64A3,3,0,0,0,85.82,86"/><path class="cls-9" d="M121.1,126.82l-28,23.11c-.48-.4-9-17.21-9-17.21l24.51-14.58L87.48,99.28l5.44-4.12L119.58,110a10.21,10.21,0,0,1,5.22,8.31h0A10.22,10.22,0,0,1,121.1,126.82Z"/><path class="cls-9" d="M88.91,100.42l4.33-5h0l-5.63-5.23-1.48-3.71a2.31,2.31,0,0,0-2-2.73l-4.57-.3s-2.15-.11-2,1.25a.66.66,0,0,0,.45.51l-.45.77c0,1.24,1.55,1.38,1.55,1.38l3.82.35.75,2s-4.57-2.09-5.32-1.29,7.7,5.1,7.7,5.1l.34,5.49.88.34Z"/><path class="cls-10" d="M86.13,86.62a3.41,3.41,0,0,0-.82-.87,3,3,0,0,0-1.2-.44,8.49,8.49,0,0,0-1.62-.06,28,28,0,0,1-4.25-.07,27.32,27.32,0,0,1,4.24-.26,7.65,7.65,0,0,1,1.68.09,3.08,3.08,0,0,1,1.28.55A1.52,1.52,0,0,1,86.13,86.62Z"/><path class="cls-10" d="M87.42,92s-.18-.19-.47-.46a5.31,5.31,0,0,0-1.29-.89,15,15,0,0,1-2-1,5.54,5.54,0,0,1,2.19.75,4.11,4.11,0,0,1,1.31,1C87.39,91.73,87.46,92,87.42,92Z"/><path class="cls-10" d="M90.47,102a4.85,4.85,0,0,1-.92-.69c-.55-.45-1.31-1.11-2.17-1.87l.16,0a1.11,1.11,0,0,1-1.28-.55A2.16,2.16,0,0,1,86,97.77c0-.35,0-.68,0-1q0-.9.06-1.68a6.63,6.63,0,0,1,.14-1.55,6.72,6.72,0,0,1,.09,1.55c0,.52,0,1.08,0,1.69a4.48,4.48,0,0,0,.21,1.93.79.79,0,0,0,.89.42l.09,0,.07.07c.85.77,1.58,1.45,2.1,2A5,5,0,0,1,90.47,102Z"/><path class="cls-10" d="M113.41,122.88a22.84,22.84,0,0,1-2.52-2.3c-1.35-1.31-2.54-2.24-2.5-2.3a9.56,9.56,0,0,1,2.72,2.06A14.75,14.75,0,0,1,113.41,122.88Z"/><path class="cls-5" d="M79.1,87.56a3.6,3.6,0,0,1,1.28-1,1.55,1.55,0,0,1,1.52.18c.32.25.49.66.8.91a1.55,1.55,0,0,0,1.49.15,3.64,3.64,0,0,0,1.27-.9c.12-.11.28-.23.42-.15a.33.33,0,0,1,.12.25,1.86,1.86,0,0,1-.28,1.3.87.87,0,0,0,.65-.08,1.18,1.18,0,0,1-.75,1.43,3.1,3.1,0,0,1-1.76,0A10.34,10.34,0,0,1,80,88.22"/><path class="cls-7" d="M31.81,139.83A23.39,23.39,0,0,1,41.26,120,21.54,21.54,0,0,1,32,140.1"/><g class="cls-11"><path d="M31.81,139.83A23.39,23.39,0,0,1,41.26,120,21.54,21.54,0,0,1,32,140.1"/></g><path class="cls-9" d="M54.09,132,38.25,117.92,57.46,98.57,50,93.1S27.32,110.21,22.75,115c-2.12,2.24-2.9,8.09-.29,10.75,6.73,6.86,20.29,19.2,20.29,19.2Z"/><path class="cls-9" d="M74.44,89.52,67.8,88.45l3.84-1.94,1.86-.06a2.62,2.62,0,0,0-2.43-2.08c-2.08-.13-2.42.28-2.42.28s-1-2.17-1.56-2.31A7.91,7.91,0,0,0,64.64,82a4.86,4.86,0,0,0-1.76,1.1s-2.45-1.32-3.05-.49a17.6,17.6,0,0,0-1.36,3.36l-3.4,3.3-.57.35-10,7.8,7.14,7.18,8.66-8.87,1.41.42a2.38,2.38,0,0,0,2-.62A9.81,9.81,0,0,0,65.19,94c.33-.41,1-1.51,1.09-1.63a4.36,4.36,0,0,1,1.12-.78s7-.09,7.55-.42S76.15,89.8,74.44,89.52Z"/><path class="cls-10" d="M65.32,86.13a6.23,6.23,0,0,1,1.8-1,4.35,4.35,0,0,1,2-.58,13.47,13.47,0,0,1-1.86.88A7.21,7.21,0,0,1,65.32,86.13Z"/><path class="cls-10" d="M66.84,84.1c.09,0,.06.39-.06.82s-.3.75-.38.73-.06-.39.06-.82S66.76,84.07,66.84,84.1Z"/><path class="cls-10" d="M60.81,85.57a5.15,5.15,0,0,1,1-1.48c.65-.76,1.23-1.33,1.3-1.27a5.22,5.22,0,0,1-1,1.48C61.46,85.06,60.88,85.63,60.81,85.57Z"/><path class="cls-10" d="M75.54,90.06s0,.06,0,.17a1.72,1.72,0,0,1-.11.48.88.88,0,0,1-.57.56,5,5,0,0,1-1,.18c-.75.06-1.65.11-2.64.12s-2.08,0-3.2.12a2.86,2.86,0,0,0-1.48.48,3.88,3.88,0,0,0-.92,1.17,6.45,6.45,0,0,1-1.68,2.06,3.49,3.49,0,0,1-1.66.7,1.36,1.36,0,0,1-.66,0s.24,0,.64-.1a3.72,3.72,0,0,0,1.53-.76,6.65,6.65,0,0,0,1.57-2,4.14,4.14,0,0,1,1-1.27A3.14,3.14,0,0,1,68,91.36c1.15-.1,2.24-.09,3.23-.09s1.87,0,2.62-.06a4,4,0,0,0,1-.12.79.79,0,0,0,.52-.43C75.49,90.29,75.51,90.05,75.54,90.06Z"/><path class="cls-10" d="M39.18,116.67a5,5,0,0,1-.86,1c-.56.62-1.36,1.45-2.26,2.37s-1.71,1.72-2.32,2.29a5.93,5.93,0,0,1-1,.89,5,5,0,0,1,.87-1c.56-.62,1.36-1.46,2.25-2.37s1.71-1.71,2.32-2.29A5.93,5.93,0,0,1,39.18,116.67Z"/><path class="cls-5" d="M66.78,85.32a4.46,4.46,0,0,1-1.69-2.59l.88.61a4.61,4.61,0,0,1,.21-3.84L67.7,82a1.82,1.82,0,0,1,1-1.35,8.26,8.26,0,0,0,.7,3.86"/><path class="cls-5" d="M62.31,83.74a7,7,0,0,1-1.58-2.27c.14-.06.29,0,.42.13s.32.15.42,0,0-.26,0-.38a2.33,2.33,0,0,1,.16-2l1.75,3.26c-.39.38-.79.75-1.19,1.12"/><path class="cls-5" d="M149.35,228.26c-1.37-4.4-3-8.82-9.65-12.69l-6.32-3.19c.18.06.35.13.53.21l-28-14.3-.35,0L97.07,194l-25,1-1.71,5.6L54,201.65l-.38,12.82,0,5.36c-2.82-2.85-9.28.31-9.28,5l16.38,23.53c8.21,13.35,27.09,8.78,27.09,8.78l.24-.13a14.6,14.6,0,0,0,7-16.56l-.81-2.94c.11.24.16.37.16.37l-.22-2.82.11.06L120.36,242c10.34,1.69,17.19,3.74,24.22-.59a11.28,11.28,0,0,0,3.31-3.1A11.53,11.53,0,0,0,149.35,228.26Z"/><path class="cls-6" d="M141.35,237.86a2.32,2.32,0,0,0,.67-.11,6.92,6.92,0,0,0,1.71-.68A7.82,7.82,0,0,0,147,226.51a6.75,6.75,0,0,0-1-1.52,2.38,2.38,0,0,0-.49-.46,11.8,11.8,0,0,1,1.33,2.07,7.84,7.84,0,0,1-3.13,10.28A13.36,13.36,0,0,1,141.35,237.86Z"/><path class="cls-6" d="M67.07,250.67c.08,0-.53-2.69-1.37-6A58.5,58.5,0,0,0,64,238.82c-.08,0,.53,2.69,1.37,6A55.51,55.51,0,0,0,67.07,250.67Z"/><path class="cls-6" d="M65.12,243.27a4.38,4.38,0,0,0,.33,1.31,12.76,12.76,0,0,0,3.62,5.33,4.36,4.36,0,0,0,1.09.78,25.3,25.3,0,0,1-3-3.39A25.46,25.46,0,0,1,65.12,243.27Z"/><path class="cls-6" d="M78.12,254.53a1.57,1.57,0,0,0,.52.12,7.43,7.43,0,0,0,1.45.07,8.77,8.77,0,0,0,7.58-5.14,8.13,8.13,0,0,0,.48-1.36,2.58,2.58,0,0,0,.08-.53c-.06,0-.22.73-.76,1.8a9.16,9.16,0,0,1-7.4,5C78.88,254.61,78.13,254.48,78.12,254.53Z"/><path class="cls-6" d="M63.72,211.39a7.14,7.14,0,0,0,.85-.43,20.77,20.77,0,0,1,2.36-1.06,18.92,18.92,0,0,1,16.37,1.38,18.81,18.81,0,0,1,2.14,1.44,6,6,0,0,0,.77.56,1.33,1.33,0,0,0-.17-.18c-.12-.11-.28-.28-.52-.48a17.08,17.08,0,0,0-2.11-1.53,18.37,18.37,0,0,0-16.56-1.4,17.44,17.44,0,0,0-2.34,1.16c-.26.15-.46.29-.59.38A1,1,0,0,0,63.72,211.39Z"/><path class="cls-6" d="M94.88,202.76a5.13,5.13,0,0,0-1,1.24,13.4,13.4,0,0,0-1.53,3.47,13,13,0,0,0-.49,3.76,5.45,5.45,0,0,0,.17,1.55,17,17,0,0,1,2.81-10Z"/><path class="cls-6" d="M64,239.62a5.56,5.56,0,0,1-.5-.72c-.31-.47-.74-1.17-1.25-2-1-1.74-2.37-4.2-3.76-7s-2.59-5.27-3.45-7.09l-1-2.17a4.84,4.84,0,0,1-.33-.82,4.15,4.15,0,0,1,.44.76c.27.5.64,1.23,1.1,2.13l3.54,7.05c1.39,2.74,2.69,5.21,3.66,7,.46.84.85,1.54,1.16,2.09A4.22,4.22,0,0,1,64,239.62Z"/><path class="cls-6" d="M126.62,238.35a1.26,1.26,0,0,1-.34-.07l-1-.25-3.53-1-11.62-3.31-11.63-3.32-3.53-1-1-.26a1.4,1.4,0,0,1-.33-.11,1.33,1.33,0,0,1,.35,0c.22,0,.55.1,1,.2.84.19,2.06.49,3.55.89,3,.78,7.12,1.92,11.66,3.22s8.63,2.51,11.59,3.4l3.51,1.08.94.31A1.31,1.31,0,0,1,126.62,238.35Z"/><path class="cls-6" d="M89.15,202a12.25,12.25,0,0,1,.2,1.84c.09,1.13.2,2.7.3,4.43s.15,3.31.14,4.45a9.52,9.52,0,0,1-.07,1.35.91.91,0,0,1-.14.49,4.75,4.75,0,0,1,0-.5c0-.31,0-.77,0-1.34-.07-1.24-.15-2.75-.24-4.43s-.17-3.3-.2-4.44A9.15,9.15,0,0,1,89.15,202Z"/><path class="cls-6" d="M85.53,203.55s.07-.1.28-.17a1.28,1.28,0,0,1,1.62,1.2,1.46,1.46,0,0,1-.21.8,1.35,1.35,0,0,1-2.26,0,1.37,1.37,0,0,1,0-1.34,1.47,1.47,0,0,1,.66-.6c.19-.1.29-.13.31-.11s-.08.09-.24.21a1.67,1.67,0,0,0-.52.6,1.17,1.17,0,0,0,.09,1.08,1.07,1.07,0,0,0,1.19.4,1,1,0,0,0,.73-1,1,1,0,0,0-.53-.92A1.53,1.53,0,0,0,85.53,203.55Z"/><path class="cls-6" d="M87.65,216a4.92,4.92,0,0,1,.41.87c.25.57.59,1.41,1,2.46.78,2.09,1.73,5,2.67,8.29s1.71,6.24,2.26,8.4c.25,1,.47,1.9.63,2.56a6.41,6.41,0,0,1,.19.95,4.93,4.93,0,0,1-.32-.92c-.18-.65-.43-1.5-.73-2.53-.61-2.2-1.44-5.13-2.35-8.37s-1.85-6.2-2.57-8.3c-.35-1.06-.66-1.91-.87-2.49A5.62,5.62,0,0,1,87.65,216Z"/><path class="cls-6" d="M126.76,238.54a1.13,1.13,0,0,0,.12-.39,1.37,1.37,0,0,0-.37-1.07,3,3,0,0,0-1.67-.74l-2.47-.52a115.75,115.75,0,0,1-14-4.12A113.18,113.18,0,0,1,95,225.82c-.83-.43-1.57-.83-2.22-1.19s-1.21-.67-1.66-.94l-1-.61a1.74,1.74,0,0,1-.35-.24,2.24,2.24,0,0,1,.38.18l1.06.56,1.69.89c.65.35,1.4.73,2.24,1.15a126.92,126.92,0,0,0,27.34,10l2.45.57a3,3,0,0,1,1.72.84,1.43,1.43,0,0,1,.35,1.16A.66.66,0,0,1,126.76,238.54Z"/><path class="cls-5" d="M61.86,166.65a.87.87,0,0,0,.18.21l.57.57a11,11,0,0,0,1,.86,16.87,16.87,0,0,0,1.32,1.06c.5.38,1.05.79,1.68,1.18s1.31.79,2,1.19a31.86,31.86,0,0,0,5,2.1A31.11,31.11,0,0,0,78.84,175c.83.08,1.61.18,2.35.19s1.43,0,2.06,0,1.19-.08,1.68-.12a10.89,10.89,0,0,0,1.27-.16l.8-.14a.78.78,0,0,0,.27-.07H87l-.8.08c-.35,0-.77.09-1.27.11s-1.06.08-1.68.06-1.3,0-2,0-1.5-.12-2.32-.21a33.68,33.68,0,0,1-5.22-1.16,33.2,33.2,0,0,1-4.94-2.05c-.72-.4-1.41-.76-2-1.16s-1.19-.77-1.69-1.14-1-.71-1.34-1-.72-.59-1-.82l-.6-.53C61.94,166.7,61.87,166.64,61.86,166.65Z"/><path class="cls-7" d="M95.13,172.94l-.45-6,.48-16.6,15-11.83c-.69-5.34-9.09-16.21-9.09-16.21L88.29,127.4H86.12l-1.87,1.83-4.34-.59c-1.68,8.42-12.32,7.27-18,.42l-6.27.55-2.29-2.07-3.22.88L41.28,120c-.19,8.91-3.5,15.27-9.47,19.86l12.67,13.64,3.15,3.14c1.16,16.66,2.25,32.67,5.46,48.68l3.31-.73c16.89-.34,42.6-5.5,49.52-6.27l1.42-1.4-2.53-2.23Z"/><path class="cls-5" d="M54.69,133.11a5.92,5.92,0,0,1,.23.93c.12.61.28,1.5.43,2.6a50.61,50.61,0,0,1,.45,8.66,25.54,25.54,0,0,1-.61,4.76,6.31,6.31,0,0,1-1.87,3.43,3.65,3.65,0,0,1-2.47.92,2.43,2.43,0,0,1-.71-.13.7.7,0,0,1-.23-.11,4.66,4.66,0,0,0,.94.11,3.66,3.66,0,0,0,2.32-1A6.23,6.23,0,0,0,54.9,150a26.75,26.75,0,0,0,.57-4.7,58.88,58.88,0,0,0-.35-8.62c-.12-1.1-.25-2-.33-2.61A5.12,5.12,0,0,1,54.69,133.11Z"/><path class="cls-5" d="M61.23,142.54a13.68,13.68,0,0,1-.2-1.95,33.3,33.3,0,0,0-2.19-9.16,18.25,18.25,0,0,1-.71-1.83,1.81,1.81,0,0,1,.29.44c.16.3.38.74.63,1.3a26.08,26.08,0,0,1,2.21,9.23c0,.61,0,1.1,0,1.45A1.65,1.65,0,0,1,61.23,142.54Z"/><path class="cls-5" d="M97.07,193.79a2.21,2.21,0,0,1-.32.18l-.92.46c-.41.2-.9.43-1.49.67s-1.25.55-2,.82c-1.49.58-3.31,1.19-5.35,1.76a65.27,65.27,0,0,1-6.75,1.43,65.52,65.52,0,0,1-6.87.62c-2.13.05-4,0-5.64-.11-.8,0-1.52-.13-2.15-.19s-1.18-.13-1.62-.2l-1-.17-.36-.07s.13,0,.37,0l1,.1c.45.05,1,.11,1.62.15s1.36.12,2.15.14c1.6.09,3.5.11,5.61,0a68.24,68.24,0,0,0,6.84-.65,64.89,64.89,0,0,0,6.72-1.4c2-.55,3.85-1.12,5.35-1.68.76-.26,1.42-.54,2-.77s1.09-.44,1.5-.62l1-.4A1.35,1.35,0,0,1,97.07,193.79Z"/><g class="cls-11"><path d="M58.92,130.11a41.86,41.86,0,0,1,3.26,14,5.48,5.48,0,0,1-.47,2.84.62.62,0,0,1-.45.37c-.36,0-.46-.48-.45-.84a58.53,58.53,0,0,0-1.89-16.39"/></g><g class="cls-11"><path d="M64,167.92a37.64,37.64,0,0,0,18.52,5,3.4,3.4,0,0,1,2.07.43c.58.42.73,1.45.11,1.8a1.49,1.49,0,0,1-.62.15,26.28,26.28,0,0,1-20.54-7.21"/></g><path class="cls-5" d="M94,168.43c-.09,0,.33-6.59.93-14.71S96.11,139,96.2,139s-.33,6.59-.94,14.71S94.09,168.44,94,168.43Z"/><path class="cls-4" d="M47,125.32a4.85,4.85,0,0,1,.18.92,16.93,16.93,0,0,1,.13,2.54,18.24,18.24,0,0,1-7.57,14.4,16.69,16.69,0,0,1-2.16,1.34,4,4,0,0,1-.86.37,6.85,6.85,0,0,1,.8-.48A22.67,22.67,0,0,0,39.6,143a18.92,18.92,0,0,0,7.47-14.23,21.74,21.74,0,0,0,0-2.52A5.87,5.87,0,0,1,47,125.32Z"/><path class="cls-4" d="M51.6,128s.07.08.17.24a5.76,5.76,0,0,1,.41.73,10.92,10.92,0,0,1,.91,2.94,31.21,31.21,0,0,1-.47,10.1,21.78,21.78,0,0,1-1.72,5.33,15.06,15.06,0,0,1-2.58,3.76,11.36,11.36,0,0,1-2.4,1.94,7.17,7.17,0,0,1-.73.39c-.18.09-.27.12-.28.11s.35-.21,1-.61a13,13,0,0,0,2.29-2,15.46,15.46,0,0,0,2.48-3.74,22.77,22.77,0,0,0,1.67-5.25,33.13,33.13,0,0,0,.56-10A13.37,13.37,0,0,0,51.6,128Z"/><path class="cls-4" d="M60.24,135.67a10.42,10.42,0,0,0-2.5,0,10.53,10.53,0,0,0-2.31.94s.16-.26.55-.54a4.67,4.67,0,0,1,1.7-.72,4.35,4.35,0,0,1,1.84,0C60,135.49,60.25,135.63,60.24,135.67Z"/><path class="cls-4" d="M60.44,133.05a13,13,0,0,1,.82,1,28.53,28.53,0,0,0,2.35,2.72A16.81,16.81,0,0,0,67.83,140a11.13,11.13,0,0,0,6.25,1.24A11,11,0,0,0,80,138.8,10.82,10.82,0,0,0,83,134.56a11.45,11.45,0,0,0,.83-3.47c.06-.84,0-1.32,0-1.32a1.38,1.38,0,0,1,0,.34,8.87,8.87,0,0,1,0,1A11,11,0,0,1,80.16,139a11.14,11.14,0,0,1-12.47,1.24,16.54,16.54,0,0,1-4.25-3.3,24.41,24.41,0,0,1-2.29-2.8c-.25-.35-.42-.63-.54-.82A2,2,0,0,1,60.44,133.05Z"/><path class="cls-4" d="M62.06,147.87a12.22,12.22,0,0,0-3.38-.15,12.26,12.26,0,0,0-3.2,1.11,2.47,2.47,0,0,1,.81-.63,6.74,6.74,0,0,1,4.82-.7A2.12,2.12,0,0,1,62.06,147.87Z"/><path class="cls-4" d="M94.55,142.25s-.48-.06-1.33,0a9.52,9.52,0,0,0-3.43,1,34.53,34.53,0,0,0-4.5,2.91,19.9,19.9,0,0,1-2.76,1.64A16.63,16.63,0,0,1,79.28,149a23,23,0,0,1-6.61.47,38.25,38.25,0,0,1-5.35-.79c-1.5-.32-2.7-.63-3.53-.85l-1-.26a1.4,1.4,0,0,1-.32-.12l.34.05,1,.21c.83.18,2,.45,3.55.74a41.92,41.92,0,0,0,5.32.72,22.68,22.68,0,0,0,6.51-.5,15.68,15.68,0,0,0,3.2-1.1,19.45,19.45,0,0,0,2.72-1.6,33.33,33.33,0,0,1,4.57-2.87,9,9,0,0,1,3.53-.94,6.41,6.41,0,0,1,1,0A1.49,1.49,0,0,1,94.55,142.25Z"/><path class="cls-4" d="M97,138c-.06,0-.11-.73-.36-1.89a14.73,14.73,0,0,0-1.7-4.26A14.91,14.91,0,0,0,92,128.34c-.89-.77-1.52-1.16-1.49-1.21a1.49,1.49,0,0,1,.47.23,9.93,9.93,0,0,1,1.17.8,13.45,13.45,0,0,1,3.07,3.54,13.2,13.2,0,0,1,1.64,4.39,9.14,9.14,0,0,1,.15,1.41A1.61,1.61,0,0,1,97,138Z"/><path class="cls-4" d="M104,143.45a2.92,2.92,0,0,1,0-.82c0-.53,0-1.3-.05-2.24a28.08,28.08,0,0,0-1.29-7.24,25.45,25.45,0,0,0-3.32-6.55c-1.09-1.54-1.9-2.4-1.85-2.44a3.26,3.26,0,0,1,.59.58,18.36,18.36,0,0,1,1.45,1.73,22.59,22.59,0,0,1,1.81,2.81,23.48,23.48,0,0,1,1.63,3.77,25.25,25.25,0,0,1,1.21,7.33c0,1,0,1.72-.06,2.25A4.61,4.61,0,0,1,104,143.45Z"/><path class="cls-4" d="M93.79,157.94a2,2,0,0,1-.42.22,11,11,0,0,1-1.25.51,18.79,18.79,0,0,1-4.89.88,68.47,68.47,0,0,1-7.36-.19c-1.38-.07-2.83-.13-4.32-.06a27.67,27.67,0,0,0-4.59.64,86.35,86.35,0,0,1-8.82,1.86,32.12,32.12,0,0,1-7.37-.14c-2.08-.26-3.75-.58-4.9-.8l-1.32-.27a2.84,2.84,0,0,1-.45-.12l.47.05,1.33.21c1.15.18,2.82.47,4.9.7a33.16,33.16,0,0,0,7.31.07,89.79,89.79,0,0,0,8.78-1.89,27.18,27.18,0,0,1,4.64-.63c1.52-.07,3,0,4.36.07a67.2,67.2,0,0,0,7.33.26,19.52,19.52,0,0,0,4.86-.76c.56-.18,1-.33,1.27-.45A2.1,2.1,0,0,1,93.79,157.94Z"/><path class="cls-4" d="M75.54,172.43a5.2,5.2,0,0,1-1.07,0c-.68,0-1.68,0-2.91,0a68.81,68.81,0,0,0-18.92,2.78c-1.18.34-2.13.64-2.79.86a7.74,7.74,0,0,1-1,.3,5.42,5.42,0,0,1,1-.42c.64-.26,1.58-.59,2.76-1a61.2,61.2,0,0,1,19-2.8c1.24,0,2.23.07,2.92.13A7,7,0,0,1,75.54,172.43Z"/><path class="cls-4" d="M93.83,170.82a5.53,5.53,0,0,1-1.32.69,26.79,26.79,0,0,1-3.4,1.2,25.94,25.94,0,0,1-3.53.73,6,6,0,0,1-1.49.1,8.3,8.3,0,0,1,1.46-.33c.89-.17,2.13-.44,3.47-.82s2.54-.79,3.4-1.1A7.67,7.67,0,0,1,93.83,170.82Z"/><path class="cls-4" d="M99.6,182.06l-.45.24c-.29.14-.74.34-1.31.58a48.31,48.31,0,0,1-5,1.74,96.13,96.13,0,0,1-17.19,3.06,105.93,105.93,0,0,1-17.46.14c-2.23-.17-4-.38-5.26-.54l-1.43-.21A3.43,3.43,0,0,1,51,187a1.58,1.58,0,0,1,.5,0l1.43.14c1.24.13,3,.3,5.27.44a115.43,115.43,0,0,0,17.41-.24,102.75,102.75,0,0,0,17.15-2.95c2.15-.6,3.85-1.2,5-1.64l1.34-.53A3.14,3.14,0,0,1,99.6,182.06Z"/><path class="cls-4" d="M60.59,198.74a30,30,0,0,0-4.49,0,32.67,32.67,0,0,0-4.4.93,4.66,4.66,0,0,1,1.22-.56,13.63,13.63,0,0,1,3.15-.7,13.36,13.36,0,0,1,3.22.05A4.11,4.11,0,0,1,60.59,198.74Z"/><path class="cls-4" d="M101.71,192.86c0,.1-1.14.09-2.5.34s-2.44.63-2.48.54a7.72,7.72,0,0,1,5-.88Z"/></g></g></svg>