<svg xmlns="http://www.w3.org/2000/svg" viewBox="0 0 58.43 73.68"><defs><style>.cls-1{fill:#f6921e;}</style></defs><title>Asset 61</title><g id="Layer_2" data-name="Layer 2"><g id="Layer_1-2" data-name="Layer 1"><path class="cls-1" d="M0,36.66V4C0,.73.71,0,4,0,15,0,25.92,0,36.88.08a6,6,0,0,1,3.75,1.56q8.23,8,16.19,16.2a6,6,0,0,1,1.54,3.75c.1,16.1.06,32.2,0,48.3,0,3-.77,3.78-3.75,3.78q-25.39,0-50.79,0C.75,73.67,0,72.9,0,69.77ZM53.18,68.39V22.93c-4.83,0-9.51,0-14.19,0-2.56,0-3.37-.84-3.44-3.38,0-.91,0-1.82,0-2.72V5.37H5.21v63ZM40.77,17.61h7.75L40.77,9.86Z"/><path class="cls-1" d="M29.21,55.85c4.31,0,8.61,0,12.92,0,1.84,0,3.52.41,3.51,2.58S44,61,42.12,61q-12.91,0-25.83,0c-1.85,0-3.51-.44-3.52-2.59s1.69-2.58,3.52-2.57C20.6,55.86,24.91,55.85,29.21,55.85Z"/><path class="cls-1" d="M29,48.31c-4.23,0-8.46,0-12.69,0-1.85,0-3.51-.45-3.52-2.6s1.69-2.56,3.52-2.55H42.13c1.84,0,3.52.39,3.51,2.56S44,48.32,42.12,48.31C37.74,48.29,33.36,48.31,29,48.31Z"/><path class="cls-1" d="M29.09,35.62c-4.31,0-8.61,0-12.92,0-2.24,0-3.61-1.07-3.43-2.7.22-2,1.69-2.43,3.45-2.42q13,0,26.06,0c1.77,0,3.22.42,3.43,2.45.17,1.62-1.19,2.65-3.44,2.66C37.85,35.64,33.47,35.62,29.09,35.62Z"/><path class="cls-1" d="M20.41,17.84a21.86,21.86,0,0,1,4.93.11,3.83,3.83,0,0,1,2.48,2.29c.36,1.49-.83,2.59-2.39,2.64q-5.07.15-10.15,0a2.4,2.4,0,0,1-2.53-2.61,2.41,2.41,0,0,1,2.69-2.43C17.1,17.81,18.75,17.84,20.41,17.84Z"/></g></g></svg>