<svg xmlns="http://www.w3.org/2000/svg" viewBox="0 0 129.91 93.92"><defs><style>.cls-1{fill:#4c2a7b;}</style></defs><title>Asset 40</title><g id="Layer_2" data-name="Layer 2"><g id="Layer_1-2" data-name="Layer 1"><rect class="cls-1" y="92.59" width="129.91" height="1.33"/><path class="cls-1" d="M66.24,44.45c-1.66,1.58-3.51,3.39-5.42,5.14a2.65,2.65,0,0,0-.93,2.86c1.6,7.92-3.58,15.35-11.69,17a14.45,14.45,0,0,1-5.74-28.32A19.94,19.94,0,0,1,48.63,41a2.53,2.53,0,0,0,2.53-.82c1.79-1.95,3.65-3.86,5.38-5.67Zm-20.6,6.11A4.71,4.71,0,0,0,41,55.29a4.77,4.77,0,0,0,4.64,4.56,4.69,4.69,0,0,0,4.68-4.67A4.58,4.58,0,0,0,45.64,50.56Z"/><path class="cls-1" d="M95.43,2.13C93.06,4.37,91,6.31,88.92,8.29a3.07,3.07,0,0,0-.18,4,3.16,3.16,0,0,0,4-.31l5.81-5.74c.08-.08.23-.08.35-.12,4,7.86,1.92,15.92-5.11,19.68a11.79,11.79,0,0,1-8.42,1.5A3.12,3.12,0,0,0,82,28.39c-2.1,2.29-4.33,4.47-6.39,6.56L66.08,25.3c1.91-1.91,4.16-4.22,6.49-6.45a3.12,3.12,0,0,0,1.1-3C72.17,5,82.18-2.88,92.46,1Z"/><path class="cls-1" d="M31.39,6,37.29.14l10,8-2.14,2.24L77.46,42.64l4-4.63,6.32,6.42-11.95,12L69.66,50l4.28-3.78L41.58,14l-2.13,2Z"/><path class="cls-1" d="M91,48.33A106,106,0,0,1,99.17,56c2.86,3.28,2.27,8.22-.87,11.27A8.39,8.39,0,0,1,87,67.73c-2.74-2.45-5.13-5.28-7.55-7.81Z"/></g></g></svg>