<svg xmlns="http://www.w3.org/2000/svg" viewBox="0 0 81.33 163.07"><defs><style>.cls-1{fill:none;stroke:#58595b;stroke-linecap:round;stroke-miterlimit:10;stroke-width:3px;stroke-dasharray:5 5 5 5 5 5;}.cls-2{fill:#f6921e;}.cls-3{fill:#fff;}</style></defs><title>Asset 5</title><g id="Layer_2" data-name="Layer 2"><g id="Layer_1-2" data-name="Layer 1"><line class="cls-1" x1="40.2" y1="1.5" x2="40.2" y2="91.55"/><circle class="cls-2" cx="40.66" cy="122.41" r="40.66"/><path class="cls-3" d="M40.47,126.65c-3.37,0-6.53,0-9.69,0-5-.07-8.9-3-10.07-7.55a10.08,10.08,0,0,1,9.41-12.68c.32,0,.63,0,1.06-.07a8.11,8.11,0,0,1,2.89-6.69,8,8,0,0,1,5.08-1.89c4.21-.1,7,2.49,8.3,7.73a7.66,7.66,0,0,1,5.59.93,7,7,0,0,1,3.05,4.9,7.8,7.8,0,0,1,6.18,4.22,7.56,7.56,0,0,1-6.43,11.07c-3.72.13-7.45,0-11.18,0H43.05c0,1.54,0,3,0,4.47,0,.21.41.39.62.6.8.81,1.57,1.64,2.39,2.43a1.84,1.84,0,0,0,1,.61c2,.05,4.09.07,6.13,0a1.68,1.68,0,0,0,1.06-.83,4.83,4.83,0,0,1,5.25-2.5A4.77,4.77,0,0,1,63.27,136a4.82,4.82,0,0,1-3.46,4.67,4.58,4.58,0,0,1-5.46-2.4,1.45,1.45,0,0,0-1.57-.93c-1.8,0-3.6,0-5.41,0a1.27,1.27,0,0,0-1.39.8,4.41,4.41,0,0,1-4.21,2.68,4.65,4.65,0,0,1-4.33-2.72,1.64,1.64,0,0,0-1.14-.72c-1.88-.07-3.77,0-5.65,0a1.39,1.39,0,0,0-1.48.87,4.66,4.66,0,0,1-6.12,2.25,4.77,4.77,0,1,1,4-8.67A4.14,4.14,0,0,1,29.19,134a1.24,1.24,0,0,0,1.38.82c1.88,0,3.77,0,5.65,0a1.35,1.35,0,0,0,1.3-.76,8.56,8.56,0,0,1,2.22-2.23,1.34,1.34,0,0,0,.74-1.3C40.44,129.27,40.47,128,40.47,126.65Zm13-12.75a4.63,4.63,0,0,1,0-.74,4.25,4.25,0,0,0-2-4.75,4.15,4.15,0,0,0-5.11.58c-.44.36-.92.65-1.59,1.12,0-1.75.08-3.19,0-4.62a5.48,5.48,0,0,0-5.66-5.21,5.58,5.58,0,0,0-5.39,5.52c0,1,0,2,0,3.23-1.44,0-2.8-.11-4.15,0a7.48,7.48,0,0,0-6.67,7.77,7.7,7.7,0,0,0,8,7.33c8,0,16,0,24,0a6.94,6.94,0,0,0,1.2-.1,5.07,5.07,0,0,0,4.48-5.21,5.16,5.16,0,0,0-5.21-4.93C54.76,113.89,54.13,113.9,53.47,113.9ZM44,136a2.23,2.23,0,0,0-4.46,0A2.23,2.23,0,0,0,44,136Zm-19.18,2.2a2.2,2.2,0,0,0,2.39-2.18A2.24,2.24,0,0,0,25,133.84a2.2,2.2,0,0,0-.17,4.39ZM60.72,136a2.21,2.21,0,0,0-4.42,0,2.21,2.21,0,0,0,4.42,0Z"/></g></g></svg>