<svg xmlns="http://www.w3.org/2000/svg" viewBox="0 0 94.36 255.26"><defs><style>.cls-1,.cls-3{fill:none;stroke:#fff;stroke-miterlimit:10;}.cls-1{stroke-linecap:round;stroke-width:4px;}.cls-2{fill:#4c2a7b;}.cls-3{stroke-width:2px;}.cls-4{fill:#c11e67;}.cls-5{fill:#e68325;}.cls-6{fill:#171e4c;}.cls-7{fill:#1e94d2;}.cls-8{fill:#009345;}.cls-9{font-size:24.36px;fill:#fff;font-family:29LTBukra-BoldItalic, "29LT Bukra";font-weight:700;font-style:italic;}</style></defs><title>Asset 6</title><g id="Layer_2" data-name="Layer 2"><g id="Layer_1-2" data-name="Layer 1"><line class="cls-1" x1="2" y1="17.96" x2="92.36" y2="17.96"/><circle class="cls-2" cx="47.18" cy="17.96" r="17.96"/><circle class="cls-3" cx="47.18" cy="17.96" r="15.22"/><line class="cls-1" x1="2" y1="61.83" x2="92.36" y2="61.83"/><circle class="cls-4" cx="47.18" cy="61.83" r="17.96"/><circle class="cls-3" cx="47.18" cy="61.83" r="15.22"/><line class="cls-1" x1="2" y1="105.7" x2="92.36" y2="105.7"/><circle class="cls-5" cx="47.18" cy="105.7" r="17.96"/><circle class="cls-3" cx="47.18" cy="105.7" r="15.22"/><line class="cls-1" x1="2" y1="149.57" x2="92.36" y2="149.57"/><circle class="cls-6" cx="47.18" cy="149.57" r="17.96"/><circle class="cls-3" cx="47.18" cy="149.57" r="15.22"/><line class="cls-1" x1="2" y1="193.43" x2="92.36" y2="193.43"/><circle class="cls-7" cx="47.18" cy="193.43" r="17.96"/><circle class="cls-3" cx="47.18" cy="193.43" r="15.22"/><line class="cls-1" x1="2" y1="236.28" x2="92.36" y2="236.28"/><circle class="cls-8" cx="47.18" cy="237.3" r="17.96"/><circle class="cls-3" cx="47.18" cy="237.3" r="15.22"/><text class="cls-9" transform="translate(42.43 26.91)">1<tspan x="-2.51" y="43.71">2</tspan><tspan x="-2.57" y="87.42">3</tspan><tspan x="-3.36" y="131.12">4</tspan><tspan x="-3.05" y="174.83">5</tspan><tspan x="-2.75" y="218.54">6</tspan></text></g></g></svg>