<svg xmlns="http://www.w3.org/2000/svg" xmlns:xlink="http://www.w3.org/1999/xlink" viewBox="0 0 119.61 52.46"><defs><style>.cls-1{fill:none;}.cls-2{fill:#fff;stroke:#fff;stroke-miterlimit:10;stroke-width:4px;}.cls-3{clip-path:url(#clip-path);}.cls-4{fill:#2f6fb6;}.cls-5{fill:#f6f8fc;}.cls-6{fill:#3163ae;}</style><clipPath id="clip-path"><rect class="cls-1" x="3.56" y="2" width="114.05" height="48.46" rx="8.75"/></clipPath></defs><title>Asset 72</title><g id="Layer_2" data-name="Layer 2"><g id="Layer_1-2" data-name="Layer 1"><rect class="cls-2" x="3.56" y="2" width="114.05" height="48.46" rx="8.75"/><g class="cls-3"><path class="cls-4" d="M59.59,1.36q29.32,0,58.65,0c.86,0,1,.2,1,1q0,24.11,0,48.21c0,.72-.13.93-.88.93q-58.77,0-117.53,0c-.71,0-.83-.16-.83-.87Q0,26.44,0,2.21c0-.87.31-.87.94-.87Q30.26,1.37,59.59,1.36ZM73.82,40.62a35.59,35.59,0,0,0,9.78,0,13.68,13.68,0,0,1,0-1.57c.11-.89-.19-1.18-1.08-1.14-1.5.08-3,0-4.53,0-.73,0-1-.18-1-1s.3-.92,1-.9c1.55,0,3.1,0,4.65,0,1,.06.92-.6.86-1.22s.44-1.55-.83-1.51c-1.59,0-3.18,0-4.77,0-.8,0-.85-.36-.86-1s.15-.92.84-.9c1.62,0,3.25,0,4.87,0,.74,0,1-.24.89-1a3.93,3.93,0,0,1,0-.84c.08-.66-.13-.91-.82-.9-3,.05-6,0-8.94.06A1.77,1.77,0,0,0,73.6,30v9.51a1.84,1.84,0,0,0,.27,1.15ZM66,25.43c1.06-.11,2.14.25,3.18-.21a1.56,1.56,0,0,0,.23-.92V14.56a1.45,1.45,0,0,0-.24-.91,6.25,6.25,0,0,0-3.24,0,1.45,1.45,0,0,0-.24.91v9.86A1.29,1.29,0,0,0,66,25.43Zm9.7-12a2.21,2.21,0,0,1-.42.18c-3.24.66-4.94,3.05-4.61,6.49s2.47,5.4,5.84,5.32c.38,0,.8.08,1-.41a10,10,0,0,0,.93-2.4c-.72,0-1.37,0-2,0A2.54,2.54,0,0,1,73.81,20c-.18-2.67.8-3.68,3.6-3.69s2.71,0,2.67-2.81A7,7,0,0,0,75.69,13.44ZM49.44,40.62a4,4,0,0,0,3.14,0c.62-1.22.16-2.53.29-3.79,1.24,0,2.48,0,3.72-.06a3.87,3.87,0,0,0,3.72-4.1,3.7,3.7,0,0,0-3.8-3.83c-2.37,0-4.73,0-7.1,0h-.53c-.93,0-1.87,0-2.79-.06a1.87,1.87,0,0,0-1.79.82c-.69.92-1.46,1.76-2.25,2.69a19.15,19.15,0,0,0-2.76-3.17c-1.15-.85-2.63-.18-4.21-.35l2.28,2.67c.72.84,1.42,1.71,2.19,2.5.5.51.5.85,0,1.37-.85.88-1.64,1.82-2.42,2.77a10,10,0,0,0-1.94,2.57,6.34,6.34,0,0,0,3.71,0c.88-1,1.77-2.1,2.62-3.18.35-.44.59-.5,1,0,.81,1.06,1.66,2.08,2.5,3.12a6.15,6.15,0,0,0,3.93.09l.07-.05h.46Zm35.81,0a1.39,1.39,0,0,0,1,.27h5.46a1.28,1.28,0,0,0,1-.29l.52-.23A3.74,3.74,0,0,0,95.46,36c-.24-1.59-1.49-2.58-3.39-2.65-.77,0-1.55,0-2.32,0s-1.68.21-1.7-.9.92-1,1.64-1c1.24,0,2.48,0,3.72,0,.35,0,.72.06.88-.39a12.73,12.73,0,0,0,.88-2.24c-2.36,0-4.68-.08-7,0a3.55,3.55,0,0,0-3.31,3.77,3.37,3.37,0,0,0,3.49,3.41c.93,0,1.86,0,2.79,0,.63,0,1.24.12,1.27.89s-.59,1-1.21,1c-1.12,0-2.25,0-3.37,0C85.21,37.94,85.21,37.94,85.25,40.62Zm11.4.05c1.79.48,3.6.13,5.4.21a2.47,2.47,0,0,0,1.8-.26,3,3,0,0,1,.4-.21,3.66,3.66,0,0,0,2.5-4.2c-.25-1.8-1.42-2.76-3.47-2.84-1,0-1.94,0-2.91,0-.58,0-1.14-.25-1.13-1s.55-.91,1.15-.91c1,0,2.09,0,3.14,0,2,0,2.12-.08,2.76-2,.17-.5.07-.64-.42-.64-2.17,0-4.35-.06-6.51.06-2,.11-3.24,1.73-3.19,3.85a3.27,3.27,0,0,0,3.4,3.33c.89,0,1.79,0,2.68,0,.69,0,1.42,0,1.39,1s-.77.87-1.39.88c-1.51,0-3,.08-4.54,0-1.07-.08-1.4.33-1.24,1.36C96.54,39.74,96.33,40.24,96.65,40.67Zm-62.17,0c0-.52,0-1,0-1.56.1-.87-.16-1.21-1.07-1.16-1.47.08-2.94,0-4.42,0-.7,0-1.14,0-1.13-1s.43-.92,1.06-.91c1.52,0,3-.06,4.54,0,1.1.07.94-.64.92-1.3s.31-1.5-.91-1.44c-1.59.08-3.18,0-4.77,0-.85,0-.79-.44-.82-1s.21-.89.85-.87c1.67,0,3.34,0,5,0,.55,0,.79-.15.75-.74a9.84,9.84,0,0,1,0-1.33c0-.48-.19-.61-.62-.61q-4.25,0-8.49,0c-.37,0-.57.12-.56.55.05,3.77-.14,7.54.1,11.31a1.52,1.52,0,0,0,.88.22H33.6A1.33,1.33,0,0,0,34.48,40.64ZM19.88,23.27c.23.54.48,1.07.71,1.62a.73.73,0,0,0,.77.55c.92,0,1.84,0,2.77,0a2.38,2.38,0,0,0-.33-1.2c-1.25-2.93-2.6-5.81-3.72-8.8-.58-1.53-1.33-2.15-2.95-2-1.88.17-1.89,0-2.65,1.87-.26.63-.54,1.25-.8,1.87-1,2.45-2.08,4.91-3.16,7.35-.33.75-.18.89.61.94,1.56.11,2.9,0,3.27-1.95C16.21,23.06,18.06,23.43,19.88,23.27Zm63.13,0c1.75-.05,3.51.25,5.24-.18.19,0,.24.18.27.34.33,1.84,1.5,2.29,3.1,2h.12c.89.12,1.07-.16.68-1-1.58-3.61-3.1-7.24-4.64-10.87a5.36,5.36,0,0,0-3.92-.07L78.69,25.38a7.63,7.63,0,0,1,1,.06C81.44,25.78,82.62,25.17,83,23.27ZM51.68,13.49a1.24,1.24,0,0,0-1-.32H42.93a1.18,1.18,0,0,0-1,.32.15.15,0,0,1,0,.17,3.26,3.26,0,0,0-.21.8q0,5,0,10a3.27,3.27,0,0,0,.2.79.2.2,0,0,1,.05.19,1.27,1.27,0,0,0,1,.3h7.78a1.26,1.26,0,0,0,1-.3c-.08-.94.26-1.92-.21-2.83a2.12,2.12,0,0,0-1.35-.24h-5V21.12c1.2,0,2.4,0,3.6,0,.91,0,1.86.26,2.73-.26V18a1.79,1.79,0,0,0-1.33-.28h-5V16.54c1.74,0,3.49,0,5.23,0,.46,0,1,.08,1.33-.3Zm13,27.13c.55-.79.24-1.69.28-2.55,0-.63.07-1.19.7-1.49a37.59,37.59,0,0,1,3.52,4,5.65,5.65,0,0,0,3.7,0C72,39,70.44,38,69.43,36.39l.48-.21a3.74,3.74,0,0,0,2.36-4.31,3.56,3.56,0,0,0-3.76-3c-2.32,0-4.64,0-7,0a1.38,1.38,0,0,0-.28,1v9.74a1.3,1.3,0,0,0,.31,1A3.93,3.93,0,0,0,64.69,40.62ZM56.75,25.43c.6-.85.25-1.83.3-2.74,0-.72.25-1.12,1-1.1.9,1,1.79,2.09,2.71,3.12.25.28.42.72.87.71a19.24,19.24,0,0,0,3.44-.11l-1.8-2-1.81-2.08.72-.33a3.82,3.82,0,0,0,2.07-4.77c-.54-1.73-1.94-2.27-3.45-2.64a2.94,2.94,0,0,0-2-.25c-1.65.08-3.32-.32-4.95.23-.29.35-.17.77-.17,1.15,0,2.56,0,5.12,0,7.68,0,1-.44,2.35.21,3S55.76,25.38,56.75,25.43ZM105,25.21a57.89,57.89,0,0,0,0-11.55c-.73-.38-1.52-.09-2.27-.19s-.88.22-.87.89c0,1.48,0,3,0,4.44a2.28,2.28,0,0,1-.22,1.51l-4.56-6.89a5.47,5.47,0,0,0-3.7,0l0,10c0,2,0,1.91,1.89,2,1,0,1.22-.36,1.19-1.31-.07-1.93,0-3.87,0-5.81,1.59,2.09,3,4.22,4.34,6.34.18.29.3.74.71.72C102.67,25.35,103.87,25.69,105,25.21ZM28.47,18.88a36.76,36.76,0,0,1,2,5.46c.34,1.13,1,1.1,1.82,1.11s1.42,0,1.73-1.07c.59-1.93,1.37-3.8,2.06-5.69.59,1.65.13,3.37.27,5,0,.58-.14,1.2.32,1.7.69,0,1.39,0,2.08,0s.9-.1.89-.84c-.05-3.71,0-7.42-.05-11.13a7.82,7.82,0,0,0-4.62,0l-2.68,7.37-2.71-7.36a8.16,8.16,0,0,0-4.62,0c-.27,3.8-.05,7.61-.11,11.41,0,.49.26.59.67.59.77,0,1.54,0,2.32,0,.47-.44.33-1,.37-1.58C28.31,22.22,27.92,20.52,28.47,18.88Z"/><path class="cls-5" d="M27.83,25.47c-.78,0-1.55,0-2.32,0-.41,0-.68-.1-.67-.59.06-3.8-.16-7.61.11-11.41h4.62l2.71,7.36c.93-2.57,1.81-5,2.68-7.37l4.62,0c0,3.71,0,7.42.05,11.13,0,.74-.28.88-.89.84s-1.39,0-2.08,0V17.71a1.17,1.17,0,0,0-.59,1c-.69,1.89-1.47,3.76-2.06,5.69-.31,1-.9,1.08-1.73,1.07s-1.48,0-1.82-1.11a36.76,36.76,0,0,0-2-5.46,1.2,1.2,0,0,0-.64-1.08Z"/><path class="cls-5" d="M97.11,13.42l4.56,6.89a2.28,2.28,0,0,0,.22-1.51c0-1.48,0-3,0-4.44,0-.67.2-1,.87-.89s1.54-.19,2.27.19q0,5.78,0,11.55c-1.16.48-2.36.14-3.54.19-.41,0-.53-.43-.71-.72-1.38-2.12-2.75-4.25-4.34-6.34,0,1.94,0,3.88,0,5.81,0,1-.16,1.35-1.19,1.31-1.89-.08-1.9,0-1.89-2l0-10Z"/><path class="cls-5" d="M60.79,13.44c1.51.37,2.91.91,3.45,2.64a3.82,3.82,0,0,1-2.07,4.77l-.72.33,1.81,2.08,1.8,2a19.24,19.24,0,0,1-3.44.11c-.45,0-.62-.43-.87-.71-.92-1-1.81-2.08-2.71-3.12-.76-.53-1.25-.53-1.24.62s0,2.15,0,3.22c-1-.05-2.27.43-2.9-.19s-.19-2-.21-3c0-2.56,0-5.12,0-7.68,0-.38-.12-.8.17-1.15Zm-.09,3.08c-1.15-.53-2.35-.17-3.53-.21-.54,0-.38.52-.35.82,0,.47-.33,1.29.3,1.33,1.23.09,2.52.39,3.73-.21C61.52,17.61,61.53,17,60.7,16.52Z"/><path class="cls-5" d="M61.54,28.87c2.33,0,4.65-.07,7,0a3.56,3.56,0,0,1,3.76,3,3.74,3.74,0,0,1-2.36,4.31l-.48.21C70.44,38,72,39,72.89,40.65l-3.7,0a37.59,37.59,0,0,0-3.52-4c-.65-.15-1,0-1,.8.06,1.08,0,2.16,0,3.24a3.93,3.93,0,0,1-3.12,0Zm4.95,5h0a12.5,12.5,0,0,0,1.5,0c.65-.09,1.21-.35,1.21-1.18A1.12,1.12,0,0,0,68,31.51c-.92-.06-1.85,0-2.78,0-.32,0-.44.13-.51.48-.29,1.54,0,1.91,1.44,1.91Z"/><path class="cls-5" d="M41.92,13.66a.15.15,0,0,0,0-.17h9.71c0,.92,0,1.83,0,2.75-1.85,0-3.69,0-5.53,0-.35,0-.78-.21-1,.26v1.21c.23.5.67.27,1,.28,1.77,0,3.54,0,5.3,0,0,.94,0,1.88,0,2.82-1.77,0-3.54,0-5.3,0-.35,0-.79-.22-1,.26v1.21c.07.32.33.3.55.29l5.79-.05c.47.91.13,1.89.22,2.83H42a.2.2,0,0,0-.05-.19C41.91,21.36,41.92,17.51,41.92,13.66Z"/><path class="cls-5" d="M73.85,28.86c3,0,6,0,8.94-.06.69,0,.9.24.82.9a3.93,3.93,0,0,0,0,.84c.1.72-.15,1-.89,1-1.62-.06-3.25,0-4.87,0-.69,0-.85.25-.84.9s.06,1,.86,1c1.59-.07,3.18,0,4.77,0,1.27,0,.77.91.83,1.51s.18,1.28-.86,1.22c-1.55-.08-3.1,0-4.65,0-.66,0-1,.11-1,.9s.28,1,1,1c1.51,0,3,0,4.53,0,.89,0,1.19.25,1.08,1.14a13.68,13.68,0,0,0,0,1.57H73.82l.06.05Z"/><path class="cls-5" d="M87.78,13.52c1.54,3.63,3.06,7.26,4.64,10.87.39.88.21,1.16-.68,1h-.12c-1.6.29-2.77-.16-3.1-2,0-.16-.08-.31-.27-.34-1.75,0-3.5-.31-5.24.18-.39,1.9-1.57,2.51-3.33,2.17a7.63,7.63,0,0,0-1-.06l5.17-11.93Zm-2,3c-.32.7-.54,1.16-.73,1.62-1,2.42-1,2.46,1.59,2.24.63-.06.59-.29.4-.75C86.61,18.69,86.23,17.74,85.74,16.53Z"/><path class="cls-5" d="M14.4,23.51c-.37,2-1.71,2.06-3.27,1.95-.79-.05-.94-.19-.61-.94,1.08-2.44,2.11-4.9,3.16-7.35.26-.62.54-1.24.8-1.87.76-1.83.77-1.7,2.65-1.87,1.62-.15,2.37.47,2.95,2,1.12,3,2.47,5.87,3.72,8.8a2.38,2.38,0,0,1,.33,1.2c-.93,0-1.85,0-2.77,0a.73.73,0,0,1-.77-.55c-.23-.55-.48-1.08-.71-1.62-1.75-.51-3.53-.18-5.3-.16C14.52,23.11,14.46,23.37,14.4,23.51Zm1.24-3.2c3.21.23,3.21.23,2-2.66-.13-.33-.17-.72-.56-1Z"/><path class="cls-5" d="M24.94,40.67c-.24-3.77-.05-7.54-.1-11.31,0-.43.19-.55.56-.55q4.25,0,8.49,0c.43,0,.65.13.62.61a9.84,9.84,0,0,0,0,1.33c0,.59-.2.75-.75.74-1.66,0-3.33,0-5,0-.64,0-.89.17-.85.87s0,1.08.82,1c1.59-.07,3.18,0,4.77,0,1.22-.06.88.79.91,1.44s.18,1.37-.92,1.3c-1.51-.09-3,0-4.54,0-.63,0-1.06,0-1.06.91s.43,1,1.13,1c1.48,0,2.95,0,4.42,0,.91-.05,1.17.29,1.07,1.16-.06.52,0,1,0,1.56Z"/><path class="cls-5" d="M96.65,40.67c-.32-.43-.11-.93-.18-1.39-.16-1,.17-1.44,1.24-1.36,1.51.1,3,0,4.54,0,.62,0,1.36,0,1.39-.88s-.7-1-1.39-1c-.89,0-1.79,0-2.68,0a3.27,3.27,0,0,1-3.4-3.33c0-2.12,1.2-3.74,3.19-3.85,2.16-.12,4.34,0,6.51-.06.49,0,.59.14.42.64-.64,1.95-.73,2-2.76,2-1,0-2.1,0-3.14,0-.6,0-1.14.22-1.15.91s.55.93,1.13,1c1,0,1.94,0,2.91,0,2,.08,3.22,1,3.47,2.84a3.66,3.66,0,0,1-2.5,4.2,3,3,0,0,0-.4.21Z"/><path class="cls-5" d="M85.25,40.62c0-2.68,0-2.68,2.58-2.68,1.12,0,2.25,0,3.37,0,.62,0,1.24-.19,1.21-1s-.64-.9-1.27-.89c-.93,0-1.86,0-2.79,0a3.37,3.37,0,0,1-3.49-3.41,3.55,3.55,0,0,1,3.31-3.77c2.32-.1,4.64,0,7,0a12.73,12.73,0,0,1-.88,2.24c-.16.45-.53.39-.88.39-1.24,0-2.48,0-3.72,0-.72,0-1.67-.17-1.64,1s1,.88,1.7.9,1.55,0,2.32,0c1.9.07,3.15,1.06,3.39,2.65a3.74,3.74,0,0,1-2.28,4.35l-.52.23Z"/><path class="cls-5" d="M49.07,40.62H49l-.07.05L45,40.58c-.84-1-1.69-2.06-2.5-3.12-.37-.49-.61-.43-1,0-.85,1.08-1.74,2.13-2.62,3.18l-3.71,0a10,10,0,0,1,1.94-2.57c.78-1,1.57-1.89,2.42-2.77.5-.52.5-.86,0-1.37-.77-.79-1.47-1.66-2.19-2.5l-2.28-2.67c1.58.17,3.06-.5,4.21.35a19.15,19.15,0,0,1,2.76,3.17c.79-.93,1.56-1.77,2.25-2.69a1.87,1.87,0,0,1,1.79-.82c.92.07,1.86,0,2.79.06a.61.61,0,0,0-.05.18c-1.51,1.71-3,3.43-4.52,5.12-.34.38-.22.6,0,.9,1.51,1.7,3,3.42,4.51,5.14Z"/><path class="cls-5" d="M49.41,28.86c2.37,0,4.73-.06,7.1,0a3.7,3.7,0,0,1,3.8,3.83,3.87,3.87,0,0,1-3.72,4.1c-1.24.07-2.48,0-3.72.06-.45.13-.26.52-.27.8,0,1,0,2,0,3a4,4,0,0,1-3.14,0Zm5.22,2.63h-.35c-1.78,0-2,.23-1.7,2.05.06.37.16.59.56.58,1,0,1.94,0,2.9-.06a1.14,1.14,0,0,0,1.12-1.28,1.2,1.2,0,0,0-1.25-1.28C55.48,31.46,55.05,31.49,54.63,31.49Z"/><path class="cls-5" d="M80.08,13.49c0,2.81,0,2.81-2.67,2.81s-3.78,1-3.6,3.69a2.54,2.54,0,0,0,2.6,2.63c.64,0,1.29,0,2,0a10,10,0,0,1-.93,2.4c-.19.49-.61.4-1,.41-3.37.08-5.52-1.89-5.84-5.32s1.37-5.83,4.61-6.49a2.21,2.21,0,0,0,.42-.18Z"/><path class="cls-5" d="M65.92,13.66a6.25,6.25,0,0,1,3.24,0c0,3.86,0,7.71,0,11.57-1,.46-2.12.1-3.18.21C66,21.5,65.94,17.58,65.92,13.66Z"/><path class="cls-6" d="M49.41,28.86l0,11.76h-.37l-.21-.42a1.64,1.64,0,0,0,.29-1.14v-8.9A1.56,1.56,0,0,0,48.83,29a.61.61,0,0,1,.05-.18Z"/><path class="cls-6" d="M73.85,28.86l0,11.81a1.79,1.79,0,0,1-.28-1.15V30A1.77,1.77,0,0,1,73.85,28.86Z"/><path class="cls-6" d="M61.54,28.87l0,11.75a1.3,1.3,0,0,1-.31-1V29.88A1.38,1.38,0,0,1,61.54,28.87Z"/><path class="cls-6" d="M65.92,13.66c0,3.92,0,7.84.07,11.77a1.29,1.29,0,0,1-.31-1V14.57A1.45,1.45,0,0,1,65.92,13.66Z"/><path class="cls-6" d="M105,25.21q0-5.78,0-11.55A57.89,57.89,0,0,1,105,25.21Z"/><path class="cls-6" d="M41.92,13.66c0,3.85,0,7.7,0,11.55a3.27,3.27,0,0,1-.2-.79q0-5,0-10A3.26,3.26,0,0,1,41.92,13.66Z"/><path class="cls-6" d="M69.17,25.22c0-3.86,0-7.71,0-11.57a1.45,1.45,0,0,1,.24.91V24.3A1.56,1.56,0,0,1,69.17,25.22Z"/><path class="cls-6" d="M42,25.4h9.73a1.3,1.3,0,0,1-1,.3H42.93A1.27,1.27,0,0,1,42,25.4Z"/><path class="cls-6" d="M51.68,13.49H42a1.18,1.18,0,0,1,1-.32h7.78A1.24,1.24,0,0,1,51.68,13.49Z"/><path class="cls-6" d="M73.82,40.62H83.6A35.59,35.59,0,0,1,73.82,40.62Z"/><path class="cls-6" d="M24.94,40.67l9.54,0a1.33,1.33,0,0,1-.88.25H25.82A1.52,1.52,0,0,1,24.94,40.67Z"/><path class="cls-6" d="M27.83,25.47V17.8a1.2,1.2,0,0,1,.64,1.08c-.55,1.64-.16,3.34-.27,5C28.16,24.44,28.3,25,27.83,25.47Z"/><path class="cls-6" d="M36.07,18.69a1.17,1.17,0,0,1,.59-1v7.73c-.46-.5-.27-1.12-.32-1.7C36.2,22.06,36.66,20.34,36.07,18.69Z"/><path class="cls-6" d="M85.25,40.62l7.41,0a1.28,1.28,0,0,1-1,.29H86.23A1.39,1.39,0,0,1,85.25,40.62Z"/><path class="cls-6" d="M96.65,40.67l7.2-.05a2.47,2.47,0,0,1-1.8.26C100.25,40.8,98.44,41.15,96.65,40.67Z"/><path class="cls-6" d="M60.79,13.44l-7,0c1.63-.55,3.3-.15,4.95-.23A2.94,2.94,0,0,1,60.79,13.44Z"/><path class="cls-6" d="M45.13,16.54c.25-.47.68-.25,1-.26,1.84,0,3.68,0,5.53,0-.38.38-.87.3-1.33.3C48.62,16.55,46.87,16.54,45.13,16.54Z"/><path class="cls-6" d="M45.13,21.12c.24-.48.68-.25,1-.26,1.76,0,3.53,0,5.3,0-.87.52-1.82.22-2.73.26C47.53,21.16,46.33,21.12,45.13,21.12Z"/><path class="cls-6" d="M51.47,22.57l-5.79.05c-.22,0-.48,0-.55-.29h5A2.12,2.12,0,0,1,51.47,22.57Z"/><path class="cls-6" d="M51.45,18c-1.76,0-3.53,0-5.3,0-.35,0-.79.22-1-.28h5A1.79,1.79,0,0,1,51.45,18Z"/><path class="cls-6" d="M14.4,23.51c.06-.14.12-.4.18-.4,1.77,0,3.55-.35,5.3.16C18.06,23.43,16.21,23.06,14.4,23.51Z"/><path class="cls-6" d="M83,23.27c1.74-.49,3.49-.18,5.24-.18C86.52,23.52,84.76,23.22,83,23.27Z"/><path class="cls-6" d="M56.75,25.43c0-1.07.06-2.14,0-3.22s.48-1.15,1.24-.62c-.74,0-.95.38-1,1.1C57,23.6,57.35,24.58,56.75,25.43Z"/><path class="cls-6" d="M39.58,13.47l-4.62,0A7.82,7.82,0,0,1,39.58,13.47Z"/><path class="cls-6" d="M29.57,13.45H25A8.16,8.16,0,0,1,29.57,13.45Z"/><path class="cls-6" d="M64.69,40.62c0-1.08.07-2.16,0-3.24,0-.84.32-1,1-.8-.63.3-.67.86-.7,1.49C64.93,38.93,65.24,39.83,64.69,40.62Z"/><path class="cls-6" d="M80.08,13.49l-4.39-.05A7,7,0,0,1,80.08,13.49Z"/><path class="cls-6" d="M87.78,13.52l-3.92-.07A5.36,5.36,0,0,1,87.78,13.52Z"/><path class="cls-6" d="M45,40.58l3.93.09A6.15,6.15,0,0,1,45,40.58Z"/><path class="cls-6" d="M97.11,13.42l-3.7,0A5.47,5.47,0,0,1,97.11,13.42Z"/><path class="cls-6" d="M35.19,40.67l3.71,0A6.34,6.34,0,0,1,35.19,40.67Z"/><path class="cls-6" d="M69.19,40.62l3.7,0A5.65,5.65,0,0,1,69.19,40.62Z"/><path class="cls-6" d="M52.58,40.62c0-1,0-2,0-3,0-.28-.18-.67.27-.8C52.74,38.09,53.2,39.4,52.58,40.62Z"/><path class="cls-4" d="M60.7,16.52c.83.5.82,1.09.15,1.73l-2.76,0c-.55,0-1-.1-1-.82s.4-.86,1-.86C58.94,16.55,59.82,16.53,60.7,16.52Z"/><path class="cls-6" d="M60.7,16.52c-.88,0-1.76,0-2.65,0-.57,0-1,.15-1,.86s.46.82,1,.82l2.76,0c-1.21.6-2.5.3-3.73.21-.63,0-.25-.86-.3-1.33,0-.3-.19-.85.35-.82C58.35,16.35,59.55,16,60.7,16.52Z"/><path class="cls-4" d="M66.49,33.87h-.35c-1.46,0-1.73-.37-1.44-1.91.07-.35.19-.48.51-.48.93,0,1.86,0,2.78,0a1.12,1.12,0,0,1,1.21,1.17c0,.83-.56,1.09-1.21,1.18a12.5,12.5,0,0,1-1.5,0Z"/><path class="cls-4" d="M85.74,16.53c.49,1.21.87,2.16,1.26,3.11.19.46.23.69-.4.75-2.55.22-2.6.18-1.59-2.24C85.2,17.69,85.42,17.23,85.74,16.53Z"/><path class="cls-4" d="M15.64,20.31l1.45-3.64c.39.26.43.65.56,1C18.85,20.54,18.85,20.54,15.64,20.31Z"/><path class="cls-4" d="M48.83,29a1.56,1.56,0,0,1,.32,1.12v8.9a1.64,1.64,0,0,1-.29,1.14c-1.5-1.72-3-3.44-4.51-5.14-.26-.3-.38-.52,0-.9C45.83,32.47,47.32,30.75,48.83,29Z"/><path class="cls-4" d="M54.63,31.49c.42,0,.85,0,1.28,0a1.2,1.2,0,0,1,1.25,1.28A1.14,1.14,0,0,1,56,34.05c-1,.08-1.93,0-2.9.06-.4,0-.5-.21-.56-.58-.26-1.82-.08-2.05,1.7-2.05h.35Z"/></g></g></g></svg>