<svg xmlns="http://www.w3.org/2000/svg" viewBox="0 0 348.27 38.4"><defs><style>.cls-1{fill:#1a478e;}.cls-2,.cls-7{fill:#f7941d;}.cls-3{fill:#222931;}.cls-4{fill:#189dd7;}.cls-5{fill:#84ba42;}.cls-6{fill:#c52026;}.cls-7{opacity:0.6;}</style></defs><title>Asset 71</title><g id="Layer_2" data-name="Layer 2"><g id="Layer_1-2" data-name="Layer 1"><path class="cls-1" d="M142.75,5.94l.85-2.23c.13-.22.24-.41.56-.41,2.51,0,5,0,7.62,0L151,5.39l-.53,1.27a13.65,13.65,0,0,0-1,2.48L148,13l-.12.28a.17.17,0,0,0-.05.15c-1,2.23-1.94,4.5-2.78,6.8l-.16.38-.06.18-1.58,3.78-.11.35A41,41,0,0,0,141.41,29h0A2,2,0,0,0,141,30h0a3.54,3.54,0,0,0-.48,1.13,1.2,1.2,0,0,0-.31.74c-.21.29-.25.73-.7.82a31.43,31.43,0,0,0-3.76,0,31.28,31.28,0,0,0-3.75,0l-.4-.63a2,2,0,0,0-.23-.95.36.36,0,0,0-.12-.38,16,16,0,0,0-.75-2.81,14.17,14.17,0,0,0-.66-2.64L128.46,20l-.09-.33a17.14,17.14,0,0,0-.81-3.07,24.12,24.12,0,0,0-.86-3.37,24.65,24.65,0,0,0-.88-3.19.68.68,0,0,0-.16-.58h0l-.46-2.3a19.91,19.91,0,0,1,3.52,2.44,23.74,23.74,0,0,1,6.68,9.11c.41,1.28.43,2.67,1,4.1A43.83,43.83,0,0,0,138.63,17c1-2.48,1.93-5,2.8-7.52A25,25,0,0,0,142.75,5.94Z"/><path class="cls-1" d="M162.27,3.25l.19.06.06.18L162.28,5a.31.31,0,0,0-.09.38l-.05.37c-.47,2.36-.83,4.75-1.16,7.14l-.61,3.9a23,23,0,0,0-.58,3.59l0,0,0,.06-.07.29-.09.75a.35.35,0,0,0-.08.39l-.12.87-.06.24-.09.57-.05.39a.71.71,0,0,0-.1.55,33.14,33.14,0,0,0-.72,4.33l-.3,2-.07.27,0,.39,0,.19c0,.83-.48,1-1.27,1s-1.41,0-2.11,0a25,25,0,0,0-3.77,0c-.44,0-.67-.17-.62-.63a37.4,37.4,0,0,0,.76-4.7l.17-.94a2.25,2.25,0,0,0,.09-.35c.18-1.47.44-2.93.63-4.4s.55-2.7.68-4.07a24.43,24.43,0,0,0,.55-3.39.27.27,0,0,0,.06-.35l.11-.59a22.67,22.67,0,0,0,.58-3.75l0-.28a.48.48,0,0,0,.1-.47l0-.38a.34.34,0,0,0,.11-.38c.28-.73-.14-1.55.31-2.26a1.89,1.89,0,0,0,.11-.25c.19-.71,0-1.72.52-2.08s1.45-.11,2.19-.11Z"/><path class="cls-2" d="M135.4,18.75a23.74,23.74,0,0,0-6.68-9.11A19.91,19.91,0,0,0,125.2,7.2a1.06,1.06,0,0,0-.67-.34,29.86,29.86,0,0,0-7.51-3l.2-.51.55-.06h11.82a6,6,0,0,1,2.24.66A4.48,4.48,0,0,1,133,5.76a15.48,15.48,0,0,0,.6,3,40.42,40.42,0,0,0,.9,4.51c0,.37.07.74.14,1.1C134.86,15.83,135.13,17.29,135.4,18.75Z"/><path class="cls-1" d="M180.77,2.78c0,.05.06.06.11,0l3.74.86.24.08.31.15.12.18,0,.35,0,.38a.77.77,0,0,0-.1.57l-.08.56a23.72,23.72,0,0,0-.58,3.57l-.05.31c-.15.55-.45.41-.83.23a12.17,12.17,0,0,0-7.68-.89,2.56,2.56,0,0,0-2.3,2c-.19,1.22.73,1.87,1.63,2.39,1.8,1.06,3.64,2.05,5.46,3.06l.93.79a9.64,9.64,0,0,1,2.49,4.07l.08.57L184.09,24v.56a18.36,18.36,0,0,1-1.18,3.31,14.27,14.27,0,0,1-2.25,2.47,20.74,20.74,0,0,1-3.58,1.89l-3.72.82h-4.5l-3-.44-.57-.14-.18,0-2-.65a.68.68,0,0,1-.46-.88c.13-.67.18-1.35.26-2l.06-.18a.37.37,0,0,0,.06-.4c.16-.92.32-1.84.47-2.77.07-.44.21-.6.67-.36a5.91,5.91,0,0,0,1.73.69,11.69,11.69,0,0,0,5.24,1.06,2.94,2.94,0,0,0,1.32-.07.27.27,0,0,0,.38-.06l.56-.11c1.62-.22,2.62-1,2.79-2.31a1,1,0,0,0,0-.76L176,23.3a4.47,4.47,0,0,0-2.49-2.15,2.51,2.51,0,0,0-1.12-.58L169.64,19v0a.88.88,0,0,0-.58-.41l0,0-.27-.25a8.7,8.7,0,0,1-3.22-5.15,9.1,9.1,0,0,1,3.21-7.52l.77-.6,2.83-1.45.31-.13.62-.15a22.08,22.08,0,0,1,6.92-.63h0A.34.34,0,0,0,180.77,2.78Z"/><path class="cls-1" d="M199.65,3.26h3.75c1.13-.19,1.57.37,1.65,1.44a8.38,8.38,0,0,0,.36,1.52c.22,1.09.45,2.19.67,3.28.47,2.65,1,5.28,1.67,7.88a24.41,24.41,0,0,0,.7,3.4c.62,3.42,1.32,6.81,2.13,10.19l.26,1.06.06.54c-.37,0-.74.08-1.11.08l-5.63.07a.7.7,0,0,1-.46-.52l-.06-.17c-.21-1.09-.42-2.19-.62-3.29-.06-.32-.2-.54-.53-.53-2.08.09-4.15-.18-6.23.08h-.37c-.72,0-1.43,0-2.15-.08a.66.66,0,0,0-.75.53c-.34,1-.71,2.06-1.06,3.09-.21.27-.19.68-.53.87a11.24,11.24,0,0,0-2.32,0,.87.87,0,0,0-.67,0,30.11,30.11,0,0,0-3.8,0,.12.12,0,0,0-.17,0c-.26-.12-.65.12-.81-.29.19-.21,0-.36-.09-.54a.31.31,0,0,0,.35-.2c1.24-2.36,2.14-4.87,3.15-7.32a.1.1,0,0,0,0-.13l.44-1a11.08,11.08,0,0,0,.85-2.08l.22-.52A25.13,25.13,0,0,0,190,17.2c.56-1.31,1.11-2.62,1.66-3.93,1.1-2.47,2.17-4.95,3.12-7.48l0,0,0,0,.11-.22.59-1,.14-.14.29-.3A6.06,6.06,0,0,1,199.65,3.26Zm.8,13.36a13.05,13.05,0,0,0-.6-2.84l-.07-.51a5.1,5.1,0,0,0-.41-1.74,2.59,2.59,0,0,0-.45,1.18c-.64,1.6-1.27,3.2-1.75,4.86v0a1.5,1.5,0,0,0-.32.78,9.1,9.1,0,0,0-.76,2.08c-.17.4-.32.8-.5,1.2s0,.6.44.6c1.71,0,3.42,0,5.13-.06.4.14.51,0,.42-.41s-.19-.64-.28-1l-.18-.84h.05l-.05,0c-.2-1-.39-1.92-.59-2.88l-.07-.32A0,0,0,0,0,200.45,16.62Z"/><path class="cls-3" d="M308.69,12.92c-2.24,0-4.48,0-6.73,0-3.22-.05-5-1.7-5.2-4.93a18.13,18.13,0,0,1,0-1.95c.09-3.72,2.11-5.69,5.84-5.69.85,0,1.71,0,2.57,0,.37,0,1.05-.25.86.56s.3,1.69-.89,1.81c-.68.07-1.38,0-2.08,0a2.58,2.58,0,0,0-2.89,2.61,16.87,16.87,0,0,0,0,2.93,2.31,2.31,0,0,0,2.42,2.28q6.36.07,12.72,0c1.12,0,1.79-.68,1.71-1.64a1.49,1.49,0,0,0-1.72-1.48c-1.1,0-2.21,0-3.31,0-2.06-.08-3.35-1.2-3.53-3a3.42,3.42,0,0,1,2.79-4C313,0,314.86.2,316.69.15c.77,0,1.55,0,2.32,0,1.85,0,1.59-.33,1.41,1.63-.06.66-.4.77-1,.76-2,0-4.08,0-6.12,0-.73,0-1.41.13-1.68.94-.34,1,.29,1.82,1.45,1.89s2.12,0,3.18,0c3,.07,4.6,2.34,3.67,5.19-.52,1.61-1.83,2.12-3.31,2.26s-2.69.1-4,.12-2.61,0-3.92,0Z"/><path class="cls-3" d="M337.55,5.62c0-.69,0-1.39,0-2.08a2.83,2.83,0,0,1,2.25-3A7.69,7.69,0,0,1,344,.18a5.49,5.49,0,0,1,4.22,6.05c-.19,3.26-2,5.28-5.07,5.56a4.14,4.14,0,0,1-.86,0c-6.45-.65-12.92-.08-19.37-.28-.45,0-1.31.4-1.12-.69.13-.76-.24-1.82,1.22-1.73s2.86,0,4.28.05c.63,0,.89-.06.84-.76-.08-1.13,0-2.29-.12-3.42-.19-1.76-1-2.43-2.73-2.45h-1c-1.55,0-1.89-.58-1.26-2,.16-.36.4-.36.68-.36.94,0,1.88,0,2.81,0a4.79,4.79,0,0,1,4.69,4.33,20,20,0,0,1,.13,3.79c0,.62.18.86.83.85,1.47,0,2.94-.05,4.41,0,.73,0,.92-.33.91-1C337.54,7.34,337.55,6.48,337.55,5.62Zm2.82-2.29-.08.06.09,0c.58,1.24.21,2.55.26,3.82.07,1.77.08,1.83,1.85,1.83A2.2,2.2,0,0,0,345,7.19c.47-1.88,0-3.66-1.06-4.2a1.71,1.71,0,0,0-.7-.2A4.48,4.48,0,0,0,340.37,3.33Z"/><path class="cls-3" d="M309.9,32.51c-.66,0-.6-.51-.6-1,0-1.91,0-3.83,0-5.75,0-1.58-1.23-2.24-2.7-1.57-.49.23-.34.55-.34.9,0,2.12,0,4.24,0,6.36,0,.82-.24,1-1,1-2.22,0-2.22,0-2.22-2.24,0-1.59,0-3.18,0-4.77a1.24,1.24,0,0,0-.73-1.3,2.46,2.46,0,0,0-2,.13c-.41.21-.23.66-.23,1,0,2,0,4.08,0,6.12,0,.87-.26,1.08-1.11,1.06-2.21-.06-2.21,0-2.21-2.26,0-2,0-4.08,0-6.12a2,2,0,0,1,1.82-2.32c2-.44,4-.8,6,.15.51.25.86,0,1.27-.16,2.16-.61,4.25-.79,6.1.84l.52,1c.31,2.67.07,5.36.16,8,0,.62-.16.89-.82.84a10,10,0,0,0-1.34,0Z"/><path class="cls-3" d="M336.42,23.88c0,2.08,0,4.16,0,6.23a1.82,1.82,0,0,1-1.52,2,11.64,11.64,0,0,1-4.23.4,4.66,4.66,0,0,1-4.5-4.09,8,8,0,0,1,.24-4A4.4,4.4,0,0,1,332,21.53c1,.22,1.31.08,1.21-1-.09-.84,0-1.71,0-2.56s.27-1.11,1.05-1.24c2.24-.38,2.23-.41,2.23,1.86v5.25Zm-3.26,3.21c0-.74,0-1.47,0-2.2,0-.27.07-.55-.24-.76a2.48,2.48,0,0,0-3.17.66,4.63,4.63,0,0,0,.06,4.45,2.4,2.4,0,0,0,2.84.84c1-.31.39-1.09.5-1.65A6.67,6.67,0,0,0,333.16,27.09Z"/><path class="cls-3" d="M348.2,28.33c0,1.18,0,2.36,0,3.54,0,.68-.12,1-.87.79a9.3,9.3,0,0,0-4.45-.12,5.1,5.1,0,0,1-2.42-.17,3.18,3.18,0,0,1-.38-6,10.62,10.62,0,0,1,3.84-.51c.43,0,1.18.38,1.19-.56a1.33,1.33,0,0,0-1.18-1.47,9.9,9.9,0,0,0-3.74.43c-.42.1-1.15.86-1.31-.17-.12-.71-.87-1.74.67-2.1a15.37,15.37,0,0,1,5.3-.64,3.33,3.33,0,0,1,3.32,3.52c.05,1.14,0,2.28,0,3.42Zm-4.34-.53c-.45,0-.9.05-1.33.13a1.26,1.26,0,0,0-1.13,1.47c.08.77.64,1.08,1.38,1.07.44,0,.88-.1,1.32-.12,1.31-.07,1-1,1.06-1.84C345.19,27.38,344.31,28,343.86,27.8Z"/><path class="cls-3" d="M314.45,28a4,4,0,0,1,3.7-2.05l2.28-.14c.29,0,.7.35.71-.29v-.49a.84.84,0,0,0-.7-1,4.42,4.42,0,0,0-3.18.05,2.64,2.64,0,0,0-1.47.44c-.37,0-.81.18-.83-.48s-.11-1.18-.16-1.77l.49-.23a19.6,19.6,0,0,1,5.06-.75c2.71.15,4,1.37,4,4.07,0,2.16,0,4.32,0,6.49,0,.74-.22.93-.9.75a9.27,9.27,0,0,0-4.35-.12,6.2,6.2,0,0,1-3.24-.39l-1-.79-.05.06.06-.05A4.1,4.1,0,0,1,314.45,28Zm6.77.89c.28-1-.37-1.13-1.28-1.1-1.76.05-2.52.45-2.45,1.48s.73,1.17,1.54,1.18C320.7,30.5,321.22,30.16,321.22,28.92Z"/><path class="cls-4" d="M291.83,2.26V4.75c0,1.78,0,3.56,0,5.35,0,.91,0,1.82,0,2.73l-.09.95c-.88.77-1.86.19-2.79.2H254.59c-1.39,0-2.77,0-4.15,0l-.3-.24a.26.26,0,0,0,0-.23c0-1.14,0-2.29,0-3.43V1.54l-.2-.28a1.52,1.52,0,0,1,.25-1.1A3.52,3.52,0,0,1,251.6,0h25.28c5,0,9.93,0,14.89.08h0l.07.23c0,.34,0,.67,0,1S291.83,2,291.83,2.26ZM271,.33c-6.36,0-12.73,0-19.09,0-1,0-1.31.3-1.29,1.31.06,3.3.08,6.61,0,9.91,0,1.23.28,1.57,1.55,1.56,12.19-.05,24.39,0,36.58,0,.48,0,1-.15,1.44.14,1.1.76,1.12,0,1.12-.77,0-3.63,0-7.26,0-10.89,0-1-.27-1.25-1.24-1.24C283.72.35,277.35.33,271,.33Z"/><path class="cls-4" d="M291.83.31l-.07-.23a.87.87,0,0,1,.13.15S291.85.28,291.83.31Z"/><path class="cls-4" d="M249.91,1.26l.2.28Z"/><path class="cls-4" d="M250.14,13.78l.3.24Z"/><polygon class="cls-5" points="340.37 3.33 340.42 3.38 340.38 3.44 340.29 3.39 340.37 3.33"/><path class="cls-5" d="M271.09,18.93c6.44,0,12.89,0,19.33,0,1.09,0,1.38.31,1.36,1.38-.07,3.75-.06,7.5,0,11.25,0,1.06-.39,1.33-1.36,1.33q-19.5,0-39,0c-.88,0-1.23-.23-1.22-1.17.05-3.87.05-7.75,0-11.62,0-1,.36-1.15,1.22-1.15,6.57,0,13.13,0,19.7,0Z"/><path class="cls-4" d="M271,.33c6.36,0,12.73,0,19.09,0,1,0,1.25.28,1.24,1.24-.06,3.63,0,7.26,0,10.89,0,.82,0,1.53-1.12.77-.43-.29-1-.14-1.44-.14-12.19,0-24.39,0-36.58,0-1.27,0-1.58-.33-1.55-1.56.09-3.3.07-6.61,0-9.91,0-1,.26-1.32,1.29-1.31C258.26.35,264.63.33,271,.33Z"/><path class="cls-2" d="M57.21,19.72A17.92,17.92,0,0,1,29.1,34.45,17.91,17.91,0,0,0,28.26,5.6a17.92,17.92,0,0,1,29,14.12Z"/><circle class="cls-6" cx="17.99" cy="20.41" r="17.99"/><path class="cls-7" d="M36,20.33A17.89,17.89,0,0,1,29.1,34.45,17.92,17.92,0,0,1,28.26,5.6,17.87,17.87,0,0,1,36,20.33Z"/></g></g></svg>