<svg xmlns="http://www.w3.org/2000/svg" viewBox="0 0 51.11 51.14"><defs><style>.cls-1{fill:#fff;}</style></defs><title>Asset 13</title><g id="Layer_2" data-name="Layer 2"><g id="Layer_1-2" data-name="Layer 1"><path class="cls-1" d="M18.82,1.42c1.31.48,2.57-.12,3.93-.77a7,7,0,0,1,6.69.46,3.31,3.31,0,0,0,1.82.37,7.75,7.75,0,0,1,7.29,3,3.28,3.28,0,0,0,1.55,1,7.76,7.76,0,0,1,5.55,5.6,2.89,2.89,0,0,0,.94,1.44,7.69,7.69,0,0,1,3,7.4,2.76,2.76,0,0,0,.28,1.56,7.57,7.57,0,0,1,0,8.11,2.71,2.71,0,0,0-.3,1.56,7.68,7.68,0,0,1-3,7.41,3,3,0,0,0-1,1.43A7.73,7.73,0,0,1,40,45.69a3,3,0,0,0-1.43,1,7.68,7.68,0,0,1-7.41,3,2.7,2.7,0,0,0-1.56.29,7.57,7.57,0,0,1-8,.06,3,3,0,0,0-1.68-.34,7.74,7.74,0,0,1-7.4-3.07,3,3,0,0,0-1.45-.94A7.72,7.72,0,0,1,5.45,40a2.72,2.72,0,0,0-.87-1.33,7.65,7.65,0,0,1-3.11-7.51,2.67,2.67,0,0,0-.32-1.54,7.59,7.59,0,0,1,0-8,2.94,2.94,0,0,0,.32-1.68,7.74,7.74,0,0,1,3-7.3,3.3,3.3,0,0,0,1-1.54A7.84,7.84,0,0,1,11,5.5a3.31,3.31,0,0,0,1.54-1A7.79,7.79,0,0,1,18.82,1.42ZM5.07,21.63a1.65,1.65,0,0,1-.18.23c-2.5,2.6-2.53,4.52-.18,7.32a1.6,1.6,0,0,1,.11,1.33c-1,2.76-.14,5.05,2.55,6.19a1.35,1.35,0,0,1,1,1.47A4.37,4.37,0,0,0,13,42.82a1.34,1.34,0,0,1,1.48.94c1.14,2.71,3.43,3.63,6.16,2.52a1.23,1.23,0,0,1,1.59.31c2.1,2.07,4.62,2.09,6.67,0a1.31,1.31,0,0,1,1.7-.34,4.32,4.32,0,0,0,6.07-2.47,1.43,1.43,0,0,1,1.58-1,4.35,4.35,0,0,0,4.57-4.57,1.48,1.48,0,0,1,1.15-1.63,4.06,4.06,0,0,0,2.75-3.81,14.9,14.9,0,0,0-.62-3.29,2,2,0,0,1,.15-.2c2.51-2.6,2.52-4.51.19-7.33a1.75,1.75,0,0,1-.06-1.46,4.41,4.41,0,0,0-2.48-6,1.52,1.52,0,0,1-1.08-1.68,4.34,4.34,0,0,0-4.49-4.5A1.53,1.53,0,0,1,36.6,7.29a4.28,4.28,0,0,0-6-2.44,1.4,1.4,0,0,1-1.83-.36,4.34,4.34,0,0,0-6.46,0,1.47,1.47,0,0,1-1.94.38,4.33,4.33,0,0,0-5.89,2.39,1.49,1.49,0,0,1-1.63,1.15,4.32,4.32,0,0,0-4.56,4.57,1.49,1.49,0,0,1-1.15,1.63,4.12,4.12,0,0,0-2.77,4A14,14,0,0,0,5.07,21.63Z"/><path class="cls-1" d="M25.59,43.53a17.94,17.94,0,1,1,17.9-18A17.92,17.92,0,0,1,25.59,43.53Zm0-32.91a15,15,0,1,0,14.89,15A15,15,0,0,0,25.63,10.62Z"/><path class="cls-1" d="M36.09,18.46l-2.5,16.32H17.52L15,18.49c1.71.37,3.2.76,4.72,1A2,2,0,0,0,21.26,19c1.44-1.51,2.78-3.12,4.29-4.84,1.34,1.52,2.69,2.9,3.84,4.43a2.13,2.13,0,0,0,2.67.84C33.28,19,34.54,18.82,36.09,18.46ZM19.18,25.83H31.92l.5-3.35a5.35,5.35,0,0,0-1.23.17,2.22,2.22,0,0,1-3-.93,39.49,39.49,0,0,0-2.62-3,22.51,22.51,0,0,0-1.72,2C22.64,22.45,21.24,23.5,19,22.5c-.05,0-.15.07-.31.16Zm.93,6H31L31.4,29H19.67Z"/></g></g></svg>