<svg xmlns="http://www.w3.org/2000/svg" viewBox="0 0 213.43 66.43"><defs><style>.cls-1{fill:#a6a8ab;}</style></defs><title>logo-1</title><g id="Layer_2" data-name="Layer 2"><g id="Layer_1-2" data-name="Layer 1"><path class="cls-1" d="M.74,30.74A8.6,8.6,0,0,1,.33,28a11,11,0,0,1,.21-2.12H1.75a8.65,8.65,0,0,1-.39-1.12A6.1,6.1,0,0,1,1.12,23a5.15,5.15,0,0,1,.55-2.45,5.54,5.54,0,0,1,1.4-1.76,4.56,4.56,0,0,1,1.59-.87,6.43,6.43,0,0,1,2-.29,7.63,7.63,0,0,1,2.05.28,12.16,12.16,0,0,1,2.12.88l-1,2.83a8.48,8.48,0,0,0-1.51-.69,4.23,4.23,0,0,0-1.31-.22A2.87,2.87,0,0,0,5,21.29a2.36,2.36,0,0,0-.63.87,2.93,2.93,0,0,0-.18,1.05,4.65,4.65,0,0,0,.24,1.54,3.61,3.61,0,0,0,.61,1.12h6V29H3.46v0a4.63,4.63,0,0,0,.2,1.31A8,8,0,0,0,4.43,32L2,33.11A9.35,9.35,0,0,1,.74,30.74Z"/><path class="cls-1" d="M16.62,13.38V29H13.53V13.38Z"/><path class="cls-1" d="M24.69,25.87v-2.6a3.09,3.09,0,0,0-.12-.91,1.86,1.86,0,0,0-.33-.66,1.46,1.46,0,0,0-.58-.44,1.85,1.85,0,0,0-.82-.17H21.48V18h1.1a7,7,0,0,1,2.3.34,4.27,4.27,0,0,1,1.74,1.13,3.58,3.58,0,0,1,.9,1.7,9.05,9.05,0,0,1,.26,2.21v2.49h2V29H18.19V25.87Z"/><path class="cls-1" d="M33.1,25.87V29H29V25.87Z"/><path class="cls-1" d="M36.4,25.87V29H32.25V25.87Z"/><path class="cls-1" d="M39.69,25.87V29H35.54V25.87Z"/><path class="cls-1" d="M43,25.87V29H38.84V25.87Z"/><path class="cls-1" d="M46.28,25.87V29H42.13V25.87Z"/><path class="cls-1" d="M47.74,25.87V18h3.09V29h-5.4V25.87Zm.35,6.64a1.46,1.46,0,0,1-.54-1.22,1.47,1.47,0,0,1,.51-1.17,2,2,0,0,1,2.51,0,1.61,1.61,0,0,1,0,2.39,2,2,0,0,1-2.46,0Z"/><path class="cls-1" d="M58,25.87a3.85,3.85,0,0,0,1.1-.15A2.76,2.76,0,0,0,60,25.3a2.12,2.12,0,0,0,.5-.7,2.69,2.69,0,0,0,.18-1.06V12H65v3.09h-1.2v8.36a7.38,7.38,0,0,1-.37,2.3,4.3,4.3,0,0,1-1.11,1.82,4.87,4.87,0,0,1-2,1.08,10.9,10.9,0,0,1-2.75.31H52.82l-.37-3.09ZM54.74,33a2.44,2.44,0,0,1-.69-2v-1.1H58.4v1.88H56a.43.43,0,0,0,.16.28.83.83,0,0,0,.6.17h1v1.32H56.63A2.82,2.82,0,0,1,54.74,33Zm3.48-17.84v10.3H55.13V15.13Z"/><path class="cls-1" d="M70.86,13.38V29H67.77V13.38Z"/><path class="cls-1" d="M81.62,31.22A9.09,9.09,0,0,1,80.27,31a7.1,7.1,0,0,1-1.18-.39c-.37-.16-.84-.4-1.4-.71l1.25-2.73a7.9,7.9,0,0,0,1.9.82,6.8,6.8,0,0,0,1.66.2h3.38v-5a6.8,6.8,0,0,1,.4-2.41A4,4,0,0,1,87.58,19a4.47,4.47,0,0,1,1.64-.79A7.91,7.91,0,0,1,91.28,18H95V29H92V21.09H91a3.32,3.32,0,0,0-.8.09,1.6,1.6,0,0,0-.62.32,1.52,1.52,0,0,0-.44.65A2.4,2.4,0,0,0,89,23v8.27H83.33A17.07,17.07,0,0,1,81.62,31.22Zm.09-8.35a1.62,1.62,0,0,1,0-2.4,2,2,0,0,1,2.51,0,1.49,1.49,0,0,1,.51,1.18,1.46,1.46,0,0,1-.54,1.22,2,2,0,0,1-2.46,0Zm0,3.94a1.44,1.44,0,0,1-.54-1.22,1.46,1.46,0,0,1,.52-1.17,2,2,0,0,1,2.51,0,1.49,1.49,0,0,1,.51,1.17,1.44,1.44,0,0,1-.54,1.22,2,2,0,0,1-2.46,0Z"/><path class="cls-1" d="M97.22,33a4.77,4.77,0,0,1-.78-.17l-.22-3.11a8.67,8.67,0,0,0,.94.2,3.31,3.31,0,0,0,.55,0,1.05,1.05,0,0,0,.9-.35,2.17,2.17,0,0,0,.25-1.23V18H102V28a10.53,10.53,0,0,1-.21,2.24,4.17,4.17,0,0,1-.7,1.58,2.84,2.84,0,0,1-1.25.93,4.92,4.92,0,0,1-1.8.3A6.49,6.49,0,0,1,97.22,33Z"/><path class="cls-1" d="M109.16,25.87a3.9,3.9,0,0,0,1.1-.15,2.6,2.6,0,0,0,.85-.42,2,2,0,0,0,.5-.7,2.51,2.51,0,0,0,.19-1.06V12h4.3v3.09h-1.21v8.36a7,7,0,0,1-.18,1.64,3.47,3.47,0,0,0,2.66.78V29a7.07,7.07,0,0,1-1.75-.17,4.13,4.13,0,0,1-1.06-.46,2.62,2.62,0,0,1-.69-.62l-.26-.33-.19.19a4.91,4.91,0,0,1-2.06,1.08,10.82,10.82,0,0,1-2.74.31h-4.68l-.37-3.09Zm.18-10.74v10.3h-3.09V15.13Z"/><path class="cls-1" d="M120.66,25.87V29h-4.15V25.87Z"/><path class="cls-1" d="M124,25.87V29h-4.15V25.87Z"/><path class="cls-1" d="M127.25,25.87V29H123.1V25.87Z"/><path class="cls-1" d="M130.55,25.87V29H126.4V25.87Z"/><path class="cls-1" d="M133.84,25.87V29h-4.15V25.87Z"/><path class="cls-1" d="M137.14,25.87V29H133V25.87Z"/><path class="cls-1" d="M139.28,25.87a3.27,3.27,0,0,1-.4-.87,4.39,4.39,0,0,1-.25-1.53,5.31,5.31,0,0,1,.47-2.3,4.93,4.93,0,0,1,1.34-1.73,5.79,5.79,0,0,1,2.06-1.08,9,9,0,0,1,2.62-.36h3.32V29H137V25.87Zm1.88-9.38a1.4,1.4,0,0,1-.5-1.17,1.44,1.44,0,0,1,.49-1.14,1.89,1.89,0,0,1,2.4,0,1.44,1.44,0,0,1,.49,1.14,1.4,1.4,0,0,1-.5,1.17,1.93,1.93,0,0,1-2.38,0Zm.91,8.4a3,3,0,0,0,.89,1h2.39V21.09h-.86a3.31,3.31,0,0,0-1,.16,2.72,2.72,0,0,0-.9.45,2.24,2.24,0,0,0-.61.75,2.1,2.1,0,0,0-.23,1A2.77,2.77,0,0,0,142.07,24.89Zm3.13-8.4a1.4,1.4,0,0,1-.5-1.17,1.44,1.44,0,0,1,.49-1.14,1.9,1.9,0,0,1,2.41,0,1.47,1.47,0,0,1,.48,1.14,1.4,1.4,0,0,1-.5,1.17,1.93,1.93,0,0,1-2.38,0Z"/><path class="cls-1" d="M4.26,47.85a9,9,0,0,1-1.08-.06,4.94,4.94,0,0,1-.9-.19,3.65,3.65,0,0,1-.75-.34,3.7,3.7,0,0,1-.64-.5,2.47,2.47,0,0,1-.69-1.2A6,6,0,0,1,0,44V41.5H1.86v2.29a3.35,3.35,0,0,0,.13,1,1.38,1.38,0,0,0,.43.69,2,2,0,0,0,.86.39A5,5,0,0,0,4.4,46H8.12V40.37H10v7.48Zm.08-8.15a1.13,1.13,0,0,1-.73.25,1.17,1.17,0,0,1-.73-.25.86.86,0,0,1-.3-.71.89.89,0,0,1,.3-.69,1.06,1.06,0,0,1,.73-.25,1.09,1.09,0,0,1,.74.25.89.89,0,0,1,.3.69A.84.84,0,0,1,4.34,39.7Zm2.89,0A1.17,1.17,0,0,1,6.5,40a1.13,1.13,0,0,1-.73-.25A.84.84,0,0,1,5.46,39a.89.89,0,0,1,.3-.69,1.09,1.09,0,0,1,.74-.25,1.07,1.07,0,0,1,.74.25.88.88,0,0,1,.29.69A.86.86,0,0,1,7.23,39.7Z"/><path class="cls-1" d="M12.51,37.08h1.87V46h1.7v1.86H12.51Z"/><path class="cls-1" d="M15.81,46H17.1a2.7,2.7,0,0,1-.08-.41c0-.14,0-.29,0-.44a4.15,4.15,0,0,1,1.17-2.88,4.3,4.3,0,0,1,1.26-.87A3.84,3.84,0,0,1,21,41.07a3.93,3.93,0,0,1,1.57.32,4.19,4.19,0,0,1,1.29.85,3.89,3.89,0,0,1,.86,1.29A4.09,4.09,0,0,1,25,45.14a3.71,3.71,0,0,1-.33,1.57A3.91,3.91,0,0,1,23.81,48a4.49,4.49,0,0,1-1.29.84,4,4,0,0,1-1.54.3,3.77,3.77,0,0,1-1.6-.34,4.1,4.1,0,0,1-1.3-.92H15.81Zm4.33,1.1a2.13,2.13,0,0,0,.84.16,2.22,2.22,0,0,0,.85-.16,2.13,2.13,0,0,0,.7-.44A2.15,2.15,0,0,0,23,46a2.2,2.2,0,0,0,.17-.86,2.43,2.43,0,0,0-.16-.86,2.11,2.11,0,0,0-1.15-1.15,2.21,2.21,0,0,0-.87-.17,2,2,0,0,0-.85.18,2.1,2.1,0,0,0-.67.46,2.46,2.46,0,0,0-.44.69,2.42,2.42,0,0,0-.16.85A2.34,2.34,0,0,0,19,46a2.08,2.08,0,0,0,.45.67A2,2,0,0,0,20.14,47.09Z"/><path class="cls-1" d="M32.88,46h1.24v1.86H32.86A4.41,4.41,0,0,1,32.6,49,2.39,2.39,0,0,1,32,50a2.67,2.67,0,0,1-1,.6,4.74,4.74,0,0,1-1.51.21,3.78,3.78,0,0,1-.49,0,3.47,3.47,0,0,1-.45-.06l-.46-.09-.54-.15-.13-1.87a6.35,6.35,0,0,0,1,.25,4.87,4.87,0,0,0,.93.08,6.66,6.66,0,0,0,.68,0,1.23,1.23,0,0,0,.5-.15.78.78,0,0,0,.33-.32,1.37,1.37,0,0,0,.17-.56H30.8A7.26,7.26,0,0,1,29,47.64,4.2,4.2,0,0,1,27.56,47a3.15,3.15,0,0,1-1-1.16,3.86,3.86,0,0,1-.35-1.71,3.44,3.44,0,0,1,.34-1.56,3.34,3.34,0,0,1,.94-1.17A4.26,4.26,0,0,1,29,40.63a6.29,6.29,0,0,1,1.84-.26h2.1ZM28.1,44.1a1.77,1.77,0,0,0,.17.82,1.66,1.66,0,0,0,.45.59,2.06,2.06,0,0,0,.69.36,2.84,2.84,0,0,0,.84.12H31V42.23h-.79a2.73,2.73,0,0,0-.8.13,2.31,2.31,0,0,0-.69.38,2,2,0,0,0-.48.59A1.65,1.65,0,0,0,28.1,44.1Z"/><path class="cls-1" d="M33.86,46h1.31V37.08H37V46h1.7v1.86H33.86Z"/><path class="cls-1" d="M38.46,46h2.25l-1.65-4.22c.32-.28.64-.53,1-.76a7.92,7.92,0,0,1,1-.6A4.87,4.87,0,0,1,42,40a4.6,4.6,0,0,1,3.27.39,9.21,9.21,0,0,1,1.93,1.37L45.64,46h2.44v1.86H38.46Zm4.68-4.14a2.86,2.86,0,0,0-1,.17,3.82,3.82,0,0,0-1,.54L42.35,46H44l1.21-3.44a4.21,4.21,0,0,0-1-.54A2.86,2.86,0,0,0,43.14,41.85Z"/><path class="cls-1" d="M47.81,46H49.1a2.7,2.7,0,0,1-.07-.41c0-.14,0-.29,0-.44a4,4,0,0,1,.31-1.59,4.19,4.19,0,0,1,.85-1.29,4.3,4.3,0,0,1,1.26-.87A3.87,3.87,0,0,1,53,41.07a4,4,0,0,1,1.58.32,3.89,3.89,0,0,1,2.15,2.14A4.09,4.09,0,0,1,57,45.14a3.15,3.15,0,0,1,0,.44c0,.14,0,.28-.06.41h1.49v1.86H55.93a3.86,3.86,0,0,1-1.32.93,4.06,4.06,0,0,1-1.63.33,3.72,3.72,0,0,1-1.59-.34,4,4,0,0,1-1.3-.92H47.81Zm4.34,1.1a2,2,0,0,0,.83.16,2.18,2.18,0,0,0,.85-.16,2,2,0,0,0,.7-.44,2,2,0,0,0,.63-1.54,2.23,2.23,0,0,0-.16-.86,1.92,1.92,0,0,0-.45-.69,1.94,1.94,0,0,0-.69-.46,2.3,2.3,0,0,0-.88-.17,2,2,0,0,0-.85.18,2.06,2.06,0,0,0-.66.46,2.26,2.26,0,0,0-.44.69,2.22,2.22,0,0,0-.16.85A2.15,2.15,0,0,0,51,46a2.05,2.05,0,0,0,.44.67A2,2,0,0,0,52.15,47.09Z"/><path class="cls-1" d="M58.15,46h1.3V37.08h2.73v1.86h-.87v8.91H58.15Z"/><path class="cls-1" d="M64.43,37.08H66.3V47.85H64.43Z"/><path class="cls-1" d="M78.88,49.31a3.8,3.8,0,0,1-1.27-.21,4.08,4.08,0,0,1-1.11-.59,3.78,3.78,0,0,1-.86-.88,3.84,3.84,0,0,1-.55-1.11,1.39,1.39,0,0,0-1.09.53,1.79,1.79,0,0,0-.31.76,4.92,4.92,0,0,0-.09,1v2H71.74v-2A6,6,0,0,1,72,47a3.73,3.73,0,0,1,.74-1.32,3.23,3.23,0,0,1,.49-.41,3.91,3.91,0,0,1,.57-.31,3.47,3.47,0,0,1,.6-.19,2.47,2.47,0,0,1,.58-.07,4.18,4.18,0,0,1,.46-1.34,4,4,0,0,1,.87-1.08,4.41,4.41,0,0,1,1.18-.71,3.88,3.88,0,0,1,1.41-.26,4,4,0,0,1,1.57.32,3.89,3.89,0,0,1,2.15,2.14,4.09,4.09,0,0,1,.31,1.61c0,.11,0,.23,0,.33s0,.21,0,.32h1.46v1.86H82a4.05,4.05,0,0,1-3.12,1.46Zm-.84-2a2.1,2.1,0,0,0,.84.16,2.22,2.22,0,0,0,.85-.16,2.08,2.08,0,0,0,.69-.44,2,2,0,0,0,.47-.68,2.2,2.2,0,0,0,.16-.86,2.43,2.43,0,0,0-.15-.86,2.11,2.11,0,0,0-1.15-1.15,2.25,2.25,0,0,0-.87-.17,2,2,0,0,0-.86.18,2.18,2.18,0,0,0-.66.46,2.46,2.46,0,0,0-.44.69,2.42,2.42,0,0,0-.16.85,2.38,2.38,0,0,0,.16.85,2.08,2.08,0,0,0,.45.67A2.1,2.1,0,0,0,78,47.29Z"/><path class="cls-1" d="M84.06,46h1.3V37.08h1.86v4h4a4.74,4.74,0,0,1,1.58.23A2.86,2.86,0,0,1,94,42a2.44,2.44,0,0,1,.6,1.15,6.1,6.1,0,0,1,.17,1.52V46h1.44v1.86H84.06Zm3.16-3.11V46H93V44.62a2.48,2.48,0,0,0-.09-.7,1.61,1.61,0,0,0-.27-.52,1.4,1.4,0,0,0-.48-.37,1.41,1.41,0,0,0-.65-.15Zm3.62-3.29a1.3,1.3,0,0,1-1.53,0,1,1,0,0,1,0-1.46,1.25,1.25,0,0,1,1.55,0,1,1,0,0,1,0,1.46Z"/><path class="cls-1" d="M96,46h1.65V40.37H99.5v7.48H96Zm3.3-7a1.3,1.3,0,0,1-1.53,0,.88.88,0,0,1-.32-.74.91.91,0,0,1,.31-.72,1.25,1.25,0,0,1,1.55,0,.92.92,0,0,1,.32.72A.88.88,0,0,1,99.29,39Z"/><path class="cls-1" d="M112.9,46v1.86h-3.35a6.53,6.53,0,0,1-1.82-.23,4,4,0,0,1-1.44-.69,3.17,3.17,0,0,1-.94-1.17,3.64,3.64,0,0,1-.34-1.64,3.72,3.72,0,0,1,.3-1.5,3.41,3.41,0,0,1,.89-1.18,4.36,4.36,0,0,1,1.43-.78,6,6,0,0,1,1.92-.29h.27v-.66h1.86V46Zm-4.49-7.51a1.14,1.14,0,0,1-.73.24,1.13,1.13,0,0,1-.73-.24.85.85,0,0,1-.31-.71.87.87,0,0,1,.3-.69,1.18,1.18,0,0,1,1.48,0,.9.9,0,0,1,.29.69A.87.87,0,0,1,108.41,38.48ZM109.82,46V42.23h-.72a2.54,2.54,0,0,0-.81.13,2.21,2.21,0,0,0-.72.36,1.93,1.93,0,0,0-.51.59,1.67,1.67,0,0,0-.19.81,1.73,1.73,0,0,0,.18.81,1.8,1.8,0,0,0,.48.58,2,2,0,0,0,.68.36,2.67,2.67,0,0,0,.8.12Zm1.47-7.51a1.23,1.23,0,0,1-1.46,0,1,1,0,0,1,0-1.4,1.11,1.11,0,0,1,.74-.26,1.08,1.08,0,0,1,.74.26.87.87,0,0,1,.3.69A.85.85,0,0,1,111.29,38.48Z"/><path class="cls-1" d="M112.65,46h2.77V40.37h1.86V46h2.45v1.86h-7.08Zm2.89,4.45a1.13,1.13,0,0,1-.73.24,1.14,1.14,0,0,1-.73-.24.84.84,0,0,1-.3-.7.88.88,0,0,1,.29-.69,1.15,1.15,0,0,1,1.48,0,.86.86,0,0,1,.3.69A.82.82,0,0,1,115.54,50.44Zm2.89,0a1.25,1.25,0,0,1-1.47,0,.84.84,0,0,1-.3-.7.86.86,0,0,1,.3-.69,1,1,0,0,1,.73-.27,1.06,1.06,0,0,1,.75.27.88.88,0,0,1,.29.69A.84.84,0,0,1,118.43,50.44Z"/><path class="cls-1" d="M119.46,46h2.62v1.86h-2.62Z"/><path class="cls-1" d="M121.81,46h2.62v1.86h-2.62Z"/><path class="cls-1" d="M124.17,46h1.64V40.37h1.86V46h1.42v1.86h-4.92Zm3.28-7a1.28,1.28,0,0,1-1.52,0,.88.88,0,0,1-.33-.74.91.91,0,0,1,.31-.72,1.26,1.26,0,0,1,1.56,0,.91.91,0,0,1,.31.72A.88.88,0,0,1,127.45,39Z"/><path class="cls-1" d="M128.84,46h1.78a3.32,3.32,0,0,1-.46-.85,2.87,2.87,0,0,1-.18-1,3.57,3.57,0,0,1,.33-1.56,3.4,3.4,0,0,1,.91-1.18,4.11,4.11,0,0,1,1.41-.74,6.46,6.46,0,0,1,1.82-.25h2.19V46h1.22v1.86h-9Zm4.36-7a1.14,1.14,0,0,1-.73.24,1.13,1.13,0,0,1-.73-.24,1,1,0,0,1,0-1.4,1.18,1.18,0,0,1,1.48,0,.84.84,0,0,1,.29.68A.88.88,0,0,1,133.2,39Zm-1.36,5.1a2.18,2.18,0,0,0,.28,1.09,2.33,2.33,0,0,0,.73.8h1.93V42.23H134a2.66,2.66,0,0,0-.79.12,1.89,1.89,0,0,0-.69.36,1.86,1.86,0,0,0-.49.59A1.75,1.75,0,0,0,131.84,44.1Zm4.24-5.1a1.14,1.14,0,0,1-.73.24,1.16,1.16,0,0,1-.73-.24,1,1,0,0,1,0-1.4,1.2,1.2,0,0,1,1.49,0,.88.88,0,0,1,.29.68A.86.86,0,0,1,136.08,39Z"/><path class="cls-1" d="M137.6,46h2.77V40.37h1.86V46h2.45v1.86H137.6Zm2.91-7A1.25,1.25,0,0,1,139,39a.88.88,0,0,1-.3-.72.85.85,0,0,1,.3-.68,1.17,1.17,0,0,1,1.47,0,.85.85,0,0,1,.3.68A.88.88,0,0,1,140.51,39Zm2.88,0a1.14,1.14,0,0,1-.73.24,1.13,1.13,0,0,1-.73-.24,1,1,0,0,1,0-1.4,1.11,1.11,0,0,1,.74-.26,1.08,1.08,0,0,1,.74.26.85.85,0,0,1,.3.68A.89.89,0,0,1,143.39,39Z"/><path class="cls-1" d="M144.41,46h1.3V37.08h2.73v1.86h-.87v8.91h-3.16Z"/><line class="cls-1" x1="188.41" y1="16.88" x2="186.51" y2="25.1"/><path class="cls-1" d="M186.52,27.73a2.46,2.46,0,0,1-.6-.07,2.62,2.62,0,0,1-2-3.15l1.9-8.23A2.62,2.62,0,0,1,191,17.47l-1.9,8.22A2.62,2.62,0,0,1,186.52,27.73Z"/><path class="cls-1" d="M213.43,1.07a1.15,1.15,0,0,1-.1.35c0,.05-2.74,5.56-11,2.13-4.84-2-7.69-.39-9.14,1.1a23.51,23.51,0,0,1,15.94,23.59,4,4,0,0,1-1.58,2.9,3.86,3.86,0,0,1-3.24.64l-.15,0a3.68,3.68,0,0,1-2.79-3.84,15.71,15.71,0,0,0-30.91-4.81l-4,16A15.7,15.7,0,1,0,197,46.52l1.23-4.86,0-.11-4.9-1.23-.19,0-10.42-2.62-6.33-1.58-.12,0-2.56-.64a4.29,4.29,0,0,1-3.23-4.14,4.69,4.69,0,0,1,.13-1,4.26,4.26,0,0,1,5.17-3.09l9,2.27,15.51,3.87L207.17,35l.35.1.2.06.09,0h0l-.51,2.07L206.62,40l-.33,1.33L206,42.48l-.2.81,0,.1,0,.12-1.21,4.87a23.74,23.74,0,0,1-22,18l-.74,0a22.87,22.87,0,0,1-3.14-.22,23.49,23.49,0,0,1-19.71-29l4-16A23.53,23.53,0,0,1,191.09,4.05C193,1.56,197-.83,203.1,1.71c6.42,2.68,8.35-1,8.44-1.15A1,1,0,0,1,212.86.1,1,1,0,0,1,213.43,1.07Z"/></g></g></svg>