<svg xmlns="http://www.w3.org/2000/svg" viewBox="0 0 393.42 66.43"><defs><style>.cls-1{fill:#a6a8ab;}</style></defs><title>logo-2</title><g id="Layer_2" data-name="Layer 2"><g id="Layer_1-2" data-name="Layer 1"><path class="cls-1" d="M5.41,30.22a6.26,6.26,0,0,1-1.29-.28,4.8,4.8,0,0,1-1.1-.5,5.07,5.07,0,0,1-1-.74,3.5,3.5,0,0,1-1-1.76,8.39,8.39,0,0,1-.29-2.26V18.35H3.84v6A4.68,4.68,0,0,0,4,25.71a1.66,1.66,0,0,0,.53.85,2.53,2.53,0,0,0,1.12.52,7.73,7.73,0,0,0,1.5.14H8.4V18.35h3.09v12H7A12.27,12.27,0,0,1,5.41,30.22ZM5,16.76a1.44,1.44,0,0,1-.54-1.22A1.46,1.46,0,0,1,5,14.37a1.83,1.83,0,0,1,1.25-.45,1.84,1.84,0,0,1,1.26.45A1.49,1.49,0,0,1,8,15.54a1.44,1.44,0,0,1-.54,1.22,2,2,0,0,1-2.46,0Z"/><path class="cls-1" d="M18.71,24.89a3.8,3.8,0,0,0,1.1-.15,2.48,2.48,0,0,0,.86-.43,1.9,1.9,0,0,0,.5-.7,2.5,2.5,0,0,0,.19-1.05V11h4.3v3.09H24.45v8.36a6.53,6.53,0,0,1-.19,1.64,3.5,3.5,0,0,0,2.66.78V28a6.59,6.59,0,0,1-1.75-.18,4.25,4.25,0,0,1-1.05-.45,2.88,2.88,0,0,1-.7-.63c-.17-.23-.26-.34-.26-.32s0,.05-.18.18a4.91,4.91,0,0,1-2.06,1.08,10.88,10.88,0,0,1-2.75.32H13.5l-.37-3.09Zm.19-10.74V24.44H15.81V14.15Z"/><path class="cls-1" d="M30.22,24.89V28H26.07V24.89Z"/><path class="cls-1" d="M33.52,24.89V28H29.36V24.89Z"/><path class="cls-1" d="M36.81,24.89V28H32.66V24.89Z"/><path class="cls-1" d="M40.11,24.89V28H36V24.89Z"/><path class="cls-1" d="M43.4,24.89V28H39.25V24.89Z"/><path class="cls-1" d="M46.7,24.89V28H42.54V24.89Z"/><path class="cls-1" d="M47.72,24.89a9,9,0,0,1-.39-1.13A6.1,6.1,0,0,1,47.09,22a5.18,5.18,0,0,1,.55-2.45A5.65,5.65,0,0,1,49,17.81,4.7,4.7,0,0,1,50.63,17a6.52,6.52,0,0,1,1.95-.29,7.25,7.25,0,0,1,2.05.28,12.87,12.87,0,0,1,2.12.87l-1,2.83A7.73,7.73,0,0,0,54.2,20a4.2,4.2,0,0,0-1.3-.23,2.8,2.8,0,0,0-1.88.58,2.33,2.33,0,0,0-.64.86,3,3,0,0,0-.18,1.06,4.55,4.55,0,0,0,.24,1.53,3.56,3.56,0,0,0,.61,1.13h6V28H45.84V24.89Z"/><path class="cls-1" d="M63.88,24.89a3.85,3.85,0,0,0,1.1-.15,2.57,2.57,0,0,0,.86-.43,2,2,0,0,0,.5-.7,2.67,2.67,0,0,0,.18-1.05V11h4.31v3.09H69.62v8.36a7.43,7.43,0,0,1-.37,2.3,4.21,4.21,0,0,1-1.11,1.81,4.87,4.87,0,0,1-2,1.08,10.88,10.88,0,0,1-2.75.32H58.67l-.37-3.09ZM60.6,32a2.42,2.42,0,0,1-.7-2v-1.1h4.35v1.88H61.87a.45.45,0,0,0,.16.28.83.83,0,0,0,.6.17h1v1.32H62.49A2.83,2.83,0,0,1,60.6,32Zm3.47-17.84V24.44H61V14.15Z"/><path class="cls-1" d="M76.71,12.4V28H73.62V12.4Z"/><path class="cls-1" d="M88.2,29.05a4.08,4.08,0,0,1-.83,1.6A3.88,3.88,0,0,1,85.8,31.7a6.67,6.67,0,0,1-2.39.37l-.72,0c-.21,0-.43,0-.64-.09s-.43-.08-.65-.13l-.93-.26-.22-3.14a14.47,14.47,0,0,0,1.71.44,6.74,6.74,0,0,0,1.27.11,8,8,0,0,0,.9,0,1.68,1.68,0,0,0,.62-.18,1,1,0,0,0,.38-.37,1,1,0,0,0,.16-.41h0a10.25,10.25,0,0,1-2.58-.31,6,6,0,0,1-2.1-1A4.57,4.57,0,0,1,79.17,25a5.52,5.52,0,0,1-.52-2.5,5,5,0,0,1,.5-2.3,4.94,4.94,0,0,1,1.39-1.72,5.84,5.84,0,0,1,2.09-1.08A8.91,8.91,0,0,1,85.27,17h3.19l0,10A8,8,0,0,1,88.2,29.05ZM82,23.53a1.94,1.94,0,0,0,.58.74,2.41,2.41,0,0,0,.87.46,3.59,3.59,0,0,0,1.11.16h.86V20.1h-.86a3.13,3.13,0,0,0-1.05.18,3,3,0,0,0-.9.49,2.28,2.28,0,0,0-.6.74,2.11,2.11,0,0,0-.22,1A2.44,2.44,0,0,0,82,23.53Z"/><path class="cls-1" d="M107.24,28h-4.93a10,10,0,0,1-2.64-.33,5.68,5.68,0,0,1-2.08-1,5,5,0,0,1-1.39-1.72,5.55,5.55,0,0,1-.5-2.41,5.31,5.31,0,0,1,.45-2.2,4.91,4.91,0,0,1,1.3-1.74,6.28,6.28,0,0,1,2.09-1.15,8.77,8.77,0,0,1,2.77-.41h.13v-.93h3.09v8.81h1.71Zm-8.75-13.2a1.43,1.43,0,0,1-.5-1.17,1.44,1.44,0,0,1,.49-1.14,1.9,1.9,0,0,1,2.41,0,1.47,1.47,0,0,1,.49,1.14,1.43,1.43,0,0,1-.5,1.17,1.88,1.88,0,0,1-1.2.41A1.85,1.85,0,0,1,98.49,14.78Zm4,5.32h-.76a3.46,3.46,0,0,0-1.06.17,3.09,3.09,0,0,0-.94.48,2.3,2.3,0,0,0-.65.74,2.08,2.08,0,0,0-.24,1,2.23,2.23,0,0,0,.22,1,2.06,2.06,0,0,0,.61.73,2.64,2.64,0,0,0,.88.46,3.39,3.39,0,0,0,1,.16h.89Zm.09-5.32a1.43,1.43,0,0,1-.5-1.17,1.44,1.44,0,0,1,.49-1.14,1.8,1.8,0,0,1,1.2-.43,1.77,1.77,0,0,1,1.21.43,1.44,1.44,0,0,1,.49,1.14,1.43,1.43,0,0,1-.5,1.17,1.95,1.95,0,0,1-2.39,0Z"/><path class="cls-1" d="M110.32,24.89V17h3.09V28h-7V24.89Zm-2.77,6.65a1.37,1.37,0,0,1-.51-1.16,1.44,1.44,0,0,1,.49-1.14,1.71,1.71,0,0,1,1.2-.44,1.68,1.68,0,0,1,1.2.44,1.45,1.45,0,0,1,.5,1.14,1.37,1.37,0,0,1-.51,1.16,1.88,1.88,0,0,1-1.19.4A1.85,1.85,0,0,1,107.55,31.54Zm4,0a1.37,1.37,0,0,1-.51-1.16,1.44,1.44,0,0,1,.49-1.14,1.71,1.71,0,0,1,1.2-.44,1.69,1.69,0,0,1,1.21.44,1.44,1.44,0,0,1,.49,1.14,1.35,1.35,0,0,1-.52,1.16,1.83,1.83,0,0,1-1.18.4A1.85,1.85,0,0,1,111.59,31.54Z"/><path class="cls-1" d="M119.85,12.4V24.89h2.38V28h-5.47V12.4Z"/><path class="cls-1" d="M123.26,24.89a10.39,10.39,0,0,1-.4-1.13,6.1,6.1,0,0,1-.24-1.74,5.3,5.3,0,0,1,.55-2.45,5.83,5.83,0,0,1,1.41-1.76,4.7,4.7,0,0,1,1.59-.86,6.41,6.41,0,0,1,1.94-.29,7.2,7.2,0,0,1,2,.28,12.2,12.2,0,0,1,2.12.87l-1,2.83a7.48,7.48,0,0,0-1.51-.68,4.15,4.15,0,0,0-1.3-.23,2.82,2.82,0,0,0-1.88.58,2.2,2.2,0,0,0-.63.86,2.78,2.78,0,0,0-.19,1.06,4.55,4.55,0,0,0,.24,1.53,3.57,3.57,0,0,0,.62,1.13h6V28H121.38V24.89Z"/><path class="cls-1" d="M140,24.89V22.28a3,3,0,0,0-.11-.9,1.71,1.71,0,0,0-.33-.66,1.4,1.4,0,0,0-.58-.45,2,2,0,0,0-.82-.17h-1.36V17h1.1a7,7,0,0,1,2.3.35,4.38,4.38,0,0,1,1.74,1.12,3.8,3.8,0,0,1,.9,1.71,9,9,0,0,1,.25,2.2v2.5h2V28H133.5V24.89Z"/><path class="cls-1" d="M146.08,24.89V12.4h3.09V24.89h2.39V28h-7.3V24.89Z"/><path class="cls-1" d="M152.52,24.89V12.4h4.3v3.09h-1.21V28H150.7V24.89Z"/><path class="cls-1" d="M163.66,29.76a8.33,8.33,0,0,1-.41-2.75,11.7,11.7,0,0,1,.2-2.12h1.21a9,9,0,0,1-.39-1.13A6.1,6.1,0,0,1,164,22a5.18,5.18,0,0,1,.55-2.45,5.8,5.8,0,0,1,1.4-1.76,4.75,4.75,0,0,1,1.6-.86,6.41,6.41,0,0,1,1.94-.29,7.25,7.25,0,0,1,2,.28,12.53,12.53,0,0,1,2.12.87l-1,2.83a7.73,7.73,0,0,0-1.51-.68,4.2,4.2,0,0,0-1.3-.23,2.8,2.8,0,0,0-1.88.58,2.2,2.2,0,0,0-.63.86,2.78,2.78,0,0,0-.19,1.06,4.55,4.55,0,0,0,.24,1.53,3.57,3.57,0,0,0,.62,1.13h6V28h-7.65v0a4.61,4.61,0,0,0,.19,1.31,8.47,8.47,0,0,0,.77,1.66l-2.44,1.14A9.31,9.31,0,0,1,163.66,29.76Z"/><path class="cls-1" d="M179.54,12.4V28h-3.09V12.4Z"/><path class="cls-1" d="M187.6,24.89V22.28a3.35,3.35,0,0,0-.11-.9,1.87,1.87,0,0,0-.34-.66,1.37,1.37,0,0,0-.57-.45,2,2,0,0,0-.82-.17H184.4V17h1.1a7,7,0,0,1,2.3.35,4.38,4.38,0,0,1,1.74,1.12,3.8,3.8,0,0,1,.9,1.71,9,9,0,0,1,.25,2.2v2.5h2V28H181.1V24.89Z"/><path class="cls-1" d="M196,24.89V28h-4.16V24.89Z"/><path class="cls-1" d="M199.31,24.89V28h-4.15V24.89Z"/><path class="cls-1" d="M202.61,24.89V28h-4.15V24.89Z"/><path class="cls-1" d="M204.06,24.89V17h3.09V28h-5.4V24.89Zm.35,6.64a1.62,1.62,0,0,1,0-2.4,2,2,0,0,1,2.51,0,1.49,1.49,0,0,1,.51,1.18,1.46,1.46,0,0,1-.54,1.22,2.05,2.05,0,0,1-2.46,0Z"/><path class="cls-1" d="M214.35,24.89a3.8,3.8,0,0,0,1.1-.15,2.48,2.48,0,0,0,.86-.43,1.9,1.9,0,0,0,.5-.7,2.5,2.5,0,0,0,.19-1.05V11h4.3v3.09h-1.21v8.36a7.42,7.42,0,0,1-.36,2.3,4.41,4.41,0,0,1-1.11,1.81,4.91,4.91,0,0,1-2.06,1.08,10.88,10.88,0,0,1-2.75.32h-4.67l-.37-3.09ZM211.07,32a2.42,2.42,0,0,1-.7-2v-1.1h4.36v1.88h-2.39a.51.51,0,0,0,.16.28.85.85,0,0,0,.61.17h1v1.32H213A2.83,2.83,0,0,1,211.07,32Zm3.47-17.84V24.44h-3.09V14.15Z"/><path class="cls-1" d="M227.18,12.4V28h-3.09V12.4Z"/><path class="cls-1" d="M237.94,30.24a9.09,9.09,0,0,1-1.35-.21,7.42,7.42,0,0,1-1.18-.39c-.37-.17-.84-.4-1.39-.71l1.24-2.74a8.17,8.17,0,0,0,1.9.83,6.86,6.86,0,0,0,1.66.2h3.39v-5a6.58,6.58,0,0,1,.4-2.41,4,4,0,0,1,1.29-1.74,4.57,4.57,0,0,1,1.64-.8,8.39,8.39,0,0,1,2.07-.25h3.76V28h-3.09V20.1h-.95a3.18,3.18,0,0,0-.8.1,1.41,1.41,0,0,0-1.06,1,2.18,2.18,0,0,0-.17.87v8.27h-5.64C239,30.31,238.43,30.28,237.94,30.24Zm.1-8.36a1.44,1.44,0,0,1-.54-1.22,1.49,1.49,0,0,1,.51-1.17,2,2,0,0,1,2.51,0,1.49,1.49,0,0,1,.51,1.17,1.44,1.44,0,0,1-.54,1.22,1.92,1.92,0,0,1-1.22.42A2,2,0,0,1,238,21.88Zm0,3.95a1.46,1.46,0,0,1-.54-1.22,1.47,1.47,0,0,1,.51-1.17,2,2,0,0,1,2.51,0,1.47,1.47,0,0,1,.51,1.17,1.46,1.46,0,0,1-.54,1.22,1.92,1.92,0,0,1-1.22.42A2,2,0,0,1,238,25.83Z"/><path class="cls-1" d="M253.55,32a4,4,0,0,1-.78-.18l-.23-3.11c.45.11.76.18.94.21a5.07,5.07,0,0,0,.55,0,1,1,0,0,0,.9-.34,2.17,2.17,0,0,0,.26-1.24V17h3.09V27a10.32,10.32,0,0,1-.22,2.23,3.93,3.93,0,0,1-.7,1.59,2.82,2.82,0,0,1-1.24.93,5,5,0,0,1-1.81.29A6.34,6.34,0,0,1,253.55,32Z"/><path class="cls-1" d="M265.48,24.89a3.85,3.85,0,0,0,1.1-.15,2.43,2.43,0,0,0,.85-.43,1.92,1.92,0,0,0,.51-.7,2.67,2.67,0,0,0,.18-1.05V11h4.3v3.09h-1.21v8.36a7,7,0,0,1-.18,1.64,3.49,3.49,0,0,0,2.66.78V28a6.54,6.54,0,0,1-1.75-.18,4.25,4.25,0,0,1-1.05-.45,2.7,2.7,0,0,1-.7-.63c-.17-.23-.26-.34-.26-.32a1.65,1.65,0,0,1-.19.18,4.87,4.87,0,0,1-2.05,1.08,10.88,10.88,0,0,1-2.75.32h-4.67l-.37-3.09Zm.19-10.74V24.44h-3.09V14.15Z"/><path class="cls-1" d="M277,24.89V28h-4.15V24.89Z"/><path class="cls-1" d="M280.28,24.89V28h-4.15V24.89Z"/><path class="cls-1" d="M283.58,24.89V28h-4.15V24.89Z"/><path class="cls-1" d="M286.87,24.89V28h-4.15V24.89Z"/><path class="cls-1" d="M290.17,24.89V28H286V24.89Z"/><path class="cls-1" d="M293.46,24.89V28h-4.15V24.89Z"/><path class="cls-1" d="M296.76,24.89V28h-4.15V24.89Z"/><path class="cls-1" d="M300.05,24.89V28H295.9V24.89Z"/><path class="cls-1" d="M303.35,24.89V28H299.2V24.89Z"/><path class="cls-1" d="M306.65,24.89V28h-4.16V24.89Z"/><path class="cls-1" d="M308,24.89a4,4,0,0,1-.4-.88,4.33,4.33,0,0,1-.25-1.52,5.43,5.43,0,0,1,.47-2.3,5,5,0,0,1,1.34-1.73,5.87,5.87,0,0,1,2.06-1.08,8.75,8.75,0,0,1,2.63-.37h3.31V28H305.79V24.89Zm1.88-9.38a1.46,1.46,0,0,1-.5-1.18,1.41,1.41,0,0,1,.49-1.13,1.89,1.89,0,0,1,2.4,0,1.41,1.41,0,0,1,.5,1.13,1.44,1.44,0,0,1-.51,1.18,1.83,1.83,0,0,1-1.19.41A1.85,1.85,0,0,1,309.92,15.51Zm.91,8.39a3.07,3.07,0,0,0,.9,1h2.38V20.1h-.86a3.68,3.68,0,0,0-1,.16,2.78,2.78,0,0,0-.89.46,2.34,2.34,0,0,0-.62.74,2.26,2.26,0,0,0-.23,1A2.83,2.83,0,0,0,310.83,23.9ZM314,15.51a1.46,1.46,0,0,1-.5-1.18A1.41,1.41,0,0,1,314,13.2a1.75,1.75,0,0,1,1.2-.43,1.72,1.72,0,0,1,1.21.43,1.58,1.58,0,0,1,0,2.31,1.83,1.83,0,0,1-1.19.41A1.85,1.85,0,0,1,314,15.51Z"/><path class="cls-1" d="M4.73,48.94a7.34,7.34,0,0,1-2.54-1.69A7.65,7.65,0,0,1,.57,44.69a9.18,9.18,0,0,1,0-6.37,7.65,7.65,0,0,1,1.62-2.56,7.21,7.21,0,0,1,2.54-1.69,8.63,8.63,0,0,1,3.33-.61,13.36,13.36,0,0,1,3.16.36,9.53,9.53,0,0,1,2.65,1.09l-1.21,2.81a8.19,8.19,0,0,0-2.11-.93,9.41,9.41,0,0,0-2.38-.29,6,6,0,0,0-1.86.29,4.15,4.15,0,0,0-1.53.93,4.27,4.27,0,0,0-1.06,1.56,6.54,6.54,0,0,0,0,4.45A4.49,4.49,0,0,0,4.78,45.3a4.15,4.15,0,0,0,1.53.93,5.71,5.71,0,0,0,1.86.3,7.51,7.51,0,0,0,1.56-.16A5.79,5.79,0,0,0,11,46V43.64H7.65v-3h6.54v7.43a7.67,7.67,0,0,1-1.41.69,12,12,0,0,1-1.54.43,14.4,14.4,0,0,1-1.62.27,12.11,12.11,0,0,1-1.56.1A8.82,8.82,0,0,1,4.73,48.94Z"/><path class="cls-1" d="M17.07,33.74h3.09V49.32H17.07Z"/><path class="cls-1" d="M25.39,49.35a5.45,5.45,0,0,1-1.66-.62,3.36,3.36,0,0,1-1.16-1.15,3.24,3.24,0,0,1-.45-1.76,3.41,3.41,0,0,1,.39-1.65A3.28,3.28,0,0,1,23.59,43a4.78,4.78,0,0,1,1.62-.71,8.13,8.13,0,0,1,2-.24l1,0a9,9,0,0,1,1,.11,1.19,1.19,0,0,0-.69-.91,3.88,3.88,0,0,0-1.6-.27,5.5,5.5,0,0,0-.86.08c-.31,0-.63.11-1,.19a9.34,9.34,0,0,0-.94.29c-.3.11-.72.29-1.24.54l.41-3.24a8.93,8.93,0,0,1,1.79-.61A9.17,9.17,0,0,1,27.22,38a7.48,7.48,0,0,1,1.94.23,4.19,4.19,0,0,1,1.56.75,3.43,3.43,0,0,1,1,1.37,5,5,0,0,1,.38,2v6.27a12.11,12.11,0,0,1-2.4.68,14.12,14.12,0,0,1-2.41.22A9.45,9.45,0,0,1,25.39,49.35Zm3-4.73a7,7,0,0,0-.88-.06,6.37,6.37,0,0,0-.9.06,2.92,2.92,0,0,0-.7.2,1.06,1.06,0,0,0-.45.33.88.88,0,0,0,.42,1.32,3.83,3.83,0,0,0,1.48.25,6.19,6.19,0,0,0,.95-.08,5.39,5.39,0,0,0,.72-.15V44.72Z"/><path class="cls-1" d="M39.3,41.17h-.42l-.59,0-.86.11q-.54.07.12-.15v8.15H34.46V38.67l1.25-.21c.37-.06.74-.1,1.11-.14l1.07-.09c.35,0,.66,0,.93,0H41v3Z"/><path class="cls-1" d="M43.72,50.16q.47.14,1,.24a8.26,8.26,0,0,0,1,.17,6.62,6.62,0,0,0,.84.06,5.4,5.4,0,0,0,1-.1,2.51,2.51,0,0,0,.8-.29,1.45,1.45,0,0,0,.49-.46l.17-.27.11-.34a9.38,9.38,0,0,1-2,.19,8.72,8.72,0,0,1-1.9-.2,3.64,3.64,0,0,1-1.54-.71,3.46,3.46,0,0,1-1-1.41,6.15,6.15,0,0,1-.35-2.22V38.34h3.11v5.73a5,5,0,0,0,.11,1.13,1.72,1.72,0,0,0,.32.68,1.1,1.1,0,0,0,.55.34,2.9,2.9,0,0,0,.84.11,6.58,6.58,0,0,0,.87-.06A5.33,5.33,0,0,0,49,46.1V38.34h3.09v9.94a9.33,9.33,0,0,1-.28,2.43,3.44,3.44,0,0,1-1,1.63,4,4,0,0,1-1.77.9,11.24,11.24,0,0,1-2.68.27,6.7,6.7,0,0,1-.74,0,7.6,7.6,0,0,1-.8-.1q-.42-.06-.81-.15a7.08,7.08,0,0,1-.87-.23l-.69-3.31A11.33,11.33,0,0,0,43.72,50.16Z"/><path class="cls-1" d="M65.82,36.79a4.11,4.11,0,0,0-1.54.93,4.38,4.38,0,0,0-1.05,1.56,6.54,6.54,0,0,0,0,4.45,4.61,4.61,0,0,0,1.05,1.57,4.11,4.11,0,0,0,1.54.93,5.67,5.67,0,0,0,1.86.3,6.45,6.45,0,0,0,2-.3,8.74,8.74,0,0,0,2-.95l1.23,2.83a8.93,8.93,0,0,1-2.5,1.08,10.69,10.69,0,0,1-2.8.36,8.91,8.91,0,0,1-3.34-.61,7.34,7.34,0,0,1-2.54-1.69,7.65,7.65,0,0,1-1.62-2.56,9.18,9.18,0,0,1,0-6.37,7.65,7.65,0,0,1,1.62-2.56,7.21,7.21,0,0,1,2.54-1.69,8.72,8.72,0,0,1,3.34-.61,10.69,10.69,0,0,1,2.8.36,9.93,9.93,0,0,1,2.5,1.09l-1.23,2.81a9,9,0,0,0-2-.93,6.83,6.83,0,0,0-2-.29A5.94,5.94,0,0,0,65.82,36.79Z"/><path class="cls-1" d="M79.05,41.17h-.42l-.59,0-.86.11q-.54.07.12-.15v8.15H74.21V38.67l1.25-.21c.37-.06.74-.1,1.11-.14l1.07-.09c.35,0,.66,0,.93,0h2.22v3Z"/><path class="cls-1" d="M88.65,46.44a7.35,7.35,0,0,0,.84-.19,3.69,3.69,0,0,0,.73-.27,3.36,3.36,0,0,0,.75-.57l1.39,2.83a10.75,10.75,0,0,1-2.18.95,9,9,0,0,1-2.71.36,6.38,6.38,0,0,1-2.38-.44,5.87,5.87,0,0,1-1.91-1.21,5.55,5.55,0,0,1-1.26-1.83,5.85,5.85,0,0,1-.45-2.29,5.91,5.91,0,0,1,.46-2.33,5.61,5.61,0,0,1,1.25-1.84A5.86,5.86,0,0,1,85,38.41,6.05,6.05,0,0,1,87.28,38a5.9,5.9,0,0,1,2.33.44,5,5,0,0,1,1.82,1.31,5.92,5.92,0,0,1,1.17,2.11,9.07,9.07,0,0,1,.34,3H84.71A1.87,1.87,0,0,0,85.63,46a3.58,3.58,0,0,0,1.91.47h.28A4.89,4.89,0,0,0,88.65,46.44ZM85.6,41.28a2,2,0,0,0-.79.95h4.86a1.75,1.75,0,0,0-.79-1,2.87,2.87,0,0,0-1.63-.43A2.61,2.61,0,0,0,85.6,41.28Z"/><path class="cls-1" d="M97.37,49.35a5.45,5.45,0,0,1-1.66-.62,3.48,3.48,0,0,1-1.17-1.15,3.33,3.33,0,0,1-.44-1.76,3.41,3.41,0,0,1,.39-1.65A3.28,3.28,0,0,1,95.57,43a4.78,4.78,0,0,1,1.62-.71,8.13,8.13,0,0,1,2-.24l1,0a9.26,9.26,0,0,1,1,.11,1.19,1.19,0,0,0-.69-.91,3.88,3.88,0,0,0-1.6-.27,5.4,5.4,0,0,0-.86.08c-.31,0-.63.11-.95.19a9.34,9.34,0,0,0-.94.29c-.3.11-.72.29-1.24.54l.41-3.24a8.93,8.93,0,0,1,1.79-.61A9.17,9.17,0,0,1,99.2,38a7.53,7.53,0,0,1,1.94.23,4.19,4.19,0,0,1,1.56.75,3.43,3.43,0,0,1,1,1.37,5,5,0,0,1,.37,2v6.27a12,12,0,0,1-2.39.68,14.21,14.21,0,0,1-2.41.22A9.45,9.45,0,0,1,97.37,49.35Zm3-4.73a7.1,7.1,0,0,0-.88-.06,6.27,6.27,0,0,0-.9.06,2.92,2.92,0,0,0-.7.2,1.06,1.06,0,0,0-.45.33.88.88,0,0,0,.42,1.32,3.83,3.83,0,0,0,1.48.25,6.3,6.3,0,0,0,1-.08,5.39,5.39,0,0,0,.72-.15V44.72Z"/><path class="cls-1" d="M107.28,38.36V34.52h3.09v3.84h4v2.9h-4v3.56a3.56,3.56,0,0,0,.08.81,1,1,0,0,0,.25.46,1.07,1.07,0,0,0,.49.24,3,3,0,0,0,.8.09h2.44v2.9h-2.72a10.18,10.18,0,0,1-1.95-.17,3.46,3.46,0,0,1-1.39-.61,2.4,2.4,0,0,1-.83-1.12,4.8,4.8,0,0,1-.26-1.67V41.26h-2v-2.9Z"/><path class="cls-1" d="M116.61,36.78a1.43,1.43,0,0,1-.54-1.22,1.49,1.49,0,0,1,.51-1.17,1.83,1.83,0,0,1,1.26-.44,1.78,1.78,0,0,1,1.24.44,1.49,1.49,0,0,1,.51,1.17,1.55,1.55,0,0,1-.5,1.2,1.82,1.82,0,0,1-1.25.44A2,2,0,0,1,116.61,36.78Zm2.77,1.58v11h-3.09v-11Z"/><path class="cls-1" d="M120.48,38.36h3.24l2.49,7.48,2.5-7.48H132l-3.78,11h-3.91Z"/><path class="cls-1" d="M133.38,36.78a1.43,1.43,0,0,1-.54-1.22,1.49,1.49,0,0,1,.51-1.17,1.85,1.85,0,0,1,1.26-.44,1.8,1.8,0,0,1,1.25.44,1.51,1.51,0,0,1,.5,1.17,1.54,1.54,0,0,1-.49,1.2,1.84,1.84,0,0,1-1.26.44A2,2,0,0,1,133.38,36.78Zm2.78,1.58v11h-3.09v-11Z"/><path class="cls-1" d="M139.51,38.36V34.52h3.09v3.84h4v2.9h-4v3.56a3.56,3.56,0,0,0,.08.81,1,1,0,0,0,.25.46,1.07,1.07,0,0,0,.49.24,3,3,0,0,0,.8.09h2.44v2.9h-2.72a10.1,10.1,0,0,1-1.95-.17,3.46,3.46,0,0,1-1.39-.61,2.4,2.4,0,0,1-.83-1.12,4.8,4.8,0,0,1-.26-1.67V41.26h-2v-2.9Z"/><path class="cls-1" d="M149.62,50.16q.47.14,1,.24a8.66,8.66,0,0,0,.95.17,6.88,6.88,0,0,0,.84.06,5.4,5.4,0,0,0,1-.1,2.43,2.43,0,0,0,.8-.29,1.45,1.45,0,0,0,.49-.46l.17-.27.11-.34a9.38,9.38,0,0,1-2,.19,8.79,8.79,0,0,1-1.9-.2,3.64,3.64,0,0,1-1.54-.71,3.35,3.35,0,0,1-1-1.41,5.93,5.93,0,0,1-.36-2.22V38.34h3.11v5.73a5,5,0,0,0,.11,1.13,1.72,1.72,0,0,0,.32.68,1.1,1.1,0,0,0,.55.34,2.9,2.9,0,0,0,.84.11,6.58,6.58,0,0,0,.87-.06,5.33,5.33,0,0,0,.85-.17V38.34H158v9.94a8.92,8.92,0,0,1-.28,2.43,3.44,3.44,0,0,1-1,1.63,4,4,0,0,1-1.77.9,11.24,11.24,0,0,1-2.68.27,6.41,6.41,0,0,1-.73,0,7.46,7.46,0,0,1-.81-.1q-.42-.06-.81-.15A7.08,7.08,0,0,1,149,53l-.69-3.31A12.12,12.12,0,0,0,149.62,50.16Z"/><path class="cls-1" d="M166.43,33.74h10.11v3h-6.95v3.11h6.28v3h-6.28v6.48h-3.16Z"/><path class="cls-1" d="M180.44,49.1a6.08,6.08,0,0,1-1.87-1.21,5.7,5.7,0,0,1-1.26-1.82,5.85,5.85,0,0,1-.45-2.29,5.73,5.73,0,0,1,.45-2.28,6.1,6.1,0,0,1,1.26-1.83,5.82,5.82,0,0,1,1.87-1.24,6.42,6.42,0,0,1,4.67,0,5.74,5.74,0,0,1,3.59,5.35,5.85,5.85,0,0,1-.46,2.29A5.4,5.4,0,0,1,187,47.89a6.2,6.2,0,0,1-6.54,1.21Zm3.46-2.8a2.84,2.84,0,0,0,.85-.58,2.29,2.29,0,0,0,.54-.87,3.14,3.14,0,0,0,0-2.15,2.29,2.29,0,0,0-.54-.87,2.87,2.87,0,0,0-.85-.59,2.67,2.67,0,0,0-1.12-.22,2.71,2.71,0,0,0-1.13.22,2.87,2.87,0,0,0-.85.59,2.56,2.56,0,0,0-.54.87,3.3,3.3,0,0,0,0,2.15,2.56,2.56,0,0,0,.54.87,2.84,2.84,0,0,0,.85.58,2.88,2.88,0,0,0,1.13.21A2.83,2.83,0,0,0,183.9,46.3Z"/><path class="cls-1" d="M195.18,41.17h-.43l-.59,0-.85.11q-.56.07.12-.15v8.15h-3.09V38.67l1.24-.21c.38-.06.74-.1,1.11-.14l1.07-.09c.35,0,.66,0,.93,0h2.22v3Z"/><path class="cls-1" d="M214.45,49.32l-1.29-3.55h-5.92L206,49.32h-3.34l5.77-15.58H212l5.77,15.58Zm-2.35-6.55-1.9-5.31-1.9,5.31Z"/><path class="cls-1" d="M228.8,33.74V49a16.53,16.53,0,0,1-4.45.6,7.71,7.71,0,0,1-2.67-.44,5.93,5.93,0,0,1-2-1.21,5.17,5.17,0,0,1-1.26-1.83,6.09,6.09,0,0,1-.43-2.28,5.9,5.9,0,0,1,.44-2.28,5.4,5.4,0,0,1,1.26-1.84,5.86,5.86,0,0,1,1.95-1.24,6.81,6.81,0,0,1,2.52-.44l.83,0,.73.08V33.74ZM222,45.86a3.68,3.68,0,0,0,2.3.65,6.48,6.48,0,0,0,1.38-.15V41.19a4.92,4.92,0,0,0-.66-.12,6.09,6.09,0,0,0-.72,0,3.57,3.57,0,0,0-2.29.68,2.52,2.52,0,0,0-.83,2.09A2.46,2.46,0,0,0,222,45.86Z"/><path class="cls-1" d="M229.92,38.36h3.24l2.49,7.48,2.5-7.48h3.24l-3.78,11H233.7Z"/><path class="cls-1" d="M248.6,46.44a7.35,7.35,0,0,0,.84-.19,3.69,3.69,0,0,0,.73-.27,3.15,3.15,0,0,0,.75-.57l1.4,2.83a11.08,11.08,0,0,1-2.19.95,8.94,8.94,0,0,1-2.71.36,6.38,6.38,0,0,1-2.38-.44,6,6,0,0,1-1.91-1.21,5.55,5.55,0,0,1-1.26-1.83,5.84,5.84,0,0,1-.44-2.29,5.9,5.9,0,0,1,.45-2.33,5.77,5.77,0,0,1,1.25-1.84,5.86,5.86,0,0,1,1.84-1.2,6.05,6.05,0,0,1,2.26-.42,5.9,5.9,0,0,1,2.33.44,5.09,5.09,0,0,1,1.83,1.31,6.06,6.06,0,0,1,1.16,2.11,8.82,8.82,0,0,1,.34,3h-8.23a1.87,1.87,0,0,0,.92,1.17,3.64,3.64,0,0,0,1.92.47h.27A4.81,4.81,0,0,0,248.6,46.44Zm-3-5.16a2.09,2.09,0,0,0-.79.95h4.86a1.77,1.77,0,0,0-.78-1,2.9,2.9,0,0,0-1.64-.43A2.61,2.61,0,0,0,245.55,41.28Z"/><path class="cls-1" d="M259.28,41.17h-.43l-.58,0-.86.11q-.56.07.12-.15v8.15h-3.09V38.67l1.25-.21c.37-.06.74-.1,1.1-.14l1.08-.09c.34,0,.65,0,.93,0H261v3Z"/><path class="cls-1" d="M263.43,38.36V34.52h3.09v3.84h4v2.9h-4v3.56a3,3,0,0,0,.09.81.92.92,0,0,0,.25.46,1,1,0,0,0,.48.24,3,3,0,0,0,.8.09h2.44v2.9h-2.72a10,10,0,0,1-1.94-.17,3.51,3.51,0,0,1-1.4-.61,2.47,2.47,0,0,1-.83-1.12,4.8,4.8,0,0,1-.26-1.67V41.26h-2v-2.9Z"/><path class="cls-1" d="M272.76,36.78a1.43,1.43,0,0,1-.54-1.22,1.49,1.49,0,0,1,.51-1.17A1.83,1.83,0,0,1,274,34a1.8,1.8,0,0,1,1.25.44,1.51,1.51,0,0,1,.5,1.17,1.57,1.57,0,0,1-.49,1.2,1.84,1.84,0,0,1-1.26.44A2,2,0,0,1,272.76,36.78Zm2.77,1.58v11h-3.09v-11Z"/><path class="cls-1" d="M283.53,46.36c.32-.1.48-.24.48-.43a.53.53,0,0,0-.29-.45,4.66,4.66,0,0,0-1.24-.37l-.84-.14a7,7,0,0,1-2.92-1.19,2.77,2.77,0,0,1-1.08-2.31,3,3,0,0,1,1.25-2.54,5.44,5.44,0,0,1,3.37-.94,11.8,11.8,0,0,1,2.46.25,8.13,8.13,0,0,1,2.28.84L285.89,42a8,8,0,0,0-1-.45c-.29-.1-.59-.18-.9-.26a7.53,7.53,0,0,0-1-.16,7.43,7.43,0,0,0-.91-.06c-.93,0-1.4.15-1.4.45s.1.28.3.41a4.16,4.16,0,0,0,1.23.35l.82.15a6.81,6.81,0,0,1,3.2,1.3,3.06,3.06,0,0,1,1,2.4,3,3,0,0,1-.33,1.39,3.17,3.17,0,0,1-1,1.11,4.55,4.55,0,0,1-1.57.71,8.33,8.33,0,0,1-2.17.26,11.2,11.2,0,0,1-1.3-.08q-.66-.07-1.29-.21a10.51,10.51,0,0,1-1.2-.35,7.16,7.16,0,0,1-1.2-.57l1.17-3a7.14,7.14,0,0,0,1.9.9,6.7,6.7,0,0,0,2,.29A4.23,4.23,0,0,0,283.53,46.36Z"/><path class="cls-1" d="M289.52,36.78a1.43,1.43,0,0,1-.54-1.22,1.49,1.49,0,0,1,.51-1.17,1.83,1.83,0,0,1,1.26-.44,1.78,1.78,0,0,1,1.24.44,1.49,1.49,0,0,1,.51,1.17,1.55,1.55,0,0,1-.5,1.2,1.82,1.82,0,0,1-1.25.44A2,2,0,0,1,289.52,36.78Zm2.77,1.58v11H289.2v-11Z"/><path class="cls-1" d="M296.28,38.31c.43-.07.86-.12,1.28-.17l1.19-.11c.37,0,.71,0,1,0a9.32,9.32,0,0,1,1.94.19,4,4,0,0,1,1.62.72,3.53,3.53,0,0,1,1.11,1.4,5.35,5.35,0,0,1,.41,2.23v6.79h-3.09v-6a2.33,2.33,0,0,0-.52-1.78,2.28,2.28,0,0,0-1.58-.47,7.56,7.56,0,0,0-.91.06c-.33,0-.61.07-.84.11v8.13h-3.1V38.56Z"/><path class="cls-1" d="M306.7,41.38A5,5,0,0,1,308,39.6a5.89,5.89,0,0,1,2-1.19,8,8,0,0,1,2.67-.42,16,16,0,0,1,4.45.61v9.68a8.92,8.92,0,0,1-.28,2.43,3.37,3.37,0,0,1-1,1.63,4,4,0,0,1-1.77.9,11.24,11.24,0,0,1-2.68.27,6.53,6.53,0,0,1-.73,0,7.46,7.46,0,0,1-.81-.1q-.41-.06-.81-.15a7.08,7.08,0,0,1-.87-.23l-.68-3.31a11.32,11.32,0,0,0,1.26.48q.47.14,1,.24a8.83,8.83,0,0,0,1,.17,6.62,6.62,0,0,0,.84.06,5.48,5.48,0,0,0,1-.1,2.45,2.45,0,0,0,.79-.29,1.36,1.36,0,0,0,.49-.46,1.16,1.16,0,0,0,.17-.66v.05a4.79,4.79,0,0,1-.73.09c-.32,0-.6,0-.83,0a7,7,0,0,1-2.52-.43A6.08,6.08,0,0,1,308,47.66a5.11,5.11,0,0,1-1.26-1.79,5.74,5.74,0,0,1-.44-2.24A5.93,5.93,0,0,1,306.7,41.38Zm6.68-.29a4.13,4.13,0,0,0-.76-.07,3.81,3.81,0,0,0-2.3.62,2.81,2.81,0,0,0,0,4,3.68,3.68,0,0,0,2.3.64,6.09,6.09,0,0,0,.72,0c.25,0,.47-.06.66-.1V41.19Z"/><path class="cls-1" d="M359.53,0a33.21,33.21,0,1,0,33.89,32.52A33.21,33.21,0,0,0,359.53,0ZM379.4,51.64A26.6,26.6,0,0,1,341,14.79a26.89,26.89,0,0,1,8.34-5.87,26.45,26.45,0,0,1,10.31-2.31,26.88,26.88,0,0,1,10.39,1.88q1.13.45,2.19,1a.53.53,0,0,0-.15-.05,1.38,1.38,0,0,0-.27-.08,3.48,3.48,0,0,1,.87.41h0a2.83,2.83,0,0,0,.28.2l.15.14c.05.05.09.11.15.16a2.55,2.55,0,0,0,.23.24l0,0s0,0,0,0,0,0,0,0l.23.33a.8.8,0,0,0,.09.14.87.87,0,0,1,.1.19v0a1.88,1.88,0,0,1,.12.3.11.11,0,0,1,0,.08.83.83,0,0,1,0,.15.19.19,0,0,1,0,.08.07.07,0,0,1,0,.06v0c0,.11,0,.23.06.35a.35.35,0,0,1,0,.18.09.09,0,0,1,0,.09v.09a4.6,4.6,0,0,1-.05.64s0,0,0,0a5.6,5.6,0,0,1-.21.73.11.11,0,0,1,0,.07,2.47,2.47,0,0,1-.19.36.5.5,0,0,1-.08.14h0a1.53,1.53,0,0,1-.16.22l0,.07a1,1,0,0,1-.13.16.41.41,0,0,1-.11.12l-.19.18s-.05.05-.07.07h0a3.23,3.23,0,0,1-.83.52h0a2.85,2.85,0,0,1-.31.12c-.15,0-.31.09-.48.12h-.09l-.3,0h-.18l-.47,0a.18.18,0,0,0-.1,0,1.89,1.89,0,0,1-.44-.1l-.09,0-.16,0a.94.94,0,0,0-.15-.06h0l-.08,0a1.65,1.65,0,0,1-.32-.18h0l-.37-.26a.65.65,0,0,0,.18.15.48.48,0,0,0,.17.12A19.42,19.42,0,1,0,377.83,25l-8.39,6.19-.66.48a3.94,3.94,0,0,1-.72.34c-1.17.42-2.38.75-3.57,1.16a.77.77,0,0,0-.46.51,5.7,5.7,0,0,1-.57,1.91,6.18,6.18,0,0,1-4,3,10.8,10.8,0,0,1-6.27-.15c-.36-.11-.88-.49-.9-.77a1.47,1.47,0,0,1,.66-1.07,5.28,5.28,0,0,0,2.23-3.4,5,5,0,0,1,3.08-3.75,3.93,3.93,0,0,1,1.76-.27,4.21,4.21,0,0,1,1.46.38,9,9,0,0,0,.79-1.05,8.92,8.92,0,0,1,2.23-2.63l.77-.58,8.34-6.15,5.85-4.32a26.69,26.69,0,0,1,4.2,5.82c.3.54.56,1.1.82,1.65a26.61,26.61,0,0,1-5.11,29.29ZM363,30.14a.77.77,0,0,0,.1.74c.27.35.69.91,1,.85a26.87,26.87,0,0,0,3.17-.93l-2.3-3.27C364.23,28.44,363.56,29.27,363,30.14Zm-3.36.53A3.15,3.15,0,0,0,356.83,33c-.1.34-.2.67-.31,1a7.8,7.8,0,0,1-2,3.34,10.07,10.07,0,0,0,4.41,0l.46-.15a6.29,6.29,0,0,0,2.16-1.42,2.67,2.67,0,0,0,.63-3.4A2.76,2.76,0,0,0,359.62,30.67Z"/></g></g></svg>