<svg xmlns="http://www.w3.org/2000/svg" viewBox="0 0 394.16 69.58"><defs><style>.cls-1{fill:#a6a8ab;}</style></defs><title>logo-3</title><g id="Layer_2" data-name="Layer 2"><g id="Layer_1-2" data-name="Layer 1"><path class="cls-1" d="M12.56,29.26H7.38a11,11,0,0,1-2.78-.34,6.06,6.06,0,0,1-2.19-1.07A5.14,5.14,0,0,1,1,26.05a6.2,6.2,0,0,1-.06-4.83A5.21,5.21,0,0,1,2.27,19.4a6.59,6.59,0,0,1,2.19-1.2,9.39,9.39,0,0,1,2.92-.43h.13v-1h3.25V26h1.8ZM3.36,15.43a1.48,1.48,0,0,1-.53-1.23A1.52,1.52,0,0,1,3.35,13a1.92,1.92,0,0,1,1.26-.44A1.92,1.92,0,0,1,5.88,13,1.52,1.52,0,0,1,6.4,14.2a1.48,1.48,0,0,1-.53,1.23,1.91,1.91,0,0,1-1.26.43A1.9,1.9,0,0,1,3.36,15.43ZM7.51,21h-.8a3.9,3.9,0,0,0-1.12.17,3.62,3.62,0,0,0-1,.5,2.66,2.66,0,0,0-.68.78,2.17,2.17,0,0,0-.26,1.07,2.32,2.32,0,0,0,.24,1.08,2.38,2.38,0,0,0,.64.77,2.73,2.73,0,0,0,.93.48A3.6,3.6,0,0,0,6.57,26h.94Zm.1-5.58a1.48,1.48,0,0,1-.53-1.23A1.49,1.49,0,0,1,7.6,13a1.92,1.92,0,0,1,1.26-.44,1.91,1.91,0,0,1,1.28.44,1.54,1.54,0,0,1,.5,1.19,1.48,1.48,0,0,1-.52,1.23,1.93,1.93,0,0,1-1.26.43A1.9,1.9,0,0,1,7.61,15.43Z"/><path class="cls-1" d="M15.78,26V17.77H19V26h3.61v3.24H11.68V26Zm-1.89,7a1.44,1.44,0,0,1-.54-1.22,1.49,1.49,0,0,1,.52-1.19,2,2,0,0,1,2.52,0,1.49,1.49,0,0,1,.52,1.19A1.44,1.44,0,0,1,16.37,33a2,2,0,0,1-1.24.42A1.94,1.94,0,0,1,13.89,33Zm4.24,0a1.46,1.46,0,0,1-.53-1.22,1.49,1.49,0,0,1,.52-1.19,2,2,0,0,1,2.53,0,1.51,1.51,0,0,1,.51,1.19A1.44,1.44,0,0,1,20.62,33a2,2,0,0,1-1.24.42A2,2,0,0,1,18.13,33Z"/><path class="cls-1" d="M26.09,26v3.24H21.73V26Z"/><path class="cls-1" d="M29.56,26v3.24H25.19V26Z"/><path class="cls-1" d="M33,26v3.24H28.66V26Z"/><path class="cls-1" d="M36.49,26v3.24H32.12V26Z"/><path class="cls-1" d="M40,26v3.24H35.59V26Z"/><path class="cls-1" d="M43.42,26v3.24H39.05V26Z"/><path class="cls-1" d="M46.88,26v3.24H42.52V26Z"/><path class="cls-1" d="M50.35,26v3.24H46V26Z"/><path class="cls-1" d="M51.88,26V17.77h3.25V29.26H49.45V26Zm.37,7a1.5,1.5,0,0,1-.57-1.27,1.54,1.54,0,0,1,.54-1.23,2.09,2.09,0,0,1,2.64,0,1.54,1.54,0,0,1,.54,1.23A1.5,1.5,0,0,1,54.83,33a2.11,2.11,0,0,1-2.58,0Z"/><path class="cls-1" d="M61.59,12.94V26h2.5v3.24H58.34V12.94Z"/><path class="cls-1" d="M67.56,26v3.24H63.19V26Z"/><path class="cls-1" d="M71,26v3.24H66.66V26Z"/><path class="cls-1" d="M74.49,26v3.24H70.12V26Z"/><path class="cls-1" d="M78,26v3.24H73.59V26Z"/><path class="cls-1" d="M85.24,26c.06-.28.12-.68.18-1.18a11.44,11.44,0,0,0,.09-1.35,3.78,3.78,0,0,0-.2-1.17,2.21,2.21,0,0,0-.68-1,3.11,3.11,0,0,0-2.13-.68,5.22,5.22,0,0,0-1.36.17,6.65,6.65,0,0,0-1.58.8l-1.37-2.84a11.81,11.81,0,0,1,2.28-1,8.06,8.06,0,0,1,2.36-.34,6.26,6.26,0,0,1,2.29.41A4.93,4.93,0,0,1,86.9,19a6.3,6.3,0,0,1,1.33,2,6.8,6.8,0,0,1,.51,2.72A11.78,11.78,0,0,1,88.67,25c0,.43-.09.76-.12,1h2v3.24H77.05V26Z"/><path class="cls-1" d="M94.09,26v3.24H89.72V26Z"/><path class="cls-1" d="M97.55,26v3.24H93.19V26Z"/><path class="cls-1" d="M101,26v3.24H96.65V26Z"/><path class="cls-1" d="M104.48,26v3.24h-4.36V26Z"/><path class="cls-1" d="M108,26v3.24h-4.37V26Z"/><path class="cls-1" d="M122.5,25.62a2.19,2.19,0,0,0,1.62.6,2,2,0,0,0,1.58-.59,2.38,2.38,0,0,0,.51-1.62v-7.6h3.23v7.25c0,.33,0,.63,0,.92s-.06.52-.08.7a3.77,3.77,0,0,0,2.72.74v3.24a7.7,7.7,0,0,1-1.71-.15,3.66,3.66,0,0,1-1.06-.4,3.12,3.12,0,0,1-.74-.56l-.27-.3c-.72,1.07-2.1,1.6-4.15,1.6a9.2,9.2,0,0,1-1.17-.08,4.42,4.42,0,0,1-1.11-.33,4.18,4.18,0,0,1-1-.61,2.68,2.68,0,0,1-.65-.69,4.77,4.77,0,0,1-1.61,1.05,5.55,5.55,0,0,1-2.24.47h-9.26V26h4.27V18.75h3.24V26h1.75a3.32,3.32,0,0,0,.81-.1,1.89,1.89,0,0,0,.76-.35,1.77,1.77,0,0,0,.55-.66,2.34,2.34,0,0,0,.21-1.07V18.75h3.25v5A2.64,2.64,0,0,0,122.5,25.62Z"/><path class="cls-1" d="M133.05,26V12.94h4.52v3.23H136.3V29.26h-5.17V26Z"/><path class="cls-1" d="M143.64,12.94V29.26h-3.25V12.94Z"/><path class="cls-1" d="M155.73,28.92a6.06,6.06,0,0,1-2.19-1.07,5,5,0,0,1-1.46-1.8,6.09,6.09,0,0,1-.06-4.83,5.06,5.06,0,0,1,1.37-1.82,6.59,6.59,0,0,1,2.19-1.2,9.48,9.48,0,0,1,2.92-.43h.14v-1h3.25V29.26H158.5A11,11,0,0,1,155.73,28.92Zm-1.24-13.49A1.46,1.46,0,0,1,154,14.2a1.49,1.49,0,0,1,.52-1.19A2,2,0,0,1,157,13a1.49,1.49,0,0,1,.52,1.19,1.46,1.46,0,0,1-.53,1.23,2,2,0,0,1-2.5,0ZM158.64,21h-.81a3.83,3.83,0,0,0-1.11.17,3.48,3.48,0,0,0-1,.5,2.7,2.7,0,0,0-.69.78,2.28,2.28,0,0,0-.25,1.07,2.32,2.32,0,0,0,.24,1.08,2.23,2.23,0,0,0,.63.77,2.93,2.93,0,0,0,.93.48,3.66,3.66,0,0,0,1.1.16h.94Zm.1-5.58a1.46,1.46,0,0,1-.53-1.23,1.49,1.49,0,0,1,.52-1.19,2,2,0,0,1,2.53,0,1.51,1.51,0,0,1,.51,1.19,1.48,1.48,0,0,1-.53,1.23,2,2,0,0,1-2.5,0Z"/><path class="cls-1" d="M164.1,33.5a3.85,3.85,0,0,1-.82-.19L163,30.06a8.19,8.19,0,0,0,1,.21,3.69,3.69,0,0,0,.58,0,1.11,1.11,0,0,0,.95-.36,2.28,2.28,0,0,0,.26-1.3V17.77h3.25V28.26a10.69,10.69,0,0,1-.22,2.34,4.16,4.16,0,0,1-.74,1.66,2.94,2.94,0,0,1-1.31,1,5.18,5.18,0,0,1-1.9.31A7,7,0,0,1,164.1,33.5Z"/><path class="cls-1" d="M175.53,12.94V29.26h-3.24V12.94Z"/><path class="cls-1" d="M184,26V23.29a3.25,3.25,0,0,0-.12-.94,1.85,1.85,0,0,0-.35-.7,1.52,1.52,0,0,0-.6-.47,2.25,2.25,0,0,0-.87-.17h-1.42V17.77h1.15a7.47,7.47,0,0,1,2.42.36,4.59,4.59,0,0,1,1.83,1.18A3.92,3.92,0,0,1,187,21.1a9.9,9.9,0,0,1,.26,2.31v5.85H177.18V26Z"/><path class="cls-1" d="M194.66,26a4.28,4.28,0,0,0,1.16-.15,2.92,2.92,0,0,0,.9-.45,2.18,2.18,0,0,0,.53-.73,2.76,2.76,0,0,0,.19-1.11V11.49H202v3.24h-1.27v8.76a7.05,7.05,0,0,1-.19,1.71,3.65,3.65,0,0,0,2.8.82v3.24a6.71,6.71,0,0,1-1.84-.19,4.21,4.21,0,0,1-1.11-.47,2.78,2.78,0,0,1-.73-.66,3.77,3.77,0,0,0-.28-.34s0,0-.2.2A5.2,5.2,0,0,1,197,28.93a11.43,11.43,0,0,1-2.89.33h-4.91L188.79,26Zm-3.45,7.64a2.56,2.56,0,0,1-.74-2.06V30.45h4.58v2h-2.5a.47.47,0,0,0,.16.29.89.89,0,0,0,.64.18h1.08v1.38h-1.24A3,3,0,0,1,191.21,33.66Zm3.65-18.89V25.55h-3.25V14.77Z"/><path class="cls-1" d="M204.32,26V12.94h4.52v3.23h-1.27V29.26H202.4V26Z"/><path class="cls-1" d="M216,31.12a9.08,9.08,0,0,1-.43-2.88,11.14,11.14,0,0,1,.22-2.22h1.27a10.2,10.2,0,0,1-.41-1.18,6.26,6.26,0,0,1-.25-1.82,5.53,5.53,0,0,1,.57-2.57,6.1,6.1,0,0,1,1.48-1.84,5.1,5.1,0,0,1,1.67-.91,6.82,6.82,0,0,1,2.05-.3,7.87,7.87,0,0,1,2.15.29,12.66,12.66,0,0,1,2.24.92l-1.1,3a8.71,8.71,0,0,0-1.59-.73,4.63,4.63,0,0,0-1.37-.23,3,3,0,0,0-2,.6,2.36,2.36,0,0,0-.67.91,3,3,0,0,0-.19,1.1,4.73,4.73,0,0,0,.25,1.61,3.59,3.59,0,0,0,.65,1.18h6.34v3.24h-8.05v0a4.7,4.7,0,0,0,.21,1.37,8.48,8.48,0,0,0,.81,1.75l-2.57,1.19A10,10,0,0,1,216,31.12Z"/><path class="cls-1" d="M232.72,12.94V29.26h-3.25V12.94Z"/><path class="cls-1" d="M241.2,26V23.29a3.25,3.25,0,0,0-.12-.94,1.85,1.85,0,0,0-.35-.7,1.49,1.49,0,0,0-.61-.47,2.16,2.16,0,0,0-.86-.17h-1.43V17.77H239a7.47,7.47,0,0,1,2.42.36,4.66,4.66,0,0,1,1.83,1.18,4,4,0,0,1,.95,1.79,9.9,9.9,0,0,1,.26,2.31V26h2.12v3.24h-12.2V26Z"/><path class="cls-1" d="M250.05,26v3.24h-4.37V26Z"/><path class="cls-1" d="M253.52,26v3.24h-4.37V26Z"/><path class="cls-1" d="M257,26v3.24h-4.36V26Z"/><path class="cls-1" d="M260.45,26v3.24h-4.37V26Z"/><path class="cls-1" d="M263.91,26v3.24h-4.36V26Z"/><path class="cls-1" d="M267.38,26v3.24H263V26Z"/><path class="cls-1" d="M270.84,26v3.24h-4.36V26Z"/><path class="cls-1" d="M274.31,26v3.24h-4.37V26Z"/><path class="cls-1" d="M277.77,26v3.24h-4.36V26Z"/><path class="cls-1" d="M281.24,26v3.24h-4.37V26Z"/><path class="cls-1" d="M284.7,26v3.24h-4.36V26Z"/><path class="cls-1" d="M288.17,26v3.24H283.8V26Z"/><path class="cls-1" d="M289.7,26V17.77H293V29.26h-5.68V26Zm.37,7a1.5,1.5,0,0,1-.57-1.27,1.54,1.54,0,0,1,.54-1.23,2.09,2.09,0,0,1,2.64,0,1.54,1.54,0,0,1,.54,1.23,1.5,1.5,0,0,1-.57,1.27,2.11,2.11,0,0,1-2.58,0Z"/><path class="cls-1" d="M300.52,26a4.23,4.23,0,0,0,1.16-.15,2.92,2.92,0,0,0,.9-.45,2.18,2.18,0,0,0,.53-.73,2.76,2.76,0,0,0,.19-1.11V11.49h4.53v3.24h-1.28v8.76a7.55,7.55,0,0,1-.38,2.41A4.52,4.52,0,0,1,305,27.8a5.24,5.24,0,0,1-2.17,1.13,11.4,11.4,0,0,1-2.88.33H295L294.65,26Zm-3.45,7.44a2.54,2.54,0,0,1-.74-2.06V30.25h4.58v2h-2.5a.47.47,0,0,0,.17.3.9.9,0,0,0,.63.17h1.08v1.39h-1.24A3,3,0,0,1,297.07,33.46Zm3.65-18.69V25.55h-3.25V14.77Z"/><path class="cls-1" d="M314,12.94V29.26h-3.25V12.94Z"/><path class="cls-1" d="M6.64,38.49a4.3,4.3,0,0,0-1.62,1,4.6,4.6,0,0,0-1.1,1.64,5.88,5.88,0,0,0-.42,2.33,6,6,0,0,0,.42,2.33A4.92,4.92,0,0,0,5,47.41a4.3,4.3,0,0,0,1.62,1,6,6,0,0,0,2,.31,6.81,6.81,0,0,0,2.11-.31,9.82,9.82,0,0,0,2.06-1l1.3,3a9.79,9.79,0,0,1-2.64,1.13,11.28,11.28,0,0,1-2.94.37A9.34,9.34,0,0,1,5,51.22,7.7,7.7,0,0,1,.6,46.76a9.57,9.57,0,0,1,0-6.67,7.8,7.8,0,0,1,1.7-2.68A7.7,7.7,0,0,1,5,35.64,9.15,9.15,0,0,1,8.48,35a11.28,11.28,0,0,1,2.94.38,10.49,10.49,0,0,1,2.64,1.14l-1.3,2.95a9.49,9.49,0,0,0-2-1,6.88,6.88,0,0,0-2.12-.31A6,6,0,0,0,6.64,38.49Z"/><path class="cls-1" d="M15.47,35.29h3.25V51.62H15.47Z"/><path class="cls-1" d="M24.21,51.38a6.39,6.39,0,0,1-2-1.26,5.83,5.83,0,0,1-1.32-1.91,6.05,6.05,0,0,1-.48-2.4,5.85,5.85,0,0,1,.48-2.38,6.09,6.09,0,0,1,1.32-1.92,6,6,0,0,1,2-1.3,6.65,6.65,0,0,1,4.91,0,6,6,0,0,1,2,1.3,6.09,6.09,0,0,1,1.32,1.92,5.85,5.85,0,0,1,.48,2.38,6.05,6.05,0,0,1-.48,2.4,5.83,5.83,0,0,1-1.32,1.91,6.39,6.39,0,0,1-2,1.26,6.65,6.65,0,0,1-4.91,0Zm3.64-2.93a2.66,2.66,0,0,0,.89-.61,2.47,2.47,0,0,0,.57-.9,3.24,3.24,0,0,0,.2-1.13,3.29,3.29,0,0,0-.2-1.14,2.47,2.47,0,0,0-.57-.9,2.84,2.84,0,0,0-.89-.62,2.9,2.9,0,0,0-3.26.62,2.47,2.47,0,0,0-.57.9,3.29,3.29,0,0,0-.19,1.14A3.23,3.23,0,0,0,24,46.94a2.47,2.47,0,0,0,.57.9,2.77,2.77,0,0,0,.89.61,3.3,3.3,0,0,0,2.37,0Z"/><path class="cls-1" d="M44.52,40.13V51c-.51.17-1,.31-1.32.41a10.92,10.92,0,0,1-1.13.27,10.55,10.55,0,0,1-1.18.15c-.41,0-.86.05-1.34.05a8.94,8.94,0,0,1-2-.23,4.39,4.39,0,0,1-1.67-.8,3.87,3.87,0,0,1-1.13-1.47,5.75,5.75,0,0,1-.4-2.26v-7h3.25v6.18A2.87,2.87,0,0,0,38,48.19a2,2,0,0,0,1.48.48,7.59,7.59,0,0,0,.92-.06,6.42,6.42,0,0,0,.88-.15V40.13Z"/><path class="cls-1" d="M57.62,35.29V51.23a17.78,17.78,0,0,1-4.68.62,8,8,0,0,1-2.81-.46A6.08,6.08,0,0,1,48,50.13a5.32,5.32,0,0,1-1.32-1.92,6.23,6.23,0,0,1-.45-2.38,6.06,6.06,0,0,1,.46-2.39A5.45,5.45,0,0,1,48,41.51a6,6,0,0,1,2-1.3,7.26,7.26,0,0,1,2.65-.47c.26,0,.55,0,.87,0l.77.08V35.29ZM50.5,48a3.81,3.81,0,0,0,2.42.68,7.07,7.07,0,0,0,1.45-.15V43.09a5.44,5.44,0,0,0-.69-.12,6.91,6.91,0,0,0-.76,0,3.76,3.76,0,0,0-2.41.71,2.69,2.69,0,0,0-.88,2.2A2.59,2.59,0,0,0,50.5,48Z"/><path class="cls-1" d="M69.86,39.76V51.62H66.53V35.29h5.23L75,47.85l3.3-12.56h5.19V51.62H80.19V39.78L77,51.62H73.09Z"/><path class="cls-1" d="M89.39,51.65A5.63,5.63,0,0,1,87.65,51a3.62,3.62,0,0,1-1.23-1.2A3.42,3.42,0,0,1,86,48a3.49,3.49,0,0,1,1.55-3,5.16,5.16,0,0,1,1.7-.74A8.49,8.49,0,0,1,91.34,44l1,0a9.67,9.67,0,0,1,1,.11,1.24,1.24,0,0,0-.72-1,4.09,4.09,0,0,0-1.69-.28A6.11,6.11,0,0,0,90,43c-.32,0-.66.12-1,.2a10.37,10.37,0,0,0-1,.31,14,14,0,0,0-1.31.56l.44-3.39A9.5,9.5,0,0,1,89.06,40a10.23,10.23,0,0,1,2.26-.25,8.13,8.13,0,0,1,2,.24,4.68,4.68,0,0,1,1.65.79,3.68,3.68,0,0,1,1.09,1.44,5.26,5.26,0,0,1,.39,2.13v6.58a13.24,13.24,0,0,1-2.51.71,14.69,14.69,0,0,1-2.54.22A10.53,10.53,0,0,1,89.39,51.65Zm3.17-5a7.75,7.75,0,0,0-.93-.06,6.86,6.86,0,0,0-.94.06,3.12,3.12,0,0,0-.74.21,1.1,1.1,0,0,0-.47.35.84.84,0,0,0-.16.53.87.87,0,0,0,.6.84,3.75,3.75,0,0,0,1.55.27,6.85,6.85,0,0,0,1-.08,5.6,5.6,0,0,0,.76-.16V46.8C93.12,46.77,92.89,46.74,92.56,46.69Z"/><path class="cls-1" d="M100.48,40.08c.46-.07.91-.13,1.35-.17l1.25-.12c.39,0,.75,0,1.06,0a9.53,9.53,0,0,1,2,.21,4.14,4.14,0,0,1,1.71.75,3.64,3.64,0,0,1,1.16,1.47,5.48,5.48,0,0,1,.43,2.33v7.12h-3.25V45.28a2.48,2.48,0,0,0-.54-1.87,2.43,2.43,0,0,0-1.67-.49,8.34,8.34,0,0,0-1,.06l-.89.11v8.53H98.93V40.34Z"/><path class="cls-1" d="M114.76,51.65A5.63,5.63,0,0,1,113,51a3.71,3.71,0,0,1-1.23-1.2,3.42,3.42,0,0,1-.46-1.84,3.52,3.52,0,0,1,1.54-3,5.16,5.16,0,0,1,1.7-.74,8.55,8.55,0,0,1,2.14-.25l1,0c.36,0,.7.06,1,.11a1.23,1.23,0,0,0-.73-1,4,4,0,0,0-1.68-.28,5.88,5.88,0,0,0-.9.08c-.33,0-.66.12-1,.2a10.37,10.37,0,0,0-1,.31,14,14,0,0,0-1.3.56l.43-3.39a9.61,9.61,0,0,1,1.88-.65,10.07,10.07,0,0,1,2.25-.25,8.27,8.27,0,0,1,2,.24,4.72,4.72,0,0,1,1.64.79,3.7,3.7,0,0,1,1.1,1.44,5.26,5.26,0,0,1,.39,2.13v6.58a13.13,13.13,0,0,1-2.52.71,14.58,14.58,0,0,1-2.53.22A10.56,10.56,0,0,1,114.76,51.65Zm3.17-5a7.75,7.75,0,0,0-.93-.06,6.86,6.86,0,0,0-.94.06,3.43,3.43,0,0,0-.74.21,1.1,1.1,0,0,0-.47.35.9.9,0,0,0-.16.53.87.87,0,0,0,.6.84,3.83,3.83,0,0,0,1.56.27,6.83,6.83,0,0,0,1-.08,5.82,5.82,0,0,0,.77-.16V46.8C118.49,46.77,118.27,46.74,117.93,46.69Z"/><path class="cls-1" d="M123.82,43.3a5.14,5.14,0,0,1,1.32-1.87,6.2,6.2,0,0,1,2.11-1.24,8.24,8.24,0,0,1,2.81-.45,17.28,17.28,0,0,1,4.68.64V50.53a9.76,9.76,0,0,1-.29,2.54,3.65,3.65,0,0,1-1,1.71,4.2,4.2,0,0,1-1.86.94,11.81,11.81,0,0,1-2.82.29c-.23,0-.49,0-.77,0l-.85-.11-.86-.16a8.28,8.28,0,0,1-.91-.24L124.64,52a13.72,13.72,0,0,0,1.33.51l1,.25a7.35,7.35,0,0,0,1,.17,7.22,7.22,0,0,0,.88.06,6,6,0,0,0,1.09-.09,2.67,2.67,0,0,0,.84-.31,1.52,1.52,0,0,0,.52-.48,1.37,1.37,0,0,0,.17-.7v.06a5.27,5.27,0,0,1-.77.09l-.87,0a7.26,7.26,0,0,1-2.65-.46,6.41,6.41,0,0,1-2-1.25A5.14,5.14,0,0,1,123.83,48a5.9,5.9,0,0,1-.46-2.35A6.07,6.07,0,0,1,123.82,43.3Zm7-.31a4.56,4.56,0,0,0-.8-.07,4,4,0,0,0-2.42.65,2.44,2.44,0,0,0-.87,2.08,2.46,2.46,0,0,0,.87,2.08,3.89,3.89,0,0,0,2.42.67,6.91,6.91,0,0,0,.76,0c.26,0,.5-.07.69-.11V43.09Z"/><path class="cls-1" d="M144,48.59a7.58,7.58,0,0,0,.88-.19,4.94,4.94,0,0,0,.77-.28,3.41,3.41,0,0,0,.79-.6l1.47,3a12.87,12.87,0,0,1-2.3,1,9.52,9.52,0,0,1-2.85.37,6.67,6.67,0,0,1-2.51-.46,6,6,0,0,1-2-1.26,5.59,5.59,0,0,1-1.32-1.92,6.34,6.34,0,0,1,0-4.84,5.88,5.88,0,0,1,1.32-1.92,6,6,0,0,1,1.93-1.26,6.57,6.57,0,0,1,4.83,0,5.33,5.33,0,0,1,1.92,1.37,6.22,6.22,0,0,1,1.22,2.21,9.38,9.38,0,0,1,.36,3.17h-8.65a2,2,0,0,0,1,1.22,3.8,3.8,0,0,0,2,.49h.29A4.54,4.54,0,0,0,144,48.59Zm-3.21-5.4a2.17,2.17,0,0,0-.83,1h5.11a1.8,1.8,0,0,0-.82-1.07,3.09,3.09,0,0,0-1.73-.45A2.78,2.78,0,0,0,140.8,43.19Z"/><path class="cls-1" d="M163.17,43.39a2,2,0,0,0-1.47-.47,5,5,0,0,0-1,.11,3.51,3.51,0,0,0-.88.28c.12.22.18.34.19.37s0,.14,0,.34l.06.62c0,.2,0,.39,0,.54v6.44h-3.24V45.26a4.81,4.81,0,0,0-.12-1.18,1.58,1.58,0,0,0-.35-.7,1.17,1.17,0,0,0-.59-.35,3.46,3.46,0,0,0-.92-.11,4.12,4.12,0,0,0-.81.08l-.74.11v8.51h-3.25V40.38c1-.18,1.94-.33,2.75-.45a13.54,13.54,0,0,1,2.09-.19,8.38,8.38,0,0,1,1.79.19,3.07,3.07,0,0,1,1.36.57,13.34,13.34,0,0,1,1.78-.53,8.52,8.52,0,0,1,3.85,0,3.78,3.78,0,0,1,1.62.75,3.59,3.59,0,0,1,1.09,1.47,6,6,0,0,1,.39,2.33v7.12h-3.25V45.26A2.77,2.77,0,0,0,163.17,43.39Z"/><path class="cls-1" d="M175.93,48.59a8.06,8.06,0,0,0,.88-.19,4.82,4.82,0,0,0,.76-.28,3.22,3.22,0,0,0,.79-.6l1.47,3a12.57,12.57,0,0,1-2.3,1,9.52,9.52,0,0,1-2.85.37,6.62,6.62,0,0,1-2.5-.46,6.12,6.12,0,0,1-2-1.26,5.59,5.59,0,0,1-1.32-1.92,6.22,6.22,0,0,1-.47-2.4,6.07,6.07,0,0,1,.48-2.44,5.89,5.89,0,0,1,3.25-3.18,6.54,6.54,0,0,1,4.82,0,5.16,5.16,0,0,1,1.92,1.37,6.09,6.09,0,0,1,1.23,2.21,9.38,9.38,0,0,1,.36,3.17h-8.65a1.94,1.94,0,0,0,1,1.22,3.8,3.8,0,0,0,2,.49h.29A4.57,4.57,0,0,0,175.93,48.59Zm-3.21-5.4a2.14,2.14,0,0,0-.84,1H177a1.76,1.76,0,0,0-.82-1.07,3.08,3.08,0,0,0-1.72-.45A2.78,2.78,0,0,0,172.72,43.19Z"/><path class="cls-1" d="M183.61,40.08c.46-.07.91-.13,1.35-.17l1.25-.12c.4,0,.75,0,1.06,0a9.69,9.69,0,0,1,2,.21,4.16,4.16,0,0,1,1.7.75,3.75,3.75,0,0,1,1.17,1.47,5.64,5.64,0,0,1,.43,2.33v7.12h-3.25V45.28a2.48,2.48,0,0,0-.55-1.87,2.43,2.43,0,0,0-1.67-.49,8.18,8.18,0,0,0-.94.06l-.9.11v8.53h-3.25V40.34Z"/><path class="cls-1" d="M196,40.13v-4h3.24v4h4.19v3h-4.19V46.9a3.3,3.3,0,0,0,.09.85,1,1,0,0,0,.27.48,1.11,1.11,0,0,0,.51.26,3.26,3.26,0,0,0,.84.09h2.56v3H200.6a9.44,9.44,0,0,1-2-.19,3.64,3.64,0,0,1-1.47-.63,2.55,2.55,0,0,1-.87-1.17,5,5,0,0,1-.27-1.76v-4.7h-2.08v-3Z"/><path class="cls-1" d="M217.23,38.49a4.38,4.38,0,0,0-1.62,1,4.6,4.6,0,0,0-1.1,1.64,5.88,5.88,0,0,0-.42,2.33,6,6,0,0,0,.42,2.33,4.92,4.92,0,0,0,1.1,1.65,4.38,4.38,0,0,0,1.62,1,6,6,0,0,0,2,.31,6.81,6.81,0,0,0,2.11-.31,9.87,9.87,0,0,0,2.07-1l1.29,3A9.79,9.79,0,0,1,222,51.48a11.28,11.28,0,0,1-2.94.37,9.34,9.34,0,0,1-3.51-.63,7.72,7.72,0,0,1-2.67-1.78,7.86,7.86,0,0,1-1.7-2.68,9.57,9.57,0,0,1,0-6.67,8,8,0,0,1,1.7-2.68,7.7,7.7,0,0,1,2.67-1.77,9.15,9.15,0,0,1,3.51-.64,11.28,11.28,0,0,1,2.94.38,10.49,10.49,0,0,1,2.64,1.14l-1.29,2.95a9.77,9.77,0,0,0-2.06-1,6.88,6.88,0,0,0-2.12-.31A6,6,0,0,0,217.23,38.49Z"/><path class="cls-1" d="M231.15,43.08h-.45l-.62,0-.9.11c-.38.05-.34,0,.13-.15v8.54h-3.25V40.46l1.31-.22,1.16-.15,1.13-.1,1,0H233v3.12Z"/><path class="cls-1" d="M241.24,48.59a7.58,7.58,0,0,0,.88-.19,4.94,4.94,0,0,0,.77-.28,3.41,3.41,0,0,0,.79-.6l1.47,3a12.87,12.87,0,0,1-2.3,1,9.52,9.52,0,0,1-2.85.37,6.67,6.67,0,0,1-2.51-.46,6,6,0,0,1-2-1.26,5.75,5.75,0,0,1-1.33-1.92,6.22,6.22,0,0,1-.47-2.4,6.07,6.07,0,0,1,.48-2.44,5.88,5.88,0,0,1,1.32-1.92,6,6,0,0,1,1.93-1.26,6.57,6.57,0,0,1,4.83,0,5.33,5.33,0,0,1,1.92,1.37,6.22,6.22,0,0,1,1.22,2.21,9.38,9.38,0,0,1,.36,3.17H237.1a2,2,0,0,0,1,1.22,3.78,3.78,0,0,0,2,.49h.29A4.54,4.54,0,0,0,241.24,48.59ZM238,43.19a2.17,2.17,0,0,0-.83,1h5.11a1.8,1.8,0,0,0-.82-1.07,3.11,3.11,0,0,0-1.73-.45A2.78,2.78,0,0,0,238,43.19Z"/><path class="cls-1" d="M250.4,51.65a5.63,5.63,0,0,1-1.74-.66,3.59,3.59,0,0,1-1.22-1.2A3.33,3.33,0,0,1,247,48a3.6,3.6,0,0,1,.41-1.73A3.5,3.5,0,0,1,248.51,45a5.21,5.21,0,0,1,1.71-.74,8.41,8.41,0,0,1,2.13-.25l1,0a10,10,0,0,1,1,.11,1.23,1.23,0,0,0-.73-1,4,4,0,0,0-1.68-.28,6.11,6.11,0,0,0-.9.08c-.33,0-.66.12-1,.2a10.37,10.37,0,0,0-1,.31,14,14,0,0,0-1.3.56l.43-3.39a9.85,9.85,0,0,1,1.88-.65,10.2,10.2,0,0,1,2.25-.25,8.27,8.27,0,0,1,2,.24,4.72,4.72,0,0,1,1.64.79,3.7,3.7,0,0,1,1.1,1.44,5.26,5.26,0,0,1,.39,2.13v6.58a13.13,13.13,0,0,1-2.52.71,14.58,14.58,0,0,1-2.53.22A10.56,10.56,0,0,1,250.4,51.65Zm3.17-5a7.72,7.72,0,0,0-.92-.06,6.76,6.76,0,0,0-.94.06,3.36,3.36,0,0,0-.75.21,1.16,1.16,0,0,0-.47.35.9.9,0,0,0-.15.53.86.86,0,0,0,.59.84,3.83,3.83,0,0,0,1.56.27,7,7,0,0,0,1-.08,5.6,5.6,0,0,0,.76-.16V46.8C254.13,46.77,253.91,46.74,253.57,46.69Z"/><path class="cls-1" d="M260.83,40.13v-4h3.25v4h4.19v3h-4.19V46.9a3.3,3.3,0,0,0,.09.85,1.09,1.09,0,0,0,.26.48,1.22,1.22,0,0,0,.51.26,3.26,3.26,0,0,0,.84.09h2.57v3h-2.86a9.54,9.54,0,0,1-2.05-.19A3.54,3.54,0,0,1,262,50.8a2.64,2.64,0,0,1-.88-1.17,5,5,0,0,1-.27-1.76v-4.7h-2.07v-3Z"/><path class="cls-1" d="M270.64,38.48a1.51,1.51,0,0,1-.57-1.27,1.54,1.54,0,0,1,.54-1.23,2,2,0,0,1,1.32-.47,1.91,1.91,0,0,1,1.31.47,1.54,1.54,0,0,1,.53,1.23,1.57,1.57,0,0,1-.52,1.24,1.84,1.84,0,0,1-1.32.47A2,2,0,0,1,270.64,38.48Zm2.92,1.65V51.62h-3.25V40.13Z"/><path class="cls-1" d="M274.71,40.13h3.41L280.74,48l2.62-7.84h3.41l-4,11.49h-4.11Z"/><path class="cls-1" d="M288.28,38.48a1.51,1.51,0,0,1-.57-1.27,1.54,1.54,0,0,1,.54-1.23,2,2,0,0,1,1.32-.47,1.91,1.91,0,0,1,1.31.47,1.54,1.54,0,0,1,.53,1.23,1.57,1.57,0,0,1-.52,1.24,1.84,1.84,0,0,1-1.32.47A2,2,0,0,1,288.28,38.48Zm2.92,1.65V51.62H288V40.13Z"/><path class="cls-1" d="M294.72,40.13v-4H298v4h4.19v3H298V46.9a3.3,3.3,0,0,0,.09.85,1.09,1.09,0,0,0,.26.48,1.22,1.22,0,0,0,.51.26,3.26,3.26,0,0,0,.84.09h2.57v3h-2.86a9.54,9.54,0,0,1-2.05-.19,3.54,3.54,0,0,1-1.46-.63,2.64,2.64,0,0,1-.88-1.17,5,5,0,0,1-.27-1.76v-4.7h-2.07v-3Z"/><path class="cls-1" d="M305.35,52.5l1,.25a7.61,7.61,0,0,0,1,.17,7.22,7.22,0,0,0,.88.06,6.2,6.2,0,0,0,1.1-.09,2.71,2.71,0,0,0,.83-.31,1.52,1.52,0,0,0,.52-.48l.17-.29.12-.35a10.26,10.26,0,0,1-2.05.2,9.12,9.12,0,0,1-2-.21,3.9,3.9,0,0,1-1.62-.75,3.43,3.43,0,0,1-1.05-1.47,6.27,6.27,0,0,1-.38-2.33V40.11h3.27v6a4.81,4.81,0,0,0,.12,1.18,1.88,1.88,0,0,0,.33.71,1.2,1.2,0,0,0,.58.36,3.22,3.22,0,0,0,.89.11,7.31,7.31,0,0,0,.91-.06,5.6,5.6,0,0,0,.89-.18V40.11h3.25V50.53a9.34,9.34,0,0,1-.29,2.54,3.65,3.65,0,0,1-1,1.71,4.2,4.2,0,0,1-1.86.94,11.81,11.81,0,0,1-2.82.29c-.23,0-.49,0-.77,0l-.85-.11-.85-.16a7.73,7.73,0,0,1-.91-.24L304,52C304.58,52.23,305,52.4,305.35,52.5Z"/><path class="cls-1" d="M369.44,34.27c-.4-.06-.81-.08-1.19-.11A.25.25,0,0,1,368,34v0c0-.12,0-.24,0-.35v-.1a3.36,3.36,0,0,0-2.2-3.39,3.39,3.39,0,0,0-3.94.91h0a.73.73,0,0,1-1.17-.16c-.18-.33-.37-.65-.56-.94-1.55-2.36-3.37-3.13-5.63-2.55-2.64.68-3.88,2.44-3.89,5.67a1.18,1.18,0,0,1-1.12,1.16h0a3.54,3.54,0,0,0-3.31,2.56,3.46,3.46,0,0,0,1.27,3.71,4.45,4.45,0,0,0,2.84.73h16.38c.85,0,1.7,0,2.54-.06a3.46,3.46,0,0,0,.25-6.88ZM359.24,0a34.79,34.79,0,1,0,34.92,34.79A34.86,34.86,0,0,0,359.24,0ZM379,54.5a28,28,0,0,1-39.56,0,27.85,27.85,0,0,1,8.89-45.38,28.17,28.17,0,0,1,21.78,0c.78.33,1.54.69,2.28,1.09l.22.11a3.77,3.77,0,0,1-1.9,7,3.72,3.72,0,0,1-2-.55,20.32,20.32,0,1,0,9.17,9.8l-8.17,5.76a1,1,0,0,0,.56.3,5.22,5.22,0,0,1-1.43,10.26h-19.3a5.21,5.21,0,0,1-1.43-10.25c.39-.11.56-.22.6-.67a6.9,6.9,0,0,1,5-6.23,7,7,0,0,1,7.64,2.53l.37.5,11.93-8.39L379.9,16a27.73,27.73,0,0,1,4.29,6.19c.3.57.57,1.15.82,1.75a27.83,27.83,0,0,1,0,21.69A27.92,27.92,0,0,1,379,54.5ZM368.25,34.16A.25.25,0,0,1,368,34v0c0-.12,0-.24,0-.35v-.1a3.36,3.36,0,0,0-2.2-3.39,3.39,3.39,0,0,0-3.94.91h0a.73.73,0,0,1-1.17-.16c-.18-.33-.37-.65-.56-.94-1.55-2.36-3.37-3.13-5.63-2.55-2.64.68-3.88,2.44-3.89,5.67a1.18,1.18,0,0,1-1.12,1.16h0a3.54,3.54,0,0,0-3.31,2.56,3.46,3.46,0,0,0,1.27,3.71,4.45,4.45,0,0,0,2.84.73h16.38c.85,0,1.7,0,2.54-.06a3.46,3.46,0,0,0,.25-6.88C369,34.21,368.63,34.19,368.25,34.16Z"/></g></g></svg>