<svg xmlns="http://www.w3.org/2000/svg" viewBox="0 0 345.69 66.43"><defs><style>.cls-1{fill:#a6a8ab;}</style></defs><title>logo-5</title><g id="Layer_2" data-name="Layer 2"><g id="Layer_1-2" data-name="Layer 1"><path class="cls-1" d="M1,32a4.32,4.32,0,0,1-.78-.18L0,28.74c.45.11.76.18.94.21a4.93,4.93,0,0,0,.55,0,1,1,0,0,0,.9-.34,2.19,2.19,0,0,0,.25-1.24V17H5.73V27a10.37,10.37,0,0,1-.21,2.23,4.07,4.07,0,0,1-.7,1.59,2.84,2.84,0,0,1-1.25.93,4.89,4.89,0,0,1-1.8.29A6.51,6.51,0,0,1,1,32Z"/><path class="cls-1" d="M18.92,24.89V28H17.13a5.66,5.66,0,0,1-.36,1.52,3.54,3.54,0,0,1-.89,1.36,3.94,3.94,0,0,1-1.52.9,6.83,6.83,0,0,1-2.2.31l-.72,0c-.22,0-.43,0-.64-.09s-.43-.08-.65-.13l-.93-.26L9,28.43a14.47,14.47,0,0,0,1.71.44A6.88,6.88,0,0,0,12,29a7.82,7.82,0,0,0,.9,0,1.68,1.68,0,0,0,.63-.18,1,1,0,0,0,.38-.37A1.14,1.14,0,0,0,14,28h0a10.14,10.14,0,0,1-2.58-.31,6,6,0,0,1-2.1-1A4.59,4.59,0,0,1,7.91,25a5.66,5.66,0,0,1-.52-2.5,5.15,5.15,0,0,1,.5-2.3,5.05,5.05,0,0,1,1.39-1.72,6,6,0,0,1,2.1-1.08A8.82,8.82,0,0,1,14,17H17.2l0,7.88ZM10.7,23.53a2,2,0,0,0,.57.74,2.46,2.46,0,0,0,.88.46,3.59,3.59,0,0,0,1.11.16h.85V20.1h-.85a3.23,3.23,0,0,0-1.06.18,2.84,2.84,0,0,0-.89.49,2.31,2.31,0,0,0-.61.74,2.24,2.24,0,0,0-.22,1A2.31,2.31,0,0,0,10.7,23.53Z"/><path class="cls-1" d="M22.23,24.89V28H18.08V24.89Z"/><path class="cls-1" d="M25.52,24.89V28H21.37V24.89Z"/><path class="cls-1" d="M28.82,24.89V28H24.67V24.89Z"/><path class="cls-1" d="M32.12,24.89V28H28V24.89Z"/><path class="cls-1" d="M35.41,24.89V28H31.26V24.89Z"/><path class="cls-1" d="M38.71,24.89V28H34.55V24.89Z"/><path class="cls-1" d="M42,24.89V28H37.85V24.89Z"/><path class="cls-1" d="M45.3,24.89V28H41.14V24.89Z"/><path class="cls-1" d="M48.59,24.89V28H44.44V24.89Z"/><path class="cls-1" d="M51.89,24.89V28H47.74V24.89Z"/><path class="cls-1" d="M55.18,24.89V28H51V24.89Z"/><path class="cls-1" d="M58.48,24.89V28H54.33V24.89Z"/><path class="cls-1" d="M61.77,24.89V28H57.62V24.89Z"/><path class="cls-1" d="M65.07,24.89V28H60.92V24.89Z"/><path class="cls-1" d="M68.36,24.89V28H64.21V24.89Z"/><path class="cls-1" d="M69.57,24.89s0-.11,0-.36a4.52,4.52,0,0,1-.06-.74,4.82,4.82,0,0,1,1.09-3.36,3.89,3.89,0,0,1,3-1.18,4.26,4.26,0,0,1,1.65.32,3.86,3.86,0,0,1,1.32.93,4.15,4.15,0,0,1,.85,1.43,5.19,5.19,0,0,1,.31,1.84,6.61,6.61,0,0,1,0,.76c0,.25,0,.37,0,.36h1.19c0-.19,0-.43.07-.72a7.83,7.83,0,0,0,0-.81,7.37,7.37,0,0,0-.22-1.91A5.67,5.67,0,0,0,78,19.88a3.88,3.88,0,0,0-1.57-1.35,6.05,6.05,0,0,0-2.51-.46,5.74,5.74,0,0,0-2.12.39,14.36,14.36,0,0,0-2,.92l-1-2.83a16.48,16.48,0,0,1,2.92-1.17A10.59,10.59,0,0,1,74.56,15a7.45,7.45,0,0,1,2,.23,6.76,6.76,0,0,1,1.61.64,6.23,6.23,0,0,1,1.29,1,8.8,8.8,0,0,1,1,1.19,8.66,8.66,0,0,1,1.18,2.62A12.74,12.74,0,0,1,82,23.81a9,9,0,0,1-.06,1c-.05.36-.1.71-.16,1.06s-.14.7-.23,1-.19.69-.31,1.06H67.51V24.89Zm2.75-.41c0,.23.05.37.05.41h2.42s0-.18,0-.41a6,6,0,0,0,0-.75,1.88,1.88,0,0,0-.35-1.23,1.13,1.13,0,0,0-1-.44,1.11,1.11,0,0,0-1,.43,2.06,2.06,0,0,0-.32,1.24A6,6,0,0,0,72.32,24.48Z"/><path class="cls-1" d="M84.06,32a4,4,0,0,1-.78-.18l-.23-3.11c.45.11.76.18.94.21a5.07,5.07,0,0,0,.55,0,1.06,1.06,0,0,0,.91-.34,2.28,2.28,0,0,0,.25-1.24V17h3.09v7.88h2V28h-2a4.77,4.77,0,0,1-1,3.05,3.7,3.7,0,0,1-2.9,1A6.34,6.34,0,0,1,84.06,32ZM86,15.5a1.46,1.46,0,0,1-.54-1.22,1.49,1.49,0,0,1,.51-1.18,2,2,0,0,1,2.51,0A1.5,1.5,0,0,1,89,14.28a1.46,1.46,0,0,1-.54,1.22,2,2,0,0,1-2.46,0Z"/><path class="cls-1" d="M91.77,24.89V12.4h3.09V24.89h2.38V28h-7.3V24.89Z"/><path class="cls-1" d="M98.21,24.89V12.4h4.3v3.09H101.3V28H96.38V24.89Z"/><path class="cls-1" d="M109.34,29.76a8.6,8.6,0,0,1-.41-2.75,10.88,10.88,0,0,1,.21-2.12h1.21a9,9,0,0,1-.39-1.13,6.1,6.1,0,0,1-.25-1.74,5.3,5.3,0,0,1,.55-2.45,5.83,5.83,0,0,1,1.41-1.76,4.7,4.7,0,0,1,1.59-.86,6.43,6.43,0,0,1,1.95-.29,7.13,7.13,0,0,1,2,.28,12.6,12.6,0,0,1,2.13.87l-1,2.83a7.67,7.67,0,0,0-1.5-.68,4.26,4.26,0,0,0-1.31-.23,2.82,2.82,0,0,0-1.88.58,2.3,2.3,0,0,0-.63.86,3,3,0,0,0-.19,1.06,4.31,4.31,0,0,0,.25,1.53,3.56,3.56,0,0,0,.61,1.13h6V28h-7.65v0a4.63,4.63,0,0,0,.2,1.31A7.92,7.92,0,0,0,113,31l-2.44,1.14A9.35,9.35,0,0,1,109.34,29.76Z"/><path class="cls-1" d="M125.22,12.4V28h-3.09V12.4Z"/><path class="cls-1" d="M133.29,24.89V22.28a3,3,0,0,0-.12-.9,1.71,1.71,0,0,0-.33-.66,1.4,1.4,0,0,0-.58-.45,2,2,0,0,0-.82-.17h-1.36V17h1.1a7,7,0,0,1,2.3.35,4.31,4.31,0,0,1,1.74,1.12,3.62,3.62,0,0,1,.9,1.71,9,9,0,0,1,.26,2.2v2.5h2V28h-11.6V24.89Z"/><path class="cls-1" d="M141.7,24.89V28h-4.15V24.89Z"/><path class="cls-1" d="M145,24.89V28h-4.15V24.89Z"/><path class="cls-1" d="M148.29,24.89V28h-4.15V24.89Z"/><path class="cls-1" d="M151.59,24.89V28h-4.16V24.89Z"/><path class="cls-1" d="M154.88,24.89V28h-4.15V24.89Z"/><path class="cls-1" d="M158.18,24.89V28H154V24.89Z"/><path class="cls-1" d="M161.47,24.89V28h-4.15V24.89Z"/><path class="cls-1" d="M164.77,24.89V28h-4.15V24.89Z"/><path class="cls-1" d="M168.06,24.89V28h-4.15V24.89Z"/><path class="cls-1" d="M169.51,24.89V17h3.1V28h-5.4V24.89Zm.36,6.64a1.46,1.46,0,0,1-.54-1.22,1.49,1.49,0,0,1,.51-1.18,2,2,0,0,1,2.51,0,1.62,1.62,0,0,1,0,2.4,2.05,2.05,0,0,1-2.46,0Z"/><path class="cls-1" d="M179.81,24.89a3.85,3.85,0,0,0,1.1-.15,2.57,2.57,0,0,0,.86-.43,2,2,0,0,0,.5-.7,2.67,2.67,0,0,0,.18-1.05V11h4.31v3.09h-1.21v8.36a7.43,7.43,0,0,1-.37,2.3,4.21,4.21,0,0,1-1.11,1.81,4.87,4.87,0,0,1-2,1.08,10.88,10.88,0,0,1-2.75.32H174.6l-.37-3.09ZM176.53,32a2.42,2.42,0,0,1-.7-2v-1.1h4.35v1.88H177.8a.45.45,0,0,0,.16.28.83.83,0,0,0,.6.17h1v1.32h-1.17A2.83,2.83,0,0,1,176.53,32ZM180,14.15V24.44h-3.09V14.15Z"/><path class="cls-1" d="M192.64,12.4V28h-3.09V12.4Z"/><path class="cls-1" d="M203.4,30.24a9.09,9.09,0,0,1-1.35-.21,7.1,7.1,0,0,1-1.18-.39c-.37-.17-.84-.4-1.4-.71l1.25-2.74a8,8,0,0,0,1.9.83,6.8,6.8,0,0,0,1.66.2h3.38v-5a6.8,6.8,0,0,1,.4-2.41,4,4,0,0,1,1.3-1.74,4.49,4.49,0,0,1,1.64-.8,8.36,8.36,0,0,1,2.06-.25h3.76V28h-3.09V20.1h-.95a3.3,3.3,0,0,0-.8.1,1.58,1.58,0,0,0-.62.31,1.56,1.56,0,0,0-.44.66,2.36,2.36,0,0,0-.17.87v8.27h-5.64C204.46,30.31,203.88,30.28,203.4,30.24Zm.09-8.36a1.44,1.44,0,0,1-.54-1.22,1.46,1.46,0,0,1,.52-1.17,2,2,0,0,1,2.51,0,1.49,1.49,0,0,1,.51,1.17,1.44,1.44,0,0,1-.54,1.22,2,2,0,0,1-2.46,0Zm0,3.95a1.61,1.61,0,0,1,0-2.39,2,2,0,0,1,2.51,0,1.47,1.47,0,0,1,.51,1.17,1.46,1.46,0,0,1-.54,1.22,2,2,0,0,1-2.46,0Z"/><path class="cls-1" d="M219,32a4.13,4.13,0,0,1-.78-.18L218,28.74c.45.11.76.18.94.21a4.93,4.93,0,0,0,.55,0,1,1,0,0,0,.9-.34,2.19,2.19,0,0,0,.25-1.24V17h3.09V27a10.37,10.37,0,0,1-.21,2.23,4.07,4.07,0,0,1-.7,1.59,2.84,2.84,0,0,1-1.25.93,4.93,4.93,0,0,1-1.8.29A6.51,6.51,0,0,1,219,32Z"/><path class="cls-1" d="M230.94,24.89a3.85,3.85,0,0,0,1.1-.15,2.43,2.43,0,0,0,.85-.43,1.9,1.9,0,0,0,.5-.7,2.5,2.5,0,0,0,.19-1.05V11h4.3v3.09h-1.21v8.36a7,7,0,0,1-.18,1.64,3.47,3.47,0,0,0,2.66.78V28a6.54,6.54,0,0,1-1.75-.18,4.25,4.25,0,0,1-1.05-.45,2.55,2.55,0,0,1-.7-.63,2.18,2.18,0,0,0-.26-.32,1.65,1.65,0,0,1-.19.18,4.91,4.91,0,0,1-2.06,1.08,10.79,10.79,0,0,1-2.74.32h-4.68l-.37-3.09Zm.18-10.74V24.44H228V14.15Z"/><path class="cls-1" d="M242.44,24.89V28h-4.15V24.89Z"/><path class="cls-1" d="M245.74,24.89V28h-4.15V24.89Z"/><path class="cls-1" d="M249,24.89V28h-4.15V24.89Z"/><path class="cls-1" d="M252.33,24.89V28h-4.15V24.89Z"/><path class="cls-1" d="M255.62,24.89V28h-4.15V24.89Z"/><path class="cls-1" d="M258.92,24.89V28h-4.15V24.89Z"/><path class="cls-1" d="M260.32,24.89a3.58,3.58,0,0,1-.4-.88,4.33,4.33,0,0,1-.25-1.52,5.28,5.28,0,0,1,.47-2.3,4.84,4.84,0,0,1,1.34-1.73,5.79,5.79,0,0,1,2.06-1.08,8.69,8.69,0,0,1,2.62-.37h3.32V28H258.06V24.89Zm1.88-9.38a1.44,1.44,0,0,1-.51-1.18,1.41,1.41,0,0,1,.5-1.13,1.89,1.89,0,0,1,2.4,0,1.41,1.41,0,0,1,.49,1.13,1.43,1.43,0,0,1-.5,1.18,1.93,1.93,0,0,1-2.38,0Zm.91,8.39a3,3,0,0,0,.89,1h2.39V20.1h-.86a3.63,3.63,0,0,0-1,.16,2.94,2.94,0,0,0-.9.46,2.31,2.31,0,0,0-.61.74,2.14,2.14,0,0,0-.23,1A2.73,2.73,0,0,0,263.11,23.9Zm3.13-8.39a1.44,1.44,0,0,1-.51-1.18,1.41,1.41,0,0,1,.5-1.13,1.9,1.9,0,0,1,2.41,0,1.43,1.43,0,0,1,.48,1.13,1.46,1.46,0,0,1-.5,1.18,1.85,1.85,0,0,1-1.19.41A1.83,1.83,0,0,1,266.24,15.51Z"/><path class="cls-1" d="M5.11,48.94a7.25,7.25,0,0,1-2.54-1.69A7.49,7.49,0,0,1,1,44.69a9.18,9.18,0,0,1,0-6.37,7.49,7.49,0,0,1,1.62-2.56,7.12,7.12,0,0,1,2.54-1.69,8.63,8.63,0,0,1,3.33-.61,13.21,13.21,0,0,1,3.15.36,9.47,9.47,0,0,1,2.66,1.09L13,37.72a8.25,8.25,0,0,0-2.12-.93,9.27,9.27,0,0,0-2.37-.29,5.94,5.94,0,0,0-1.86.29,4.19,4.19,0,0,0-1.54.93A4.38,4.38,0,0,0,4.1,39.28a6.54,6.54,0,0,0,0,4.45A4.61,4.61,0,0,0,5.15,45.3a4.19,4.19,0,0,0,1.54.93,5.67,5.67,0,0,0,1.86.3,7.51,7.51,0,0,0,1.56-.16A5.79,5.79,0,0,0,11.4,46V43.64H8v-3h6.53v7.43a7.28,7.28,0,0,1-1.4.69,12,12,0,0,1-1.54.43,14.4,14.4,0,0,1-1.62.27,12.11,12.11,0,0,1-1.56.1A8.82,8.82,0,0,1,5.11,48.94Z"/><path class="cls-1" d="M17.45,33.74h3.09V49.32H17.45Z"/><path class="cls-1" d="M27.94,49.78a4.87,4.87,0,0,1-1.59-.6,3.27,3.27,0,0,1-1.12-1.1,3.19,3.19,0,0,1-.43-1.69,3.34,3.34,0,0,1,.38-1.59,3.27,3.27,0,0,1,1-1.15A4.65,4.65,0,0,1,27.77,43a8,8,0,0,1,1.95-.23l.92,0a8.55,8.55,0,0,1,.93.1A1.12,1.12,0,0,0,30.9,42a3.7,3.7,0,0,0-1.53-.26,6.48,6.48,0,0,0-.83.07c-.3,0-.6.11-.91.19a8.57,8.57,0,0,0-.9.28c-.3.11-.69.28-1.19.52l.39-3.12a8.87,8.87,0,0,1,1.72-.59,9,9,0,0,1,2.06-.23,7.41,7.41,0,0,1,1.86.22,4,4,0,0,1,1.5.73,3.3,3.3,0,0,1,1,1.31,4.86,4.86,0,0,1,.36,2v6a11.81,11.81,0,0,1-2.3.66,14.07,14.07,0,0,1-2.32.2A8.92,8.92,0,0,1,27.94,49.78Zm2.9-4.54a6.52,6.52,0,0,0-.85-.06,5.81,5.81,0,0,0-.86.06,2.48,2.48,0,0,0-.68.19,1,1,0,0,0-.43.32.83.83,0,0,0-.14.48.8.8,0,0,0,.55.78,3.52,3.52,0,0,0,1.42.24,5.67,5.67,0,0,0,.91-.07c.31,0,.54-.1.7-.14v-1.7A5.65,5.65,0,0,0,30.84,45.24Z"/><path class="cls-1" d="M41.32,41.92h-.41l-.57,0-.82.1c-.35,0-.31,0,.12-.14v7.84h-3V39.52c.44-.08.84-.15,1.2-.2s.71-.1,1.06-.14l1-.09.89,0H43v2.86Z"/><path class="cls-1" d="M45.56,50.56c.3.09.61.16.92.24s.63.12.92.16.57,0,.81,0a5.09,5.09,0,0,0,1-.09,2.27,2.27,0,0,0,.76-.28,1.37,1.37,0,0,0,.48-.44l.16-.26.1-.33a9.27,9.27,0,0,1-1.87.18A8.25,8.25,0,0,1,47,49.6a3.59,3.59,0,0,1-1.48-.68,3.38,3.38,0,0,1-1-1.35,5.75,5.75,0,0,1-.34-2.14V39.2h3v5.51a4.61,4.61,0,0,0,.1,1.08,1.84,1.84,0,0,0,.31.66,1.14,1.14,0,0,0,.53.33,3.08,3.08,0,0,0,.81.1,6.12,6.12,0,0,0,.83-.06,5,5,0,0,0,.82-.16V39.2h3v9.56a8.72,8.72,0,0,1-.27,2.33,3.32,3.32,0,0,1-.93,1.57,3.86,3.86,0,0,1-1.7.86,10.46,10.46,0,0,1-2.58.26l-.7,0-.78-.1-.78-.14a8.09,8.09,0,0,1-.83-.23l-.67-3.18A10.4,10.4,0,0,0,45.56,50.56Z"/><path class="cls-1" d="M66.19,36.79a4.15,4.15,0,0,0-1.53.93,4.38,4.38,0,0,0-1,1.56,6.39,6.39,0,0,0,0,4.45,4.61,4.61,0,0,0,1,1.57,4.15,4.15,0,0,0,1.53.93,5.77,5.77,0,0,0,1.87.3,6.45,6.45,0,0,0,2-.3,8.74,8.74,0,0,0,2-.95l1.23,2.83a8.93,8.93,0,0,1-2.5,1.08,10.77,10.77,0,0,1-2.81.36,8.82,8.82,0,0,1-3.33-.61,7.34,7.34,0,0,1-2.54-1.69,7.65,7.65,0,0,1-1.62-2.56,9.18,9.18,0,0,1,0-6.37,7.65,7.65,0,0,1,1.62-2.56,7.21,7.21,0,0,1,2.54-1.69,8.63,8.63,0,0,1,3.33-.61,10.77,10.77,0,0,1,2.81.36,9.93,9.93,0,0,1,2.5,1.09L72,37.72a9,9,0,0,0-2-.93,6.83,6.83,0,0,0-2-.29A6,6,0,0,0,66.19,36.79Z"/><path class="cls-1" d="M79.52,40.92h-.41l-.56,0-.82.1c-.36,0-.32,0,.11-.14v7.84h-3V38.52c.44-.08.84-.15,1.2-.2s.71-.1,1.07-.14l1-.09.9,0h2.13v2.86Z"/><path class="cls-1" d="M88.75,46a4.92,4.92,0,0,0,.8-.18,4.09,4.09,0,0,0,.7-.25A3.55,3.55,0,0,0,91,45l1.34,2.72a11.4,11.4,0,0,1-2.1.91,8.7,8.7,0,0,1-2.61.34,6.17,6.17,0,0,1-2.29-.42,5.77,5.77,0,0,1-1.83-1.16,5.27,5.27,0,0,1-1.21-1.76,5.57,5.57,0,0,1-.43-2.2,5.63,5.63,0,0,1,.44-2.24,5.29,5.29,0,0,1,1.2-1.76,5.55,5.55,0,0,1,1.77-1.16,5.78,5.78,0,0,1,2.17-.41,5.66,5.66,0,0,1,2.24.43,4.87,4.87,0,0,1,1.75,1.26,5.59,5.59,0,0,1,1.12,2,8.51,8.51,0,0,1,.33,2.91H85a1.81,1.81,0,0,0,.88,1.12,3.46,3.46,0,0,0,1.84.46H88A4.61,4.61,0,0,0,88.75,46ZM85.81,41a2,2,0,0,0-.76.91h4.67A1.64,1.64,0,0,0,89,41a2.74,2.74,0,0,0-1.57-.42A2.53,2.53,0,0,0,85.81,41Z"/><path class="cls-1" d="M97.12,48.78a4.87,4.87,0,0,1-1.59-.6,3.27,3.27,0,0,1-1.12-1.1A3.19,3.19,0,0,1,94,45.39a3.34,3.34,0,0,1,.38-1.59,3.27,3.27,0,0,1,1-1.15A4.65,4.65,0,0,1,97,42a8,8,0,0,1,2-.23l.92,0a8.55,8.55,0,0,1,.93.1,1.11,1.11,0,0,0-.66-.87,3.78,3.78,0,0,0-1.54-.26,6.48,6.48,0,0,0-.83.07c-.29,0-.6.11-.91.19a8.57,8.57,0,0,0-.9.28c-.29.11-.69.28-1.19.52l.39-3.12a8.87,8.87,0,0,1,1.72-.59,9,9,0,0,1,2.06-.23,7.41,7.41,0,0,1,1.86.22,4,4,0,0,1,1.5.73,3.3,3.3,0,0,1,1,1.31,4.86,4.86,0,0,1,.36,2v6a11.81,11.81,0,0,1-2.3.66A14.07,14.07,0,0,1,99,49,8.92,8.92,0,0,1,97.12,48.78Zm2.9-4.54a6.41,6.41,0,0,0-.85-.06,5.81,5.81,0,0,0-.86.06,2.48,2.48,0,0,0-.68.19,1,1,0,0,0-.43.32.83.83,0,0,0-.14.48.8.8,0,0,0,.55.78,3.52,3.52,0,0,0,1.42.24,5.67,5.67,0,0,0,.91-.07c.31,0,.54-.1.7-.14v-1.7A5.65,5.65,0,0,0,100,44.24Z"/><path class="cls-1" d="M107.66,38.36V34.52h3.09v3.84h4v2.9h-4v3.56a3.56,3.56,0,0,0,.08.81,1,1,0,0,0,.25.46,1,1,0,0,0,.49.24,3,3,0,0,0,.8.09h2.44v2.9h-2.72a10.1,10.1,0,0,1-2-.17,3.46,3.46,0,0,1-1.39-.61,2.4,2.4,0,0,1-.83-1.12,4.58,4.58,0,0,1-.26-1.67V41.26h-2v-2.9Z"/><path class="cls-1" d="M117,36.78a1.43,1.43,0,0,1-.54-1.22,1.49,1.49,0,0,1,.51-1.17,1.82,1.82,0,0,1,1.25-.44,1.79,1.79,0,0,1,1.25.44,1.49,1.49,0,0,1,.51,1.17,1.55,1.55,0,0,1-.5,1.2,1.84,1.84,0,0,1-1.26.44A1.94,1.94,0,0,1,117,36.78Zm2.77,1.58v11h-3.09v-11Z"/><path class="cls-1" d="M120.67,38.57h3.12l2.4,7.19,2.39-7.19h3.12l-3.64,10.54h-3.75Z"/><path class="cls-1" d="M133.76,36.78a1.43,1.43,0,0,1-.54-1.22,1.49,1.49,0,0,1,.51-1.17A1.83,1.83,0,0,1,135,34a1.8,1.8,0,0,1,1.25.44,1.51,1.51,0,0,1,.5,1.17,1.54,1.54,0,0,1-.49,1.2,1.84,1.84,0,0,1-1.26.44A2,2,0,0,1,133.76,36.78Zm2.77,1.58v11h-3.09v-11Z"/><path class="cls-1" d="M139.89,38.36V34.52H143v3.84h4v2.9h-4v3.56a3.07,3.07,0,0,0,.08.81,1,1,0,0,0,.25.46,1,1,0,0,0,.49.24,2.94,2.94,0,0,0,.8.09H147v2.9h-2.71a10,10,0,0,1-1.95-.17,3.51,3.51,0,0,1-1.4-.61,2.45,2.45,0,0,1-.82-1.12,4.58,4.58,0,0,1-.26-1.67V41.26h-2v-2.9Z"/><path class="cls-1" d="M149.66,49.72c.3.08.6.16.92.23a8.08,8.08,0,0,0,.92.16,6.19,6.19,0,0,0,.81.06,5.09,5.09,0,0,0,1-.09,2.27,2.27,0,0,0,.76-.28,1.36,1.36,0,0,0,.47-.45l.16-.26.11-.32a9.3,9.3,0,0,1-1.88.18,8.16,8.16,0,0,1-1.83-.19,3.43,3.43,0,0,1-1.48-.69,3.08,3.08,0,0,1-1-1.35,5.71,5.71,0,0,1-.34-2.14V38.36h3v5.51a4.54,4.54,0,0,0,.11,1.08,1.46,1.46,0,0,0,.31.65,1,1,0,0,0,.52.33,2.74,2.74,0,0,0,.82.1,8.19,8.19,0,0,0,.83-.05,6.11,6.11,0,0,0,.81-.16V38.36h3v9.55a8.75,8.75,0,0,1-.27,2.34,3.09,3.09,0,0,1-.93,1.56,3.71,3.71,0,0,1-1.7.87,10.94,10.94,0,0,1-2.57.26,6.08,6.08,0,0,1-.71,0l-.78-.09c-.26-.05-.52-.09-.77-.15s-.54-.13-.84-.22l-.66-3.19A8.67,8.67,0,0,0,149.66,49.72Z"/><path class="cls-1" d="M166.81,33.74h10.11v3H170v3.11h6.28v3H170v6.48h-3.16Z"/><path class="cls-1" d="M181.45,49.79a5.74,5.74,0,0,1-1.8-1.16,5.43,5.43,0,0,1-1.21-1.75,5.57,5.57,0,0,1-.43-2.2,5.45,5.45,0,0,1,.43-2.19,5.82,5.82,0,0,1,1.21-1.76,5.65,5.65,0,0,1,1.8-1.19,6.08,6.08,0,0,1,4.49,0,5.54,5.54,0,0,1,1.8,1.19A5.64,5.64,0,0,1,189,42.49a5.46,5.46,0,0,1,.44,2.19,5.58,5.58,0,0,1-.44,2.2,5.27,5.27,0,0,1-1.21,1.75,5.81,5.81,0,0,1-4,1.59A5.71,5.71,0,0,1,181.45,49.79Zm3.33-2.69a2.35,2.35,0,0,0,.81-.56,2.29,2.29,0,0,0,.52-.83,2.9,2.9,0,0,0,.18-1,3,3,0,0,0-.18-1,2.42,2.42,0,0,0-.52-.84A2.54,2.54,0,0,0,183.7,42a2.68,2.68,0,0,0-1.09.21,2.92,2.92,0,0,0-.81.56,2.42,2.42,0,0,0-.52.84,3,3,0,0,0-.18,1,2.9,2.9,0,0,0,.18,1,2.29,2.29,0,0,0,.52.83,2.55,2.55,0,0,0,.81.56,2.91,2.91,0,0,0,2.17,0Z"/><path class="cls-1" d="M195.75,42.18h-.41l-.57,0-.82.1c-.35,0-.31,0,.11-.14V50h-3V39.78l1.2-.2c.36-.06.72-.1,1.07-.14l1-.09.89,0h2.13v2.86Z"/><path class="cls-1" d="M204.81,33.74h10.11v3H208v3.11h6.28v3H208v6.48h-3.16Z"/><path class="cls-1" d="M216.13,33.74h3.09V49.32h-3.09Z"/><path class="cls-1" d="M225.9,49.54a5.63,5.63,0,0,1-1.8-1.16,5.27,5.27,0,0,1-1.21-1.75,5.58,5.58,0,0,1-.44-2.2,5.46,5.46,0,0,1,.44-2.19,5.64,5.64,0,0,1,1.21-1.76,5.54,5.54,0,0,1,1.8-1.19,5.66,5.66,0,0,1,2.24-.43,5.66,5.66,0,0,1,4.05,1.62,5.61,5.61,0,0,1,1.2,1.76,5.29,5.29,0,0,1,.44,2.19,5.41,5.41,0,0,1-.44,2.2,5.25,5.25,0,0,1-1.2,1.75,5.86,5.86,0,0,1-1.8,1.16,5.75,5.75,0,0,1-2.25.43A5.66,5.66,0,0,1,225.9,49.54Zm3.33-2.69a2.55,2.55,0,0,0,.81-.56,2.29,2.29,0,0,0,.52-.83,2.9,2.9,0,0,0,.18-1,3,3,0,0,0-.18-1,2.42,2.42,0,0,0-.52-.84,2.92,2.92,0,0,0-.81-.56,2.91,2.91,0,0,0-2.17,0,2.66,2.66,0,0,0-.81.56,2.42,2.42,0,0,0-.52.84,3,3,0,0,0-.18,1,2.9,2.9,0,0,0,.18,1,2.29,2.29,0,0,0,.52.83,2.35,2.35,0,0,0,.81.56,2.91,2.91,0,0,0,2.17,0Z"/><path class="cls-1" d="M242.19,42.81l-1.54,6.95h-3.72l-2.86-10.54h3.22L239,46.11l1.54-6.89h3.38l1.56,6.89,1.65-6.89h3.23L247.5,49.76h-3.79Z"/><path class="cls-1" d="M257.44,47a5,5,0,0,0,.81-.18,4.09,4.09,0,0,0,.7-.25,3.28,3.28,0,0,0,.72-.55L261,48.72a11.4,11.4,0,0,1-2.1.91,8.63,8.63,0,0,1-2.6.34,6.14,6.14,0,0,1-2.29-.42,5.81,5.81,0,0,1-1.84-1.16,5.24,5.24,0,0,1-1.2-1.76,5.57,5.57,0,0,1-.43-2.2A5.43,5.43,0,0,1,254,39.27a5.74,5.74,0,0,1,2.17-.41,5.66,5.66,0,0,1,2.24.43,4.87,4.87,0,0,1,1.75,1.26,5.74,5.74,0,0,1,1.12,2,8.77,8.77,0,0,1,.33,2.91h-7.91a1.81,1.81,0,0,0,.88,1.12,3.46,3.46,0,0,0,1.84.46h.27A4.5,4.5,0,0,0,257.44,47ZM254.51,42a1.94,1.94,0,0,0-.76.91h4.67a1.64,1.64,0,0,0-.75-1,2.77,2.77,0,0,0-1.58-.42A2.48,2.48,0,0,0,254.51,42Z"/><path class="cls-1" d="M267.71,41.92h-.41l-.57,0-.82.1c-.35,0-.31,0,.12-.14v7.84h-3V39.52c.44-.08.84-.15,1.2-.2s.71-.1,1.06-.14l1-.09.89,0h2.13v2.86Z"/><path class="cls-1" d="M313.41,34.89a1.55,1.55,0,0,1-1.91-1.08,1.52,1.52,0,0,1,1.07-1.89A1.55,1.55,0,0,1,314.46,33,1.57,1.57,0,0,1,313.41,34.89Z"/><path class="cls-1" d="M320.34,26.28a3.22,3.22,0,0,0-3.57.4,4.18,4.18,0,0,0-1.4,1.87,4.53,4.53,0,0,0-1,2.48c0,.12.19.29.32.4a.38.38,0,0,0,.33,0c.46-.3.91-.62,1.37-.94s.72-.24.89.05,0,.59-.28.79-.93.61-1.37,1a.4.4,0,0,0-.12.37c0,.14.19.35.28.35.69,0,1.37,0,2,0,0,0,0,0,0-.09h1.56s0-.07,0-.1c.3-.13.61-.24.91-.39h0a.53.53,0,0,0,.1-.06,3.44,3.44,0,0,0,.86-.62,3.34,3.34,0,0,0,.91-2.44A3.19,3.19,0,0,0,320.34,26.28Zm-6.47-1.13a3,3,0,0,0-4.42-1.84,3.33,3.33,0,0,0-1.21,4.28,8.06,8.06,0,0,0,1.66,2.22c.26.27.54.52.82.78a.68.68,0,0,0,.52.1.38.38,0,0,0,.28-.46l0-.12-.07-.2c-.1-.32-.19-.65-.29-1s-.17-.6-.25-.9c-.15-.56,0-.9.44-1s.71.22.83.64c.05.15.09.29.13.44.18.65.38,1.3.56,1.92a.65.65,0,0,0,.63,0,.74.74,0,0,0,.25-.53c.07-.46.15-.92.23-1.37s.13-.81.15-1.2v-.11A4.78,4.78,0,0,0,313.87,25.15Zm-2.8,12v0a1.45,1.45,0,0,1,.11-.26,1.45,1.45,0,0,0,.11-.42C311.22,36.72,311.14,36.94,311.07,37.16ZM309.43,34c-.62,0-1.24,0-1.87-.06h-.29c-.45,0-.79-.2-.77-.7a.67.67,0,0,1,.22-.49.94.94,0,0,1,.61-.14c.85,0,1.68.05,2.54.07.1-.25.19-.48.29-.75-.38-.34-.75-.64-1.07-1l-.33-.3a4.42,4.42,0,0,0-2.36-.92,3.33,3.33,0,0,0-3.23,5.08,3.26,3.26,0,0,0,3.13,1.68,5.37,5.37,0,0,0,2.48-.82,11.29,11.29,0,0,0,.94-.65.49.49,0,0,0,.22-.62A.45.45,0,0,0,309.43,34Zm4.42,4.39a11.86,11.86,0,0,0-.35-1.22,1,1,0,0,0-.51-.38c-.32-.13-.4.13-.48.38l-.72,2a1.57,1.57,0,0,1-.24.43.59.59,0,0,1-.7.14.71.71,0,0,1-.32-1c0-.13.09-.26.13-.38.14-.39.27-.76.42-1.13a1.45,1.45,0,0,1,.11-.26,1.45,1.45,0,0,0,.11-.42c0-.27-.11-.47-.52-.63-.42.28-.84.56-1.22.87a5.69,5.69,0,0,0-1.7,2.06,3.2,3.2,0,0,0,.46,3.62,3.1,3.1,0,0,0,3.37,1.08A3.18,3.18,0,0,0,314,40.82,5.78,5.78,0,0,0,313.85,38.37Zm0-13.22a3,3,0,0,0-4.42-1.84,3.33,3.33,0,0,0-1.21,4.28,8.06,8.06,0,0,0,1.66,2.22c.26.27.54.52.82.78a.68.68,0,0,0,.52.1.38.38,0,0,0,.28-.46l0-.12-.07-.2c-.1-.32-.19-.65-.29-1s-.17-.6-.25-.9c-.15-.56,0-.9.44-1s.71.22.83.64c.05.15.09.29.13.44.18.65.38,1.3.56,1.92a.65.65,0,0,0,.63,0,.74.74,0,0,0,.25-.53c.07-.46.15-.92.23-1.37s.13-.81.15-1.2v-.11A4.78,4.78,0,0,0,313.87,25.15Zm6.47,1.13a3.22,3.22,0,0,0-3.57.4,4.18,4.18,0,0,0-1.4,1.87,4.53,4.53,0,0,0-1,2.48c0,.12.19.29.32.4a.38.38,0,0,0,.33,0c.46-.3.91-.62,1.37-.94s.72-.24.89.05,0,.59-.28.79-.93.61-1.37,1a.4.4,0,0,0-.12.37c0,.14.19.35.28.35.69,0,1.37,0,2,0,0,0,0,0,0-.09h1.56s0-.07,0-.1c.3-.13.61-.24.91-.39h0a.53.53,0,0,0,.1-.06,3.44,3.44,0,0,0,.86-.62,3.34,3.34,0,0,0,.91-2.44A3.19,3.19,0,0,0,320.34,26.28Zm.06,8.93a5.62,5.62,0,0,0-1.24-.59,7,7,0,0,0-1.53-.3c-.42,0-.82-.06-1.25-.07-.09.25-.17.47-.23.67.41.34.82.66,1.23,1,.25.2.5.4.76.59s.55.6.27,1-.63.39-1.09,0l-1.08-.83-1-.79c-.19.27-.51.53-.47.71s.15.64.24,1a5.66,5.66,0,0,0,1.86,3,2.87,2.87,0,0,0,2.92.62,3.15,3.15,0,0,0,2.15-2.75A3.22,3.22,0,0,0,320.4,35.21Zm0,0a5.62,5.62,0,0,0-1.24-.59,7,7,0,0,0-1.53-.3c-.42,0-.82-.06-1.25-.07-.09.25-.17.47-.23.67.41.34.82.66,1.23,1,.25.2.5.4.76.59s.55.6.27,1-.63.39-1.09,0l-1.08-.83-1-.79c-.19.27-.51.53-.47.71s.15.64.24,1a5.66,5.66,0,0,0,1.86,3,2.87,2.87,0,0,0,2.92.62,3.15,3.15,0,0,0,2.15-2.75A3.22,3.22,0,0,0,320.4,35.21ZM315,31.42c.46-.3.91-.62,1.37-.94s.72-.24.89.05,0,.59-.28.79-.93.61-1.37,1a.4.4,0,0,0-.12.37c0,.14.19.35.28.35.69,0,1.37,0,2,0,0,0,0,0,0-.09h1.56s0-.07,0-.1c.3-.13.61-.24.91-.39h0a.53.53,0,0,0,.1-.06,3.44,3.44,0,0,0,.86-.62,3.34,3.34,0,0,0,.91-2.44,3.19,3.19,0,0,0-1.86-3,3.22,3.22,0,0,0-3.57.4,4.18,4.18,0,0,0-1.4,1.87,4.53,4.53,0,0,0-1,2.48c0,.12.19.29.32.4A.38.38,0,0,0,315,31.42Zm-5.53-8.11a3.33,3.33,0,0,0-1.21,4.28,8.06,8.06,0,0,0,1.66,2.22c.26.27.54.52.82.78a.68.68,0,0,0,.52.1.38.38,0,0,0,.28-.46l0-.12-.07-.2c-.1-.32-.19-.65-.29-1s-.17-.6-.25-.9c-.15-.56,0-.9.44-1s.71.22.83.64c.05.15.09.29.13.44.18.65.38,1.3.56,1.92a.65.65,0,0,0,.63,0,.74.74,0,0,0,.25-.53c.07-.46.15-.92.23-1.37s.13-.81.15-1.2v-.11a4.78,4.78,0,0,0-.23-1.68A3,3,0,0,0,309.45,23.31Zm4.05,13.84a1,1,0,0,0-.51-.38c-.32-.13-.4.13-.48.38l-.72,2a1.57,1.57,0,0,1-.24.43.59.59,0,0,1-.7.14.71.71,0,0,1-.32-1c0-.13.09-.26.13-.38.14-.39.27-.76.42-1.13a1.45,1.45,0,0,1,.11-.26,1.45,1.45,0,0,0,.11-.42c0-.27-.11-.47-.52-.63-.42.28-.84.56-1.22.87a5.69,5.69,0,0,0-1.7,2.06,3.2,3.2,0,0,0,.46,3.62,3.1,3.1,0,0,0,3.37,1.08A3.18,3.18,0,0,0,314,40.82a5.78,5.78,0,0,0-.1-2.45A11.86,11.86,0,0,0,313.5,37.15ZM309.72,35a.49.49,0,0,0,.22-.62.45.45,0,0,0-.51-.38c-.62,0-1.24,0-1.87-.06h-.29c-.45,0-.79-.2-.77-.7a.67.67,0,0,1,.22-.49.94.94,0,0,1,.61-.14c.85,0,1.68.05,2.54.07.1-.25.19-.48.29-.75-.38-.34-.75-.64-1.07-1l-.33-.3a4.42,4.42,0,0,0-2.36-.92,3.33,3.33,0,0,0-3.23,5.08,3.26,3.26,0,0,0,3.13,1.68,5.37,5.37,0,0,0,2.48-.82A11.29,11.29,0,0,0,309.72,35Zm2.75-35a33.22,33.22,0,1,0,33.22,33.21A33.22,33.22,0,0,0,312.47,0Zm18.81,52A26.64,26.64,0,0,1,288,43.58a26.84,26.84,0,0,1,0-20.72A26.61,26.61,0,0,1,322.84,8.71c.74.31,1.46.65,2.17,1l.21.12a3.6,3.6,0,0,1-1.82,6.7,3.46,3.46,0,0,1-1.53-.34l-.34-.18a19.35,19.35,0,1,0,8.73,9.36l-6.77,4.78a4.85,4.85,0,0,1-2.85,3.59A4.79,4.79,0,0,1,323.29,38,4.53,4.53,0,0,1,322,41.21c-1.49,1.66-4.29,2.24-6.71-.22-1.22,3.33-3.36,4.64-6,3.7a4.8,4.8,0,0,1-2.49-6.94A4.84,4.84,0,0,1,301.3,33a4.75,4.75,0,0,1,5.82-4.63,4.9,4.9,0,0,1,.34-5.06,4.16,4.16,0,0,1,2.46-1.63,4.08,4.08,0,0,1,3.73.82c.76.62.92.91,1.8,3.33a.52.52,0,0,0,.06.13A4.72,4.72,0,0,1,319,24.59l7.23-5.11,5.93-4.2a27.41,27.41,0,0,1,4.09,5.92c.26.53.52,1.09.77,1.66A26.51,26.51,0,0,1,331.28,52Zm-12.12-17.4a7,7,0,0,0-1.53-.3c-.42,0-.82-.06-1.25-.07-.09.25-.17.47-.23.67.41.34.82.66,1.23,1,.25.2.5.4.76.59s.55.6.27,1-.63.39-1.09,0l-1.08-.83-1-.79c-.19.27-.51.53-.47.71s.15.64.24,1a5.66,5.66,0,0,0,1.86,3,2.87,2.87,0,0,0,2.92.62,3.15,3.15,0,0,0,2.15-2.75,3.22,3.22,0,0,0-1.53-3.2A5.62,5.62,0,0,0,319.16,34.62Zm1.18-8.34a3.22,3.22,0,0,0-3.57.4,4.18,4.18,0,0,0-1.4,1.87,4.53,4.53,0,0,0-1,2.48c0,.12.19.29.32.4a.38.38,0,0,0,.33,0c.46-.3.91-.62,1.37-.94s.72-.24.89.05,0,.59-.28.79-.93.61-1.37,1a.4.4,0,0,0-.12.37c0,.14.19.35.28.35.69,0,1.37,0,2,0,0,0,0,0,0-.09h1.56s0-.07,0-.1c.3-.13.61-.24.91-.39h0a.53.53,0,0,0,.1-.06,3.44,3.44,0,0,0,.86-.62,3.34,3.34,0,0,0,.91-2.44A3.19,3.19,0,0,0,320.34,26.28Zm-10.89-3a3.33,3.33,0,0,0-1.21,4.28,8.06,8.06,0,0,0,1.66,2.22c.26.27.54.52.82.78a.68.68,0,0,0,.52.1.38.38,0,0,0,.28-.46l0-.12-.07-.2c-.1-.32-.19-.65-.29-1s-.17-.6-.25-.9c-.15-.56,0-.9.44-1s.71.22.83.64c.05.15.09.29.13.44.18.65.38,1.3.56,1.92a.65.65,0,0,0,.63,0,.74.74,0,0,0,.25-.53c.07-.46.15-.92.23-1.37s.13-.81.15-1.2v-.11a4.78,4.78,0,0,0-.23-1.68A3,3,0,0,0,309.45,23.31Zm4.05,13.84a1,1,0,0,0-.51-.38c-.32-.13-.4.13-.48.38l-.72,2a1.57,1.57,0,0,1-.24.43.59.59,0,0,1-.7.14.71.71,0,0,1-.32-1c0-.13.09-.26.13-.38.14-.39.27-.76.42-1.13a1.45,1.45,0,0,1,.11-.26,1.45,1.45,0,0,0,.11-.42c0-.27-.11-.47-.52-.63-.42.28-.84.56-1.22.87a5.69,5.69,0,0,0-1.7,2.06,3.2,3.2,0,0,0,.46,3.62,3.1,3.1,0,0,0,3.37,1.08A3.18,3.18,0,0,0,314,40.82a5.78,5.78,0,0,0-.1-2.45A11.86,11.86,0,0,0,313.5,37.15ZM309.72,35a.49.49,0,0,0,.22-.62.45.45,0,0,0-.51-.38c-.62,0-1.24,0-1.87-.06h-.29c-.45,0-.79-.2-.77-.7a.67.67,0,0,1,.22-.49.94.94,0,0,1,.61-.14c.85,0,1.68.05,2.54.07.1-.25.19-.48.29-.75-.38-.34-.75-.64-1.07-1l-.33-.3a4.42,4.42,0,0,0-2.36-.92,3.33,3.33,0,0,0-3.23,5.08,3.26,3.26,0,0,0,3.13,1.68,5.37,5.37,0,0,0,2.48-.82A11.29,11.29,0,0,0,309.72,35Zm-.29-1c-.62,0-1.24,0-1.87-.06h-.29c-.45,0-.79-.2-.77-.7a.67.67,0,0,1,.22-.49.94.94,0,0,1,.61-.14c.85,0,1.68.05,2.54.07.1-.25.19-.48.29-.75-.38-.34-.75-.64-1.07-1l-.33-.3a4.42,4.42,0,0,0-2.36-.92,3.33,3.33,0,0,0-3.23,5.08,3.26,3.26,0,0,0,3.13,1.68,5.37,5.37,0,0,0,2.48-.82,11.29,11.29,0,0,0,.94-.65.49.49,0,0,0,.22-.62A.45.45,0,0,0,309.43,34Zm4.42,4.39a11.86,11.86,0,0,0-.35-1.22,1,1,0,0,0-.51-.38c-.32-.13-.4.13-.48.38l-.72,2a1.57,1.57,0,0,1-.24.43.59.59,0,0,1-.7.14.71.71,0,0,1-.32-1c0-.13.09-.26.13-.38.14-.39.27-.76.42-1.13a1.45,1.45,0,0,1,.11-.26,1.45,1.45,0,0,0,.11-.42c0-.27-.11-.47-.52-.63-.42.28-.84.56-1.22.87a5.69,5.69,0,0,0-1.7,2.06,3.2,3.2,0,0,0,.46,3.62,3.1,3.1,0,0,0,3.37,1.08A3.18,3.18,0,0,0,314,40.82,5.78,5.78,0,0,0,313.85,38.37Zm0-13.22a3,3,0,0,0-4.42-1.84,3.33,3.33,0,0,0-1.21,4.28,8.06,8.06,0,0,0,1.66,2.22c.26.27.54.52.82.78a.68.68,0,0,0,.52.1.38.38,0,0,0,.28-.46l0-.12-.07-.2c-.1-.32-.19-.65-.29-1s-.17-.6-.25-.9c-.15-.56,0-.9.44-1s.71.22.83.64c.05.15.09.29.13.44.18.65.38,1.3.56,1.92a.65.65,0,0,0,.63,0,.74.74,0,0,0,.25-.53c.07-.46.15-.92.23-1.37s.13-.81.15-1.2v-.11A4.78,4.78,0,0,0,313.87,25.15Zm6.47,1.13a3.22,3.22,0,0,0-3.57.4,4.18,4.18,0,0,0-1.4,1.87,4.53,4.53,0,0,0-1,2.48c0,.12.19.29.32.4a.38.38,0,0,0,.33,0c.46-.3.91-.62,1.37-.94s.72-.24.89.05,0,.59-.28.79-.93.61-1.37,1a.4.4,0,0,0-.12.37c0,.14.19.35.28.35.69,0,1.37,0,2,0,0,0,0,0,0-.09h1.56s0-.07,0-.1c.3-.13.61-.24.91-.39h0a.53.53,0,0,0,.1-.06,3.44,3.44,0,0,0,.86-.62,3.34,3.34,0,0,0,.91-2.44A3.19,3.19,0,0,0,320.34,26.28Zm.06,8.93a5.62,5.62,0,0,0-1.24-.59,7,7,0,0,0-1.53-.3c-.42,0-.82-.06-1.25-.07-.09.25-.17.47-.23.67.41.34.82.66,1.23,1,.25.2.5.4.76.59s.55.6.27,1-.63.39-1.09,0l-1.08-.83-1-.79c-.19.27-.51.53-.47.71s.15.64.24,1a5.66,5.66,0,0,0,1.86,3,2.87,2.87,0,0,0,2.92.62,3.15,3.15,0,0,0,2.15-2.75A3.22,3.22,0,0,0,320.4,35.21Zm0,0a5.62,5.62,0,0,0-1.24-.59,7,7,0,0,0-1.53-.3c-.42,0-.82-.06-1.25-.07-.09.25-.17.47-.23.67.41.34.82.66,1.23,1,.25.2.5.4.76.59s.55.6.27,1-.63.39-1.09,0l-1.08-.83-1-.79c-.19.27-.51.53-.47.71s.15.64.24,1a5.66,5.66,0,0,0,1.86,3,2.87,2.87,0,0,0,2.92.62,3.15,3.15,0,0,0,2.15-2.75A3.22,3.22,0,0,0,320.4,35.21Zm-.06-8.93a3.22,3.22,0,0,0-3.57.4,4.18,4.18,0,0,0-1.4,1.87,4.53,4.53,0,0,0-1,2.48c0,.12.19.29.32.4a.38.38,0,0,0,.33,0c.46-.3.91-.62,1.37-.94s.72-.24.89.05,0,.59-.28.79-.93.61-1.37,1a.4.4,0,0,0-.12.37c0,.14.19.35.28.35.69,0,1.37,0,2,0,0,0,0,0,0-.09h1.56s0-.07,0-.1c.3-.13.61-.24.91-.39h0a.53.53,0,0,0,.1-.06,3.44,3.44,0,0,0,.86-.62,3.34,3.34,0,0,0,.91-2.44A3.19,3.19,0,0,0,320.34,26.28Zm-6.47-1.13a3,3,0,0,0-4.42-1.84,3.33,3.33,0,0,0-1.21,4.28,8.06,8.06,0,0,0,1.66,2.22c.26.27.54.52.82.78a.68.68,0,0,0,.52.1.38.38,0,0,0,.28-.46l0-.12-.07-.2c-.1-.32-.19-.65-.29-1s-.17-.6-.25-.9c-.15-.56,0-.9.44-1s.71.22.83.64c.05.15.09.29.13.44.18.65.38,1.3.56,1.92a.65.65,0,0,0,.63,0,.74.74,0,0,0,.25-.53c.07-.46.15-.92.23-1.37s.13-.81.15-1.2v-.11A4.78,4.78,0,0,0,313.87,25.15Zm0,13.22a11.86,11.86,0,0,0-.35-1.22,1,1,0,0,0-.51-.38c-.32-.13-.4.13-.48.38l-.72,2a1.57,1.57,0,0,1-.24.43.59.59,0,0,1-.7.14.71.71,0,0,1-.32-1c0-.13.09-.26.13-.38.14-.39.27-.76.42-1.13a1.45,1.45,0,0,1,.11-.26,1.45,1.45,0,0,0,.11-.42c0-.27-.11-.47-.52-.63-.42.28-.84.56-1.22.87a5.69,5.69,0,0,0-1.7,2.06,3.2,3.2,0,0,0,.46,3.62,3.1,3.1,0,0,0,3.37,1.08A3.18,3.18,0,0,0,314,40.82,5.78,5.78,0,0,0,313.85,38.37ZM309.43,34c-.62,0-1.24,0-1.87-.06h-.29c-.45,0-.79-.2-.77-.7a.67.67,0,0,1,.22-.49.94.94,0,0,1,.61-.14c.85,0,1.68.05,2.54.07.1-.25.19-.48.29-.75-.38-.34-.75-.64-1.07-1l-.33-.3a4.42,4.42,0,0,0-2.36-.92,3.33,3.33,0,0,0-3.23,5.08,3.26,3.26,0,0,0,3.13,1.68,5.37,5.37,0,0,0,2.48-.82,11.29,11.29,0,0,0,.94-.65.49.49,0,0,0,.22-.62A.45.45,0,0,0,309.43,34Z"/><polygon class="cls-1" points="315.78 22.17 315.76 22.17 315.78 22.14 315.78 22.17"/><path class="cls-1" d="M313.72,28.3v.08a15.84,15.84,0,0,1-.25,1.66.74.74,0,0,0,.25-.53c.07-.46.15-.92.23-1.37Zm-2.65,8.86v0a1.45,1.45,0,0,1,.11-.26,1.45,1.45,0,0,0,.11-.42C311.22,36.72,311.14,36.94,311.07,37.16Z"/><path class="cls-1" d="M318.64,29.71c-.2-.38-.63-.38-1.12,0s-1.19.81-1.79,1.19a.42.42,0,0,1-.43,0c-.17-.13-.43-.36-.4-.51a8.24,8.24,0,0,1,.47-1.82,4.53,4.53,0,0,0-1,2.48c0,.12.19.29.32.4a.38.38,0,0,0,.33,0c.46-.3.91-.62,1.37-.94s.72-.24.89.05,0,.59-.28.79-.93.61-1.37,1a.4.4,0,0,0-.12.37c0,.14.19.35.28.35.69,0,1.37,0,2,0,0,0,0,0,0-.09-.36,0-.71,0-1.07,0-.14,0-.32-.27-.37-.44a.56.56,0,0,1,.15-.49c.58-.43,1.17-.83,1.77-1.22C318.7,30.48,318.9,30.17,318.64,29.71Zm0,0c-.2-.38-.63-.38-1.12,0s-1.19.81-1.79,1.19a.42.42,0,0,1-.43,0c-.17-.13-.43-.36-.4-.51a8.24,8.24,0,0,1,.47-1.82,4.53,4.53,0,0,0-1,2.48c0,.12.19.29.32.4a.38.38,0,0,0,.33,0c.46-.3.91-.62,1.37-.94s.72-.24.89.05,0,.59-.28.79-.93.61-1.37,1a.4.4,0,0,0-.12.37c0,.14.19.35.28.35.69,0,1.37,0,2,0,0,0,0,0,0-.09-.36,0-.71,0-1.07,0-.14,0-.32-.27-.37-.44a.56.56,0,0,1,.15-.49c.58-.43,1.17-.83,1.77-1.22C318.7,30.48,318.9,30.17,318.64,29.71Z"/></g></g></svg>