<svg xmlns="http://www.w3.org/2000/svg" viewBox="0 0 282.05 66.43"><defs><style>.cls-1{fill:#a6a8ab;}</style></defs><title>logo-4</title><g id="Layer_2" data-name="Layer 2"><g id="Layer_1-2" data-name="Layer 1"><path class="cls-1" d="M13.42,20.1a2.9,2.9,0,0,0-.81.1,1.46,1.46,0,0,0-1.06,1,2.46,2.46,0,0,0-.17.88v8.27H5.74c-.65,0-1.22,0-1.71-.07A9.09,9.09,0,0,1,2.68,30a6.55,6.55,0,0,1-1.18-.4c-.37-.16-.84-.39-1.4-.7l1.25-2.74a8.17,8.17,0,0,0,1.9.83,6.8,6.8,0,0,0,1.66.2H8.29v-5a6.76,6.76,0,0,1,.4-2.41A4,4,0,0,1,10,18.06a4.49,4.49,0,0,1,1.64-.8A8.36,8.36,0,0,1,13.69,17h3.76v7.88h2V28H14.36V20.1Zm-9.3,1.78a1.44,1.44,0,0,1-.53-1.22,1.49,1.49,0,0,1,.51-1.17A1.83,1.83,0,0,1,5.35,19a1.84,1.84,0,0,1,1.26.45,1.49,1.49,0,0,1,.51,1.17,1.44,1.44,0,0,1-.54,1.22,2,2,0,0,1-2.46,0Zm0,3.95a1.45,1.45,0,0,1-.53-1.22,1.47,1.47,0,0,1,.51-1.17A1.83,1.83,0,0,1,5.35,23a1.84,1.84,0,0,1,1.26.45,1.47,1.47,0,0,1,.51,1.17,1.46,1.46,0,0,1-.54,1.22,2,2,0,0,1-2.46,0Z"/><path class="cls-1" d="M20.92,24.89V17H24V28h-5.4V24.89Zm.26-9.39a1.46,1.46,0,0,1-.54-1.22,1.49,1.49,0,0,1,.51-1.18,1.88,1.88,0,0,1,1.26-.44,1.92,1.92,0,0,1,1.26.44,1.49,1.49,0,0,1,.51,1.18,1.46,1.46,0,0,1-.54,1.22,2,2,0,0,1-2.46,0Z"/><path class="cls-1" d="M35.22,29.05a4,4,0,0,1-.83,1.6,3.81,3.81,0,0,1-1.57,1.05,6.67,6.67,0,0,1-2.39.37l-.71,0c-.22,0-.43,0-.65-.09l-.65-.13-.93-.26-.22-3.14a14.47,14.47,0,0,0,1.71.44,6.81,6.81,0,0,0,1.27.11,7.93,7.93,0,0,0,.9,0,1.68,1.68,0,0,0,.62-.18,1,1,0,0,0,.38-.37,1,1,0,0,0,.16-.41h0a10.14,10.14,0,0,1-2.58-.31,6,6,0,0,1-2.11-1A4.66,4.66,0,0,1,26.19,25a5.55,5.55,0,0,1-.52-2.5,5,5,0,0,1,.5-2.3,4.94,4.94,0,0,1,1.39-1.72,5.93,5.93,0,0,1,2.09-1.08A8.93,8.93,0,0,1,32.3,17h3.18l0,10A8,8,0,0,1,35.22,29.05ZM29,23.53a2,2,0,0,0,.58.74,2.58,2.58,0,0,0,.87.46,3.59,3.59,0,0,0,1.11.16h.86V20.1h-.86a3.13,3.13,0,0,0-1.05.18,3,3,0,0,0-.89.48,2.32,2.32,0,0,0-.61.75,2.11,2.11,0,0,0-.22,1A2.44,2.44,0,0,0,29,23.53Z"/><path class="cls-1" d="M37.66,32a4.22,4.22,0,0,1-.79-.18l-.22-3.11c.45.11.76.18.94.21a4.93,4.93,0,0,0,.55,0,1,1,0,0,0,.9-.34,2.19,2.19,0,0,0,.25-1.24V17h3.09v7.88h2V28h-2a4.72,4.72,0,0,1-1,3.05,3.67,3.67,0,0,1-2.89,1A6.23,6.23,0,0,1,37.66,32Z"/><path class="cls-1" d="M47.43,24.89V17h3.09v7.88H54V28H43.54V24.89ZM45.64,15.5a1.58,1.58,0,0,1,0-2.3,1.75,1.75,0,0,1,1.2-.43,1.72,1.72,0,0,1,1.2.43,1.38,1.38,0,0,1,.5,1.13A1.43,1.43,0,0,1,48,15.5a1.95,1.95,0,0,1-2.39,0Zm4,0a1.58,1.58,0,0,1,0-2.3,1.92,1.92,0,0,1,2.42,0,1.59,1.59,0,0,1,0,2.3,1.95,1.95,0,0,1-2.39,0Z"/><path class="cls-1" d="M64.69,24.89V23.14a3.35,3.35,0,0,0-.11-.9,2,2,0,0,0-.34-.67,1.5,1.5,0,0,0-.58-.45,1.82,1.82,0,0,0-.81-.18H55a6.06,6.06,0,0,1-.71-1.26,4.76,4.76,0,0,1-.31-1.62L57,12.4h3.35L57.5,17.87h5.09a7,7,0,0,1,2.29.34,4.27,4.27,0,0,1,1.74,1.13,3.74,3.74,0,0,1,.91,1.7,9.12,9.12,0,0,1,.25,2.21v1.64h2V28H53.09V24.89Z"/><path class="cls-1" d="M70.76,24.89V12.4h4.3v3.09H73.85V28H68.94V24.89Z"/><path class="cls-1" d="M81.89,24.89a3.8,3.8,0,0,0,1.1-.15,2.48,2.48,0,0,0,.86-.43,1.9,1.9,0,0,0,.5-.7,2.5,2.5,0,0,0,.19-1.05V11h4.3v3.09H87.63v8.36a7.15,7.15,0,0,1-.37,2.3,4.29,4.29,0,0,1-1.1,1.81,4.91,4.91,0,0,1-2.06,1.08,10.88,10.88,0,0,1-2.75.32H76.68l-.37-3.09ZM78.61,32a2.42,2.42,0,0,1-.7-2v-1.1h4.36v1.88H79.88a.51.51,0,0,0,.16.28.86.86,0,0,0,.61.16h1v1.33H80.5A2.83,2.83,0,0,1,78.61,32Zm3.47-17.84V24.44H79V14.15Z"/><path class="cls-1" d="M94.72,12.4V28H91.63V12.4Z"/><path class="cls-1" d="M106.91,30.22a6.35,6.35,0,0,1-1.3-.28,5.42,5.42,0,0,1-1.09-.5,5.17,5.17,0,0,1-1-.74,3.59,3.59,0,0,1-1-1.76,8.86,8.86,0,0,1-.29-2.26V18.35h3.1v6a5.11,5.11,0,0,0,.15,1.34,1.72,1.72,0,0,0,.53.85,2.62,2.62,0,0,0,1.13.52,7.65,7.65,0,0,0,1.5.14h1.25V12.4h4.31v3.09H113V30.31h-4.53A12.1,12.1,0,0,1,106.91,30.22Z"/><path class="cls-1" d="M127,24.89V28h-1.78a5.66,5.66,0,0,1-.36,1.52,3.65,3.65,0,0,1-.89,1.36,3.94,3.94,0,0,1-1.52.9,6.83,6.83,0,0,1-2.2.31l-.72,0c-.22,0-.43,0-.64-.09l-.65-.13-.93-.26-.23-3.14a14.47,14.47,0,0,0,1.71.44,6.88,6.88,0,0,0,1.27.11,7.82,7.82,0,0,0,.9,0,1.68,1.68,0,0,0,.63-.18,1,1,0,0,0,.38-.37,1.14,1.14,0,0,0,.16-.41h0a10.14,10.14,0,0,1-2.58-.31,6,6,0,0,1-2.1-1A4.59,4.59,0,0,1,116,25a5.55,5.55,0,0,1-.52-2.5,5.15,5.15,0,0,1,.5-2.3,5.05,5.05,0,0,1,1.39-1.72,6,6,0,0,1,2.09-1.08,8.93,8.93,0,0,1,2.65-.38h3.18l0,7.88Zm-8.21-1.36a2,2,0,0,0,.57.74,2.63,2.63,0,0,0,.88.46,3.59,3.59,0,0,0,1.11.16h.85V20.1h-.85a3.15,3.15,0,0,0-1.06.18,3,3,0,0,0-.89.48,2.32,2.32,0,0,0-.61.75,2.11,2.11,0,0,0-.22,1A2.31,2.31,0,0,0,118.81,23.53Z"/><path class="cls-1" d="M130.34,24.89V28h-4.15V24.89Z"/><path class="cls-1" d="M133.63,24.89V28h-4.15V24.89Z"/><path class="cls-1" d="M136.93,24.89V28h-4.15V24.89Z"/><path class="cls-1" d="M137.81,24.89l0-.31c0-.2,0-.42,0-.64a5.75,5.75,0,0,1,.46-2.32,6.12,6.12,0,0,1,1.23-1.88,5.7,5.7,0,0,1,1.85-1.27,5.4,5.4,0,0,1,2.27-.47,5.73,5.73,0,0,1,2.3.46,6,6,0,0,1,1.88,1.25A5.76,5.76,0,0,1,149,21.59a5.87,5.87,0,0,1,.46,2.35,5.66,5.66,0,0,1-1.77,4.14,6.09,6.09,0,0,1-1.88,1.22,5.72,5.72,0,0,1-2.25.45,5.62,5.62,0,0,1-2.34-.5A5.81,5.81,0,0,1,139.39,28h-3.32V24.89Zm6.85,1.56a2.68,2.68,0,0,0,.9-.58,2.53,2.53,0,0,0,.59-.87,2.67,2.67,0,0,0,.22-1.1,3,3,0,0,0-.21-1.12,2.66,2.66,0,0,0-.57-.89,2.81,2.81,0,0,0-.9-.59,3,3,0,0,0-1.13-.21,2.59,2.59,0,0,0-1.09.22,2.77,2.77,0,0,0-.86.6,2.64,2.64,0,0,0-.56.89,3,3,0,0,0-.21,1.1,2.82,2.82,0,0,0,.21,1.09,2.6,2.6,0,0,0,.56.88,2.63,2.63,0,0,0,.87.57,2.74,2.74,0,0,0,1.08.22A3,3,0,0,0,144.66,26.45Z"/><path class="cls-1" d="M159.51,30.24a9.09,9.09,0,0,1-1.35-.21,6.55,6.55,0,0,1-1.18-.4c-.37-.16-.84-.39-1.4-.7l1.25-2.74a8.17,8.17,0,0,0,1.9.83,6.86,6.86,0,0,0,1.66.2h3.39v-5a6.54,6.54,0,0,1,.4-2.41,4,4,0,0,1,1.29-1.74,4.57,4.57,0,0,1,1.64-.8,8.39,8.39,0,0,1,2.07-.25h3.76V28h-3.09V20.1h-.95a2.78,2.78,0,0,0-.8.1,1.55,1.55,0,0,0-.63.31,1.69,1.69,0,0,0-.44.65,2.44,2.44,0,0,0-.16.88v8.27h-5.64C160.57,30.31,160,30.28,159.51,30.24Zm.1-8.36a1.44,1.44,0,0,1-.54-1.22,1.49,1.49,0,0,1,.51-1.17,2,2,0,0,1,2.51,0,1.49,1.49,0,0,1,.51,1.17,1.44,1.44,0,0,1-.54,1.22,1.92,1.92,0,0,1-1.22.42A2,2,0,0,1,159.61,21.88Zm0,3.95a1.46,1.46,0,0,1-.54-1.22,1.47,1.47,0,0,1,.51-1.17,2,2,0,0,1,2.51,0,1.47,1.47,0,0,1,.51,1.17,1.46,1.46,0,0,1-.54,1.22,1.92,1.92,0,0,1-1.22.42A2,2,0,0,1,159.61,25.83Z"/><path class="cls-1" d="M175.12,32a4.22,4.22,0,0,1-.79-.18l-.22-3.11c.45.11.76.18.94.21a4.93,4.93,0,0,0,.55,0,1,1,0,0,0,.9-.34,2.19,2.19,0,0,0,.25-1.24V17h3.09V27a10.37,10.37,0,0,1-.21,2.23,3.93,3.93,0,0,1-.7,1.59,2.87,2.87,0,0,1-1.24.93,5.17,5.17,0,0,1-1.81.29A6.23,6.23,0,0,1,175.12,32Z"/><path class="cls-1" d="M187.05,24.89a3.85,3.85,0,0,0,1.1-.15,2.43,2.43,0,0,0,.85-.43,1.92,1.92,0,0,0,.51-.7,2.67,2.67,0,0,0,.18-1.05V11H194v3.09h-1.22v8.36a7,7,0,0,1-.18,1.64,3.5,3.5,0,0,0,2.66.78V28a6.54,6.54,0,0,1-1.75-.18,3.91,3.91,0,0,1-1-.46,2.51,2.51,0,0,1-.7-.62c-.17-.23-.26-.34-.26-.32s0,.05-.19.18a4.87,4.87,0,0,1-2.05,1.08,10.88,10.88,0,0,1-2.75.32h-4.67l-.37-3.09Zm.19-10.74V24.44h-3.09V14.15Z"/><path class="cls-1" d="M196.66,24.89a4,4,0,0,1-.4-.88,4.33,4.33,0,0,1-.25-1.52,5.28,5.28,0,0,1,.47-2.3,5,5,0,0,1,1.34-1.73,5.87,5.87,0,0,1,2.06-1.08A8.69,8.69,0,0,1,202.5,17h3.32V28H194.41V24.89Zm1.88-9.39a1.4,1.4,0,0,1-.5-1.17,1.41,1.41,0,0,1,.49-1.13,1.89,1.89,0,0,1,2.4,0,1.56,1.56,0,0,1,0,2.3,1.93,1.93,0,0,1-2.38,0Zm.91,8.4a3,3,0,0,0,.89,1h2.39V20.1h-.86a3.63,3.63,0,0,0-1,.16,2.94,2.94,0,0,0-.9.46,2.33,2.33,0,0,0-.61.74,2.14,2.14,0,0,0-.23,1A2.83,2.83,0,0,0,199.45,23.9Zm3.13-8.4a1.4,1.4,0,0,1-.5-1.17,1.41,1.41,0,0,1,.49-1.13,1.9,1.9,0,0,1,2.41,0,1.43,1.43,0,0,1,.48,1.13,1.4,1.4,0,0,1-.5,1.17,1.93,1.93,0,0,1-2.38,0Z"/><path class="cls-1" d="M4.73,48.94a7.34,7.34,0,0,1-2.54-1.69A7.65,7.65,0,0,1,.57,44.69a9.18,9.18,0,0,1,0-6.37,7.65,7.65,0,0,1,1.62-2.56,7.21,7.21,0,0,1,2.54-1.69,8.63,8.63,0,0,1,3.33-.61,13.36,13.36,0,0,1,3.16.36,9.53,9.53,0,0,1,2.65,1.09l-1.21,2.81a8.19,8.19,0,0,0-2.11-.93,9,9,0,0,0-2.38-.29,5.75,5.75,0,0,0-1.86.29,4.26,4.26,0,0,0-1.53.92,4.67,4.67,0,0,0-1.06,1.57,6.54,6.54,0,0,0,0,4.45A4.78,4.78,0,0,0,4.78,45.3a4.15,4.15,0,0,0,1.53.93,5.75,5.75,0,0,0,1.86.3,7.51,7.51,0,0,0,1.56-.16A5.79,5.79,0,0,0,11,46V43.64H7.65v-3h6.54v7.43a7,7,0,0,1-1.41.68,12,12,0,0,1-1.54.44,14.4,14.4,0,0,1-1.62.27,14.14,14.14,0,0,1-1.56.09A8.82,8.82,0,0,1,4.73,48.94Z"/><path class="cls-1" d="M17.07,33.74h3.09V49.32H17.07Z"/><path class="cls-1" d="M25.39,49.35a5.45,5.45,0,0,1-1.66-.62,3.36,3.36,0,0,1-1.16-1.15,3.24,3.24,0,0,1-.45-1.76A3.37,3.37,0,0,1,23.59,43a5,5,0,0,1,1.62-.7,8.13,8.13,0,0,1,2-.24l1,0a9,9,0,0,1,1,.11,1.19,1.19,0,0,0-.69-.91,3.88,3.88,0,0,0-1.6-.27,5.5,5.5,0,0,0-.86.08c-.31,0-.63.11-1,.19a9.34,9.34,0,0,0-.94.29c-.3.11-.72.29-1.24.54l.41-3.24a8.93,8.93,0,0,1,1.79-.61A8.66,8.66,0,0,1,27.22,38a7.47,7.47,0,0,1,1.94.24,4.19,4.19,0,0,1,1.56.75,3.5,3.5,0,0,1,1,1.37,5,5,0,0,1,.38,2v6.27a12.11,12.11,0,0,1-2.4.68,14.1,14.1,0,0,1-2.41.21A9.46,9.46,0,0,1,25.39,49.35Zm3-4.73a7,7,0,0,0-.88-.06,6.13,6.13,0,0,0-.89.06,2.5,2.5,0,0,0-.71.2,1.06,1.06,0,0,0-.45.33.84.84,0,0,0-.15.5.83.83,0,0,0,.57.81,3.64,3.64,0,0,0,1.48.26,6.19,6.19,0,0,0,.95-.08,5.39,5.39,0,0,0,.72-.15V44.72C28.93,44.7,28.72,44.66,28.4,44.62Z"/><path class="cls-1" d="M39.3,41.17h-.42l-.59,0-.86.11q-.54.07.12-.15v8.15H34.46V38.67c.46-.08.88-.16,1.25-.21s.74-.1,1.11-.14l1.07-.09c.35,0,.66,0,.93,0H41v3Z"/><path class="cls-1" d="M43.72,50.16q.47.14,1,.24a8.66,8.66,0,0,0,1,.17,6.75,6.75,0,0,0,.84.06,5.4,5.4,0,0,0,1-.1,2.43,2.43,0,0,0,.8-.29,1.45,1.45,0,0,0,.49-.46l.17-.27.11-.34a9.38,9.38,0,0,1-2,.19,8.79,8.79,0,0,1-1.9-.2,3.77,3.77,0,0,1-1.54-.71,3.46,3.46,0,0,1-1-1.41,6.15,6.15,0,0,1-.35-2.22V38.34h3.11v5.73a5,5,0,0,0,.11,1.13,1.72,1.72,0,0,0,.32.68,1.1,1.1,0,0,0,.55.34,2.9,2.9,0,0,0,.84.11,6.58,6.58,0,0,0,.87-.06A5.33,5.33,0,0,0,49,46.1V38.34h3.09v9.94a9.44,9.44,0,0,1-.28,2.43,3.44,3.44,0,0,1-1,1.63,4,4,0,0,1-1.77.9,11.24,11.24,0,0,1-2.68.27,6.41,6.41,0,0,1-.73,0c-.27,0-.54-.06-.81-.1s-.55-.09-.81-.15a7.08,7.08,0,0,1-.87-.23l-.69-3.31A12.12,12.12,0,0,0,43.72,50.16Z"/><path class="cls-1" d="M70.66,33.74v3h-7v3.11H70v3H63.69v3.5h7v3H60.53V33.74Z"/><path class="cls-1" d="M72.93,33.74H76V49.32H72.93Z"/><path class="cls-1" d="M84.83,46.44a6.49,6.49,0,0,0,.84-.19A3.69,3.69,0,0,0,86.4,46a2.74,2.74,0,0,0,.75-.57l1.4,2.83a11.08,11.08,0,0,1-2.19.95,9,9,0,0,1-2.71.35,6.41,6.41,0,0,1-2.38-.43,6,6,0,0,1-1.91-1.21,5.49,5.49,0,0,1-1.26-1.84,6,6,0,0,1-.44-2.29,5.89,5.89,0,0,1,.45-2.32,5.59,5.59,0,0,1,3.1-3A6,6,0,0,1,83.47,38a5.85,5.85,0,0,1,2.32.45,5.09,5.09,0,0,1,1.83,1.31,5.9,5.9,0,0,1,1.16,2.11,9,9,0,0,1,.35,3H80.9A1.86,1.86,0,0,0,81.81,46a3.64,3.64,0,0,0,1.92.47H84A4.78,4.78,0,0,0,84.83,46.44Zm-3-5.16a2,2,0,0,0-.79.95h4.86a1.74,1.74,0,0,0-.78-1,2.9,2.9,0,0,0-1.64-.43A2.61,2.61,0,0,0,81.78,41.28Z"/><path class="cls-1" d="M90.5,41.48a5.53,5.53,0,0,1,1.22-1.84,5.66,5.66,0,0,1,1.87-1.22A6.12,6.12,0,0,1,95.92,38a7.83,7.83,0,0,1,2,.24,9.08,9.08,0,0,1,1.93.75l-1.25,2.79a6.12,6.12,0,0,0-1.31-.57A4.33,4.33,0,0,0,96,41a3.19,3.19,0,0,0-1.15.19,2.61,2.61,0,0,0-.87.56,2.42,2.42,0,0,0-.54.87,2.88,2.88,0,0,0-.2,1.13,2.93,2.93,0,0,0,.2,1.14,2.38,2.38,0,0,0,.54.86,2.75,2.75,0,0,0,.87.55,3.19,3.19,0,0,0,1.15.19,4.7,4.7,0,0,0,1.27-.16,4.79,4.79,0,0,0,1.31-.6l1.25,2.83a9,9,0,0,1-1.93.74,8.33,8.33,0,0,1-2,.22,6.11,6.11,0,0,1-2.33-.43,5.8,5.8,0,0,1-1.87-1.21,5.59,5.59,0,0,1-1.22-1.83,6.21,6.21,0,0,1,0-4.59Z"/><path class="cls-1" d="M102.18,38.36V34.52h3.09v3.84h4v2.9h-4v3.56a3.56,3.56,0,0,0,.08.81,1,1,0,0,0,.25.46,1.07,1.07,0,0,0,.49.24,3,3,0,0,0,.8.09h2.44v2.9h-2.72a9.38,9.38,0,0,1-2-.18,3.32,3.32,0,0,1-1.39-.6,2.4,2.4,0,0,1-.83-1.12,4.8,4.8,0,0,1-.26-1.67V41.26h-2v-2.9Z"/><path class="cls-1" d="M116,41.17h-.43l-.59,0-.85.11q-.55.07.12-.15v8.15h-3.09V38.67c.46-.08.87-.16,1.25-.21s.74-.1,1.1-.14l1.07-.09c.35,0,.66,0,.94,0h2.21v3Z"/><path class="cls-1" d="M122,49.1a6,6,0,0,1-1.87-1.21,5.35,5.35,0,0,1-1.26-1.83,5.61,5.61,0,0,1-.46-2.29,5.55,5.55,0,0,1,.46-2.27A5.88,5.88,0,0,1,122,38.43a6,6,0,0,1,6.54,1.24,6.1,6.1,0,0,1,1.26,1.83,5.71,5.71,0,0,1,.45,2.27,5.78,5.78,0,0,1-.45,2.29,5.64,5.64,0,0,1-1.26,1.83,6.2,6.2,0,0,1-1.87,1.21,6.42,6.42,0,0,1-4.67,0Zm3.46-2.8a2.84,2.84,0,0,0,.85-.58,2.4,2.4,0,0,0,.53-.87,2.92,2.92,0,0,0,.19-1.08,3,3,0,0,0-.19-1.08,2.44,2.44,0,0,0-.53-.86,2.87,2.87,0,0,0-.85-.59,3,3,0,0,0-2.26,0,2.82,2.82,0,0,0-.84.59,2.33,2.33,0,0,0-.54.86,3.23,3.23,0,0,0-.19,1.08,3.14,3.14,0,0,0,.19,1.08,2.29,2.29,0,0,0,.54.87,2.8,2.8,0,0,0,.84.58,3.15,3.15,0,0,0,2.26,0Z"/><path class="cls-1" d="M133.4,38.31c.44-.07.86-.12,1.29-.17l1.19-.11c.37,0,.71-.05,1-.05a9.41,9.41,0,0,1,2,.2,4.11,4.11,0,0,1,1.62.72,3.64,3.64,0,0,1,1.11,1.4,5.35,5.35,0,0,1,.41,2.23v6.79h-3.1v-6a2.38,2.38,0,0,0-.52-1.79,2.29,2.29,0,0,0-1.58-.46c-.27,0-.57,0-.9,0l-.85.12v8.13h-3.09V38.56Z"/><path class="cls-1" d="M144.61,36.78a1.44,1.44,0,0,1-.54-1.22,1.49,1.49,0,0,1,.51-1.17,2,2,0,0,1,2.51,0,1.51,1.51,0,0,1,.5,1.17,1.57,1.57,0,0,1-.49,1.2,1.84,1.84,0,0,1-1.26.44A2,2,0,0,1,144.61,36.78Zm2.77,1.58v11h-3.09v-11Z"/><path class="cls-1" d="M149.44,41.48a5.41,5.41,0,0,1,1.23-1.84,5.72,5.72,0,0,1,1.86-1.22,6.21,6.21,0,0,1,2.34-.44,7.88,7.88,0,0,1,2,.24,9.29,9.29,0,0,1,1.93.75l-1.25,2.79a6.35,6.35,0,0,0-1.31-.57A4.4,4.4,0,0,0,155,41a3.17,3.17,0,0,0-1.14.19,2.51,2.51,0,0,0-.87.56,2.44,2.44,0,0,0-.55.87,3.08,3.08,0,0,0-.2,1.13,3.13,3.13,0,0,0,.2,1.14,2.4,2.4,0,0,0,.55.86,2.64,2.64,0,0,0,.87.55,3.17,3.17,0,0,0,1.14.19,4.78,4.78,0,0,0,1.28-.16,4.92,4.92,0,0,0,1.31-.6l1.25,2.83a9.22,9.22,0,0,1-1.93.74,8.39,8.39,0,0,1-2,.22,6.2,6.2,0,0,1-2.34-.43,5.86,5.86,0,0,1-1.86-1.21,5.47,5.47,0,0,1-1.23-1.83,6.21,6.21,0,0,1,0-4.59Z"/><path class="cls-1" d="M169.39,38V49.32h-3.16V33.74h5l3.11,12,3.14-12h4.94V49.32h-3.17V38l-3.05,11.3h-3.71Z"/><path class="cls-1" d="M188,49.35a5.39,5.39,0,0,1-1.65-.62,3.48,3.48,0,0,1-1.17-1.15,3.24,3.24,0,0,1-.45-1.76A3.42,3.42,0,0,1,186.17,43a4.91,4.91,0,0,1,1.61-.7,8.21,8.21,0,0,1,2-.24l.94,0a9,9,0,0,1,1,.11,1.15,1.15,0,0,0-.69-.91,3.84,3.84,0,0,0-1.6-.27,5.38,5.38,0,0,0-.85.08c-.31,0-.63.11-1,.19a8.6,8.6,0,0,0-.94.29,13.45,13.45,0,0,0-1.24.54l.41-3.24A9.55,9.55,0,0,1,189.8,38a7.39,7.39,0,0,1,1.93.24,4.16,4.16,0,0,1,1.57.75,3.59,3.59,0,0,1,1,1.37,5,5,0,0,1,.37,2v6.27a12,12,0,0,1-2.39.68,14.19,14.19,0,0,1-2.41.21A9.63,9.63,0,0,1,188,49.35Zm3-4.73a7.12,7.12,0,0,0-.89-.06,6.13,6.13,0,0,0-.89.06,2.71,2.71,0,0,0-.71.2,1.09,1.09,0,0,0-.44.33.84.84,0,0,0-.15.5.83.83,0,0,0,.57.81,3.6,3.6,0,0,0,1.48.26,6.07,6.07,0,0,0,.94-.08,5.27,5.27,0,0,0,.73-.15V44.72Z"/><path class="cls-1" d="M197,33.74h3.09V49.32H197Z"/><path class="cls-1" d="M202.66,33.74h3.09V49.32h-3.09Z"/><path class="cls-1" d="M252.23,23.69h-6.79a3.33,3.33,0,0,1,3.34-3.39A3.39,3.39,0,0,1,252.23,23.69Z"/><path class="cls-1" d="M257.24,39.67A2,2,0,0,1,255.43,42a7,7,0,0,1-.92.05c-3.8,0-7.59,0-11.38,0a4.88,4.88,0,0,1-1.91-.47A1.51,1.51,0,0,1,240.4,40c.37-4.31.76-8.6,1.15-12.91,0-.63.11-1.26.17-1.94H244v1.17c0,1.19.17,1.58.7,1.51s.72-.19.67-1.53c0-.36,0-.73,0-1.15h7v1.15c0,.23,0,.45,0,.61.06.69.23.92.64.92s.69-.33.69-1.57V25.14h2.27l.36,4c.09,1,.19,2.05.27,3.07C256.79,34.72,257,37.2,257.24,39.67Z"/><path class="cls-1" d="M248.83,0a33.22,33.22,0,1,0,33.22,33.21A33.21,33.21,0,0,0,248.83,0Zm18.81,52A26.62,26.62,0,0,1,230,52,26.61,26.61,0,0,1,259.2,8.7c.73.31,1.46.66,2.17,1l.21.11a1.86,1.86,0,0,1,.2.14,2.47,2.47,0,0,1,.27.21,1,1,0,0,1,.26.23,2.61,2.61,0,0,1,.23.25,2.48,2.48,0,0,1,.19.26l0,0a2.09,2.09,0,0,1,.17.28,2.47,2.47,0,0,1,.26.63v0a2.68,2.68,0,0,1,.07.27.64.64,0,0,1,0,.07s0,0,0,.06,0,.2,0,.3a2.11,2.11,0,0,1,0,.36,3.6,3.6,0,0,1-.62,2,3.8,3.8,0,0,1-.69.76,3.56,3.56,0,0,1-2.28.82l-.36,0-.37-.05c-.11,0-.23-.06-.34-.09l-.34-.13-.14-.05-.17-.1-.16-.09A19.42,19.42,0,1,0,268.26,33.2a19.08,19.08,0,0,0-1.65-7.81l-8.51,6-.11.1-.11.08c.09,1,.16,1.95.25,2.92.15,1.6.17,3.23.45,4.8a3.53,3.53,0,0,1-3.67,4.15c-2,0-4.08,0-6.12,0s-4,0-6,0a3.55,3.55,0,0,1-3.67-2.62,2.43,2.43,0,0,1-.06-.85c.33-3.87.68-7.72,1-11.58.09-1.15.21-2.31.29-3.47s.19-1.18,1.24-1.19c.61,0,1.22,0,1.83,0,.42,0,.55-.15.61-.56a4.8,4.8,0,0,1,7.21-3.56,4.63,4.63,0,0,1,2.36,3.6c0,.38.16.53.55.52.72,0,1.43,0,2.15,0h.2l6-4.27,5.93-4.18a26.37,26.37,0,0,1,4.09,5.9c.28.54.53,1.11.77,1.66A26.57,26.57,0,0,1,267.64,52Z"/></g></g></svg>