<svg xmlns="http://www.w3.org/2000/svg" viewBox="0 0 102.72 102.7"><defs><style>.cls-1{fill:#010101;}.cls-2{fill:#a9daf5;}.cls-3{fill:#40c4ea;}.cls-4{fill:#427b97;}.cls-5{fill:#89c2df;}.cls-6{fill:#a9d9f4;}.cls-7{fill:#ffc229;}.cls-8{fill:#f68d37;}.cls-9{fill:#89ca8c;}.cls-10{fill:#6eaac8;}.cls-11{fill:#f26f21;}.cls-12{fill:#63be80;}.cls-13{fill:#31b2e5;}.cls-14{fill:#f8af1a;}.cls-15{fill:#f08b36;}.cls-16{fill:#427c99;}.cls-17{fill:#427b98;}.cls-18{fill:#020506;}.cls-19{fill:#020406;}.cls-20{fill:#030607;}.cls-21{fill:#44809e;}.cls-22{fill:#d47c31;}.cls-23{fill:#f48d37;}.cls-24{fill:#d57d31;}.cls-25{fill:#d67d31;}.cls-26{fill:#f08b37;}</style></defs><title>p-4</title><g id="Layer_2" data-name="Layer 2"><g id="Layer_1-2" data-name="Layer 1"><path class="cls-1" d="M1.88,72.21c-.6-.43-1.64-.6-1.57-1.5.3-3.53-1-7.26,1.19-10.57.26-.38.72-.72.29-1.23C-.61,56.11.44,52.73.3,49.58a46.48,46.48,0,0,1,.07-9.14,31.82,31.82,0,0,0,.08-10C-.28,25.76,0,20.89.34,16.14S2.67,6.79,4.57,2.39c1.21-2.82,7.65-3.17,10-.91.21,2.8-2,2.21-3.47,2.34-3.52.3-4.44,1.26-4.43,5a4.16,4.16,0,0,0,2.52.31H48.68a5.41,5.41,0,0,0,1.14,0c1-.24,2.72.47,2.86-1a3.54,3.54,0,0,0-2.34-3.86,11.38,11.38,0,0,0-3.68-.35c-9-.09-18.1.18-27.15-.14-1.07-.37-2-.83-1.59-2.25C18.28.37,19.16.22,20.18.22q15.45,0,30.89,0a4.2,4.2,0,0,1,4.38,3C57,8.44,59.78,13.38,59.31,19.1c-.06.66-.39,1.72.83,1.74.94,0,2,.48,2.57-1,.72-2.15,1.93-4.15,2.52-6.32.69-2.54,2.16-3.37,4.57-3,2.6.45,3.63-.3,3.47-3.23C73,2.19,74,1.43,79.19,1.43c3.52,0,7,0,10.58,0,3.1.05,4.35,1.26,4.4,4.32q.09,6.28,0,12.58c0,2.94-1.28,4.16-4.18,4.19-4.19,0-8.39,0-12.58,0-2.9,0-4.1-1.24-4.22-4.16a11,11,0,0,0,0-2c-.23-1,.89-2.76-1.21-2.87-1.68-.09-3.65-.69-4.25,2A36.76,36.76,0,0,1,66,19.68c-.93,2.56-1.79,5.09-5.41,4.35-1.22-.25-1.26.69-1.33,1.64-.24,3.14.93,6.54-1.62,9.29a.84.84,0,0,0,.09.76c2.14,2.43,1.53,5.4,1.5,8.19,0,1.73.64,2.18,2.18,2a10,10,0,0,1,2.57,0,2.94,2.94,0,0,0,3.76-2.43c.86-3.34,3-4.51,6.32-3.89a4.82,4.82,0,0,0,.85,0c2,0,4.39.65,5.91-.21,1.78-1,.45-3.63.74-5.52.35-2.3,1.54-3.64,4-3.65,4.38,0,8.77-.06,13.15,0,2.72,0,4,1.36,4,4.06,0,4.29,0,8.58,0,12.87,0,2.74-1.24,4-4,4-4.09.07-8.19,0-12.29,0-3.59,0-4.72-1.21-4.77-4.83,0-3.83,0-3.83-3.91-3.83a4.83,4.83,0,0,1-.85,0c-3.75-.7-6.39.37-7.36,4.38-.46,1.88-2,2-3.6,1.94-2.08-.06-4.67-.63-6.1.36s.1,3.86-.58,5.66a11.46,11.46,0,0,0,0,8.87,4.56,4.56,0,0,1,.07,1.7c0,4.12,0,4.22,4.24,4.43,2.24.11,2.86,1.89,3.55,3.26,1.23,2.4,3.19,1.92,5.12,1.91,1,0,1-.72,1-1.41,0-1,0-1.9,0-2.86C73.23,67.13,74.3,66,78,66c4,0,8,0,12,0,2.91,0,4.16,1.27,4.2,4.18q.09,6.3,0,12.58c0,3.1-1.28,4.3-4.35,4.33q-6.15.06-12.3,0c-3.06,0-4.25-1.27-4.33-4.35a5.42,5.42,0,0,1,0-1.14c.54-2.95-.63-4.14-3.6-3.6a3.62,3.62,0,0,1-4.35-2.29,11.8,11.8,0,0,0-1.46-2.1c-1-1.38-2.49-.78-3.7-.68-1.46.12-.62,1.51-.78,2.32a12.11,12.11,0,0,0,0,2c0,5.53-2.09,7.6-7.55,7.62-5,0-10.11.06-15.16,0-1.64,0-2.28.24-2.29,2.13,0,6.55-.09,6.55,6.42,6.55,5.15,0,10.3,0,15.45,0,1.31,0,2.77-.24,3.13,1.62.3,2.56-1.75,2.41-3.2,2.53-3.5.29-7,.07-10.55.12-1.09,0-2.21-.12-3.21.7q27.68.54,55.33,0c-1-1-2.1-.74-3.16-.74-8.66,0-17.32,0-26,0a11.35,11.35,0,0,1-3.68-.33c-1.22-.42-2.37-1-1.73-2.65.45-1.51,1.7-1.28,2.82-1.28,11.24,0,22.48,0,33.73,0,2.42,0,3.12.89,3.06,3.21-.17,6.8.76,5.91-6,5.92-31,0-61.94,0-92.91.07-3,0-3.75-.92-3.64-3.75.22-5.57-.7-5.44,5.42-5.41,5.82,0,11.63-.05,17.44,0,1.59,0,2.34-.18,2.34-2.11,0-6.56.13-6.56-6.41-6.56-4.2,0-8.39.09-12.58,0A6.39,6.39,0,0,1,.31,76.75a1.93,1.93,0,0,1,1.13-1.19c2-.65,2.29.74,2.45,2.13A3.31,3.31,0,0,0,6.56,81a8.85,8.85,0,0,0,3.11.28q19.81,0,39.64,0c5.27,0,6.12-.87,6.14-6.13,0-2.85,0-5.7,0-8.55-.06-4.06-.73-4.71-4.9-4.8-13.63,0-27.26,0-40.89,0-5,0-5.44.58-5.66,5.62C3.92,69.18,4.83,71.61,1.88,72.21Z"/><path class="cls-2" d="M5.73,81.56c-2.18-.17-2.49-1.73-2.49-3.44,0-1.32,0-2.54-1.8-2.56a4.81,4.81,0,0,0,.44-3.35c1.73-.76,1.36-2.31,1.33-3.68-.18-8.22.33-7.71,7.68-7.67,13.24.07,26.49.07,39.74.1,1.5.8,2.29,1.76.72,3.25a11.86,11.86,0,0,1-4.51.43H12.28c-5.23,0-5.37.15-5.37,5.49,0,1.43,0,2.86,0,4.29.15,3,.81,3.71,3.8,3.79,4.66.13,9.32,0,14,0,7.71,0,15.42,0,23.13,0,1.4,0,2.89-.2,4.07.89.4,1.69-.29,2.58-2,2.57C35.18,81.64,20.45,82,5.73,81.56Z"/><path class="cls-3" d="M17.92,1.5a1.85,1.85,0,0,0,1.26,1.72c8.94.36,17.89.09,26.83.14,1.65,0,2.93.19,3.63,2,1.37,3.49.87,4.32-2.87,4.32q-19.14,0-38.27,0c-1,0-2.1.28-3.08-.27,0-1.66.83-3.07,1.28-4.59C7.27,2.86,9,3.27,10.48,3.13s3.61,1,4.14-1.65Z"/><path class="cls-4" d="M63.11,94.83c.09,2.44,2,1.9,3.36,1.91,10,0,20,0,30,0l2,0A1.09,1.09,0,0,1,99.71,98c0,.82-.12,1.55-1.14,1.63-.48,0-.95,0-1.43,0H42.81c-.74,0-1.59.27-2.19-.31a1.91,1.91,0,0,1-.23-1.89c.21-.92,1-.69,1.64-.7,4.67,0,9.34,0,14,0,1.32,0,2.77.19,3.24-1.58C60.56,95.14,61.88,95.49,63.11,94.83Z"/><path class="cls-5" d="M5.35,57.47c-1.6-.16-2-1.41-2.07-2.63-.09-5-.11-9.91,0-14.86a3,3,0,0,1,3.31-3.14l44.59.1c1,1,1.65,2,.28,3.18a10.63,10.63,0,0,1-4.51.49c-11.72,0-23.44,0-35.15,0-4.57,0-4.86.33-4.88,4.86,0,1.43,0,2.86,0,4.29.08,3.7.71,4.36,4.33,4.44,3.34.08,6.67,0,10,0,8.76,0,17.53,0,26.29,0,1.5,0,3.08-.25,4.37.87.43,1.7-.27,2.59-2,2.58-14.77-.06-29.54.19-44.3-.13C5.24,57.57,5.73,57.52,5.35,57.47Z"/><path class="cls-6" d="M5.28,33.47c-1.79-.4-2-1.8-2-3.28,0-4.57,0-9.14,0-13.71,0-2.38,1.15-3.69,3.67-3.68q21.86.07,43.71.1c1.32.88,2.27,1.82.64,3.27a11.26,11.26,0,0,1-4.24.41c-11.72,0-23.44,0-35.15,0-4.53,0-4.92.41-5,4.87,0,1.53,0,3.05,0,4.58.11,3.34.76,4.05,4.05,4.13,4.09.11,8.19,0,12.29,0,8.1,0,16.2,0,24.3,0,1.49,0,3.08-.25,4.36.89.41,1.69-.28,2.58-2,2.57C35,33.56,20.16,34,5.28,33.47Z"/><path class="cls-7" d="M95.24,48.19c-2.85,0-5.7,0-8.55.12-1.5.06-2-.49-2-2,.07-3.7.08-7.41,0-11.11,0-1.53.52-2,2-1.9,2.84.12,5.69.09,8.54.13a3.24,3.24,0,0,1,.86,2.31q.16,5.05,0,10.11A3.14,3.14,0,0,1,95.24,48.19Z"/><path class="cls-8" d="M76.53,19.13c-.07-4.34-.11-8.69-.22-13,0-1.41.79-1.48,1.82-1.46,2.84.06,5.68.09,8.51.14,1,1.18.94,2.63.94,4.05,0,2.65.11,5.3-.06,8-.09,1.23-.19,2.63-1.94,2.59C82.56,19.29,79.53,19.67,76.53,19.13Z"/><path class="cls-9" d="M86.62,83.81c-2.83.06-5.67.06-8.51.18-1.32.05-1.86-.36-1.82-1.76.13-4.25.15-8.51.22-12.76,3-.64,6-.14,9-.29.89,0,1.63.39,1.68,1.21C87.54,74.88,88.46,79.42,86.62,83.81Z"/><path class="cls-5" d="M5.28,33.47q21.55,0,43.11-.07c1.76,0,3.31,0,3.33-2.38a28.33,28.33,0,0,0,0-15.39,6.84,6.84,0,0,0-1.13-2.73c5-.25,5.72.41,5.72,5.29,0,3.91,0,7.82,0,11.73,0,2.35-.94,3.93-3.46,3.94q-23.31.06-46.61,0C5.94,33.89,5.61,33.61,5.28,33.47Z"/><path class="cls-10" d="M5.35,57.47c14.35,0,28.7-.06,43.05,0,1.77,0,3.3-.07,3.32-2.39a28.37,28.37,0,0,0,0-15.4c-.19-.9-.39-1.8-.58-2.7,4.23-.23,5.15.6,5.17,4.68s0,8.19,0,12.28c0,2.56-1.17,4-3.74,4q-23,.06-46,0A4.32,4.32,0,0,1,5.35,57.47Z"/><path class="cls-5" d="M51.75,63.67c.23-1.15-.56-1.89-1.12-2.71,5.18-.25,5.71.26,5.71,5.52,0,3.8,0,7.6,0,11.4,0,2.58-1.21,4-3.7,4-15.39.06-30.79,0-46.18,0-.25,0-.49-.23-.74-.35,14.23,0,28.46-.1,42.69-.1,1.78,0,3.29-.09,3.29-2.4A28.14,28.14,0,0,0,51.75,63.67Z"/><path class="cls-11" d="M76.53,19.13c2.56,0,5.13-.1,7.69,0,1.83.08,2.54-.5,2.48-2.41-.13-4,0-8-.06-12,.38,0,.76-.08,1.13-.14,2.61-.43,3.81.34,3.53,3.29-.29,3.11-.06,6.28-.07,9.42,0,.93.21,2.19-1.17,2.16C85.55,19.42,81,20.12,76.53,19.13Z"/><path class="cls-12" d="M86.62,83.81c0-4-.05-8,.08-12,.06-1.92-.67-2.49-2.49-2.41-2.56.13-5.13,0-7.7,0,3.28-1.25,6.68-.44,10-.49,5.3-.07,4.68-.79,4.72,4.63,0,2.38-.18,4.77.05,7.12.26,2.63-.64,3.69-3.26,3.24C87.57,83.89,87.09,83.86,86.62,83.81Z"/><path class="cls-13" d="M5.42,9.37H49.77a24.63,24.63,0,0,1-.83-3.28c-.21-1.93-1.23-2.47-3.08-2.45-7.88.07-15.77,0-23.66,0-1,0-2.11.34-3-.43,10.26,0,20.53,0,30.79-.06a2.66,2.66,0,0,1,3,2.28c.32,1.37.86,2.68,1.45,4.43H6.19a5.93,5.93,0,0,1-.83-.12Z"/><path class="cls-14" d="M95.24,48.19V33.47c.56,0,1.13,0,1.69-.12,2.2-.35,3,.48,2.84,2.76-.2,2.63,0,5.28,0,7.93C99.72,48.43,99.72,48.43,95.24,48.19Z"/><path class="cls-15" d="M29.63,99.67c-1.81,0-3.62,0-5.44,0-1.11,0-1.81-.22-1.8-1.55s.66-1.33,1.63-1.41c4.1-.35,4.11-.38,4.27-4.27,0-1-.14-1.87,1.38-1.87,1.34,0,1.51.57,1.57,1.71.21,4.09.25,4.1,4.38,4.44.9.07,1.71,0,1.74,1.3s-.55,1.67-1.73,1.65C33.63,99.63,31.63,99.67,29.63,99.67Z"/><path class="cls-16" d="M11.21,99.67c-2.09,0-4.17,0-6.26,0-1.17,0-1.75-.43-1.71-1.67S4.16,96.77,5,96.77c4.17,0,8.34,0,12.51,0,.94,0,1.65.09,1.67,1.34s-.59,1.61-1.73,1.59C15.38,99.64,13.3,99.67,11.21,99.67Z"/><path class="cls-17" d="M29.66,84.9c1-.12,1.58.16,1.56,1.34s-.5,1.45-1.54,1.43-1.37-.28-1.4-1.27S28.49,84.74,29.66,84.9Z"/><path class="cls-18" d="M51.75,63.67c1.35.52,1.71,1.57,1.69,2.93,0,3.19-.06,6.39,0,9.59a2.76,2.76,0,0,1-1.75,2.87L10.29,79c-4,0-4.07-.11-4.07-3.92,0-2.67.1-5.34,0-8-.13-2.45.71-3.32,3.28-3.3,13.34.12,26.67.06,40,.05C50.23,63.78,51,63.71,51.75,63.67Z"/><path class="cls-19" d="M51.75,39.64a2.74,2.74,0,0,1,1.7,2.93c-.05,3.2-.07,6.39,0,9.59A2.78,2.78,0,0,1,51.72,55L10.3,55c-4,0-4.1-.11-4.11-4.21,0-2.57.1-5.15,0-7.71s.76-3.35,3.3-3.33c13.05.1,26.1,0,39.14,0C49.66,39.74,50.7,39.68,51.75,39.64Z"/><path class="cls-20" d="M51.75,15.63a2.8,2.8,0,0,1,1.7,2.93c-.06,3.19-.07,6.39,0,9.58A2.76,2.76,0,0,1,51.72,31L10.6,30.9c-4.38,0-4.38,0-4.38-4.46,0-2.47.1-5,0-7.42S7,15.66,9.48,15.68c13.52.1,27,.05,40.56,0C50.61,15.72,51.18,15.66,51.75,15.63Z"/><path class="cls-21" d="M21.66,67c.46.39.58.44.58.5.24,2.83,1,5.51,4.34,5.71s4.83-2.07,5.07-5.24c.07-.93.78-.94,1.46-.94,5.13,0,10.27,0,15.41,0,.63,0,1.52-.14,1.55.8.08,2.37.09,4.75,0,7.12,0,1-.93.79-1.55.79h-38c-1.56,0-1.28-1.27-1.13-2.07.42-2.19-1.36-4.93.94-6.52,1.36-.94,1.84.57,2.06,2a4.77,4.77,0,0,0,4.67,4.18c2.41-.09,4.09-1.93,4.34-4.72C21.48,68.15,21.56,67.71,21.66,67Z"/><path class="cls-22" d="M17.1,67c1.14,0,1.51.55,1.39,1.57s-.58,1.58-1.62,1.54-1.27-.91-1.34-1.78C15.42,67.1,16.15,66.88,17.1,67Z"/><path class="cls-23" d="M26.78,67c1-.11,1.65.12,1.57,1.34-.07,1-.32,1.7-1.44,1.67s-1.38-.78-1.46-1.72S25.8,66.91,26.78,67Z"/><path class="cls-21" d="M21.85,43.24c.89.37.55,1.15.65,1.74.44,2.64,2.14,4.44,4.45,4.33a4.34,4.34,0,0,0,4.5-4c.19-2.14,1.08-2.38,2.86-2.34,4.57.1,9.14.08,13.71,0,1.55,0,2.14.39,2.2,2.06.23,6.71.29,6.71-6.36,6.71-10.57,0-21.15-.08-31.72,0-2.32,0-3-.68-2.77-2.87a32.32,32.32,0,0,0,0-4.29c0-1,.14-1.65,1.36-1.65,1,0,1.53.29,1.61,1.43a5.67,5.67,0,0,0,.8,2.69,4.22,4.22,0,0,0,4.63,2.08,4.38,4.38,0,0,0,3.65-3.88C21.53,44.63,21.14,43.83,21.85,43.24Z"/><path class="cls-24" d="M18.47,44.76A1.33,1.33,0,0,1,17.19,46c-1.3.16-1.58-.7-1.66-1.73s.3-1.41,1.28-1.39S18.55,43,18.47,44.76Z"/><path class="cls-23" d="M26.89,46c-1-.05-1.33-.74-1.44-1.68C25.32,43.13,26,42.94,27,43s1.39.31,1.35,1.32S28.1,46,26.89,46Z"/><path class="cls-21" d="M21.66,19.17c1.09.36.74,1.16.84,1.74.44,2.68,2.12,4.52,4.39,4.4,2.46-.12,4.34-1.53,4.53-4s1.31-2.44,3.11-2.4c4.38.08,8.77.09,13.16,0,1.72,0,2.52.28,2.54,2.3.05,6.47.14,6.47-6.33,6.47-10.59,0-21.17-.08-31.75.05-2.32,0-3-.68-2.78-2.87a35.57,35.57,0,0,0,0-4c0-1-.13-1.91,1.36-1.94,1.34,0,1.52.63,1.6,1.73a4.74,4.74,0,0,0,3.45,4.43c1.77.6,3.16-.22,4.44-1.27C21.71,22.66,21.26,20.77,21.66,19.17Z"/><path class="cls-25" d="M18.5,20.18c-.05,1-.36,1.86-1.6,1.87s-1.31-.85-1.37-1.73.25-1.44,1.25-1.42S18.54,18.91,18.5,20.18Z"/><path class="cls-26" d="M28.33,20.26c.05,1-.23,1.76-1.32,1.76s-1.5-.84-1.57-1.87.53-1.21,1.39-1.23S28.49,19.12,28.33,20.26Z"/></g></g></svg>