<svg xmlns="http://www.w3.org/2000/svg" viewBox="0 0 106.13 107.7"><defs><style>.cls-1{fill:#010101;}.cls-2{fill:#4473b0;}.cls-3{fill:#c0c6cf;}.cls-4{fill:#a0a7b0;}.cls-5{fill:#698dbf;}.cls-6{fill:#f7f7f7;}.cls-7{fill:#040405;}.cls-8{fill:#0d0e10;}.cls-9{fill:#020305;}.cls-10{fill:#020304;}.cls-11{fill:#030406;}.cls-12{fill:#010206;}.cls-13{fill:#020406;}.cls-14{fill:#020306;}.cls-15{fill:#030302;}.cls-16{fill:#f9f9f9;}.cls-17{fill:#fff;}.cls-18{fill:#edeceb;}.cls-19{fill:#f6d780;}.cls-20{fill:#bec4cd;}.cls-21{fill:#292413;}</style></defs><title>p-5</title><g id="Layer_2" data-name="Layer 2"><g id="Layer_1-2" data-name="Layer 1"><path class="cls-1" d="M43.46,0Q61.79,0,80.14,0C85.22,0,87,1.81,87,7c0,4.87,0,9.74,0,14.61-.05,4.05-1.39,5.61-5.36,6.19-1.12.16-1.7.37-1.71,1.61s.19,1.71,1.62,2c4.12.72,5.42,2.4,5.46,6.55,0,5.08.07,10.16,0,15.24-.06,3.72-1.66,5.55-5.32,6-1.34.16-1.75.48-1.75,1.82,0,1.5.8,1.65,2,1.64,6.9-.06,13.1,1.8,17.88,7,6.35,7,8,15.14,4.62,23.85-3.47,8.88-10.43,13.72-20,14.19a21.67,21.67,0,0,1-22.2-14.92c-.64-1.83-1.45-2.45-3.46-2.44-17.2.1-34.4.06-51.61.06C1.47,90.36,0,88.93,0,83.26c0-4.87,0-9.74,0-14.61,0-3.76,1.27-5.31,4.88-6C6.06,62.49,7,62.57,7,60.83s-1-1.56-2.13-1.69C1.74,58.76.08,56.93,0,53.75c-.06-5.49,0-11,0-16.47,0-3.56,1.47-5.38,5-5.93,1.27-.2,2-.21,2-1.87s-1-1.59-2.15-1.72C1.72,27.44.08,25.63,0,22.44,0,17.57,0,12.69,0,7.82,0,1.21,1.21,0,7.7,0Z"/><path class="cls-2" d="M43.42,24.35H7.67c-4,0-4.1-.08-4.11-4.23,0-4.46.08-8.92,0-13.37-.06-2.23.65-3.13,3-3.12q36.84.09,73.68,0c2.42,0,3.32.8,3.25,3.25-.14,4.77-.13,9.54,0,14.3.07,2.5-1,3.22-3.35,3.2C67.88,24.31,55.65,24.35,43.42,24.35Z"/><path class="cls-2" d="M43.63,55.49c-12.23,0-24.46-.07-36.69,0-2.58,0-3.5-.79-3.42-3.37.15-4.76.12-9.53,0-14.3,0-2.3.83-3,3.11-3q36.84.09,73.69,0c2.25,0,3.18.72,3.13,3q-.17,7.3,0,14.61c.06,2.35-.92,3-3.15,3C68.08,55.45,55.85,55.48,43.63,55.49Z"/><path class="cls-2" d="M70.42,66.19c-2.11,3.83-5.38,3.67-9,3.51-6.26-.28-6-.63-6,5.72,0,1.25.07,2.5,0,3.73-.2,2.75.22,4.85,3.77,4.3,1.2-.19,1.64.43,1.62,1.62s-.28,2-1.71,2C57,87,54.8,87,52.63,87Q30.24,87,7.86,87c-4.08,0-4.29-.21-4.3-4.14,0-4.56,0-9.12,0-13.68,0-2.14.6-3.23,3-3.22,21,.06,42.07,0,63.11,0A3.4,3.4,0,0,1,70.42,66.19Z"/><path class="cls-3" d="M70.42,99c-8.17-7.72-8.2-19.79-.08-27.67,7.44-7.22,20-6.81,26.82.87,1.56,4.2.24,9.58-3,12.07-2.85-1.43-5-3.08-5-6.9,0-3-2.73-5-5.67-5a5.68,5.68,0,0,0-5.84,4.93c-.34,2.38-.43,4.61-3,6-1.26.67-.86,2.41-.94,3.73-.23,4.09.45,8.2-.31,12.28A3,3,0,0,1,70.42,99Z"/><path class="cls-4" d="M70.42,99h3.17c1.08-1.06,2.47-.9,3.79-.92,3.1-.06,6.2,0,9.3,0C93,98,93,98,93,91.51c0-1.45,0-2.9,0-4.34,0-1.12,0-2.3,1-3.13,2.58-3.56,3.24-7.62,3.09-11.89a18.72,18.72,0,0,1-.22,26.46C89.91,105.74,77.5,106.18,70.42,99Z"/><path class="cls-5" d="M43.29,31.24c-10,0-20.08,0-30.12,0-1,0-2.57.7-2.66-1.47s1.41-1.83,2.68-1.83q30.27,0,60.54,0c1.16,0,2.82-.68,2.83,1.67s-1.72,1.61-2.85,1.62C63.57,31.26,53.43,31.24,43.29,31.24Z"/><path class="cls-5" d="M43.31,62.47q-15.06,0-30.11,0c-1.24,0-2.79.49-2.69-1.8s1.64-1.45,2.67-1.45q30.42-.06,60.83,0c1.1,0,2.56-.57,2.56,1.59S75.19,62.46,74,62.46Q58.67,62.49,43.31,62.47Z"/><path class="cls-6" d="M59.16,76.84c0-1.11,0-1.83,0-2.55-.07-1.1.47-1.4,1.49-1.36s1.94-.06,1.89,1.34a7.46,7.46,0,0,1-.2,2.43c-.48,1.19.07,3.36-2,3.21C57.71,79.72,60.15,77.43,59.16,76.84Z"/><path class="cls-7" d="M41.76,13.65c.09-7.72-1.06-6.5,6.71-6.78,3.12-.11,4.13,1.11,3.84,4a25.76,25.76,0,0,0,0,2.78c0,7.32-1.6,8.58-8.88,7.12a1.83,1.83,0,0,1-1.66-2.15C41.78,17,41.76,15.3,41.76,13.65Z"/><path class="cls-7" d="M66,14.05c-.13,7.67,1.2,6.49-6.7,6.77-3,.1-4.09-.94-3.87-3.89.18-2.46,0-4.95.05-7.42,0-1.73.77-2.74,2.65-2.58.2,0,.41,0,.61,0C67.39,7,65.87,5.89,66,14.05Z"/><path class="cls-8" d="M69.61,13.62c.07-7.83-.89-6.47,6.73-6.74,2.85-.1,4,.94,3.83,3.7,0,.82,0,1.65,0,2.47-.08,9.11,1.08,7.56-8.32,7.72-1.58,0-2.27-.64-2.24-2.2S69.61,15.27,69.61,13.62Z"/><path class="cls-9" d="M20.74,13.77a6.59,6.59,0,0,1-6.6,7A6.75,6.75,0,0,1,6.93,14a6.84,6.84,0,0,1,7-7A6.73,6.73,0,0,1,20.74,13.77Z"/><path class="cls-10" d="M38.15,13.83a6.58,6.58,0,0,1-6.66,6.92,6.76,6.76,0,0,1-7.15-6.83,6.91,6.91,0,1,1,13.81-.09Z"/><path class="cls-11" d="M41.75,45.18c.13-7.63-1.52-7.11,7.46-7.12,2,0,3.1.86,3.09,3,0,2.79,0,5.59,0,8.38,0,1.91-.86,2.9-2.8,2.9C40.21,52.28,41.88,53.06,41.75,45.18Z"/><path class="cls-11" d="M66,45.33c0,7.55-.25,7.75-7.88,7-1.77-.18-2.65-1-2.65-2.76,0-2.9,0-5.8,0-8.7a2.6,2.6,0,0,1,1.14-2.4c.93-.59,7.63-.51,8.54,0s.86,1.33.86,2.16Z"/><path class="cls-12" d="M69.61,45.16c.13-7.74-1.49-7,7.44-7.1,2.08,0,3.08.94,3.09,3,0,2.79,0,5.59,0,8.38,0,2.05-1.06,2.93-3.14,2.91C68.2,52.25,69.73,53,69.61,45.16Z"/><path class="cls-13" d="M6.93,45.28a7.11,7.11,0,0,1,7-7.15,7.07,7.07,0,0,1-.14,14.13A7.09,7.09,0,0,1,6.93,45.28Z"/><path class="cls-14" d="M38.16,45.27a6.91,6.91,0,1,1-7-7.11A6.94,6.94,0,0,1,38.16,45.27Z"/><path class="cls-7" d="M41.75,76.25c.13-7.48-1.22-6.46,6.8-6.68,2.8-.08,4,.76,3.78,3.66-.18,2.46,0,5,0,7.42,0,1.84-.68,3-2.75,2.79h-.31C40.34,83.31,41.91,84.61,41.75,76.25Z"/><path class="cls-10" d="M20.74,76.4a6.75,6.75,0,0,1-6.93,7,6.91,6.91,0,1,1,.12-13.81A6.59,6.59,0,0,1,20.74,76.4Z"/><path class="cls-10" d="M31.31,83.43a6.91,6.91,0,1,1-.1-13.81,6.65,6.65,0,0,1,6.94,7A6.72,6.72,0,0,1,31.31,83.43Z"/><path class="cls-15" d="M94.07,84c0,4-.15,8-.09,12,0,2-.58,3.09-2.79,3C85.32,99,79.45,99,73.59,99c-1.45-5.18-.45-10.45-.54-15.68,0-.46.71-1.33,1.09-1.33,2.69,0,2.3-1.92,2.39-3.61.24-4.22,3.19-7.17,7-7.08s6.68,3,6.78,7.33c.05,1.67-.27,3.29,2.3,3.29C93.54,81.88,94,83,94.07,84Z"/><path class="cls-16" d="M48.6,15a5.38,5.38,0,0,1-.32,2.09c-.3.71-1.31.24-2,.29s-1-.55-1.06-1.21c0-1.24,0-2.49,0-3.73s.16-2.09,1.8-2.13c1.89,0,1.62,1.09,1.61,2.21Z"/><path class="cls-16" d="M62.52,13.72a21.63,21.63,0,0,1,0,2.79c-.15,1.21-1.18.84-2,.92s-1.39-.2-1.37-1.17c0-1.25,0-2.49,0-3.73s-.24-2.24,1.62-2.2c1.67,0,1.89.84,1.78,2.15,0,.41,0,.82,0,1.24Z"/><path class="cls-17" d="M73,12.87a4.64,4.64,0,0,1,.32-2.06c.39-.77,1.49-.41,2.27-.37s1,.62.95,1.31c0,1.23-.06,2.46,0,3.68.09,1.38-.27,2-1.84,2s-1.79-.9-1.72-2.14C73,14.81,73,14.3,73,12.87Z"/><path class="cls-6" d="M10.51,14.31c.07-2.69,1.34-3.83,3.54-3.79a3.17,3.17,0,0,1,3.28,3.38,3.26,3.26,0,0,1-3.58,3.44A3.12,3.12,0,0,1,10.51,14.31Z"/><path class="cls-6" d="M31.31,10.55a3.15,3.15,0,0,1,3.43,3.22,3.27,3.27,0,0,1-3.46,3.57,3.24,3.24,0,0,1-3.39-3.61C28,11.68,29.19,10.56,31.31,10.55Z"/><path class="cls-17" d="M45.21,45c0-.72,0-1.44,0-2.16,0-1.32,1-1.06,1.73-1.08s1.72-.22,1.66,1.12-.05,2.47,0,3.7,0,2.1-1.71,2.08-1.79-.88-1.7-2.12C45.24,46,45.21,45.53,45.21,45Z"/><path class="cls-17" d="M58.8,45.35c1.14-1.19-1.07-3.47,1.9-3.6s1.77,2.2,1.77,3.44,1.34,3.54-1.78,3.44S60.17,46.1,58.8,45.35Z"/><path class="cls-18" d="M72.78,45.11c.72-1.13-1.15-3.34,1.81-3.39,3.35,0,1.7,2.41,1.83,3.73.11,1.17,1.15,3.26-1.73,3.21C71.51,48.61,73.59,46.23,72.78,45.11Z"/><path class="cls-16" d="M13.67,48.63A3.23,3.23,0,0,1,10.52,45,3.09,3.09,0,0,1,14,41.79a3.19,3.19,0,0,1,3.37,3.61C17.2,47.28,16,48.62,13.67,48.63Z"/><path class="cls-6" d="M31.1,48.65c-2.21-.36-3.37-1.61-3.16-3.82a3.08,3.08,0,0,1,3.57-3,3.2,3.2,0,0,1,3.22,3.47A3.34,3.34,0,0,1,31.1,48.65Z"/><path class="cls-16" d="M48.6,77.54a5.65,5.65,0,0,1-.27,2.1c-.29.75-1.29.28-2,.32s-1.13-.38-1.14-1.13c0-1.24,0-2.49,0-3.73s0-2.17,1.72-2.21,1.73,1,1.68,2.16C48.58,75.57,48.6,76.09,48.6,77.54Z"/><path class="cls-6" d="M10.55,76A3.05,3.05,0,0,1,13.88,73a3.27,3.27,0,0,1,3.45,3.58,3.22,3.22,0,0,1-3.42,3.27C11.72,79.86,10.5,78.62,10.55,76Z"/><path class="cls-6" d="M31.51,79.91c-2.4-.14-3.62-1.31-3.63-3.36A3.26,3.26,0,0,1,31.38,73a3.44,3.44,0,0,1,.13,6.88Z"/><path class="cls-19" d="M83.43,85.25c6.9,0,6.7,0,7,6.77.13,3.21-.85,4.27-3.9,3.75a13,13,0,0,0-2.16,0c-8.85,0-8.81,0-7.86-9,.13-1.24.56-1.57,1.69-1.53C79.92,85.29,81.68,85.25,83.43,85.25Z"/><path class="cls-20" d="M83.6,81.6c-1.93,0-3.78.61-3.58-2.36.17-2.49.83-4.28,3.53-4.45,2.11-.13,3.47,2,3.52,4.93C87.14,83.08,84.56,81,83.6,81.6Z"/><path class="cls-21" d="M83.6,92.15c-1.13.07-2.11.12-2-1.49,0-1.29.14-2.17,1.8-2.16,1.45,0,2,.47,2,2S84.9,92.38,83.6,92.15Z"/></g></g></svg>