<svg xmlns="http://www.w3.org/2000/svg" viewBox="0 0 387.88 52.16"><defs><style>.cls-1{fill:#fff;}.cls-2{fill:#1a478e;}.cls-3,.cls-8{fill:#f7941d;}.cls-4{fill:#222931;}.cls-5{fill:#189dd7;}.cls-6{fill:#84ba42;}.cls-7{fill:#c52026;}.cls-8{opacity:0.6;}</style></defs><title>payment-group-2</title><g id="Layer_2" data-name="Layer 2"><g id="Layer_1-2" data-name="Layer 1"><rect class="cls-1" x="271.25" width="116.62" height="49.55" rx="8.75"/><rect class="cls-1" x="136.36" y="1.6" width="116.62" height="49.55" rx="8.75"/><rect class="cls-1" y="2.61" width="116.62" height="49.55" rx="8.75"/><path class="cls-2" d="M173.46,13.75l.85-2.23c.12-.22.24-.41.56-.41h7.62l-.74,2.08-.54,1.28a14.38,14.38,0,0,0-1,2.48c-.53,1.27-1,2.55-1.57,3.83l-.12.29a.14.14,0,0,0,0,.15c-1,2.22-1.94,4.5-2.78,6.8l-.16.37-.06.18-1.58,3.78-.11.35a41.29,41.29,0,0,0-1.69,4.14h0a2,2,0,0,0-.38,1h0a3.56,3.56,0,0,0-.49,1.13,1.25,1.25,0,0,0-.3.74c-.22.29-.25.73-.7.82a27.9,27.9,0,0,0-3.77,0,31.11,31.11,0,0,0-3.74,0l-.41-.63a1.88,1.88,0,0,0-.22-1,.37.37,0,0,0-.12-.37,16.06,16.06,0,0,0-.75-2.82,14.07,14.07,0,0,0-.66-2.63l-1.42-5.25-.1-.33a15.34,15.34,0,0,0-.81-3.06,22,22,0,0,0-.86-3.38,23.91,23.91,0,0,0-.87-3.19.66.66,0,0,0-.16-.57h0L155.91,15a19.75,19.75,0,0,1,3.52,2.44,23.7,23.7,0,0,1,6.68,9.1c.41,1.29.42,2.68,1,4.1a44.25,44.25,0,0,0,2.27-5.81c1-2.48,1.93-5,2.79-7.53A25,25,0,0,0,173.46,13.75Z"/><path class="cls-2" d="M193,11.06l.19.06.06.18L193,12.81a.31.31,0,0,0-.09.38l-.05.36c-.47,2.37-.84,4.76-1.16,7.15l-.61,3.9a24.21,24.21,0,0,0-.59,3.59l0,0,0,.05-.07.29-.08.76a.35.35,0,0,0-.08.39l-.12.86-.07.24-.09.58,0,.38a.72.72,0,0,0-.1.55,33.71,33.71,0,0,0-.72,4.33l-.3,2-.08.27,0,.38,0,.2c0,.83-.49,1.05-1.27,1a18.57,18.57,0,0,0-2.11,0,23.85,23.85,0,0,0-3.78,0c-.44,0-.66-.17-.61-.63a39.32,39.32,0,0,0,.76-4.7l.17-.94a2.37,2.37,0,0,0,.09-.36c.17-1.47.44-2.93.63-4.39s.55-2.7.67-4.08a22.7,22.7,0,0,0,.56-3.38.29.29,0,0,0,.06-.35l.1-.59a21.64,21.64,0,0,0,.59-3.76l0-.28a.46.46,0,0,0,.1-.46l.05-.38a.33.33,0,0,0,.1-.38c.28-.73-.13-1.56.32-2.26,0-.09.08-.17.11-.26.18-.7-.05-1.71.52-2.07s1.44-.11,2.19-.12Z"/><path class="cls-3" d="M166.11,26.55a23.7,23.7,0,0,0-6.68-9.1A19.75,19.75,0,0,0,155.91,15a1.18,1.18,0,0,0-.67-.35,29.47,29.47,0,0,0-7.51-3l.2-.51.54-.06H160.3a5.91,5.91,0,0,1,2.24.66,4.51,4.51,0,0,1,1.13,1.84,15.19,15.19,0,0,0,.6,3,41,41,0,0,0,.89,4.52c.05.37.08.74.15,1.1C165.57,23.64,165.84,25.1,166.11,26.55Z"/><path class="cls-2" d="M211.48,10.59a.07.07,0,0,0,.1,0l3.75.85.24.09.31.14.12.19-.05.35,0,.38a.72.72,0,0,0-.1.57l-.08.55a24.14,24.14,0,0,0-.58,3.57l-.05.32c-.15.55-.45.4-.83.23a12.1,12.1,0,0,0-7.68-.89,2.55,2.55,0,0,0-2.31,2c-.18,1.23.74,1.87,1.63,2.4,1.81,1.05,3.64,2,5.47,3.06l.93.78a9.74,9.74,0,0,1,2.49,4.08l.08.57-.08,1.89,0,.56a17.85,17.85,0,0,1-1.17,3.31,15,15,0,0,1-2.25,2.47A21.06,21.06,0,0,1,207.78,40l-3.72.82-4.5,0-3-.44-.57-.14-.18,0-2.05-.65a.66.66,0,0,1-.45-.87c.13-.67.18-1.36.26-2l.06-.17a.37.37,0,0,0,.06-.4c.16-.92.32-1.84.47-2.77.06-.44.21-.6.67-.36a5.63,5.63,0,0,0,1.73.68,11.56,11.56,0,0,0,5.24,1.06,2.81,2.81,0,0,0,1.32-.07.27.27,0,0,0,.38-.05l.56-.11c1.62-.22,2.62-1,2.79-2.32a.93.93,0,0,0,0-.75l-.1-.29A4.38,4.38,0,0,0,204.25,29a2.46,2.46,0,0,0-1.12-.58l-2.78-1.55v0a.87.87,0,0,0-.58-.41l0,0-.27-.25a8.79,8.79,0,0,1-3.23-5.15,9.14,9.14,0,0,1,3.22-7.52l.77-.6,2.82-1.45.32-.13.62-.15a21.79,21.79,0,0,1,6.92-.63h0A.34.34,0,0,0,211.48,10.59Z"/><path class="cls-2" d="M230.35,11.07h3.75c1.14-.19,1.58.37,1.65,1.44a10.46,10.46,0,0,0,.36,1.52c.23,1.09.45,2.19.68,3.28.47,2.65,1,5.28,1.67,7.88a24.71,24.71,0,0,0,.7,3.4c.62,3.41,1.32,6.81,2.13,10.19l.26,1.06.06.54c-.37,0-.74.07-1.12.08l-5.62.07a.71.71,0,0,1-.47-.52l-.05-.17c-.21-1.1-.43-2.19-.62-3.29-.06-.32-.2-.54-.54-.53-2.07.08-4.15-.18-6.22.08h-.37c-.72,0-1.44,0-2.15-.08a.65.65,0,0,0-.75.53c-.34,1-.71,2.06-1.06,3.09-.22.27-.2.67-.53.87a10.59,10.59,0,0,0-2.32,0,.91.91,0,0,0-.67,0,32.12,32.12,0,0,0-3.8,0,.1.1,0,0,0-.17,0c-.26-.12-.65.11-.81-.29.19-.22-.05-.36-.09-.54a.32.32,0,0,0,.35-.2c1.23-2.37,2.14-4.87,3.14-7.33.06,0,.07-.07,0-.12l.45-1a10.41,10.41,0,0,0,.84-2.08l.23-.52A26.45,26.45,0,0,0,220.74,25c.55-1.31,1.11-2.62,1.66-3.94,1.09-2.46,2.17-4.94,3.12-7.47l0,0,0,0,.11-.23.59-1,.14-.15.28-.29A6.09,6.09,0,0,1,230.35,11.07Zm.81,13.35a13.81,13.81,0,0,0-.6-2.84l-.07-.51a5,5,0,0,0-.41-1.73,2.59,2.59,0,0,0-.45,1.18c-.64,1.6-1.27,3.2-1.75,4.86v0a1.46,1.46,0,0,0-.32.78,8.86,8.86,0,0,0-.76,2.07c-.17.4-.32.81-.5,1.2s0,.61.44.6l5.13-.06c.4.14.51,0,.42-.4s-.19-.64-.28-1l-.18-.85h0l0,0c-.2-1-.39-1.92-.59-2.88l-.07-.31S231.19,24.45,231.16,24.42Z"/><path class="cls-4" d="M339.4,20.73c-2.24,0-4.49,0-6.73,0-3.23,0-5-1.71-5.2-4.93a18.27,18.27,0,0,1,0-2c.09-3.72,2.11-5.68,5.84-5.69.85,0,1.71,0,2.56,0,.38,0,1.06-.24.86.57-.16.65.3,1.68-.88,1.81-.69.07-1.39,0-2.08,0a2.59,2.59,0,0,0-2.9,2.61,17.92,17.92,0,0,0,0,2.93,2.3,2.3,0,0,0,2.41,2.28c4.24.05,8.49,0,12.73,0a1.52,1.52,0,0,0,1.71-1.64A1.49,1.49,0,0,0,346,15.26c-1.11,0-2.21,0-3.31,0-2.06-.07-3.35-1.2-3.53-3a3.43,3.43,0,0,1,2.79-4A23.31,23.31,0,0,1,347.39,8c.78,0,1.55,0,2.33,0,1.85,0,1.59-.33,1.41,1.63-.06.66-.4.77-1,.76-2,0-4.07,0-6.11,0-.73,0-1.41.13-1.68.93a1.41,1.41,0,0,0,1.45,1.89c1.06.06,2.12,0,3.18,0,3,.07,4.6,2.33,3.67,5.18-.52,1.61-1.83,2.12-3.31,2.27s-2.69.1-4,.11-2.61,0-3.91,0Z"/><path class="cls-4" d="M368.26,13.43c0-.69,0-1.39,0-2.08a2.84,2.84,0,0,1,2.26-3.06,7.78,7.78,0,0,1,4.22-.3c2.74.6,4.4,3,4.22,6-.2,3.26-2,5.28-5.08,5.56a4.83,4.83,0,0,1-.85,0c-6.45-.65-12.92-.08-19.37-.29-.45,0-1.31.41-1.12-.69.13-.75-.24-1.82,1.22-1.72s2.86,0,4.28,0c.62,0,.89-.07.84-.76-.08-1.14,0-2.29-.13-3.42-.18-1.76-1-2.43-2.72-2.45h-1c-1.54,0-1.88-.58-1.25-2,.16-.35.39-.35.68-.35.93,0,1.88,0,2.81,0A4.8,4.8,0,0,1,362,12.32a20,20,0,0,1,.13,3.79c0,.62.17.86.83.84,1.47,0,2.94,0,4.4,0,.74,0,.93-.33.92-1C368.25,15.14,368.26,14.29,368.26,13.43Zm2.82-2.29-.08.06.09.05c.58,1.24.21,2.55.26,3.82.07,1.77.08,1.83,1.85,1.82A2.19,2.19,0,0,0,375.66,15c.46-1.89,0-3.66-1.06-4.21a1.94,1.94,0,0,0-.7-.2A4.56,4.56,0,0,0,371.08,11.14Z"/><path class="cls-4" d="M340.61,40.32c-.66,0-.61-.51-.61-1,0-1.92,0-3.83,0-5.75,0-1.59-1.23-2.25-2.7-1.57-.49.23-.35.55-.35.9,0,2.12,0,4.24,0,6.36,0,.82-.24,1-1,1-2.22,0-2.22,0-2.22-2.25,0-1.59,0-3.18,0-4.77A1.25,1.25,0,0,0,333,32a2.5,2.5,0,0,0-2,.14c-.41.2-.23.66-.24,1,0,2-.05,4.08,0,6.11,0,.88-.26,1.09-1.11,1.07-2.21-.06-2.21,0-2.21-2.26,0-2,0-4.08,0-6.12a2,2,0,0,1,1.82-2.32c2-.45,4-.8,6,.15.51.25.86,0,1.26-.16,2.16-.61,4.26-.8,6.11.84l.51,1c.32,2.67.08,5.35.17,8,0,.63-.17.9-.82.84a12.09,12.09,0,0,0-1.34,0Z"/><path class="cls-4" d="M367.13,31.69c0,2.08,0,4.15,0,6.23a1.82,1.82,0,0,1-1.53,2,11.4,11.4,0,0,1-4.23.39,4.64,4.64,0,0,1-4.49-4.08,8,8,0,0,1,.24-4,4.41,4.41,0,0,1,5.55-2.94c1,.23,1.31.09,1.21-.95-.09-.85,0-1.71,0-2.56s.27-1.11,1-1.25c2.24-.38,2.23-.41,2.23,1.87v5.25Zm-3.26,3.2c0-.73,0-1.46,0-2.19,0-.27.07-.55-.24-.76a2.48,2.48,0,0,0-3.18.66,4.66,4.66,0,0,0,.07,4.45,2.42,2.42,0,0,0,2.84.84c1-.31.38-1.1.5-1.66A7.48,7.48,0,0,0,363.87,34.89Z"/><path class="cls-4" d="M378.91,36.13c0,1.19,0,2.37,0,3.55,0,.67-.12,1-.87.78a9.3,9.3,0,0,0-4.45-.11,5.23,5.23,0,0,1-2.42-.17,3,3,0,0,1-2.28-2.85,3,3,0,0,1,1.9-3.11,10.4,10.4,0,0,1,3.84-.51c.43,0,1.18.37,1.18-.56a1.32,1.32,0,0,0-1.17-1.47,9.88,9.88,0,0,0-3.74.43c-.42.1-1.15.86-1.32-.17-.11-.71-.86-1.74.68-2.11a15.34,15.34,0,0,1,5.3-.63,3.33,3.33,0,0,1,3.32,3.51c0,1.14,0,2.28,0,3.42Zm-4.35-.52c-.45,0-.89,0-1.33.13a1.24,1.24,0,0,0-1.12,1.46,1.17,1.17,0,0,0,1.37,1.07c.45,0,.89-.09,1.33-.11,1.31-.07,1-1,1.06-1.84C375.9,35.19,375,35.82,374.56,35.61Z"/><path class="cls-4" d="M345.16,35.84a4,4,0,0,1,3.7-2.05l2.28-.14c.29,0,.7.35.71-.29l0-.49a.84.84,0,0,0-.69-1,4.42,4.42,0,0,0-3.18.06,2.71,2.71,0,0,0-1.47.43c-.37,0-.82.19-.83-.48s-.11-1.18-.17-1.76l.5-.23a19.6,19.6,0,0,1,5.06-.75c2.71.15,3.94,1.37,4,4.06,0,2.17,0,4.33,0,6.49,0,.75-.22.94-.91.75a9.36,9.36,0,0,0-4.34-.11,6.2,6.2,0,0,1-3.24-.39l-1-.79-.05.06.06-.06A4.08,4.08,0,0,1,345.16,35.84Zm6.77.89c.28-1-.37-1.13-1.28-1.11-1.77.05-2.52.45-2.45,1.49s.73,1.17,1.53,1.18C351.41,38.31,351.93,38,351.93,36.73Z"/><path class="cls-5" d="M322.54,10.07V20.63c0,.32-.06.64-.1,1-.88.77-1.85.19-2.78.19-3.59,0-7.18,0-10.76,0H285.29c-1.38,0-2.76,0-4.15,0l-.29-.25a.31.31,0,0,0,0-.23v-12l-.2-.29A1.51,1.51,0,0,1,280.87,8a3.34,3.34,0,0,1,1.44-.16q12.65,0,25.28,0c5,0,9.93,0,14.89.08h0l.06.23c0,.34,0,.67,0,1S322.54,9.76,322.54,10.07ZM301.7,8.14c-6.36,0-12.73,0-19.09,0-1,0-1.31.31-1.29,1.31.05,3.31.08,6.61,0,9.91,0,1.23.28,1.58,1.54,1.57,12.2,0,24.39,0,36.59,0,.48,0,1-.15,1.44.15,1.1.76,1.12.05,1.12-.77,0-3.63,0-7.26,0-10.89,0-1-.26-1.25-1.23-1.24C314.42,8.16,308.06,8.14,301.7,8.14Z"/><path class="cls-5" d="M322.53,8.12l-.06-.23a.93.93,0,0,1,.13.15S322.56,8.09,322.53,8.12Z"/><path class="cls-5" d="M280.62,9.06l.2.29Z"/><path class="cls-5" d="M280.85,21.58l.29.25Z"/><polygon class="cls-6" points="371.08 11.13 371.12 11.19 371.09 11.25 371 11.2 371.08 11.13"/><path class="cls-6" d="M301.8,26.74c6.44,0,12.89,0,19.33,0,1.09,0,1.38.32,1.36,1.39q-.11,5.63,0,11.25c0,1.06-.39,1.33-1.36,1.33q-19.51,0-39,0c-.88,0-1.23-.23-1.22-1.17.05-3.88.05-7.75,0-11.63,0-1,.36-1.15,1.22-1.14,6.57,0,13.13,0,19.7,0Z"/><path class="cls-5" d="M301.7,8.14c6.36,0,12.72,0,19.09,0,1,0,1.25.28,1.23,1.24,0,3.63,0,7.26,0,10.89,0,.82,0,1.53-1.12.77-.43-.3-1-.15-1.44-.15-12.2,0-24.39,0-36.59,0-1.26,0-1.57-.34-1.54-1.57.09-3.3.06-6.6,0-9.91,0-1,.26-1.31,1.29-1.31C289,8.16,295.34,8.14,301.7,8.14Z"/><path class="cls-3" d="M87.92,27.52A17.92,17.92,0,0,1,59.81,42.26,17.92,17.92,0,0,0,59,13.4a17.93,17.93,0,0,1,29,14.12Z"/><circle class="cls-7" cx="48.7" cy="28.21" r="17.99"/><path class="cls-8" d="M66.7,28.14a17.9,17.9,0,0,1-6.89,14.12A17.93,17.93,0,0,1,59,13.4,17.91,17.91,0,0,1,66.7,28.14Z"/></g></g></svg>