<?xml version="1.0" encoding="iso-8859-1"?>
<!-- Generator: Adobe Illustrator 19.0.0, SVG Export Plug-In . SVG Version: 6.00 Build 0)  -->
<svg xmlns="http://www.w3.org/2000/svg" id="Layer_1" data-name="Layer 1" viewBox="0 0 97.87 97.87"><link xmlns="" type="text/css" rel="stylesheet" id="dark-mode-general-link"/><link xmlns="" type="text/css" rel="stylesheet" id="dark-mode-custom-link"/><style xmlns="" lang="en" type="text/css" id="dark-mode-custom-style"/><defs><style>.cls-1{fill:#22b573;}.cls-2{fill:#fff;}</style></defs><title>1</title><circle class="cls-1" cx="48.93" cy="48.93" r="48.93"/><path class="cls-2" d="M248.87,235.67a2.17,2.17,0,0,1,.16,2.25c0-.33.16-.65-.16-.8-.16,0-.16.15-.16.32a.84.84,0,0,0-.31-.64,7.73,7.73,0,0,0-.33,2.73c-.31-.17,0-.8-.31-.64-.48.16-.18,1,0,1.44a8,8,0,0,1-.33-6.9,14.65,14.65,0,0,1,2.89-3.53c.16-.16.48-.64,0-.64-.48-.16-.8.32-1,.81-.15-.17-.15-.17-.31-.33-.16.49-.48,1-.64,1.44,0-.15,0-.63-.16-.63-.48.15-.48,1-.65,1.44,0-.17,0-.64-.15-.48-.48.31-.48,1.11-.64,1.76,0-.16.15-.64-.16-.64-.48.17-.31.8-.31,1.28a.52.52,0,0,0-.16-.31c-.48.48-.33,1.12-.33,1.6-.31-.17-.15-.63-.31-.63-.49.47-.33,1.12-.49,1.75-.15-.31.16-.79-.15-1.12a5.37,5.37,0,0,0-.48,1.45c-.17-.48.16-1-.17-1.29-.31.48,0,1.13-.15,1.62a7.39,7.39,0,0,1,.15-4.18,12.09,12.09,0,0,1,1.14-1.93,8.2,8.2,0,0,1,1.75-1.61c1-.8,2.24-1,3.06-1.92-.33-.32-.82.16-1.13-.16l-.32.32c0-.16,0-.32-.15-.32a.83.83,0,0,0-.65.32c0-.16,0-.32-.15-.32-.33,0-.48.32-.65.48a.56.56,0,0,0-.16-.32c-.15.16-.63.16-.63.65a3.54,3.54,0,0,0-.34-.33.85.85,0,0,0-.31.64c0-.15,0-.31-.16-.31a.86.86,0,0,0-.33.64l-.16-.16a2.43,2.43,0,0,0-.31,1,.56.56,0,0,0-.15-.32c-.33.32-.16.8-.33,1.13-.31-1.94.48-3.7,2.24-4.19s3.71-1.12,5.62-.16a.54.54,0,0,0,.17-.31c-.17-.49-.65-1.45-1.29-.81a.59.59,0,0,1,.16-.48c-.32-.48-.8.16-1.11,0l.16-.16c-.33-.48-.65.16-1,0l.15-.16c0-.17-.15-.17-.31-.17-.16.17-.64.17-.64.64,0-.16.16-.64-.16-.64-.48.17-.65.81-1,1.13a1.31,1.31,0,0,1,.64-1.61,5,5,0,0,1,4.49-.65,3.7,3.7,0,0,1,1.93,1.93,7.66,7.66,0,0,0,.64-2.09.57.57,0,0,0,.17.48c.31-.65.15-1.45.47-2.09.33.64.18,1.44.48,2.09a.59.59,0,0,0,.16-.48,7.65,7.65,0,0,0,.65,2.09,3.77,3.77,0,0,1,2.57-2.09c1.77-.31,4.65.16,4.5,2.41-.31-.32-.48-1-1-1.13-.31,0-.16.48-.16.64,0-.48-.47-.48-.64-.64s-.33,0-.33.17.18.16.18.32c-.32-.16-.65-.48-1-.16.16,0,.16.16.16.31a2.37,2.37,0,0,0-1-.31c-.31.16.17.48,0,.64-.15-.33-.47-.16-.64-.16-.31.32-1,1.28-.81,1.28a8.49,8.49,0,0,1,6,.16,4.17,4.17,0,0,1,1.91,1.45,5.14,5.14,0,0,1,.32,2.74c-.32-.33,0-.81-.32-1.13a.57.57,0,0,0-.14.32c0-.64-.48-1-.82-1.44-.15,0-.15.17-.15.31a.87.87,0,0,0-.32-.64l-.32.33c0-.48-.48-.48-.65-.65a.56.56,0,0,0-.16.32l-.47-.48c-.33,0-.49.32-.82,0-.15-.16-.31,0-.31.32l-.32-.32c-.33.32-.8-.16-1.12.16,1.45,1.28,3.54,1.77,4.81,3.53a7.11,7.11,0,0,1,1.28,6.11c-.16-.49.17-1.13-.16-1.62-.32.33,0,.81-.14,1.29a5.78,5.78,0,0,0-.5-1.45c-.31.32-.15.8-.15,1.12-.15-.63,0-1.28-.49-1.75-.15,0,0,.47-.32.63,0-.48.17-1.12-.31-1.6a.53.53,0,0,0-.16.31c0-.48.16-1.11-.31-1.28-.33,0-.17.48-.17.64-.16-.64-.16-1.45-.64-1.76-.15-.16-.15.31-.15.48-.17-.48-.17-1.3-.66-1.44-.16,0-.16.48-.16.63-.15-.48-.47-.95-.64-1.44l-.33.33a1.38,1.38,0,0,0-1-1c-.15,0-.15.32-.15.48,1,1.28,2.24,2.24,3.05,3.53a8.15,8.15,0,0,1-.32,7.22c.17-.47.48-1.28,0-1.44-.32-.16,0,.48-.32.64a7.89,7.89,0,0,0-.32-2.73.87.87,0,0,0-.31.64c0-.17,0-.32-.15-.32-.32.15-.17.47-.17.8a3.58,3.58,0,0,1,.32-2.58,2.1,2.1,0,0,0-.32-1,.86.86,0,0,0-.33.63,9,9,0,0,0-.31-2.08c-.31.16-.15.48-.15.65-.32-.49.15-1.12-.32-1.45-.17,0,0,.48-.32.65,0-.48.15-1.13-.31-1.44-.17,0-.17.48-.17.64,0-.48-.15-2-.64-2.12-.16,0,0,0-.16,0h-.31s0,.37-.16.37-.33.34-.33.5c.16.49.81.66,1,1.14,0,.49.49.72.49,1.21a.6.6,0,0,0-1-.12c.8.32,1.6.82,1.44,1.79a1.08,1.08,0,0,0-.64-.8c-.15,0-.48,0-.48.17.65.65,1.28,1.28,1.12,2.24a.86.86,0,0,0-.48-.79.53.53,0,0,0-.31.16,4.2,4.2,0,0,1,.64,3.05c0-.32.15-.8-.17-.64-.31,0-.15.48-.15.8l-.16-.16c-.32.48.16.8,0,1.28s-.15.81-.32,1.28c-.16-.48.17-1.12-.16-1.61a5.22,5.22,0,0,0-.31,2.25c0-.16,0-.31-.16-.31-.33.16,0,.64-.33.79.16-1.12-.31-2.24-.31-3.36.16,0,.31,0,.31-.16,0-.33.16-1-.15-1-.32-.17,0,.64-.32.8,0-.64,0-1.29-.48-1.45-.32-.15.17.48-.32.65s-.31-.48-.63-.8a105.71,105.71,0,0,0,0,16.23c0,.81.47,1.61.31,2.42a1.43,1.43,0,0,0-.16,1.12,2.59,2.59,0,0,0,.48,1.44c.17.64-.48,1.79-.31,2.43.48,1.12,1,3.88,1.76,3.88h-6.42c.64-4.35,1.78-2.91,1.6-4.36,0-.48-.31-1.21-.15-1.7.8-1.28.15-2.53.32-4a2.66,2.66,0,0,0,.31-1,139.55,139.55,0,0,0,0-16.43c-.31.15-.16.46-.16.63-.15.33-.65.16-.81-.17.16,0,.16-.16.16-.32-.31-.48-.31.16-.48.16a1.74,1.74,0,0,0-.17,1.29c-.31-.17,0-1-.31-.8-.33,0-.17.64-.17,1,0,.16.17.16.33.16,0,1.12-.49,2.24-.33,3.36-.31-.15,0-.63-.31-.79-.17,0-.17.16-.17.31a5.22,5.22,0,0,0-.31-2.25c-.32.48,0,1.13-.17,1.61-.15-.48-.15-.79-.31-1.28s.31-.8,0-1.28l-.17.16c0-.33.17-.8-.16-.8-.31-.16-.16.32-.16.64a3.27,3.27,0,0,1,.65-2.89c.15-.16,0-.32-.15-.32-.49,0-.49.48-.64.79-.17-1,.47-1.59,1.11-2.24,0-.17-.32-.17-.48-.17a1.06,1.06,0,0,0-.64.81c-.17-1,.64-1.45,1.43-1.77a.61.61,0,0,0-1,.16,4.13,4.13,0,0,1,1.28-1.6.82.82,0,0,0-.64-.34c.31-.15,0-.48.31-.63,0-.16-.15-.16-.31-.16a2,2,0,0,0-.81,1.61c0-.17,0-.64-.16-.64-.48.31-.31,1-.31,1.44-.31-.17,0-.65-.31-.65-.49.34,0,1-.33,1.45,0-.17.17-.49-.16-.65a10,10,0,0,0-.32,2.08.82.82,0,0,0-.31-.63c-.16.48-.48.79-.16,1.28Z" transform="translate(-206.83 -206.98)"/><path class="cls-2" d="M241.65,259.92c5.31,1.56,9.94,4.5,14.28,7.71,9.15-8,22-11.08,33.86-8.82-11.4.31-23.26,3.37-31.62,11.39l6.74,6.25c.65-1,.65-2.25,1.44-3.2a3.66,3.66,0,0,1,3.22-1.29,2.52,2.52,0,0,1,1.93,2.89c-.49,1.92-2.58,2.4-4.34,1.28-.31-.15-.81,1-.48,1.45a6,6,0,0,0,3.2,2.24,2.57,2.57,0,0,1,4.18,0,2.18,2.18,0,0,1-.81,3.21c-3,1.28-6.26-.8-8.65-2.73-1.45,2.24-5.3,4.65-7.55,1.76a2.22,2.22,0,0,1-.31-1.76,2.48,2.48,0,0,1,2.88-1.92,2.15,2.15,0,0,1,1.61,1c.31.48-.16,1.29.48,1.14.48,0,1.27-.81,1.11-1-1.6-3.06-4.65-4.65-7-6.91-2.41,2.26-5.13,3.85-7.07,6.74-.31.48.64,1.14,1.12,1.14.65,0,.33-1.45,1.12-1.78a3.18,3.18,0,0,1,2.42-.16,2.72,2.72,0,0,1,1.44,2.73c-.32,1.6-2.08,2.24-3.53,2.07a6.47,6.47,0,0,1-4.34-3c-2.24,1.76-4.8,3.52-7.86,3.21a2.31,2.31,0,0,1-1.59-1.12,2.45,2.45,0,1,1,4.16-2.58,6,6,0,0,0,3.2-2.24c.31-.48-.16-1.61-.65-1.45a4,4,0,0,1-2.73.49,2.73,2.73,0,0,1-1.44-2.73,2.47,2.47,0,0,1,3-1.93,5.49,5.49,0,0,1,2.08,1.29c.8,1,.8,2.24,1.45,3.2l6.75-6.25c-8.36-8-20.23-11.08-31.63-11.39a42,42,0,0,1,19.91,1.11Z" transform="translate(-206.83 -206.98)"/></svg>
