<svg id="Layer_1" data-name="Layer 1" xmlns="http://www.w3.org/2000/svg" viewBox="0 0 99.24 89.05"><defs><style>.cls-1{fill:#010101;}.cls-2{fill:#6d97ca;}.cls-3{fill:#719dd2;}.cls-4{fill:#141f2e;}.cls-5{fill:#080f18;}.cls-6{fill:#141f2d;}.cls-7{fill:#111b28;}.cls-8{fill:#0d1622;}.cls-9{fill:#0f1825;}.cls-10{fill:#0f1927;}.cls-11{fill:#162131;}.cls-12{fill:#0c141f;}.cls-13{fill:#15202f;}.cls-14{fill:#6b96cb;}.cls-15{fill:#89ca8c;}.cls-16{fill:#f6d87a;}</style></defs><title>ايقونات وصور الاستضافة</title><path class="cls-1" d="M74.85,49.24c0,1.8.88,1.75,2.1,1.71s2.28,0,3.43,0c4.06,0,5.33,1.23,5.35,5.2s0,7.82,0,11.73S84.46,73,80.56,73h-2c-5.41,0-10.82.07-16.22,0-1.28,0-2.55,0-3.82-.06a6.35,6.35,0,0,0-1.12.06H43.66a6.35,6.35,0,0,0-1.12-.06Q40.77,73,39,73c-5.31.07-10.61,0-15.91,0h-2c-4.45,0-5.59-1.15-5.61-5.55q0-5.58,0-11.16c0-4.1,1.23-5.32,5.22-5.34a29.86,29.86,0,0,1,3.14,0c1.49.17,1.92-.37,1.93-1.87s-.74-1.7-1.91-1.58a2.8,2.8,0,0,1-.29,0c-8.1-.14-8.1-.14-8.1-8.15,0-3,0-6.1,0-9.16.06-3.29,1.27-4.48,4.47-4.51,1.24,0,2.49-.06,3.72,0s2.07,0,2.11-1.75c0-1.87-.84-1.88-2.24-1.9-8-.1-8.07-.21-8.07-8.26,0-3-.05-6.1,0-9.15C15.57,1.33,17,0,20.26,0,24.17,0,28.08.06,32,0c1.34,0,2.48.1,2.95,1.59h0c-.06,2.06-1.66,2-3,2.13-3,.18-6.09.12-9.14.06-2.22,0-3.07.9-3,3.06.08,2.67.09,5.34,0,8-.07,2.37,1,3.17,3.29,3.14,5.05-.06,10.1,0,15.15,0,13.34,0,26.68-.1,40,.07h.1l.52-.05c3.09-.3,3.17-.57,3.2-4,0-2.47,0-5,0-7.43,0-1.72-.77-2.64-2.56-2.73l-.75,0-1.2,0h0l-1.18,0H43.14a22.17,22.17,0,0,1-4-.16c-.89-.33-1.69-.74-1.51-1.91h0C37.94.17,39,0,40.22,0Q60.8,0,81.39,0c2.74,0,4.19,1.43,4.28,3.92.18,4.66.13,9.34,0,14a3.76,3.76,0,0,1-3.89,4c-1.52.07-3,.06-4.57.09-1.18,0-2.44-.39-2.39,1.73.05,1.83.84,2,2.26,1.89s2.86,0,4.29,0c2.92,0,4.23,1.16,4.31,4.1.11,4.48.1,9,0,13.44-.07,2.94-1.55,4.24-4.51,4.28-1.43,0-2.86,0-4.29,0C75.65,47.45,74.86,47.51,74.85,49.24Z"/><path class="cls-2" d="M78.32,18.85c-19.22,0-38.44,0-57.66.14-1.71,0-2.1-.67-2.07-2.2.07-3.8.1-7.61,0-11.42-.06-1.83.5-2.53,2.42-2.46,3.71.13,7.42,0,11.13,0,1.19,0,2.31,0,2.81-1.36l2.71,0A2.52,2.52,0,0,0,38.88,3c4.36.44,8.74.15,13.11.18,8.09.06,16.18,0,24.27,0,2.69,0,2.81.18,2.4,3-1.21,1.27-2.81,1-4.3,1-7.24,0-14.47,0-21.71,0-2.88,0-3.83.88-4.14,3.27-.38,3,1,4.55,4.28,4.6,7.14.12,14.28,0,21.42.06,1.41,0,2.87-.17,4.16.67A2.16,2.16,0,0,1,78.32,18.85Z"/><path class="cls-2" d="M78.32,69.77l-57.92.12c-1.14,0-1.84-.24-1.79-1.55.18-4.63-.36-9.29.29-13.92.58-.48,1.27-.31,1.92-.31,18.45,0,36.9,0,55.35,0,2.23,0,3.33.59,2.52,3-1.17,1.34-2.77,1.05-4.25,1.06-7.22,0-14.44,0-21.66,0-3.08,0-4.17,1.05-4.31,3.7-.14,2.8,1.07,4.13,4.09,4.18,7.22.1,14.44,0,21.66,0,1.41,0,2.87-.16,4.15.68A2.16,2.16,0,0,1,78.32,69.77Z"/><path class="cls-2" d="M18.89,44c-.62-4.63-.11-9.28-.28-13.92-.05-1.34.73-1.51,1.83-1.5q29,.07,57.9.11c.9,2.63.42,3.46-2.39,3.52-6.28.14-12.57,0-18.85.06-2.09,0-4.19-.25-6.25.24-3.46,2.12-3.65,5.87-.39,8.23,7.8.47,15.6.06,23.39.2a15,15,0,0,1,3.41.2A1.68,1.68,0,0,1,78.75,43c0,1.12-.75,1.4-1.73,1.38a2.62,2.62,0,0,0-.28,0c-19,0-38,0-57.07,0A1.66,1.66,0,0,1,18.89,44Z"/><path class="cls-3" d="M67.48,50.85Q49,50.9,30.41,51c-1.32,0-1.83-.33-1.83-1.74s.51-1.75,1.83-1.74c12.36.07,24.72.08,37.07.12A2.3,2.3,0,0,1,67.48,50.85Z"/><path class="cls-2" d="M18.89,44q28.43,0,56.85,0c.91,0,2.42.57,2.48-1s-1.5-1.1-2.39-1.1c-7.91,0-15.81,0-23.71,0-1,0-2.13.33-3-.61,1.16-1.15,2.65-.9,4-.91,7.42,0,14.83,0,22.24,0,3.12,0,3.73-.73,3.72-3.68S78.54,33,75.37,33c-7.22-.08-14.44,0-21.66,0-1.39,0-2.9.27-4-1,.88-.84,2-.5,3-.5,7.67,0,15.35-.1,23,0,2.18,0,3-.66,2.61-2.74,5.38-.33,4.26-.11,4.34,4,.06,3.24,0,6.48,0,9.71,0,1.26-.12,2.18-1.82,2.18q-30.57-.07-61.15,0A.73.73,0,0,1,18.89,44Z"/><path class="cls-2" d="M78.33,57.2c.33-2-.27-2.86-2.55-2.85-19,.09-37.92.06-56.88.07.64-1.11,1.71-.56,2.56-.56,19.43,0,38.86,0,58.29-.08,2.48,0,3.11.81,3,3.11-.17,2.94,0,5.9,0,8.85,0,4.33,0,4.33-4.37,4l0-2.82A12.33,12.33,0,0,0,78.33,57.2Z"/><path class="cls-2" d="M78.33,6.25c.43-2.34-.67-2.84-2.84-2.82-11.21.1-22.41.06-33.61,0-1,0-2.11.34-3-.48C52.79,3,66.69,3,80.6,2.89c1.7,0,2.13.69,2.11,2.21-.06,3.24,0,6.48,0,9.72,0,4.34,0,4.34-4.37,4,0-.94,0-1.89,0-2.83C79.5,12.77,79.86,9.52,78.33,6.25Z"/><path class="cls-1" d="M29.14,22.31c.67-.52,1.46-.31,2.2-.31q19,0,38,0c1.4,0,2.86-.34,2.79,2s-1.62,1.68-2.79,1.69q-19,0-37.95,0c-3.15,0-3.29-.24-2.22-3.43a4.52,4.52,0,0,0,3.88,2c10.29,0,20.58,0,30.87,0a2,2,0,0,0,1.72-.51c-1-.73-2.16-.5-3.22-.51-9.63,0-19.25,0-28.88,0C32,23.23,30.42,23.44,29.14,22.31Z"/><path class="cls-3" d="M67.48,50.85V47.61c1,0,2.07,0,3.1-.11,1.37-.13,1.48.66,1.48,1.73S72,51.08,70.58,51C69.55,50.86,68.52,50.88,67.48,50.85Z"/><path class="cls-2" d="M78.33,6.25a7,7,0,0,1,0,9.77Q65.14,16,52,16c-3.59,0-4.3-.87-4.28-5,0-3.91.69-4.62,4.32-4.63Z"/><path class="cls-4" d="M32.38,10.85A1.45,1.45,0,0,1,31,12.38,1.21,1.21,0,0,1,29.67,11,1.19,1.19,0,0,1,30.81,9.7,1.32,1.32,0,0,1,32.38,10.85Z"/><path class="cls-4" d="M37.09,12.42c-.83-.18-1.43-.65-1.4-1.49A1.22,1.22,0,0,1,37.18,9.7,1.18,1.18,0,0,1,38.37,11C38.43,11.88,37.87,12.26,37.09,12.42Z"/><path class="cls-5" d="M24.92,9.68c.85.14,1.37.52,1.36,1.31a1.25,1.25,0,0,1-1.48,1.32,1.32,1.32,0,1,1,.12-2.63Z"/><path class="cls-6" d="M44.58,11c-.19.85-.7,1.42-1.53,1.36a1.3,1.3,0,0,1-1.3-1.51A1.24,1.24,0,0,1,43.09,9.7,1.37,1.37,0,0,1,44.58,11Z"/><path class="cls-2" d="M78.33,57.2c2.62,2.33,2.6,7.46,0,9.75-8.77,0-17.53,0-26.3,0-3.59,0-4.3-.88-4.27-5.06,0-3.93.69-4.65,4.31-4.66Z"/><path class="cls-7" d="M44.58,61.88c-.21,1-.76,1.56-1.57,1.49a1.35,1.35,0,0,1-1.26-1.58,1.27,1.27,0,0,1,1.36-1.17C44.05,60.57,44.37,61.23,44.58,61.88Z"/><path class="cls-8" d="M25,63.38c-.76-.14-1.47-.5-1.5-1.35a1.29,1.29,0,0,1,1.39-1.41,1.27,1.27,0,0,1,1.39,1.12C26.4,62.66,25.77,63.07,25,63.38Z"/><path class="cls-9" d="M31,63.42c-.77-.2-1.37-.55-1.33-1.48a1.24,1.24,0,0,1,1.18-1.29,1.21,1.21,0,0,1,1.49,1.23C32.41,62.72,31.74,63.15,31,63.42Z"/><path class="cls-10" d="M36.88,60.64c.94,0,1.43.42,1.49,1.31a1.24,1.24,0,0,1-1.07,1.39,1.35,1.35,0,0,1-1.58-1.21A1.21,1.21,0,0,1,36.88,60.64Z"/><path class="cls-2" d="M49.72,31.94q13.55-.06,27.07-.1c2.32,0,3.5,1.12,3.34,3.54a29.71,29.71,0,0,0,0,3.13,2.53,2.53,0,0,1-2.76,2.89c-9.4,0-18.8.31-28.2-.16C46.82,38.23,47.07,34,49.72,31.94Z"/><path class="cls-11" d="M26.26,37c-.08.52-.64.93-1.5.86a1.24,1.24,0,0,1-1.27-1.24,1.33,1.33,0,0,1,1.4-1.45C25.59,35.15,26.35,35.59,26.26,37Z"/><path class="cls-12" d="M44.56,36.66A1.38,1.38,0,0,1,43,37.82a1.18,1.18,0,0,1-1.21-1.3c0-1,.72-1.32,1.56-1.26A1.29,1.29,0,0,1,44.56,36.66Z"/><path class="cls-13" d="M38.38,36.28c0,1.25-.56,1.62-1.49,1.57a1.15,1.15,0,0,1-1.2-1.29,1.3,1.3,0,0,1,1.53-1.31C38,35.32,38.49,35.69,38.38,36.28Z"/><path class="cls-4" d="M31,35.2c.84.18,1.43.64,1.33,1.55A1.18,1.18,0,0,1,31,37.86c-1,0-1.32-.58-1.29-1.48S30.32,35.32,31,35.2Z"/><path class="cls-14" d="M29.14,22.31l34.54.05h2c.9,0,1.73,0,1.79,1.28s-.75,1.55-1.83,1.54c-4.85,0-9.7,0-14.56,0-6.37,0-12.75-.11-19.12.06-2.35.06-3.09-.79-2.83-2.93Z"/><path class="cls-2" d="M72.58,12.69c-6.74.06-13.48.15-20.23.16-2.6,0-1.21-1.93-1.37-3.1,6.9-.63,13.8-.26,20.7-.18C73.92,9.59,73.36,11.32,72.58,12.69Z"/><path class="cls-2" d="M72.58,12.69c.54-2.47-.6-3-2.9-3-6.23.13-12.46,0-18.7,0,.44-1,1.33-.5,2-.5,7.29,0,14.57,0,21.86,0,1.4,0,2.51-.13,2.47,2S76,12.83,74.84,12.85C74.08,12.85,73.33,12.75,72.58,12.69Z"/><path class="cls-2" d="M77.29,62.24c0,2-1.06,1.81-2.35,1.81-7.32,0-14.65,0-22,0-.65,0-1.54.5-2-.5V60.66c.44-1,1.33-.49,2-.5,7.33,0,14.66,0,22,0C76.56,60.11,77.3,60.33,77.29,62.24Z"/><path class="cls-2" d="M72.61,38.3c-6.74,0-13.48,0-20.21.14-1.62,0-1.54-.82-1.58-1.94s.28-1.67,1.57-1.65c6.74.09,13.48.1,20.22.13A2.34,2.34,0,0,1,72.61,38.3Z"/><path class="cls-2" d="M72.61,38.3V35c1,0,2.07,0,3.09-.12,1.63-.19,1.49.84,1.53,1.92S77,38.56,75.7,38.42C74.68,38.31,73.64,38.34,72.61,38.3Z"/><circle class="cls-1" cx="24.88" cy="10.82" r="1.7"/><circle class="cls-1" cx="31.03" cy="10.82" r="1.7"/><circle class="cls-1" cx="37.17" cy="10.82" r="1.7"/><circle class="cls-1" cx="43.32" cy="10.82" r="1.7"/><circle class="cls-1" cx="24.88" cy="36.49" r="1.7"/><circle class="cls-1" cx="31.03" cy="36.49" r="1.7"/><circle class="cls-1" cx="37.17" cy="36.49" r="1.7"/><circle class="cls-1" cx="43.32" cy="36.49" r="1.7"/><circle class="cls-1" cx="24.88" cy="61.8" r="1.7"/><circle class="cls-1" cx="31.03" cy="61.8" r="1.7"/><circle class="cls-1" cx="37.17" cy="61.8" r="1.7"/><circle class="cls-1" cx="43.32" cy="61.8" r="1.7"/><rect class="cls-2" x="29.1" y="21.96" width="43.23" height="3.3"/><rect class="cls-1" x="3.01" y="82.06" width="36.07" height="2.62"/><rect class="cls-1" x="61.31" y="82.06" width="34.52" height="2.62"/><rect class="cls-1" x="36.48" y="77.84" width="27.44" height="2.61"/><rect class="cls-1" x="36.48" y="86.09" width="27.44" height="2.61"/><rect class="cls-1" x="36.46" y="80.09" width="2.61" height="7.45"/><rect class="cls-1" x="61.31" y="80.32" width="2.61" height="7.45"/><rect class="cls-1" x="50.41" y="74.24" width="8.26" height="2.61" transform="translate(-21 130.09) rotate(-90)"/><rect class="cls-1" x="44.74" y="74.12" width="7.45" height="2.61" transform="translate(-26.95 123.9) rotate(-90)"/><rect class="cls-1" y="77.69" width="11.35" height="11.35" rx="2.78" ry="2.78"/><rect class="cls-15" x="3" y="80.69" width="5.35" height="5.35" rx="1.34" ry="1.34"/><rect class="cls-1" x="17.83" y="77.69" width="11.35" height="11.35" rx="2.78" ry="2.78"/><rect class="cls-16" x="20.83" y="80.69" width="5.35" height="5.35" rx="1.34" ry="1.34"/><rect class="cls-1" x="70.06" y="77.69" width="11.35" height="11.35" rx="2.78" ry="2.78"/><rect class="cls-15" x="73.06" y="80.69" width="5.35" height="5.35" rx="1.34" ry="1.34"/><rect class="cls-1" x="87.89" y="77.69" width="11.35" height="11.35" rx="2.78" ry="2.78"/><rect class="cls-16" x="90.89" y="80.69" width="5.35" height="5.35" rx="1.34" ry="1.34"/><path class="cls-1" d="M23.09,73H39C33.69,73.07,28.39,73,23.09,73Z"/><path class="cls-1" d="M78.59,73c-5.41,0-10.82.07-16.22,0Z"/><rect class="cls-1" x="47.85" y="58.44" width="32.59" height="1.79"/><rect class="cls-1" x="47.85" y="64.11" width="32.59" height="1.79"/><rect class="cls-1" x="47.84" y="59.99" width="1.79" height="5.12"/><rect class="cls-1" x="78.64" y="60.15" width="1.79" height="5.12"/><rect class="cls-1" x="47.56" y="32.76" width="32.59" height="1.79"/><rect class="cls-1" x="47.56" y="38.42" width="32.59" height="1.79"/><rect class="cls-1" x="47.55" y="34.31" width="1.79" height="5.12"/><rect class="cls-1" x="78.36" y="34.46" width="1.79" height="5.12"/><rect class="cls-1" x="47.56" y="7.3" width="32.59" height="1.79"/><rect class="cls-1" x="47.56" y="12.97" width="32.59" height="1.79"/><rect class="cls-1" x="47.55" y="8.85" width="1.79" height="5.12"/><rect class="cls-1" x="78.36" y="9.01" width="1.79" height="5.12"/></svg>