<svg id="Layer_1" data-name="Layer 1" xmlns="http://www.w3.org/2000/svg" viewBox="0 0 96.82 96.82"><defs><style>.cls-1{fill:#441115;}</style></defs><title>ايقونات وصور الاستضافة</title><path class="cls-1" d="M73.88,17.83a5.69,5.69,0,1,0,5.69,5.69A5.69,5.69,0,0,0,73.88,17.83Zm-25.3,7.3A23.91,23.91,0,1,0,72.49,49,23.94,23.94,0,0,0,48.58,25.13Zm0,39.22A15.32,15.32,0,1,1,63.89,49,15.33,15.33,0,0,1,48.58,64.35ZM96.82,29.16A29.17,29.17,0,0,0,67.66,0H29.16A29.17,29.17,0,0,0,0,29.16v38.5A29.17,29.17,0,0,0,29.16,96.82h38.5A29.17,29.17,0,0,0,96.82,67.66Zm-9.13,38.5a20,20,0,0,1-20,20H29.16a20,20,0,0,1-20-20V29.16a20,20,0,0,1,20-20h38.5a20,20,0,0,1,20,20Z"/></svg>