<svg id="Layer_1" data-name="Layer 1" xmlns="http://www.w3.org/2000/svg" viewBox="0 0 78.38 78.3"><defs><style>.cls-1{fill:#162b53;}</style></defs><title>ايقونات وصور الاستضافة</title><path class="cls-1" d="M0,78.3V27l4.44-.2V17.71H17.89V9.12H24V0h30.2V9h6.15v8.68H73.93v9.16h4.45V78.3Zm27.42-4.57C28.74,63.6,32,59.42,38.82,59.2a11.38,11.38,0,0,1,7.36,2.4c4,3.06,4.8,7.42,4.64,12.12h4.81V13.83H22.8v59.9ZM60.6,31.57V73.69H73.79V31.57Zm-56,0v42.1H17.82V31.57ZM28.92,8.91H49.46V4.55H28.92ZM69.2,22.42H60.58v4.32H69.2ZM17.8,26.75V22.39H9.19v4.36Zm19,37.7c-3.84,1.64-5.15,4.73-4.13,9.26h4.13Zm9.08,9.3c.74-5.11-.53-8-4.17-9.19v9.19Z"/><path class="cls-1" d="M32.14,34.48H27.77V28.53h4.37Z"/><path class="cls-1" d="M41.37,34.46H37V28.59h4.4Z"/><path class="cls-1" d="M50.63,34.46H46.22V28.55h4.41Z"/><path class="cls-1" d="M32.22,55H27.78V49.17h4.44Z"/><path class="cls-1" d="M41.43,55H37V49.1h4.43Z"/><path class="cls-1" d="M50.66,55H46.2V49.17h4.46Z"/><path class="cls-1" d="M27.7,24.14V18.37h4.47v5.77Z"/><path class="cls-1" d="M37,24.15v-5.8h4.46v5.8Z"/><path class="cls-1" d="M50.64,24.23H46.22V18.31h4.42Z"/><path class="cls-1" d="M27.73,38.69h4.45v5.84H27.73Z"/><path class="cls-1" d="M50.66,38.78v5.81H46.19V38.78Z"/><path class="cls-1" d="M37,38.71h4.38v5.87H37Z"/><path class="cls-1" d="M69.27,43.08H65V37.15h4.24Z"/><path class="cls-1" d="M65,53.3V47.41h4.28V53.3Z"/><path class="cls-1" d="M69.27,57.55v5.89H65V57.55Z"/><path class="cls-1" d="M9.1,43V37.17h4.29V43Z"/><path class="cls-1" d="M13.47,47.46v5.79H9.12V47.46Z"/><path class="cls-1" d="M9.12,63.44V57.55h4.2v5.89Z"/></svg>