<svg id="Layer_1" data-name="Layer 1" xmlns="http://www.w3.org/2000/svg" viewBox="0 0 56.84 74.26"><defs><style>.cls-1{fill:#1e94d2;}.cls-2{fill:#fff;}</style></defs><title>ايقونات وصور الاستضافة</title><path class="cls-1" d="M56.73,14.39c0-1.89-1-2.69-2.87-2.73A32.57,32.57,0,0,1,31,1.81c-2.45-2.43-2.84-2.42-5.38.08A32.58,32.58,0,0,1,3,11.67c-2.26.07-2.94.76-3,3C0,18.79,0,22.87,0,27H0c0,3,0,5.95,0,8.92a41,41,0,0,0,26.63,38,4.58,4.58,0,0,0,3,.16C45.21,68,54.51,56.58,56.32,39.9,57.23,31.48,56.65,22.9,56.73,14.39ZM28.36,56.68A19.58,19.58,0,1,1,48,37.18,19.64,19.64,0,0,1,28.36,56.68Z"/><path class="cls-1" d="M28.47,21.85A15.27,15.27,0,1,0,43.6,37.1,15.26,15.26,0,0,0,28.47,21.85Zm10.45,12a2.89,2.89,0,0,1-.36.44c-.11.11-.22.23-.34.34l-.18.18c-3.61,3.67-7.25,7.3-10.91,10.93a2.13,2.13,0,0,1-3.3,0C22,44,20.1,42.1,18.26,40.22a2.16,2.16,0,1,1,3-3.08c1.36,1.37,2.61,2.84,4,4.38l5.2-5.21.47-.48L35.57,31a2.74,2.74,0,0,1,4.34.12l.66.89Z"/><path class="cls-2" d="M38.22,34.66l-.16.18h0Z"/></svg>