<svg id="Layer_1" data-name="Layer 1" xmlns="http://www.w3.org/2000/svg" viewBox="0 0 87.52 87.52"><defs><style>.cls-1{fill:#fff;}.cls-2{fill:none;}</style></defs><title>ايقونات وصور الاستضافة</title><path class="cls-1" d="M43.76,40.5A3.26,3.26,0,1,0,47,43.76,3.26,3.26,0,0,0,43.76,40.5Zm0,0A3.26,3.26,0,1,0,47,43.76,3.26,3.26,0,0,0,43.76,40.5Zm0,0A3.26,3.26,0,1,0,47,43.76,3.26,3.26,0,0,0,43.76,40.5Zm0,0A3.26,3.26,0,1,0,47,43.76,3.26,3.26,0,0,0,43.76,40.5Zm0-40.5A43.76,43.76,0,1,0,87.52,43.76,43.76,43.76,0,0,0,43.76,0ZM51,43.76a7.26,7.26,0,1,1-7.26-7.26,7.18,7.18,0,0,1,4,1.18l14.9-13.8,2.72,2.94-15,13.88A7,7,0,0,1,51,43.76ZM43.76,10A33.81,33.81,0,0,0,10.05,41.82h-4a37.76,37.76,0,0,1,75.42,0h-4A33.82,33.82,0,0,0,43.76,10Zm0,30.5A3.26,3.26,0,1,0,47,43.76,3.26,3.26,0,0,0,43.76,40.5Zm0,0A3.26,3.26,0,1,0,47,43.76,3.26,3.26,0,0,0,43.76,40.5Zm0,0A3.26,3.26,0,1,0,47,43.76,3.26,3.26,0,0,0,43.76,40.5Z"/><path class="cls-1" d="M47,43.76a3.26,3.26,0,1,1-3.26-3.26A3.26,3.26,0,0,1,47,43.76Z"/><polyline class="cls-2" points="47.76 40.36 47.77 40.36 47.77 40.35"/></svg>