<svg id="Layer_1" data-name="Layer 1" xmlns="http://www.w3.org/2000/svg" viewBox="0 0 43.12 92.82"><defs><style>.cls-1{fill:#441115;fill-rule:evenodd;}</style></defs><title>ايقونات وصور الاستضافة</title><path class="cls-1" d="M9.5,46.78V91.65a1.17,1.17,0,0,0,1.17,1.17H27.34a1.16,1.16,0,0,0,1.16-1.17V46H40.59A1.16,1.16,0,0,0,41.75,45l1.16-13.74A1.16,1.16,0,0,0,41.75,30H28.5V20.22a4.14,4.14,0,0,1,4.14-4.14H42a1.17,1.17,0,0,0,1.17-1.17V1.17A1.17,1.17,0,0,0,42,0H26.22A16.72,16.72,0,0,0,9.5,16.72V30H1.17A1.16,1.16,0,0,0,0,31.13V44.88A1.16,1.16,0,0,0,1.17,46H9.5Z"/></svg>