<svg id="Layer_1" data-name="Layer 1" xmlns="http://www.w3.org/2000/svg" viewBox="0 0 67.33 67.33"><defs><style>.cls-1{fill:#f6921e;}.cls-2{fill:#fff;}</style></defs><title>ايقونات وصور الاستضافة</title><circle class="cls-1" cx="33.67" cy="33.67" r="33.67"/><path class="cls-2" d="M49.76,42.47A3.75,3.75,0,0,0,46.23,45H36.85A3.72,3.72,0,0,0,35,42.85c0-1,0-2,0-3.07h1.62c3.72,0,7.45.09,11.18,0a7.57,7.57,0,0,0,6.43-11.07A7.8,7.8,0,0,0,48,24.45a7,7,0,0,0-3-4.9,7.67,7.67,0,0,0-5.59-.93c-1.31-5.24-4.1-7.83-8.3-7.73A8,8,0,0,0,26,12.78a8.15,8.15,0,0,0-2.9,6.69c-.42,0-.73.06-1.05.07a10.09,10.09,0,0,0-9.42,12.68c1.18,4.54,5.07,7.48,10.07,7.55,3.16,0,6.32,0,9.7,0,0,1,0,1.92,0,2.81A3.75,3.75,0,0,0,29.79,45h-9a3.76,3.76,0,1,0,0,2.51h9a3.75,3.75,0,0,0,7.07,0h9.37a3.75,3.75,0,1,0,3.53-5ZM17.23,47.58a1.36,1.36,0,1,1,1.36-1.36A1.36,1.36,0,0,1,17.23,47.58Zm16.62-.11a1.32,1.32,0,0,1-.53.11,1.4,1.4,0,0,1-.53-.11,1.35,1.35,0,0,1,0-2.51,1.44,1.44,0,0,1,.5-.1,1.36,1.36,0,0,1,.53,2.61ZM22.79,37.28a7.69,7.69,0,0,1-8-7.33,7.48,7.48,0,0,1,6.67-7.77c1.34-.13,2.71,0,4.15,0,0-1.24,0-2.23,0-3.23A5.59,5.59,0,0,1,31,13.41a5.45,5.45,0,0,1,5.4,3.8v0a5.27,5.27,0,0,1,.27,1.39c0,.11,0,.21,0,.32,0,.93,0,1.86,0,2.9a7.93,7.93,0,0,1,4.44-.93,4,4,0,0,1,2,.5l0,0,.21.11.37.24a0,0,0,0,1,0,0,4.22,4.22,0,0,1,1.64,4.49c0,.19,0,.39,0,.74h1.93A5.17,5.17,0,0,1,52.52,32,5.08,5.08,0,0,1,48,37.18a6.75,6.75,0,0,1-1.19.11C38.82,37.29,30.81,37.31,22.79,37.28Zm27,10.3a1.36,1.36,0,1,1,1.36-1.36A1.36,1.36,0,0,1,49.76,47.58Z"/><path class="cls-2" d="M43.77,21.78l-.37-.24-.21-.11A1.86,1.86,0,0,1,43.77,21.78Z"/></svg>