<svg id="Layer_1" data-name="Layer 1" xmlns="http://www.w3.org/2000/svg" viewBox="0 0 98.82 90.69"><defs><style>.cls-1{fill:#f6921e;}</style></defs><title>ايقونات وصور الاستضافة</title><path class="cls-1" d="M50.05,0C60.43.28,69.23,5,75.4,14.39a5.48,5.48,0,0,0,3.82,2.66,24.62,24.62,0,0,1,3.1,47.34c-1.39.49-3,1.32-3.8-.61s.76-2.71,2.32-3.26C88.36,57.84,93,52.45,94.29,44.73c1.39-8-1.25-14.85-7.76-19.73a24.93,24.93,0,0,0-8.71-3.79c-2.5-.62-4.17-1.48-5.51-3.82A26.25,26.25,0,0,0,46,4.36c-11,1.55-20,9.32-22.47,20-.78,3.44-2.1,4.54-5.58,4.82-7.2.56-13.22,7.27-13.86,14.66A16.52,16.52,0,0,0,15.58,61c1,.31,2.11.24,2.91.76a2.54,2.54,0,0,1,.45.36,2.06,2.06,0,0,1-.56,3.32,1.25,1.25,0,0,1-.55.12,17.07,17.07,0,0,1-11.17-5,21.37,21.37,0,0,1-5-23.66C4.35,30.43,9.56,26.42,16.9,25.12c1.81-.33,2.32-1.23,2.76-2.78C23.38,9.26,35.69,0,50.05,0Z"/><path class="cls-1" d="M39.07,66c-3.29,0-6.22.11-9.15-.06A4.1,4.1,0,0,1,27,64.52c-.33-.52.36-2.09,1-2.77C34.45,55.24,41,48.84,47.36,42.36c1.41-1.42,2.53-1.46,4,0,6.42,6.48,12.91,12.89,19.3,19.39.67.69,1.38,2.24,1.06,2.77a4,4,0,0,1-2.87,1.39c-2.93.18-5.87.07-9.17.07v9c0,3.68,0,7.37,0,11,0,3-1.37,4.5-4.33,4.61-4,.16-7.93.16-11.88,0-3.08-.12-4.31-1.63-4.33-4.88C39.05,79.27,39.07,72.83,39.07,66ZM34.55,61.7c1.85,0,3.73,0,5.62,0,2.1,0,3,.93,3,3,0,1,0,2,0,3V86.27H55.57V83.08c0-6.08,0-12.16,0-18.24,0-2.23.89-3.23,3.12-3.16,1.86.07,3.72,0,5.86,0l-15-15Z"/></svg>