<svg id="Layer_1" data-name="Layer 1" xmlns="http://www.w3.org/2000/svg" viewBox="0 0 82.76 82.67"><defs><style>.cls-1{fill:#109395;}</style></defs><title>ايقونات وصور الاستضافة</title><path class="cls-1" d="M82.75,82.67H0A108.15,108.15,0,0,1,.6,71.5c.52-3.42,3.17-5.27,6.36-6.31,6.12-2,12.21-4.07,18.36-6C27.2,58.66,28,57.89,28,55.77c-.1-2.78-.14-5.42-1.67-7.93-.81-1.33-1-3-1.59-4.82-1.13,0-2.42,0-3.71,0-3.13-.13-5.83-2.15-6-5-.45-8.16.23-16.3,3.72-23.77A25.19,25.19,0,0,1,44.09.19C55.48,1.73,64.35,9.55,66.41,20.44A112.35,112.35,0,0,1,68,35.89c.23,4.83-2.32,7.11-7.22,7.13H58.12c-.83,4.58-4,8.46-3.14,13.45.24,1.44.57,2.11,2,2.55,6.29,2,12.54,4,18.79,6.13,5,1.68,7,4.5,7,9.77C82.76,77.44,82.75,80,82.75,82.67ZM77.6,77.73c1-5.34.21-6.81-4.59-8.39-6.11-2-12.22-4-18.36-6a3.42,3.42,0,0,0-2.61.43c-7.88,5.58-13.19,5.59-21,.07a3.68,3.68,0,0,0-2.81-.49c-6.15,1.9-12.25,3.95-18.37,6-4.72,1.55-5.65,3.27-4.47,8.39H16.65l.21-4.68h4.61l.26,4.66H61.15l.29-4.63h4.74v4.63ZM44.7,29.12C42.62,30.29,40.46,32,38,32.75s-5.42.57-8.25.81c0,3.13-.34,6.3.07,9.37A11.74,11.74,0,0,0,43.68,53.18a10.92,10.92,0,0,0,7.17-4.91h-6.5v-4.8h8.73V34ZM24.85,24c1.75-8.66,7.58-14,16-14.56a15.67,15.67,0,0,1,9.61,2.64A17.15,17.15,0,0,1,58.08,24h3.8c.24-9.93-10.07-19.34-20.72-19-10.82.31-20.89,9.83-20,19.06Zm17.56-2.9H47c.85,4.35,2.55,6.29,6.16,7,.5-5-1-9.11-5.28-11.86a11.19,11.19,0,0,0-13,.05c-4.28,2.78-5.7,6.93-5.2,11.85C37.11,29.59,41,27.41,42.41,21.11Zm7.48,34.81A16.4,16.4,0,0,1,33.12,56c-1.2,3.14,1,4.14,2.88,5.36,4.16,2.74,8.08,2,12-.64C49.66,59.61,50.8,58.4,49.89,55.92ZM24.54,29.12c-4.9-.48-5-.42-5,4.1,0,.92,0,1.84,0,2.75-.05,1.56.7,2.25,2.23,2.21.88,0,1.77,0,2.74,0Zm33.83,8.81c4.58.72,5,.42,4.94-3.91a10.93,10.93,0,0,0-.08-3.19A3.2,3.2,0,0,0,61.46,29,10.23,10.23,0,0,0,58.37,29Z"/></svg>