<svg id="Layer_1" data-name="Layer 1" xmlns="http://www.w3.org/2000/svg" viewBox="0 0 117.74 92.48"><defs><style>.cls-1{fill:#fabe00;}.cls-2{fill:#feda0c;}.cls-3{fill:#fea900;}.cls-4{fill:#fe431f;}.cls-5{fill:#a3041c;}.cls-6{fill:#dd061a;}.cls-7{fill:#fe8802;}.cls-8{fill:#870417;}.cls-9{fill:#fe8800;}</style></defs><title>ايقونات وصور الاستضافة</title><path class="cls-1" d="M105.58,92.39a.29.29,0,0,1,0,.09l-.09-.09Z"/><path class="cls-1" d="M59.62,71.74c.13-.25.28-.49.39-.74.06.29.11.58.16.87A5.47,5.47,0,0,1,59.62,71.74Z"/><path class="cls-1" d="M112.28,36.05c-1.32.4-1.36,1.57-1.52,2.62-1.67,10.79-3.49,21.55-4.4,32.41a7.22,7.22,0,0,0-1.81-.16C89.7,71,74.85,71,60,71l-.71,0h-.74a1.49,1.49,0,0,1-.14.12l-.18-.18a7.38,7.38,0,0,1-.75-4.1q0-24.58,0-49.17a10.35,10.35,0,0,1,.36-3.23,3.09,3.09,0,0,1,.5-.82l.07-.08a2.2,2.2,0,0,1,2.47-.4c3.42,9.73,6.85,19.46,10.5,29.86L88,22.89a4.9,4.9,0,0,1,4.47,1.24c1.18,7.29,2.37,14.58,3.66,22.46l12-11.78C109.74,34.49,111.25,34.48,112.28,36.05Z"/><path class="cls-2" d="M58.56,13.62V71a1.49,1.49,0,0,1-.14.12L58.3,71c-14.58,0-29.16.06-43.75,0-1.42,0-2.33.21-2.81.85C11.06,60.38,8.24,49.24,7,37.92c-.18-1.71-1.46-1.58-2.43-2.07A4.76,4.76,0,0,1,9.69,35q5.55,6,11.11,12.07l1.05-.74q1.72-11.12,3.46-22.21a5,5,0,0,1,4.42-1.23L46.3,43.06c3.76-10.23,7.33-20,10.91-29.7a1.07,1.07,0,0,1,1.21.14A.75.75,0,0,1,58.56,13.62Z"/><path class="cls-3" d="M58.3,71h.26a1.49,1.49,0,0,1-.14.12Z"/><path class="cls-3" d="M60.17,71.87a5.47,5.47,0,0,1-.55-.13c.13-.25.28-.49.39-.74C60.07,71.29,60.12,71.58,60.17,71.87Z"/><path class="cls-3" d="M105.58,92.39a.29.29,0,0,1,0,.09l-.09-.09Z"/><path class="cls-4" d="M29.73,22.9a6.76,6.76,0,0,1-4.42,1.23c-3.67-1.56-5.14-4-4.16-6.91a5.29,5.29,0,0,1,6.15-3.59A5.44,5.44,0,0,1,29.73,22.9Z"/><path class="cls-5" d="M92.48,24.13A7.15,7.15,0,0,1,88,22.89a5.43,5.43,0,0,1,2.5-9.26,5.3,5.3,0,0,1,6.14,3.6C97.62,20.15,96.16,22.57,92.48,24.13Z"/><path class="cls-6" d="M58.57,13.62l-1.36-.26c-2.34-1.27-3.92-3-3.55-5.89a5,5,0,0,1,3.45-4.29,5.4,5.4,0,0,1,6.56,2.64C65,8.49,64,11,60.9,13.1Z"/><path class="cls-7" d="M9.69,35a12.6,12.6,0,0,1-5.08.83c-3.5-1.4-4.88-4.06-3.64-7a5.29,5.29,0,0,1,7-2.89c3,1.25,4,4.33,2.46,7.61C10.17,34.06,9.93,34.53,9.69,35Z"/><path class="cls-8" d="M112.29,36.05a7.59,7.59,0,0,1-4.14-1.24c-1.54-2.2-2.18-4.52-.59-6.94a4.81,4.81,0,0,1,5-2.31,5.2,5.2,0,0,1,4.64,5.1C117.42,33.4,115.67,35.24,112.29,36.05Z"/><path class="cls-9" d="M60.17,71.87a5.47,5.47,0,0,1-.55-.13c.13-.25.28-.49.39-.74C60.07,71.29,60.12,71.58,60.17,71.87Z"/><path class="cls-9" d="M105.58,92.39a.29.29,0,0,1,0,.09l-.09-.09Z"/><circle class="cls-6" cx="58.89" cy="8.25" r="8.25"/><circle class="cls-4" cx="26.16" cy="18.83" r="5.8"/><circle class="cls-7" cx="5.8" cy="30.77" r="5.8"/><circle class="cls-8" cx="111.94" cy="30.77" r="5.8"/><circle class="cls-5" cx="91.62" cy="18.83" r="5.8"/><rect class="cls-1" x="9.2" y="67.86" width="56.09" height="14" rx="2.89" ry="2.89"/><path class="cls-7" d="M58.43,67.86h46.94a2.42,2.42,0,0,1,2.42,2.42v9.17a2.42,2.42,0,0,1-2.42,2.42H58.43a0,0,0,0,1,0,0v-14A0,0,0,0,1,58.43,67.86Z"/></svg>