<svg id="Layer_1" data-name="Layer 1" xmlns="http://www.w3.org/2000/svg" viewBox="0 0 67.59 64.59"><defs><style>.cls-1{fill:#1e94d2;}</style></defs><title>ايقونات وصور الاستضافة</title><path class="cls-1" d="M61.25,51.92a6.31,6.31,0,0,0-6,4.21H39.46a6.35,6.35,0,0,0-3.78-3.82c0-.56,0-1.14,0-1.76h2.21c6,0,11.94,0,17.92,0,4.77,0,6.85-2,7.12-6.76a2.84,2.84,0,0,1,1-1.87,6,6,0,0,0,2.79-5.11c0-2.53,0-5.05,0-7.56a5.75,5.75,0,0,0-2.73-5c-1.62-1.08-1.67-4.73-.07-5.77a5.83,5.83,0,0,0,2.81-5.1c0-2.46,0-4.92,0-7.38a5.79,5.79,0,0,0-6.08-6H6.77A5.79,5.79,0,0,0,.67,6c-.05,2.46,0,4.93,0,7.39a5.82,5.82,0,0,0,2.79,5.1c1.6,1.06,1.59,4.71,0,5.77A5.75,5.75,0,0,0,.67,29.21c0,2.58,0,5.17,0,7.75a5.28,5.28,0,0,0,2.65,4.79,2.32,2.32,0,0,1,1.23,2.38c.09,4.12,2.35,6.37,6.48,6.41,4.37.05,8.74,0,13.11,0h7.46c.06.56.13,1.1.16,1.62a6.29,6.29,0,0,0-4.22,4H12.3a6.34,6.34,0,1,0,0,4.25H27.54a6.33,6.33,0,0,0,11.93,0H55.29a6.33,6.33,0,1,0,6-8.46ZM6.34,60.55a2.29,2.29,0,1,1,2.29-2.29A2.29,2.29,0,0,1,6.34,60.55ZM4.55,13.07c0-2.15,0-4.3,0-6.44S5.09,3.9,7.32,3.9H59.74c2.72,0,3.14.41,3.15,3.07,0,2,0,4.06,0,6.09,0,1.69-.81,2.46-2.49,2.46H7.05C5.39,15.52,4.54,14.78,4.55,13.07ZM59,19.55c0,1,0,1.88,0,2.73a9.45,9.45,0,0,1-.08,1H8.57v-3.7ZM4.55,35.88c0-2.09,0-4.17,0-6.28,0-1.6.78-2.33,2.4-2.33q26.76,0,53.54,0c1.75,0,2.42.86,2.41,2.51,0,2.15,0,4.31,0,6.47s-.53,2.59-2.66,2.59H7.6C5,38.84,4.57,38.44,4.55,35.88Zm7.2,10.72c-3.1,0-3.5-.45-3.19-3.72H58.78c.58,3,0,3.72-3,3.72ZM34.4,60.38a2.17,2.17,0,0,1-.89.17,2.25,2.25,0,0,1-.9-.17,2.32,2.32,0,0,1-1.4-2.12,2.28,2.28,0,0,1,1.45-2.13,2.38,2.38,0,0,1,.85-.16,2.32,2.32,0,0,1,.84.16,2.28,2.28,0,0,1,1.45,2.13A2.32,2.32,0,0,1,34.4,60.38Zm26.86.17a2.29,2.29,0,1,1,2.29-2.29A2.3,2.3,0,0,1,61.26,60.55Z"/><path class="cls-1" d="M47.34,11.65H38.5c-1.38,0-2.75-.14-2.77-1.91s1.25-2,2.68-2c6,0,11.92,0,17.88,0,1.45,0,2.7.31,2.69,2s-1.27,1.9-2.61,1.9Z"/><path class="cls-1" d="M47.31,35h-9c-1.37,0-2.55-.35-2.56-2s1.17-2,2.54-2H56.51c1.4,0,2.52.48,2.47,2.06S57.84,35,56.53,35Z"/><circle class="cls-1" cx="13.51" cy="9.34" r="1.96"/><circle class="cls-1" cx="20.82" cy="9.34" r="1.96"/><circle class="cls-1" cx="28.13" cy="9.34" r="1.96"/><circle class="cls-1" cx="13.51" cy="33.07" r="1.96"/><circle class="cls-1" cx="20.82" cy="33.07" r="1.96"/><circle class="cls-1" cx="28.13" cy="33.07" r="1.96"/></svg>