<svg id="Layer_1" data-name="Layer 1" xmlns="http://www.w3.org/2000/svg" viewBox="0 0 85.54 85.25"><defs><style>.cls-1{fill:#d67a28;}</style></defs><title>ايقونات وصور الاستضافة</title><path class="cls-1" d="M11.49,85.25V59.79c0-.3.08-.6.14-1.09H28.52V53.37c-.68,0-1.43-.15-2.18-.15-3.82,0-7.64,0-11.46,0C7,53.16.63,47.46.05,39.94-.56,32,4.84,25.47,12.86,24.23A2.82,2.82,0,0,0,14.7,22.6c2.57-8.79,9-13.32,17.89-12.71A3.22,3.22,0,0,0,35,8.68C39.52,2.26,45.65-.94,53.44.24c8.15,1.24,13.38,6.18,15.4,14.26A2.52,2.52,0,0,0,71,16.61C80.46,19,86.63,27.69,85.38,36.78c-1.34,9.78-9,16.42-19.07,16.43H56.92v5.41H73.85c.07.57.15.87.15,1.17V85.25Zm7.82-55.53c-1-.13-1.87-.21-2.72-.37A9.6,9.6,0,0,0,5.27,36.71c-1,5.38,2.28,10.74,7.62,11.28,5.16.51,10.42.11,15.61.11V38.71l-2.27,1.91-3.26-3,8.24-8.22,7.92,7.9-2.77,3.46-2.31-2V48H51.43V38.81l-2,1.66-3.33-2.9,8.12-8.07,8,8-2.87,3.13-2.34-1.9v9.48c3.47,0,6.79,0,10.12,0a13.52,13.52,0,0,0,2.5-26.78c-1.61-.31-3.27-.39-5.05-.59.13-7.56-2.71-13.52-10.41-15.31C45.22,3.46,39.84,8.25,37,16.27,25.52,12.61,20.22,16.63,19.31,29.72Zm49.53,34H16.65V80.19H68.84ZM51.49,58.52V53.37H34v5.15Z"/><path class="cls-1" d="M42.88,69.74H62.37v4.61H42.88Z"/><path class="cls-1" d="M23.13,69.69h4.74v4.6H23.13Z"/></svg>