<svg id="Layer_1" data-name="Layer 1" xmlns="http://www.w3.org/2000/svg" viewBox="0 0 291.53 366.83"><defs><style>.cls-1{fill:#b2d3ea;}.cls-2{fill:#396caa;}.cls-3{fill:#5793ce;}.cls-4,.cls-8{fill:#d4ecff;}.cls-5{fill:#fff;}.cls-6{fill:#fafdff;}.cls-7{fill:#173d7a;}.cls-8{opacity:0.4;}</style></defs><title>ايقونات وصور الاستضافة</title><path class="cls-1" d="M265.08,240.77a4.56,4.56,0,0,1-2.34-.64l-14-8.39.85-1.42,14,8.39a2.87,2.87,0,0,0,2.94,0l22.79-13.32a1.14,1.14,0,0,0,.56-1,1.12,1.12,0,0,0-.6-1l-30.36-16.26.78-1.45L290.06,222a2.79,2.79,0,0,1,.09,4.87l-22.78,13.32A4.48,4.48,0,0,1,265.08,240.77Z"/><path class="cls-1" d="M208.46,366.83a5.85,5.85,0,0,1-2.87-.74L149.73,335a2.57,2.57,0,0,1,0-4.48L175,316.25a.84.84,0,0,0,.44-.76.86.86,0,0,0-.44-.76l-28.12-16.15a2.52,2.52,0,0,1-.09-4.32L158.28,287l.88,1.39-11.49,7.28a.87.87,0,0,0-.41.76.84.84,0,0,0,.44.74l28.13,16.15a2.52,2.52,0,0,1,1.26,2.2,2.49,2.49,0,0,1-1.28,2.19L150.53,332a.89.89,0,0,0-.47.8.92.92,0,0,0,.47.81l55.87,31.09a4.24,4.24,0,0,0,4.26-.08l21.24-13.06a.39.39,0,0,0,.2-.34.4.4,0,0,0-.2-.35l-15.37-9.34.85-1.41,15.38,9.35a2.06,2.06,0,0,1,0,3.5L211.52,366A5.89,5.89,0,0,1,208.46,366.83Z"/><path class="cls-1" d="M232.59,241.62l-26.94-15.55c-1.65-.95-1.44-2.62.47-3.72l26-15a7.13,7.13,0,0,1,6.45-.27l26.93,15.55c1.65.95,1.45,2.62-.46,3.72l-26,15A7.11,7.11,0,0,1,232.59,241.62Z"/><path class="cls-2" d="M274.44,210.77h0V199.14l-26.1,0-9-5.2c-2.07-1.2-5.69-1-8.08.33l-8.41,4.86-26.12,0v12a2.35,2.35,0,0,0,1.39,2.17l33.72,19.47c2.07,1.19,5.69,1,8.08-.34l32.56-18.8C273.85,212.76,274.51,211.73,274.44,210.77Z"/><path class="cls-2" d="M235.58,193.12a9.18,9.18,0,0,0-4.33,1.13l-8.41,4.86-26.12,0v12a2.35,2.35,0,0,0,1.39,2.17l33.72,19.47a7.42,7.42,0,0,0,3.75.8Z"/><path class="cls-3" d="M199.68,199.1h-3v12a2.35,2.35,0,0,0,1.39,2.17l1.57.9Z"/><path class="cls-3" d="M232.35,233a9.22,9.22,0,0,0,6.46-.07V219.29h-6.46Z"/><path class="cls-4" d="M231.83,220.77,198.11,201.3c-2.07-1.19-1.81-3.28.58-4.66l32.56-18.8c2.39-1.38,6-1.53,8.08-.34L273.05,197c2.07,1.2,1.81,3.29-.58,4.67l-32.56,18.8C237.52,221.82,233.9,222,231.83,220.77Z"/><path class="cls-3" d="M232.44,217.27,204.18,201c-1.74-1-1.52-2.75.48-3.91L232,181.29a7.52,7.52,0,0,1,6.77-.28L267,197.33c1.73,1,1.52,2.75-.49,3.9L239.21,217A7.55,7.55,0,0,1,232.44,217.27Z"/><path class="cls-4" d="M262,213.85a3,3,0,0,1-1.36,2.35c-.75.44-1.36.09-1.36-.78a3,3,0,0,1,1.36-2.36C261.42,212.62,262,213,262,213.85Z"/><path class="cls-4" d="M266.41,211.31a3,3,0,0,1-1.36,2.36c-.75.44-1.36.09-1.36-.78a3,3,0,0,1,1.36-2.36C265.8,210.09,266.41,210.45,266.41,211.31Z"/><path class="cls-4" d="M270.8,208.78a3,3,0,0,1-1.37,2.36c-.75.44-1.36.09-1.36-.78a3,3,0,0,1,1.36-2.36C270.19,207.56,270.8,207.92,270.8,208.78Z"/><path class="cls-2" d="M274.44,192.18h0V180.54h-26.1l-9-5.21c-2.07-1.19-5.69-1-8.08.34l-8.41,4.85H196.72v12a2.32,2.32,0,0,0,1.39,2.16l33.72,19.47c2.07,1.2,5.69,1.05,8.08-.33L272.47,195C273.85,194.17,274.51,193.14,274.44,192.18Z"/><path class="cls-2" d="M235.58,174.52a9.3,9.3,0,0,0-4.33,1.14l-8.41,4.85H196.72v12a2.32,2.32,0,0,0,1.39,2.16l33.72,19.47a7.22,7.22,0,0,0,3.75.8Z"/><path class="cls-3" d="M199.68,180.5h-3v12a2.32,2.32,0,0,0,1.39,2.16l1.57.91Z"/><path class="cls-3" d="M232.35,214.36a9.22,9.22,0,0,0,6.46-.08V200.69h-6.46Z"/><path class="cls-4" d="M231.83,202.18l-33.72-19.47c-2.07-1.2-1.81-3.29.58-4.67l32.56-18.8c2.39-1.38,6-1.53,8.08-.33l33.72,19.47c2.07,1.19,1.81,3.28-.58,4.66l-32.56,18.8C237.52,203.22,233.9,203.37,231.83,202.18Z"/><path class="cls-3" d="M232.44,198.67l-28.26-16.31c-1.74-1-1.52-2.76.48-3.91L232,162.69a7.55,7.55,0,0,1,6.77-.28L267,178.73c1.73,1,1.52,2.75-.49,3.91l-27.28,15.75A7.52,7.52,0,0,1,232.44,198.67Z"/><path class="cls-4" d="M262,195.25a3,3,0,0,1-1.36,2.36c-.75.43-1.36.08-1.36-.79a3,3,0,0,1,1.36-2.36C261.42,194,262,194.38,262,195.25Z"/><path class="cls-4" d="M266.41,192.72a3,3,0,0,1-1.36,2.36c-.75.43-1.36.08-1.36-.79a3,3,0,0,1,1.36-2.36C265.8,191.5,266.41,191.85,266.41,192.72Z"/><path class="cls-4" d="M270.8,190.19a3,3,0,0,1-1.37,2.36c-.75.43-1.36.08-1.36-.79a3,3,0,0,1,1.36-2.36C270.19,189,270.8,189.32,270.8,190.19Z"/><path class="cls-2" d="M274.44,173.58h0V162l-26.1,0-9-5.2c-2.07-1.2-5.69-1-8.08.33l-8.41,4.86-26.12,0v12a2.32,2.32,0,0,0,1.39,2.16l33.72,19.48c2.07,1.19,5.69,1,8.08-.34l32.56-18.8C273.85,175.57,274.51,174.54,274.44,173.58Z"/><path class="cls-2" d="M235.58,155.93a9.18,9.18,0,0,0-4.33,1.13l-8.41,4.86-26.12,0v12a2.32,2.32,0,0,0,1.39,2.16l33.72,19.48a7.42,7.42,0,0,0,3.75.8Z"/><path class="cls-3" d="M199.68,161.91h-3v12a2.32,2.32,0,0,0,1.39,2.16l1.57.91Z"/><path class="cls-3" d="M232.35,195.76a9.27,9.27,0,0,0,6.46-.07V182.1h-6.46Z"/><path class="cls-4" d="M231.83,183.58l-33.72-19.47c-2.07-1.19-1.81-3.28.58-4.66l32.56-18.8c2.39-1.38,6-1.53,8.08-.34l33.72,19.47c2.07,1.2,1.81,3.29-.58,4.67l-32.56,18.8C237.52,184.63,233.9,184.78,231.83,183.58Z"/><path class="cls-5" d="M272.47,162.16,239.91,181c-2.39,1.38-6,1.53-8.08.33l-33.72-19.47a3.27,3.27,0,0,1-1-.92c-.71,1.15-.38,2.39,1,3.21l33.72,19.47c2.07,1.2,5.69,1,8.08-.33l32.56-18.8c1.86-1.08,2.42-2.57,1.61-3.75A4.55,4.55,0,0,1,272.47,162.16Z"/><path class="cls-4" d="M262,176.65a3,3,0,0,1-1.36,2.36c-.75.44-1.36.09-1.36-.78a3,3,0,0,1,1.36-2.36C261.42,175.43,262,175.79,262,176.65Z"/><path class="cls-4" d="M266.41,174.12a3,3,0,0,1-1.36,2.36c-.75.44-1.36.09-1.36-.78a3,3,0,0,1,1.36-2.36C265.8,172.9,266.41,173.26,266.41,174.12Z"/><path class="cls-4" d="M270.8,171.59a3,3,0,0,1-1.37,2.36c-.75.44-1.36.09-1.36-.78a3,3,0,0,1,1.36-2.36C270.19,170.37,270.8,170.73,270.8,171.59Z"/><path class="cls-3" d="M233.83,171.51,218,162.4c-1-.56-.84-1.54.28-2.18l15.23-8.8a4.19,4.19,0,0,1,3.78-.16l15.78,9.11c1,.56.85,1.54-.27,2.19l-15.24,8.79A4.17,4.17,0,0,1,233.83,171.51Z"/><path class="cls-4" d="M235.34,163.88l-2.19-1.26c-.13-.08-.11-.21,0-.3l2.11-1.22a.56.56,0,0,1,.52,0l2.18,1.26c.14.08.12.21,0,.3l-2.11,1.22A.57.57,0,0,1,235.34,163.88Z"/><path class="cls-2" d="M218,162.4l.05,0,.23-.15,15.23-8.8a4.19,4.19,0,0,1,3.78-.16l15.74,9.09c.89-.64.94-1.51,0-2l-15.78-9.11a4.19,4.19,0,0,0-3.78.16l-15.23,8.8C217.2,160.86,217.08,161.84,218,162.4Z"/><path class="cls-1" d="M171.92,297.42l-58.21-33.19c-2.12-1.23-1.86-3.38.6-4.8L147.8,240.1c2.46-1.42,6.18-1.58,8.31-.35l58.2,33.19c2.13,1.23,1.87,3.38-.59,4.8l-33.49,19.33C177.77,298.49,174.05,298.65,171.92,297.42Z"/><path class="cls-2" d="M219.5,261.77h0V125.88l-54-14.14L155.53,106c-2.28-1.32-6.27-1.16-8.91.37l-9.28,5.36-28.82,0,8.54,131.18a2.58,2.58,0,0,0,1.53,2.39L172.5,286c2.28,1.31,6.27,1.15,8.91-.37l35.92-20.75C218.86,264,219.59,262.83,219.5,261.77Z"/><path class="cls-4" d="M151.4,105.11a10.31,10.31,0,0,0-4.78,1.26l-9.28,5.36-28.82,0V248a2.6,2.6,0,0,0,1.53,2.39L172.5,286a8.05,8.05,0,0,0,4.13.88l.65-137.11Z"/><path class="cls-3" d="M173.07,286.24a10.21,10.21,0,0,0,7.12-.08v-138h-7.12Z"/><path class="cls-4" d="M172.5,149.75l-62.45-35.6c-2.28-1.32-2-3.63.64-5.15l35.93-20.74c2.64-1.52,6.63-1.69,8.91-.37L218,123.49c2.29,1.32,2,3.63-.64,5.15l-35.92,20.74C178.77,150.9,174.78,151.07,172.5,149.75Z"/><path class="cls-6" d="M217.33,126.11l-35.92,20.74c-2.64,1.53-6.63,1.69-8.91.37l-62.45-35.6a3.52,3.52,0,0,1-1.13-1c-.79,1.26-.43,2.63,1.13,3.54l62.45,35.6c2.28,1.32,6.27,1.15,8.91-.37l35.92-20.74c2-1.18,2.68-2.84,1.78-4.13A5,5,0,0,1,217.33,126.11Z"/><path class="cls-7" d="M174.26,135.32l-41.57-24.1c-1.07-.62-.93-1.69.3-2.41l16.81-9.7a4.63,4.63,0,0,1,4.17-.17L195.54,123c1.07.62.94,1.7-.3,2.41l-16.81,9.71A4.63,4.63,0,0,1,174.26,135.32Z"/><path class="cls-4" d="M151.82,112.3l-2.41-1.39c-.15-.08-.13-.23,0-.33l2.33-1.34a.64.64,0,0,1,.57,0l2.41,1.39c.15.09.13.24,0,.34l-2.32,1.34A.63.63,0,0,1,151.82,112.3Z"/><path class="cls-4" d="M159.87,116.93l-2.41-1.39c-.15-.08-.13-.23,0-.33l2.33-1.35a.67.67,0,0,1,.57,0l2.41,1.39c.15.09.13.24,0,.33l-2.33,1.35A.61.61,0,0,1,159.87,116.93Z"/><path class="cls-4" d="M167.92,121.56l-2.41-1.39c-.15-.09-.13-.24,0-.33l2.32-1.35a.63.63,0,0,1,.58,0l2.41,1.39c.15.08.13.23,0,.33l-2.33,1.35A.67.67,0,0,1,167.92,121.56Z"/><path class="cls-4" d="M176,126.19l-2.41-1.39c-.14-.09-.12-.24,0-.34l2.32-1.34a.63.63,0,0,1,.58,0l2.41,1.39c.15.08.13.23,0,.33l-2.33,1.34A.66.66,0,0,1,176,126.19Z"/><path class="cls-3" d="M132.69,111.22l.05,0a2.2,2.2,0,0,1,.25-.17l16.81-9.71a4.63,4.63,0,0,1,4.17-.17l41.52,24.07c1-.71,1-1.67,0-2.24L154,98.94a4.63,4.63,0,0,0-4.17.17L133,108.81C131.76,109.53,131.62,110.6,132.69,111.22Z"/><path class="cls-7" d="M188.42,176.67l23.64-13.53a5.77,5.77,0,0,0,2.41-4.6v-8.45c0-1.78-1.08-2.59-2.41-1.83L188.42,161.8a5.77,5.77,0,0,0-2.41,4.6v8.45C186,176.63,187.09,177.44,188.42,176.67Z"/><path class="cls-5" d="M213.23,148a2.37,2.37,0,0,1,.6,1.76v8.45a5.77,5.77,0,0,1-2.41,4.6l-23.63,13.54a1.76,1.76,0,0,1-1.17.25,1.42,1.42,0,0,0,1.8.06l23.64-13.53a5.77,5.77,0,0,0,2.41-4.6v-8.45C214.47,148.88,214,148.13,213.23,148Z"/><path class="cls-2" d="M195.53,167.49l2.17-1.25a1.26,1.26,0,0,0,.52-1v-2.32c0-.39-.23-.56-.52-.4l-2.17,1.25a1.27,1.27,0,0,0-.52,1v2.31C195,167.48,195.24,167.66,195.53,167.49Z"/><path class="cls-5" d="M202.78,163.3l2.17-1.25a1.23,1.23,0,0,0,.52-1v-2.32c0-.38-.23-.56-.52-.39l-2.17,1.25a1.26,1.26,0,0,0-.52,1v2.32C202.26,163.29,202.49,163.47,202.78,163.3Z"/><path class="cls-7" d="M188.42,237.75l23.64-13.53a5.77,5.77,0,0,0,2.41-4.6v-8.45c0-1.78-1.08-2.59-2.41-1.82l-23.64,13.53a5.77,5.77,0,0,0-2.41,4.6v8.45C186,237.71,187.09,238.52,188.42,237.75Z"/><path class="cls-5" d="M213.23,209.09a2.37,2.37,0,0,1,.6,1.76v8.45a5.74,5.74,0,0,1-2.41,4.6l-23.63,13.54a1.76,1.76,0,0,1-1.17.25,1.42,1.42,0,0,0,1.8.06l23.64-13.53a5.77,5.77,0,0,0,2.41-4.6v-8.45C214.47,210,214,209.22,213.23,209.09Z"/><path class="cls-2" d="M195.53,228.57l2.17-1.25a1.26,1.26,0,0,0,.52-1V224c0-.39-.23-.56-.52-.4l-2.17,1.26a1.23,1.23,0,0,0-.52,1v2.32C195,228.56,195.24,228.74,195.53,228.57Z"/><path class="cls-2" d="M202.78,224.39l2.17-1.26a1.23,1.23,0,0,0,.52-1v-2.31c0-.39-.23-.57-.52-.4l-2.17,1.25a1.26,1.26,0,0,0-.52,1V224C202.26,224.38,202.49,224.55,202.78,224.39Z"/><path class="cls-7" d="M188.42,268.3l23.64-13.54a5.77,5.77,0,0,0,2.41-4.6v-8.45c0-1.78-1.08-2.59-2.41-1.82l-23.64,13.53A5.77,5.77,0,0,0,186,258v8.45C186,268.25,187.09,269.06,188.42,268.3Z"/><path class="cls-5" d="M213.23,239.63a2.37,2.37,0,0,1,.6,1.76v8.45a5.74,5.74,0,0,1-2.41,4.6L187.79,268a1.76,1.76,0,0,1-1.17.25,1.43,1.43,0,0,0,1.8.07l23.64-13.54a5.77,5.77,0,0,0,2.41-4.6v-8.45C214.47,240.5,214,239.76,213.23,239.63Z"/><path class="cls-5" d="M195.53,259.11l2.17-1.25a1.26,1.26,0,0,0,.52-1v-2.32c0-.38-.23-.56-.52-.4l-2.17,1.26a1.23,1.23,0,0,0-.52,1v2.32C195,259.1,195.24,259.28,195.53,259.11Z"/><path class="cls-2" d="M202.78,254.93l2.17-1.26a1.23,1.23,0,0,0,.52-1v-2.31c0-.39-.23-.57-.52-.4l-2.17,1.25a1.26,1.26,0,0,0-.52,1v2.32C202.26,254.92,202.49,255.09,202.78,254.93Z"/><path class="cls-7" d="M188.42,207.21l23.64-13.53a5.77,5.77,0,0,0,2.41-4.6v-8.45c0-1.78-1.08-2.59-2.41-1.83l-23.64,13.54a5.77,5.77,0,0,0-2.41,4.6v8.45C186,207.17,187.09,208,188.42,207.21Z"/><path class="cls-5" d="M213.23,178.55a2.37,2.37,0,0,1,.6,1.76v8.45a5.74,5.74,0,0,1-2.41,4.6L187.79,206.9a1.76,1.76,0,0,1-1.17.25,1.42,1.42,0,0,0,1.8.06l23.64-13.53a5.77,5.77,0,0,0,2.41-4.6v-8.45C214.47,179.42,214,178.68,213.23,178.55Z"/><path class="cls-5" d="M195.53,198l2.17-1.25a1.26,1.26,0,0,0,.52-1v-2.32c0-.39-.23-.56-.52-.4l-2.17,1.26a1.23,1.23,0,0,0-.52,1v2.31C195,198,195.24,198.2,195.53,198Z"/><path class="cls-5" d="M202.78,193.85l2.17-1.26a1.23,1.23,0,0,0,.52-1v-2.32c0-.38-.23-.56-.52-.39l-2.17,1.25a1.26,1.26,0,0,0-.52,1v2.32C202.26,193.84,202.49,194,202.78,193.85Z"/><path class="cls-3" d="M168,168l-54.53-31.48a5.31,5.31,0,0,1-2.21-4.23v-10.4c0-1.62,1-2.37,2.21-1.67L168,151.73a5.28,5.28,0,0,1,2.21,4.22v10.4C170.16,168,169.17,168.72,168,168Z"/><path class="cls-8" d="M166.38,164.37,115,134.7a2.69,2.69,0,0,1-1.12-2.15v-7.81c0-.83.5-1.21,1.12-.85l51.4,29.68a2.66,2.66,0,0,1,1.12,2.14v7.82C167.5,164.35,167,164.73,166.38,164.37Z"/><path class="cls-4" d="M125.69,136.93,118,132.5a2.62,2.62,0,0,1-1.09-2.08h0c0-.8.49-1.17,1.09-.82l7.67,4.43a2.59,2.59,0,0,1,1.09,2.08h0C126.78,136.91,126.29,137.28,125.69,136.93Z"/><path class="cls-7" d="M132.23,139.25c0,.8-.56,1.13-1.26.73a2.79,2.79,0,0,1-1.25-2.18c0-.8.56-1.13,1.25-.73A2.79,2.79,0,0,1,132.23,139.25Z"/><path class="cls-7" d="M136.67,141.81c0,.8-.57,1.13-1.26.73a2.77,2.77,0,0,1-1.26-2.18c0-.8.56-1.13,1.26-.72A2.78,2.78,0,0,1,136.67,141.81Z"/><path class="cls-4" d="M141.1,144.37c0,.81-.56,1.13-1.26.73a2.79,2.79,0,0,1-1.25-2.18c0-.8.56-1.12,1.25-.72A2.75,2.75,0,0,1,141.1,144.37Z"/><path class="cls-7" d="M145.54,146.93c0,.81-.57,1.13-1.26.73a2.8,2.8,0,0,1-1.26-2.18c0-.8.57-1.12,1.26-.72A2.78,2.78,0,0,1,145.54,146.93Z"/><path class="cls-7" d="M164.22,160l-2.58-1.49a1.66,1.66,0,0,1-.7-1.34v-2.73c0-.51.31-.75.7-.53l2.58,1.49a1.68,1.68,0,0,1,.7,1.34v2.73C164.92,160,164.61,160.24,164.22,160Z"/><path class="cls-3" d="M168,186.36l-54.53-31.49a5.28,5.28,0,0,1-2.21-4.22v-10.4c0-1.63,1-2.37,2.21-1.67L168,170.06a5.31,5.31,0,0,1,2.21,4.23v10.4C170.16,186.31,169.17,187.06,168,186.36Z"/><path class="cls-8" d="M166.38,182.71,115,153a2.66,2.66,0,0,1-1.12-2.14v-7.82c0-.82.5-1.2,1.12-.84l51.4,29.67a2.69,2.69,0,0,1,1.12,2.15v7.81C167.5,182.69,167,183.07,166.38,182.71Z"/><path class="cls-4" d="M125.69,155.27,118,150.84a2.62,2.62,0,0,1-1.09-2.08h0c0-.8.49-1.17,1.09-.83l7.67,4.43a2.62,2.62,0,0,1,1.09,2.08h0C126.78,155.25,126.29,155.61,125.69,155.27Z"/><path class="cls-5" d="M132.23,157.59c0,.8-.56,1.13-1.26.72a2.77,2.77,0,0,1-1.25-2.17c0-.8.56-1.13,1.25-.73A2.77,2.77,0,0,1,132.23,157.59Z"/><path class="cls-7" d="M136.67,160.15c0,.8-.57,1.13-1.26.73a2.79,2.79,0,0,1-1.26-2.18c0-.8.56-1.13,1.26-.73A2.8,2.8,0,0,1,136.67,160.15Z"/><path class="cls-4" d="M141.1,162.71c0,.8-.56,1.13-1.26.73a2.79,2.79,0,0,1-1.25-2.18c0-.8.56-1.13,1.25-.73A2.77,2.77,0,0,1,141.1,162.71Z"/><path class="cls-7" d="M145.54,165.27c0,.8-.57,1.13-1.26.73a2.8,2.8,0,0,1-1.26-2.18c0-.8.57-1.13,1.26-.73A2.8,2.8,0,0,1,145.54,165.27Z"/><path class="cls-7" d="M164.22,178.36l-2.58-1.49a1.68,1.68,0,0,1-.7-1.34V172.8c0-.52.31-.75.7-.53l2.58,1.49a1.66,1.66,0,0,1,.7,1.34v2.73C164.92,178.34,164.61,178.58,164.22,178.36Z"/><path class="cls-3" d="M168,204.69l-54.53-31.48a5.31,5.31,0,0,1-2.21-4.22v-10.4c0-1.63,1-2.38,2.21-1.67L168,188.4a5.31,5.31,0,0,1,2.21,4.22V203C170.16,204.65,169.17,205.4,168,204.69Z"/><path class="cls-8" d="M166.38,201.05,115,171.37a2.69,2.69,0,0,1-1.12-2.14v-7.82c0-.82.5-1.2,1.12-.85l51.4,29.68a2.69,2.69,0,0,1,1.12,2.14v7.82C167.5,201,167,201.4,166.38,201.05Z"/><path class="cls-4" d="M125.69,173.6,118,169.17a2.59,2.59,0,0,1-1.09-2.08h0c0-.8.49-1.17,1.09-.82l7.67,4.43a2.62,2.62,0,0,1,1.09,2.08h0C126.78,173.58,126.29,174,125.69,173.6Z"/><path class="cls-5" d="M132.23,175.93c0,.8-.56,1.12-1.26.72a2.77,2.77,0,0,1-1.25-2.18c0-.8.56-1.12,1.25-.72A2.76,2.76,0,0,1,132.23,175.93Z"/><path class="cls-7" d="M136.67,178.49c0,.8-.57,1.12-1.26.72a2.76,2.76,0,0,1-1.26-2.18c0-.8.56-1.12,1.26-.72A2.78,2.78,0,0,1,136.67,178.49Z"/><path class="cls-4" d="M141.1,181.05c0,.8-.56,1.12-1.26.72a2.77,2.77,0,0,1-1.25-2.17c0-.81.56-1.13,1.25-.73A2.77,2.77,0,0,1,141.1,181.05Z"/><path class="cls-7" d="M145.54,183.61c0,.8-.57,1.12-1.26.72a2.78,2.78,0,0,1-1.26-2.17c0-.81.57-1.13,1.26-.73A2.8,2.8,0,0,1,145.54,183.61Z"/><path class="cls-7" d="M164.22,196.69l-2.58-1.49a1.66,1.66,0,0,1-.7-1.33v-2.74c0-.51.31-.75.7-.52l2.58,1.49a1.66,1.66,0,0,1,.7,1.33v2.74C164.92,196.68,164.61,196.92,164.22,196.69Z"/><path class="cls-3" d="M168,223l-54.53-31.48a5.31,5.31,0,0,1-2.21-4.23v-10.4c0-1.62,1-2.37,2.21-1.67L168,206.74a5.28,5.28,0,0,1,2.21,4.22v10.4C170.16,223,169.17,223.73,168,223Z"/><path class="cls-8" d="M166.38,219.38,115,189.71a2.69,2.69,0,0,1-1.12-2.15v-7.81c0-.83.5-1.21,1.12-.85l51.4,29.68a2.66,2.66,0,0,1,1.12,2.14v7.82C167.5,219.36,167,219.74,166.38,219.38Z"/><path class="cls-4" d="M125.69,191.94,118,187.51a2.62,2.62,0,0,1-1.09-2.08h0c0-.8.49-1.17,1.09-.82l7.67,4.43a2.59,2.59,0,0,1,1.09,2.08h0C126.78,191.92,126.29,192.29,125.69,191.94Z"/><path class="cls-7" d="M132.23,194.26c0,.8-.56,1.13-1.26.73a2.79,2.79,0,0,1-1.25-2.18c0-.8.56-1.13,1.25-.73A2.79,2.79,0,0,1,132.23,194.26Z"/><path class="cls-7" d="M136.67,196.82c0,.8-.57,1.13-1.26.73a2.77,2.77,0,0,1-1.26-2.18c0-.8.56-1.13,1.26-.72A2.78,2.78,0,0,1,136.67,196.82Z"/><path class="cls-4" d="M141.1,199.38c0,.81-.56,1.13-1.26.73a2.79,2.79,0,0,1-1.25-2.18c0-.8.56-1.12,1.25-.72A2.75,2.75,0,0,1,141.1,199.38Z"/><path class="cls-7" d="M145.54,201.94c0,.81-.57,1.13-1.26.73a2.8,2.8,0,0,1-1.26-2.18c0-.8.57-1.12,1.26-.72A2.78,2.78,0,0,1,145.54,201.94Z"/><path class="cls-4" d="M164.22,215l-2.58-1.49a1.66,1.66,0,0,1-.7-1.34v-2.73c0-.51.31-.75.7-.53l2.58,1.49a1.68,1.68,0,0,1,.7,1.34v2.73C164.92,215,164.61,215.25,164.22,215Z"/><path class="cls-3" d="M168,241.37l-54.53-31.49a5.28,5.28,0,0,1-2.21-4.22v-10.4c0-1.63,1-2.37,2.21-1.67L168,225.08a5.28,5.28,0,0,1,2.21,4.22v10.4C170.16,241.32,169.17,242.07,168,241.37Z"/><path class="cls-8" d="M166.38,237.72,115,208a2.66,2.66,0,0,1-1.12-2.14v-7.82c0-.82.5-1.2,1.12-.84l51.4,29.67a2.69,2.69,0,0,1,1.12,2.15v7.81C167.5,237.7,167,238.08,166.38,237.72Z"/><path class="cls-4" d="M125.69,210.28,118,205.85a2.62,2.62,0,0,1-1.09-2.08h0c0-.8.49-1.17,1.09-.83l7.67,4.43a2.62,2.62,0,0,1,1.09,2.08h0C126.78,210.26,126.29,210.62,125.69,210.28Z"/><path class="cls-7" d="M132.23,212.6c0,.8-.56,1.13-1.26.72a2.77,2.77,0,0,1-1.25-2.17c0-.8.56-1.13,1.25-.73A2.77,2.77,0,0,1,132.23,212.6Z"/><path class="cls-5" d="M136.67,215.16c0,.8-.57,1.13-1.26.73a2.79,2.79,0,0,1-1.26-2.18c0-.8.56-1.13,1.26-.73A2.8,2.8,0,0,1,136.67,215.16Z"/><path class="cls-4" d="M141.1,217.72c0,.8-.56,1.13-1.26.73a2.79,2.79,0,0,1-1.25-2.18c0-.8.56-1.13,1.25-.73A2.77,2.77,0,0,1,141.1,217.72Z"/><path class="cls-5" d="M145.54,220.28c0,.8-.57,1.13-1.26.73a2.8,2.8,0,0,1-1.26-2.18c0-.8.57-1.13,1.26-.73A2.8,2.8,0,0,1,145.54,220.28Z"/><path class="cls-4" d="M164.22,233.37l-2.58-1.49a1.68,1.68,0,0,1-.7-1.34v-2.73c0-.52.31-.75.7-.53l2.58,1.49a1.66,1.66,0,0,1,.7,1.34v2.73C164.92,233.35,164.61,233.59,164.22,233.37Z"/><path class="cls-3" d="M168,259.7l-54.53-31.48a5.31,5.31,0,0,1-2.21-4.22V213.6c0-1.63,1-2.38,2.21-1.67L168,243.41a5.31,5.31,0,0,1,2.21,4.22V258C170.16,259.66,169.17,260.41,168,259.7Z"/><path class="cls-8" d="M166.38,256.06,115,226.38a2.69,2.69,0,0,1-1.12-2.14v-7.82c0-.82.5-1.2,1.12-.85l51.4,29.68a2.69,2.69,0,0,1,1.12,2.14v7.82C167.5,256,167,256.41,166.38,256.06Z"/><path class="cls-4" d="M125.69,228.61,118,224.18a2.59,2.59,0,0,1-1.09-2.08h0c0-.8.49-1.17,1.09-.82l7.67,4.43a2.62,2.62,0,0,1,1.09,2.08h0C126.78,228.59,126.29,229,125.69,228.61Z"/><path class="cls-7" d="M132.23,230.94c0,.8-.56,1.12-1.26.72a2.77,2.77,0,0,1-1.25-2.18c0-.8.56-1.12,1.25-.72A2.76,2.76,0,0,1,132.23,230.94Z"/><path class="cls-7" d="M136.67,233.5c0,.8-.57,1.12-1.26.72a2.76,2.76,0,0,1-1.26-2.18c0-.8.56-1.12,1.26-.72A2.78,2.78,0,0,1,136.67,233.5Z"/><path class="cls-4" d="M141.1,236.06c0,.8-.56,1.12-1.26.72a2.77,2.77,0,0,1-1.25-2.17c0-.81.56-1.13,1.25-.73A2.77,2.77,0,0,1,141.1,236.06Z"/><path class="cls-7" d="M145.54,238.62c0,.8-.57,1.12-1.26.72a2.78,2.78,0,0,1-1.26-2.17c0-.81.57-1.13,1.26-.73A2.8,2.8,0,0,1,145.54,238.62Z"/><path class="cls-7" d="M164.22,251.7l-2.58-1.49a1.66,1.66,0,0,1-.7-1.33v-2.74c0-.51.31-.75.7-.52l2.58,1.49a1.66,1.66,0,0,1,.7,1.33v2.74C164.92,251.69,164.61,251.93,164.22,251.7Z"/><path class="cls-3" d="M168,278l-54.53-31.48a5.31,5.31,0,0,1-2.21-4.23v-10.4c0-1.62,1-2.37,2.21-1.67L168,261.75a5.28,5.28,0,0,1,2.21,4.22v10.4C170.16,278,169.17,278.74,168,278Z"/><path class="cls-8" d="M166.38,274.39,115,244.72a2.69,2.69,0,0,1-1.12-2.15v-7.81c0-.83.5-1.21,1.12-.85l51.4,29.68a2.66,2.66,0,0,1,1.12,2.14v7.82C167.5,274.37,167,274.75,166.38,274.39Z"/><path class="cls-4" d="M125.69,247,118,242.52a2.62,2.62,0,0,1-1.09-2.08h0c0-.8.49-1.17,1.09-.82l7.67,4.43a2.6,2.6,0,0,1,1.09,2.08h0C126.78,246.93,126.29,247.3,125.69,247Z"/><path class="cls-5" d="M132.23,249.27c0,.8-.56,1.13-1.26.73a2.79,2.79,0,0,1-1.25-2.18c0-.8.56-1.13,1.25-.73A2.79,2.79,0,0,1,132.23,249.27Z"/><path class="cls-7" d="M136.67,251.83c0,.8-.57,1.13-1.26.73a2.77,2.77,0,0,1-1.26-2.18c0-.8.56-1.13,1.26-.72A2.78,2.78,0,0,1,136.67,251.83Z"/><path class="cls-4" d="M141.1,254.39c0,.81-.56,1.13-1.26.73a2.79,2.79,0,0,1-1.25-2.18c0-.8.56-1.12,1.25-.72A2.75,2.75,0,0,1,141.1,254.39Z"/><path class="cls-7" d="M145.54,257c0,.81-.57,1.13-1.26.73A2.8,2.8,0,0,1,143,255.5c0-.8.57-1.12,1.26-.72A2.78,2.78,0,0,1,145.54,257Z"/><path class="cls-4" d="M164.22,270l-2.58-1.49a1.66,1.66,0,0,1-.7-1.34v-2.73c0-.51.31-.75.7-.53l2.58,1.49a1.68,1.68,0,0,1,.7,1.34v2.73C164.92,270,164.61,270.26,164.22,270Z"/><path class="cls-3" d="M152.09,111a.82.82,0,0,1-.83-.82V76.29a.83.83,0,0,1,1.65,0v33.9A.82.82,0,0,1,152.09,111Z"/><rect class="cls-3" x="149.14" y="74.16" width="5.89" height="12.71"/><path class="cls-3" d="M154.17,88.07a4.64,4.64,0,0,1-4.17,0,1.27,1.27,0,0,1,0-2.4,4.58,4.58,0,0,1,4.17,0A1.27,1.27,0,0,1,154.17,88.07Z"/><rect class="cls-3" x="147.32" y="56.45" width="9.54" height="19.93"/><path class="cls-2" d="M149.14,76.25v4.3a7.62,7.62,0,0,0,5.89,0v-4.3A7.62,7.62,0,0,0,149.14,76.25Z"/><path class="cls-3" d="M155.46,78.33a7.5,7.5,0,0,1-6.75,0c-1.86-1.08-1.86-2.82,0-3.9a7.5,7.5,0,0,1,6.75,0C157.32,75.51,157.32,77.25,155.46,78.33Z"/><path class="cls-3" d="M160.14,115.82a.83.83,0,0,1-.83-.82V81.1a.83.83,0,1,1,1.65,0V115A.82.82,0,0,1,160.14,115.82Z"/><rect class="cls-3" x="157.19" y="78.97" width="5.89" height="12.71"/><path class="cls-3" d="M162.22,92.88a4.64,4.64,0,0,1-4.17,0,1.27,1.27,0,0,1,0-2.41,4.64,4.64,0,0,1,4.17,0A1.27,1.27,0,0,1,162.22,92.88Z"/><rect class="cls-3" x="155.36" y="61.25" width="9.54" height="19.93"/><path class="cls-2" d="M157.19,81.06v4.3a7.62,7.62,0,0,0,5.89,0v-4.3A7.62,7.62,0,0,0,157.19,81.06Z"/><path class="cls-3" d="M163.51,83.13a7.44,7.44,0,0,1-6.75,0c-1.86-1.07-1.86-2.82,0-3.89a7.44,7.44,0,0,1,6.75,0C165.37,80.31,165.37,82.06,163.51,83.13Z"/><path class="cls-3" d="M168.18,120.63a.83.83,0,0,1-.82-.83V85.9a.83.83,0,0,1,1.65,0v33.9A.83.83,0,0,1,168.18,120.63Z"/><rect class="cls-3" x="165.24" y="83.77" width="5.89" height="12.71"/><path class="cls-3" d="M170.27,97.68a4.58,4.58,0,0,1-4.17,0,1.27,1.27,0,0,1,0-2.4,4.58,4.58,0,0,1,4.17,0A1.27,1.27,0,0,1,170.27,97.68Z"/><rect class="cls-3" x="163.41" y="66.06" width="9.54" height="19.93"/><path class="cls-2" d="M165.24,85.86v4.3a7.62,7.62,0,0,0,5.89,0v-4.3A7.62,7.62,0,0,0,165.24,85.86Z"/><path class="cls-3" d="M171.56,87.94a7.44,7.44,0,0,1-6.75,0c-1.86-1.08-1.86-2.82,0-3.9a7.5,7.5,0,0,1,6.75,0C173.42,85.12,173.42,86.86,171.56,87.94Z"/><path class="cls-3" d="M176.23,125.43a.82.82,0,0,1-.82-.82V90.71a.82.82,0,1,1,1.64,0v33.9A.82.82,0,0,1,176.23,125.43Z"/><rect class="cls-3" x="173.29" y="88.58" width="5.89" height="12.71"/><path class="cls-3" d="M178.31,102.49a4.62,4.62,0,0,1-4.16,0,1.27,1.27,0,0,1,0-2.41,4.62,4.62,0,0,1,4.16,0A1.27,1.27,0,0,1,178.31,102.49Z"/><rect class="cls-3" x="171.46" y="70.86" width="9.54" height="19.93"/><path class="cls-2" d="M173.29,90.67V95a7.62,7.62,0,0,0,5.89,0v-4.3A7.62,7.62,0,0,0,173.29,90.67Z"/><path class="cls-3" d="M179.61,92.75a7.5,7.5,0,0,1-6.75,0c-1.87-1.08-1.87-2.83,0-3.9a7.44,7.44,0,0,1,6.75,0C181.47,89.93,181.47,91.67,179.61,92.75Z"/><polygon class="cls-3" points="213.63 107.31 226.43 99.77 214.25 84.56 211.04 89.8 213.63 107.31"/><path class="cls-3" d="M120.73,23.83l20.42-11.75s-.77,11.73-.77,11.75-11.73,3.64-11.73,3.64Z"/><path class="cls-3" d="M217.19,69.06a12.87,12.87,0,0,0-4.42-1.64c-2.06-10.82-9.59-22.31-18.56-27.49a18.17,18.17,0,0,0-7.6-2.57c-1.23-13.12-10.35-28-21.42-34.42-5.79-3.34-11-3.73-14.91-1.69h0l-.18.11-.3.17-12,7.11,4,3.16c-3.59,1.57-5.86,5.6-5.86,11.55,0,11,7.71,24.34,17.22,29.83l64.07,45.75c7.14,4.13,12.93.78,12.93-7.46S224.33,73.18,217.19,69.06Z"/><path class="cls-3" d="M136.49,18.51,164.13,2.36c-5.36-2.8-10.21-3-13.85-1.11h0l-.18.11-.3.17-12,7.11,4,3.16C139.25,12.89,137.39,15.19,136.49,18.51Z"/><path class="cls-3" d="M187.53,66,207.7,54.18c-3.46-6-8.22-11.21-13.49-14.25a22.73,22.73,0,0,0-2.07-1.07l-25.65,15Z"/><path class="cls-4" d="M143.44,10l9,5.19,16.46-9.69a33,33,0,0,0-3.7-2.51A23.4,23.4,0,0,0,159.44.52Z"/><path class="cls-4" d="M205.48,50.7l-16.1,9.48,5.6,6.25,14.61-8.63A46,46,0,0,0,205.48,50.7Z"/><path class="cls-4" d="M204.55,76.51a12.94,12.94,0,0,0-4.42-1.64c-2.06-10.82-9.59-22.31-18.57-27.5A18.28,18.28,0,0,0,174,44.8c-1.23-13.11-10.35-28-21.42-34.41C140.64,3.51,131,9.09,131,22.84c0,.46,0,.93,0,1.41-8.71-4-15.52.51-15.52,10.83,0,11,7.71,24.33,17.22,29.82l71.83,41.47c7.14,4.12,12.93.78,12.93-7.47S211.69,80.63,204.55,76.51Z"/><path class="cls-5" d="M131,24.25c0-.48,0-.95,0-1.41v-.06c-4.81-1.87-8.94-1.06-11.54,1.94C122.26,22.4,126.36,22.09,131,24.25Z"/><path class="cls-5" d="M205.6,75.48a12.83,12.83,0,0,0-4.42-1.63c-2.06-10.83-9.59-22.32-18.56-27.5a18.22,18.22,0,0,0-7.6-2.57c-1.23-13.12-10.35-28-21.42-34.42-7.42-4.28-14-3.73-17.85.62,4-3.38,10-3.51,16.8.41,11.07,6.39,20.19,21.3,21.42,34.41a18.28,18.28,0,0,1,7.59,2.57c9,5.19,16.51,16.68,18.57,27.5a12.94,12.94,0,0,1,4.42,1.64c7.14,4.12,12.93,14.15,12.93,22.39a10.63,10.63,0,0,1-2.06,6.88c1.93-1.49,3.11-4.19,3.11-7.9C218.53,89.63,212.74,79.61,205.6,75.48Z"/><path class="cls-2" d="M129.5,27.52,134.9,30l-.28-6c0-.42,0-.83,0-1.24,0-5.31,1.6-9.16,4.51-10.84s7.05-1.14,11.64,1.51c9.89,5.71,18.51,19.6,19.63,31.63l.29,3,3,.23a14.7,14.7,0,0,1,6.07,2.1c7.85,4.53,14.93,15.07,16.82,25l.48,2.49,2.51.4a9.27,9.27,0,0,1,3.17,1.19c6,3.49,11.13,12.31,11.13,19.27,0,2.61-.72,4.52-2,5.25s-3.28.4-5.54-.91L134.53,61.77c-8.36-4.82-15.42-17.05-15.42-26.69,0-3.79,1.12-6.67,3.07-7.92A5.24,5.24,0,0,1,125,26.4,10.8,10.8,0,0,1,129.5,27.52Z"/><polygon class="cls-3" points="165.35 72.54 167.24 71.59 165.38 70.17 165.35 72.54"/><polygon class="cls-3" points="159.66 46.94 161.49 46.01 161.53 46.98 159.66 46.94"/><polygon class="cls-3" points="170.75 66.56 172.67 65.59 168.98 62.08 170.75 66.56"/><path class="cls-3" d="M166.69,71.53l-9-5.29a1.89,1.89,0,0,1-.83-1.5l0-10.39,10.62,6.25,0,10.39C167.51,71.55,167.14,71.79,166.69,71.53Z"/><path class="cls-3" d="M161.47,46l-9.68,6.23c-.42.26-.08,1.25.54,1.62l9.9,5.83,9.89,5.82c.63.37,1-.22.55-1L163.05,47C162.64,46.19,161.89,45.76,161.47,46Z"/><path class="cls-4" d="M164.76,72.5l-9-5.29A1.93,1.93,0,0,1,155,65.7l0-10.38,10.62,6.25,0,10.39C165.59,72.52,165.22,72.76,164.76,72.5Z"/><path class="cls-4" d="M159.55,47l-9.69,6.24c-.41.26-.08,1.25.55,1.62l9.89,5.82,9.9,5.83c.62.37,1-.22.55-1l-9.62-17.61C160.71,47.16,160,46.72,159.55,47Z"/><polygon class="cls-5" points="197.16 256.63 196.06 256.63 196.06 195.23 203.31 191.04 203.31 160.82 204.41 160.82 204.41 191.68 197.16 195.87 197.16 256.63"/><path class="cls-1" d="M22.87,269.89A3.75,3.75,0,0,1,21,269.4L1,258.06a1.92,1.92,0,0,1,0-3.34l50-28.91a9.33,9.33,0,0,1,9.3,0l57.12,33-.83,1.43-57.12-33a7.66,7.66,0,0,0-7.64,0l-50,28.9a.25.25,0,0,0-.14.24.26.26,0,0,0,.14.24l20,11.35a2.1,2.1,0,0,0,2.2-.07l8.47-5.47.89,1.38-8.47,5.48A3.76,3.76,0,0,1,22.87,269.89Z"/><path class="cls-1" d="M49,274.28,22,258.73c-1.65-1-1.44-2.62.47-3.73l26-15a7.19,7.19,0,0,1,6.45-.27l26.93,15.55c1.65,1,1.45,2.62-.46,3.73l-26,15A7.17,7.17,0,0,1,49,274.28Z"/><path class="cls-2" d="M90.81,243.43h0V231.79H64.71l-9-5.21c-2.06-1.19-5.68-1-8.07.34l-8.41,4.85H13.09v12a2.32,2.32,0,0,0,1.39,2.16L48.2,265.35c2.07,1.2,5.69,1,8.08-.33l32.56-18.8C90.22,245.42,90.88,244.39,90.81,243.43Z"/><path class="cls-2" d="M52,225.77a9.3,9.3,0,0,0-4.33,1.14l-8.41,4.85H13.09v12a2.32,2.32,0,0,0,1.39,2.16L48.2,265.35a7.22,7.22,0,0,0,3.75.8Z"/><path class="cls-3" d="M16.05,231.75h-3v12a2.32,2.32,0,0,0,1.39,2.16l1.57.91Z"/><path class="cls-3" d="M48.72,265.61a9.22,9.22,0,0,0,6.46-.08V251.94H48.72Z"/><path class="cls-4" d="M48.2,253.43,14.48,234c-2.07-1.2-1.81-3.29.58-4.67l32.56-18.8c2.39-1.38,6-1.53,8.07-.33l33.73,19.47c2.07,1.19,1.81,3.28-.58,4.66l-32.56,18.8C53.89,254.47,50.27,254.62,48.2,253.43Z"/><path class="cls-3" d="M48.81,249.92,20.55,233.61c-1.74-1-1.52-2.75.48-3.91l27.29-15.76a7.55,7.55,0,0,1,6.77-.28L83.35,230c1.73,1,1.52,2.75-.49,3.91L55.57,249.64A7.5,7.5,0,0,1,48.81,249.92Z"/><path class="cls-4" d="M78.4,246.5A3,3,0,0,1,77,248.86c-.75.43-1.36.08-1.36-.79A3,3,0,0,1,77,245.71C77.79,245.28,78.4,245.63,78.4,246.5Z"/><path class="cls-4" d="M82.78,244a3,3,0,0,1-1.36,2.36c-.75.43-1.36.08-1.36-.79a3,3,0,0,1,1.36-2.36C82.17,242.75,82.78,243.1,82.78,244Z"/><path class="cls-4" d="M87.17,241.44a3,3,0,0,1-1.37,2.36c-.75.43-1.36.08-1.36-.79a3,3,0,0,1,1.36-2.36C86.56,240.22,87.17,240.57,87.17,241.44Z"/><path class="cls-2" d="M90.81,224.83h0V213.2l-26.1,0-9-5.2c-2.06-1.2-5.68-1-8.07.33l-8.41,4.86-26.12,0v12a2.35,2.35,0,0,0,1.39,2.17L48.2,246.76c2.07,1.19,5.69,1,8.08-.34l32.56-18.8C90.22,226.82,90.88,225.79,90.81,224.83Z"/><path class="cls-2" d="M52,207.18a9.18,9.18,0,0,0-4.33,1.13l-8.41,4.86-26.12,0v12a2.35,2.35,0,0,0,1.39,2.17L48.2,246.76a7.42,7.42,0,0,0,3.75.8Z"/><path class="cls-3" d="M16.05,213.16h-3v12a2.35,2.35,0,0,0,1.39,2.17l1.57.9Z"/><path class="cls-3" d="M48.72,247a9.22,9.22,0,0,0,6.46-.07V233.35H48.72Z"/><path class="cls-4" d="M48.2,234.83,14.48,215.36c-2.07-1.19-1.81-3.28.58-4.66l32.56-18.8c2.39-1.38,6-1.53,8.07-.34L89.42,211c2.07,1.2,1.81,3.29-.58,4.67L56.28,234.5C53.89,235.88,50.27,236,48.2,234.83Z"/><path class="cls-3" d="M48.81,231.33,20.55,215c-1.74-1-1.52-2.75.48-3.91l27.29-15.75a7.52,7.52,0,0,1,6.77-.28l28.26,16.31c1.73,1,1.52,2.76-.49,3.91L55.57,231.05A7.53,7.53,0,0,1,48.81,231.33Z"/><path class="cls-4" d="M78.4,227.9A3,3,0,0,1,77,230.26c-.75.44-1.36.09-1.36-.78A3,3,0,0,1,77,227.12C77.79,226.68,78.4,227,78.4,227.9Z"/><path class="cls-4" d="M82.78,225.37a3,3,0,0,1-1.36,2.36c-.75.44-1.36.09-1.36-.78a3,3,0,0,1,1.36-2.36C82.17,224.15,82.78,224.51,82.78,225.37Z"/><path class="cls-4" d="M87.17,222.84a3,3,0,0,1-1.37,2.36c-.75.44-1.36.09-1.36-.78a3,3,0,0,1,1.36-2.36C86.56,221.62,87.17,222,87.17,222.84Z"/><path class="cls-2" d="M90.81,206.24h0V194.6H64.71l-9-5.21c-2.06-1.19-5.68-1-8.07.34l-8.41,4.85H13.09v12a2.32,2.32,0,0,0,1.39,2.16L48.2,228.16c2.07,1.2,5.69,1.05,8.08-.33L88.84,209C90.22,208.23,90.88,207.2,90.81,206.24Z"/><path class="cls-2" d="M52,188.58a9.3,9.3,0,0,0-4.33,1.14l-8.41,4.85H13.09v12a2.32,2.32,0,0,0,1.39,2.16L48.2,228.16A7.32,7.32,0,0,0,52,229Z"/><path class="cls-3" d="M16.05,194.56h-3v12a2.32,2.32,0,0,0,1.39,2.16l1.57.91Z"/><path class="cls-3" d="M48.72,228.41a9.16,9.16,0,0,0,6.46-.07V214.75H48.72Z"/><path class="cls-4" d="M48.2,216.24,14.48,196.77c-2.07-1.2-1.81-3.29.58-4.67l32.56-18.8c2.39-1.38,6-1.53,8.07-.33l33.73,19.47c2.07,1.19,1.81,3.28-.58,4.66L56.28,215.9C53.89,217.28,50.27,217.43,48.2,216.24Z"/><path class="cls-5" d="M88.84,194.81l-32.56,18.8c-2.39,1.38-6,1.53-8.08.34L14.48,194.48a3.16,3.16,0,0,1-1-.92c-.71,1.14-.38,2.39,1,3.21L48.2,216.24c2.07,1.19,5.69,1,8.08-.34l32.56-18.8c1.86-1.07,2.42-2.57,1.61-3.74A4.44,4.44,0,0,1,88.84,194.81Z"/><path class="cls-4" d="M78.4,209.31A3,3,0,0,1,77,211.67c-.75.43-1.36.08-1.36-.79A3,3,0,0,1,77,208.52C77.79,208.09,78.4,208.44,78.4,209.31Z"/><path class="cls-4" d="M82.78,206.78a3,3,0,0,1-1.36,2.36c-.75.43-1.36.08-1.36-.79A3,3,0,0,1,81.42,206C82.17,205.56,82.78,205.91,82.78,206.78Z"/><path class="cls-4" d="M87.17,204.25a3,3,0,0,1-1.37,2.36c-.75.43-1.36.08-1.36-.79a3,3,0,0,1,1.36-2.36C86.56,203,87.17,203.38,87.17,204.25Z"/><path class="cls-3" d="M50.19,204.16l-15.78-9.11c-1-.56-.84-1.53.27-2.18l15.24-8.8a4.22,4.22,0,0,1,3.78-.15L69.48,193c1,.56.85,1.53-.27,2.18L54,204A4.22,4.22,0,0,1,50.19,204.16Z"/><path class="cls-4" d="M51.71,196.54l-2.19-1.26c-.13-.08-.11-.22,0-.31l2.11-1.21a.6.6,0,0,1,.52,0L54.37,195c.14.07.12.21,0,.3l-2.11,1.21A.6.6,0,0,1,51.71,196.54Z"/><path class="cls-2" d="M34.41,195.05l.05,0,.22-.16,15.24-8.79A4.19,4.19,0,0,1,53.7,186l15.74,9.08c.89-.63.94-1.5,0-2L53.7,183.92a4.22,4.22,0,0,0-3.78.15l-15.24,8.8C33.57,193.52,33.44,194.49,34.41,195.05Z"/><path class="cls-4" d="M46,219.64c0,.58-.41.82-.92.53a2,2,0,0,1-.92-1.59c0-.59.41-.82.92-.53A2,2,0,0,1,46,219.64Z"/><path class="cls-4" d="M43.18,218c0,.58-.41.82-.91.53a2,2,0,0,1-.92-1.59c0-.59.41-.82.92-.53A2,2,0,0,1,43.18,218Z"/><path class="cls-4" d="M46,223.07c0,.58-.41.82-.92.53a2,2,0,0,1-.92-1.59c0-.58.41-.82.92-.53A2,2,0,0,1,46,223.07Z"/><path class="cls-4" d="M43.18,221.44c0,.58-.41.82-.91.53a2,2,0,0,1-.92-1.59c0-.59.41-.82.92-.53A2,2,0,0,1,43.18,221.44Z"/><path class="cls-4" d="M46,238.14c0,.58-.41.82-.92.53a2,2,0,0,1-.92-1.59c0-.58.41-.82.92-.53A2,2,0,0,1,46,238.14Z"/><path class="cls-4" d="M43.18,236.51c0,.58-.41.82-.91.53a2,2,0,0,1-.92-1.59c0-.58.41-.82.92-.53A2,2,0,0,1,43.18,236.51Z"/><path class="cls-4" d="M46,241.57c0,.59-.41.82-.92.53a2,2,0,0,1-.92-1.59c0-.58.41-.82.92-.53A2,2,0,0,1,46,241.57Z"/><path class="cls-4" d="M43.18,239.94c0,.59-.41.82-.91.53a2,2,0,0,1-.92-1.59c0-.58.41-.82.92-.53A2.06,2.06,0,0,1,43.18,239.94Z"/><path class="cls-4" d="M46,256.64c0,.59-.41.82-.92.53a2,2,0,0,1-.92-1.59c0-.58.41-.82.92-.52A2,2,0,0,1,46,256.64Z"/><path class="cls-4" d="M43.18,255c0,.59-.41.82-.91.53a2,2,0,0,1-.92-1.59c0-.58.41-.82.92-.53A2.06,2.06,0,0,1,43.18,255Z"/><path class="cls-4" d="M46,260.07c0,.59-.41.83-.92.53a2,2,0,0,1-.92-1.58c0-.59.41-.83.92-.53A2,2,0,0,1,46,260.07Z"/><path class="cls-4" d="M43.18,258.44c0,.59-.41.83-.91.53a2,2,0,0,1-.92-1.58c0-.59.41-.83.92-.53A2,2,0,0,1,43.18,258.44Z"/><path class="cls-1" d="M52.39,288.12a5.54,5.54,0,0,1-2.79-.75l-17-9.86a1.86,1.86,0,0,1,0-3.21l11.18-6.48.83,1.43-11.18,6.48a.2.2,0,0,0-.1.17.2.2,0,0,0,.1.18l17,9.86a3.93,3.93,0,0,0,3.9,0l33.29-19a5.56,5.56,0,0,1,5.54,0L121,283.12a3.94,3.94,0,0,0,3.93,0l13.44-7.77.82,1.43-13.44,7.77a5.55,5.55,0,0,1-5.57,0l-27.89-16.1a3.91,3.91,0,0,0-3.9,0l-33.28,19A5.6,5.6,0,0,1,52.39,288.12Z"/><path class="cls-1" d="M200,350.86l-26.93-15.55c-1.65-.95-1.44-2.62.47-3.72l26-15a7.16,7.16,0,0,1,6.45-.26l26.93,15.55c1.65.95,1.45,2.62-.46,3.72l-26,15A7.19,7.19,0,0,1,200,350.86Z"/><path class="cls-2" d="M241.86,320h0V308.38l-26.09,0-9-5.21c-2.07-1.19-5.68-1-8.07.34l-8.42,4.86-26.11,0v12a2.33,2.33,0,0,0,1.38,2.16l33.73,19.47c2.07,1.2,5.68,1.05,8.07-.33l32.57-18.8C241.28,322,241.94,321,241.86,320Z"/><path class="cls-2" d="M203,302.35a9.3,9.3,0,0,0-4.33,1.14l-8.42,4.86-26.11,0v12a2.33,2.33,0,0,0,1.38,2.16l33.73,19.47a7.19,7.19,0,0,0,3.75.8Z"/><path class="cls-3" d="M167.1,308.33h-2.95v12a2.33,2.33,0,0,0,1.38,2.16l1.57.91Z"/><path class="cls-3" d="M199.78,342.19a9.19,9.19,0,0,0,6.45-.08V328.53h-6.45Z"/><path class="cls-4" d="M199.26,330l-33.73-19.47c-2.07-1.2-1.81-3.28.58-4.66l32.57-18.8c2.39-1.38,6-1.53,8.07-.34l33.73,19.47c2.07,1.2,1.81,3.28-.58,4.66l-32.57,18.81C204.94,331.06,201.33,331.2,199.26,330Z"/><path class="cls-3" d="M199.87,326.51,171.6,310.19c-1.73-1-1.51-2.75.49-3.91l27.29-15.75a7.49,7.49,0,0,1,6.77-.28l28.26,16.31c1.73,1,1.51,2.75-.49,3.91l-27.29,15.75A7.5,7.5,0,0,1,199.87,326.51Z"/><path class="cls-4" d="M229.46,323.08a3,3,0,0,1-1.36,2.36c-.75.44-1.36.08-1.36-.78a3,3,0,0,1,1.36-2.36C228.85,321.86,229.46,322.21,229.46,323.08Z"/><path class="cls-4" d="M233.84,320.55a3,3,0,0,1-1.36,2.36c-.75.44-1.36.08-1.36-.78a3,3,0,0,1,1.36-2.36C233.23,319.33,233.84,319.68,233.84,320.55Z"/><path class="cls-4" d="M238.22,318a3,3,0,0,1-1.36,2.36c-.75.44-1.36.08-1.36-.78a3,3,0,0,1,1.36-2.36C237.61,316.8,238.22,317.15,238.22,318Z"/><path class="cls-2" d="M241.86,301.42h0V289.78H215.77l-9-5.21c-2.07-1.2-5.68-1.05-8.07.33l-8.42,4.86H164.15v12a2.35,2.35,0,0,0,1.38,2.17l33.73,19.47c2.07,1.19,5.68,1,8.07-.34l32.57-18.8C241.28,303.41,241.94,302.38,241.86,301.42Z"/><path class="cls-2" d="M203,283.76a9.42,9.42,0,0,0-4.33,1.13l-8.42,4.86H164.15v12a2.35,2.35,0,0,0,1.38,2.17l33.73,19.47a7.39,7.39,0,0,0,3.75.8Z"/><path class="cls-3" d="M167.1,289.74h-2.95v12a2.35,2.35,0,0,0,1.38,2.17l1.57.9Z"/><path class="cls-3" d="M199.78,323.59a9.14,9.14,0,0,0,6.45-.07V309.93h-6.45Z"/><path class="cls-4" d="M199.26,311.41l-33.73-19.47c-2.07-1.19-1.81-3.28.58-4.66l32.57-18.8c2.39-1.38,6-1.53,8.07-.33l33.73,19.47c2.07,1.19,1.81,3.28-.58,4.66l-32.57,18.8C204.94,312.46,201.33,312.61,199.26,311.41Z"/><path class="cls-3" d="M199.87,307.91,171.6,291.59c-1.73-1-1.51-2.75.49-3.9l27.29-15.76a7.55,7.55,0,0,1,6.77-.28L234.41,288c1.73,1,1.51,2.75-.49,3.9l-27.29,15.76A7.5,7.5,0,0,1,199.87,307.91Z"/><path class="cls-4" d="M229.46,304.49a3,3,0,0,1-1.36,2.36c-.75.43-1.36.08-1.36-.79a3,3,0,0,1,1.36-2.36C228.85,303.27,229.46,303.62,229.46,304.49Z"/><path class="cls-4" d="M233.84,302a3,3,0,0,1-1.36,2.36c-.75.43-1.36.08-1.36-.79a3,3,0,0,1,1.36-2.36C233.23,300.74,233.84,301.09,233.84,302Z"/><path class="cls-4" d="M238.22,299.43a3,3,0,0,1-1.36,2.36c-.75.43-1.36.08-1.36-.79a3,3,0,0,1,1.36-2.36C237.61,298.21,238.22,298.56,238.22,299.43Z"/><path class="cls-2" d="M241.86,282.82h0V271.18H215.77l-9-5.21c-2.07-1.19-5.68-1-8.07.34l-8.42,4.86-26.11,0v12a2.33,2.33,0,0,0,1.38,2.16l33.73,19.47c2.07,1.2,5.68,1.05,8.07-.33l32.57-18.8C241.28,284.81,241.94,283.78,241.86,282.82Z"/><path class="cls-2" d="M203,265.16a9.3,9.3,0,0,0-4.33,1.14l-8.42,4.86-26.11,0v12a2.33,2.33,0,0,0,1.38,2.16l33.73,19.47a7.19,7.19,0,0,0,3.75.8Z"/><path class="cls-3" d="M167.1,271.14h-2.95v12a2.33,2.33,0,0,0,1.38,2.16l1.57.91Z"/><path class="cls-3" d="M199.78,305a9.19,9.19,0,0,0,6.45-.08V291.34h-6.45Z"/><path class="cls-4" d="M199.26,292.82l-33.73-19.47c-2.07-1.2-1.81-3.28.58-4.66l32.57-18.8c2.39-1.38,6-1.53,8.07-.34L240.48,269c2.07,1.2,1.81,3.28-.58,4.66l-32.57,18.8C204.94,293.86,201.33,294,199.26,292.82Z"/><path class="cls-5" d="M239.9,271.39l-32.57,18.8c-2.39,1.38-6,1.53-8.07.34l-33.73-19.47a3.12,3.12,0,0,1-1-.92c-.71,1.15-.39,2.39,1,3.21l33.73,19.47c2.07,1.19,5.68,1,8.07-.34l32.57-18.8c1.85-1.07,2.42-2.57,1.61-3.74A4.44,4.44,0,0,1,239.9,271.39Z"/><path class="cls-4" d="M229.46,285.89a3,3,0,0,1-1.36,2.36c-.75.44-1.36.08-1.36-.79a3,3,0,0,1,1.36-2.35C228.85,284.67,229.46,285,229.46,285.89Z"/><path class="cls-4" d="M233.84,283.36a3,3,0,0,1-1.36,2.36c-.75.44-1.36.08-1.36-.79a3,3,0,0,1,1.36-2.35C233.23,282.14,233.84,282.49,233.84,283.36Z"/><path class="cls-4" d="M238.22,280.83a3,3,0,0,1-1.36,2.36c-.75.44-1.36.08-1.36-.79a3,3,0,0,1,1.36-2.35C237.61,279.61,238.22,280,238.22,280.83Z"/><path class="cls-3" d="M201.25,280.75l-15.78-9.11c-1-.56-.85-1.54.27-2.19L201,260.66a4.19,4.19,0,0,1,3.78-.16l15.78,9.11c1,.56.85,1.54-.27,2.18L205,280.59A4.19,4.19,0,0,1,201.25,280.75Z"/><path class="cls-4" d="M202.76,273.12l-2.18-1.26c-.13-.08-.12-.21,0-.3l2.11-1.22a.56.56,0,0,1,.52,0l2.18,1.26c.14.08.12.21,0,.3l-2.1,1.22A.59.59,0,0,1,202.76,273.12Z"/><path class="cls-2" d="M185.47,271.64l.05,0,.22-.15,15.24-8.8a4.19,4.19,0,0,1,3.78-.16l15.74,9.09c.89-.64.94-1.51,0-2l-15.78-9.11a4.19,4.19,0,0,0-3.78.16l-15.24,8.79C184.62,270.1,184.5,271.08,185.47,271.64Z"/><path class="cls-4" d="M151.18,84.67c0,.58-.41.82-.91.52a2,2,0,0,1-.92-1.58c0-.59.41-.82.92-.53A2,2,0,0,1,151.18,84.67Z"/><path class="cls-4" d="M159.26,89.56c0,.59-.41.82-.92.53a2,2,0,0,1-.92-1.59c0-.58.41-.82.92-.53A2,2,0,0,1,159.26,89.56Z"/><path class="cls-4" d="M167.33,94.46c0,.58-.41.82-.92.53a2.06,2.06,0,0,1-.91-1.59c0-.59.41-.82.91-.53A2,2,0,0,1,167.33,94.46Z"/><path class="cls-4" d="M175.41,99.35c0,.59-.42.82-.92.53a2,2,0,0,1-.92-1.59c0-.58.41-.82.92-.52A2,2,0,0,1,175.41,99.35Z"/><path class="cls-4" d="M156.81,94.43a.83.83,0,1,1-.82-.82A.83.83,0,0,1,156.81,94.43Z"/><path class="cls-4" d="M164.34,98.94a.83.83,0,1,1-.83-.82A.83.83,0,0,1,164.34,98.94Z"/><circle class="cls-4" cx="171.04" cy="103.45" r="0.82"/><path class="cls-4" d="M179.39,107.79a.83.83,0,1,1-.82-.83A.82.82,0,0,1,179.39,107.79Z"/></svg>