<svg id="Layer_1" data-name="Layer 1" xmlns="http://www.w3.org/2000/svg" viewBox="0 0 71.84 106.45"><defs><style>.cls-1{fill:#f6921e;}</style></defs><title>ايقونات وصور الاستضافة</title><path class="cls-1" d="M2.77,106.28c-1.1-.72-2.28-1.36-2.53-2.83a6.81,6.81,0,0,1-.16-1.19c0-11-.08-22,0-32.94A12.82,12.82,0,0,1,5.2,59.12c2.1-1.69,4.56-2.48,7-3.43q6.58-2.59,13.19-5.16L26.81,50c0-1.17.07-2.35,0-3.51a2.13,2.13,0,0,0-.8-1.21,13.51,13.51,0,0,1-4.72-8.06A1.28,1.28,0,0,0,20.11,36a6.69,6.69,0,0,1-5.31-6.78A6,6,0,0,1,16,25.77a2.41,2.41,0,0,0,.44-1.3c0-2-.07-4.08,0-6.11A18.67,18.67,0,0,1,21.15,6.74,19.35,19.35,0,0,1,31.8.47c.41-.09.82-.2,1.23-.3h5.38c1,.26,2,.49,3,.78a18.09,18.09,0,0,1,8.7,5.44,17.68,17.68,0,0,1,4.67,9.73c.29,2.55.31,5.12.43,7.68a4.78,4.78,0,0,0,.58,2.29A6.6,6.6,0,0,1,51.6,36a1.55,1.55,0,0,0-1.37,1.39,14.51,14.51,0,0,1-4.78,8.09,1.21,1.21,0,0,0-.39.71c0,1.27,0,2.55,0,3.83,6.08,2.34,12.17,4.55,18.13,7,4.67,2,7.75,5.48,8.36,10.68.28,2.44.19,4.94.23,7.41,0,1.69,0,3.38,0,5.07,0,1.21-.6,1.83-1.7,1.82s-1.61-.64-1.61-1.79c0-3.42-.07-6.84,0-10.26a10.81,10.81,0,0,0-6.91-10c-3.09-1.08-6.1-2.39-9.12-3.63-.86-.35-1.36-.3-1.8.66-1.26,2.7-2.67,5.34-3.94,8-1.07,2.26-3.1,2.91-5.08,1.25a1.63,1.63,0,0,1-.11.17,3.48,3.48,0,0,0-.86,3.24c.78,3.85,1.41,7.72,2.07,11.59.72,4.27,1.25,8.58,2.17,12.81.53,2.44-.55,4-2,5.5-1.06,1.1-2.09,2.24-3.23,3.46H56.24V101.9q0-14.61,0-29.22c0-.88.28-1.65,1.23-1.68a2.35,2.35,0,0,1,1.7.7,3.14,3.14,0,0,1,.38,1.84q0,14.14,0,28.28v1.34c2.66,0,5.24,0,7.81,0,.83,0,1.13-.61,1.12-1.47,0-4.56,0-9.12,0-13.68,0-.92.27-1.65,1.33-1.86a1.56,1.56,0,0,1,1.81.85,2.11,2.11,0,0,1,.16,1c0,4.69,0,9.39,0,14.09a4,4,0,0,1-2.32,4,2.07,2.07,0,0,0-.38.28H25.36c-.43-.66-1.14-1.16-.68-2.16s1.28-1,2.15-1c1.74,0,3.48,0,5.38,0-1.58-1.76-3.09-3.34-4.47-5A3.39,3.39,0,0,1,26.86,96c.32-2.92.81-5.83,1.29-8.74s1.05-6,1.55-9,.94-6.1,1.52-9.12a2,2,0,0,0-.33-1.79,11.61,11.61,0,0,1-.67-1c-2,1.66-4,1-5.07-1.26-1.27-2.66-2.63-5.28-3.94-7.93-.71-1.43-.53-1.18-1.89-.68-3.09,1.16-6.16,2.4-9.24,3.6a10.45,10.45,0,0,0-6.66,9.19c-.08,10.81,0,21.62,0,32.43,0,1.15.28,1.45,1.44,1.47s2.28,0,3.42,0H12.3V99.42c0-8.64,0-17.27,0-25.91a3,3,0,0,1,.39-1.83A2.36,2.36,0,0,1,14.42,71c1,0,1.2.82,1.2,1.69q0,14.61,0,29.22v1.24c1.25,0,2.36,0,3.46,0a1.41,1.41,0,0,1,1.48,1.55,5.64,5.64,0,0,1-.8,1.56ZM24.19,24a4.14,4.14,0,0,0-.07.47c.06,3.4.18,6.81.18,10.21a9.67,9.67,0,0,0,1.22,4.67,11.45,11.45,0,0,0,12.52,6A11.28,11.28,0,0,0,47.3,34.45c.15-3.51,0-7,0-10.56a2.33,2.33,0,0,0-.52-1.34c-.81-1-1.82-1.8-2.53-2.83-.55-.8-.93-.64-1.64-.31a59.13,59.13,0,0,1-7.41,3.23A47.68,47.68,0,0,1,27.73,24,26.09,26.09,0,0,1,24.19,24Zm27.64-1.09c.48-7.18-1.41-13.35-7.85-17.2a15.12,15.12,0,0,0-16.68.17c-6.28,4-8.23,10-7.44,17.16l1.08-.13a2.71,2.71,0,0,1,2.53-2c1.37,0,2.75-.06,4.11-.21a48.85,48.85,0,0,0,5.11-.78A27.57,27.57,0,0,0,41.77,16a2.79,2.79,0,0,1,3.59.12c1.35,1.24,2.59,2.61,3.82,4a5.6,5.6,0,0,1,1.39,2.08C50.8,23.05,51.19,23,51.83,22.91ZM34.52,69.44c-.31,2-.59,3.92-.92,5.85-.52,3-1.08,6-1.61,9.08s-1,6.26-1.64,9.38a3.26,3.26,0,0,0,.79,3.31c.92.87,1.73,1.85,2.59,2.78l2.21,2.38c.42-.48.77-.93,1.15-1.35,1.45-1.59,2.92-3.17,4.35-4.78a1.34,1.34,0,0,0,.23-.92c-.15-1-.39-2-.56-3-.63-3.87-1.24-7.75-1.89-11.61-.62-3.7-1.29-7.39-1.95-11.14ZM30.21,47.82c-.25,1.62-.19,3,1.16,4.09a9.62,9.62,0,0,1,1.05,1.36C33.55,54.66,34.7,56,36,57.56c.3-.35.53-.6.74-.87,1.3-1.64,2.52-3.37,3.94-4.9a4.23,4.23,0,0,0,1-4A15.61,15.61,0,0,1,30.21,47.82Zm-2,15.84,5.32-3.75c-.4-.47-.76-.87-1.1-1.29q-2-2.41-3.9-4.84a1,1,0,0,0-1.4-.34c-1.08.51-2.22.89-3.36,1.34ZM48,54.77c-1.28-.52-2.51-1-3.76-1.51a.75.75,0,0,0-.65.25c-1.75,2.1-3.47,4.23-5.25,6.42l5.24,3.68Zm-15,9.6c.41,1.22,1.13,2,2.55,1.72a5.34,5.34,0,0,1,1.44,0c1.06.11,1.29-.76,1.58-1.42.08-.16-.46-.66-.79-.93-.59-.49-1.24-.93-1.89-1.41ZM21,32.78V26.34a3.49,3.49,0,0,0-2.85,3.35A3.35,3.35,0,0,0,21,32.78Zm29.72-.14c1.4.1,2.8-1.68,2.67-3.36a3,3,0,0,0-2.67-2.92Z"/></svg>