<svg id="Layer_1" data-name="Layer 1" xmlns="http://www.w3.org/2000/svg" viewBox="0 0 433.15 258.29"><defs><style>.cls-1{fill:#f5f5f5;}.cls-2{fill:#e1e1e1;}.cls-3{fill:#ececec;}.cls-4{fill:#1a2e35;}.cls-5{fill:#375a64;}.cls-6{fill:#ff4f5b;}.cls-7{fill:#fff;}.cls-8{fill:#fafafa;}.cls-9{opacity:0.4;}.cls-10{fill:#ffbf9d;}.cls-11{fill:#ff9a6c;}.cls-12{opacity:0.2;}</style></defs><title>ايقونات وصور الاستضافة</title><path class="cls-1" d="M370.36,146.18c-9.77-8.38-10.8-22.24-9.16-34.45.27-2,.26-4.21,1.41-5.91s3.55-2.69,5.29-1.65c1.45.87,1.93,2.7,2.63,4.24a12,12,0,0,0,4.34,5.06,4.57,4.57,0,0,0,4.16.8c1.86-.8,2.31-3.21,2.5-5.25q.54-5.68,1.06-11.37a19,19,0,0,1,1.22-6,6.34,6.34,0,0,1,4.39-3.87c2-.34,4.27,1,4.48,3a19.89,19.89,0,0,1-.2,2.54,2.13,2.13,0,0,0,1,2.13,2.46,2.46,0,0,0,2.33-.71A27,27,0,0,0,401.44,88a37.38,37.38,0,0,1,5.28-7.11,11,11,0,0,1,7.86-3.43c2.93.12,5.86,2.23,6.31,5.16s-1.51,5.68-3.56,7.82A45.62,45.62,0,0,1,407,98.46a3.77,3.77,0,0,0-1.75,1.54c-.58,1.32.57,2.79,1.87,3.37a24.3,24.3,0,0,0,4.69,1c1.56.34,3.21,1.21,3.66,2.77.63,2.16-1.33,4.16-3.18,5.42a38.87,38.87,0,0,1-12.17,5.49,13.22,13.22,0,0,0-4.48,1.66c-1.31.93-2.22,2.68-1.63,4.18s2.41,2.16,4,2a26.25,26.25,0,0,0,4.63-1.26c2.9-.77,6.49-.22,8,2.37a6.48,6.48,0,0,1,.12,5.76,14.84,14.84,0,0,1-3.59,4.71,39.22,39.22,0,0,1-17.86,10.07c-6.7,1.6-12.77,1.61-19-1.39"/><path class="cls-2" d="M374.29,138.82a182.06,182.06,0,0,1,9.18-18.89q1.35-2.45,2.66-4.83c.88-1.58,1.75-3.15,2.7-4.63a92.66,92.66,0,0,1,5.92-8.21c2-2.52,4-4.84,5.9-7s3.69-4.12,5.4-5.85a72.78,72.78,0,0,1,8.71-7.53c1.09-.81,2-1.4,2.55-1.8l.68-.45c.15-.1.23-.15.24-.14l-.22.17-.66.48c-.58.42-1.43,1-2.51,1.86a76.4,76.4,0,0,0-8.6,7.6c-1.7,1.74-3.48,3.71-5.36,5.87s-3.86,4.48-5.86,7a91.52,91.52,0,0,0-5.88,8.19c-.94,1.47-1.8,3-2.68,4.62s-1.76,3.2-2.66,4.82A188.08,188.08,0,0,0,374.6,139"/><path class="cls-2" d="M388.94,110.47a3.72,3.72,0,0,1-.12-.89c-.05-.57-.09-1.4-.14-2.43-.08-2.05-.1-4.89-.11-8s-.08-6-.19-8c-.06-1-.11-1.85-.16-2.42a3.68,3.68,0,0,1,0-.9,5.25,5.25,0,0,1,.17.88c.09.57.18,1.4.27,2.42.19,2.05.29,4.89.3,8s0,5.89,0,8c0,1,0,1.78,0,2.43A5.39,5.39,0,0,1,388.94,110.47Z"/><path class="cls-2" d="M415.56,108.19a6.74,6.74,0,0,1-1.06,0c-.67,0-1.65,0-2.86,0-2.42,0-5.76.17-9.44.49s-7,.76-9.39,1.15c-1.2.18-2.16.36-2.83.48a6.55,6.55,0,0,1-1,.15,5,5,0,0,1,1-.3c.66-.16,1.62-.38,2.82-.6,2.38-.45,5.71-.93,9.4-1.26a92.52,92.52,0,0,1,9.47-.37c1.21,0,2.19.07,2.87.12A5.35,5.35,0,0,1,415.56,108.19Z"/><path class="cls-2" d="M374.65,138.37a1.27,1.27,0,0,1-.14-.33c-.1-.27-.21-.6-.36-1-.3-.86-.7-2.12-1.18-3.68-1-3.12-2.16-7.47-3.41-12.29s-2.41-9.18-3.3-12.32l-1.07-3.71c-.12-.4-.21-.73-.29-1a1.72,1.72,0,0,1-.08-.36s.07.11.15.34.21.59.35,1c.31.86.71,2.12,1.19,3.68,1,3.12,2.16,7.47,3.41,12.29s2.41,9.17,3.3,12.31l1.07,3.71.29,1C374.64,138.25,374.67,138.37,374.65,138.37Z"/><path class="cls-2" d="M410.5,130.64s-.12.05-.36.11l-1,.24-3.84.83c-3.24.71-7.71,1.73-12.64,2.87s-9.42,2.13-12.67,2.77c-1.63.32-2.95.56-3.87.71l-1.05.17a1.21,1.21,0,0,1-.38,0,1.91,1.91,0,0,1,.36-.11l1.05-.23,3.83-.84c3.25-.7,7.71-1.73,12.65-2.87s9.41-2.12,12.67-2.76c1.63-.32,3-.57,3.86-.72l1.06-.16A1.47,1.47,0,0,1,410.5,130.64Z"/><path class="cls-2" d="M397.2,56.67a5.15,5.15,0,0,1-5.06-1.8,6.1,6.1,0,0,1-1.27-5.59L399.35,18a5.16,5.16,0,0,1,3.81-3.81h0a5.15,5.15,0,0,1,5.06,1.8l21.1,24.58a6.14,6.14,0,0,1,1.26,5.6,5.15,5.15,0,0,1-3.81,3.8l-29.58,6.7Zm6.35-40.81h0a3.6,3.6,0,0,0-2.67,2.66l-8.48,31.28a4.33,4.33,0,0,0,.88,3.93A3.61,3.61,0,0,0,396.82,55h0l29.57-6.69a3.61,3.61,0,0,0,2.67-2.67,4.28,4.28,0,0,0-.88-3.93L407.1,17.12A3.6,3.6,0,0,0,403.55,15.86Z"/><path class="cls-2" d="M407.85,44.78a2,2,0,0,1,1.51-2.51,2,2,0,0,1,2.4,1.61,2,2,0,0,1-1.45,2.53A2.05,2.05,0,0,1,407.85,44.78ZM404.16,28l3.62-.84L410,39.75l-2.42.56Z"/><path class="cls-3" d="M7.5,145.44s-4.07,2.28,2.05,10.76a120.78,120.78,0,0,0,10.08,12.52s1.16,2-.58,2.61-5.81.6-6.27,2.92,1.52,4.31,5.17,5.67,11.55,4.66,12.26,5,1.49,1.19.37,1.79-9.88,2.92-8.54,7,12.15,6.23,13.32,6.49,1.52.68,1.52,1.3-3,1.13-5.48,1.88-5.18,2.08-4.21,4.37,7.81,6.38,22.74,5.54l6.89-.84L59.65,206c5.24-14,3.37-21.74,1.47-23.35s-4,.6-5.42,2.73-2.83,4.86-3.42,4.67-.91-.64-.8-1.84,1.27-12.15-2.24-14.65-8.31,5.18-9.22,6.07-1.53-.13-1.61-.88-.87-9.29-1.09-13.18-1.44-6.36-3.88-6.62-3.55,3.63-4.65,5.12-2.67-.22-2.67-.22a119.78,119.78,0,0,0-9-13.34c-6.28-8.36-9.74-5.06-9.74-5.06"/><path class="cls-2" d="M57.42,214c-4.58-6.15-12.54-17.23-19.42-26.71s-13.12-18-17.67-24.22l-5.4-7.32-1.46-2c-.17-.22-.29-.39-.38-.52L13,153l.14.17.39.51,1.5,2c1.3,1.71,3.16,4.2,5.45,7.28,4.58,6.15,10.84,14.71,17.72,24.18S53,207.7,57.55,213.88"/><path class="cls-2" d="M18.46,174.5a3,3,0,0,1,.5.06l1.34.25c1.13.23,2.69.58,4.39,1l4.37,1.1,1.33.32a1.69,1.69,0,0,1,.48.14,3,3,0,0,1-.5-.06c-.32-.05-.78-.14-1.34-.26-1.13-.23-2.68-.61-4.39-1L20.27,175l-1.33-.31A1.71,1.71,0,0,1,18.46,174.5Z"/><path class="cls-2" d="M31.27,176.85c-.06,0,.53-3.24,1.31-7.22s1.47-7.2,1.53-7.19-.53,3.25-1.32,7.23S31.33,176.87,31.27,176.85Z"/><path class="cls-2" d="M41.19,191.88a1.72,1.72,0,0,1,.21-.46c.17-.34.38-.75.64-1.24.54-1.05,1.28-2.49,2-4.12s1.4-3.12,1.85-4.21c.21-.51.39-.94.54-1.28a2.2,2.2,0,0,1,.22-.47,3.13,3.13,0,0,1-.14.5c-.11.31-.27.76-.48,1.31-.41,1.1-1,2.61-1.79,4.24s-1.52,3.07-2.1,4.1c-.29.51-.52.93-.7,1.21A2.33,2.33,0,0,1,41.19,191.88Z"/><path class="cls-2" d="M29.13,192.31a1.62,1.62,0,0,1,.47-.07l1.28-.09c1.09-.08,2.59-.16,4.24-.24s3.16-.14,4.25-.17l1.29,0a2.51,2.51,0,0,1,.47,0,1.47,1.47,0,0,1-.47.06l-1.28.1c-1.09.07-2.59.16-4.25.24s-3.15.14-4.24.17l-1.29,0A2.51,2.51,0,0,1,29.13,192.31Z"/><path class="cls-2" d="M36.19,206.69a2.38,2.38,0,0,1,.6-.08l1.65-.13c1.39-.1,3.31-.22,5.44-.35s4-.22,5.44-.28l1.65-.06a2.52,2.52,0,0,1,.6,0,4.3,4.3,0,0,1-.6.08l-1.65.13c-1.39.09-3.31.22-5.43.34s-4,.22-5.44.28l-1.65.06Z"/><path class="cls-2" d="M51.2,205.72a4.59,4.59,0,0,1,.25-.6c.2-.41.45-1,.76-1.6.63-1.35,1.51-3.22,2.41-5.31s1.68-4,2.23-5.39l.65-1.64a2.51,2.51,0,0,1,.26-.59,4.6,4.6,0,0,1-.18.62c-.14.4-.33,1-.59,1.67-.51,1.4-1.26,3.33-2.17,5.42s-1.8,3.95-2.47,5.29c-.34.66-.62,1.2-.82,1.57A5.76,5.76,0,0,1,51.2,205.72Z"/><rect class="cls-4" x="151.49" y="141.62" width="87.49" height="61.94"/><rect class="cls-5" x="138.71" y="135.22" width="95.65" height="23.73"/><path class="cls-4" d="M169,141.62a1.08,1.08,0,0,1-2.16,0,1.08,1.08,0,0,1,2.16,0Z"/><path class="cls-4" d="M173.77,141.62a1.08,1.08,0,1,1-1.08-1.08A1.08,1.08,0,0,1,173.77,141.62Z"/><path class="cls-4" d="M178.54,141.62a1.08,1.08,0,1,1-1.08-1.08A1.08,1.08,0,0,1,178.54,141.62Z"/><path class="cls-4" d="M183.31,141.62a1.08,1.08,0,1,1-1.08-1.08A1.08,1.08,0,0,1,183.31,141.62Z"/><path class="cls-4" d="M220.25,141.62a1.08,1.08,0,1,1-1.08-1.08A1.08,1.08,0,0,1,220.25,141.62Z"/><path class="cls-4" d="M225.11,141.62a1.08,1.08,0,1,1-1.08-1.08A1.08,1.08,0,0,1,225.11,141.62Z"/><path class="cls-4" d="M188.07,141.62a1.08,1.08,0,1,1-2.16,0,1.08,1.08,0,1,1,2.16,0Z"/><path class="cls-4" d="M211.49,141.62a1.08,1.08,0,1,1-1.08-1.08A1.08,1.08,0,0,1,211.49,141.62Z"/><path class="cls-1" d="M192.84,141.62a1.08,1.08,0,1,1-1.08-1.08A1.08,1.08,0,0,1,192.84,141.62Z"/><path class="cls-1" d="M197.61,141.62a1.08,1.08,0,1,1-1.08-1.08A1.08,1.08,0,0,1,197.61,141.62Z"/><path class="cls-1" d="M207.28,141.62a1.08,1.08,0,1,1-1.08-1.08A1.08,1.08,0,0,1,207.28,141.62Z"/><path class="cls-1" d="M229.07,141.62a1.08,1.08,0,1,1-1.08-1.08A1.08,1.08,0,0,1,229.07,141.62Z"/><path class="cls-6" d="M202.38,141.62a1.08,1.08,0,1,1-1.08-1.08A1.08,1.08,0,0,1,202.38,141.62Z"/><path class="cls-6" d="M216,141.62a1.08,1.08,0,1,1-1.08-1.08A1.08,1.08,0,0,1,216,141.62Z"/><path class="cls-4" d="M226.91,146.83a1.08,1.08,0,1,1,1.08,1.08A1.08,1.08,0,0,1,226.91,146.83Z"/><circle class="cls-4" cx="223.22" cy="146.83" r="1.08"/><path class="cls-4" d="M217.37,146.83a1.08,1.08,0,1,1,1.08,1.08A1.08,1.08,0,0,1,217.37,146.83Z"/><path class="cls-4" d="M212.6,146.83a1.08,1.08,0,1,1,2.16,0,1.08,1.08,0,1,1-2.16,0Z"/><path class="cls-4" d="M175.66,146.83a1.08,1.08,0,1,1,1.08,1.08A1.08,1.08,0,0,1,175.66,146.83Z"/><path class="cls-4" d="M170.8,146.83a1.08,1.08,0,1,1,1.08,1.08A1.08,1.08,0,0,1,170.8,146.83Z"/><circle class="cls-4" cx="208.92" cy="146.83" r="1.08"/><circle class="cls-4" cx="185.5" cy="146.83" r="1.08"/><path class="cls-1" d="M203.07,146.83a1.08,1.08,0,1,1,1.08,1.08A1.08,1.08,0,0,1,203.07,146.83Z"/><path class="cls-1" d="M198.3,146.83a1.08,1.08,0,1,1,1.08,1.08A1.08,1.08,0,0,1,198.3,146.83Z"/><path class="cls-1" d="M188.63,146.83a1.08,1.08,0,1,1,1.08,1.08A1.08,1.08,0,0,1,188.63,146.83Z"/><path class="cls-1" d="M166.84,146.83a1.08,1.08,0,0,1,2.16,0,1.08,1.08,0,0,1-2.16,0Z"/><path class="cls-6" d="M193.53,146.83a1.08,1.08,0,1,1,2.16,0,1.08,1.08,0,1,1-2.16,0Z"/><path class="cls-6" d="M179.88,146.83a1.08,1.08,0,1,1,2.16,0,1.08,1.08,0,1,1-2.16,0Z"/><path class="cls-4" d="M169,151.46a1.08,1.08,0,0,1-2.16,0,1.08,1.08,0,1,1,2.16,0Z"/><path class="cls-4" d="M173.77,151.46a1.08,1.08,0,1,1-1.08-1.08A1.08,1.08,0,0,1,173.77,151.46Z"/><path class="cls-4" d="M178.54,151.46a1.08,1.08,0,1,1-1.08-1.08A1.08,1.08,0,0,1,178.54,151.46Z"/><path class="cls-4" d="M183.31,151.46a1.08,1.08,0,1,1-1.08-1.08A1.08,1.08,0,0,1,183.31,151.46Z"/><path class="cls-4" d="M220.25,151.46a1.08,1.08,0,1,1-1.08-1.08A1.08,1.08,0,0,1,220.25,151.46Z"/><path class="cls-4" d="M225.11,151.46a1.08,1.08,0,1,1-1.08-1.08A1.08,1.08,0,0,1,225.11,151.46Z"/><path class="cls-4" d="M188.07,151.46a1.08,1.08,0,1,1-2.16,0,1.08,1.08,0,1,1,2.16,0Z"/><path class="cls-4" d="M211.49,151.46a1.08,1.08,0,1,1-1.08-1.08A1.08,1.08,0,0,1,211.49,151.46Z"/><path class="cls-1" d="M192.84,151.46a1.08,1.08,0,1,1-1.08-1.08A1.08,1.08,0,0,1,192.84,151.46Z"/><path class="cls-1" d="M197.61,151.46a1.08,1.08,0,1,1-1.08-1.08A1.08,1.08,0,0,1,197.61,151.46Z"/><path class="cls-1" d="M207.28,151.46a1.08,1.08,0,1,1-1.08-1.08A1.08,1.08,0,0,1,207.28,151.46Z"/><path class="cls-1" d="M229.07,151.46a1.08,1.08,0,1,1-1.08-1.08A1.08,1.08,0,0,1,229.07,151.46Z"/><path class="cls-6" d="M202.38,151.46a1.08,1.08,0,1,1-1.08-1.08A1.08,1.08,0,0,1,202.38,151.46Z"/><path class="cls-6" d="M216,151.46a1.08,1.08,0,1,1-1.08-1.08A1.08,1.08,0,0,1,216,151.46Z"/><rect class="cls-4" x="142.96" y="140.11" width="18.83" height="2.9"/><rect class="cls-4" x="142.96" y="145.1" width="18.83" height="2.9"/><rect class="cls-4" x="142.96" y="150.25" width="18.83" height="2.9"/><rect class="cls-5" x="138.71" y="164.51" width="95.65" height="23.73"/><rect class="cls-4" x="142.96" y="169.39" width="18.83" height="2.9"/><rect class="cls-4" x="142.96" y="174.38" width="18.83" height="2.9"/><rect class="cls-4" x="142.96" y="179.53" width="18.83" height="2.9"/><path class="cls-4" d="M168.66,170.91a1.08,1.08,0,1,1-1.08-1.08A1.08,1.08,0,0,1,168.66,170.91Z"/><path class="cls-4" d="M173.42,170.91a1.08,1.08,0,1,1-1.08-1.08A1.08,1.08,0,0,1,173.42,170.91Z"/><path class="cls-4" d="M178.19,170.91a1.08,1.08,0,1,1-1.08-1.08A1.08,1.08,0,0,1,178.19,170.91Z"/><path class="cls-4" d="M183,170.91a1.08,1.08,0,1,1-1.08-1.08A1.08,1.08,0,0,1,183,170.91Z"/><path class="cls-4" d="M219.9,170.91a1.08,1.08,0,1,1-1.08-1.08A1.08,1.08,0,0,1,219.9,170.91Z"/><path class="cls-4" d="M224.76,170.91a1.08,1.08,0,1,1-1.08-1.08A1.08,1.08,0,0,1,224.76,170.91Z"/><path class="cls-4" d="M187.73,170.91a1.08,1.08,0,1,1-1.08-1.08A1.08,1.08,0,0,1,187.73,170.91Z"/><path class="cls-4" d="M211.14,170.91a1.08,1.08,0,1,1-1.08-1.08A1.08,1.08,0,0,1,211.14,170.91Z"/><path class="cls-1" d="M192.49,170.91a1.08,1.08,0,1,1-1.08-1.08A1.08,1.08,0,0,1,192.49,170.91Z"/><path class="cls-1" d="M197.26,170.91a1.08,1.08,0,1,1-1.08-1.08A1.08,1.08,0,0,1,197.26,170.91Z"/><path class="cls-1" d="M206.93,170.91a1.08,1.08,0,1,1-1.08-1.08A1.08,1.08,0,0,1,206.93,170.91Z"/><path class="cls-1" d="M228.72,170.91a1.08,1.08,0,1,1-1.08-1.08A1.08,1.08,0,0,1,228.72,170.91Z"/><path class="cls-6" d="M202,170.91a1.08,1.08,0,1,1-1.08-1.08A1.08,1.08,0,0,1,202,170.91Z"/><path class="cls-6" d="M215.68,170.91a1.08,1.08,0,1,1-1.08-1.08A1.08,1.08,0,0,1,215.68,170.91Z"/><path class="cls-4" d="M226.56,176.12a1.08,1.08,0,1,1,1.08,1.08A1.08,1.08,0,0,1,226.56,176.12Z"/><path class="cls-4" d="M221.79,176.12a1.08,1.08,0,1,1,1.08,1.08A1.08,1.08,0,0,1,221.79,176.12Z"/><path class="cls-4" d="M217,176.12a1.09,1.09,0,1,1,1.08,1.08A1.08,1.08,0,0,1,217,176.12Z"/><path class="cls-4" d="M212.26,176.12a1.08,1.08,0,1,1,2.16,0,1.08,1.08,0,1,1-2.16,0Z"/><path class="cls-4" d="M175.31,176.12a1.08,1.08,0,1,1,1.08,1.08A1.08,1.08,0,0,1,175.31,176.12Z"/><path class="cls-4" d="M170.45,176.12a1.08,1.08,0,1,1,1.08,1.08A1.08,1.08,0,0,1,170.45,176.12Z"/><path class="cls-4" d="M207.49,176.12a1.08,1.08,0,1,1,1.08,1.08A1.08,1.08,0,0,1,207.49,176.12Z"/><path class="cls-4" d="M184.08,176.12a1.08,1.08,0,1,1,2.16,0,1.08,1.08,0,0,1-2.16,0Z"/><path class="cls-1" d="M202.72,176.12a1.08,1.08,0,1,1,1.08,1.08A1.08,1.08,0,0,1,202.72,176.12Z"/><path class="cls-1" d="M198,176.12A1.09,1.09,0,1,1,199,177.2,1.08,1.08,0,0,1,198,176.12Z"/><path class="cls-1" d="M188.28,176.12a1.08,1.08,0,1,1,1.08,1.08A1.08,1.08,0,0,1,188.28,176.12Z"/><path class="cls-1" d="M166.5,176.12a1.08,1.08,0,1,1,2.16,0,1.08,1.08,0,1,1-2.16,0Z"/><path class="cls-6" d="M193.19,176.12a1.08,1.08,0,1,1,2.16,0,1.08,1.08,0,1,1-2.16,0Z"/><path class="cls-6" d="M179.54,176.12a1.08,1.08,0,1,1,2.16,0,1.08,1.08,0,1,1-2.16,0Z"/><path class="cls-4" d="M168.66,180.75a1.08,1.08,0,1,1-2.16,0,1.08,1.08,0,1,1,2.16,0Z"/><path class="cls-4" d="M173.42,180.75a1.08,1.08,0,1,1-1.08-1.08A1.08,1.08,0,0,1,173.42,180.75Z"/><path class="cls-4" d="M178.19,180.75a1.08,1.08,0,1,1-1.08-1.08A1.08,1.08,0,0,1,178.19,180.75Z"/><path class="cls-4" d="M183,180.75a1.08,1.08,0,1,1-1.08-1.08A1.08,1.08,0,0,1,183,180.75Z"/><path class="cls-4" d="M219.9,180.75a1.08,1.08,0,1,1-1.08-1.08A1.08,1.08,0,0,1,219.9,180.75Z"/><path class="cls-4" d="M224.76,180.75a1.08,1.08,0,1,1-1.08-1.08A1.08,1.08,0,0,1,224.76,180.75Z"/><path class="cls-4" d="M187.73,180.75a1.08,1.08,0,1,1-2.16,0,1.08,1.08,0,1,1,2.16,0Z"/><path class="cls-4" d="M211.14,180.75a1.08,1.08,0,1,1-1.08-1.08A1.08,1.08,0,0,1,211.14,180.75Z"/><path class="cls-1" d="M192.49,180.75a1.08,1.08,0,1,1-1.08-1.08A1.08,1.08,0,0,1,192.49,180.75Z"/><path class="cls-1" d="M197.26,180.75a1.08,1.08,0,1,1-1.08-1.08A1.08,1.08,0,0,1,197.26,180.75Z"/><path class="cls-1" d="M206.93,180.75a1.08,1.08,0,1,1-1.08-1.08A1.08,1.08,0,0,1,206.93,180.75Z"/><path class="cls-1" d="M228.72,180.75a1.08,1.08,0,1,1-1.08-1.08A1.08,1.08,0,0,1,228.72,180.75Z"/><path class="cls-6" d="M202,180.75a1.08,1.08,0,1,1-1.08-1.08A1.08,1.08,0,0,1,202,180.75Z"/><path class="cls-6" d="M215.68,180.75a1.08,1.08,0,1,1-1.08-1.08A1.08,1.08,0,0,1,215.68,180.75Z"/><polygon class="cls-4" points="248.74 158.73 234.36 158.77 234.36 135.04 248.74 135 248.74 158.73"/><polygon class="cls-4" points="248.74 188.2 234.36 188.24 234.36 164.51 248.74 164.47 248.74 188.2"/><polygon class="cls-4" points="247.85 217.89 233.47 217.93 233.47 194.2 247.85 194.16 247.85 217.89"/><rect class="cls-5" x="138.52" y="194.2" width="95.65" height="23.73"/><rect class="cls-4" x="142.77" y="199.08" width="18.83" height="2.9"/><rect class="cls-4" x="142.77" y="204.07" width="18.83" height="2.9"/><path class="cls-4" d="M169.05,200.84a1.08,1.08,0,1,1-1.08-1.09A1.09,1.09,0,0,1,169.05,200.84Z"/><path class="cls-4" d="M173.81,200.84a1.08,1.08,0,1,1-1.08-1.09A1.08,1.08,0,0,1,173.81,200.84Z"/><path class="cls-4" d="M178.58,200.84a1.08,1.08,0,1,1-1.08-1.09A1.08,1.08,0,0,1,178.58,200.84Z"/><path class="cls-4" d="M183.35,200.84a1.08,1.08,0,1,1-1.08-1.09A1.08,1.08,0,0,1,183.35,200.84Z"/><path class="cls-4" d="M220.29,200.84a1.08,1.08,0,1,1-1.08-1.09A1.08,1.08,0,0,1,220.29,200.84Z"/><path class="cls-4" d="M225.15,200.84a1.08,1.08,0,1,1-1.08-1.09A1.08,1.08,0,0,1,225.15,200.84Z"/><path class="cls-4" d="M188.12,200.84a1.08,1.08,0,1,1-1.08-1.09A1.09,1.09,0,0,1,188.12,200.84Z"/><path class="cls-4" d="M211.53,200.84a1.08,1.08,0,1,1-1.08-1.09A1.08,1.08,0,0,1,211.53,200.84Z"/><path class="cls-1" d="M192.88,200.84a1.08,1.08,0,1,1-1.08-1.09A1.08,1.08,0,0,1,192.88,200.84Z"/><path class="cls-1" d="M197.65,200.84a1.08,1.08,0,1,1-1.08-1.09A1.08,1.08,0,0,1,197.65,200.84Z"/><path class="cls-1" d="M207.32,200.84a1.08,1.08,0,1,1-1.08-1.09A1.08,1.08,0,0,1,207.32,200.84Z"/><path class="cls-1" d="M229.11,200.84a1.08,1.08,0,1,1-1.08-1.09A1.08,1.08,0,0,1,229.11,200.84Z"/><path class="cls-6" d="M202.42,200.84a1.08,1.08,0,1,1-1.08-1.09A1.08,1.08,0,0,1,202.42,200.84Z"/><path class="cls-6" d="M216.07,200.84a1.08,1.08,0,1,1-1.08-1.09A1.08,1.08,0,0,1,216.07,200.84Z"/><path class="cls-4" d="M227,206a1.08,1.08,0,1,1,1.08,1.08A1.08,1.08,0,0,1,227,206Z"/><path class="cls-4" d="M222.18,206a1.08,1.08,0,0,1,2.16,0,1.08,1.08,0,0,1-2.16,0Z"/><path class="cls-4" d="M217.41,206a1.09,1.09,0,1,1,1.08,1.08A1.09,1.09,0,0,1,217.41,206Z"/><path class="cls-4" d="M212.65,206a1.08,1.08,0,1,1,1.08,1.08A1.08,1.08,0,0,1,212.65,206Z"/><path class="cls-4" d="M175.7,206a1.08,1.08,0,0,1,2.16,0,1.08,1.08,0,0,1-2.16,0Z"/><path class="cls-4" d="M170.84,206a1.08,1.08,0,0,1,2.16,0,1.08,1.08,0,0,1-2.16,0Z"/><path class="cls-4" d="M207.88,206a1.08,1.08,0,1,1,1.08,1.08A1.08,1.08,0,0,1,207.88,206Z"/><path class="cls-4" d="M184.47,206a1.08,1.08,0,1,1,1.08,1.08A1.08,1.08,0,0,1,184.47,206Z"/><path class="cls-1" d="M203.11,206a1.08,1.08,0,0,1,2.16,0,1.08,1.08,0,0,1-2.16,0Z"/><path class="cls-1" d="M198.34,206a1.09,1.09,0,1,1,1.08,1.08A1.09,1.09,0,0,1,198.34,206Z"/><path class="cls-1" d="M188.67,206a1.08,1.08,0,0,1,2.16,0,1.08,1.08,0,0,1-2.16,0Z"/><path class="cls-1" d="M166.89,206a1.08,1.08,0,1,1,1.08,1.08A1.08,1.08,0,0,1,166.89,206Z"/><path class="cls-6" d="M193.58,206a1.08,1.08,0,1,1,1.08,1.08A1.08,1.08,0,0,1,193.58,206Z"/><path class="cls-6" d="M179.93,206a1.08,1.08,0,1,1,1.08,1.08A1.08,1.08,0,0,1,179.93,206Z"/><path class="cls-4" d="M169.05,210.67a1.08,1.08,0,1,1-1.08-1.08A1.08,1.08,0,0,1,169.05,210.67Z"/><path class="cls-4" d="M173.81,210.67a1.08,1.08,0,0,1-2.16,0,1.08,1.08,0,0,1,2.16,0Z"/><path class="cls-4" d="M178.58,210.67a1.08,1.08,0,1,1-1.08-1.08A1.08,1.08,0,0,1,178.58,210.67Z"/><path class="cls-4" d="M183.35,210.67a1.08,1.08,0,1,1-1.08-1.08A1.08,1.08,0,0,1,183.35,210.67Z"/><path class="cls-4" d="M220.29,210.67a1.08,1.08,0,0,1-2.16,0,1.08,1.08,0,0,1,2.16,0Z"/><path class="cls-4" d="M225.15,210.67a1.08,1.08,0,0,1-2.16,0,1.08,1.08,0,0,1,2.16,0Z"/><path class="cls-4" d="M188.12,210.67a1.08,1.08,0,1,1-1.08-1.08A1.08,1.08,0,0,1,188.12,210.67Z"/><path class="cls-4" d="M211.53,210.67a1.08,1.08,0,1,1-1.08-1.08A1.08,1.08,0,0,1,211.53,210.67Z"/><path class="cls-1" d="M192.88,210.67a1.08,1.08,0,1,1-2.16,0,1.08,1.08,0,1,1,2.16,0Z"/><path class="cls-1" d="M197.65,210.67a1.08,1.08,0,1,1-1.08-1.08A1.08,1.08,0,0,1,197.65,210.67Z"/><path class="cls-1" d="M207.32,210.67a1.08,1.08,0,0,1-2.16,0,1.08,1.08,0,0,1,2.16,0Z"/><path class="cls-1" d="M229.11,210.67a1.08,1.08,0,1,1-1.08-1.08A1.08,1.08,0,0,1,229.11,210.67Z"/><path class="cls-6" d="M202.42,210.67a1.08,1.08,0,1,1-1.08-1.08A1.08,1.08,0,0,1,202.42,210.67Z"/><path class="cls-6" d="M216.07,210.67a1.08,1.08,0,1,1-1.08-1.08A1.08,1.08,0,0,1,216.07,210.67Z"/><rect class="cls-3" x="252.09" y="1.35" width="70.7" height="216.58"/><polygon class="cls-2" points="378.57 217.93 322.79 217.93 322.69 1.35 378.57 1.35 378.57 217.93"/><rect class="cls-4" x="256.01" y="36.01" width="59.97" height="16.88"/><rect class="cls-5" x="257.68" y="38.14" width="3.36" height="12.92"/><path class="cls-7" d="M265,40.85a1.07,1.07,0,1,1-1.06-1.06A1.06,1.06,0,0,1,265,40.85Z"/><path class="cls-7" d="M265,45.42a1.07,1.07,0,1,1-1.06-1.07A1.06,1.06,0,0,1,265,45.42Z"/><rect class="cls-5" x="269.26" y="39.79" width="3.3" height="9.93"/><rect class="cls-5" x="274.03" y="39.79" width="3.3" height="9.93"/><rect class="cls-5" x="278.79" y="39.79" width="3.3" height="9.93"/><rect class="cls-5" x="283.56" y="39.79" width="3.3" height="9.93"/><rect class="cls-5" x="288.33" y="39.79" width="3.3" height="9.93"/><rect class="cls-5" x="293.1" y="39.79" width="3.3" height="9.93"/><rect class="cls-5" x="297.86" y="39.79" width="3.3" height="9.93"/><rect class="cls-5" x="302.63" y="39.79" width="3.3" height="9.93"/><rect class="cls-5" x="307.4" y="39.79" width="3.3" height="9.93"/><rect class="cls-5" x="312.16" y="39.79" width="3.3" height="9.93"/><rect class="cls-4" x="256.01" y="60.27" width="59.97" height="16.88"/><rect class="cls-5" x="257.68" y="62.39" width="3.36" height="12.92"/><path class="cls-7" d="M265,65.11A1.07,1.07,0,1,1,263.93,64,1.06,1.06,0,0,1,265,65.11Z"/><path class="cls-7" d="M265,69.68a1.07,1.07,0,0,1-2.13,0,1.07,1.07,0,1,1,2.13,0Z"/><rect class="cls-5" x="269.26" y="64.04" width="3.3" height="9.93"/><rect class="cls-5" x="274.03" y="64.04" width="3.3" height="9.93"/><rect class="cls-5" x="278.79" y="64.04" width="3.3" height="9.93"/><rect class="cls-5" x="283.56" y="64.04" width="3.3" height="9.93"/><rect class="cls-5" x="288.33" y="64.04" width="3.3" height="9.93"/><rect class="cls-5" x="293.1" y="64.04" width="3.3" height="9.93"/><rect class="cls-5" x="297.86" y="64.04" width="3.3" height="9.93"/><rect class="cls-5" x="302.63" y="64.04" width="3.3" height="9.93"/><rect class="cls-5" x="307.4" y="64.04" width="3.3" height="9.93"/><rect class="cls-5" x="312.16" y="64.04" width="3.3" height="9.93"/><rect class="cls-4" x="256.01" y="84.72" width="59.97" height="16.88"/><rect class="cls-5" x="257.68" y="86.84" width="3.36" height="12.92"/><path class="cls-7" d="M265,89.56a1.07,1.07,0,1,1-1.06-1.07A1.06,1.06,0,0,1,265,89.56Z"/><path class="cls-7" d="M265,94.13a1.07,1.07,0,0,1-2.13,0,1.07,1.07,0,1,1,2.13,0Z"/><rect class="cls-5" x="269.26" y="88.49" width="3.3" height="9.93"/><rect class="cls-5" x="274.03" y="88.49" width="3.3" height="9.93"/><rect class="cls-5" x="278.79" y="88.49" width="3.3" height="9.93"/><rect class="cls-5" x="283.56" y="88.49" width="3.3" height="9.93"/><rect class="cls-5" x="288.33" y="88.49" width="3.3" height="9.93"/><rect class="cls-5" x="293.1" y="88.49" width="3.3" height="9.93"/><rect class="cls-5" x="297.86" y="88.49" width="3.3" height="9.93"/><rect class="cls-5" x="302.63" y="88.49" width="3.3" height="9.93"/><rect class="cls-5" x="307.4" y="88.49" width="3.3" height="9.93"/><rect class="cls-5" x="312.16" y="88.49" width="3.3" height="9.93"/><rect class="cls-4" x="256.01" y="111.13" width="59.97" height="16.88"/><rect class="cls-5" x="257.68" y="113.25" width="3.36" height="12.92"/><path class="cls-7" d="M265,116a1.07,1.07,0,1,1-1.06-1.06A1.06,1.06,0,0,1,265,116Z"/><path class="cls-7" d="M265,120.54a1.07,1.07,0,1,1-1.06-1.07A1.06,1.06,0,0,1,265,120.54Z"/><rect class="cls-5" x="269.26" y="114.91" width="3.3" height="9.93"/><rect class="cls-5" x="274.03" y="114.91" width="3.3" height="9.93"/><rect class="cls-5" x="278.79" y="114.91" width="3.3" height="9.93"/><rect class="cls-5" x="283.56" y="114.91" width="3.3" height="9.93"/><rect class="cls-5" x="288.33" y="114.91" width="3.3" height="9.93"/><rect class="cls-5" x="293.1" y="114.91" width="3.3" height="9.93"/><rect class="cls-5" x="297.86" y="114.91" width="3.3" height="9.93"/><rect class="cls-5" x="302.63" y="114.91" width="3.3" height="9.93"/><rect class="cls-5" x="307.4" y="114.91" width="3.3" height="9.93"/><rect class="cls-5" x="312.16" y="114.91" width="3.3" height="9.93"/><rect class="cls-4" x="256.01" y="137.81" width="59.97" height="16.88"/><rect class="cls-5" x="257.68" y="139.93" width="3.36" height="12.92"/><path class="cls-7" d="M265,142.65a1.07,1.07,0,0,1-2.13,0,1.07,1.07,0,1,1,2.13,0Z"/><path class="cls-7" d="M265,147.21a1.07,1.07,0,1,1-1.06-1.07A1.06,1.06,0,0,1,265,147.21Z"/><rect class="cls-5" x="269.26" y="141.58" width="3.3" height="9.93"/><rect class="cls-5" x="274.03" y="141.58" width="3.3" height="9.93"/><rect class="cls-5" x="278.79" y="141.58" width="3.3" height="9.93"/><rect class="cls-5" x="283.56" y="141.58" width="3.3" height="9.93"/><rect class="cls-5" x="288.33" y="141.58" width="3.3" height="9.93"/><rect class="cls-5" x="293.1" y="141.58" width="3.3" height="9.93"/><rect class="cls-5" x="297.86" y="141.58" width="3.3" height="9.93"/><rect class="cls-5" x="302.63" y="141.58" width="3.3" height="9.93"/><rect class="cls-5" x="307.4" y="141.58" width="3.3" height="9.93"/><rect class="cls-5" x="312.16" y="141.58" width="3.3" height="9.93"/><rect class="cls-4" x="256.01" y="190.89" width="59.97" height="16.88"/><rect class="cls-5" x="257.68" y="193.01" width="3.36" height="12.92"/><path class="cls-7" d="M265,195.73a1.07,1.07,0,1,1-1.06-1.07A1.06,1.06,0,0,1,265,195.73Z"/><path class="cls-7" d="M265,200.3a1.07,1.07,0,1,1-1.06-1.07A1.06,1.06,0,0,1,265,200.3Z"/><rect class="cls-5" x="269.26" y="194.66" width="3.3" height="9.93"/><rect class="cls-5" x="274.03" y="194.66" width="3.3" height="9.93"/><rect class="cls-5" x="278.79" y="194.66" width="3.3" height="9.93"/><rect class="cls-5" x="283.56" y="194.66" width="3.3" height="9.93"/><rect class="cls-5" x="288.33" y="194.66" width="3.3" height="9.93"/><rect class="cls-5" x="293.1" y="194.66" width="3.3" height="9.93"/><rect class="cls-5" x="297.86" y="194.66" width="3.3" height="9.93"/><rect class="cls-5" x="302.63" y="194.66" width="3.3" height="9.93"/><rect class="cls-5" x="307.4" y="194.66" width="3.3" height="9.93"/><rect class="cls-5" x="312.16" y="194.66" width="3.3" height="9.93"/><rect class="cls-4" x="256.01" y="164.37" width="59.97" height="16.88"/><rect class="cls-5" x="257.68" y="166.49" width="3.36" height="12.92"/><path class="cls-7" d="M265,169.21a1.07,1.07,0,1,1-1.06-1.07A1.06,1.06,0,0,1,265,169.21Z"/><path class="cls-7" d="M265,173.78a1.07,1.07,0,1,1-1.06-1.07A1.06,1.06,0,0,1,265,173.78Z"/><rect class="cls-5" x="269.26" y="168.14" width="3.3" height="9.93"/><rect class="cls-5" x="274.03" y="168.14" width="3.3" height="9.93"/><rect class="cls-5" x="278.79" y="168.14" width="3.3" height="9.93"/><rect class="cls-5" x="283.56" y="168.14" width="3.3" height="9.93"/><rect class="cls-5" x="288.33" y="168.14" width="3.3" height="9.93"/><rect class="cls-5" x="293.1" y="168.14" width="3.3" height="9.93"/><rect class="cls-5" x="297.86" y="168.14" width="3.3" height="9.93"/><rect class="cls-5" x="302.63" y="168.14" width="3.3" height="9.93"/><rect class="cls-5" x="307.4" y="168.14" width="3.3" height="9.93"/><rect class="cls-5" x="312.16" y="168.14" width="3.3" height="9.93"/><path class="cls-4" d="M293.1,36a1.81,1.81,0,0,1-.06-.52c0-.34-.05-.85-.06-1.5s0-1.45-.08-2.37a14.53,14.53,0,0,0-.41-3.08,10.81,10.81,0,0,0-1.6-3.38,7.43,7.43,0,0,0-3.29-2.64,15.94,15.94,0,0,0-4.66-.95l-5.16-.45c-7.08-.61-13.5-1-18.15-1.09-2.33-.05-4.21,0-5.52,0h-2a1.81,1.81,0,0,1,.52-.06l1.5-.09c1.3-.05,3.19-.11,5.52-.1,4.66,0,11.1.37,18.18,1l5.17.46a16.07,16.07,0,0,1,4.76,1A7.75,7.75,0,0,1,291.15,25a10.88,10.88,0,0,1,1.6,3.49,15,15,0,0,1,.37,3.14c0,.93,0,1.73,0,2.38s0,1.12,0,1.5A4.15,4.15,0,0,1,293.1,36Z"/><path class="cls-4" d="M274.9,36a3.14,3.14,0,0,1,0-.49c0-.36,0-.83,0-1.41s0-1.36-.07-2.22A6.72,6.72,0,0,0,274,29.1,5.3,5.3,0,0,0,271.33,27a7.43,7.43,0,0,0-3.95-.4,6.74,6.74,0,0,0-2,.69,3.87,3.87,0,0,0-1.58,1.5,2.14,2.14,0,0,0,0,2.12,2.81,2.81,0,0,0,1.8,1.35,2.28,2.28,0,0,0,2.11-.61,3.08,3.08,0,0,0,.94-2,3,3,0,0,0-.63-2.05,4.43,4.43,0,0,0-1.58-1.41,6.08,6.08,0,0,0-2-.51c-.67-.1-1.33-.18-2-.26-1.28-.14-2.47-.22-3.56-.27-2.19-.08-4-.05-5.18-.05h-1.41a2.73,2.73,0,0,1-.5,0,1.91,1.91,0,0,1,.49-.05l1.41-.07c1.23-.05,3-.13,5.2-.08,1.1,0,2.3.1,3.58.23.65.06,1.31.15,2,.24.34.06.68.1,1,.17a4,4,0,0,1,1.06.36,4.78,4.78,0,0,1,1.72,1.51,3.33,3.33,0,0,1,.7,2.29A3.46,3.46,0,0,1,267.93,32a2.68,2.68,0,0,1-2.45.7,3.19,3.19,0,0,1-2.05-1.54,2.54,2.54,0,0,1,0-2.48A4.22,4.22,0,0,1,265.17,27a6.91,6.91,0,0,1,2.15-.72,7.78,7.78,0,0,1,4.13.45A5.61,5.61,0,0,1,274.28,29a6.88,6.88,0,0,1,.71,2.9c.05.88,0,1.63,0,2.24s0,1-.06,1.41A1.72,1.72,0,0,1,274.9,36Z"/><path class="cls-4" d="M298,36a4.41,4.41,0,0,1-.12-.56c-.07-.36-.17-.91-.32-1.6a30.87,30.87,0,0,0-1.76-5.72,16.72,16.72,0,0,0-5.22-7,9.85,9.85,0,0,0-4.79-1.82,48.52,48.52,0,0,0-5.62-.3c-7.75-.15-14.77-.12-19.86-.31-2.54-.09-4.59-.21-6-.31l-1.63-.14a3.35,3.35,0,0,1-.57-.07,4.14,4.14,0,0,1,.57,0l1.64.06c1.42.06,3.47.13,6,.19,5.08.13,12.1,0,19.86.2a47.78,47.78,0,0,1,5.67.31,10.18,10.18,0,0,1,4.94,1.91,15.44,15.44,0,0,1,3.3,3.49,20.5,20.5,0,0,1,2,3.7,29.13,29.13,0,0,1,1.66,5.79c.13.7.21,1.25.25,1.62A3.46,3.46,0,0,1,298,36Z"/><rect class="cls-4" x="256.83" y="4.04" width="58.32" height="8.47"/><rect class="cls-5" x="269.66" y="8.28" width="31.75" height="4.23"/><path class="cls-4" d="M339,179.64s-.64.11-1.76.43a15.35,15.35,0,0,0-4.41,2.16,12.26,12.26,0,0,0-2.47,2.3,8.47,8.47,0,0,0-1,1.57,10.65,10.65,0,0,0-.64,1.88c-.66,2.67-.46,5.74-.33,8.93s-.07,6.36-1.33,8.91a9.83,9.83,0,0,1-2.38,3.18,11.57,11.57,0,0,1-2.93,1.86,11.41,11.41,0,0,1-2.73.82,10.25,10.25,0,0,1-2.15.09,8,8,0,0,1-1.34-.21,2.54,2.54,0,0,1-.45-.14s.64.15,1.8.2a10.41,10.41,0,0,0,2.11-.15,11.76,11.76,0,0,0,5.48-2.7,10,10,0,0,0,2.27-3.1c1.2-2.48,1.4-5.58,1.27-8.75s-.33-6.29.37-9A11.12,11.12,0,0,1,329,186a9.28,9.28,0,0,1,1.07-1.62,12.46,12.46,0,0,1,2.57-2.32,14.49,14.49,0,0,1,4.52-2.08,8.54,8.54,0,0,1,1.33-.25A2.38,2.38,0,0,1,339,179.64Z"/><rect class="cls-4" x="312.07" y="208.8" width="4.79" height="5.82"/><rect class="cls-5" x="338.95" y="164.93" width="26.85" height="29.42"/><circle class="cls-4" cx="352.37" cy="179.76" r="8.84"/><circle class="cls-5" cx="352.37" cy="179.76" r="4.42"/><circle class="cls-4" cx="342.58" cy="169.5" r="0.82"/><path class="cls-4" d="M362.51,169.5a.82.82,0,1,1-.82-.82A.82.82,0,0,1,362.51,169.5Z"/><path class="cls-4" d="M362.69,191.22a.82.82,0,1,1-.82-.82A.82.82,0,0,1,362.69,191.22Z"/><path class="cls-4" d="M343.4,191.56a.82.82,0,1,1-.82-.82A.82.82,0,0,1,343.4,191.56Z"/><rect class="cls-4" x="365.8" y="164.93" width="2.17" height="29.42"/><path class="cls-4" d="M41.48,89.23,29.77,86.35h.09a19.49,19.49,0,0,1-10.11,3,20.72,20.72,0,0,1-6.26-.91A19.63,19.63,0,0,1,0,72.17,19.39,19.39,0,0,1,5,56.54a20.56,20.56,0,0,1,3.39-2.95c.64-.39,1.26-.8,1.91-1.14l1-.48.49-.24.52-.19a19.65,19.65,0,0,1,8.42-1.28,19.56,19.56,0,0,1,13.72,7,19.64,19.64,0,0,1,3.46,6.14A20.52,20.52,0,0,1,39,69.69a19.43,19.43,0,0,1-2.81,10.14v-.1l5.27,9.5L36,79.83l0,0,0,0a19.21,19.21,0,0,0,2.7-10,19.84,19.84,0,0,0-1.09-6.22A19.2,19.2,0,0,0,20.73,50.63a19.34,19.34,0,0,0-8.25,1.27l-.51.18-.48.24-1,.47c-.64.33-1.25.73-1.87,1.12A19.79,19.79,0,0,0,5.32,56.8,19,19,0,0,0,.38,72.12a19.32,19.32,0,0,0,13.21,16,21,21,0,0,0,6.16.93,19.42,19.42,0,0,0,10-2.93l0,0h0Z"/><path class="cls-6" d="M17.83,61.1l.62,9.78a1.59,1.59,0,0,0,1.49,1.49h0A1.59,1.59,0,0,0,21.61,71l1.09-9.83a1.25,1.25,0,0,0-1.26-1.38l-2.38,0A1.24,1.24,0,0,0,17.83,61.1Z"/><path class="cls-6" d="M22.53,77.87a2.39,2.39,0,1,1-1.51-3A2.39,2.39,0,0,1,22.53,77.87Z"/><path class="cls-4" d="M178.61,60.38s-.59-.69-1.52-1.8-2.25-2.62-3.72-4.28-2.78-3.19-3.66-4.35c-.45-.58-.79-1.05-1-1.39a2.52,2.52,0,0,1-.32-.55,23.49,23.49,0,0,1,1.52,1.8c.92,1.11,2.25,2.62,3.72,4.27s2.78,3.19,3.66,4.35c.45.58.79,1.06,1,1.4A2.28,2.28,0,0,1,178.61,60.38Z"/><path class="cls-4" d="M190.7,53.78c-.08,0-2.73-7.59-5.91-17s-5.68-17.1-5.6-17.13,2.74,7.59,5.91,17S190.79,53.75,190.7,53.78Z"/><path class="cls-4" d="M201.18,55.76c-.09,0,1.2-4.24,2.88-9.41s3.11-9.34,3.2-9.31-1.21,4.24-2.89,9.41S201.26,55.79,201.18,55.76Z"/><path class="cls-4" d="M218.92,55.23c.05.08-1.56,1.31-3.47,2.93s-3.4,3-3.47,2.91a4.85,4.85,0,0,1,.89-1c.58-.58,1.41-1.36,2.37-2.17s1.87-1.49,2.54-2A5,5,0,0,1,218.92,55.23Z"/><path class="cls-4" d="M209.37,29.86c.09,0,0,.5-.17,1.05s-.41,1-.49.95,0-.5.17-1.05S209.29,29.83,209.37,29.86Z"/><path class="cls-4" d="M165.31,44.66c-.08.05-.32-.16-.55-.48s-.36-.63-.28-.68.32.16.54.48S165.38,44.61,165.31,44.66Z"/><path class="cls-4" d="M233,64.85H153.55a2.48,2.48,0,0,0-2.48,2.48v56.11a2.48,2.48,0,0,0,2.48,2.48H184A7.66,7.66,0,0,1,180,135h28.51s-6.79-2.33-5-9.1H233a2.48,2.48,0,0,0,2.47-2.48V67.33A2.48,2.48,0,0,0,233,64.85Z"/><path class="cls-5" d="M194.33,120a1.53,1.53,0,0,1-2.16,2.16A.57.57,0,0,1,192,122a1.53,1.53,0,0,1,2.15-2.15A.57.57,0,0,1,194.33,120Z"/><path class="cls-7" d="M155.28,65.88h76a2.85,2.85,0,0,1,2.85,2.85v46.93a0,0,0,0,1,0,0H152.43a0,0,0,0,1,0,0V68.73A2.85,2.85,0,0,1,155.28,65.88Z"/><path class="cls-3" d="M155.41,65.88h76.24a2.45,2.45,0,0,1,2.45,2.45V70a0,0,0,0,1,0,0H152.43a0,0,0,0,1,0,0V68.86A3,3,0,0,1,155.41,65.88Z"/><path class="cls-2" d="M155.61,68a.58.58,0,1,1-.58-.57A.58.58,0,0,1,155.61,68Z"/><path class="cls-2" d="M157.32,68a.58.58,0,1,1-.58-.57A.58.58,0,0,1,157.32,68Z"/><path class="cls-2" d="M158.94,68a.57.57,0,1,1-.57-.57A.57.57,0,0,1,158.94,68Z"/><path class="cls-5" d="M218.78,125.93s-11.3,0-25.24,0-25.25,0-25.25,0,11.3-.05,25.25-.05S218.78,125.9,218.78,125.93Z"/><path class="cls-6" d="M185.53,88.31c0,2.51-1.84,4.7-5.9,4.7a9.84,9.84,0,0,1-5.41-1.52l1.3-2.51a6.81,6.81,0,0,0,4,1.27c1.65,0,2.66-.69,2.66-1.84s-.73-1.85-3.31-1.85h-3.62l.73-8h8.65v2.63h-5.92l-.22,2.7h1.15C183.87,83.91,185.53,85.79,185.53,88.31Z"/><path class="cls-6" d="M186.87,85.67c0-4.68,2.59-7.34,6.08-7.34S199,81,199,85.67,196.46,93,193,93,186.87,90.35,186.87,85.67Zm8.86,0c0-3.22-1.14-4.56-2.78-4.56s-2.76,1.34-2.76,4.56,1.14,4.56,2.76,4.56S195.73,88.89,195.73,85.67Z"/><path class="cls-6" d="M200.63,85.67c0-4.68,2.6-7.34,6.08-7.34s6.09,2.66,6.09,7.34S210.22,93,206.71,93,200.63,90.35,200.63,85.67Zm8.86,0c0-3.22-1.13-4.56-2.78-4.56S204,82.45,204,85.67s1.13,4.56,2.75,4.56S209.49,88.89,209.49,85.67Z"/><path class="cls-4" d="M164.54,96.46h.6v4.2h-.6Z"/><path class="cls-4" d="M170,96.46v4.2h-.49L167,97.53v3.13h-.6v-4.2h.49l2.52,3.13V96.46Z"/><path class="cls-4" d="M172.09,97h-1.44v-.52h3.47V97h-1.43v3.68h-.6Z"/><path class="cls-4" d="M177.82,100.14v.52h-3v-4.2h3V97h-2.36v1.29h2.1v.51h-2.1v1.36Z"/><path class="cls-4" d="M181.59,100.66l-.9-1.29h-1.3v1.28h-.6v-4.2h1.64c1.09,0,1.75.55,1.75,1.46a1.33,1.33,0,0,1-.93,1.33l1,1.41Zm0-2.74c0-.6-.41-.94-1.17-.94h-1v1.89h1C181.17,98.87,181.58,98.52,181.58,97.92Z"/><path class="cls-4" d="M186.75,96.46v4.2h-.49l-2.52-3.13v3.13h-.6v-4.2h.5l2.51,3.13V96.46Z"/><path class="cls-4" d="M190.68,99.61h-2.23l-.46,1h-.62l1.9-4.2h.6l1.9,4.2h-.63Zm-.21-.48-.9-2.06-.91,2.06Z"/><path class="cls-4" d="M192.39,96.46h.6v3.68h2.27v.52h-2.87Z"/><path class="cls-4" d="M197.18,100.18l.22-.47a2.15,2.15,0,0,0,1.38.48c.73,0,1-.28,1-.64,0-1-2.54-.38-2.54-1.94,0-.65.5-1.2,1.61-1.2a2.51,2.51,0,0,1,1.34.37l-.19.48a2.21,2.21,0,0,0-1.15-.34c-.72,0-1,.3-1,.67,0,1,2.54.38,2.54,1.92,0,.64-.52,1.19-1.63,1.19A2.47,2.47,0,0,1,197.18,100.18Z"/><path class="cls-4" d="M204.33,100.14v.52h-3.05v-4.2h3V97h-2.36v1.29H204v.51h-2.1v1.36Z"/><path class="cls-4" d="M208.1,100.66l-.91-1.29h-1.3v1.28h-.6v-4.2h1.64c1.09,0,1.75.55,1.75,1.46a1.33,1.33,0,0,1-.92,1.33l1,1.41Zm0-2.74c0-.6-.4-.94-1.17-.94h-1v1.89h1C207.68,98.87,208.08,98.52,208.08,97.92Z"/><path class="cls-4" d="M213.29,96.46l-1.84,4.2h-.59L209,96.46h.65l1.51,3.45,1.52-3.45Z"/><path class="cls-4" d="M216.87,100.14v.52h-3.05v-4.2h3V97h-2.36v1.29h2.11v.51h-2.11v1.36Z"/><path class="cls-4" d="M220.64,100.66l-.9-1.29h-1.3v1.28h-.6v-4.2h1.63c1.09,0,1.75.55,1.75,1.46a1.32,1.32,0,0,1-.92,1.33l1,1.41Zm0-2.74c0-.6-.4-.94-1.17-.94h-1v1.89h1C220.22,98.87,220.62,98.52,220.62,97.92Z"/><path class="cls-4" d="M186.4,107.37v.83h-3.46v-4.47h3.37v.83H184v1H186v.81H184v1Z"/><path class="cls-4" d="M190.06,108.2,189.2,107h-.95v1.25h-1v-4.47h1.93c1.19,0,1.94.62,1.94,1.62a1.45,1.45,0,0,1-.92,1.41l1,1.44Zm-1-3.63h-.84v1.56h.84c.63,0,.95-.29.95-.78S189.72,104.57,189.09,104.57Z"/><path class="cls-4" d="M194.75,108.2l-.86-1.25h-.95v1.25h-1v-4.47h1.94c1.19,0,1.94.62,1.94,1.62a1.45,1.45,0,0,1-.92,1.41l1,1.44Zm-1-3.63h-.84v1.56h.84c.63,0,.95-.29.95-.78S194.41,104.57,193.78,104.57Z"/><path class="cls-4" d="M196.31,106a2.45,2.45,0,1,1,2.44,2.3A2.31,2.31,0,0,1,196.31,106Zm3.84,0a1.4,1.4,0,1,0-1.4,1.42A1.36,1.36,0,0,0,200.15,106Z"/><path class="cls-4" d="M204.82,108.2,204,107h-1v1.25h-1v-4.47h1.94c1.19,0,1.93.62,1.93,1.62a1.45,1.45,0,0,1-.91,1.41l1,1.44Zm-1-3.63H203v1.56h.84c.63,0,1-.29,1-.78S204.48,104.57,203.85,104.57Z"/><path class="cls-6" d="M160.86,91.56a1.51,1.51,0,0,1-1.29-2.27L164,81.77a1.47,1.47,0,0,1,1.31-.75h0a1.48,1.48,0,0,1,1.3.76l4.32,7.56a1.51,1.51,0,0,1-1.32,2.26l-8.71,0Zm4.41-10.09h0a1,1,0,0,0-.92.52L160,89.52a1.06,1.06,0,0,0,0,1.06,1,1,0,0,0,.91.53h0l8.71,0a1.07,1.07,0,0,0,.93-1.59L166.19,82A1,1,0,0,0,165.27,81.47Z"/><path class="cls-6" d="M164.61,89.14a.58.58,0,1,1,.59.57A.57.57,0,0,1,164.61,89.14Zm.06-4.53h1.06L165.55,88h-.71Z"/><path class="cls-6" d="M216.45,91.56a1.51,1.51,0,0,1-1.29-2.27l4.39-7.52a1.47,1.47,0,0,1,1.31-.75h0a1.48,1.48,0,0,1,1.3.76l4.32,7.56a1.48,1.48,0,0,1,0,1.51,1.5,1.5,0,0,1-1.31.75l-8.71,0Zm4.41-10.09h0a1,1,0,0,0-.92.52l-4.39,7.53a1.05,1.05,0,0,0,.91,1.59h0l8.71,0a1,1,0,0,0,.92-.53,1.06,1.06,0,0,0,0-1.06L221.78,82A1,1,0,0,0,220.86,81.47Z"/><path class="cls-6" d="M220.2,89.14a.58.58,0,1,1,.59.57A.57.57,0,0,1,220.2,89.14Zm.05-4.53h1.07L221.14,88h-.71Z"/><polygon class="cls-6" points="384.22 193.18 387.95 217.67 409.6 217.67 414.63 193.53 384.22 193.18"/><path class="cls-8" d="M411.6,208.87c0,.07-5.55.13-12.39.13s-12.4-.06-12.4-.13,5.55-.12,12.4-.12S411.6,208.8,411.6,208.87Z"/><path class="cls-8" d="M411.68,207.67c0,.07-5.58.12-12.47.12s-12.48,0-12.48-.12,5.58-.13,12.48-.13S411.68,207.6,411.68,207.67Z"/><path class="cls-8" d="M411.64,206.31c0,.07-5.59.12-12.48.12s-12.47-.05-12.47-.12,5.58-.13,12.47-.13S411.64,206.24,411.64,206.31Z"/><path class="cls-8" d="M390.43,216.27a20.3,20.3,0,0,1-.66-3.08,19,19,0,0,1-.41-3.13,21.87,21.87,0,0,1,.66,3.08A19,19,0,0,1,390.43,216.27Z"/><path class="cls-8" d="M391.91,216a21.4,21.4,0,0,1-.27-3,24.52,24.52,0,0,1-.14-3,15.48,15.48,0,0,1,.39,3A15.06,15.06,0,0,1,391.91,216Z"/><path class="cls-8" d="M394.59,216a15,15,0,0,1-.56-3.09,14.6,14.6,0,0,1-.17-3.13,27,27,0,0,1,.42,3.1A27.3,27.3,0,0,1,394.59,216Z"/><path class="cls-8" d="M396.48,216.14a14.91,14.91,0,0,1-.3-3.14,15.14,15.14,0,0,1,.09-3.14,27.72,27.72,0,0,1,.16,3.14A29.52,29.52,0,0,1,396.48,216.14Z"/><path class="cls-8" d="M399.81,216a34.19,34.19,0,0,1-.2-6,34.28,34.28,0,0,1,.2,6Z"/><path class="cls-8" d="M402.25,216.14a37.88,37.88,0,0,1,.05-6.15,19.29,19.29,0,0,1,.1,3.07A18.48,18.48,0,0,1,402.25,216.14Z"/><path class="cls-8" d="M404.53,215.81a21.16,21.16,0,0,1,.19-3.21,20.4,20.4,0,0,1,.44-3.2,21.23,21.23,0,0,1-.19,3.22A19.91,19.91,0,0,1,404.53,215.81Z"/><path class="cls-8" d="M407.48,215.49a10.9,10.9,0,0,1,.36-2.73,10.71,10.71,0,0,1,.81-2.64,24.82,24.82,0,0,1-.56,2.69A24.09,24.09,0,0,1,407.48,215.49Z"/><path class="cls-5" d="M405.39,144.84s0,0,0,.13-.06.2-.1.34c-.1.32-.24.76-.41,1.32s-.41,1.28-.64,2.1-.52,1.75-.78,2.79-.57,2.18-.85,3.41-.55,2.55-.83,3.95c-.52,2.79-1,5.88-1.33,9.14s-.46,6.38-.5,9.22c0,1.42,0,2.77,0,4s.08,2.44.15,3.51.15,2,.21,2.89.14,1.59.21,2.18.11,1.05.14,1.38l0,.36v.12s0,0,0-.12l-.06-.35-.19-1.37c-.08-.6-.17-1.33-.25-2.18s-.19-1.82-.25-2.89-.15-2.25-.18-3.52-.06-2.62-.07-4c0-2.85.17-6,.49-9.25s.82-6.36,1.35-9.16c.29-1.39.55-2.72.86-4s.59-2.37.88-3.41.57-2,.81-2.78.48-1.52.68-2.09l.46-1.31.12-.33Z"/><path class="cls-5" d="M401.49,160a8,8,0,0,1,3.36-4.25,2,2,0,0,1,1.78-.33c.76.37.82,1.43.59,2.24a5.85,5.85,0,0,1-2.45,3.34,5,5,0,0,1-3.67.93"/><path class="cls-5" d="M400.17,170.25a13.61,13.61,0,0,1,4-6.43,2.57,2.57,0,0,1,.91-.48,1.06,1.06,0,0,1,1,.21,1.49,1.49,0,0,1,.22,1.4,8.52,8.52,0,0,1-6.32,6.36"/><path class="cls-5" d="M399.81,179.27a12.35,12.35,0,0,1,4-5.07,1.9,1.9,0,0,1,1.41-.51c.76.14,1.11,1.08,1,1.85-.14,1.6-1.36,2.87-2.61,3.87a16.5,16.5,0,0,1-3.73,1.91"/><path class="cls-5" d="M400,185.75a12,12,0,0,1,3.43-3.91,2.58,2.58,0,0,1,1-.46,1.05,1.05,0,0,1,1,.38c.35.51,0,1.19-.35,1.68a9.77,9.77,0,0,1-4.9,3.59"/><path class="cls-5" d="M399.84,183.11a38.51,38.51,0,0,0-4.9-5c-.28-.24-.63-.49-1-.37a.72.72,0,0,0-.45.66,1.86,1.86,0,0,0,.19.82,9.48,9.48,0,0,0,6.31,5.31"/><path class="cls-5" d="M400,174.68l-3.86-4.7a4.53,4.53,0,0,0-1.25-1.18,1.54,1.54,0,0,0-1.64,0,1.56,1.56,0,0,0-.53,1.55,4.25,4.25,0,0,0,.75,1.54,11.6,11.6,0,0,0,2.81,3,4.73,4.73,0,0,0,3.52,1.08"/><path class="cls-5" d="M400.53,165.19a13.46,13.46,0,0,0-3.87-5.83,2.37,2.37,0,0,0-1-.59,1.71,1.71,0,0,0-1.77,1.25,3.19,3.19,0,0,0,.35,2.55,6.72,6.72,0,0,0,1.81,1.91,15.64,15.64,0,0,0,4.29,2.32"/><path class="cls-5" d="M402.07,156.72a15.7,15.7,0,0,0-3.43-7.19c-.35-.47-.83-1-1.4-.87a1.11,1.11,0,0,0-.81.69,2.67,2.67,0,0,0-.15,1.09,8.42,8.42,0,0,0,5.46,7.51"/><path class="cls-5" d="M403.15,152.4a22.81,22.81,0,0,1-.14-4.21,7.57,7.57,0,0,1,1.4-3.93,3.31,3.31,0,0,1,1.4-1.11,1.76,1.76,0,0,1,1.72.23,1.83,1.83,0,0,1,.58,1.51,4.59,4.59,0,0,1-.43,1.61c-1,2.47-2.74,5.21-4.53,5.9"/><path class="cls-4" d="M386.36,155.64a1.35,1.35,0,0,1,0,.35c0,.25,0,.58,0,1s0,1,0,1.56,0,1.3.07,2.07c.07,1.53.22,3.35.45,5.37s.59,4.21,1.07,6.5,1.06,4.45,1.64,6.39,1.19,3.66,1.74,5.09c.26.72.54,1.36.76,1.93s.44,1.05.61,1.44l.39.91.12.32a1.2,1.2,0,0,1-.17-.3l-.43-.89c-.19-.39-.41-.86-.65-1.43s-.52-1.19-.8-1.91c-.57-1.43-1.19-3.15-1.8-5.09s-1.17-4.11-1.66-6.41S387,168,386.71,166s-.35-3.85-.4-5.38c0-.77,0-1.47,0-2.08s0-1.13,0-1.56l0-1A1.6,1.6,0,0,1,386.36,155.64Z"/><path class="cls-4" d="M387,166.81a5.72,5.72,0,0,1,1.37-3.62,1.38,1.38,0,0,1,1.15-.6c.59.08.86.79.88,1.39a4.25,4.25,0,0,1-.95,2.8,3.61,3.61,0,0,1-2.3,1.43"/><path class="cls-4" d="M388.28,174.07a9.64,9.64,0,0,1,1.33-5.24,1.84,1.84,0,0,1,.52-.52.73.73,0,0,1,.7-.07,1.06,1.06,0,0,1,.45.91,6.08,6.08,0,0,1-2.93,5.69"/><path class="cls-4" d="M390,180.28a8.82,8.82,0,0,1,1.65-4.32,1.38,1.38,0,0,1,.85-.64c.55-.07,1,.49,1.11,1a4.21,4.21,0,0,1-.95,3.19,11.52,11.52,0,0,1-2.12,2.11"/><path class="cls-4" d="M391.5,184.65a8.55,8.55,0,0,1,1.5-3.4,1.61,1.61,0,0,1,.6-.53.74.74,0,0,1,.77,0c.34.27.27.81.12,1.22a7,7,0,0,1-2.56,3.5"/><path class="cls-4" d="M390.82,182.9a26.75,26.75,0,0,0-4.42-2.35.78.78,0,0,0-.74,0,.52.52,0,0,0-.17.54,1.31,1.31,0,0,0,.31.52,6.81,6.81,0,0,0,5.44,2.26"/><path class="cls-4" d="M389.11,177.12l-3.63-2.37a3.69,3.69,0,0,0-1.11-.54,1,1,0,0,0-1.15,1.51,2.86,2.86,0,0,0,.84.89,8.29,8.29,0,0,0,2.56,1.43,3.38,3.38,0,0,0,2.63,0"/><path class="cls-4" d="M387.43,170.54a9.67,9.67,0,0,0-3.89-3.13,1.59,1.59,0,0,0-.82-.18,1.21,1.21,0,0,0-.93,1.22,2.25,2.25,0,0,0,.79,1.66,4.82,4.82,0,0,0,1.64.92,11.14,11.14,0,0,0,3.42.65"/><path class="cls-4" d="M386.66,164.45a11.08,11.08,0,0,0-3.89-4.16,1.14,1.14,0,0,0-1.14-.29.79.79,0,0,0-.4.64,2,2,0,0,0,.13.77,6,6,0,0,0,5.34,4"/><path class="cls-4" d="M386.46,161.27a16,16,0,0,1-1-2.84,5.36,5.36,0,0,1,.11-3,2.35,2.35,0,0,1,.71-1.06,1.26,1.26,0,0,1,1.22-.21,1.29,1.29,0,0,1,.72.9,3.39,3.39,0,0,1,.06,1.19c-.17,1.9-.75,4.13-1.82,5"/><path class="cls-5" d="M413.74,155.41a1.55,1.55,0,0,1,0,.34c0,.25,0,.58,0,1s0,1,0,1.57,0,1.3,0,2.07c-.05,1.54-.18,3.36-.4,5.39s-.57,4.23-1.05,6.53-1.07,4.45-1.66,6.4-1.23,3.67-1.8,5.09c-.28.72-.56,1.35-.8,1.91s-.46,1-.65,1.43L407,188a2.69,2.69,0,0,1-.16.3A1.69,1.69,0,0,1,407,188l.39-.91c.18-.39.38-.87.61-1.44s.5-1.2.76-1.92c.55-1.43,1.15-3.16,1.75-5.1s1.15-4.1,1.63-6.39.82-4.49,1.07-6.5.38-3.83.45-5.37c.05-.76.05-1.46.07-2.07s0-1.13,0-1.56v-1A1.3,1.3,0,0,1,413.74,155.41Z"/><path class="cls-5" d="M413.14,166.57a5.81,5.81,0,0,0-1.38-3.62,1.36,1.36,0,0,0-1.14-.6c-.6.08-.87.8-.89,1.39a4.27,4.27,0,0,0,.95,2.81A3.59,3.59,0,0,0,413,168"/><path class="cls-5" d="M411.83,173.83a9.74,9.74,0,0,0-1.34-5.24,1.72,1.72,0,0,0-.52-.52.73.73,0,0,0-.7-.07,1.06,1.06,0,0,0-.45.91,6.08,6.08,0,0,0,2.93,5.69"/><path class="cls-5" d="M410.13,180.05a8.82,8.82,0,0,0-1.65-4.33,1.42,1.42,0,0,0-.85-.64c-.55-.07-1,.49-1.11,1a4.29,4.29,0,0,0,1,3.2,11.6,11.6,0,0,0,2.13,2.1"/><path class="cls-5" d="M408.6,184.41a8.43,8.43,0,0,0-1.5-3.39,1.64,1.64,0,0,0-.6-.54.76.76,0,0,0-.77,0c-.34.27-.26.81-.12,1.22a7,7,0,0,0,2.56,3.5"/><path class="cls-5" d="M409.28,182.66a27.52,27.52,0,0,1,4.42-2.35.78.78,0,0,1,.74,0,.52.52,0,0,1,.17.55,1.35,1.35,0,0,1-.31.51,6.73,6.73,0,0,1-5.44,2.26"/><path class="cls-5" d="M411,176.88l3.64-2.37a3.52,3.52,0,0,1,1.1-.54,1.16,1.16,0,0,1,1.13.34,1.12,1.12,0,0,1,0,1.17,2.86,2.86,0,0,1-.84.89,8.29,8.29,0,0,1-2.56,1.43,3.34,3.34,0,0,1-2.63,0"/><path class="cls-5" d="M412.67,170.3a9.67,9.67,0,0,1,3.89-3.13,1.69,1.69,0,0,1,.82-.18,1.19,1.19,0,0,1,.93,1.23,2.26,2.26,0,0,1-.78,1.66,4.94,4.94,0,0,1-1.65.91,10.8,10.8,0,0,1-3.42.65"/><path class="cls-5" d="M413.44,164.21a11.24,11.24,0,0,1,3.89-4.16,1.19,1.19,0,0,1,1.14-.29.76.76,0,0,1,.4.64,1.76,1.76,0,0,1-.13.78,6,6,0,0,1-5.33,3.94"/><path class="cls-5" d="M413.64,161a15.87,15.87,0,0,0,1-2.83,5.3,5.3,0,0,0-.11-3,2.32,2.32,0,0,0-.71-1.06,1.26,1.26,0,0,0-1.22-.21,1.32,1.32,0,0,0-.72.9,3.17,3.17,0,0,0-.05,1.19c.16,1.91.74,4.14,1.81,5"/><path class="cls-6" d="M381.73,188.32v4.59a1.81,1.81,0,0,0,1.81,1.8h31.35a1.81,1.81,0,0,0,1.81-1.8v-4.59Z"/><g class="cls-9"><polygon points="384.45 194.71 384.71 196.17 413.65 198.23 414.38 194.71 384.45 194.71"/></g><path class="cls-4" d="M432.75,217.93c0,.09-96.48.16-215.48.16S1.77,218,1.77,217.93s96.47-.17,215.5-.17S432.75,217.84,432.75,217.93Z"/><path class="cls-10" d="M71.43,85.06h.73a14,14,0,0,1,14,12.68c.54,6.64,1,14,1,17.56-.11,7.38-7.69,8.51-7.69,8.51l.28,6.56a9,9,0,0,1-8.5,9.31h0a9,9,0,0,1-9.54-8.58L60.18,99.92C59.51,92.26,63.54,85.49,71.43,85.06Z"/><path class="cls-11" d="M79.57,123.8A18.8,18.8,0,0,1,69.65,121s2.32,5.31,9.88,4.66Z"/><path class="cls-4" d="M84.61,103.11a1.08,1.08,0,0,1-1,1.07,1,1,0,0,1-1.11-1,1.06,1.06,0,0,1,1-1.06A1,1,0,0,1,84.61,103.11Z"/><path class="cls-4" d="M84.58,101.35c-.14.13-1-.46-2.12-.46s-2,.57-2.15.43.08-.31.45-.57a3,3,0,0,1,1.72-.52,2.91,2.91,0,0,1,1.68.54C84.52,101,84.64,101.28,84.58,101.35Z"/><path class="cls-4" d="M73.89,103.11a1.06,1.06,0,0,1-1,1.07,1,1,0,0,1-1.12-1,1.08,1.08,0,0,1,1-1.06A1,1,0,0,1,73.89,103.11Z"/><path class="cls-4" d="M73.7,101.53c-.13.14-1-.45-2.12-.45s-2,.57-2.14.43.07-.31.45-.58a3,3,0,0,1,1.71-.51,2.92,2.92,0,0,1,1.69.54C73.65,101.22,73.77,101.47,73.7,101.53Z"/><path class="cls-4" d="M77.34,110a8.06,8.06,0,0,1,1.89-.32c.3,0,.58-.09.63-.29a1.49,1.49,0,0,0-.2-.86c-.28-.7-.57-1.43-.87-2.2a37.16,37.16,0,0,1-2-5.78,38.65,38.65,0,0,1,2.44,5.61l.84,2.22a1.67,1.67,0,0,1,.15,1.14.75.75,0,0,1-.49.42,2,2,0,0,1-.51.06A7.38,7.38,0,0,1,77.34,110Z"/><path class="cls-4" d="M67.59,98.39c0-.33,1.13-.62,2.34-1.27s2.11-1.39,2.38-1.2,0,.43-.25.87a4.76,4.76,0,0,1-3.6,1.89C67.92,98.68,67.6,98.55,67.59,98.39Z"/><path class="cls-4" d="M81.36,97.39c.29-.16.92.41,1.81.8s1.7.55,1.77.87c0,.15-.2.34-.63.42a2.68,2.68,0,0,1-1.64-.25,2.74,2.74,0,0,1-1.23-1.09C81.23,97.76,81.23,97.47,81.36,97.39Z"/><path class="cls-10" d="M61.31,105.39c-.13-.06-5.2-1.51-5.05,3.54s5.33,3.85,5.33,3.7S61.31,105.39,61.31,105.39Z"/><path class="cls-11" d="M60.41,110.77s-.09.06-.24.14a1,1,0,0,1-.68,0A2.16,2.16,0,0,1,58.4,109a2.91,2.91,0,0,1,.21-1.27,1,1,0,0,1,.66-.69.46.46,0,0,1,.54.22c.08.14,0,.24.07.25s.11-.09.06-.29a.54.54,0,0,0-.21-.31.7.7,0,0,0-.5-.12,1.26,1.26,0,0,0-.92.81A2.87,2.87,0,0,0,58,109a2.29,2.29,0,0,0,1.38,2.14,1,1,0,0,0,.82-.16C60.4,110.89,60.42,110.78,60.41,110.77Z"/><path class="cls-4" d="M64.71,90.39l21.61.46a9.63,9.63,0,0,0-3.18-3.57,17.12,17.12,0,0,0-9.78-3.43c-3.53-.06-10.7,4.12-13.25,6.48-2,1.9-2,3.54-2,3.54-.33,2.72,1.24,5.83,1.86,8.5.33,1.39,1,5.57,1,5.57h0c1.19,0,1.63-.93,1.45-2.08l-.22-4.49a6.71,6.71,0,0,0,2.13-7.94C63.94,93,63.28,91.15,64.71,90.39Z"/><path class="cls-11" d="M69.25,106.35a.15.15,0,0,1-.16-.11.13.13,0,0,1,.1-.16.13.13,0,0,1,.15.11A.13.13,0,0,1,69.25,106.35Z"/><path class="cls-11" d="M71.47,105.86a.15.15,0,0,1-.16-.13.16.16,0,0,1,.1-.18.16.16,0,0,1,.16.13C71.58,105.77,71.54,105.85,71.47,105.86Z"/><path class="cls-11" d="M73,105.83c-.07,0-.14-.08-.15-.19s0-.21.1-.22.14.08.15.19S73,105.82,73,105.83Z"/><path class="cls-11" d="M70.34,107.71c-.07,0-.13,0-.13-.08s.06-.08.13-.08.13,0,.13.08S70.41,107.71,70.34,107.71Z"/><path class="cls-11" d="M72.38,107.25a.13.13,0,0,1-.14-.13.13.13,0,1,1,.25,0A.12.12,0,0,1,72.38,107.25Z"/><path class="cls-11" d="M83,106a.13.13,0,0,1-.15-.11.14.14,0,0,1,.1-.17.13.13,0,0,1,.15.12A.13.13,0,0,1,83,106Z"/><path class="cls-11" d="M84.52,105.91a.15.15,0,0,1-.14-.15.15.15,0,0,1,.11-.17.15.15,0,0,1,.14.15A.14.14,0,0,1,84.52,105.91Z"/><path class="cls-11" d="M81.66,106.07a.11.11,0,0,1-.14-.08.11.11,0,0,1,.1-.13.12.12,0,0,1,.15.08A.12.12,0,0,1,81.66,106.07Z"/><path class="cls-11" d="M82.78,107.55a.13.13,0,0,1-.17-.08.12.12,0,0,1,.06-.18.13.13,0,0,1,.17.08A.12.12,0,0,1,82.78,107.55Z"/><path class="cls-11" d="M84.08,107.3a.1.1,0,0,1-.09-.13.11.11,0,0,1,.15-.07.11.11,0,0,1,.09.14C84.22,107.29,84.15,107.32,84.08,107.3Z"/><path class="cls-4" d="M60,90.62a6,6,0,0,1,1.22-5.4,6.38,6.38,0,0,1,5.17-2.33,20.4,20.4,0,0,0,3,.21c1.87-.2,3.32-1.66,5-2.37A6.7,6.7,0,0,1,82.18,83c.66,1,1.09,2.14,2.1,2.74a12.34,12.34,0,0,0,2.94.77,4.68,4.68,0,0,1,3.23,4.63A5.54,5.54,0,0,1,87,95.78a7.14,7.14,0,0,1-6-.41c-1.63-.89-3.09-2.39-5-2.34s-3.62,1.83-5.51,1.46a5.43,5.43,0,0,1-2.49-1.62,4.33,4.33,0,0,0-2.57-1.45c-1-.06-1.54,1.3-1.18,2.22l-4.36-3"/><path class="cls-5" d="M85.9,88.18l0,.08a2,2,0,0,1-.12.2,3.47,3.47,0,0,1-.62.68,3.79,3.79,0,0,1-3.25.84,3.87,3.87,0,0,1-2.07-1.14,25.22,25.22,0,0,1-1.49-2.22,3,3,0,0,0-1-.92,3.16,3.16,0,0,0-1.44-.31,3.36,3.36,0,0,0-1.47.39,2.74,2.74,0,0,0-1.08,1.08c-.26.46-.45,1-.76,1.42a1.79,1.79,0,0,1-1.39.82,2.73,2.73,0,0,1-1.5-.42,5.32,5.32,0,0,1-1.15-.93,4.84,4.84,0,0,0-2.14-1.48,2.77,2.77,0,0,0-2.17.49A3.72,3.72,0,0,0,63,88.2a5.83,5.83,0,0,0-.44,1.35c-.08.39-.12.69-.15.9a1.61,1.61,0,0,1,0,.31.28.28,0,0,1,0-.08c0-.05,0-.13,0-.24a7.32,7.32,0,0,1,.11-.9,5.6,5.6,0,0,1,.42-1.39,3.71,3.71,0,0,1,1.21-1.5,2.93,2.93,0,0,1,2.29-.55,4.89,4.89,0,0,1,2.24,1.52,5.42,5.42,0,0,0,1.12.89,2.54,2.54,0,0,0,1.39.39,1.6,1.6,0,0,0,1.23-.73c.29-.42.48-.92.75-1.4a2.9,2.9,0,0,1,1.16-1.17,3.5,3.5,0,0,1,1.57-.41,3.3,3.3,0,0,1,1.53.34,3.2,3.2,0,0,1,1.11,1c.56.77.9,1.61,1.46,2.22a3.82,3.82,0,0,0,2,1.11,3.63,3.63,0,0,0,1.9-.08,3.87,3.87,0,0,0,1.27-.68A5.26,5.26,0,0,0,85.9,88.18Z"/><path class="cls-5" d="M89.81,88.26a1.17,1.17,0,0,1,.09.4,3,3,0,0,1-.11,1.13A3.87,3.87,0,0,1,89,91.28a4.75,4.75,0,0,1-1.71,1.21,7.22,7.22,0,0,1-3.77.41,10.82,10.82,0,0,1-1.13-.22,2,2,0,0,1-.4-.13s.59.11,1.55.21a7.45,7.45,0,0,0,3.67-.46,4.69,4.69,0,0,0,1.65-1.15,3.92,3.92,0,0,0,.81-1.4A4.18,4.18,0,0,0,89.81,88.26Z"/><path class="cls-11" d="M76.38,111.75a9.27,9.27,0,0,0-1.62-.85,1.31,1.31,0,0,0-1.14.22,1.4,1.4,0,0,0-.41.91,1.72,1.72,0,0,0,.24,1.2,2.34,2.34,0,0,0,1.16.72,1.74,1.74,0,0,0,1.12.11,1.14,1.14,0,0,0,.7-.87,3.33,3.33,0,0,0-.05-1.44"/><path class="cls-4" d="M74.93,114a1.55,1.55,0,0,1-1-.25,1.94,1.94,0,0,1-.81-.84,1.51,1.51,0,0,1,.07-1.45,1.35,1.35,0,0,1,.61-.5,1.51,1.51,0,0,1,.72-.06,3.28,3.28,0,0,1,1.06.44c.53.34.89.46.88.5s-.42,0-1-.29a3.39,3.39,0,0,0-1-.35,1,1,0,0,0-1,.44,1.22,1.22,0,0,0-.07,1.14,1.8,1.8,0,0,0,.65.77C74.55,113.88,75,113.94,74.93,114Z"/><path class="cls-4" d="M66.24,99.23c-.09,0-.12-.55-.12-1.21s0-1.2.11-1.21.21.53.22,1.21S66.33,99.24,66.24,99.23Z"/><path class="cls-4" d="M65.51,99.53A3.64,3.64,0,0,1,65.33,98a3.69,3.69,0,0,1,.14-1.51,6.79,6.79,0,0,1,0,3Z"/><path class="cls-6" d="M29.68,219.14a3.19,3.19,0,0,0-1.38,1l-.94,1.21a3.19,3.19,0,0,0-.48,3h0A3.19,3.19,0,0,0,30,226.52l28-.64-2.81-11.23L53.9,211.4h0"/><path class="cls-7" d="M41.42,226.3c.09,0-.16-.84-.06-1.85s.49-1.76.41-1.8a2.62,2.62,0,0,0-.72,1.77A2.66,2.66,0,0,0,41.42,226.3Z"/><path class="cls-4" d="M43.71,225.68a12.11,12.11,0,0,1,.37-1.54,14.08,14.08,0,0,1,.81-1.35c0-.08-.74.34-1.1,1.24A1.94,1.94,0,0,0,43.71,225.68Z"/><path class="cls-7" d="M38.2,226.45c.09,0-.11-.91,0-2s.48-1.92.4-2a3.16,3.16,0,0,0-.71,1.93A3.21,3.21,0,0,0,38.2,226.45Z"/><path class="cls-7" d="M35.36,226.39a8.44,8.44,0,0,1-.17-2,7.55,7.55,0,0,1,.61-1.88s-.22.13-.43.45a3.28,3.28,0,0,0-.32,2.86C35.18,226.22,35.33,226.41,35.36,226.39Z"/><path class="cls-4" d="M53.9,213.67V214S54.31,213.56,53.9,213.67Z"/><path class="cls-4" d="M53.75,213.72l0,0Z"/><path class="cls-4" d="M53.71,213.74l-.17.07Z"/><path class="cls-4" d="M43.84,214.19l-13.69,4.46a6.84,6.84,0,0,0-2.06,1.11c-1.14,1-2.09,2.69-1.52,4.27.75,2.07,2,2.2,2,2.2s-1.52-1.88-1.08-3.31,2.09-2.76,4.11-3.53l22.15-5.67.15-.05V211.4Z"/><path class="cls-4" d="M53.54,213.81Z"/><path class="cls-7" d="M32.5,226.66a10.39,10.39,0,0,0,.58-3.63,10.66,10.66,0,0,0-1-3.53,2.45,2.45,0,0,1,.65.91,6.5,6.5,0,0,1,.72,2.59,6.59,6.59,0,0,1-.38,2.67A2.51,2.51,0,0,1,32.5,226.66Z"/><path class="cls-7" d="M53.75,217.82a3.67,3.67,0,0,1-2.32-1A3.57,3.57,0,0,1,50,214.74a12.36,12.36,0,0,0,1.63,1.84A13.78,13.78,0,0,0,53.75,217.82Z"/><path class="cls-4" d="M82.92,85.05a3,3,0,0,1,1.37-2.15l.24,1.26a3.76,3.76,0,0,1,3-1.66l-.92,1.63a4.5,4.5,0,0,1,2-.27A4.82,4.82,0,0,1,87,85.5a3,3,0,0,0-1.32,1.82"/><path class="cls-10" d="M121,128.17l-28,23.11c-.47-.4-9-17.21-9-17.21l24.51-14.58L87.34,100.64l5.44-4.13,26.66,14.88a10.2,10.2,0,0,1,5.21,8.31h0A10.19,10.19,0,0,1,121,128.17Z"/><path class="cls-10" d="M88.77,101.77l4.33-5h0l-5.63-5.23L86,87.87a2.31,2.31,0,0,0-2-2.73l-4.57-.3s-2.15-.11-2,1.25a.65.65,0,0,0,.44.51l-.44.77c0,1.24,1.55,1.38,1.55,1.38l3.81.35.76,2S79,89,78.29,89.81s7.7,5.1,7.7,5.1l.34,5.49.88.34Z"/><path class="cls-11" d="M86,88a3.41,3.41,0,0,0-.82-.87A3.19,3.19,0,0,0,84,86.66a8.35,8.35,0,0,0-1.61-.06,26.49,26.49,0,0,1-4.25-.07,27.18,27.18,0,0,1,4.24-.26,7.65,7.65,0,0,1,1.68.09,3,3,0,0,1,1.28.56A1.49,1.49,0,0,1,86,88Z"/><path class="cls-11" d="M87.28,93.37s-.18-.2-.47-.47A5.6,5.6,0,0,0,85.52,92a14.32,14.32,0,0,1-2-1,5.54,5.54,0,0,1,2.19.75,4,4,0,0,1,1.3,1C87.25,93.08,87.32,93.35,87.28,93.37Z"/><path class="cls-11" d="M90.32,103.31a4.83,4.83,0,0,1-.91-.69c-.55-.45-1.31-1.1-2.18-1.87l.17,0a1.11,1.11,0,0,1-1.28-.55,2.16,2.16,0,0,1-.25-1.11c0-.35,0-.68,0-1q0-.9.06-1.68a6.73,6.73,0,0,1,.14-1.55,7.65,7.65,0,0,1,.09,1.56c0,.51,0,1.08,0,1.68a4.33,4.33,0,0,0,.21,1.93.81.81,0,0,0,.88.43l.09,0,.08.07c.85.77,1.58,1.45,2.09,2A4.12,4.12,0,0,1,90.32,103.31Z"/><path class="cls-11" d="M113.26,124.23a23.94,23.94,0,0,1-2.52-2.3c-1.34-1.31-2.53-2.24-2.49-2.3a9.56,9.56,0,0,1,2.72,2.06A14.93,14.93,0,0,1,113.26,124.23Z"/><path class="cls-4" d="M79,88.91a3.6,3.6,0,0,1,1.28-1,1.58,1.58,0,0,1,1.52.18c.32.25.49.66.8.91a1.55,1.55,0,0,0,1.49.15,3.64,3.64,0,0,0,1.27-.9c.12-.11.28-.23.41-.15a.32.32,0,0,1,.13.26,1.93,1.93,0,0,1-.28,1.3.88.88,0,0,0,.65-.09,1.18,1.18,0,0,1-.75,1.43,3.13,3.13,0,0,1-1.77,0,10.29,10.29,0,0,1-3.84-1.49"/><path class="cls-6" d="M31.67,141.18a23.36,23.36,0,0,1,9.45-19.86,21.54,21.54,0,0,1-9.23,20.13"/><g class="cls-12"><path d="M31.67,141.18a23.36,23.36,0,0,1,9.45-19.86,21.54,21.54,0,0,1-9.23,20.13"/></g><path class="cls-10" d="M54,133.38,38.1,119.27,57.32,99.92l-7.49-5.47s-22.66,17.11-27.22,21.92c-2.12,2.24-2.9,8.09-.3,10.75,6.74,6.86,20.3,19.2,20.3,19.2Z"/><path class="cls-10" d="M74.3,90.87,67.66,89.8l3.84-1.94,1.86-.06a2.62,2.62,0,0,0-2.43-2.08c-2.08-.13-2.42.28-2.42.28s-1-2.17-1.56-2.31a8.27,8.27,0,0,0-2.45-.39,5,5,0,0,0-1.76,1.1s-2.45-1.32-3.05-.49a17.6,17.6,0,0,0-1.36,3.36l-3.4,3.3-.57.35-10,7.8,7.14,7.18L60.15,97l1.4.42a2.38,2.38,0,0,0,2.05-.62,9.3,9.3,0,0,0,1.45-1.51c.33-.41,1-1.51,1.09-1.63a4.36,4.36,0,0,1,1.12-.78s7-.09,7.54-.42S76,91.15,74.3,90.87Z"/><path class="cls-11" d="M65.18,87.48a6.06,6.06,0,0,1,1.8-1,4.35,4.35,0,0,1,2-.58,13.27,13.27,0,0,1-1.87.88A7.09,7.09,0,0,1,65.18,87.48Z"/><path class="cls-11" d="M66.7,85.45c.09,0,.06.39-.06.82s-.3.76-.38.73-.06-.39.06-.82S66.62,85.42,66.7,85.45Z"/><path class="cls-11" d="M60.66,86.92a5.31,5.31,0,0,1,1.05-1.48c.65-.76,1.23-1.33,1.3-1.27a5.07,5.07,0,0,1-1,1.48C61.31,86.41,60.73,87,60.66,86.92Z"/><path class="cls-11" d="M75.4,91.41s0,.06,0,.17a1.57,1.57,0,0,1-.1.48.9.9,0,0,1-.58.56,4.8,4.8,0,0,1-1,.18c-.75.06-1.65.11-2.64.12s-2.08,0-3.2.12a2.83,2.83,0,0,0-1.48.48,3.88,3.88,0,0,0-.92,1.17,6.45,6.45,0,0,1-1.68,2.06,3.49,3.49,0,0,1-1.66.7,1.36,1.36,0,0,1-.66,0s.24,0,.64-.1a3.72,3.72,0,0,0,1.53-.76,6.8,6.8,0,0,0,1.57-2,4.14,4.14,0,0,1,1-1.27,3.13,3.13,0,0,1,1.64-.56c1.16-.1,2.25-.09,3.24-.09s1.87,0,2.62-.05a4.48,4.48,0,0,0,1-.13.79.79,0,0,0,.52-.43C75.35,91.64,75.36,91.4,75.4,91.41Z"/><path class="cls-11" d="M39,118a5.53,5.53,0,0,1-.86,1c-.57.62-1.36,1.46-2.26,2.37s-1.71,1.72-2.32,2.29a5.93,5.93,0,0,1-1,.89,5.36,5.36,0,0,1,.87-1.05c.56-.62,1.36-1.46,2.25-2.36s1.71-1.72,2.32-2.3A5.54,5.54,0,0,1,39,118Z"/><path class="cls-4" d="M66.64,86.67A4.46,4.46,0,0,1,65,84.08l.88.61A4.57,4.57,0,0,1,66,80.85l1.52,2.5a1.82,1.82,0,0,1,1-1.35,8.36,8.36,0,0,0,.69,3.86"/><path class="cls-4" d="M62.17,85.09a7,7,0,0,1-1.58-2.27c.14-.06.29,0,.42.13s.32.15.42,0,0-.26,0-.38a2.33,2.33,0,0,1,.16-2l1.75,3.26L62.13,85"/><path class="cls-4" d="M149.2,229.61c-1.36-4.4-3-8.81-9.64-12.69l-6.32-3.19.53.21-28-14.3-.36,0-8.49-4.29-25,1-1.71,5.6L53.87,203l-.38,12.82,0,5.36c-2.82-2.85-9.29.31-9.29,5l16.39,23.53c8.21,13.35,27.09,8.78,27.09,8.78l.24-.13a14.58,14.58,0,0,0,6.94-16.56l-.8-2.94c.11.24.16.37.16.37L94,236.42l.11.06,26.08,6.85c10.34,1.69,17.19,3.74,24.22-.59a11.18,11.18,0,0,0,4.76-13.13Z"/><path class="cls-5" d="M141.21,239.21a2,2,0,0,0,.67-.11,6.54,6.54,0,0,0,1.71-.68,7.82,7.82,0,0,0,3.22-10.56,6.75,6.75,0,0,0-1-1.52,2.38,2.38,0,0,0-.49-.46,12.55,12.55,0,0,1,1.33,2.07,7.84,7.84,0,0,1-3.13,10.28A13.36,13.36,0,0,1,141.21,239.21Z"/><path class="cls-5" d="M66.92,252a57.17,57.17,0,0,0-1.37-6c-.84-3.28-1.59-5.91-1.67-5.89s.53,2.69,1.37,6S66.84,252.05,66.92,252Z"/><path class="cls-5" d="M65,244.63a4.18,4.18,0,0,0,.32,1.3,13.39,13.39,0,0,0,1.47,2.9,12.89,12.89,0,0,0,2.16,2.43A4.36,4.36,0,0,0,70,252a25,25,0,0,1-3-3.39A26.57,26.57,0,0,1,65,244.63Z"/><path class="cls-5" d="M78,255.88a1.71,1.71,0,0,0,.52.13,7.53,7.53,0,0,0,1.45.06,8.77,8.77,0,0,0,7.58-5.14,6.91,6.91,0,0,0,.47-1.36,1.5,1.5,0,0,0,.08-.53s-.21.73-.75,1.8a9.16,9.16,0,0,1-7.4,5C78.74,256,78,255.83,78,255.88Z"/><path class="cls-5" d="M63.58,212.74a8.2,8.2,0,0,0,.85-.43,21.31,21.31,0,0,1,2.35-1.06,18.93,18.93,0,0,1,16.38,1.38,20.25,20.25,0,0,1,2.14,1.44,6.48,6.48,0,0,0,.76.56.87.87,0,0,0-.16-.18c-.12-.11-.29-.28-.52-.48a17.08,17.08,0,0,0-2.11-1.53A18.39,18.39,0,0,0,66.7,211a16.62,16.62,0,0,0-2.33,1.16,6.31,6.31,0,0,0-.59.38A1,1,0,0,0,63.58,212.74Z"/><path class="cls-5" d="M94.74,204.11a5.08,5.08,0,0,0-1,1.25,12.84,12.84,0,0,0-1.53,3.46,13.41,13.41,0,0,0-.5,3.76,4.81,4.81,0,0,0,.18,1.55,17,17,0,0,1,2.81-10Z"/><path class="cls-5" d="M63.81,241a4.55,4.55,0,0,1-.5-.72c-.32-.47-.74-1.17-1.26-2-1-1.74-2.36-4.19-3.75-7s-2.59-5.27-3.45-7.09l-1-2.17a3.94,3.94,0,0,1-.33-.82,5,5,0,0,1,.44.76c.27.5.64,1.23,1.1,2.13l3.54,7.05c1.38,2.74,2.68,5.21,3.66,7l1.15,2.09A4.33,4.33,0,0,1,63.81,241Z"/><path class="cls-5" d="M126.48,239.7a1.29,1.29,0,0,1-.35-.07l-1-.25-3.53-1L110,235.1l-11.62-3.32-3.53-1-1-.26a1.4,1.4,0,0,1-.33-.11,1.33,1.33,0,0,1,.35,0c.22.05.55.1,1,.2.85.2,2.06.5,3.56.89,3,.78,7.11,1.92,11.65,3.22s8.64,2.51,11.6,3.4l3.51,1.08.94.31Z"/><path class="cls-5" d="M89,203.36a12.25,12.25,0,0,1,.2,1.84c.09,1.13.2,2.7.3,4.43s.15,3.31.14,4.45a11.5,11.5,0,0,1-.07,1.36c0,.32-.13.49-.15.48s0-.18,0-.49,0-.78,0-1.34c-.07-1.24-.15-2.76-.24-4.44s-.17-3.3-.2-4.44A9.15,9.15,0,0,1,89,203.36Z"/><path class="cls-5" d="M85.39,204.9s.07-.1.28-.17a1.28,1.28,0,0,1,1.62,1.21,1.38,1.38,0,0,1-.22.79,1.2,1.2,0,0,1-.72.54,1.33,1.33,0,0,1-1.58-1.9,1.42,1.42,0,0,1,.66-.6c.18-.09.29-.13.3-.11s-.07.09-.23.22a1.62,1.62,0,0,0-.52.59,1.17,1.17,0,0,0,.09,1.08,1.07,1.07,0,0,0,1.19.4,1,1,0,0,0,.73-1,1,1,0,0,0-.53-.92A1.61,1.61,0,0,0,85.39,204.9Z"/><path class="cls-5" d="M87.51,217.33a6,6,0,0,1,.41.87c.25.57.59,1.41,1,2.46.77,2.09,1.72,5,2.67,8.29s1.71,6.24,2.26,8.4c.25,1,.46,1.9.63,2.56a6.41,6.41,0,0,1,.19,1,4.17,4.17,0,0,1-.32-.91c-.19-.66-.43-1.51-.73-2.54L91.24,229c-.94-3.26-1.85-6.2-2.57-8.3-.35-1.06-.66-1.91-.87-2.49A5.29,5.29,0,0,1,87.51,217.33Z"/><path class="cls-5" d="M126.62,239.89a1.49,1.49,0,0,0,.12-.39,1.38,1.38,0,0,0-.37-1.06,3,3,0,0,0-1.67-.75l-2.47-.52a115.23,115.23,0,0,1-14-4.12,113.18,113.18,0,0,1-13.38-5.88c-.83-.42-1.58-.82-2.22-1.19s-1.21-.67-1.66-.94l-1-.61a1.81,1.81,0,0,1-.34-.24,2.24,2.24,0,0,1,.38.18l1.06.56,1.68.89c.66.35,1.41.73,2.25,1.15a126.1,126.1,0,0,0,13.38,5.77,128,128,0,0,0,14,4.2l2.45.57a3.07,3.07,0,0,1,1.72.84,1.44,1.44,0,0,1,.35,1.16A.66.66,0,0,1,126.62,239.89Z"/><path class="cls-4" d="M61.72,168s.05.08.18.21l.57.57a11,11,0,0,0,1,.86c.38.32.8.7,1.31,1.06s1.06.79,1.69,1.18,1.3.79,2,1.2a33.15,33.15,0,0,0,5,2.09,31.21,31.21,0,0,0,5.28,1.14c.83.09,1.61.18,2.35.19s1.43,0,2,0,1.2-.08,1.69-.12a11.19,11.19,0,0,0,1.27-.16l.79-.14c.19,0,.28-.05.28-.07a1.59,1.59,0,0,0-.29,0l-.8.08c-.34,0-.77.09-1.26.11s-1.06.08-1.68.06-1.31,0-2,0-1.51-.12-2.32-.21a33.68,33.68,0,0,1-5.22-1.16,33.2,33.2,0,0,1-4.94-2.05c-.72-.4-1.41-.76-2-1.16s-1.19-.77-1.7-1.14-.94-.71-1.33-1a12.34,12.34,0,0,1-1-.82l-.61-.52A1.1,1.1,0,0,0,61.72,168Z"/><path class="cls-6" d="M95,174.29l-.45-6,.48-16.6,15-11.83c-.69-5.34-9.1-16.21-9.1-16.21l-12.83,5.07H86l-1.87,1.84-4.34-.6c-1.68,8.42-12.32,7.27-18.06.42l-6.26.55-2.29-2.07-3.22.88-8.8-8.45c-.19,8.91-3.5,15.27-9.47,19.86l12.67,13.64L47.49,158c1.16,16.66,2.25,32.67,5.46,48.68l3.31-.73c16.89-.34,42.6-5.5,49.52-6.27l1.42-1.4L104.67,196Z"/><path class="cls-4" d="M54.55,134.46a5.92,5.92,0,0,1,.23.93c.12.61.28,1.5.43,2.6a50.61,50.61,0,0,1,.45,8.66,25.54,25.54,0,0,1-.61,4.76,6.31,6.31,0,0,1-1.87,3.43,3.65,3.65,0,0,1-2.47.92,2.43,2.43,0,0,1-.71-.13.7.7,0,0,1-.23-.11,4.66,4.66,0,0,0,.94.11,3.66,3.66,0,0,0,2.32-1,6.16,6.16,0,0,0,1.72-3.33,26.72,26.72,0,0,0,.58-4.7A59,59,0,0,0,55,138c-.12-1.1-.25-2-.33-2.6A4.3,4.3,0,0,1,54.55,134.46Z"/><path class="cls-4" d="M61.08,143.9a18.25,18.25,0,0,1-.19-2,36.88,36.88,0,0,0-.77-4.66,35.34,35.34,0,0,0-1.42-4.5A18.25,18.25,0,0,1,58,131a1.81,1.81,0,0,1,.29.44c.16.3.38.74.63,1.3a26.08,26.08,0,0,1,2.21,9.23c0,.61,0,1.11,0,1.45S61.11,143.9,61.08,143.9Z"/><path class="cls-4" d="M96.92,195.14a1,1,0,0,1-.31.18l-.93.46c-.4.2-.9.43-1.48.67s-1.25.55-2,.82c-1.49.58-3.31,1.19-5.35,1.76a62.75,62.75,0,0,1-6.75,1.43,65.94,65.94,0,0,1-6.88.62c-2.12,0-4,0-5.63-.11-.8,0-1.52-.12-2.16-.19s-1.17-.13-1.62-.2l-1-.16-.35-.08a1.42,1.42,0,0,1,.36,0l1,.1c.44.05,1,.11,1.62.15s1.35.12,2.15.14c1.6.09,3.5.11,5.61,0a62.9,62.9,0,0,0,13.56-2c2-.56,3.85-1.13,5.35-1.69.76-.26,1.42-.54,2-.77s1.09-.44,1.5-.62l1-.4A1.55,1.55,0,0,1,96.92,195.14Z"/><g class="cls-12"><path d="M58.78,131.46a42.1,42.1,0,0,1,3.26,14,5.56,5.56,0,0,1-.47,2.83c-.1.18-.25.37-.45.37-.36,0-.46-.48-.45-.84a58.53,58.53,0,0,0-1.89-16.39"/></g><g class="cls-12"><path d="M63.89,169.28a37.74,37.74,0,0,0,18.53,5,3.47,3.47,0,0,1,2.07.43c.58.42.73,1.45.11,1.8a1.49,1.49,0,0,1-.62.15,26.27,26.27,0,0,1-20.54-7.21"/></g><path class="cls-4" d="M93.85,169.78c-.09,0,.33-6.59.94-14.71s1.18-14.69,1.27-14.69-.33,6.59-.94,14.71S94,169.79,93.85,169.78Z"/><path class="cls-8" d="M46.85,126.67a4.85,4.85,0,0,1,.18.92,16.93,16.93,0,0,1,.13,2.54,18.28,18.28,0,0,1-7.57,14.41,17.58,17.58,0,0,1-2.16,1.33,5.44,5.44,0,0,1-.86.38,5,5,0,0,1,.79-.49,20.23,20.23,0,0,0,2.09-1.41,18.83,18.83,0,0,0,7.47-14.23,20.06,20.06,0,0,0,0-2.52A5.83,5.83,0,0,1,46.85,126.67Z"/><path class="cls-8" d="M51.46,129.34a1.19,1.19,0,0,1,.17.24,5.76,5.76,0,0,1,.41.73,10.92,10.92,0,0,1,.91,2.94,31.21,31.21,0,0,1-.47,10.1,22.22,22.22,0,0,1-1.72,5.33,14.82,14.82,0,0,1-2.59,3.76,11.11,11.11,0,0,1-2.39,1.94c-.31.18-.56.32-.74.4a.75.75,0,0,1-.27.1s.35-.21.94-.61a12,12,0,0,0,2.29-2,15,15,0,0,0,2.49-3.74,22.3,22.3,0,0,0,1.66-5.25,32.85,32.85,0,0,0,.57-10A13.37,13.37,0,0,0,51.46,129.34Z"/><path class="cls-8" d="M60.09,137a10.33,10.33,0,0,0-2.49,0,10.53,10.53,0,0,0-2.31.94s.16-.26.54-.54a4.8,4.8,0,0,1,1.71-.72,4.7,4.7,0,0,1,1.84,0C59.85,136.84,60.11,137,60.09,137Z"/><path class="cls-8" d="M60.3,134.4s.29.37.81,1a28.91,28.91,0,0,0,2.36,2.72,16.81,16.81,0,0,0,4.22,3.19,11.13,11.13,0,0,0,6.25,1.24,11,11,0,0,0,5.88-2.44,10.82,10.82,0,0,0,3.08-4.24,11.45,11.45,0,0,0,.83-3.47c0-.84,0-1.32,0-1.32a1.38,1.38,0,0,1,0,.34,9.39,9.39,0,0,1,0,1A10.94,10.94,0,0,1,80,140.38a11.12,11.12,0,0,1-12.46,1.24,16.54,16.54,0,0,1-4.25-3.3,23.57,23.57,0,0,1-2.29-2.8c-.25-.35-.42-.63-.54-.82A1.54,1.54,0,0,1,60.3,134.4Z"/><path class="cls-8" d="M61.92,149.22a12,12,0,0,0-3.38-.14,11.87,11.87,0,0,0-3.2,1.1,2.47,2.47,0,0,1,.81-.63,6.74,6.74,0,0,1,4.82-.7A2.27,2.27,0,0,1,61.92,149.22Z"/><path class="cls-8" d="M94.41,143.6s-.48-.06-1.33,0a9.46,9.46,0,0,0-3.43,1,34.53,34.53,0,0,0-4.5,2.91,19,19,0,0,1-2.76,1.64,16.63,16.63,0,0,1-3.25,1.14,22.32,22.32,0,0,1-6.61.47,37.8,37.8,0,0,1-5.35-.79c-1.5-.32-2.71-.63-3.54-.85l-1-.26c-.22-.07-.33-.1-.33-.12a1.76,1.76,0,0,1,.35.05l1,.21c.84.18,2,.45,3.56.74a41.92,41.92,0,0,0,5.32.72,23,23,0,0,0,6.51-.49,16,16,0,0,0,3.19-1.11,18.89,18.89,0,0,0,2.72-1.6,33.38,33.38,0,0,1,4.58-2.87,8.75,8.75,0,0,1,3.52-.93,5.59,5.59,0,0,1,1,0A1.49,1.49,0,0,1,94.41,143.6Z"/><path class="cls-8" d="M96.88,139.38s-.1-.74-.35-1.89a14.69,14.69,0,0,0-4.63-7.8c-.9-.77-1.52-1.16-1.49-1.21s.17.06.47.23a8.46,8.46,0,0,1,1.16.81,13.22,13.22,0,0,1,3.08,3.53,13,13,0,0,1,1.63,4.39,9.4,9.4,0,0,1,.16,1.41C96.91,139.19,96.91,139.37,96.88,139.38Z"/><path class="cls-8" d="M103.81,144.8a4.38,4.38,0,0,1,0-.82c0-.53,0-1.3,0-2.24a28.08,28.08,0,0,0-1.29-7.24,25.68,25.68,0,0,0-1.59-3.72A26.48,26.48,0,0,0,99.13,128c-1.1-1.54-1.9-2.4-1.85-2.44a3.26,3.26,0,0,1,.59.58,20,20,0,0,1,1.45,1.73,22.59,22.59,0,0,1,1.81,2.81,24.29,24.29,0,0,1,1.63,3.77,25.25,25.25,0,0,1,1.21,7.33c0,1,0,1.72-.06,2.25A3.14,3.14,0,0,1,103.81,144.8Z"/><path class="cls-8" d="M93.65,159.29a2.45,2.45,0,0,1-.42.22A10,10,0,0,1,92,160a18.79,18.79,0,0,1-4.89.88,68.47,68.47,0,0,1-7.36-.19c-1.38-.07-2.83-.13-4.32-.06a27.53,27.53,0,0,0-4.59.64A83.74,83.74,0,0,1,62,163.15a32.12,32.12,0,0,1-7.37-.14c-2.08-.26-3.75-.58-4.9-.8l-1.32-.27a2.46,2.46,0,0,1-.45-.12l.46.05,1.34.21c1.15.19,2.82.47,4.9.7a33.16,33.16,0,0,0,7.31.07A89.79,89.79,0,0,0,70.75,161a27.18,27.18,0,0,1,4.64-.63c1.51-.06,3,0,4.36.08a72.57,72.57,0,0,0,7.33.26,19.92,19.92,0,0,0,4.86-.77c.56-.18,1-.33,1.27-.45A2.78,2.78,0,0,1,93.65,159.29Z"/><path class="cls-8" d="M75.4,173.78a5.2,5.2,0,0,1-1.07,0c-.69,0-1.68,0-2.91,0a70.09,70.09,0,0,0-9.56.73,71.45,71.45,0,0,0-9.37,2.05c-1.18.34-2.13.64-2.78.86a7.11,7.11,0,0,1-1,.3,7.84,7.84,0,0,1,1-.42c.64-.26,1.58-.59,2.76-1a61.08,61.08,0,0,1,19-2.8c1.23,0,2.23.07,2.92.13A7.25,7.25,0,0,1,75.4,173.78Z"/><path class="cls-8" d="M93.69,172.17a5.53,5.53,0,0,1-1.32.69,26.79,26.79,0,0,1-3.4,1.2,25.94,25.94,0,0,1-3.53.73,5.41,5.41,0,0,1-1.49.1,7.86,7.86,0,0,1,1.45-.32c.9-.18,2.14-.45,3.48-.83s2.54-.78,3.4-1.1A7.67,7.67,0,0,1,93.69,172.17Z"/><path class="cls-8" d="M99.46,183.41a2.53,2.53,0,0,1-.45.24c-.29.14-.74.34-1.31.58a47.79,47.79,0,0,1-5,1.74A95.83,95.83,0,0,1,75.51,189a105.93,105.93,0,0,1-17.46.14c-2.23-.17-4-.38-5.27-.54l-1.42-.21-.49-.09a3.13,3.13,0,0,1,.5,0l1.43.14c1.24.13,3,.3,5.27.44a112.84,112.84,0,0,0,17.41-.24,102.94,102.94,0,0,0,17.15-2.95c2.15-.6,3.85-1.2,5-1.64l1.34-.52A2.42,2.42,0,0,1,99.46,183.41Z"/><path class="cls-8" d="M60.45,200.09a31.71,31.71,0,0,0-4.49,0,32.67,32.67,0,0,0-4.4.93,4.68,4.68,0,0,1,1.21-.56,13.82,13.82,0,0,1,6.38-.65A4.11,4.11,0,0,1,60.45,200.09Z"/><path class="cls-8" d="M101.57,194.21c0,.1-1.14.1-2.51.34s-2.43.63-2.47.54a5.46,5.46,0,0,1,2.42-.86A5.58,5.58,0,0,1,101.57,194.21Z"/></svg>