<svg id="Layer_1" data-name="Layer 1" xmlns="http://www.w3.org/2000/svg" viewBox="0 0 81.65 77.98"><defs><style>.cls-1{fill:#441115;}</style></defs><title>ايقونات وصور الاستضافة</title><path class="cls-1" d="M81.65,47.83V76.69A1.29,1.29,0,0,1,80.36,78H65.46a1.29,1.29,0,0,1-1.29-1.29V49.85c0-7.06-2.53-11.89-8.86-11.89a9.54,9.54,0,0,0-9,6.4,11.94,11.94,0,0,0-.58,4.26V76.69A1.29,1.29,0,0,1,44.48,78H29.58a1.29,1.29,0,0,1-1.29-1.29c0-7.15.19-41.83,0-50a1.29,1.29,0,0,1,1.29-1.31H44.48a1.29,1.29,0,0,1,1.29,1.29v6.16l-.12.18h.12v-.18c2.32-3.57,6.47-8.68,15.76-8.68,11.5,0,20.12,7.51,20.12,23.66ZM2.43,78h14.9a1.29,1.29,0,0,0,1.29-1.29v-50a1.29,1.29,0,0,0-1.29-1.29H2.43a1.29,1.29,0,0,0-1.29,1.29v50A1.29,1.29,0,0,0,2.43,78Z"/><path class="cls-1" d="M18.72,9.36A9.36,9.36,0,1,1,9.36,0,9.36,9.36,0,0,1,18.72,9.36Z"/></svg>