<svg id="Layer_1" data-name="Layer 1" xmlns="http://www.w3.org/2000/svg" viewBox="0 0 431.91 264.7"><defs><style>.cls-1{fill:#f5f5f5;}.cls-2{fill:#fafafa;}.cls-3{fill:#e1e1e1;}.cls-4{fill:#ececec;}.cls-5{fill:#ff4f5b;}.cls-6{fill:#1a2e35;}.cls-7{opacity:0.3;}.cls-11,.cls-8{fill:#fff;}.cls-9{fill:#375a64;}.cls-10,.cls-11{opacity:0.5;}.cls-12{fill:#ffbf9d;}.cls-13{fill:#ff9a6c;}.cls-14{opacity:0.2;}</style></defs><title>ايقونات وصور الاستضافة</title><rect class="cls-1" x="264.02" y="56.63" width="65.76" height="201.46"/><rect class="cls-2" x="329.58" y="56.63" width="51.98" height="201.46"/><rect class="cls-3" x="267.55" y="88.87" width="55.79" height="15.71"/><rect class="cls-1" x="269.1" y="90.85" width="3.12" height="12.02"/><path class="cls-2" d="M275.91,93.38a1,1,0,0,1-2,0,1,1,0,1,1,2,0Z"/><path class="cls-2" d="M275.91,97.62a1,1,0,1,1-1-1A1,1,0,0,1,275.91,97.62Z"/><rect class="cls-1" x="279.88" y="92.38" width="3.07" height="9.23"/><rect class="cls-1" x="284.31" y="92.38" width="3.07" height="9.23"/><rect class="cls-1" x="288.75" y="92.38" width="3.07" height="9.23"/><rect class="cls-1" x="293.18" y="92.38" width="3.07" height="9.23"/><rect class="cls-1" x="297.61" y="92.38" width="3.07" height="9.23"/><rect class="cls-1" x="302.05" y="92.38" width="3.07" height="9.23"/><rect class="cls-1" x="306.48" y="92.38" width="3.07" height="9.23"/><rect class="cls-1" x="310.92" y="92.38" width="3.07" height="9.23"/><rect class="cls-1" x="315.35" y="92.38" width="3.07" height="9.23"/><rect class="cls-1" x="319.78" y="92.38" width="3.07" height="9.23"/><rect class="cls-3" x="267.55" y="114.03" width="55.79" height="15.71"/><rect class="cls-1" x="269.1" y="116.01" width="3.12" height="12.02"/><path class="cls-2" d="M275.91,118.53a1,1,0,1,1-1-1A1,1,0,0,1,275.91,118.53Z"/><circle class="cls-2" cx="274.92" cy="122.78" r="0.99"/><rect class="cls-1" x="279.88" y="117.54" width="3.07" height="9.23"/><rect class="cls-1" x="284.31" y="117.54" width="3.07" height="9.23"/><rect class="cls-1" x="288.75" y="117.54" width="3.07" height="9.23"/><rect class="cls-1" x="293.18" y="117.54" width="3.07" height="9.23"/><rect class="cls-1" x="297.61" y="117.54" width="3.07" height="9.23"/><rect class="cls-1" x="302.05" y="117.54" width="3.07" height="9.23"/><rect class="cls-1" x="306.48" y="117.54" width="3.07" height="9.23"/><rect class="cls-1" x="310.92" y="117.54" width="3.07" height="9.23"/><rect class="cls-1" x="315.35" y="117.54" width="3.07" height="9.23"/><rect class="cls-1" x="319.78" y="117.54" width="3.07" height="9.23"/><rect class="cls-3" x="267.55" y="139.19" width="55.79" height="15.71"/><rect class="cls-1" x="269.1" y="141.16" width="3.12" height="12.02"/><path class="cls-2" d="M275.91,143.69a1,1,0,1,1-1-1A1,1,0,0,1,275.91,143.69Z"/><circle class="cls-2" cx="274.92" cy="147.94" r="0.99"/><rect class="cls-1" x="279.88" y="142.7" width="3.07" height="9.23"/><rect class="cls-1" x="284.31" y="142.7" width="3.07" height="9.23"/><rect class="cls-1" x="288.75" y="142.7" width="3.07" height="9.23"/><rect class="cls-1" x="293.18" y="142.7" width="3.07" height="9.23"/><rect class="cls-1" x="297.61" y="142.7" width="3.07" height="9.23"/><rect class="cls-1" x="302.05" y="142.7" width="3.07" height="9.23"/><rect class="cls-1" x="306.48" y="142.7" width="3.07" height="9.23"/><rect class="cls-1" x="310.92" y="142.7" width="3.07" height="9.23"/><rect class="cls-1" x="315.35" y="142.7" width="3.07" height="9.23"/><rect class="cls-1" x="319.78" y="142.7" width="3.07" height="9.23"/><rect class="cls-3" x="267.55" y="164.34" width="55.79" height="15.71"/><rect class="cls-1" x="269.1" y="166.32" width="3.12" height="12.02"/><path class="cls-2" d="M275.91,168.85a1,1,0,1,1-1-1A1,1,0,0,1,275.91,168.85Z"/><path class="cls-2" d="M275.91,173.09a1,1,0,1,1-1-1A1,1,0,0,1,275.91,173.09Z"/><rect class="cls-1" x="279.88" y="167.85" width="3.07" height="9.23"/><rect class="cls-1" x="284.31" y="167.85" width="3.07" height="9.23"/><rect class="cls-1" x="288.75" y="167.85" width="3.07" height="9.23"/><rect class="cls-1" x="293.18" y="167.85" width="3.07" height="9.23"/><rect class="cls-1" x="297.61" y="167.85" width="3.07" height="9.23"/><rect class="cls-1" x="302.05" y="167.85" width="3.07" height="9.23"/><rect class="cls-1" x="306.48" y="167.85" width="3.07" height="9.23"/><rect class="cls-1" x="310.92" y="167.85" width="3.07" height="9.23"/><rect class="cls-1" x="315.35" y="167.85" width="3.07" height="9.23"/><rect class="cls-1" x="319.78" y="167.85" width="3.07" height="9.23"/><rect class="cls-3" x="267.55" y="189.5" width="55.79" height="15.71"/><rect class="cls-1" x="269.1" y="191.47" width="3.12" height="12.02"/><path class="cls-2" d="M275.91,194a1,1,0,1,1-1-1A1,1,0,0,1,275.91,194Z"/><circle class="cls-2" cx="274.92" cy="198.25" r="0.99"/><rect class="cls-1" x="279.88" y="193.01" width="3.07" height="9.23"/><rect class="cls-1" x="284.31" y="193.01" width="3.07" height="9.23"/><rect class="cls-1" x="288.75" y="193.01" width="3.07" height="9.23"/><rect class="cls-1" x="293.18" y="193.01" width="3.07" height="9.23"/><rect class="cls-1" x="297.61" y="193.01" width="3.07" height="9.23"/><rect class="cls-1" x="302.05" y="193.01" width="3.07" height="9.23"/><rect class="cls-1" x="306.48" y="193.01" width="3.07" height="9.23"/><rect class="cls-1" x="310.92" y="193.01" width="3.07" height="9.23"/><rect class="cls-1" x="315.35" y="193.01" width="3.07" height="9.23"/><rect class="cls-1" x="319.78" y="193.01" width="3.07" height="9.23"/><rect class="cls-3" x="267.55" y="214.66" width="55.79" height="15.71"/><rect class="cls-1" x="269.1" y="216.63" width="3.12" height="12.02"/><path class="cls-2" d="M275.91,219.16a1,1,0,1,1-1-1A1,1,0,0,1,275.91,219.16Z"/><path class="cls-2" d="M275.91,223.41a1,1,0,1,1-1-1A1,1,0,0,1,275.91,223.41Z"/><rect class="cls-1" x="279.88" y="218.17" width="3.07" height="9.23"/><rect class="cls-1" x="284.31" y="218.17" width="3.07" height="9.23"/><rect class="cls-1" x="288.75" y="218.17" width="3.07" height="9.23"/><rect class="cls-1" x="293.18" y="218.17" width="3.07" height="9.23"/><rect class="cls-1" x="297.61" y="218.17" width="3.07" height="9.23"/><rect class="cls-1" x="302.05" y="218.17" width="3.07" height="9.23"/><rect class="cls-1" x="306.48" y="218.17" width="3.07" height="9.23"/><rect class="cls-1" x="310.92" y="218.17" width="3.07" height="9.23"/><rect class="cls-1" x="315.35" y="218.17" width="3.07" height="9.23"/><rect class="cls-1" x="319.78" y="218.17" width="3.07" height="9.23"/><rect class="cls-3" x="267.55" y="239.81" width="55.79" height="15.71"/><rect class="cls-1" x="269.1" y="241.79" width="3.12" height="12.02"/><path class="cls-2" d="M275.91,244.32a1,1,0,1,1-1-1A1,1,0,0,1,275.91,244.32Z"/><circle class="cls-2" cx="274.92" cy="248.56" r="0.99"/><rect class="cls-1" x="279.88" y="243.32" width="3.07" height="9.23"/><rect class="cls-1" x="284.31" y="243.32" width="3.07" height="9.23"/><rect class="cls-1" x="288.75" y="243.32" width="3.07" height="9.23"/><rect class="cls-1" x="293.18" y="243.32" width="3.07" height="9.23"/><rect class="cls-1" x="297.61" y="243.32" width="3.07" height="9.23"/><rect class="cls-1" x="302.05" y="243.32" width="3.07" height="9.23"/><rect class="cls-1" x="306.48" y="243.32" width="3.07" height="9.23"/><rect class="cls-1" x="310.92" y="243.32" width="3.07" height="9.23"/><rect class="cls-1" x="315.35" y="243.32" width="3.07" height="9.23"/><rect class="cls-1" x="319.78" y="243.32" width="3.07" height="9.23"/><path class="cls-3" d="M302.05,88.87a1.43,1.43,0,0,1-.06-.48c0-.32-.05-.79-.06-1.4s0-1.34-.07-2.2a14.34,14.34,0,0,0-.39-2.86A10,10,0,0,0,300,78.8a7,7,0,0,0-3.05-2.46,14.87,14.87,0,0,0-4.33-.87l-4.8-.42c-6.59-.57-12.56-.94-16.89-1-2.16,0-3.91,0-5.12,0h-1.4a1.52,1.52,0,0,1-.48,0,2.53,2.53,0,0,1,.48,0l1.39-.09c1.22,0,3-.11,5.14-.1,4.34,0,10.32.34,16.91.91l4.81.42a15.19,15.19,0,0,1,4.43.93,7.24,7.24,0,0,1,3.18,2.6,10.49,10.49,0,0,1,1.5,3.25,13.54,13.54,0,0,1,.33,2.93c0,.87,0,1.61,0,2.21s0,1,0,1.4A2.49,2.49,0,0,1,302.05,88.87Z"/><path class="cls-3" d="M285.12,88.87a2.56,2.56,0,0,1,0-.45c0-.35,0-.78,0-1.32s0-1.26-.07-2.06a6.31,6.31,0,0,0-.69-2.58,4.85,4.85,0,0,0-2.51-1.93,6.81,6.81,0,0,0-3.67-.37,6,6,0,0,0-1.89.64,3.6,3.6,0,0,0-1.46,1.38,2,2,0,0,0,0,1.95,2.66,2.66,0,0,0,1.66,1.25,2.11,2.11,0,0,0,1.94-.56,2.87,2.87,0,0,0,.87-1.85,2.8,2.8,0,0,0-.58-1.89,4.24,4.24,0,0,0-1.47-1.3,5.43,5.43,0,0,0-1.83-.47c-.63-.1-1.25-.18-1.84-.25-1.19-.13-2.3-.21-3.31-.25-2-.08-3.68,0-4.82,0h-1.31a2.77,2.77,0,0,1-.46,0,2.43,2.43,0,0,1,.46,0l1.31-.07c1.14,0,2.79-.12,4.83-.08,1,0,2.14.09,3.34.21.59.06,1.21.14,1.85.23l1,.15a3.46,3.46,0,0,1,1,.34A4.55,4.55,0,0,1,279,80.86a3.18,3.18,0,0,1-.34,4.25,2.48,2.48,0,0,1-2.3.66,3,3,0,0,1-1.92-1.44,2.39,2.39,0,0,1,0-2.33,4,4,0,0,1,1.63-1.54,6.27,6.27,0,0,1,2-.67,7.15,7.15,0,0,1,3.85.43,5.15,5.15,0,0,1,2.64,2.1,6.36,6.36,0,0,1,.66,2.7,20.65,20.65,0,0,1,0,2.09c0,.53,0,1-.05,1.31A1.57,1.57,0,0,1,285.12,88.87Z"/><path class="cls-3" d="M306.6,88.87a3.13,3.13,0,0,1-.12-.51c-.06-.35-.16-.85-.29-1.49a29.57,29.57,0,0,0-1.65-5.32A15.55,15.55,0,0,0,299.68,75a9.24,9.24,0,0,0-4.44-1.69,46.21,46.21,0,0,0-5.22-.28c-7.21-.13-13.75-.11-18.48-.29-2.36-.09-4.27-.2-5.59-.3l-1.52-.13a2.75,2.75,0,0,1-.52-.07,2,2,0,0,1,.53,0l1.52.06c1.32,0,3.23.11,5.59.16,4.73.11,11.26,0,18.47.18a45.58,45.58,0,0,1,5.28.29,9.46,9.46,0,0,1,4.61,1.79A14,14,0,0,1,303,78a18.55,18.55,0,0,1,1.82,3.44,26.59,26.59,0,0,1,1.54,5.39c.12.66.19,1.17.22,1.51A2.12,2.12,0,0,1,306.6,88.87Z"/><rect class="cls-3" x="268.32" y="59.14" width="54.25" height="7.88"/><rect class="cls-1" x="280.25" y="63.08" width="29.54" height="3.94"/><path class="cls-4" d="M74.16,254.52C85.89,244.24,87,227.44,84.82,212.68c-.36-2.46-.38-5.1-1.79-7.14s-4.33-3.22-6.43-1.93c-1.74,1.06-2.3,3.29-3.13,5.17A14.59,14.59,0,0,1,68.28,215c-1.49,1-3.38,1.7-5,1-2.26-.95-2.84-3.86-3.1-6.33q-.7-6.87-1.43-13.76a23,23,0,0,0-1.54-7.22A7.71,7.71,0,0,0,51.81,184c-2.41-.4-5.15,1.27-5.38,3.73a22.57,22.57,0,0,0,.26,3.07,2.61,2.61,0,0,1-1.24,2.61c-1,.39-2-.2-2.83-.84-2.81-2.2-4.88-5.21-6.84-8.21a45.79,45.79,0,0,0-6.49-8.54c-2.6-2.46-6-4.25-9.57-4.07s-7.06,2.78-7.56,6.34,1.9,6.86,4.41,9.42a55.07,55.07,0,0,0,12.63,9.64A4.5,4.5,0,0,1,31.34,199c.71,1.58-.66,3.38-2.22,4.1-1.77.81-3.78.84-5.67,1.28s-3.88,1.51-4.4,3.41c-.73,2.62,1.66,5,3.92,6.52a47.19,47.19,0,0,0,14.8,6.5,15.78,15.78,0,0,1,5.45,1.94c1.6,1.11,2.73,3.23,2,5.06s-2.89,2.63-4.83,2.49-3.74-1-5.62-1.47c-3.52-.9-7.86-.19-9.71,3a7.82,7.82,0,0,0-.06,7,18,18,0,0,0,4.39,5.67,47.63,47.63,0,0,0,21.76,12c8.14,1.85,15.49,1.79,23-1.92"/><path class="cls-3" d="M75.56,265.48a108.24,108.24,0,0,0-6.25-19.83,223.17,223.17,0,0,0-11.37-22.76l-3.28-5.81c-1.09-1.91-2.16-3.8-3.32-5.58a112.15,112.15,0,0,0-7.28-9.87c-2.47-3-4.92-5.8-7.23-8.39s-4.52-4.94-6.62-7a88.53,88.53,0,0,0-10.64-9c-1.33-1-2.39-1.67-3.12-2.15l-.82-.53-.29-.17s.08.08.26.21l.8.57c.71.5,1.75,1.23,3.07,2.22A93.59,93.59,0,0,1,30,186.46c2.08,2.08,4.27,4.45,6.57,7s4.73,5.38,7.19,8.4A112.23,112.23,0,0,1,51,211.74c1.16,1.78,2.22,3.65,3.31,5.57s2.17,3.85,3.28,5.81a225.65,225.65,0,0,1,11.37,22.7,110.69,110.69,0,0,1,6.33,19.73"/><path class="cls-3" d="M51.21,211.5a5.43,5.43,0,0,0,.12-1.08c.05-.69.1-1.7.14-2.94.07-2.49.06-5.93,0-9.72s0-7.22.13-9.7c0-1.24.11-2.24.15-2.94a5.25,5.25,0,0,0,0-1.08,5,5,0,0,0-.19,1.07c-.1.68-.21,1.69-.3,2.93-.2,2.48-.29,5.92-.26,9.72s.06,7.12.09,9.71v2.94A4.57,4.57,0,0,0,51.21,211.5Z"/><path class="cls-3" d="M18.93,209.07a6.71,6.71,0,0,0,1.28,0c.82,0,2-.05,3.47,0,2.93,0,7,.12,11.44.46s8.49.84,11.39,1.28c1.45.21,2.62.41,3.43.54a6.8,6.8,0,0,0,1.27.17,5.92,5.92,0,0,0-1.24-.35c-.8-.18-2-.43-3.41-.68-2.9-.53-6.93-1.07-11.41-1.42a112.74,112.74,0,0,0-11.47-.33c-1.47,0-2.66.11-3.48.19A6.71,6.71,0,0,0,18.93,209.07Z"/><path class="cls-3" d="M68.86,245.12a2.5,2.5,0,0,0,.17-.41l.41-1.21c.36-1,.83-2.57,1.4-4.47,1.12-3.79,2.51-9.07,4-14.93s2.8-11.14,3.84-14.95c.51-1.85.94-3.38,1.25-4.51.14-.49.25-.9.34-1.23a1.3,1.3,0,0,0,.08-.44,2.5,2.5,0,0,0-.17.41c-.11.33-.25.72-.42,1.21-.35,1-.83,2.57-1.39,4.47-1.12,3.79-2.52,9.07-4,14.93s-2.8,11.14-3.84,14.95c-.52,1.85-.94,3.38-1.25,4.51-.14.49-.25.9-.34,1.23A1.3,1.3,0,0,0,68.86,245.12Z"/><path class="cls-3" d="M25.34,236.21a1.91,1.91,0,0,0,.44.12l1.26.28,4.66,1c3.94.81,9.36,2,15.35,3.32s11.43,2.45,15.38,3.18c2,.37,3.58.65,4.69.82l1.28.19a2.23,2.23,0,0,0,.46,0,1.59,1.59,0,0,0-.44-.13l-1.27-.28-4.66-1c-3.93-.81-9.35-2-15.35-3.31S35.72,238,31.76,237.25c-2-.37-3.57-.65-4.69-.82l-1.28-.19A1.29,1.29,0,0,0,25.34,236.21Z"/><rect class="cls-1" x="75.14" y="91.94" width="56.64" height="173.5"/><rect class="cls-2" x="131.6" y="91.94" width="44.76" height="173.5"/><rect class="cls-3" x="78.18" y="119.71" width="48.04" height="13.53"/><rect class="cls-1" x="79.52" y="121.41" width="2.69" height="10.35"/><path class="cls-2" d="M85.38,123.58a.86.86,0,1,1-.86-.85A.85.85,0,0,1,85.38,123.58Z"/><circle class="cls-2" cx="84.52" cy="127.24" r="0.86"/><rect class="cls-1" x="88.8" y="122.73" width="2.64" height="7.95"/><rect class="cls-1" x="92.62" y="122.73" width="2.64" height="7.95"/><rect class="cls-1" x="96.43" y="122.73" width="2.64" height="7.95"/><rect class="cls-1" x="100.25" y="122.73" width="2.64" height="7.95"/><rect class="cls-1" x="104.07" y="122.73" width="2.64" height="7.95"/><rect class="cls-1" x="107.89" y="122.73" width="2.64" height="7.95"/><rect class="cls-1" x="111.71" y="122.73" width="2.64" height="7.95"/><rect class="cls-1" x="115.53" y="122.73" width="2.64" height="7.95"/><rect class="cls-1" x="119.35" y="122.73" width="2.64" height="7.95"/><rect class="cls-1" x="123.17" y="122.73" width="2.64" height="7.95"/><rect class="cls-3" x="78.18" y="141.37" width="48.04" height="13.53"/><rect class="cls-1" x="79.52" y="143.07" width="2.69" height="10.35"/><path class="cls-2" d="M85.38,145.25a.86.86,0,1,1-.86-.86A.85.85,0,0,1,85.38,145.25Z"/><circle class="cls-2" cx="84.52" cy="148.91" r="0.86"/><rect class="cls-1" x="88.8" y="144.39" width="2.64" height="7.95"/><rect class="cls-1" x="92.62" y="144.39" width="2.64" height="7.95"/><rect class="cls-1" x="96.43" y="144.39" width="2.64" height="7.95"/><rect class="cls-1" x="100.25" y="144.39" width="2.64" height="7.95"/><rect class="cls-1" x="104.07" y="144.39" width="2.64" height="7.95"/><rect class="cls-1" x="107.89" y="144.39" width="2.64" height="7.95"/><rect class="cls-1" x="111.71" y="144.39" width="2.64" height="7.95"/><rect class="cls-1" x="115.53" y="144.39" width="2.64" height="7.95"/><rect class="cls-1" x="119.35" y="144.39" width="2.64" height="7.95"/><rect class="cls-1" x="123.17" y="144.39" width="2.64" height="7.95"/><rect class="cls-3" x="78.18" y="163.03" width="48.04" height="13.53"/><rect class="cls-1" x="79.52" y="164.74" width="2.69" height="10.35"/><path class="cls-2" d="M85.38,166.91a.86.86,0,1,1-1.71,0,.86.86,0,0,1,1.71,0Z"/><circle class="cls-2" cx="84.52" cy="170.57" r="0.86"/><rect class="cls-1" x="88.8" y="166.06" width="2.64" height="7.95"/><rect class="cls-1" x="92.62" y="166.06" width="2.64" height="7.95"/><rect class="cls-1" x="96.43" y="166.06" width="2.64" height="7.95"/><rect class="cls-1" x="100.25" y="166.06" width="2.64" height="7.95"/><rect class="cls-1" x="104.07" y="166.06" width="2.64" height="7.95"/><rect class="cls-1" x="107.89" y="166.06" width="2.64" height="7.95"/><rect class="cls-1" x="111.71" y="166.06" width="2.64" height="7.95"/><rect class="cls-1" x="115.53" y="166.06" width="2.64" height="7.95"/><rect class="cls-1" x="119.35" y="166.06" width="2.64" height="7.95"/><rect class="cls-1" x="123.17" y="166.06" width="2.64" height="7.95"/><rect class="cls-3" x="78.18" y="184.7" width="48.04" height="13.53"/><rect class="cls-1" x="79.52" y="186.4" width="2.69" height="10.35"/><path class="cls-2" d="M85.38,188.58a.86.86,0,1,1-.86-.86A.85.85,0,0,1,85.38,188.58Z"/><circle class="cls-2" cx="84.52" cy="192.24" r="0.86"/><rect class="cls-1" x="88.8" y="187.72" width="2.64" height="7.95"/><rect class="cls-1" x="92.62" y="187.72" width="2.64" height="7.95"/><rect class="cls-1" x="96.43" y="187.72" width="2.64" height="7.95"/><rect class="cls-1" x="100.25" y="187.72" width="2.64" height="7.95"/><rect class="cls-1" x="104.07" y="187.72" width="2.64" height="7.95"/><rect class="cls-1" x="107.89" y="187.72" width="2.64" height="7.95"/><rect class="cls-1" x="111.71" y="187.72" width="2.64" height="7.95"/><rect class="cls-1" x="115.53" y="187.72" width="2.64" height="7.95"/><rect class="cls-1" x="119.35" y="187.72" width="2.64" height="7.95"/><rect class="cls-1" x="123.17" y="187.72" width="2.64" height="7.95"/><rect class="cls-3" x="78.18" y="206.36" width="48.04" height="13.53"/><rect class="cls-1" x="79.52" y="208.06" width="2.69" height="10.35"/><path class="cls-2" d="M85.38,210.24a.86.86,0,1,1-1.71,0,.86.86,0,0,1,1.71,0Z"/><circle class="cls-2" cx="84.52" cy="213.9" r="0.86"/><rect class="cls-1" x="88.8" y="209.39" width="2.64" height="7.95"/><rect class="cls-1" x="92.62" y="209.39" width="2.64" height="7.95"/><rect class="cls-1" x="96.43" y="209.39" width="2.64" height="7.95"/><rect class="cls-1" x="100.25" y="209.39" width="2.64" height="7.95"/><rect class="cls-1" x="104.07" y="209.39" width="2.64" height="7.95"/><rect class="cls-1" x="107.89" y="209.39" width="2.64" height="7.95"/><rect class="cls-1" x="111.71" y="209.39" width="2.64" height="7.95"/><rect class="cls-1" x="115.53" y="209.39" width="2.64" height="7.95"/><rect class="cls-1" x="119.35" y="209.39" width="2.64" height="7.95"/><rect class="cls-1" x="123.17" y="209.39" width="2.64" height="7.95"/><rect class="cls-3" x="78.18" y="228.03" width="48.04" height="13.53"/><rect class="cls-1" x="79.52" y="229.73" width="2.69" height="10.35"/><path class="cls-2" d="M85.38,231.91a.86.86,0,1,1-.86-.86A.85.85,0,0,1,85.38,231.91Z"/><circle class="cls-2" cx="84.52" cy="235.56" r="0.86"/><rect class="cls-1" x="88.8" y="231.05" width="2.64" height="7.95"/><rect class="cls-1" x="92.62" y="231.05" width="2.64" height="7.95"/><rect class="cls-1" x="96.43" y="231.05" width="2.64" height="7.95"/><rect class="cls-1" x="100.25" y="231.05" width="2.64" height="7.95"/><rect class="cls-1" x="104.07" y="231.05" width="2.64" height="7.95"/><rect class="cls-1" x="107.89" y="231.05" width="2.64" height="7.95"/><rect class="cls-1" x="111.71" y="231.05" width="2.64" height="7.95"/><rect class="cls-1" x="115.53" y="231.05" width="2.64" height="7.95"/><rect class="cls-1" x="119.35" y="231.05" width="2.64" height="7.95"/><rect class="cls-1" x="123.17" y="231.05" width="2.64" height="7.95"/><rect class="cls-3" x="78.18" y="249.69" width="48.04" height="13.53"/><rect class="cls-1" x="79.52" y="251.39" width="2.69" height="10.35"/><circle class="cls-2" cx="84.52" cy="253.57" r="0.86"/><circle class="cls-2" cx="84.52" cy="257.23" r="0.86"/><rect class="cls-1" x="88.8" y="252.72" width="2.64" height="7.95"/><rect class="cls-1" x="92.62" y="252.72" width="2.64" height="7.95"/><rect class="cls-1" x="96.43" y="252.72" width="2.64" height="7.95"/><rect class="cls-1" x="100.25" y="252.72" width="2.64" height="7.95"/><rect class="cls-1" x="104.07" y="252.72" width="2.64" height="7.95"/><rect class="cls-1" x="107.89" y="252.72" width="2.64" height="7.95"/><rect class="cls-1" x="111.71" y="252.72" width="2.64" height="7.95"/><rect class="cls-1" x="115.53" y="252.72" width="2.64" height="7.95"/><rect class="cls-1" x="119.35" y="252.72" width="2.64" height="7.95"/><rect class="cls-1" x="123.17" y="252.72" width="2.64" height="7.95"/><path class="cls-3" d="M107.89,119.71a2.1,2.1,0,0,1,0-.42c0-.28,0-.68,0-1.2s0-1.16-.06-1.9a12.35,12.35,0,0,0-.34-2.47,8.72,8.72,0,0,0-1.28-2.7,6,6,0,0,0-2.63-2.11,12.87,12.87,0,0,0-3.72-.75l-4.14-.36c-5.67-.49-10.81-.81-14.54-.88-1.86,0-3.37,0-4.42,0h-1.2a2,2,0,0,1-.42,0,2.1,2.1,0,0,1,.42,0l1.2-.07c1-.05,2.55-.1,4.42-.09,3.74,0,8.89.29,14.57.78l4.14.37a12.62,12.62,0,0,1,3.82.8,6.24,6.24,0,0,1,2.74,2.24,9.06,9.06,0,0,1,1.28,2.8,12.11,12.11,0,0,1,.29,2.52c0,.74,0,1.38,0,1.9v1.21A2.08,2.08,0,0,1,107.89,119.71Z"/><path class="cls-3" d="M93.32,119.71a1.17,1.17,0,0,1,0-.4c0-.3,0-.67,0-1.13s0-1.09-.06-1.78a5.66,5.66,0,0,0-.59-2.22,4.22,4.22,0,0,0-2.17-1.66,5.81,5.81,0,0,0-3.15-.32,5.07,5.07,0,0,0-1.63.55,3.08,3.08,0,0,0-1.26,1.19,1.71,1.71,0,0,0,0,1.68,2.25,2.25,0,0,0,1.43,1.07,1.81,1.81,0,0,0,1.67-.48,2.4,2.4,0,0,0,.25-3.22,3.77,3.77,0,0,0-1.27-1.12,4.66,4.66,0,0,0-1.58-.4c-.54-.08-1.07-.16-1.58-.21-1-.12-2-.19-2.85-.22-1.75-.07-3.17-.05-4.15-.05H75.2a2.12,2.12,0,0,1-.4,0,1.6,1.6,0,0,1,.4,0l1.13-.06c1,0,2.4-.11,4.16-.07.88,0,1.84.08,2.87.18.52,0,1,.12,1.6.19l.83.13a3.31,3.31,0,0,1,.85.3A3.83,3.83,0,0,1,88,112.8a2.72,2.72,0,0,1-.29,3.66,2.14,2.14,0,0,1-2,.57,2.57,2.57,0,0,1-1.65-1.24,2,2,0,0,1,0-2,3.35,3.35,0,0,1,1.4-1.32,5.52,5.52,0,0,1,1.73-.58,6.22,6.22,0,0,1,3.32.37,4.46,4.46,0,0,1,2.27,1.81,5.6,5.6,0,0,1,.57,2.33,17.67,17.67,0,0,1,0,1.79l-.05,1.13A2.12,2.12,0,0,1,93.32,119.71Z"/><path class="cls-3" d="M111.81,119.71a3.88,3.88,0,0,1-.1-.45c0-.3-.14-.73-.26-1.29A24.26,24.26,0,0,0,110,113.4a13.37,13.37,0,0,0-4.17-5.61,8,8,0,0,0-3.83-1.45,38.45,38.45,0,0,0-4.5-.24c-6.21-.12-11.84-.1-15.91-.26-2-.07-3.68-.17-4.82-.25l-1.3-.11a2.19,2.19,0,0,1-.46-.07h.46l1.31,0c1.14,0,2.78.1,4.82.14,4.07.1,9.69,0,15.91.16a37.46,37.46,0,0,1,4.54.25,8.21,8.21,0,0,1,4,1.54,12.18,12.18,0,0,1,2.64,2.8,16.09,16.09,0,0,1,1.57,3,23.66,23.66,0,0,1,1.33,4.65c.1.56.16,1,.19,1.3A2.61,2.61,0,0,1,111.81,119.71Z"/><rect class="cls-3" x="78.84" y="94.1" width="46.72" height="6.78"/><rect class="cls-1" x="89.12" y="97.49" width="25.44" height="3.39"/><path class="cls-5" d="M402.9,182s-3.85-2.5-8.44,6.7a117.77,117.77,0,0,0-6.32,14.5s-1.22,1.93-2.55.69-3.16-4.79-5.4-4.13-3.06,3.28-2.59,7.09,1.21,12.19,1.27,13-.35,1.85-1.39,1.15-7.05-7.29-10-4.25.12,13.43.43,14.57.09,1.64-.45,1.93-2.35-2.12-4.14-3.92-4.17-3.58-5.73-1.69-2,9.72,5.55,22.36l3.88,5.62,6.85-.43c14.6-1.83,20.5-7,21-9.39s-2.33-3.18-4.85-3.48-5.53-.25-5.64-.85.15-1.08,1.24-1.54,11.18-4.43,11.75-8.63-8.31-4.88-9.5-5.27-.59-1.4,0-1.81,7.7-5,11-7,4.89-4.16,4-6.41-4.78-1.43-6.58-1.71-1-2.43-1-2.43a117.77,117.77,0,0,0,7.54-13.91c4.43-9.28,0-10.79,0-10.79"/><path class="cls-6" d="M398.77,190.27a1.57,1.57,0,0,1-.08.2l-.26.58c-.24.51-.59,1.25-1,2.2-.89,1.92-2.21,4.68-3.85,8.08-3.27,6.8-7.88,16.17-13,26.49s-9.75,19.68-13.06,26.47l-3.92,8-1.06,2.18-.29.57-.1.19.08-.2.27-.58c.23-.51.58-1.25,1-2.2.9-1.91,2.21-4.67,3.85-8.08,3.28-6.8,7.88-16.17,13-26.49s9.75-19.68,13.06-26.46l3.92-8,1.07-2.18.28-.57A1.94,1.94,0,0,0,398.77,190.27Z"/><path class="cls-6" d="M382.56,204.86a2.48,2.48,0,0,1,.18.46c.1.3.24.74.4,1.29.32,1.09.72,2.6,1.13,4.28s.76,3.16,1,4.31c.13.52.23,1,.32,1.31a2.31,2.31,0,0,1,.1.48,1.63,1.63,0,0,1-.18-.46c-.11-.3-.24-.74-.4-1.29-.31-1.09-.69-2.61-1.1-4.29s-.78-3.15-1.07-4.3l-.33-1.3A1.89,1.89,0,0,1,382.56,204.86Z"/><path class="cls-6" d="M386.36,217.11c0-.06,3.07-1,6.9-2.17s6.94-2,7-1.94-3.07,1-6.9,2.16S386.38,217.17,386.36,217.11Z"/><path class="cls-6" d="M377.78,232.61a1.66,1.66,0,0,1,.5,0h1.37c1.16,0,2.76,0,4.52-.11s3.36-.21,4.51-.31l1.37-.11a2.37,2.37,0,0,1,.5,0,1.92,1.92,0,0,1-.49.11c-.32.05-.78.12-1.36.19-1.15.14-2.75.29-4.52.37s-3.37.08-4.53,0l-1.37-.06A1.73,1.73,0,0,1,377.78,232.61Z"/><path class="cls-6" d="M371.9,222.29s.11.13.28.38l.67,1.07c.56.91,1.32,2.18,2.14,3.59s1.57,2.69,2.09,3.63c.26.46.47.84.61,1.11a2.81,2.81,0,0,1,.2.42s-.11-.12-.28-.37l-.67-1.08c-.56-.91-1.32-2.18-2.14-3.59s-1.57-2.69-2.09-3.63c-.26-.46-.47-.84-.61-1.11A2,2,0,0,1,371.9,222.29Z"/><path class="cls-6" d="M362.59,235a2.54,2.54,0,0,1,.35.49l.86,1.37c.73,1.17,1.71,2.79,2.79,4.58s2,3.43,2.72,4.62c.33.57.59,1,.81,1.41a2.5,2.5,0,0,1,.26.54,3.82,3.82,0,0,1-.34-.49l-.87-1.38c-.72-1.16-1.71-2.78-2.78-4.58s-2-3.42-2.73-4.61l-.8-1.41A3,3,0,0,1,362.59,235Z"/><path class="cls-6" d="M370.29,247.65a4.53,4.53,0,0,1,.63-.05l1.74-.07c1.47-.07,3.5-.16,5.73-.33s4.25-.36,5.71-.51l1.73-.18a3.07,3.07,0,0,1,.64,0,4.42,4.42,0,0,1-.62.13l-1.73.25c-1.45.19-3.47.42-5.71.58s-4.27.24-5.74.26h-1.75A2.83,2.83,0,0,1,370.29,247.65Z"/><path class="cls-5" d="M72.12,247.11a11.08,11.08,0,0,0-6.87-.88,5.72,5.72,0,0,0-3.4,1.49,2.44,2.44,0,0,0-.06,3.39,3.29,3.29,0,0,0,2.14.56c1.81,0,3.83-.32,5.27.79.83.63,1.37,1.67,2.36,2a2.34,2.34,0,0,0,2.58-1.13,4,4,0,0,0,.31-2.95A4.53,4.53,0,0,0,72.12,247.11Z"/><g class="cls-7"><path d="M72.12,247.11a11.08,11.08,0,0,0-6.87-.88,5.72,5.72,0,0,0-3.4,1.49,2.44,2.44,0,0,0-.06,3.39,3.29,3.29,0,0,0,2.14.56c1.81,0,3.83-.32,5.27.79.83.63,1.37,1.67,2.36,2a2.34,2.34,0,0,0,2.58-1.13,4,4,0,0,0,.31-2.95A4.53,4.53,0,0,0,72.12,247.11Z"/></g><path class="cls-5" d="M77,237.91c-1.29,1.81-3.77,1.19-4.91.07A9.3,9.3,0,0,1,70,233.7c-1-3.53-2-7.23-1.2-10.8A6,6,0,0,1,70.2,220a3.12,3.12,0,0,1,3-1,4.61,4.61,0,0,1,2.58,2.74,25.61,25.61,0,0,1,2.46,11.05A8.92,8.92,0,0,1,77,237.91"/><g class="cls-7"><path class="cls-8" d="M77,237.91c-1.29,1.81-3.77,1.19-4.91.07A9.3,9.3,0,0,1,70,233.7c-1-3.53-2-7.23-1.2-10.8A6,6,0,0,1,70.2,220a3.12,3.12,0,0,1,3-1,4.61,4.61,0,0,1,2.58,2.74,25.61,25.61,0,0,1,2.46,11.05A8.92,8.92,0,0,1,77,237.91"/></g><path class="cls-5" d="M80.46,240.55a6.64,6.64,0,0,1-1-6.12,11.72,11.72,0,0,1,3.66-5.22,19.39,19.39,0,0,1,6.5-3.78,7,7,0,0,1,2.92-.48,3.08,3.08,0,0,1,2.44,1.5c.67,1.31,0,2.88-.71,4.16a48.88,48.88,0,0,1-4.3,6.45,11.52,11.52,0,0,1-4.71,4c-2,.73-4,.63-5-.73"/><path class="cls-6" d="M76.86,265.44a4.55,4.55,0,0,1-.11-.83c0-.61-.12-1.37-.2-2.27a31.85,31.85,0,0,0-.49-3.32,25.38,25.38,0,0,0-1.18-3.93,14.74,14.74,0,0,0-2-3.56,7.59,7.59,0,0,0-2.52-2.12,7.22,7.22,0,0,0-2.12-.68,4,4,0,0,1-.83-.12,3.91,3.91,0,0,1,.84,0,6.32,6.32,0,0,1,2.22.6,7.35,7.35,0,0,1,2.65,2.14,13.79,13.79,0,0,1,2,3.63,23.59,23.59,0,0,1,1.17,4,26.7,26.7,0,0,1,.42,3.36c.07,1,.09,1.74.1,2.28A3.76,3.76,0,0,1,76.86,265.44Z"/><path class="cls-6" d="M76.72,263.69a1.59,1.59,0,0,1,0-.38c0-.29,0-.65,0-1.1,0-1,0-2.34,0-4-.06-3.41-.32-8.12-.85-13.3s-1.26-9.85-1.93-13.2c-.16-.84-.32-1.59-.47-2.26s-.26-1.23-.38-1.69-.18-.79-.25-1.07a2.73,2.73,0,0,1-.07-.38s.06.12.14.36.18.62.31,1,.28,1,.44,1.69.34,1.41.52,2.25a125.81,125.81,0,0,1,2,13.21c.53,5.19.75,9.92.75,13.34,0,1.71,0,3.1-.09,4,0,.45,0,.81-.07,1.1A1.65,1.65,0,0,1,76.72,263.69Z"/><path class="cls-6" d="M76.76,254.58a7.19,7.19,0,0,1,0-1.15,28.79,28.79,0,0,1,.37-3.11,42.59,42.59,0,0,1,1-4.53,40.83,40.83,0,0,1,1.94-5.36,28.55,28.55,0,0,1,5.63-8.63,13.89,13.89,0,0,1,1.32-1.21c.2-.17.38-.34.56-.47l.52-.35a7.54,7.54,0,0,1,1-.61A31.41,31.41,0,0,0,85.94,232a30,30,0,0,0-5.5,8.6,42.33,42.33,0,0,0-1.94,5.31,46,46,0,0,0-1.11,4.48c-.25,1.3-.39,2.35-.48,3.08A7.21,7.21,0,0,1,76.76,254.58Z"/><path class="cls-6" d="M186.42,66.52c-.09,0-.17-7.37-.17-16.46s.08-16.47.17-16.47.18,7.37.18,16.47S186.52,66.52,186.42,66.52Z"/><rect class="cls-6" x="280.24" y="178.19" width="75.31" height="82.63"/><rect class="cls-9" x="269.24" y="194.71" width="82.33" height="20.43"/><rect class="cls-6" x="272.89" y="198.92" width="16.21" height="2.49"/><rect class="cls-6" x="272.89" y="203.21" width="16.21" height="2.49"/><rect class="cls-6" x="272.89" y="207.65" width="16.21" height="2.49"/><path class="cls-6" d="M295.51,200.43a.93.93,0,1,1-.93-.93A.93.93,0,0,1,295.51,200.43Z"/><path class="cls-6" d="M299.62,200.43a.93.93,0,0,1-1.86,0,.93.93,0,0,1,1.86,0Z"/><path class="cls-6" d="M303.72,200.43a.93.93,0,1,1-.93-.93A.93.93,0,0,1,303.72,200.43Z"/><path class="cls-6" d="M307.82,200.43a.93.93,0,1,1-.92-.93A.93.93,0,0,1,307.82,200.43Z"/><path class="cls-6" d="M339.62,200.43a.93.93,0,1,1-.93-.93A.93.93,0,0,1,339.62,200.43Z"/><path class="cls-6" d="M343.81,200.43a.93.93,0,0,1-1.86,0,.93.93,0,0,1,1.86,0Z"/><path class="cls-6" d="M311.93,200.43a.93.93,0,0,1-1.86,0,.93.93,0,0,1,1.86,0Z"/><path class="cls-6" d="M332.08,200.43a.93.93,0,1,1-.93-.93A.93.93,0,0,1,332.08,200.43Z"/><path class="cls-1" d="M316,200.43a.93.93,0,1,1-.93-.93A.93.93,0,0,1,316,200.43Z"/><path class="cls-1" d="M320.14,200.43a.93.93,0,0,1-1.86,0,.93.93,0,0,1,1.86,0Z"/><path class="cls-1" d="M328.46,200.43a.93.93,0,1,1-.93-.93A.93.93,0,0,1,328.46,200.43Z"/><path class="cls-1" d="M347.21,200.43a.93.93,0,1,1-.93-.93A.93.93,0,0,1,347.21,200.43Z"/><path class="cls-5" d="M324.24,200.43a.93.93,0,1,1-.93-.93A.93.93,0,0,1,324.24,200.43Z"/><path class="cls-5" d="M336,200.43a.93.93,0,0,1-1.86,0,.93.93,0,0,1,1.86,0Z"/><path class="cls-6" d="M345.35,204.91a.93.93,0,1,1,.93.93A.93.93,0,0,1,345.35,204.91Z"/><path class="cls-6" d="M341.25,204.91a.93.93,0,1,1,.93.93A.93.93,0,0,1,341.25,204.91Z"/><path class="cls-6" d="M337.15,204.91a.93.93,0,0,1,1.86,0,.93.93,0,1,1-1.86,0Z"/><path class="cls-6" d="M333,204.91a.93.93,0,1,1,.93.93A.93.93,0,0,1,333,204.91Z"/><path class="cls-6" d="M301.24,204.91a.93.93,0,1,1,.93.93A.93.93,0,0,1,301.24,204.91Z"/><path class="cls-6" d="M297.06,204.91a.93.93,0,1,1,.93.93A.93.93,0,0,1,297.06,204.91Z"/><path class="cls-6" d="M328.94,204.91a.93.93,0,0,1,1.86,0,.93.93,0,0,1-1.86,0Z"/><path class="cls-6" d="M308.79,204.91a.93.93,0,0,1,1.86,0,.93.93,0,1,1-1.86,0Z"/><path class="cls-1" d="M324.84,204.91a.93.93,0,1,1,.92.93A.92.92,0,0,1,324.84,204.91Z"/><path class="cls-1" d="M320.73,204.91a.93.93,0,1,1,.93.93A.93.93,0,0,1,320.73,204.91Z"/><path class="cls-1" d="M312.41,204.91a.93.93,0,0,1,1.86,0,.93.93,0,1,1-1.86,0Z"/><path class="cls-1" d="M293.65,204.91a.93.93,0,1,1,.93.93A.93.93,0,0,1,293.65,204.91Z"/><path class="cls-5" d="M316.63,204.91a.93.93,0,0,1,1.86,0,.93.93,0,1,1-1.86,0Z"/><path class="cls-5" d="M304.88,204.91a.93.93,0,1,1,.93.93A.93.93,0,0,1,304.88,204.91Z"/><circle class="cls-6" cx="294.58" cy="208.89" r="0.93"/><circle class="cls-6" cx="298.69" cy="208.89" r="0.93"/><circle class="cls-6" cx="302.79" cy="208.89" r="0.93"/><circle class="cls-6" cx="306.9" cy="208.89" r="0.93"/><circle class="cls-6" cx="338.69" cy="208.89" r="0.93"/><circle class="cls-6" cx="342.88" cy="208.89" r="0.93"/><circle class="cls-6" cx="311" cy="208.89" r="0.93"/><path class="cls-6" d="M332.08,208.89a.93.93,0,1,1-.93-.93A.93.93,0,0,1,332.08,208.89Z"/><circle class="cls-1" cx="315.1" cy="208.89" r="0.93"/><path class="cls-1" d="M320.14,208.89a.93.93,0,1,1-.93-.93A.93.93,0,0,1,320.14,208.89Z"/><circle class="cls-1" cx="327.53" cy="208.89" r="0.93"/><path class="cls-1" d="M347.21,208.89a.93.93,0,1,1-1.86,0,.93.93,0,0,1,1.86,0Z"/><circle class="cls-5" cx="323.31" cy="208.89" r="0.93"/><circle class="cls-5" cx="335.06" cy="208.89" r="0.93"/><rect class="cls-9" x="269.24" y="219.92" width="82.33" height="20.43"/><path class="cls-6" d="M295.31,225.43a.93.93,0,1,1-.93-.93A.93.93,0,0,1,295.31,225.43Z"/><path class="cls-6" d="M299.41,225.43a.93.93,0,1,1-.93-.93A.93.93,0,0,1,299.41,225.43Z"/><path class="cls-6" d="M303.52,225.43a.93.93,0,1,1-1.86,0,.93.93,0,0,1,1.86,0Z"/><path class="cls-6" d="M307.62,225.43a.93.93,0,1,1-.93-.93A.93.93,0,0,1,307.62,225.43Z"/><path class="cls-6" d="M339.42,225.43a.93.93,0,1,1-.93-.93A.93.93,0,0,1,339.42,225.43Z"/><path class="cls-6" d="M343.6,225.43a.93.93,0,1,1-.93-.93A.93.93,0,0,1,343.6,225.43Z"/><path class="cls-6" d="M311.72,225.43a.93.93,0,1,1-.93-.93A.93.93,0,0,1,311.72,225.43Z"/><path class="cls-6" d="M331.88,225.43a.93.93,0,0,1-1.86,0,.93.93,0,0,1,1.86,0Z"/><path class="cls-1" d="M315.83,225.43a.93.93,0,1,1-1.86,0,.93.93,0,0,1,1.86,0Z"/><path class="cls-1" d="M319.93,225.43a.93.93,0,1,1-.93-.93A.93.93,0,0,1,319.93,225.43Z"/><path class="cls-1" d="M328.26,225.43a.93.93,0,0,1-1.86,0,.93.93,0,0,1,1.86,0Z"/><path class="cls-1" d="M347,225.43a.93.93,0,0,1-1.86,0,.93.93,0,0,1,1.86,0Z"/><path class="cls-5" d="M324,225.43a.93.93,0,1,1-.93-.93A.93.93,0,0,1,324,225.43Z"/><path class="cls-5" d="M335.78,225.43a.93.93,0,1,1-.93-.93A.93.93,0,0,1,335.78,225.43Z"/><path class="cls-6" d="M345.15,229.91a.93.93,0,1,1,.93.93A.93.93,0,0,1,345.15,229.91Z"/><path class="cls-6" d="M341,229.91a.93.93,0,1,1,.93.93A.93.93,0,0,1,341,229.91Z"/><path class="cls-6" d="M336.94,229.91a.93.93,0,1,1,.93.93A.93.93,0,0,1,336.94,229.91Z"/><path class="cls-6" d="M332.84,229.91a.93.93,0,1,1,.93.93A.93.93,0,0,1,332.84,229.91Z"/><path class="cls-6" d="M301,229.91a.93.93,0,1,1,.93.93A.93.93,0,0,1,301,229.91Z"/><path class="cls-6" d="M296.86,229.91a.93.93,0,1,1,.93.93A.93.93,0,0,1,296.86,229.91Z"/><path class="cls-6" d="M328.73,229.91a.93.93,0,1,1,.93.93A.93.93,0,0,1,328.73,229.91Z"/><path class="cls-6" d="M308.58,229.91a.93.93,0,1,1,.93.93A.93.93,0,0,1,308.58,229.91Z"/><path class="cls-1" d="M324.63,229.91a.93.93,0,1,1,.93.93A.93.93,0,0,1,324.63,229.91Z"/><path class="cls-1" d="M320.53,229.91a.93.93,0,1,1,.93.93A.93.93,0,0,1,320.53,229.91Z"/><path class="cls-1" d="M312.2,229.91a.93.93,0,1,1,.93.93A.93.93,0,0,1,312.2,229.91Z"/><path class="cls-1" d="M293.45,229.91a.93.93,0,1,1,.93.93A.93.93,0,0,1,293.45,229.91Z"/><path class="cls-5" d="M316.42,229.91a.93.93,0,1,1,.93.93A.93.93,0,0,1,316.42,229.91Z"/><path class="cls-5" d="M304.68,229.91a.93.93,0,1,1,.93.93A.93.93,0,0,1,304.68,229.91Z"/><circle class="cls-6" cx="294.38" cy="233.9" r="0.93"/><circle class="cls-6" cx="298.48" cy="233.9" r="0.93"/><circle class="cls-6" cx="302.59" cy="233.9" r="0.93"/><circle class="cls-6" cx="306.69" cy="233.9" r="0.93"/><circle class="cls-6" cx="338.49" cy="233.9" r="0.93"/><circle class="cls-6" cx="342.67" cy="233.9" r="0.93"/><circle class="cls-6" cx="310.79" cy="233.9" r="0.93"/><circle class="cls-6" cx="330.95" cy="233.9" r="0.93"/><circle class="cls-1" cx="314.9" cy="233.9" r="0.93"/><circle class="cls-1" cx="319" cy="233.9" r="0.93"/><circle class="cls-1" cx="327.33" cy="233.9" r="0.93"/><path class="cls-1" d="M347,233.9a.93.93,0,1,1-1.86,0,.93.93,0,0,1,1.86,0Z"/><circle class="cls-5" cx="323.1" cy="233.9" r="0.93"/><circle class="cls-5" cx="334.85" cy="233.9" r="0.93"/><rect class="cls-6" x="272.89" y="224.12" width="16.21" height="2.49"/><rect class="cls-6" x="272.89" y="228.42" width="16.21" height="2.49"/><rect class="cls-6" x="272.89" y="232.85" width="16.21" height="2.49"/><rect class="cls-9" x="269.24" y="245.12" width="82.33" height="20.43"/><rect class="cls-6" x="272.89" y="249.33" width="16.21" height="2.49"/><rect class="cls-6" x="272.89" y="253.62" width="16.21" height="2.49"/><rect class="cls-6" x="272.89" y="258.06" width="16.21" height="2.49"/><path class="cls-6" d="M295,250.63a.93.93,0,1,1-1.86,0,.93.93,0,1,1,1.86,0Z"/><path class="cls-6" d="M299.12,250.63a.93.93,0,1,1-.93-.93A.93.93,0,0,1,299.12,250.63Z"/><path class="cls-6" d="M303.22,250.63a.93.93,0,1,1-.93-.93A.93.93,0,0,1,303.22,250.63Z"/><path class="cls-6" d="M307.32,250.63a.93.93,0,0,1-1.86,0,.93.93,0,0,1,1.86,0Z"/><path class="cls-6" d="M339.12,250.63a.93.93,0,1,1-.93-.93A.93.93,0,0,1,339.12,250.63Z"/><path class="cls-6" d="M343.31,250.63a.93.93,0,1,1-.93-.93A.93.93,0,0,1,343.31,250.63Z"/><path class="cls-6" d="M311.43,250.63a.93.93,0,1,1-.93-.93A.93.93,0,0,1,311.43,250.63Z"/><path class="cls-6" d="M331.58,250.63a.93.93,0,1,1-.93-.93A.93.93,0,0,1,331.58,250.63Z"/><path class="cls-1" d="M315.53,250.63a.93.93,0,1,1-.93-.93A.93.93,0,0,1,315.53,250.63Z"/><path class="cls-1" d="M319.63,250.63a.93.93,0,1,1-1.86,0,.93.93,0,1,1,1.86,0Z"/><path class="cls-1" d="M328,250.63a.93.93,0,1,1-.93-.93A.93.93,0,0,1,328,250.63Z"/><path class="cls-1" d="M346.71,250.63a.93.93,0,1,1-.93-.93A.93.93,0,0,1,346.71,250.63Z"/><path class="cls-5" d="M323.74,250.63a.93.93,0,1,1-.93-.93A.93.93,0,0,1,323.74,250.63Z"/><path class="cls-5" d="M335.49,250.63a.93.93,0,1,1-.93-.93A.93.93,0,0,1,335.49,250.63Z"/><path class="cls-6" d="M344.85,255.12a.93.93,0,1,1,.93.93A.93.93,0,0,1,344.85,255.12Z"/><path class="cls-6" d="M340.75,255.12a.93.93,0,1,1,1.86,0,.93.93,0,1,1-1.86,0Z"/><path class="cls-6" d="M336.64,255.12a.93.93,0,1,1,.93.93A.93.93,0,0,1,336.64,255.12Z"/><path class="cls-6" d="M332.54,255.12a.93.93,0,1,1,.93.93A.93.93,0,0,1,332.54,255.12Z"/><path class="cls-6" d="M300.74,255.12a.93.93,0,1,1,.93.93A.93.93,0,0,1,300.74,255.12Z"/><path class="cls-6" d="M296.56,255.12a.93.93,0,0,1,1.86,0,.93.93,0,0,1-1.86,0Z"/><path class="cls-6" d="M328.44,255.12a.93.93,0,0,1,1.86,0,.93.93,0,0,1-1.86,0Z"/><path class="cls-6" d="M308.28,255.12a.93.93,0,1,1,.93.93A.93.93,0,0,1,308.28,255.12Z"/><path class="cls-1" d="M324.33,255.12a.93.93,0,1,1,.93.93A.93.93,0,0,1,324.33,255.12Z"/><path class="cls-1" d="M320.23,255.12a.93.93,0,1,1,.93.93A.93.93,0,0,1,320.23,255.12Z"/><path class="cls-1" d="M311.9,255.12a.93.93,0,1,1,.93.93A.93.93,0,0,1,311.9,255.12Z"/><path class="cls-1" d="M293.15,255.12a.93.93,0,1,1,.93.93A.93.93,0,0,1,293.15,255.12Z"/><path class="cls-5" d="M316.13,255.12a.93.93,0,1,1,1.86,0,.93.93,0,1,1-1.86,0Z"/><path class="cls-5" d="M304.38,255.12a.93.93,0,1,1,1.86,0,.93.93,0,1,1-1.86,0Z"/><path class="cls-6" d="M295,259.1a.93.93,0,0,1-1.86,0,.93.93,0,1,1,1.86,0Z"/><path class="cls-6" d="M299.12,259.1a.93.93,0,1,1-.93-.93A.93.93,0,0,1,299.12,259.1Z"/><path class="cls-6" d="M303.22,259.1a.93.93,0,1,1-.93-.93A.93.93,0,0,1,303.22,259.1Z"/><path class="cls-6" d="M307.32,259.1a.93.93,0,0,1-1.86,0,.93.93,0,0,1,1.86,0Z"/><path class="cls-6" d="M339.12,259.1a.93.93,0,1,1-.93-.93A.93.93,0,0,1,339.12,259.1Z"/><path class="cls-6" d="M343.31,259.1a.93.93,0,1,1-.93-.93A.93.93,0,0,1,343.31,259.1Z"/><path class="cls-6" d="M311.43,259.1a.93.93,0,1,1-.93-.93A.93.93,0,0,1,311.43,259.1Z"/><path class="cls-6" d="M331.58,259.1a.93.93,0,1,1-.93-.93A.93.93,0,0,1,331.58,259.1Z"/><path class="cls-1" d="M315.53,259.1a.93.93,0,1,1-.93-.93A.93.93,0,0,1,315.53,259.1Z"/><path class="cls-1" d="M319.63,259.1a.93.93,0,0,1-1.86,0,.93.93,0,1,1,1.86,0Z"/><path class="cls-1" d="M328,259.1a.93.93,0,1,1-.93-.93A.93.93,0,0,1,328,259.1Z"/><path class="cls-1" d="M346.71,259.1a.93.93,0,1,1-.93-.93A.93.93,0,0,1,346.71,259.1Z"/><path class="cls-5" d="M323.74,259.1a.93.93,0,1,1-.93-.93A.93.93,0,0,1,323.74,259.1Z"/><path class="cls-5" d="M335.49,259.1a.93.93,0,1,1-.93-.93A.93.93,0,0,1,335.49,259.1Z"/><polygon class="cls-6" points="363.94 215.1 351.56 215.14 351.56 194.71 363.94 194.68 363.94 215.1"/><polygon class="cls-6" points="363.94 190.27 351.56 190.3 351.56 169.88 363.94 169.84 363.94 190.27"/><polygon class="cls-6" points="363.94 240.15 351.56 240.18 351.56 219.76 363.94 219.72 363.94 240.15"/><polygon class="cls-6" points="363.94 265.51 351.56 265.55 351.56 245.12 363.94 245.09 363.94 265.51"/><rect class="cls-9" x="269.84" y="169.69" width="82.33" height="20.43"/><rect class="cls-6" x="273.49" y="173.89" width="16.21" height="2.49"/><rect class="cls-6" x="273.49" y="178.19" width="16.21" height="2.49"/><rect class="cls-6" x="273.49" y="182.62" width="16.21" height="2.49"/><path class="cls-6" d="M296.11,175.4a.93.93,0,1,1-.93-.93A.93.93,0,0,1,296.11,175.4Z"/><path class="cls-6" d="M300.21,175.4a.93.93,0,0,1-1.86,0,.93.93,0,0,1,1.86,0Z"/><path class="cls-6" d="M304.32,175.4a.93.93,0,1,1-.93-.93A.93.93,0,0,1,304.32,175.4Z"/><path class="cls-6" d="M308.42,175.4a.93.93,0,1,1-.93-.93A.93.93,0,0,1,308.42,175.4Z"/><path class="cls-6" d="M340.22,175.4a.93.93,0,1,1-.93-.93A.93.93,0,0,1,340.22,175.4Z"/><path class="cls-6" d="M344.4,175.4a.93.93,0,1,1-1.86,0,.93.93,0,0,1,1.86,0Z"/><path class="cls-6" d="M312.52,175.4a.93.93,0,0,1-1.86,0,.93.93,0,0,1,1.86,0Z"/><path class="cls-6" d="M332.68,175.4a.93.93,0,1,1-.93-.93A.93.93,0,0,1,332.68,175.4Z"/><path class="cls-1" d="M316.63,175.4a.93.93,0,1,1-.93-.93A.93.93,0,0,1,316.63,175.4Z"/><path class="cls-1" d="M320.73,175.4a.93.93,0,1,1-.93-.93A.93.93,0,0,1,320.73,175.4Z"/><path class="cls-1" d="M329.06,175.4a.93.93,0,1,1-.93-.93A.93.93,0,0,1,329.06,175.4Z"/><path class="cls-1" d="M347.81,175.4a.93.93,0,1,1-.93-.93A.93.93,0,0,1,347.81,175.4Z"/><path class="cls-5" d="M324.83,175.4a.93.93,0,0,1-1.86,0,.93.93,0,0,1,1.86,0Z"/><path class="cls-5" d="M336.58,175.4a.93.93,0,0,1-1.86,0,.93.93,0,0,1,1.86,0Z"/><path class="cls-6" d="M346,179.88a.93.93,0,1,1,.93.93A.93.93,0,0,1,346,179.88Z"/><path class="cls-6" d="M341.84,179.88a.93.93,0,0,1,1.86,0,.93.93,0,0,1-1.86,0Z"/><path class="cls-6" d="M337.74,179.88a.93.93,0,1,1,.93.93A.93.93,0,0,1,337.74,179.88Z"/><path class="cls-6" d="M333.64,179.88a.93.93,0,1,1,.93.93A.93.93,0,0,1,333.64,179.88Z"/><path class="cls-6" d="M301.84,179.88a.93.93,0,1,1,.93.93A.93.93,0,0,1,301.84,179.88Z"/><path class="cls-6" d="M297.66,179.88a.93.93,0,1,1,.93.93A.93.93,0,0,1,297.66,179.88Z"/><path class="cls-6" d="M329.53,179.88a.93.93,0,1,1,1.86,0,.93.93,0,1,1-1.86,0Z"/><path class="cls-6" d="M309.38,179.88a.93.93,0,1,1,1.86,0,.93.93,0,1,1-1.86,0Z"/><path class="cls-1" d="M325.43,179.88a.93.93,0,1,1,.93.93A.93.93,0,0,1,325.43,179.88Z"/><path class="cls-1" d="M321.33,179.88a.93.93,0,1,1,.93.93A.93.93,0,0,1,321.33,179.88Z"/><path class="cls-1" d="M313,179.88a.93.93,0,1,1,1.86,0,.93.93,0,1,1-1.86,0Z"/><path class="cls-1" d="M294.25,179.88a.93.93,0,1,1,.93.93A.93.93,0,0,1,294.25,179.88Z"/><path class="cls-5" d="M317.22,179.88a.93.93,0,0,1,1.86,0,.93.93,0,0,1-1.86,0Z"/><path class="cls-5" d="M305.48,179.88a.93.93,0,1,1,.93.93A.93.93,0,0,1,305.48,179.88Z"/><path class="cls-6" d="M296.11,183.87a.93.93,0,1,1-.93-.93A.93.93,0,0,1,296.11,183.87Z"/><path class="cls-6" d="M300.21,183.87a.93.93,0,1,1-.93-.93A.93.93,0,0,1,300.21,183.87Z"/><path class="cls-6" d="M304.32,183.87a.93.93,0,1,1-.93-.93A.93.93,0,0,1,304.32,183.87Z"/><path class="cls-6" d="M308.42,183.87a.93.93,0,1,1-.93-.93A.93.93,0,0,1,308.42,183.87Z"/><path class="cls-6" d="M340.22,183.87a.93.93,0,1,1-.93-.93A.93.93,0,0,1,340.22,183.87Z"/><path class="cls-6" d="M344.4,183.87a.93.93,0,1,1-.93-.93A.93.93,0,0,1,344.4,183.87Z"/><path class="cls-6" d="M312.52,183.87a.93.93,0,1,1-.93-.93A.93.93,0,0,1,312.52,183.87Z"/><path class="cls-6" d="M332.68,183.87a.93.93,0,1,1-.93-.93A.93.93,0,0,1,332.68,183.87Z"/><path class="cls-1" d="M316.63,183.87a.93.93,0,1,1-.93-.93A.93.93,0,0,1,316.63,183.87Z"/><path class="cls-1" d="M320.73,183.87a.93.93,0,1,1-.93-.93A.93.93,0,0,1,320.73,183.87Z"/><path class="cls-1" d="M329.06,183.87a.93.93,0,1,1-.93-.93A.93.93,0,0,1,329.06,183.87Z"/><path class="cls-1" d="M347.81,183.87a.93.93,0,1,1-.93-.93A.93.93,0,0,1,347.81,183.87Z"/><path class="cls-5" d="M324.83,183.87a.93.93,0,1,1-.93-.93A.93.93,0,0,1,324.83,183.87Z"/><path class="cls-5" d="M336.58,183.87a.93.93,0,1,1-.93-.93A.93.93,0,0,1,336.58,183.87Z"/><path class="cls-6" d="M216.63,23.25h.69l2,0,7.76,0,28.54-.06,94.15-.05a20.83,20.83,0,0,1,6.8,1,19,19,0,0,1,6,3.27,19.64,19.64,0,0,1,6.78,11.19A32.67,32.67,0,0,1,369.7,45v6.32c0,4.17,0,8.26,0,12.24,0,15.93,0,30.28,0,42.33,0,3,0,5.88,0,8.6v4a7.85,7.85,0,0,1-.72,3.65,7.52,7.52,0,0,1-5,4.14,11.48,11.48,0,0,1-2.94.22h-2.67l-7.76,0h-2l-.69,0,.69,0,2,0,7.76,0h2.67a11.1,11.1,0,0,0,2.9-.23,7.4,7.4,0,0,0,4.91-4.06,7.73,7.73,0,0,0,.68-3.57c0-1.28,0-2.6,0-4,0-2.72,0-5.59,0-8.6,0-12,0-26.4,0-42.33V45a32.46,32.46,0,0,0-.38-6.38,19.34,19.34,0,0,0-6.67-11,18.49,18.49,0,0,0-5.84-3.21,20.34,20.34,0,0,0-6.69-1l-94.15-.05-28.54-.06-7.76,0-2,0C216.86,23.27,216.63,23.25,216.63,23.25Z"/><rect class="cls-4" x="149.24" y="67.43" width="64.55" height="197.75"/><polygon class="cls-3" points="264.72 265.18 213.8 265.18 213.7 67.43 264.72 67.43 264.72 265.18"/><rect class="cls-6" x="152.82" y="99.08" width="54.76" height="15.42"/><rect class="cls-9" x="154.34" y="101.02" width="3.07" height="11.8"/><path class="cls-8" d="M161,103.5a1,1,0,1,1-1-1A1,1,0,0,1,161,103.5Z"/><path class="cls-8" d="M161,107.67a1,1,0,1,1-1-1A1,1,0,0,1,161,107.67Z"/><rect class="cls-9" x="164.92" y="102.53" width="3.01" height="9.06"/><rect class="cls-9" x="169.27" y="102.53" width="3.01" height="9.06"/><rect class="cls-9" x="173.62" y="102.53" width="3.01" height="9.06"/><rect class="cls-9" x="177.98" y="102.53" width="3.01" height="9.06"/><rect class="cls-9" x="182.33" y="102.53" width="3.01" height="9.06"/><rect class="cls-9" x="186.68" y="102.53" width="3.01" height="9.06"/><rect class="cls-9" x="191.03" y="102.53" width="3.01" height="9.06"/><rect class="cls-9" x="195.39" y="102.53" width="3.01" height="9.06"/><rect class="cls-9" x="199.74" y="102.53" width="3.01" height="9.06"/><rect class="cls-9" x="204.09" y="102.53" width="3.01" height="9.06"/><rect class="cls-6" x="152.82" y="121.23" width="54.76" height="15.42"/><rect class="cls-9" x="154.34" y="123.17" width="3.07" height="11.8"/><path class="cls-8" d="M161,125.65a1,1,0,0,1-2,0,1,1,0,1,1,2,0Z"/><path class="cls-8" d="M161,129.82a1,1,0,0,1-2,0,1,1,0,1,1,2,0Z"/><rect class="cls-9" x="164.92" y="124.67" width="3.01" height="9.06"/><rect class="cls-9" x="169.27" y="124.67" width="3.01" height="9.06"/><rect class="cls-9" x="173.62" y="124.67" width="3.01" height="9.06"/><rect class="cls-9" x="177.98" y="124.67" width="3.01" height="9.06"/><rect class="cls-9" x="182.33" y="124.67" width="3.01" height="9.06"/><rect class="cls-9" x="186.68" y="124.67" width="3.01" height="9.06"/><rect class="cls-9" x="191.03" y="124.67" width="3.01" height="9.06"/><rect class="cls-9" x="195.39" y="124.67" width="3.01" height="9.06"/><rect class="cls-9" x="199.74" y="124.67" width="3.01" height="9.06"/><rect class="cls-9" x="204.09" y="124.67" width="3.01" height="9.06"/><rect class="cls-6" x="152.82" y="143.55" width="54.76" height="15.42"/><rect class="cls-9" x="154.34" y="145.49" width="3.07" height="11.8"/><path class="cls-8" d="M161,148a1,1,0,1,1-1-1A1,1,0,0,1,161,148Z"/><path class="cls-8" d="M161,152.14a1,1,0,1,1-1-1A1,1,0,0,1,161,152.14Z"/><rect class="cls-9" x="164.92" y="147" width="3.01" height="9.06"/><rect class="cls-9" x="169.27" y="147" width="3.01" height="9.06"/><rect class="cls-9" x="173.62" y="147" width="3.01" height="9.06"/><rect class="cls-9" x="177.98" y="147" width="3.01" height="9.06"/><rect class="cls-9" x="182.33" y="147" width="3.01" height="9.06"/><rect class="cls-9" x="186.68" y="147" width="3.01" height="9.06"/><rect class="cls-9" x="191.03" y="147" width="3.01" height="9.06"/><rect class="cls-9" x="195.39" y="147" width="3.01" height="9.06"/><rect class="cls-9" x="199.74" y="147" width="3.01" height="9.06"/><rect class="cls-9" x="204.09" y="147" width="3.01" height="9.06"/><rect class="cls-6" x="152.82" y="167.67" width="54.76" height="15.42"/><rect class="cls-9" x="154.34" y="169.61" width="3.07" height="11.8"/><path class="cls-8" d="M161,172.09a1,1,0,0,1-2,0,1,1,0,1,1,2,0Z"/><path class="cls-8" d="M161,176.26a1,1,0,0,1-2,0,1,1,0,1,1,2,0Z"/><rect class="cls-9" x="164.92" y="171.11" width="3.01" height="9.06"/><rect class="cls-9" x="169.27" y="171.11" width="3.01" height="9.06"/><rect class="cls-9" x="173.62" y="171.11" width="3.01" height="9.06"/><rect class="cls-9" x="177.98" y="171.11" width="3.01" height="9.06"/><rect class="cls-9" x="182.33" y="171.11" width="3.01" height="9.06"/><rect class="cls-9" x="186.68" y="171.11" width="3.01" height="9.06"/><rect class="cls-9" x="191.03" y="171.11" width="3.01" height="9.06"/><rect class="cls-9" x="195.39" y="171.11" width="3.01" height="9.06"/><rect class="cls-9" x="199.74" y="171.11" width="3.01" height="9.06"/><rect class="cls-9" x="204.09" y="171.11" width="3.01" height="9.06"/><rect class="cls-6" x="152.82" y="192.02" width="54.76" height="15.42"/><rect class="cls-9" x="154.34" y="193.96" width="3.07" height="11.8"/><path class="cls-8" d="M161,196.44a1,1,0,1,1-1-1A1,1,0,0,1,161,196.44Z"/><path class="cls-8" d="M161,200.61a1,1,0,1,1-1-1A1,1,0,0,1,161,200.61Z"/><rect class="cls-9" x="164.92" y="195.47" width="3.01" height="9.06"/><rect class="cls-9" x="169.27" y="195.47" width="3.01" height="9.06"/><rect class="cls-9" x="173.62" y="195.47" width="3.01" height="9.06"/><rect class="cls-9" x="177.98" y="195.47" width="3.01" height="9.06"/><rect class="cls-9" x="182.33" y="195.47" width="3.01" height="9.06"/><rect class="cls-9" x="186.68" y="195.47" width="3.01" height="9.06"/><rect class="cls-9" x="191.03" y="195.47" width="3.01" height="9.06"/><rect class="cls-9" x="195.39" y="195.47" width="3.01" height="9.06"/><rect class="cls-9" x="199.74" y="195.47" width="3.01" height="9.06"/><rect class="cls-9" x="204.09" y="195.47" width="3.01" height="9.06"/><rect class="cls-6" x="152.82" y="240.49" width="54.76" height="15.42"/><rect class="cls-9" x="154.34" y="242.43" width="3.07" height="11.8"/><path class="cls-8" d="M161,244.91a1,1,0,1,1-1-1A1,1,0,0,1,161,244.91Z"/><path class="cls-8" d="M161,249.08a1,1,0,1,1-1-1A1,1,0,0,1,161,249.08Z"/><rect class="cls-9" x="164.92" y="243.94" width="3.01" height="9.06"/><rect class="cls-9" x="169.27" y="243.94" width="3.01" height="9.06"/><rect class="cls-9" x="173.62" y="243.94" width="3.01" height="9.06"/><rect class="cls-9" x="177.98" y="243.94" width="3.01" height="9.06"/><rect class="cls-9" x="182.33" y="243.94" width="3.01" height="9.06"/><rect class="cls-9" x="186.68" y="243.94" width="3.01" height="9.06"/><rect class="cls-9" x="191.03" y="243.94" width="3.01" height="9.06"/><rect class="cls-9" x="195.39" y="243.94" width="3.01" height="9.06"/><rect class="cls-9" x="199.74" y="243.94" width="3.01" height="9.06"/><rect class="cls-9" x="204.09" y="243.94" width="3.01" height="9.06"/><rect class="cls-6" x="152.82" y="216.28" width="54.76" height="15.42"/><rect class="cls-9" x="154.34" y="218.22" width="3.07" height="11.8"/><path class="cls-8" d="M161,220.7a1,1,0,1,1-1-1A1,1,0,0,1,161,220.7Z"/><path class="cls-8" d="M161,224.87a1,1,0,0,1-2,0,1,1,0,1,1,2,0Z"/><rect class="cls-9" x="164.92" y="219.73" width="3.01" height="9.06"/><rect class="cls-9" x="169.27" y="219.73" width="3.01" height="9.06"/><rect class="cls-9" x="173.62" y="219.73" width="3.01" height="9.06"/><rect class="cls-9" x="177.98" y="219.73" width="3.01" height="9.06"/><rect class="cls-9" x="182.33" y="219.73" width="3.01" height="9.06"/><rect class="cls-9" x="186.68" y="219.73" width="3.01" height="9.06"/><rect class="cls-9" x="191.03" y="219.73" width="3.01" height="9.06"/><rect class="cls-9" x="195.39" y="219.73" width="3.01" height="9.06"/><rect class="cls-9" x="199.74" y="219.73" width="3.01" height="9.06"/><rect class="cls-9" x="204.09" y="219.73" width="3.01" height="9.06"/><path class="cls-6" d="M186.68,99.08a2.48,2.48,0,0,1-.05-.47c0-.32,0-.78-.06-1.37s0-1.33-.06-2.17a13.73,13.73,0,0,0-.38-2.81,10.15,10.15,0,0,0-1.46-3.08,6.83,6.83,0,0,0-3-2.42,14.39,14.39,0,0,0-4.26-.86l-4.72-.41c-6.46-.56-12.32-.92-16.57-1-2.12,0-3.84,0-5,0h-1.37a3.58,3.58,0,0,1-.48,0,2,2,0,0,1,.48-.06l1.36-.08c1.19,0,2.92-.1,5-.08,4.26,0,10.14.33,16.6.89l4.72.42a14.7,14.7,0,0,1,4.35.9A7.07,7.07,0,0,1,184.9,89a10.18,10.18,0,0,1,1.47,3.18,13.66,13.66,0,0,1,.33,2.87c0,.85,0,1.58,0,2.17s0,1,0,1.37A2.49,2.49,0,0,1,186.68,99.08Z"/><path class="cls-6" d="M170.07,99.08a2.56,2.56,0,0,1,0-.45l0-1.29c0-.56,0-1.24-.06-2a6.46,6.46,0,0,0-.67-2.54,4.91,4.91,0,0,0-2.48-1.9,6.79,6.79,0,0,0-3.61-.37,6.11,6.11,0,0,0-1.86.63,3.68,3.68,0,0,0-1.45,1.37,2,2,0,0,0,0,1.94,2.6,2.6,0,0,0,1.64,1.23,2.09,2.09,0,0,0,1.92-.55,2.75,2.75,0,0,0,.29-3.71,4,4,0,0,0-1.45-1.27,5,5,0,0,0-1.81-.47l-1.8-.24c-1.16-.13-2.25-.2-3.25-.25-2-.07-3.61,0-4.73,0h-1.29a1.72,1.72,0,0,1-.45,0,3.09,3.09,0,0,1,.45,0L150.7,89c1.12,0,2.74-.11,4.75-.06,1,0,2.1.09,3.27.2.59.06,1.19.14,1.82.23.31,0,.62.08,1,.14a3.79,3.79,0,0,1,1,.34A4.38,4.38,0,0,1,164,91.22a3.13,3.13,0,0,1,.65,2.09,3.24,3.24,0,0,1-1,2.06,2.44,2.44,0,0,1-2.24.64,2.91,2.91,0,0,1-1.86-1.4,2.32,2.32,0,0,1,0-2.27,3.88,3.88,0,0,1,1.59-1.5,6.54,6.54,0,0,1,2-.66,7.06,7.06,0,0,1,3.77.42,5.15,5.15,0,0,1,2.58,2.05,6.31,6.31,0,0,1,.65,2.65c0,.8,0,1.49,0,2s0,1,0,1.29A3.09,3.09,0,0,1,170.07,99.08Z"/><path class="cls-6" d="M191.15,99.08a3,3,0,0,1-.11-.51c-.06-.34-.15-.83-.29-1.46a28.12,28.12,0,0,0-1.61-5.23,15.15,15.15,0,0,0-4.77-6.39A8.91,8.91,0,0,0,180,83.82a47.35,47.35,0,0,0-5.14-.27c-7.08-.14-13.49-.11-18.13-.29-2.32-.08-4.2-.19-5.49-.28l-1.49-.12-.52-.07a3.43,3.43,0,0,1,.52,0l1.5.06c1.29.05,3.17.12,5.49.16,4.63.12,11,.06,18.13.19a43.69,43.69,0,0,1,5.17.29,9.21,9.21,0,0,1,4.52,1.74,13.87,13.87,0,0,1,3,3.19,19.09,19.09,0,0,1,1.79,3.37,25.87,25.87,0,0,1,1.51,5.29c.12.64.19,1.14.23,1.48A2.89,2.89,0,0,1,191.15,99.08Z"/><rect class="cls-6" x="153.57" y="69.89" width="53.25" height="7.73"/><rect class="cls-9" x="165.28" y="73.76" width="28.99" height="3.87"/><path class="cls-6" d="M228.55,230.22s-.59.1-1.61.4a13.6,13.6,0,0,0-4,2,10.77,10.77,0,0,0-2.26,2.1,7.49,7.49,0,0,0-.93,1.43,10.11,10.11,0,0,0-.58,1.71c-.61,2.45-.43,5.24-.31,8.16a16.94,16.94,0,0,1-1.22,8.14,8.8,8.8,0,0,1-2.17,2.9,10.49,10.49,0,0,1-2.67,1.7,10,10,0,0,1-2.49.74,9.14,9.14,0,0,1-2,.09,7.1,7.1,0,0,1-1.23-.2l-.41-.12c0-.05.58.14,1.64.18a10,10,0,0,0,1.93-.14,10.62,10.62,0,0,0,5-2.46,9,9,0,0,0,2.08-2.83,17.08,17.08,0,0,0,1.16-8c-.12-2.9-.3-5.74.34-8.24a10.37,10.37,0,0,1,.61-1.78,8.64,8.64,0,0,1,1-1.48,11.34,11.34,0,0,1,2.34-2.11,12.86,12.86,0,0,1,4.13-1.9,10.08,10.08,0,0,1,1.22-.24A2.31,2.31,0,0,1,228.55,230.22Z"/><rect class="cls-6" x="204" y="256.85" width="4.37" height="5.32"/><rect class="cls-9" x="228.55" y="216.79" width="24.51" height="26.86"/><circle class="cls-6" cx="240.81" cy="230.33" r="8.07" transform="translate(-36.07 415.74) rotate(-77.54)"/><path class="cls-9" d="M244.84,230.33a4,4,0,1,1-4-4A4,4,0,0,1,244.84,230.33Z"/><circle class="cls-6" cx="231.86" cy="220.96" r="0.75"/><circle class="cls-6" cx="249.31" cy="220.96" r="0.75"/><path class="cls-6" d="M250.22,240.8a.75.75,0,1,1-.75-.75A.75.75,0,0,1,250.22,240.8Z"/><circle class="cls-6" cx="231.86" cy="241.1" r="0.75"/><rect class="cls-6" x="253.06" y="216.79" width="1.98" height="26.86"/><path class="cls-5" d="M223.22,37.66c2.42-5.66.95-11.55-3-16.24A17.05,17.05,0,0,0,203.54,16a18.62,18.62,0,0,0-36.93,2.4A13.94,13.94,0,0,0,156,37.34Z"/><path class="cls-6" d="M362.49,181.88a.64.64,0,0,1,.24,0l.7,0,2.69,0a14.84,14.84,0,0,0,4.18-.49,12.91,12.91,0,0,0,8.73-8.06,14.11,14.11,0,0,0,.51-1.78,13,13,0,0,0,.23-1.89c.08-1.29,0-2.65,0-4,0-5.52,0-11.59,0-18v-4.72a17.33,17.33,0,0,0-.09-2.29,10.07,10.07,0,0,0-.51-2.17,10.38,10.38,0,0,0-5.67-6c-2.52-1.16-5.23-.76-7.67-.87l-6.83-.07-9.89-.12-2.69,0-.7,0-.23,0a.6.6,0,0,1,.23,0h.7l2.69,0,9.89,0,6.84,0,3.8,0a10.41,10.41,0,0,1,4,.83,10.7,10.7,0,0,1,5.86,6.23,10.47,10.47,0,0,1,.54,2.24,20.17,20.17,0,0,1,.09,2.33v4.72c0,6.37,0,12.44,0,18,0,1.39,0,2.72,0,4.05a12.44,12.44,0,0,1-.78,3.75,13.08,13.08,0,0,1-8.94,8.15,14.68,14.68,0,0,1-4.24.43l-2.69,0-.7,0Z"/><polygon class="cls-8" points="184.28 37.46 184.28 27.99 179.54 27.99 186.68 17.91 193.82 27.92 189.17 27.92 189.17 37.46 184.28 37.46"/><polygon class="cls-3" points="346.74 160.23 351.79 166.82 361.39 162.57 355.25 152.71 346.74 160.23"/><polygon class="cls-9" points="349.73 161.01 349.89 164.26 353.06 165.75 352.9 162.41 349.73 161.01"/><polygon class="cls-9" points="352.75 159.18 352.9 162.44 356.08 163.93 355.92 160.59 352.75 159.18"/><polygon class="cls-9" points="355.81 157.36 355.97 160.62 359.14 162.11 358.98 158.77 355.81 157.36"/><path class="cls-5" d="M361.77,162.44l-1.09-1.68-9.41,6,2.21,3.71.62-.3c2.74-1.4,13.82-7.28,15.28-8.85C371,159.53,361.77,162.44,361.77,162.44Z"/><g class="cls-10"><path class="cls-8" d="M356.92,168.33a3.93,3.93,0,0,0-2.39-1.43,3.23,3.23,0,0,0-2.72.72l1.61,2.67Z"/></g><path class="cls-11" d="M366.37,161.16s3.34-.84,3.25-.16-11.05,7.05-16.14,9.43l-.1-.22,12.86-7.32S365.82,161.51,366.37,161.16Z"/><path class="cls-6" d="M353.22,170.29s.06,0,.18-.08l.49-.24,1.79-.94c1.5-.81,3.57-1.94,5.82-3.25s4.27-2.53,5.72-3.44l1.7-1.09.46-.3.15-.11s-.06,0-.17.09l-.47.28-1.72,1c-1.46.89-3.48,2.1-5.73,3.4s-4.31,2.46-5.81,3.28l-1.77,1-.48.27Z"/><path class="cls-6" d="M366.32,163a4.59,4.59,0,0,1-.16-1,4.75,4.75,0,0,1,.21-1,1.54,1.54,0,0,0-.34,1A1.47,1.47,0,0,0,366.32,163Z"/><path class="cls-6" d="M362.65,163.25s.08-.24.09-.55,0-.55-.05-.55a1.51,1.51,0,0,0-.09.55C362.59,163,362.61,163.25,362.65,163.25Z"/><path class="cls-6" d="M361.63,163.29s.13-.18.21-.42a1,1,0,0,0,.08-.47s-.13.18-.21.42A1,1,0,0,0,361.63,163.29Z"/><path class="cls-6" d="M360.61,162.67a1.34,1.34,0,0,0,.54-.23c.28-.16.49-.31.47-.35a1.39,1.39,0,0,0-.53.23C360.81,162.48,360.6,162.63,360.61,162.67Z"/><path class="cls-6" d="M360.07,162.13a1.19,1.19,0,0,0,.66-.17c.34-.16.55-.38.53-.41a4.16,4.16,0,0,0-.59.29A4.05,4.05,0,0,0,360.07,162.13Z"/><path class="cls-6" d="M362.49,162.22a2.24,2.24,0,0,0,.61-.36,4.51,4.51,0,0,0,.58-.53A2.24,2.24,0,0,0,364,161a.34.34,0,0,0,0-.28.27.27,0,0,0-.23-.2,1.32,1.32,0,0,0-1.21,1.15,1.21,1.21,0,0,0,0,.53c0,.12.07.18.08.17a1.84,1.84,0,0,1,0-.69A1.39,1.39,0,0,1,363,161a1.11,1.11,0,0,1,.77-.37c.14,0,.17.15.09.28a2.11,2.11,0,0,1-.26.35,4.44,4.44,0,0,1-.54.53C362.71,162.06,362.48,162.2,362.49,162.22Z"/><path class="cls-6" d="M362.67,162.16a.73.73,0,0,0-.18-.47,1.31,1.31,0,0,0-.43-.36.72.72,0,0,0-.7,0,.27.27,0,0,0,0,.39.67.67,0,0,0,.26.22,2.23,2.23,0,0,0,.51.2,1.13,1.13,0,0,0,.5.05s-.19,0-.47-.14a2.81,2.81,0,0,1-.48-.22c-.16-.08-.35-.28-.21-.4a.65.65,0,0,1,.56,0,1.05,1.05,0,0,1,.4.3C362.61,162,362.64,162.17,362.67,162.16Z"/><path class="cls-6" d="M351.89,167.55s.26-.19.73-.39a3.58,3.58,0,0,1,1.91-.26,3.52,3.52,0,0,1,1.77.81c.38.32.56.59.58.58a.71.71,0,0,0-.12-.2,2.79,2.79,0,0,0-.4-.46,3.45,3.45,0,0,0-1.81-.86,3.38,3.38,0,0,0-2,.31,2.8,2.8,0,0,0-.53.32A.54.54,0,0,0,351.89,167.55Z"/><path class="cls-6" d="M357.59,166.69a5.67,5.67,0,0,0,1.48-.67,6.31,6.31,0,0,0,1.34-.93s-.63.37-1.4.81S357.57,166.66,357.59,166.69Z"/><path class="cls-6" d="M355.7,167.78s.13.11.28.21.26.22.29.2,0-.18-.21-.3S355.71,167.75,355.7,167.78Z"/><path class="cls-6" d="M354.48,167.31s.11.1.27.15.29,0,.3,0-.11-.1-.26-.14S354.49,167.28,354.48,167.31Z"/><path class="cls-6" d="M353.23,167.5s.15-.05.32-.08.32,0,.33,0-.14-.12-.35-.08S353.2,167.48,353.23,167.5Z"/><path class="cls-6" d="M352.4,167.73s.09.05.19,0,.17-.06.16-.1-.09,0-.19,0S352.39,167.69,352.4,167.73Z"/><path class="cls-6" d="M283,155.35l37.57-35.43a12.36,12.36,0,0,1,8.84-3.72h0a12.34,12.34,0,0,1,10.72,6.22l19.22,33-12.19,7L328.65,139,310.1,155.71Z"/><path class="cls-6" d="M272,157.13c-.16.48-1.28,12.58,15,12.58h43.41a10,10,0,0,0,9.95-10h0a10,10,0,0,0-9.95-9.95H289.91a10,10,0,0,0-4.19.93Z"/><path class="cls-9" d="M334.17,149.81c0,.1-9,.18-20,.18s-20-.08-20-.18,9-.17,20-.17S334.17,149.72,334.17,149.81Z"/><path class="cls-9" d="M327.47,130.66c.1,0,.11,1.88.45,4.16s.86,4.08.76,4.11a13.33,13.33,0,0,1-1.11-4.06A13.17,13.17,0,0,1,327.47,130.66Z"/><path class="cls-9" d="M329.31,130.39a17.59,17.59,0,0,1,0,4.28,17.7,17.7,0,0,1-.71,4.21c-.1,0,.17-1.9.37-4.24S329.21,130.4,329.31,130.39Z"/><path class="cls-6" d="M295.65,77.1a1.29,1.29,0,0,1-.64,1.24,1.31,1.31,0,0,1-1.4-.1c-.74-.58-.62-1.74-.28-2.61a4.78,4.78,0,0,0,.61-2.7,6.16,6.16,0,0,0-1.1-1.83,4,4,0,0,1-.45-3.58,3.39,3.39,0,0,1,2.81-2.18c1.27-.11,2.69.55,3.76-.14.77-.51,1-1.54,1.66-2.2,1-1,2.71-.88,4.07-.42s2.69,1.19,4.13,1.12a19.57,19.57,0,0,0,3.46-1,6.29,6.29,0,0,1,6.38,10c-.58.73-1.9,2.91-4.51,2.37"/><path class="cls-12" d="M297.14,67.21l-.35,1.89-5.45,28.14a6.14,6.14,0,0,0,5.17,7.07h0a6.5,6.5,0,0,0,7.66-4.77c.73-3.45,1.56-7.07,1.56-7.07s4.61.18,6.74-5.44a64.11,64.11,0,0,0,2.45-11.48,6.26,6.26,0,0,0-5.57-7.12Z"/><path class="cls-6" d="M312.29,78.35a.77.77,0,0,1-.88.6.74.74,0,0,1-.63-.83.76.76,0,0,1,.88-.6A.73.73,0,0,1,312.29,78.35Z"/><path class="cls-6" d="M313.38,77.8c-.11.08-.59-.45-1.39-.62s-1.47.12-1.54,0,.1-.21.39-.34a2.1,2.1,0,0,1,1.26-.12,2,2,0,0,1,1.08.62C313.39,77.58,313.44,77.77,313.38,77.8Z"/><path class="cls-6" d="M304.62,76.79a.76.76,0,0,1-.87.6.72.72,0,0,1-.63-.83A.75.75,0,0,1,304,76,.72.72,0,0,1,304.62,76.79Z"/><path class="cls-6" d="M305.47,76.32c-.11.07-.59-.46-1.39-.62s-1.47.11-1.54,0,.1-.2.39-.34a2.18,2.18,0,0,1,1.26-.12,2,2,0,0,1,1.08.62C305.48,76.09,305.53,76.28,305.47,76.32Z"/><path class="cls-6" d="M307.15,82.86a6.36,6.36,0,0,1,1.35,0c.21,0,.41,0,.47-.11a1.07,1.07,0,0,0,0-.64l-.28-1.68a26.65,26.65,0,0,1-.51-4.36,27.17,27.17,0,0,1,.86,4.31c.09.59.18,1.15.26,1.69a1.3,1.3,0,0,1-.06.82.56.56,0,0,1-.4.23,1.94,1.94,0,0,1-.36,0A5.12,5.12,0,0,1,307.15,82.86Z"/><path class="cls-13" d="M305.73,92.47a15.07,15.07,0,0,1-7.35-3.7s1.06,4.39,7,5Z"/><path class="cls-6" d="M304.67,82.93c.14,0,0,.89.57,1.66s1.57.87,1.55,1-.24.13-.64.06a2.28,2.28,0,0,1-1.3-.78,2,2,0,0,1-.42-1.38C304.47,83.11,304.62,82.91,304.67,82.93Z"/><path class="cls-6" d="M306.33,73.22c-.12.2-.9-.07-1.86-.15s-1.78,0-1.87-.21.14-.28.49-.43a3.32,3.32,0,0,1,1.46-.19,3.15,3.15,0,0,1,1.38.46C306.25,72.91,306.39,73.12,306.33,73.22Z"/><path class="cls-6" d="M313.57,75.42c-.18.15-.69-.15-1.35-.3s-1.25-.13-1.34-.35.08-.26.37-.38a1.83,1.83,0,0,1,1.16-.07,1.9,1.9,0,0,1,1,.59C313.61,75.14,313.65,75.35,313.57,75.42Z"/><path class="cls-6" d="M315.65,73a8.45,8.45,0,0,1-6.89-1.73c-2.36-1.74-5.27-2.9-6-2.5s-1.36,3-4.06,3.38c0,0-.72,5.12-2.71,4.59s.41-10.62.41-10.62L302,67l5.59-.07,5,1.61,3.76,1.77Z"/><path class="cls-6" d="M296.53,64.67c0-.08.5-.16,1,.16s.68.81.6.83-.33-.31-.76-.57S296.53,64.76,296.53,64.67Z"/><path class="cls-6" d="M298.56,63.31c.1,0-.06.61-.1,1.32s.16,1.27.07,1.31a1.68,1.68,0,0,1-.38-1.32A2.08,2.08,0,0,1,298.56,63.31Z"/><path class="cls-12" d="M296.51,74.7c-.08-.06-3.12-1.85-3.86,1.53s2.81,3.43,2.83,3.33S296.51,74.7,296.51,74.7Z"/><path class="cls-13" d="M294.73,78.05s-.07,0-.18.06a.65.65,0,0,1-.44-.09,1.51,1.51,0,0,1-.39-1.46,2,2,0,0,1,.35-.8.69.69,0,0,1,.54-.36.32.32,0,0,1,.32.24c0,.1,0,.17,0,.18s.09,0,.09-.19a.36.36,0,0,0-.09-.24.49.49,0,0,0-.3-.16.83.83,0,0,0-.73.39,1.92,1.92,0,0,0-.41.9,1.56,1.56,0,0,0,.54,1.65.63.63,0,0,0,.55,0C294.71,78.13,294.74,78.06,294.73,78.05Z"/><path class="cls-9" d="M307.71,76.67s0-.32-.18-.86a3.56,3.56,0,0,0-1.31-1.89,3.44,3.44,0,1,0,0,5.51,3.54,3.54,0,0,0,1.31-1.9c.15-.54.15-.86.18-.86a.64.64,0,0,1,0,.24,2.61,2.61,0,0,1-.07.66,3.57,3.57,0,0,1-1.29,2.06,3.73,3.73,0,0,1-3.53.57,3.65,3.65,0,0,1-1.75-1.3,3.72,3.72,0,0,1,0-4.45,3.65,3.65,0,0,1,1.75-1.3,3.7,3.7,0,0,1,3.53.57,3.57,3.57,0,0,1,1.29,2.06,2.58,2.58,0,0,1,.07.66A.6.6,0,0,1,307.71,76.67Z"/><path class="cls-9" d="M316.33,78.23s0-.32-.17-.86a3.64,3.64,0,0,0-1.32-1.9,3.45,3.45,0,1,0,0,5.52,3.6,3.6,0,0,0,1.32-1.9c.15-.54.14-.86.17-.86s0,.08,0,.23a3.21,3.21,0,0,1-.07.67,3.62,3.62,0,0,1-1.3,2.06,3.72,3.72,0,0,1-5.28-.73,3.72,3.72,0,0,1,0-4.45,3.63,3.63,0,0,1,1.75-1.3,3.7,3.7,0,0,1,3.53.57,3.59,3.59,0,0,1,1.3,2.06,3.13,3.13,0,0,1,.07.66C316.35,78.15,316.35,78.23,316.33,78.23Z"/><path class="cls-9" d="M300.93,74.68a6.58,6.58,0,0,1-2.16.18,7,7,0,0,1-2.16-.16,6.63,6.63,0,0,1,2.16-.18A7,7,0,0,1,300.93,74.68Z"/><path class="cls-9" d="M309.15,77.55c-.09,0-.3-.29-.7-.4s-.75,0-.8,0,0-.14.19-.23a1,1,0,0,1,1.27.37C309.19,77.41,309.19,77.53,309.15,77.55Z"/><polygon class="cls-3" points="301.2 149.53 301.2 147.3 332.94 147.95 351.21 118.75 352.89 119.96 334.17 149.81 301.2 149.53"/><path class="cls-12" d="M323.16,139.8l1.59,2.37V147a1,1,0,0,1-1.15-.47,19.54,19.54,0,0,1-.77-2.92l-.78,2a1.72,1.72,0,0,1-2,1l-5.89-1.48,2.41-6.87Z"/><path class="cls-5" d="M290.66,92.69s-8.79,2.2-11.42,6.15-5.64,10.52-8.87,23.24c-2.82,11.1-5,28.84-1.94,33a13,13,0,0,0,3.44,3.59l6.78-2.43a52.44,52.44,0,0,0,17.65-10.62l10.41-9.49-5.51-4.35s4.19-22.62,3.07-30.53C303.3,94.34,290.66,92.69,290.66,92.69Z"/><path class="cls-5" d="M292.93,99.51c-3.38.84-6.63,2.21-11.25,2.6a5.12,5.12,0,0,1-3.12-.68c-2.92-1.8-1.91-5.13-.32-7.38s4.35-4.43,7.26-4.13A3.34,3.34,0,0,1,287.16,86a5.48,5.48,0,0,1,4.49-.1,16.51,16.51,0,0,1,3.94,2.42l5,3.75a9.41,9.41,0,0,1,2.9,3c.65,1.24,3,6.1,2,7a3.33,3.33,0,0,1-2,0l-.12-.09A12.15,12.15,0,0,0,292.93,99.51Z"/><path class="cls-5" d="M287.94,103.63l-5.81,27.14a9.71,9.71,0,0,0,6.18,11.17l25.23,4.84,3.15-9.41h0L296.21,131l6-26.22Z"/><path class="cls-6" d="M281.91,135.94s0,.05,0,.15l.1.47.07.35.14.41.18.47.27.5a6.9,6.9,0,0,0,2,2.16,11.44,11.44,0,0,0,3.71,1.61l25,4.57-.17.1,3.29-9.41.1.21-20.48-6.38-.16-.05,0-.16c.36-1.4.74-2.9,1.13-4.4,1.19-4.76,2.3-9.41,3.27-13.92.48-2.26.93-4.49,1.24-6.68.09-.55.09-1.09.14-1.63a7,7,0,0,0-.18-1.59,6.66,6.66,0,0,0-1.4-2.78,6.8,6.8,0,0,0-5.35-2.39,7,7,0,0,0-5,2.51,13.22,13.22,0,0,0-2.56,4.72,43.42,43.42,0,0,0-1.16,4.88C285,116,284,121.05,283.26,124.59c-.36,1.75-.63,3.11-.82,4-.1.45-.17.8-.22,1.05a3.57,3.57,0,0,1-.09.36s0-.12.05-.36.11-.61.19-1.06c.18-.94.43-2.31.75-4.07.68-3.54,1.64-8.64,2.84-14.94a40.36,40.36,0,0,1,1.15-4.92,13.24,13.24,0,0,1,2.6-4.83,7.26,7.26,0,0,1,5.17-2.63,7.17,7.17,0,0,1,5.61,2.49,7,7,0,0,1,1.47,2.92,7.68,7.68,0,0,1,.19,1.66c0,.56,0,1.13-.14,1.67-.31,2.22-.76,4.44-1.23,6.71-1,4.52-2.09,9.18-3.28,13.93-.38,1.51-.76,3-1.12,4.41l-.12-.21,20.48,6.4.16.05-.06.16c-1.15,3.27-2.26,6.42-3.3,9.4l-.05.12-.12,0c-10.33-1.94-18.93-3.51-25-4.7a11.29,11.29,0,0,1-3.73-1.67,6.73,6.73,0,0,1-2.05-2.22c-.09-.19-.18-.36-.27-.52l-.16-.48-.14-.41-.06-.36-.07-.47A1,1,0,0,1,281.91,135.94Z"/><path class="cls-6" d="M292.69,134.54s-.07-.32.05-.81a3.88,3.88,0,0,1,1-1.69,3.71,3.71,0,0,1,1.72-.94c.5-.11.82-.06.82,0a4.45,4.45,0,0,1-.75.25,4.53,4.53,0,0,0-1.55,1,4.23,4.23,0,0,0-1,1.51C292.8,134.24,292.75,134.54,292.69,134.54Z"/><g class="cls-14"><path d="M287.34,103.27a156.29,156.29,0,0,0-6.07,29,23.29,23.29,0,0,0-.14,6.82,7.57,7.57,0,0,0,9.58,6.65c2.1-.4,5.48-.86,7.41-1.77l-11.29-2.33s-7.28-.45-4.15-14.39S287.34,103.27,287.34,103.27Z"/></g><g class="cls-14"><path d="M277.72,101c-.05,1.12.06,2.49,1.07,3s2.17-.39,3-1.17a48.26,48.26,0,0,1,11.48-7.87,26.89,26.89,0,0,0-15.54,6.28"/></g><path class="cls-6" d="M299.83,97.55a17.86,17.86,0,0,0-3.11-1.66,12.78,12.78,0,0,0-3.71-.84,12.21,12.21,0,0,0-4.6.5,23.11,23.11,0,0,0-4.29,1.87c-1.27.7-2.4,1.35-3.38,1.86a24.71,24.71,0,0,1-2.35,1.12,4.76,4.76,0,0,1-.91.3,7,7,0,0,1,.85-.42c.55-.27,1.34-.67,2.3-1.21L284,97.14a22.27,22.27,0,0,1,4.34-1.93,12.24,12.24,0,0,1,4.73-.48,12.61,12.61,0,0,1,3.77.93,11.47,11.47,0,0,1,2.29,1.27c.25.18.43.34.56.44S299.84,97.54,299.83,97.55Z"/><path class="cls-6" d="M303.37,99c-.05,0-.85-.76-2.26-1.89a33.73,33.73,0,0,0-5.94-3.82,33.35,33.35,0,0,0-6.62-2.45c-1.76-.44-2.87-.59-2.87-.66a4,4,0,0,1,.8.06,19.24,19.24,0,0,1,2.13.37,29.58,29.58,0,0,1,6.72,2.37,29.14,29.14,0,0,1,5.94,3.94,17.46,17.46,0,0,1,1.57,1.48A3.64,3.64,0,0,1,303.37,99Z"/><path class="cls-3" d="M305.05,120.92a2.24,2.24,0,0,1-.13-.56,15.91,15.91,0,0,1-.22-1.6,8.08,8.08,0,0,1,.11-2.5,1.45,1.45,0,0,1,1.1-1.12.86.86,0,0,1,.86.35.77.77,0,0,1,0,1l0,0h-.05a1.08,1.08,0,0,1-1-.38,1.85,1.85,0,0,1-.41-.94c-.08-.67-.08-1.31-.12-2-.17-3.2-.3-6.1-.38-8.2,0-1-.05-1.84-.07-2.49a4.19,4.19,0,0,1,0-.92,5.46,5.46,0,0,1,.11.91L305,105c.14,2.1.31,5,.47,8.2,0,.67,0,1.35.12,2a1.49,1.49,0,0,0,.32.77.78.78,0,0,0,.66.28l-.09,0a.45.45,0,0,0,0-.56.51.51,0,0,0-.54-.23,1.16,1.16,0,0,0-.88.9,8.63,8.63,0,0,0-.18,2.4C305,120.11,305.1,120.92,305.05,120.92Z"/><path class="cls-6" d="M294.08,143a6.76,6.76,0,0,1-.82.77c-.53.48-1.33,1.15-2.34,2a75.72,75.72,0,0,1-8.32,5.69,72,72,0,0,1-9,4.47c-1.2.48-2.18.85-2.86,1.08a5.61,5.61,0,0,1-1.07.32,6.93,6.93,0,0,1,1-.45c.67-.27,1.63-.67,2.81-1.18a84.27,84.27,0,0,0,8.95-4.54,89.09,89.09,0,0,0,8.35-5.59c1-.77,1.85-1.41,2.41-1.86A6.24,6.24,0,0,1,294.08,143Z"/><path class="cls-6" d="M273.73,158.21c-.08.06-.48-.35-.89-.9s-.69-1-.62-1.1.48.34.9.89S273.81,158.15,273.73,158.21Z"/><path class="cls-6" d="M277.76,156.5c-.05.08-.6-.23-1.12-.8s-.78-1.15-.7-1.2.46.42,1,1S277.82,156.42,277.76,156.5Z"/><path class="cls-6" d="M282.83,154.83c-.07.07-.63-.45-1.25-1.15a4.32,4.32,0,0,1-1-1.38c.07-.07.63.45,1.25,1.15A4.32,4.32,0,0,1,282.83,154.83Z"/><path class="cls-6" d="M288.27,151.94c-.08.07-.67-.53-1.34-1.33a5.32,5.32,0,0,1-1.06-1.56c.07-.07.67.53,1.33,1.33A5.48,5.48,0,0,1,288.27,151.94Z"/><path class="cls-6" d="M293.32,148.17c-.07.07-.7-.4-1.43-1.06s-1.26-1.24-1.19-1.31a4.8,4.8,0,0,1,1.43,1C292.85,147.51,293.38,148.1,293.32,148.17Z"/><circle class="cls-9" cx="340.24" cy="93.94" r="1.55" transform="translate(170.54 403.44) rotate(-76.7)"/><path class="cls-9" d="M337.14,92a4.31,4.31,0,0,1,6.22-.08.87.87,0,0,0,1.24-1.23,6.06,6.06,0,0,0-8.69.08c-.77.81.45,2,1.23,1.23Z"/><path class="cls-9" d="M331.87,84.73a12.75,12.75,0,0,1,8.33-3.33,12.39,12.39,0,0,1,8.49,3.26c.82.76,2.06-.46,1.24-1.23a14.17,14.17,0,0,0-9.72-3.77,14.57,14.57,0,0,0-9.57,3.84c-.85.73.38,2,1.23,1.23Z"/><path class="cls-9" d="M334,88.74a8.52,8.52,0,0,1,12.54-.18c.78.8,2-.43,1.24-1.23a10.28,10.28,0,0,0-15,.17c-.76.82.47,2.06,1.23,1.24Z"/></svg>