<svg id="Layer_1" data-name="Layer 1" xmlns="http://www.w3.org/2000/svg" viewBox="0 0 102.58 96.87"><defs><style>.cls-1{fill:#010101;}.cls-2{fill:#6d97ca;}.cls-3{fill:#719dd2;}.cls-4{fill:#141f2e;}.cls-5{fill:#080f18;}.cls-6{fill:#141f2d;}.cls-7{fill:#111b28;}.cls-8{fill:#0d1622;}.cls-9{fill:#0f1825;}.cls-10{fill:#0f1927;}.cls-11{fill:#162131;}.cls-12{fill:#0c141f;}.cls-13{fill:#15202f;}.cls-14{fill:#6b96cb;}.cls-15{fill:#89ca8c;}.cls-16{fill:#f6d87a;}</style></defs><title>ايقونات وصور الاستضافة</title><path class="cls-1" d="M75.59,49.24c0,1.8.88,1.75,2.1,1.71s2.28,0,3.43,0c4.06,0,5.33,1.23,5.35,5.2s0,7.82,0,11.73S85.2,73,81.3,73h-2c-5.41,0-10.82.07-16.22,0-1.28,0-2.55,0-3.82-.06a6.35,6.35,0,0,0-1.12.06H44.4a6.35,6.35,0,0,0-1.12-.06q-1.77,0-3.54.06c-5.31.07-10.61,0-15.91,0h-2c-4.45,0-5.59-1.15-5.61-5.55q0-5.58,0-11.16c0-4.1,1.23-5.32,5.22-5.34a29.86,29.86,0,0,1,3.14,0c1.49.17,1.92-.37,1.93-1.87s-.74-1.7-1.91-1.58a2.8,2.8,0,0,1-.29,0c-8.1-.14-8.1-.14-8.1-8.15,0-3,0-6.1,0-9.16.06-3.29,1.27-4.48,4.47-4.51,1.24,0,2.49-.06,3.72,0s2.07,0,2.11-1.75c0-1.87-.84-1.88-2.24-1.9-8-.1-8.07-.21-8.07-8.26,0-3,0-6.1,0-9.15C16.31,1.33,17.69,0,21,0c3.91,0,7.82,0,11.73,0,1.34,0,2.48.1,3,1.59h0c-.06,2.06-1.66,2-3,2.13-3,.18-6.09.12-9.14.06-2.22,0-3.07.9-3,3.06.08,2.67.09,5.34,0,8-.07,2.37,1,3.17,3.29,3.14,5.05-.06,10.1,0,15.15,0,13.34,0,26.68-.1,40,.07h.1l.52-.05c3.09-.3,3.17-.57,3.2-4,0-2.47,0-5,0-7.43,0-1.72-.77-2.64-2.56-2.73l-.75,0-1.2,0h0l-1.18,0H43.88a22.17,22.17,0,0,1-4-.16C39,3.2,38.2,2.79,38.38,1.62h0C38.68.17,39.7,0,41,0Q61.54,0,82.13,0c2.74,0,4.19,1.43,4.28,3.92.18,4.66.13,9.34,0,14a3.76,3.76,0,0,1-3.89,4c-1.52.07-3,.06-4.57.09-1.18,0-2.44-.39-2.39,1.73,0,1.83.84,2,2.26,1.89s2.86,0,4.29,0c2.92,0,4.23,1.16,4.31,4.1.11,4.48.1,9,0,13.44-.07,2.94-1.55,4.24-4.51,4.28-1.43,0-2.86,0-4.29,0C76.39,47.45,75.6,47.51,75.59,49.24Z"/><path class="cls-2" d="M79.05,18.84q-28.83.06-57.66.15c-1.71,0-2.1-.68-2.07-2.2.07-3.81.1-7.62,0-11.42,0-1.84.51-2.53,2.43-2.46,3.7.13,7.42,0,11.13,0,1.19,0,2.3,0,2.8-1.36l2.71,0A2.56,2.56,0,0,0,39.62,3c4.36.44,8.73.15,13.1.18,8.09.06,16.18,0,24.27,0,2.7,0,2.81.19,2.4,3-1.21,1.27-2.81,1-4.3,1-7.23,0-14.47,0-21.7,0-2.89,0-3.83.87-4.14,3.27-.39,3,1,4.54,4.27,4.6,7.14.12,14.28,0,21.43.05,1.41,0,2.87-.16,4.16.68A2.15,2.15,0,0,1,79.05,18.84Z"/><path class="cls-2" d="M79.06,69.77q-29,0-57.93.12c-1.13,0-1.84-.24-1.79-1.55.18-4.64-.35-9.29.3-13.92.58-.48,1.27-.32,1.92-.32,18.45,0,36.9,0,55.35,0,2.23,0,3.33.58,2.51,3-1.16,1.35-2.77,1.05-4.25,1.06-7.22.06-14.44,0-21.65,0-3.09,0-4.17,1.06-4.31,3.71S50.27,66,53.3,66c7.21.1,14.43,0,21.65,0,1.41,0,2.87-.16,4.16.67A2.18,2.18,0,0,1,79.06,69.77Z"/><path class="cls-2" d="M19.62,44c-.62-4.64-.11-9.29-.27-13.93-.05-1.33.72-1.5,1.82-1.5q28.95.09,57.9.11c.9,2.64.43,3.46-2.39,3.53-6.28.13-12.56,0-18.85.06-2.08,0-4.18-.25-6.24.24-3.46,2.11-3.65,5.87-.39,8.23,7.8.47,15.59.06,23.38.2a15,15,0,0,1,3.41.2A1.7,1.7,0,0,1,79.49,43c0,1.13-.75,1.41-1.73,1.39a2.81,2.81,0,0,0-.29,0c-19,0-38,0-57.07,0A1.77,1.77,0,0,1,19.62,44Z"/><path class="cls-3" d="M68.22,50.85c-12.36,0-24.72,0-37.08.11-1.31,0-1.82-.32-1.82-1.74s.51-1.74,1.82-1.73c12.36.07,24.72.08,37.08.11A2.31,2.31,0,0,1,68.22,50.85Z"/><path class="cls-2" d="M19.62,44Q48,44,76.47,44c.91,0,2.43.58,2.48-1s-1.5-1.1-2.39-1.11c-7.9,0-15.81,0-23.71,0-1,0-2.12.33-3-.61,1.15-1.14,2.64-.89,4-.9,7.41,0,14.82,0,22.23,0,3.12,0,3.73-.72,3.72-3.68S79.27,33,76.1,33c-7.22-.08-14.44,0-21.66-.05-1.38,0-2.9.28-4-1,.88-.84,2-.5,3-.51,7.68,0,15.35-.09,23,0,2.19,0,3-.66,2.61-2.75,5.39-.33,4.26-.11,4.34,4,.06,3.24,0,6.48,0,9.72,0,1.26-.13,2.18-1.82,2.17q-30.58-.06-61.16,0C20,44.61,19.72,44.48,19.62,44Z"/><path class="cls-2" d="M79.06,57.19c.33-2-.27-2.86-2.55-2.85-19,.1-37.91.07-56.87.08.64-1.11,1.7-.57,2.55-.57,19.43,0,38.86,0,58.3-.07,2.47,0,3.1.81,3,3.1-.16,2.95,0,5.91,0,8.86,0,4.33,0,4.33-4.36,4L79,67A12.39,12.39,0,0,0,79.06,57.19Z"/><path class="cls-2" d="M79.06,6.25c.44-2.34-.66-2.84-2.84-2.82-11.2.09-22.41,0-33.61,0-1,0-2.1.34-3-.48,13.9,0,27.81,0,41.72-.1,1.69,0,2.13.7,2.1,2.22-.06,3.23,0,6.47,0,9.71,0,4.34,0,4.34-4.37,4L79,16C80.23,12.77,80.59,9.51,79.06,6.25Z"/><path class="cls-1" d="M29.87,22.31c.68-.53,1.47-.31,2.21-.31q19,0,38,0c1.41,0,2.87-.34,2.79,2S71.21,25.71,70,25.71q-19,.06-38,0c-3.15,0-3.29-.23-2.22-3.43a4.53,4.53,0,0,0,3.88,2c10.29,0,20.59,0,30.88,0a2,2,0,0,0,1.72-.51c-1-.73-2.17-.51-3.23-.51-9.62,0-19.25,0-28.88,0C32.73,23.22,31.15,23.44,29.87,22.31Z"/><path class="cls-3" d="M68.22,50.85V47.6c1,0,2.07,0,3.09-.11,1.37-.12,1.48.66,1.48,1.73s-.11,1.86-1.48,1.73C70.29,50.86,69.25,50.88,68.22,50.85Z"/><path class="cls-2" d="M79.06,6.25A7,7,0,0,1,79,16l-26.3,0c-3.58,0-4.3-.86-4.27-5,0-3.92.68-4.63,4.31-4.64Z"/><path class="cls-4" d="M33.12,10.85a1.45,1.45,0,0,1-1.35,1.52A1.21,1.21,0,0,1,30.4,11,1.19,1.19,0,0,1,31.54,9.7,1.32,1.32,0,0,1,33.12,10.85Z"/><path class="cls-4" d="M37.82,12.42c-.83-.18-1.43-.65-1.4-1.49a1.24,1.24,0,0,1,1.49-1.24A1.19,1.19,0,0,1,39.11,11C39.16,11.87,38.61,12.26,37.82,12.42Z"/><path class="cls-5" d="M25.66,9.67C26.5,9.82,27,10.2,27,11a1.25,1.25,0,0,1-1.48,1.33A1.32,1.32,0,0,1,24.25,11C24.26,10.1,24.91,9.74,25.66,9.67Z"/><path class="cls-6" d="M45.32,11c-.2.84-.71,1.42-1.54,1.36a1.29,1.29,0,0,1-1.29-1.51,1.25,1.25,0,0,1,1.34-1.16A1.38,1.38,0,0,1,45.32,11Z"/><path class="cls-2" d="M79.06,57.19c2.62,2.34,2.61,7.47,0,9.76-8.77,0-17.54,0-26.3,0-3.59,0-4.31-.88-4.28-5.06,0-3.92.7-4.65,4.31-4.65Z"/><path class="cls-7" d="M45.31,61.88c-.2,1-.76,1.55-1.56,1.49a1.34,1.34,0,0,1-1.26-1.58,1.25,1.25,0,0,1,1.35-1.17C44.78,60.57,45.1,61.23,45.31,61.88Z"/><path class="cls-8" d="M25.74,63.37c-.76-.14-1.47-.49-1.51-1.34a1.3,1.3,0,0,1,1.4-1.41A1.25,1.25,0,0,1,27,61.74C27.13,62.65,26.51,63.07,25.74,63.37Z"/><path class="cls-9" d="M31.73,63.42c-.77-.2-1.37-.55-1.32-1.48a1.24,1.24,0,0,1,1.17-1.3,1.22,1.22,0,0,1,1.49,1.24C33.15,62.72,32.47,63.14,31.73,63.42Z"/><path class="cls-10" d="M37.61,60.63A1.3,1.3,0,0,1,39.11,62,1.24,1.24,0,0,1,38,63.33a1.33,1.33,0,0,1-1.58-1.2A1.21,1.21,0,0,1,37.61,60.63Z"/><path class="cls-2" d="M50.46,31.94q13.53-.06,27.06-.1c2.33,0,3.51,1.12,3.34,3.54-.07,1,0,2.09,0,3.13a2.53,2.53,0,0,1-2.76,2.89c-9.4,0-18.8.31-28.19-.17C47.55,38.22,47.81,34,50.46,31.94Z"/><path class="cls-11" d="M27,37c-.08.51-.64.92-1.51.86a1.25,1.25,0,0,1-1.27-1.24,1.34,1.34,0,0,1,1.4-1.46C26.32,35.15,27.09,35.59,27,37Z"/><path class="cls-12" d="M45.29,36.66a1.37,1.37,0,0,1-1.59,1.16,1.18,1.18,0,0,1-1.21-1.31c0-1,.72-1.32,1.56-1.25A1.28,1.28,0,0,1,45.29,36.66Z"/><path class="cls-13" d="M39.12,36.28c0,1.25-.57,1.61-1.5,1.57a1.16,1.16,0,0,1-1.2-1.29A1.32,1.32,0,0,1,38,35.24C38.68,35.32,39.22,35.69,39.12,36.28Z"/><path class="cls-4" d="M31.74,35.2c.84.17,1.43.63,1.33,1.54a1.19,1.19,0,0,1-1.38,1.12c-1,0-1.31-.58-1.28-1.49S31.06,35.32,31.74,35.2Z"/><path class="cls-14" d="M29.87,22.31l34.55.05h2c.91,0,1.74.05,1.79,1.29s-.75,1.54-1.82,1.54c-4.86,0-9.71,0-14.56,0-6.38,0-12.76-.11-19.13.06-2.35.06-3.09-.8-2.83-2.94Z"/><path class="cls-2" d="M73.32,12.69c-6.75.06-13.49.15-20.23.15-2.6,0-1.21-1.93-1.37-3.1,6.89-.62,13.8-.25,20.7-.18C74.65,9.59,74.09,11.32,73.32,12.69Z"/><path class="cls-2" d="M73.32,12.69c.54-2.47-.61-3-2.91-3-6.23.13-12.46,0-18.69,0,.44-1,1.32-.49,2-.49,7.29,0,14.58,0,21.87,0,1.4,0,2.5-.14,2.46,2s-1.31,1.64-2.45,1.65C74.82,12.85,74.07,12.74,73.32,12.69Z"/><path class="cls-2" d="M78,62.24c0,2-1.06,1.81-2.35,1.81-7.32,0-14.65,0-22,0-.65,0-1.54.5-2-.5V60.66c.44-1,1.33-.49,2-.5,7.33,0,14.66,0,22,0C77.3,60.11,78,60.33,78,62.24Z"/><path class="cls-2" d="M73.35,38.3c-6.74,0-13.48,0-20.22.14-1.62,0-1.53-.82-1.57-1.94s.28-1.67,1.57-1.65c6.74.09,13.48.09,20.21.13A2.35,2.35,0,0,1,73.35,38.3Z"/><path class="cls-2" d="M73.35,38.3V35c1,0,2.06,0,3.08-.12,1.63-.2,1.5.83,1.54,1.92s-.23,1.78-1.54,1.64C75.41,38.31,74.37,38.33,73.35,38.3Z"/><circle class="cls-1" cx="25.61" cy="10.82" r="1.7"/><circle class="cls-1" cx="31.76" cy="10.82" r="1.7"/><circle class="cls-1" cx="37.91" cy="10.82" r="1.7"/><circle class="cls-1" cx="44.06" cy="10.82" r="1.7"/><circle class="cls-1" cx="25.61" cy="36.48" r="1.7"/><circle class="cls-1" cx="31.76" cy="36.48" r="1.7"/><circle class="cls-1" cx="37.91" cy="36.48" r="1.7"/><circle class="cls-1" cx="44.06" cy="36.48" r="1.7"/><circle class="cls-1" cx="25.61" cy="61.8" r="1.7"/><circle class="cls-1" cx="31.76" cy="61.8" r="1.7"/><circle class="cls-1" cx="37.91" cy="61.8" r="1.7"/><circle class="cls-1" cx="44.06" cy="61.8" r="1.7"/><rect class="cls-2" x="29.83" y="21.95" width="43.23" height="3.3"/><rect class="cls-1" x="3.74" y="82.05" width="36.07" height="2.62"/><rect class="cls-1" x="62.04" y="82.05" width="34.52" height="2.62"/><rect class="cls-1" x="37.21" y="77.84" width="27.44" height="2.61"/><rect class="cls-1" x="37.22" y="86.08" width="27.44" height="2.61"/><rect class="cls-1" x="37.2" y="80.09" width="2.61" height="7.45"/><rect class="cls-1" x="62.04" y="80.32" width="2.61" height="7.45"/><rect class="cls-1" x="51.15" y="74.23" width="8.26" height="2.61" transform="translate(-20.26 130.82) rotate(-90)"/><rect class="cls-1" x="45.48" y="74.11" width="7.45" height="2.61" transform="translate(-26.22 124.63) rotate(-90)"/><rect class="cls-1" x="0.73" y="77.69" width="11.35" height="11.35" rx="2.78" ry="2.78"/><rect class="cls-15" x="3.74" y="80.69" width="5.35" height="5.35" rx="1.34" ry="1.34"/><rect class="cls-1" x="18.56" y="77.69" width="11.35" height="11.35" rx="2.78" ry="2.78"/><rect class="cls-16" x="21.57" y="80.69" width="5.35" height="5.35" rx="1.34" ry="1.34"/><rect class="cls-1" x="70.79" y="77.69" width="11.35" height="11.35" rx="2.78" ry="2.78"/><rect class="cls-15" x="73.79" y="80.69" width="5.35" height="5.35" rx="1.34" ry="1.34"/><rect class="cls-1" x="88.62" y="77.69" width="11.35" height="11.35" rx="2.78" ry="2.78"/><rect class="cls-16" x="91.62" y="80.69" width="5.35" height="5.35" rx="1.34" ry="1.34"/><path class="cls-1" d="M23.83,73H39.74C34.43,73.07,29.13,73,23.83,73Z"/><path class="cls-1" d="M79.33,73c-5.41,0-10.82.07-16.22,0Z"/><rect class="cls-1" x="48.58" y="58.44" width="32.59" height="1.79"/><rect class="cls-1" x="48.58" y="64.1" width="32.59" height="1.79"/><rect class="cls-1" x="48.57" y="59.98" width="1.79" height="5.12"/><rect class="cls-1" x="79.38" y="60.14" width="1.79" height="5.12"/><rect class="cls-1" x="48.29" y="32.76" width="32.59" height="1.79"/><rect class="cls-1" x="48.3" y="38.42" width="32.59" height="1.79"/><rect class="cls-1" x="48.28" y="34.3" width="1.79" height="5.12"/><rect class="cls-1" x="79.09" y="34.46" width="1.79" height="5.12"/><rect class="cls-1" x="48.29" y="7.3" width="32.59" height="1.79"/><rect class="cls-1" x="48.3" y="12.96" width="32.59" height="1.79"/><rect class="cls-1" x="48.28" y="8.84" width="1.79" height="5.12"/><rect class="cls-1" x="79.09" y="9" width="1.79" height="5.12"/></svg>