<svg id="Layer_1" data-name="Layer 1" xmlns="http://www.w3.org/2000/svg" xmlns:xlink="http://www.w3.org/1999/xlink" viewBox="0 0 701.17 413.23"><defs><style>.cls-1{fill:none;clip-rule:evenodd;}.cls-2{clip-path:url(#clip-path);}.cls-3{fill:url(#linear-gradient);}.cls-4{fill:#34b463;}.cls-5{fill:#24914a;}.cls-6{fill:#a2c769;}.cls-14,.cls-15,.cls-16,.cls-19,.cls-22,.cls-30,.cls-31,.cls-33,.cls-35,.cls-36,.cls-37,.cls-38,.cls-39,.cls-44,.cls-46,.cls-6,.cls-8,.cls-9{fill-rule:evenodd;}.cls-15,.cls-7{fill:#00a551;}.cls-8{fill:#5ebeff;}.cls-11,.cls-9{fill:#102b6e;}.cls-10,.cls-37{fill:#fff;}.cls-12{fill:#4596d1;}.cls-13{fill:#00adee;}.cls-14,.cls-17{fill:#ec1c24;}.cls-16{fill:#1a47b6;}.cls-18,.cls-33{fill:#092978;}.cls-19{fill:#3dabf9;}.cls-20{clip-path:url(#clip-path-2);}.cls-21{fill:url(#linear-gradient-2);}.cls-22{fill:#a5dbfd;}.cls-23{fill:#e4f5fb;}.cls-24{clip-path:url(#clip-path-3);}.cls-25{fill:url(#linear-gradient-3);}.cls-26{clip-path:url(#clip-path-4);}.cls-27{fill:url(#linear-gradient-4);}.cls-28{clip-path:url(#clip-path-5);}.cls-29{fill:url(#linear-gradient-5);}.cls-30{fill:#f7941f;}.cls-31{fill:#f9c4c7;}.cls-32{fill:#630;}.cls-34{fill:#d4ecfd;}.cls-35{fill:#dd777b;}.cls-36{fill:#363653;}.cls-38{fill:#dff2fc;}.cls-39{fill:#afcceb;}.cls-40{clip-path:url(#clip-path-6);}.cls-41{fill:url(#linear-gradient-6);}.cls-42{clip-path:url(#clip-path-7);}.cls-43{fill:url(#linear-gradient-7);}.cls-44{fill:#76c5fb;}.cls-45{fill:#3882c8;}.cls-46,.cls-47{fill:#8dd7f7;}</style><clipPath id="clip-path"><path class="cls-1" d="M94.33,296.22H57.53C25.89,296.22,0,322.49,0,354.6S25.89,413,57.53,413H592.89c51.23,0,93.15-42.53,93.15-94.52s-41.92-94.53-93.15-94.53c-21.67,0-41.26-18-41.26-40s17.72-40,39.38-40h22.28c22.53,0,41-18.7,41-41.55s-18.42-41.56-41-41.56H549.81a16.18,16.18,0,0,1,0-32.35h10.57a11.12,11.12,0,0,0,11-11.17h0a11.11,11.11,0,0,0-11-11.16h-65.8c-14.61,0-16.23,17.5-53.12,17.5H362.17a14.51,14.51,0,0,0-14.35,14.57h0a14.5,14.5,0,0,0,14.35,14.57H376a21.11,21.11,0,0,1,0,42.22H355.21c-56,0-63.95,14.86-73.76,44.41s-82.77,31.94-82.77,31.94H90.75c-17.25,0-31.36,14.32-31.36,31.81S73.5,235,90.75,235h3.58c16.59,0,30.16,13.76,30.16,30.59S110.92,296.22,94.33,296.22ZM591.26,28.52a11.17,11.17,0,1,1,11-11.17A11.09,11.09,0,0,1,591.26,28.52Z"/></clipPath><linearGradient id="linear-gradient" x1="343.02" y1="659.26" x2="343.02" y2="-37.41" gradientUnits="userSpaceOnUse"><stop offset="0" stop-color="#1e9df8"/><stop offset="0.22" stop-color="#55b5fa"/><stop offset="0.49" stop-color="#96d1fc"/><stop offset="0.72" stop-color="#c4e6fe"/><stop offset="0.9" stop-color="#e1f2ff"/><stop offset="1" stop-color="#ecf7ff"/></linearGradient><clipPath id="clip-path-2"><path class="cls-1" d="M125.11,251.11h200.5c1.45,0,2.23,1.23,2.63,2.62l35,123.2c.39,1.38-1.19,2.62-2.63,2.62H153.37c-1.44,0-2.3-1.22-2.63-2.62l-28.26-123.2c-.32-1.41,1.18-2.62,2.63-2.62"/></clipPath><linearGradient id="linear-gradient-2" x1="242.62" y1="366.57" x2="243.15" y2="265.24" gradientUnits="userSpaceOnUse"><stop offset="0" stop-color="#1e9df8"/><stop offset="1" stop-color="#b9e4ff"/></linearGradient><clipPath id="clip-path-3"><path class="cls-1" d="M264.15,381.66C191.55,335.24,144.82,242.05,151.75,156l1.64-20.32,20.14-3.16c35.32-5.56,61.29-16.23,92.32-33.73l12.71-7.17,12.72,7.17c31.2,17.6,57.09,27.85,92.56,33.76l19.92,3.32L405.38,156c6.93,86.06-39.8,179.25-112.4,225.67Z"/></clipPath><linearGradient id="linear-gradient-3" x1="278.56" y1="206.75" x2="278.57" y2="408.92" gradientUnits="userSpaceOnUse"><stop offset="0" stop-color="#0094ff"/><stop offset="0.18" stop-color="#008bf1"/><stop offset="0.51" stop-color="#0074cc"/><stop offset="0.97" stop-color="#004e90"/><stop offset="1" stop-color="#004b8b"/></linearGradient><clipPath id="clip-path-4"><path class="cls-1" d="M278.56,121.32c-34.63,19.53-62.47,30.68-101,36.75-6.34,78.73,38,162.06,101,202.09,63-40,107.36-123.36,101-202.09-39.26-6.55-66.38-17.22-101-36.75"/></clipPath><linearGradient id="linear-gradient-4" x1="278.56" y1="109.23" x2="278.56" y2="360.17" gradientUnits="userSpaceOnUse"><stop offset="0" stop-color="#0094ff"/><stop offset="0.14" stop-color="#008cf1"/><stop offset="0.41" stop-color="#0176cd"/><stop offset="0.77" stop-color="#025393"/><stop offset="1" stop-color="#033b6b"/></linearGradient><clipPath id="clip-path-5"><path class="cls-1" d="M183.94,163.86c-1.53,29.87,4.38,60,15.49,87.72,15.85,39.47,43.53,76.66,79.13,100.52,35.61-23.86,63.29-61.05,79.14-100.52,11.12-27.7,17-57.88,15.49-87.77A284.38,284.38,0,0,1,325.34,151a336.62,336.62,0,0,1-46.77-22c-15.87,8.81-32.08,16.77-49.19,22.93a271.46,271.46,0,0,1-45.44,11.87"/></clipPath><linearGradient id="linear-gradient-5" x1="278.57" y1="561.11" x2="278.57" y2="214.04" gradientUnits="userSpaceOnUse"><stop offset="0" stop-color="#1e9df8"/><stop offset="0.13" stop-color="#45aef9"/><stop offset="0.36" stop-color="#82c8fb"/><stop offset="0.57" stop-color="#b2ddfd"/><stop offset="0.75" stop-color="#d4ecfe"/><stop offset="0.9" stop-color="#e9f6ff"/><stop offset="1" stop-color="#f1f9ff"/></linearGradient><clipPath id="clip-path-6"><path class="cls-1" d="M314,207.74a15,15,0,0,1,13.23,14.8v53.6A14.92,14.92,0,0,1,312.31,291H246.06a14.92,14.92,0,0,1-14.89-14.88v-53.6a14.94,14.94,0,0,1,12.48-14.69V194.94c.89-18.68,16.58-33.05,35.16-33.05s34.25,14.39,35.14,33.05V195c0,.53,0,1.06,0,1.58s0,.84,0,1.26Zm-34.79,15.87a15,15,0,0,1,7,28.21v24.74H272.21V251.82a15,15,0,0,1,7-28.21Zm-22.7-16h44.66V197.58c0-.33,0-.66,0-1s0-.66,0-1v0h0a22.14,22.14,0,0,0-22.32-20.83c-11.73,0-21.78,9-22.34,20.83v12.1Z"/></clipPath><linearGradient id="linear-gradient-6" x1="279.18" y1="155.36" x2="279.18" y2="291.02" xlink:href="#linear-gradient-4"/><clipPath id="clip-path-7"><path class="cls-1" d="M314,202.85a15,15,0,0,1,13.23,14.79v53.6a14.93,14.93,0,0,1-14.89,14.89H246.06a14.93,14.93,0,0,1-14.89-14.89v-53.6A14.94,14.94,0,0,1,243.65,203v-12.9c.89-18.69,16.58-33.06,35.16-33.06s34.25,14.4,35.14,33.06v0c0,.53,0,1.06,0,1.59s0,.84,0,1.26Zm-34.79,15.86a15,15,0,0,1,7,28.22v24.73H272.21V246.93a15,15,0,0,1,7-28.22Zm-22.7-16h44.66V192.69c0-.33,0-.67,0-1s0-.67,0-1v0h0a22.14,22.14,0,0,0-22.32-20.84c-11.73,0-21.78,9-22.34,20.84v12.1Z"/></clipPath><linearGradient id="linear-gradient-7" x1="279.18" y1="208.26" x2="279.18" y2="298.27" xlink:href="#linear-gradient-3"/></defs><title>ايقونات وصور الاستضافة</title><g class="cls-2"><rect class="cls-3" y="6.19" width="686.04" height="406.79"/></g><path class="cls-4" d="M606.15,408s-16.43-7.48-14-19,15.8-10.36,14-19.5-10.58-23.37-2-33.73,22.72-4.15,24.5-20.21c1.43-12.95,7.41-22.11,19-19.43,10.73,2.49,18.73,10.8,18.93,30.55.21,21,15,15.13,15.21,30.62s-12.25,15.61-17.1,26.08c-2.3,4.94,3.68,22.32-14,24.67Z"/><path class="cls-5" d="M645.81,304.52s0,.35.1,1c.19,2.07.56,7.12.56,14.15,0,20.57-3.24,58.15-23.72,88.15a.89.89,0,0,0,.24,1.24.9.9,0,0,0,1.25-.23c20.8-30.52,24-68.41,24-89.16a150.53,150.53,0,0,0-.68-15.4.9.9,0,0,0-1.78.21"/><path class="cls-6" d="M625.9,408s-2.59-14.29,7.11-20.1,19.59-10.35,18.52-19.72,1.57-20.43,17.11-20.64c9.6-.12,6-10.25,15.75-12.27,5.93-1.23,9.84,5,10.6,11,.86,6.93-3.06,13.73,1.44,19.37,5.83,7.31,8.2,20.94-4.34,24.81s-1.36,15.75-18.44,17.51Z"/><path class="cls-7" d="M683.74,342.08c-.33,9.1-4.36,22.05-11.27,34.41s-16.67,24.16-28.33,31.1a.9.9,0,0,0,.92,1.54c12-7.18,22-19.2,29-31.76s11.14-25.69,11.5-35.23a.9.9,0,1,0-1.79-.06"/><path class="cls-8" d="M554.6,177.34l2.6,4.9a5.18,5.18,0,0,1-1,6.18,53.56,53.56,0,0,0-8.44,10.2,5.17,5.17,0,0,1-5.88,2.13l-5.31-1.62a5.2,5.2,0,0,0-6.52,3.43l-3.13,10.15a5.22,5.22,0,0,0,3.45,6.52l5.3,1.64a5.16,5.16,0,0,1,3.66,5.08,53.54,53.54,0,0,0,1.24,13.18,5.16,5.16,0,0,1-2.66,5.66l-4.9,2.59a5.22,5.22,0,0,0-2.17,7l5,9.4a5.21,5.21,0,0,0,7,2.17l4.9-2.59a5.18,5.18,0,0,1,6.18,1,53.44,53.44,0,0,0,10.18,8.44,5.17,5.17,0,0,1,2.15,5.89l-1.64,5.3a5.2,5.2,0,0,0,3.45,6.51l10.15,3.14a5.22,5.22,0,0,0,6.51-3.45l1.64-5.3a5.17,5.17,0,0,1,5.08-3.66A54,54,0,0,0,604.62,280a5.17,5.17,0,0,1,5.67,2.64l2.59,4.91a5.21,5.21,0,0,0,7,2.17l9.39-5a5.21,5.21,0,0,0,2.17-7.05l-2.59-4.9a5.18,5.18,0,0,1,1-6.18,52.7,52.7,0,0,0,8.44-10.18,5.17,5.17,0,0,1,5.89-2.15l5.3,1.64a5.22,5.22,0,0,0,6.52-3.45l3.13-10.14a5.21,5.21,0,0,0-3.45-6.52l-5.3-1.63a5.16,5.16,0,0,1-3.65-5.09A53.37,53.37,0,0,0,645.53,216a5.19,5.19,0,0,1,2.65-5.68l4.9-2.59a5.2,5.2,0,0,0,2.17-7l-5-9.4a5.23,5.23,0,0,0-7-2.17l-4.9,2.6a5.18,5.18,0,0,1-6.18-1A53.07,53.07,0,0,0,622,182.26a5.16,5.16,0,0,1-2.14-5.89l1.63-5.3a5.21,5.21,0,0,0-3.44-6.52l-10.16-3.13a5.2,5.2,0,0,0-6.51,3.45l-1.64,5.3a5.16,5.16,0,0,1-5.08,3.66,53.05,53.05,0,0,0-13.18,1.23,5.15,5.15,0,0,1-5.66-2.65l-2.6-4.9a5.19,5.19,0,0,0-7-2.17l-9.4,5a5.22,5.22,0,0,0-2.17,7m29.47,22.79a28.85,28.85,0,1,1-13.88,45A28.81,28.81,0,0,1,584.07,200.13Z"/><path class="cls-9" d="M391.65,176h95a12.06,12.06,0,0,1,12,12V388.76a12.06,12.06,0,0,1-12,12h-95a12.06,12.06,0,0,1-12-12V188a12.06,12.06,0,0,1,12-12"/><rect class="cls-10" x="388.38" y="192.21" width="103.1" height="169.53"/><path class="cls-11" d="M387,209.64V190.81H492.89V363.15H387V209.64Zm28.09,9.22h48.58a4.23,4.23,0,0,1,3.83,2.46h22.6v-27.7H389.78v27.7h21.45A4.23,4.23,0,0,1,415.06,218.86Zm0,37.16h48.58a4.23,4.23,0,0,1,4,3h22.41V224.13H467.72a4.24,4.24,0,0,1-4.08,3.15H415.06a4.22,4.22,0,0,1-4.07-3.15H389.78V259H411A4.23,4.23,0,0,1,415.06,256Zm0,38.29h48.58a4.24,4.24,0,0,1,3.78,2.36h22.65V261.81H467.55a4.24,4.24,0,0,1-3.91,2.64H415.06a4.24,4.24,0,0,1-3.91-2.64H389.78v34.86h21.5A4.24,4.24,0,0,1,415.06,294.31Zm0,37.73h48.58a4.23,4.23,0,0,1,3.75,2.3h22.68V299.48H467.74a4.22,4.22,0,0,1-4.1,3.26H415.06a4.22,4.22,0,0,1-4.1-3.26H389.78v34.86h21.53A4.23,4.23,0,0,1,415.06,332Zm-25.28,28.3H490.07V337.15H467.76a4.24,4.24,0,0,1-4.12,3.32H415.06a4.22,4.22,0,0,1-4.11-3.32H389.78v23.19Z"/><rect class="cls-12" x="390.59" y="370.94" width="13.12" height="13.13"/><rect class="cls-13" x="412.97" y="374.2" width="6.61" height="6.61"/><rect class="cls-13" x="424.33" y="374.2" width="6.61" height="6.61"/><rect class="cls-7" x="435.68" y="374.2" width="6.61" height="6.61"/><rect class="cls-13" x="447.04" y="374.2" width="6.61" height="6.61"/><rect class="cls-7" x="458.4" y="374.2" width="6.61" height="6.61"/><path class="cls-14" d="M484.19,367a4.59,4.59,0,1,1-4.59,4.58,4.58,4.58,0,0,1,4.59-4.58"/><path class="cls-15" d="M484.19,380.42a2.79,2.79,0,1,1-2.79,2.79,2.79,2.79,0,0,1,2.79-2.79"/><rect class="cls-11" x="391.65" y="400.79" width="94.42" height="6.39"/><path class="cls-16" d="M492.63,352.58H612a4.35,4.35,0,0,1,4.34,4.33v41a4.36,4.36,0,0,1-4.34,4.34H492.63a4.36,4.36,0,0,1-4.34-4.34v-41a4.35,4.35,0,0,1,4.34-4.33"/><rect class="cls-10" x="492.79" y="358.08" width="42.02" height="20.84"/><rect class="cls-10" x="538.65" y="358.08" width="73.37" height="20.84"/><rect class="cls-17" x="581.62" y="365.83" width="5" height="5"/><rect class="cls-7" x="589.54" y="365.83" width="5" height="5"/><rect class="cls-17" x="597.46" y="365.83" width="5" height="5"/><rect class="cls-18" x="498.16" y="402.27" width="18.03" height="4.92"/><rect class="cls-18" x="587.54" y="402.27" width="18.03" height="4.92"/><path class="cls-19" d="M116.74,243.76H321.32c5,0,7.8,4.28,9.13,9.12l38.31,139.56c1.32,4.84-4.11,9.13-9.13,9.13H148.11c-5,0-8-4.23-9.12-9.13L107.62,252.88c-1.1-4.89,4.1-9.12,9.12-9.12"/><path class="cls-9" d="M122.77,243.76H327.36c5,0,7.79,4.28,9.12,9.12l38.31,139.56c1.32,4.84-4.11,9.13-9.13,9.13H154.14c-5,0-8-4.23-9.12-9.13L113.65,252.88c-1.1-4.89,4.1-9.12,9.12-9.12"/><g class="cls-20"><rect class="cls-21" x="122.16" y="251.11" width="241.46" height="128.45"/></g><path class="cls-19" d="M144.65,390.54H419.52v7.27a7.29,7.29,0,0,1-7.27,7.27H151.92a7.29,7.29,0,0,1-7.27-7.27Z"/><path class="cls-22" d="M299.48,390.54h204v7.27a7.29,7.29,0,0,1-7.27,7.27H306.74a7.29,7.29,0,0,1-7.26-7.27Z"/><path class="cls-9" d="M381.66,396.21h62.53a1.39,1.39,0,0,1,0,2.77H381.66a1.39,1.39,0,0,1,0-2.77"/><path class="cls-9" d="M151.24,393.27c1.65,0,3,1.67,3,3.74s-1.34,3.73-3,3.73-3-1.67-3-3.73,1.34-3.74,3-3.74"/><rect class="cls-11" x="205.69" y="395.79" width="37.52" height="4.08"/><rect class="cls-11" x="246.88" y="395.79" width="9.58" height="4.08"/><rect class="cls-11" x="259.83" y="395.79" width="9.58" height="4.08"/><path class="cls-23" d="M240.63,349.1H171.72a4.23,4.23,0,0,0-3,1.25h0a4.22,4.22,0,0,0,0,6h0a4.26,4.26,0,0,0,3,1.24h68.91a4.26,4.26,0,0,0,3-1.24h0a4.22,4.22,0,0,0,0-6h0a4.23,4.23,0,0,0-3-1.25m-68.91-.58h68.91a4.78,4.78,0,0,1,3.4,1.42h0a4.8,4.8,0,0,1,0,6.8h0a4.81,4.81,0,0,1-3.4,1.41H171.72a4.81,4.81,0,0,1-3.4-1.41h0a4.78,4.78,0,0,1,0-6.8h0A4.78,4.78,0,0,1,171.72,348.52Z"/><path class="cls-23" d="M234.92,328.89H166a4.22,4.22,0,0,0-3,1.24h0a4.22,4.22,0,0,0,0,6h0a4.22,4.22,0,0,0,3,1.24h68.91a4.22,4.22,0,0,0,3-1.24h0a4.22,4.22,0,0,0,0-6h0a4.22,4.22,0,0,0-3-1.24M166,328.3h68.91a4.78,4.78,0,0,1,3.4,1.42h0a4.78,4.78,0,0,1,0,6.8h0a4.78,4.78,0,0,1-3.4,1.42H166a4.78,4.78,0,0,1-3.4-1.42h0a4.8,4.8,0,0,1,0-6.8h0A4.78,4.78,0,0,1,166,328.3Z"/><path class="cls-23" d="M229.79,308.67h-68.9a4.24,4.24,0,0,0-3,1.24h0a4.2,4.2,0,0,0,0,6h0a4.21,4.21,0,0,0,3,1.25h68.9a4.19,4.19,0,0,0,3-1.25h0a4.2,4.2,0,0,0,0-6h0a4.22,4.22,0,0,0-3-1.24m-68.9-.58h68.9a4.79,4.79,0,0,1,3.4,1.41h0a4.8,4.8,0,0,1,0,6.8h0a4.79,4.79,0,0,1-3.4,1.41h-68.9a4.79,4.79,0,0,1-3.4-1.41h0a4.78,4.78,0,0,1,0-6.8h0A4.79,4.79,0,0,1,160.89,308.09Z"/><g class="cls-24"><rect class="cls-25" x="144.82" y="91.61" width="267.48" height="290.05"/></g><g class="cls-26"><rect class="cls-27" x="171.21" y="121.32" width="214.71" height="238.84"/></g><g class="cls-28"><rect class="cls-29" x="182.41" y="129.06" width="192.31" height="223.04"/></g><path class="cls-16" d="M492.63,298H612a4.35,4.35,0,0,1,4.34,4.33v41a4.35,4.35,0,0,1-4.34,4.34H492.63a4.35,4.35,0,0,1-4.34-4.34v-41a4.35,4.35,0,0,1,4.34-4.33"/><rect class="cls-10" x="492.79" y="303.47" width="42.02" height="20.84"/><rect class="cls-10" x="538.65" y="303.47" width="73.37" height="20.84"/><rect class="cls-17" x="581.62" y="311.22" width="5" height="5"/><rect class="cls-17" x="589.54" y="311.22" width="5" height="5"/><rect class="cls-7" x="597.46" y="311.22" width="5" height="5"/><rect class="cls-18" x="498.16" y="347.66" width="18.03" height="4.92"/><rect class="cls-18" x="587.54" y="347.66" width="18.03" height="4.92"/><path class="cls-16" d="M492.63,243.36H612a4.35,4.35,0,0,1,4.34,4.33v41a4.35,4.35,0,0,1-4.34,4.34H492.63a4.35,4.35,0,0,1-4.34-4.34v-41a4.35,4.35,0,0,1,4.34-4.33"/><rect class="cls-10" x="492.79" y="248.86" width="42.02" height="20.84"/><rect class="cls-10" x="538.65" y="248.86" width="73.37" height="20.84"/><rect class="cls-17" x="581.62" y="256.61" width="5" height="5"/><rect class="cls-17" x="589.54" y="256.61" width="5" height="5"/><rect class="cls-17" x="597.46" y="256.61" width="5" height="5"/><rect class="cls-18" x="498.16" y="293.05" width="18.03" height="4.92"/><rect class="cls-18" x="587.54" y="293.05" width="18.03" height="4.92"/><path class="cls-30" d="M510,170.73h26c3.26,0,11.26,6.15,12.67,14.18h0c2.65,12.92,1.47,41.34-7.68,51.48l-10.37-.14-31.77-7.87V174.74a17.32,17.32,0,0,1,11.1-4"/><path class="cls-30" d="M536,170.81c12.87,1.26,14.07,17.43,13.9,27.52H536.05Z"/><path class="cls-31" d="M537.31,198.43l12.63-.1s0,4.8-5.2,8.72l-22,16.53h-18.4s3.91-5,9.07-5.43,5.35.29,5.35.29c1-2.62,12.86-14.45,18.51-20"/><path class="cls-32" d="M553.57,301.85l1.26,9.07,3.24,3s2.53-.12,2.82.76a8,8,0,0,1,0,2.75H544.32a74.8,74.8,0,0,1-1.92-15.05Z"/><path class="cls-33" d="M478.12,223.58h55.06a10.13,10.13,0,0,1,1.83.17h0c15.37-.08,17.28,9.87,18.36,20.72l6.2,62.3H538.7l-6.88-63.41h-53.7a9.89,9.89,0,1,1,0-19.78"/><path class="cls-32" d="M493.16,280.54l7.56,16.92a13.59,13.59,0,0,1-1.77,4.81c-1.26,1.75-1.38,3-.59,4.07l1,1.32,12.85-13.4-6.74-15.74Z"/><rect class="cls-34" x="408.33" y="237.98" width="31.3" height="6.13"/><path class="cls-33" d="M483.39,226.47a13.43,13.43,0,0,1,5.47,4.89c4.52,6.87,25.09,53.21,25.09,53.21H490.31l-17.22-37.76c-.72-1.57-4.27-8.12-4.6-11.1-1.05-9.6,6.92-12.91,14.9-9.24"/><path class="cls-31" d="M507.23,157.71c-2.72,4.86,2,11.64,7.71,11.14v1.55l-3.14,4.47,3.09,4.6,3.22,1.17,7.77-2v-14c.29-.08.3.43.88.07a6.43,6.43,0,0,0,1.62-4.3c-.23-1.34-2-2.11-2-2.11h0c1.62-4,2.9-4.61-1.27-6.82s-12.57-2-12.57-2l-3.82,1.28c-.16,3.7.35,3.62-1.54,7"/><path class="cls-35" d="M514.1,168.87a5.89,5.89,0,0,0,.84,0,19.68,19.68,0,0,0,7-1.43,7.33,7.33,0,0,1-3.82,4.08,12.46,12.46,0,0,1-4.87,1.33l1.7-2.43v-1.55Z"/><path class="cls-8" d="M441.6,98.6a22.46,22.46,0,0,1,11.14,2.93A29.66,29.66,0,0,1,478.31,87.3c15.79,0,28.68,11.92,29.41,26.89a15.11,15.11,0,0,1-4.54,29.58h-41V127.92h7.9l-13.37-20-13.38,20h7.9v15.85H441.6a22.59,22.59,0,1,1,0-45.17"/><path class="cls-36" d="M509.73,151.92c3.22.53,5.81.07,7.78.31a5.6,5.6,0,0,1,2.83,1.35c1.84,1.49,3.28,5.17,3.69,7.61,0,0,2.15-.9,2.86-.46s.26,1.53.15,2-1.1.93-1.42,1.2c-1,.83,1.3,1.18,4-1,8.52-6.87,5.9-17.77-6.09-21.85-4.87-1.65-1.46-4.28-4.81-5-15.31-3.24-18.47,13.91-8.95,15.82"/><path class="cls-30" d="M499.16,174.52c-7.08,6.31-11.19,15-13.7,24.18,4.63-.31,9.48-.29,14.08-.43Z"/><path class="cls-37" d="M518.22,188.48a.85.85,0,1,1,0,1.7.85.85,0,0,1,0-1.7m0-4.95a.86.86,0,1,1-.85.85A.85.85,0,0,1,518.22,183.53Zm-3.28-13.14c-3,5.05.26,8.63,3.17,10.25,4.09-2.66,7.77-5.25,7.77-10.25,0,0,1.42,0,2.33,2.22,1.52,3.63-1,11.79-1,11.79s-2.84-3.69-5.21-3.88a8.34,8.34,0,0,0-3.9.51c-3-2.22-5.09.66-7.11,2.77-.64-5.38-.56-9.25,3.47-13.41Z"/><rect class="cls-34" x="408.33" y="202.42" width="31.3" height="6.13"/><path class="cls-38" d="M511.91,191.9H472.07c-1.54,0-3.13,1.3-2.79,2.8l6,26.33c.34,1.5,1.26,2.79,2.79,2.79h39.84c1.54,0,3.14-1.29,2.8-2.79l-6-26.33c-.34-1.5-1.25-2.8-2.79-2.8"/><path class="cls-39" d="M510.12,191.9H470.28c-1.53,0-3.13,1.3-2.79,2.8L473.44,221c.34,1.5,1.26,2.79,2.8,2.79h39.84c1.53,0,3.13-1.29,2.79-2.79l-6-26.33c-.34-1.5-1.26-2.8-2.8-2.8"/><path class="cls-37" d="M492.34,205.25a2.79,2.79,0,1,0,3,1.91,2.55,2.55,0,0,0-3-1.91"/><path class="cls-38" d="M539.56,221.21H519.33v2.61h21.54v-1.3a1.31,1.31,0,0,0-1.31-1.31"/><g class="cls-40"><rect class="cls-41" x="231.17" y="161.89" width="96.03" height="129.14"/></g><g class="cls-42"><rect class="cls-43" x="231.17" y="156.99" width="96.03" height="129.14"/></g><path class="cls-9" d="M616.18,314.57H618a14.13,14.13,0,0,1,14.1,14.1v78.52H512.89v-3.31H628.83V328.67A10.82,10.82,0,0,0,618,317.88h-1.86Z"/><path class="cls-9" d="M616.18,370.19H618a14.13,14.13,0,0,1,14.1,14.1V408h-3.31V384.29A10.82,10.82,0,0,0,618,373.5h-1.86Z"/><path class="cls-9" d="M616.35,263.78a14.3,14.3,0,0,1,5.13,3.29,14,14,0,0,1,4.14,10v128.5h-3.31V277a10.72,10.72,0,0,0-3.17-7.62,11,11,0,0,0-2.79-2Z"/><path class="cls-16" d="M70.42,407.19h617.1a3,3,0,0,1,3,3h0a3,3,0,0,1-3,3H70.42a3,3,0,0,1-3-3h0a3,3,0,0,1,3-3"/><path class="cls-44" d="M536.11,98.09l.64,1.2a1.28,1.28,0,0,1-.25,1.51,12.81,12.81,0,0,0-2.06,2.49,1.26,1.26,0,0,1-1.44.52l-1.3-.39a1.27,1.27,0,0,0-1.6.84l-.76,2.48a1.28,1.28,0,0,0,.84,1.6l1.3.4a1.25,1.25,0,0,1,.89,1.24,13,13,0,0,0,.31,3.22,1.28,1.28,0,0,1-.65,1.39l-1.2.64a1.26,1.26,0,0,0-.53,1.72l1.21,2.3a1.27,1.27,0,0,0,1.72.53l1.2-.64a1.26,1.26,0,0,1,1.51.25,12.87,12.87,0,0,0,2.5,2.06,1.27,1.27,0,0,1,.52,1.45l-.4,1.29a1.27,1.27,0,0,0,.84,1.59l2.49.77a1.27,1.27,0,0,0,1.59-.84l.4-1.3a1.27,1.27,0,0,1,1.25-.89,13.51,13.51,0,0,0,3.22-.3,1.26,1.26,0,0,1,1.39.64l.63,1.2a1.26,1.26,0,0,0,1.72.53l2.3-1.21a1.26,1.26,0,0,0,.53-1.72l-.63-1.2a1.26,1.26,0,0,1,.25-1.51,13.31,13.31,0,0,0,2.06-2.5,1.26,1.26,0,0,1,1.44-.52l1.3.4a1.27,1.27,0,0,0,1.59-.84l.77-2.49a1.27,1.27,0,0,0-.84-1.59l-1.3-.4a1.28,1.28,0,0,1-.9-1.25,12.56,12.56,0,0,0-.3-3.22,1.28,1.28,0,0,1,.65-1.39l1.2-.63a1.27,1.27,0,0,0,.53-1.72l-1.21-2.3a1.29,1.29,0,0,0-1.73-.54l-1.2.64a1.26,1.26,0,0,1-1.51-.25,13.57,13.57,0,0,0-2.49-2.06,1.28,1.28,0,0,1-.53-1.44l.41-1.3a1.27,1.27,0,0,0-.85-1.59l-2.48-.77a1.28,1.28,0,0,0-1.6.84l-.4,1.3a1.26,1.26,0,0,1-1.24.9,12.52,12.52,0,0,0-3.22.3,1.28,1.28,0,0,1-1.39-.65l-.64-1.2a1.27,1.27,0,0,0-1.72-.53l-2.3,1.21a1.28,1.28,0,0,0-.53,1.73m7.21,5.57a7.06,7.06,0,1,1-3.39,11A7.06,7.06,0,0,1,543.32,103.66Z"/><rect class="cls-34" x="408.33" y="347.63" width="31.3" height="6.13"/><rect class="cls-34" x="408.33" y="312.59" width="31.3" height="6.13"/><rect class="cls-34" x="408.33" y="274.76" width="31.3" height="6.13"/><rect class="cls-45" x="538.67" y="389.26" width="42.04" height="5.26"/><rect class="cls-45" x="584.88" y="389.26" width="27.13" height="5.26"/><rect class="cls-45" x="538.67" y="332.77" width="42.04" height="5.26"/><rect class="cls-45" x="584.88" y="332.77" width="27.13" height="5.26"/><rect class="cls-45" x="556.95" y="277.36" width="23.77" height="5.26"/><rect class="cls-45" x="584.88" y="277.36" width="27.13" height="5.26"/><path class="cls-46" d="M407.16,29h0a1.3,1.3,0,0,1,1.3,1.3V41.65a1.31,1.31,0,1,1-2.61,0V30.26a1.31,1.31,0,0,1,1.31-1.3"/><path class="cls-46" d="M414.16,36h0a1.31,1.31,0,0,1-1.31,1.3H401.46a1.31,1.31,0,0,1,0-2.61h11.39A1.31,1.31,0,0,1,414.16,36"/><path class="cls-46" d="M268.07,44.67h0a1.47,1.47,0,0,1,1.48,1.47V59.05a1.48,1.48,0,0,1-2.95,0V46.14a1.47,1.47,0,0,1,1.47-1.47"/><path class="cls-46" d="M276,52.59h0a1.48,1.48,0,0,1-1.48,1.48h-12.9a1.48,1.48,0,0,1,0-3h12.9A1.47,1.47,0,0,1,276,52.59"/><path class="cls-47" d="M320.12,4.34a5.12,5.12,0,0,0-3.61-1.5,5.05,5.05,0,0,0-3.6,1.49h0a5.09,5.09,0,0,0,0,7.21h0a5.1,5.1,0,0,0,7.21-7.22ZM316.51,0a7.93,7.93,0,0,1,5.62,2.33h0A7.94,7.94,0,1,1,310.9,13.56h0a8,8,0,0,1,0-11.23h0A7.91,7.91,0,0,1,316.51,0Z"/><path class="cls-47" d="M365.75,64.72a3.52,3.52,0,0,0-2.48-1,3.48,3.48,0,0,0-2.47,1h0a3.5,3.5,0,0,0,0,5h0a3.48,3.48,0,0,0,2.47,1,3.5,3.5,0,0,0,2.48-6Zm-2.48-3a5.43,5.43,0,0,1,3.86,1.6h0a5.44,5.44,0,1,1-7.7,7.7h0a5.44,5.44,0,0,1,0-7.71h0A5.43,5.43,0,0,1,363.27,61.74Z"/><path class="cls-47" d="M481.18,44.63a2.86,2.86,0,0,0-2-.84,2.82,2.82,0,0,0-2,.84h0a2.86,2.86,0,0,0,0,4h0a2.82,2.82,0,0,0,2,.84,2.86,2.86,0,0,0,2-4.89Zm-2-2.44a4.44,4.44,0,0,1,3.16,1.31h0a4.49,4.49,0,0,1,1.3,3.16A4.45,4.45,0,0,1,476,49.81h0a4.44,4.44,0,0,1,0-6.3h0A4.45,4.45,0,0,1,479.15,42.19Z"/><path class="cls-47" d="M216.3,40.38a2.88,2.88,0,0,0-2-.84,2.85,2.85,0,0,0-2,.84h0a2.86,2.86,0,0,0-.84,2,2.82,2.82,0,0,0,.84,2h0a2.88,2.88,0,0,0,2,.83,2.86,2.86,0,0,0,2-4.89Zm-2-2.43a4.47,4.47,0,0,1,3.15,1.3h0a4.46,4.46,0,1,1-6.31,6.3h0a4.47,4.47,0,0,1,0-6.3h0A4.45,4.45,0,0,1,214.28,38Z"/><path class="cls-46" d="M180.52,74.21h0a1.37,1.37,0,0,1,1.36,1.37v11.9a1.37,1.37,0,0,1-1.36,1.37h0a1.37,1.37,0,0,1-1.36-1.37V75.58a1.37,1.37,0,0,1,1.36-1.37"/><path class="cls-46" d="M187.84,81.53h0a1.37,1.37,0,0,1-1.36,1.36H174.57a1.36,1.36,0,0,1-1.36-1.36h0a1.36,1.36,0,0,1,1.36-1.36h11.91a1.37,1.37,0,0,1,1.36,1.36"/><path class="cls-47" d="M555.23,41.44a4.31,4.31,0,0,0-6.08,0h0a4.29,4.29,0,0,0,0,6.07h0a4.31,4.31,0,0,0,7.34-3,4.26,4.26,0,0,0-1.26-3Zm-3-3.65a6.66,6.66,0,0,1,4.73,2h0a6.69,6.69,0,1,1-9.46,9.45h0a6.69,6.69,0,0,1,0-9.46h0A6.69,6.69,0,0,1,552.19,37.79Z"/><path class="cls-46" d="M442,69.48h0a.92.92,0,0,1,.92.92v8.09a.93.93,0,0,1-.92.93h0a.93.93,0,0,1-.93-.93V70.4a.93.93,0,0,1,.93-.92"/><path class="cls-46" d="M447,74.45h0a.93.93,0,0,1-.93.92h-8.09a.93.93,0,0,1-.93-.92h0a.93.93,0,0,1,.93-.93H446a.93.93,0,0,1,.93.93"/></svg>