<svg id="Layer_1" data-name="Layer 1" xmlns="http://www.w3.org/2000/svg" viewBox="0 0 70.66 87.72"><defs><style>.cls-1{fill:#441115;}</style></defs><title>ايقونات وصور الاستضافة</title><path class="cls-1" d="M41.23,65.88c-5.53-.43-7.85-3.17-12.19-5.8C27.11,70.21,24.83,80,19.44,86.69a2.73,2.73,0,0,1-4.86-1.53c-.81-16.15,4.76-29,7.5-42.49-5.2-8.76.63-26.4,11.61-22C47.2,26,22,53.19,38.91,56.6c17.67,3.55,24.88-30.66,13.93-41.79C37-1.25,6.76,14.45,10.48,37.44c.7,4.37,4.37,6.38,3.9,10.7a3.85,3.85,0,0,1-5.5,3.09C1.87,48-.3,40.77,0,31.64.66,14.2,15.7,2,30.79.31c19.08-2.14,37,7,39.46,25,2.78,20.26-8.62,42.19-29,40.62Z"/></svg>