<svg id="Layer_1" data-name="Layer 1" xmlns="http://www.w3.org/2000/svg" viewBox="0 0 69.78 69.71"><defs><style>.cls-1{fill:#4c2a7b;}</style></defs><title>ايقونات وصور الاستضافة</title><path class="cls-1" d="M35,44.45c-1.66,1.58-3.52,3.39-5.43,5.14a2.66,2.66,0,0,0-.93,2.86c1.6,7.92-3.58,15.35-11.69,17a14.45,14.45,0,0,1-5.74-28.32A19.94,19.94,0,0,1,17.39,41a2.53,2.53,0,0,0,2.53-.82c1.8-1.95,3.65-3.86,5.38-5.67ZM14.4,50.56a4.72,4.72,0,0,0-4.63,4.73,4.77,4.77,0,0,0,4.64,4.56,4.68,4.68,0,0,0,4.68-4.67A4.58,4.58,0,0,0,14.4,50.56Z"/><path class="cls-1" d="M64.19,2.13c-2.37,2.24-4.46,4.18-6.51,6.16a3.08,3.08,0,0,0-.18,4,3.16,3.16,0,0,0,4-.31l5.81-5.74c.08-.08.23-.08.35-.12,4,7.86,1.92,15.92-5.1,19.68a11.81,11.81,0,0,1-8.43,1.5,3.12,3.12,0,0,0-3.37,1.14c-2.1,2.29-4.33,4.47-6.38,6.56l-9.5-9.65c1.91-1.91,4.16-4.22,6.49-6.45a3.12,3.12,0,0,0,1.1-3C40.93,5,50.94-2.88,61.22,1Z"/><path class="cls-1" d="M.15,6,6.05.14l10,8-2.14,2.24L46.22,42.64l4-4.63,6.32,6.42-12,12L38.42,50,42.7,46.2,10.34,14,8.21,16Z"/><path class="cls-1" d="M59.78,48.33A106,106,0,0,1,67.93,56c2.87,3.28,2.27,8.22-.87,11.27a8.39,8.39,0,0,1-11.32.45c-2.74-2.45-5.13-5.28-7.55-7.81Z"/></svg>