<svg id="Layer_1" data-name="Layer 1" xmlns="http://www.w3.org/2000/svg" viewBox="0 0 96.81 96.63"><defs><style>.cls-1{fill:#010101;}.cls-2{fill:#fcdc55;}.cls-3{fill:#6b9cd2;}.cls-4{fill:#ffcc04;}.cls-5{fill:#4a7cbc;}.cls-6{fill:#f6f9fb;}.cls-7{fill:#fccb0c;}.cls-8{fill:#facb0d;}.cls-9{fill:#e6bb1f;}.cls-10{fill:#201e04;}.cls-11{fill:#37310d;}.cls-12{fill:#39340e;}.cls-13{fill:#00050a;}.cls-14{fill:#020b19;}.cls-15{fill:#050201;}.cls-16{fill:#07162b;}.cls-17{fill:#020a17;}.cls-18{fill:#010204;}.cls-19{fill:#030101;}.cls-20{fill:#000408;}.cls-21{fill:#060304;}.cls-22{fill:#00b5bc;}.cls-23{fill:#f37959;}.cls-24{fill:#02a8ae;}.cls-25{fill:#e26f51;}.cls-26{fill:#00b4bb;}</style></defs><title>ايقونات وصور الاستضافة</title><path class="cls-1" d="M96.79,40.68a7.19,7.19,0,0,0-4.29-7.1c-4.78-2.42-10-3-15.14-4-4.15-.78-9.06,1.17-12.32-3.22-.31-.42-1.23-.48-1.89-.55-1.1-.12-1.93-.15-1.87-1.75s.86-1.27,1.81-1.43c3.14-.53,4.56-2.28,4.58-5.54,0-3.45,0-6.9,0-10.35C67.67,1.49,66.2,0,60.82,0,51.91,0,43,0,34.08,0,25,0,15.87,0,6.77,0,1.68,0,.11,1.64.06,6.75c0,3.45-.1,6.9,0,10.35s1.46,5,4.92,5.57c.91.15,1.63.06,1.64,1.35s-.38,1.54-1.57,1.77c-3.87.76-4.91,2.07-5,6.09C0,35.23,0,38.59.06,41.94c.06,4.32,1,5.49,5.25,6.4,1.18.25,1.28.77,1.32,1.72.06,1.14-.4,1.36-1.47,1.52C1.45,52.12.22,53.47.09,57.24,0,60.78,0,64.33.06,67.88.15,72.54,1.7,74,6.34,74c8.82,0,17.64.1,26.45-.06,2.37,0,2.91.73,2.77,2.89-.18,2.67.16,5.38-.09,8-.35,3.78,1.54,6,4.65,7.39A31.18,31.18,0,0,0,44.66,94c10.27,2.91,20.77,3,31.28,2.12a46.64,46.64,0,0,0,15.82-3.68c3.39-1.55,5.08-3.88,5-7.79C96.68,70,96.71,55.35,96.79,40.68ZM57.29,25.76H52a.63.63,0,0,1-.63-.62V23.06a.63.63,0,0,1,.63-.62h5.29a.63.63,0,0,1,.63.62v2.08A.63.63,0,0,1,57.29,25.76ZM9.58,23.47a.87.87,0,0,1,.86-.86H15.3a.86.86,0,0,1,.86.86V24.9a.86.86,0,0,1-.86.86H10.44a.87.87,0,0,1-.86-.86Zm0,25.77a.86.86,0,0,1,.86-.86H15.3a.85.85,0,0,1,.86.86v1.42a.86.86,0,0,1-.86.87h0a2.12,2.12,0,0,1-1.09,0H11.8a1.89,1.89,0,0,1-1.2,0h-.16a.87.87,0,0,1-.86-.87Z"/><path class="cls-2" d="M88.4,74C82.88,76.47,77,76.8,71.08,77.15A75.33,75.33,0,0,1,44.7,74.53c-.91-.27-1.77-.7-2.67-1a4.25,4.25,0,0,1-3.23-4.94c.24-2.85.06-5.73.06-9a50,50,0,0,0,15.37,4.11c11.09,1.25,22.1,1.08,33-1.79a7,7,0,0,1,1.14-.11A17.26,17.26,0,0,1,88.4,74Z"/><path class="cls-2" d="M88.42,58c-5.36,2.29-11.07,2.7-16.77,3.05-9.11.56-18.14,0-27-2.57-.9-.27-1.75-.72-2.65-1a4.24,4.24,0,0,1-3.24-5c.25-2.85.06-5.74.06-8.95a50.37,50.37,0,0,0,15.36,4.1c11.21,1.31,22.3,1.06,33.27-1.85a4,4,0,0,1,.85-.05A17.48,17.48,0,0,1,88.42,58Z"/><path class="cls-2" d="M84.93,91.18c-7.52,2.23-15.25,2.46-23,2.13-6.38-.27-12.73-1-18.83-3.21C40,89,38.33,87.42,38.79,83.85a66.27,66.27,0,0,0,.07-8.15A44.72,44.72,0,0,0,50,79.18c12.49,2,24.91,2,37.23-1.15a6.23,6.23,0,0,1,1.15-.1c1.62,3.43,1.13,7,.3,10.46C88.25,90.05,86.42,90.57,84.93,91.18Z"/><path class="cls-3" d="M59.57,19.26q-26.86.06-53.72.12c-1.26,0-2.47-.18-2.51-1.68-.08-4.31,0-8.62,0-12.92,0-.36.57-.71.87-1.06a4.14,4.14,0,0,1,2-.22h51c3,0,3.18.28,2.23,3.07A2.47,2.47,0,0,0,59,9c.81,1.14,1.7,2.26,1,3.8-1.77,1.37-.94,2.68.09,4A2.28,2.28,0,0,1,59.57,19.26Z"/><path class="cls-4" d="M86.06,42.74a83.51,83.51,0,0,1-40.3,0,20.85,20.85,0,0,1-5.26-2.19c-2.24-1.26-2.19-2.42,0-3.7a32.27,32.27,0,0,1,12-3.57c10.78-1.4,21.55-1.43,32.23,1a7.29,7.29,0,0,1,1.3.54C90.1,37.43,90.09,39.16,86.06,42.74Z"/><path class="cls-3" d="M56.93,29.09c-4.85,1-9.75,1.52-14.4,3.32-6.2,2.41-7.09,3.48-7,10,0,2.24-.56,2.85-2.81,2.81-8.71-.14-17.42-.11-26.13,0-2.45,0-3.49-.77-3.38-3.31.14-3.44,0-6.89,0-10.33,0-1.6.51-2.53,2.3-2.52Q31.25,29.11,56.93,29.09Z"/><path class="cls-3" d="M19.63,54.92c4.6,0,9.2.06,13.8,0,1.59,0,2.17.37,2.12,2.06-.12,4-.11,8,0,12.07.05,1.67-.53,2.08-2.13,2.07-9-.07-18,0-27,0-2.1,0-3.21-.74-3.14-3,.1-3.55.07-7.1,0-10.64,0-1.86.73-2.53,2.58-2.5C10.43,55,15,54.92,19.63,54.92Z"/><path class="cls-5" d="M59.57,19.26l0-2.86a2.47,2.47,0,0,0,.09-3.53C60,11.25,59.19,10.23,58,9.4c.61-.6,1.63-.45,2.23-1.12C59.89,7,58.52,7.51,58,6.78c.33-.88,2.22-.81,1.5-2.31-.54-1.14-1.68-.67-2.56-.67Q30.56,3.73,4.22,3.72C5,2.8,6,3.22,6.9,3.22c18,0,36,0,54.06-.05,2.85,0,3.78,1,3.67,3.68s0,5.17,0,7.76C64.6,19.53,64.54,19.59,59.57,19.26Z"/><path class="cls-6" d="M33.73,25.7H21.4c-1.08,0-2,.13-2-1.54s1.1-1.45,2.1-1.45H46.42c1.1,0,2-.11,2,1.54s-1.06,1.45-2.08,1.46Z"/><path class="cls-7" d="M84.93,91.18c2.61-1.63,4-3.78,3.51-7a45.87,45.87,0,0,1-.1-6.21c1.6-.74,3.21-1.47,5.11-2.33,0,3.78,0,7.19,0,10.6a2.73,2.73,0,0,1-1.6,2.52A16.54,16.54,0,0,1,84.93,91.18Z"/><path class="cls-8" d="M88.42,58q0-6.12-.08-12.24l5.11-2.32c0,3.8.21,7.28-.06,10.73C93.17,56.94,90.52,57.25,88.42,58Z"/><path class="cls-8" d="M88.4,74l-.06-12.22,5.11-2.33c0,3.81.22,7.3-.07,10.74C93.15,73,90.55,73.4,88.4,74Z"/><path class="cls-6" d="M27.22,51.53c-1.91,0-3.82,0-5.74,0-1,0-2.1.32-2.09-1.44,0-1.52.71-1.71,1.93-1.7,4.21,0,8.42.06,12.63,0,1.32,0,1.56.5,1.6,1.68.06,1.4-.61,1.53-1.73,1.5C31.63,51.49,29.42,51.53,27.22,51.53Z"/><path class="cls-9" d="M86.06,42.74a1.77,1.77,0,0,1,.14-.55c2.64-3.87,2.64-3.87-.12-7.35a12.63,12.63,0,0,1,6,2.3c1.62,1,1.72,2.1,0,3.18A19.75,19.75,0,0,1,86.06,42.74Z"/><path class="cls-10" d="M67.67,72.54c.25,1.36-.49,1.57-1.64,1.56s-1.69-.39-1.68-1.65.67-1.54,1.78-1.58C67.42,70.82,67.88,71.33,67.67,72.54Z"/><path class="cls-11" d="M67.7,54.7c.08,1.07,0,1.9-1.4,1.86-1.19,0-2-.2-2-1.67s.54-1.74,1.82-1.74S67.93,53.47,67.7,54.7Z"/><path class="cls-12" d="M66.12,85.38c1.21-.21,1.67.29,1.62,1.56,0,1.11-.17,1.81-1.54,1.79s-1.9-.41-1.89-1.83S65,85.25,66.12,85.38Z"/><path class="cls-13" d="M24.4,6.61c4.73,0,4.73,0,4.73,5.13,0,4.39,0,4.39-5.58,4.39-4.15,0-4.15,0-4.15-5.51C19.4,6.61,19.4,6.61,24.4,6.61Z"/><path class="cls-14" d="M43.61,6.6h9.47c1,0,1.9-.12,1.89,1.39,0,1.35-.46,1.88-1.82,1.88q-9.46-.06-18.95,0c-1.29,0-1.89-.38-1.89-1.8s.76-1.48,1.82-1.47C37.29,6.62,40.45,6.6,43.61,6.6Z"/><path class="cls-14" d="M43.6,16.18c-3.06,0-6.12,0-9.18,0-1.34,0-2.15-.22-2.11-1.87S33.57,13,34.5,13c6.12,0,12.24,0,18.36,0,1,0,2.11-.33,2.12,1.43s-1,1.79-2.2,1.78C49.72,16.16,46.66,16.18,43.6,16.18Z"/><path class="cls-15" d="M11.37,16.12c-4.72,0-4.71,0-4.72-5.16s-.19-4.3,5.47-4.34c4,0,4,0,4,5.26C16.16,16.12,16.16,16.12,11.37,16.12Z"/><path class="cls-16" d="M59.62,12.87c.9.1,1.77,0,1.79,1.44s-.59,2-1.88,2.09c-1.28-.09-1.6-.8-1.64-2C57.85,13,58.67,12.93,59.62,12.87Z"/><path class="cls-17" d="M58,6.78l2.25-.14c1.13-.08,1.13.68,1.13,1.47s0,1.56-1.15,1.48L58,9.4C58,8.53,58,7.65,58,6.78Z"/><path class="cls-18" d="M24.28,41.79c-5.07,0-4.9.68-4.88-4.95,0-4.56,0-4.56,5.13-4.56,4.6,0,4.6,0,4.6,5.38C29.13,41.79,29.13,41.79,24.28,41.79Z"/><path class="cls-19" d="M11.49,41.79c-5.42,0-4.82.55-4.84-4.95,0-4.56,0-4.56,5.08-4.56,4.43,0,4.43,0,4.43,5.22C16.16,41.79,16.16,41.79,11.49,41.79Z"/><path class="cls-20" d="M29.13,62.94c0,4.7,0,4.7-5.53,4.7-4.2,0-4.2,0-4.2-5.47,0-4.26,0-4.26,5.25-4.26C29.13,57.91,29.13,57.91,29.13,62.94Z"/><path class="cls-21" d="M16.16,62.75c0,4.88,0,4.88-4.73,4.89-5.54,0-4.74.3-4.78-5.32,0-4.41,0-4.41,5.22-4.41C16.16,57.92,16.16,57.92,16.16,62.75Z"/><path class="cls-22" d="M25.68,11.38c.18,1.18-.23,1.64-1.38,1.62s-1.57-.18-1.57-1.39.27-1.75,1.59-1.7C25.46,10,25.9,10.38,25.68,11.38Z"/><path class="cls-23" d="M11.6,10c1.18-.16,1.42.5,1.44,1.53S12.73,13,11.58,13,9.92,12.55,10,11.33,10.58,9.85,11.6,10Z"/><path class="cls-24" d="M25.72,37.26c.18,1.28-.5,1.55-1.65,1.55s-1.31-.69-1.34-1.62c0-1.12.23-1.72,1.54-1.72S25.84,36.17,25.72,37.26Z"/><path class="cls-25" d="M11.55,38.76C10,38.92,10,38,9.93,37c0-1.37.8-1.47,1.85-1.47,1.29,0,1.24.82,1.27,1.7C13.08,38.36,12.75,39.08,11.55,38.76Z"/><path class="cls-26" d="M25.7,62.66c.06,1,0,1.71-1.27,1.71s-1.73-.28-1.7-1.58c0-1.07.31-1.54,1.46-1.51S25.89,61.48,25.7,62.66Z"/><path class="cls-23" d="M11.5,64.34C10.39,64.46,10,64,10,62.86c-.06-1.34.58-1.56,1.73-1.58S13,61.93,13,62.91C13.06,64.05,12.59,64.49,11.5,64.34Z"/><rect class="cls-23" x="9.53" y="9.38" width="3.75" height="3.75" rx="0.53" ry="0.53"/><rect class="cls-23" x="9.53" y="35.27" width="3.75" height="3.75" rx="0.53" ry="0.53"/><rect class="cls-23" x="9.62" y="60.9" width="3.75" height="3.75" rx="0.53" ry="0.53"/><rect class="cls-24" x="22.39" y="61.11" width="3.75" height="3.75" rx="0.53" ry="0.53"/><rect class="cls-24" x="22.39" y="35.29" width="3.75" height="3.75" rx="0.53" ry="0.53"/><rect class="cls-24" x="22.39" y="9.38" width="3.75" height="3.75" rx="0.53" ry="0.53"/><rect class="cls-1" x="64" y="53.17" width="5.2" height="5.2" rx="1.84" ry="1.84"/><rect class="cls-1" x="64" y="69.3" width="5.2" height="5.2" rx="1.84" ry="1.84"/><rect class="cls-1" x="64" y="84.23" width="5.2" height="5.2" rx="1.84" ry="1.84"/></svg>