<svg id="Layer_1" data-name="Layer 1" xmlns="http://www.w3.org/2000/svg" viewBox="0 0 101.62 95.64"><defs><style>.cls-1{fill:#441115;}</style></defs><title>ايقونات وصور الاستضافة</title><path class="cls-1" d="M0,74.5V72.91a4.23,4.23,0,0,1,2.39-1.6c8.34-1.65,13.92-7,18.12-13.94,3.54-5.87,3-7.21-3.55-9.52-.37-.13-.75-.24-1.12-.39a13.64,13.64,0,0,1-4-2.21c-2.92-2.53-1.2-6.19,2.25-7,2.51-.61,4.7,1,7.14,1.31,1.63.21,2.29-.34,2.08-2.08A84.17,84.17,0,0,1,23.06,24c.4-8.57,4.62-15.1,11.76-19.33C45.24-1.5,56.13-1.58,66.63,4.58,73.18,8.42,77.41,14.24,78.33,22a77.71,77.71,0,0,1,0,15.25c-.17,2.2.28,2.61,2.46,2.1,2.71-.64,5-2,7.8-.8a4.3,4.3,0,0,1,2.78,3.73,4.15,4.15,0,0,1-1.54,2.91,16,16,0,0,1-4.57,2.4c-1.23.49-2.5.88-3.69,1.44-2.47,1.15-3.17,2.67-2,5.11,4,8.43,9.85,14.83,19.33,17.05a4.56,4.56,0,0,1,2.78,1.68V74.5a7.32,7.32,0,0,1-4.33,3.56,19.73,19.73,0,0,1-5.7,1.61c-2.75.18-4.2,1.38-4.62,4.24S85.76,87,83,86.79a18.52,18.52,0,0,1-2-.29c-5.43-1-10.53-.41-15,3.2a33.23,33.23,0,0,1-2.78,1.9c-7.61,4.94-15.41,5.5-23.36.87-2.16-1.27-4.22-2.72-6.32-4.1a14,14,0,0,0-5.7-2.09c-3.3-.5-6.45.24-9.66.6-1.65.18-3.24-.29-3.33-2-.23-4.1-2.75-5.11-6.2-5.49A17.91,17.91,0,0,1,4,77.93,7,7,0,0,1,0,74.5Z"/></svg>