<svg id="Layer_1" data-name="Layer 1" xmlns="http://www.w3.org/2000/svg" viewBox="0 0 90.25 74.33"><defs><style>.cls-1,.cls-2{fill:#441115;}.cls-2{fill-rule:evenodd;}</style></defs><title>ايقونات وصور الاستضافة</title><path class="cls-1" d="M89.91,8.91a37,37,0,0,1-9.12,2.6c1.47-.24,3.64-2.9,4.5-4a16.82,16.82,0,0,0,3-5.53c.08-.15.14-.35,0-.47a.5.5,0,0,0-.48,0A46.76,46.76,0,0,1,77,5.71a.74.74,0,0,1-.75-.19,8,8,0,0,0-1-1,19.12,19.12,0,0,0-5.24-3.22A18.3,18.3,0,0,0,62,0a19.22,19.22,0,0,0-7.63,2.15,19.85,19.85,0,0,0-6.16,5,18.8,18.8,0,0,0-3.67,7.37,19.78,19.78,0,0,0-.2,7.78c.06.43,0,.49-.37.43C29.1,20.59,16.78,15.26,6.77,3.86c-.44-.5-.67-.5-1,0C1.36,10.46,3.49,21,9,26.19c.73.69,1.48,1.38,2.28,2a19,19,0,0,1-7.18-2c-.43-.27-.65-.12-.69.38a11.14,11.14,0,0,0,.12,2.13A19.09,19.09,0,0,0,15.25,43.91a11.59,11.59,0,0,0,2.39.73c-1.44.31-2.92.54-7,.22-.51-.1-.7.15-.51.65,3.1,8.44,9.79,11,14.8,12.39.67.11,1.34.11,2,.27,0,.06-.08.06-.12.12-1.66,2.53-7.42,4.42-10.1,5.36a36.25,36.25,0,0,1-15.35,2c-.82-.12-1-.11-1.22,0s0,.34.24.55c1,.69,2.11,1.31,3.19,1.9a51.35,51.35,0,0,0,10.26,4.1c18.44,5.09,39.2,1.35,53.05-12.4C77.71,49,81.52,34.06,81.52,19.15c0-.59.69-.91,1.1-1.22a35.74,35.74,0,0,0,7.18-7.5A2.17,2.17,0,0,0,90.25,9V8.91C90.25,8.67,90.28,8.74,89.91,8.91Z"/><path class="cls-2" d="M26.8,74Z"/><path class="cls-2" d="M29.84,74.09c0-.15,1.6,0,0,0C29.84,74,30,74.09,29.84,74.09Z"/><path class="cls-2" d="M61.76.11a.31.31,0,0,1-.37,0Z"/></svg>