<svg id="Layer_1" data-name="Layer 1" xmlns="http://www.w3.org/2000/svg" viewBox="0 0 321.58 238.4"><defs><style>.cls-1{fill:#f5f5f5;}.cls-2{fill:#e1e1e1;}.cls-3{fill:#1a2e35;}.cls-4{fill:#375a64;}.cls-5{fill:#ff4f5b;}.cls-6{fill:#ececec;}.cls-7{fill:#fff;}.cls-8{fill:#fafafa;}.cls-9{opacity:0.4;}</style></defs><title>ايقونات وصور الاستضافة</title><path class="cls-1" d="M255.2,159.43c-10.76-9.24-11.88-24.49-10.08-37.92.3-2.25.29-4.64,1.55-6.51s3.9-3,5.82-1.82c1.6.95,2.13,3,2.9,4.67a13.25,13.25,0,0,0,4.78,5.57c1.36.88,3.08,1.51,4.58.88,2-.88,2.54-3.54,2.75-5.78L268.67,106A21,21,0,0,1,270,99.42a7,7,0,0,1,4.83-4.25c2.19-.39,4.69,1.1,4.93,3.34a22,22,0,0,1-.22,2.79,2.37,2.37,0,0,0,1.16,2.35,2.73,2.73,0,0,0,2.56-.78,29.9,29.9,0,0,0,6.14-7.53,41.57,41.57,0,0,1,5.82-7.83c2.34-2.25,5.43-3.92,8.65-3.78s6.44,2.46,6.94,5.68-1.66,6.26-3.92,8.61a50.5,50.5,0,0,1-11.39,8.88,4.12,4.12,0,0,0-1.92,1.69c-.64,1.45.63,3.07,2.05,3.71,1.61.72,3.44.73,5.16,1.11s3.54,1.33,4,3c.69,2.38-1.47,4.58-3.5,6a43,43,0,0,1-13.4,6,14.64,14.64,0,0,0-4.93,1.82c-1.44,1-2.45,3-1.8,4.61s2.65,2.37,4.41,2.22a30.1,30.1,0,0,0,5.1-1.38c3.19-.86,7.14-.25,8.84,2.6a7.13,7.13,0,0,1,.13,6.34,16.36,16.36,0,0,1-3.94,5.19A43.26,43.26,0,0,1,276.09,161c-7.38,1.77-14.06,1.78-20.89-1.52"/><path class="cls-2" d="M259.52,151.32a201.42,201.42,0,0,1,10.11-20.79l2.93-5.31c1-1.75,1.93-3.47,3-5.11a101.83,101.83,0,0,1,6.52-9c2.21-2.77,4.41-5.32,6.49-7.7s4.06-4.53,5.95-6.43a79.82,79.82,0,0,1,9.58-8.3c1.2-.88,2.16-1.54,2.81-2l.75-.49.26-.16s-.07.07-.24.19l-.72.53c-.64.46-1.58,1.14-2.76,2a84.68,84.68,0,0,0-9.47,8.38c-1.87,1.91-3.84,4.08-5.9,6.45s-4.26,4.94-6.45,7.71a102.15,102.15,0,0,0-6.48,9c-1,1.63-2,3.34-2.95,5.09L270,130.73a207.49,207.49,0,0,0-10.13,20.74"/><path class="cls-2" d="M275.65,120.11a4.44,4.44,0,0,1-.12-1c-.06-.63-.11-1.54-.16-2.67-.09-2.26-.11-5.39-.13-8.83s-.08-6.56-.21-8.81c-.06-1.13-.12-2-.17-2.67a4.32,4.32,0,0,1,0-1,5.15,5.15,0,0,1,.18,1c.1.63.21,1.54.3,2.66.21,2.26.32,5.39.34,8.84s0,6.47,0,8.82c0,1.06,0,2,0,2.68A4.45,4.45,0,0,1,275.65,120.11Z"/><path class="cls-2" d="M305,117.6a5.48,5.48,0,0,1-1.16,0c-.74,0-1.82,0-3.15,0-2.66,0-6.34.18-10.39.53s-7.71.85-10.34,1.27c-1.31.2-2.38.4-3.11.53a6,6,0,0,1-1.15.16,5.88,5.88,0,0,1,1.12-.32c.72-.18,1.78-.42,3.1-.66,2.62-.5,6.28-1,10.34-1.39a101.8,101.8,0,0,1,10.43-.42c1.34,0,2.42.08,3.16.14A5.49,5.49,0,0,1,305,117.6Z"/><path class="cls-2" d="M259.93,150.83a1.61,1.61,0,0,1-.16-.37c-.11-.3-.24-.66-.39-1.09-.33-1-.78-2.33-1.31-4.05-1.06-3.43-2.37-8.22-3.75-13.53s-2.65-10.1-3.63-13.55c-.49-1.68-.89-3.06-1.18-4.09-.13-.44-.23-.81-.32-1.11s-.1-.39-.08-.4a1.61,1.61,0,0,1,.16.37c.11.3.23.66.39,1.09.33,1,.78,2.33,1.31,4.05,1.06,3.44,2.37,8.23,3.75,13.53s2.65,10.1,3.63,13.55c.49,1.68.89,3.06,1.18,4.09.13.44.23.81.32,1.11A2.38,2.38,0,0,1,259.93,150.83Z"/><path class="cls-2" d="M299.39,142.32a2.61,2.61,0,0,1-.4.12l-1.14.26-4.23.92c-3.57.78-8.49,1.9-13.92,3.16s-10.36,2.34-13.94,3c-1.8.35-3.25.62-4.26.79l-1.16.18a1.81,1.81,0,0,1-.41,0,1.49,1.49,0,0,1,.39-.12l1.15-.26,4.23-.92c3.57-.77,8.48-1.9,13.91-3.16s10.37-2.34,13.95-3c1.79-.35,3.25-.62,4.26-.79l1.16-.18A1.75,1.75,0,0,1,299.39,142.32Z"/><path class="cls-2" d="M281.13,61.7a6.31,6.31,0,0,1-7.4-8l10.8-34.76a6.23,6.23,0,0,1,4.63-4.28h0a6.29,6.29,0,0,1,6,1.88l24.7,26.73a6.32,6.32,0,0,1-3.25,10.45l-35.5,8Zm8.46-45.25h0a4.36,4.36,0,0,0-3.25,3l-10.8,34.76a4.43,4.43,0,0,0,5.19,5.64h0l35.49-8a4.43,4.43,0,0,0,2.28-7.33l-24.7-26.73A4.41,4.41,0,0,0,289.59,16.45Z"/><path class="cls-2" d="M294.12,48.33A2.34,2.34,0,0,1,296,45.52a2.3,2.3,0,0,1,2.84,1.73,2.41,2.41,0,0,1-4.7,1.08Zm-4.05-18.52,4.35-1,2.43,13.91-2.91.67Z"/><rect class="cls-3" x="14.28" y="154.41" width="96.31" height="68.18"/><rect class="cls-4" x="0.21" y="147.36" width="105.29" height="26.12"/><path class="cls-3" d="M33.56,154.41a1.19,1.19,0,1,1-1.19-1.19A1.19,1.19,0,0,1,33.56,154.41Z"/><path class="cls-3" d="M38.8,154.41a1.19,1.19,0,1,1-1.19-1.19A1.19,1.19,0,0,1,38.8,154.41Z"/><path class="cls-3" d="M44.05,154.41a1.19,1.19,0,1,1-1.19-1.19A1.19,1.19,0,0,1,44.05,154.41Z"/><path class="cls-3" d="M49.3,154.41a1.19,1.19,0,1,1-1.19-1.19A1.19,1.19,0,0,1,49.3,154.41Z"/><path class="cls-3" d="M90,154.41a1.19,1.19,0,1,1-1.19-1.19A1.19,1.19,0,0,1,90,154.41Z"/><path class="cls-3" d="M95.32,154.41a1.19,1.19,0,1,1-1.19-1.19A1.19,1.19,0,0,1,95.32,154.41Z"/><path class="cls-3" d="M54.55,154.41a1.19,1.19,0,1,1-1.19-1.19A1.19,1.19,0,0,1,54.55,154.41Z"/><path class="cls-3" d="M80.32,154.41a1.19,1.19,0,1,1-1.19-1.19A1.19,1.19,0,0,1,80.32,154.41Z"/><path class="cls-1" d="M59.79,154.41a1.19,1.19,0,1,1-1.18-1.19A1.18,1.18,0,0,1,59.79,154.41Z"/><path class="cls-1" d="M65,154.41a1.19,1.19,0,1,1-1.19-1.19A1.19,1.19,0,0,1,65,154.41Z"/><path class="cls-1" d="M75.69,154.41a1.19,1.19,0,1,1-1.19-1.19A1.19,1.19,0,0,1,75.69,154.41Z"/><path class="cls-1" d="M99.67,154.41a1.19,1.19,0,1,1-1.19-1.19A1.19,1.19,0,0,1,99.67,154.41Z"/><path class="cls-5" d="M70.29,154.41a1.19,1.19,0,1,1-1.19-1.19A1.19,1.19,0,0,1,70.29,154.41Z"/><path class="cls-5" d="M85.32,154.41a1.19,1.19,0,1,1-1.19-1.19A1.19,1.19,0,0,1,85.32,154.41Z"/><path class="cls-3" d="M97.29,160.14a1.19,1.19,0,1,1,1.19,1.19A1.19,1.19,0,0,1,97.29,160.14Z"/><circle class="cls-3" cx="93.23" cy="160.14" r="1.19"/><path class="cls-3" d="M86.8,160.14A1.19,1.19,0,1,1,88,161.33,1.19,1.19,0,0,1,86.8,160.14Z"/><path class="cls-3" d="M81.55,160.14a1.19,1.19,0,1,1,1.19,1.19A1.19,1.19,0,0,1,81.55,160.14Z"/><path class="cls-3" d="M40.88,160.14a1.19,1.19,0,1,1,1.19,1.19A1.19,1.19,0,0,1,40.88,160.14Z"/><path class="cls-3" d="M35.53,160.14a1.19,1.19,0,1,1,1.19,1.19A1.19,1.19,0,0,1,35.53,160.14Z"/><circle class="cls-3" cx="77.49" cy="160.14" r="1.19"/><circle class="cls-3" cx="51.72" cy="160.14" r="1.19"/><path class="cls-1" d="M71.05,160.14a1.19,1.19,0,1,1,1.19,1.19A1.19,1.19,0,0,1,71.05,160.14Z"/><path class="cls-1" d="M65.81,160.14A1.19,1.19,0,1,1,67,161.33,1.18,1.18,0,0,1,65.81,160.14Z"/><path class="cls-1" d="M55.16,160.14a1.19,1.19,0,1,1,1.19,1.19A1.19,1.19,0,0,1,55.16,160.14Z"/><path class="cls-1" d="M31.18,160.14a1.19,1.19,0,1,1,1.19,1.19A1.19,1.19,0,0,1,31.18,160.14Z"/><path class="cls-5" d="M60.56,160.14a1.19,1.19,0,1,1,1.19,1.19A1.19,1.19,0,0,1,60.56,160.14Z"/><path class="cls-5" d="M45.53,160.14a1.19,1.19,0,1,1,1.19,1.19A1.19,1.19,0,0,1,45.53,160.14Z"/><path class="cls-3" d="M33.56,165.24a1.19,1.19,0,1,1-1.19-1.19A1.19,1.19,0,0,1,33.56,165.24Z"/><path class="cls-3" d="M38.8,165.24a1.19,1.19,0,1,1-1.19-1.19A1.19,1.19,0,0,1,38.8,165.24Z"/><path class="cls-3" d="M44.05,165.24a1.19,1.19,0,1,1-1.19-1.19A1.19,1.19,0,0,1,44.05,165.24Z"/><path class="cls-3" d="M49.3,165.24a1.19,1.19,0,1,1-1.19-1.19A1.19,1.19,0,0,1,49.3,165.24Z"/><path class="cls-3" d="M90,165.24a1.19,1.19,0,1,1-1.19-1.19A1.19,1.19,0,0,1,90,165.24Z"/><path class="cls-3" d="M95.32,165.24a1.19,1.19,0,1,1-1.19-1.19A1.19,1.19,0,0,1,95.32,165.24Z"/><path class="cls-3" d="M54.55,165.24a1.19,1.19,0,1,1-1.19-1.19A1.19,1.19,0,0,1,54.55,165.24Z"/><path class="cls-3" d="M80.32,165.24a1.19,1.19,0,1,1-1.19-1.19A1.19,1.19,0,0,1,80.32,165.24Z"/><path class="cls-1" d="M59.79,165.24a1.19,1.19,0,1,1-1.18-1.19A1.18,1.18,0,0,1,59.79,165.24Z"/><path class="cls-1" d="M65,165.24a1.19,1.19,0,1,1-1.19-1.19A1.19,1.19,0,0,1,65,165.24Z"/><path class="cls-1" d="M75.69,165.24a1.19,1.19,0,1,1-1.19-1.19A1.19,1.19,0,0,1,75.69,165.24Z"/><path class="cls-1" d="M99.67,165.24a1.19,1.19,0,1,1-1.19-1.19A1.19,1.19,0,0,1,99.67,165.24Z"/><path class="cls-5" d="M70.29,165.24a1.19,1.19,0,1,1-1.19-1.19A1.19,1.19,0,0,1,70.29,165.24Z"/><path class="cls-5" d="M85.32,165.24a1.19,1.19,0,1,1-1.19-1.19A1.19,1.19,0,0,1,85.32,165.24Z"/><rect class="cls-3" x="4.89" y="152.74" width="20.73" height="3.19"/><rect class="cls-3" x="4.89" y="158.23" width="20.73" height="3.19"/><rect class="cls-3" x="4.89" y="163.9" width="20.73" height="3.19"/><rect class="cls-4" x="0.21" y="179.6" width="105.29" height="26.12"/><rect class="cls-3" x="4.89" y="184.98" width="20.73" height="3.19"/><rect class="cls-3" x="4.89" y="190.46" width="20.73" height="3.19"/><rect class="cls-3" x="4.89" y="196.14" width="20.73" height="3.19"/><path class="cls-3" d="M33.17,186.64A1.19,1.19,0,1,1,32,185.45,1.19,1.19,0,0,1,33.17,186.64Z"/><path class="cls-3" d="M38.42,186.64a1.19,1.19,0,0,1-2.38,0,1.19,1.19,0,0,1,2.38,0Z"/><path class="cls-3" d="M43.67,186.64a1.19,1.19,0,1,1-1.19-1.19A1.19,1.19,0,0,1,43.67,186.64Z"/><path class="cls-3" d="M48.92,186.64a1.19,1.19,0,1,1-1.19-1.19A1.19,1.19,0,0,1,48.92,186.64Z"/><path class="cls-3" d="M89.58,186.64a1.19,1.19,0,1,1-1.19-1.19A1.19,1.19,0,0,1,89.58,186.64Z"/><path class="cls-3" d="M94.94,186.64a1.19,1.19,0,1,1-1.19-1.19A1.19,1.19,0,0,1,94.94,186.64Z"/><path class="cls-3" d="M54.17,186.64A1.19,1.19,0,1,1,53,185.45,1.19,1.19,0,0,1,54.17,186.64Z"/><path class="cls-3" d="M79.94,186.64a1.19,1.19,0,1,1-1.19-1.19A1.19,1.19,0,0,1,79.94,186.64Z"/><path class="cls-1" d="M59.41,186.64a1.19,1.19,0,1,1-2.38,0,1.19,1.19,0,0,1,2.38,0Z"/><path class="cls-1" d="M64.66,186.64a1.19,1.19,0,1,1-2.38,0,1.19,1.19,0,0,1,2.38,0Z"/><path class="cls-1" d="M75.31,186.64a1.19,1.19,0,1,1-1.19-1.19A1.19,1.19,0,0,1,75.31,186.64Z"/><path class="cls-1" d="M99.29,186.64a1.19,1.19,0,1,1-1.19-1.19A1.19,1.19,0,0,1,99.29,186.64Z"/><path class="cls-5" d="M69.91,186.64a1.19,1.19,0,1,1-1.19-1.19A1.19,1.19,0,0,1,69.91,186.64Z"/><path class="cls-5" d="M84.93,186.64a1.19,1.19,0,1,1-1.18-1.19A1.18,1.18,0,0,1,84.93,186.64Z"/><path class="cls-3" d="M96.91,192.38a1.19,1.19,0,1,1,1.19,1.18A1.19,1.19,0,0,1,96.91,192.38Z"/><path class="cls-3" d="M91.66,192.38a1.19,1.19,0,1,1,1.19,1.18A1.19,1.19,0,0,1,91.66,192.38Z"/><path class="cls-3" d="M86.42,192.38a1.19,1.19,0,1,1,1.18,1.18A1.18,1.18,0,0,1,86.42,192.38Z"/><path class="cls-3" d="M81.17,192.38a1.19,1.19,0,1,1,1.19,1.18A1.19,1.19,0,0,1,81.17,192.38Z"/><path class="cls-3" d="M40.5,192.38a1.19,1.19,0,1,1,1.19,1.18A1.19,1.19,0,0,1,40.5,192.38Z"/><path class="cls-3" d="M35.15,192.38a1.19,1.19,0,1,1,1.19,1.18A1.19,1.19,0,0,1,35.15,192.38Z"/><path class="cls-3" d="M75.92,192.38a1.19,1.19,0,1,1,1.19,1.18A1.19,1.19,0,0,1,75.92,192.38Z"/><path class="cls-3" d="M50.15,192.38a1.19,1.19,0,1,1,1.19,1.18A1.19,1.19,0,0,1,50.15,192.38Z"/><path class="cls-1" d="M70.67,192.38a1.19,1.19,0,1,1,1.19,1.18A1.19,1.19,0,0,1,70.67,192.38Z"/><path class="cls-1" d="M65.42,192.38a1.19,1.19,0,1,1,1.19,1.18A1.19,1.19,0,0,1,65.42,192.38Z"/><path class="cls-1" d="M54.78,192.38A1.19,1.19,0,1,1,56,193.56,1.19,1.19,0,0,1,54.78,192.38Z"/><path class="cls-1" d="M30.8,192.38A1.19,1.19,0,1,1,32,193.56,1.18,1.18,0,0,1,30.8,192.38Z"/><path class="cls-5" d="M60.18,192.38a1.19,1.19,0,1,1,1.19,1.18A1.19,1.19,0,0,1,60.18,192.38Z"/><path class="cls-5" d="M45.15,192.38a1.19,1.19,0,1,1,1.19,1.18A1.19,1.19,0,0,1,45.15,192.38Z"/><path class="cls-3" d="M33.17,197.47A1.19,1.19,0,1,1,32,196.28,1.19,1.19,0,0,1,33.17,197.47Z"/><path class="cls-3" d="M38.42,197.47a1.19,1.19,0,0,1-2.38,0,1.19,1.19,0,0,1,2.38,0Z"/><path class="cls-3" d="M43.67,197.47a1.19,1.19,0,1,1-1.19-1.19A1.19,1.19,0,0,1,43.67,197.47Z"/><path class="cls-3" d="M48.92,197.47a1.19,1.19,0,1,1-1.19-1.19A1.19,1.19,0,0,1,48.92,197.47Z"/><path class="cls-3" d="M89.58,197.47a1.19,1.19,0,1,1-1.19-1.19A1.19,1.19,0,0,1,89.58,197.47Z"/><path class="cls-3" d="M94.94,197.47a1.19,1.19,0,1,1-1.19-1.19A1.19,1.19,0,0,1,94.94,197.47Z"/><path class="cls-3" d="M54.17,197.47A1.19,1.19,0,1,1,53,196.28,1.19,1.19,0,0,1,54.17,197.47Z"/><path class="cls-3" d="M79.94,197.47a1.19,1.19,0,1,1-1.19-1.19A1.19,1.19,0,0,1,79.94,197.47Z"/><path class="cls-1" d="M59.41,197.47a1.19,1.19,0,0,1-2.38,0,1.19,1.19,0,0,1,2.38,0Z"/><path class="cls-1" d="M64.66,197.47a1.19,1.19,0,0,1-2.38,0,1.19,1.19,0,0,1,2.38,0Z"/><path class="cls-1" d="M75.31,197.47a1.19,1.19,0,1,1-1.19-1.19A1.19,1.19,0,0,1,75.31,197.47Z"/><path class="cls-1" d="M99.29,197.47a1.19,1.19,0,1,1-1.19-1.19A1.19,1.19,0,0,1,99.29,197.47Z"/><path class="cls-5" d="M69.91,197.47a1.19,1.19,0,1,1-1.19-1.19A1.19,1.19,0,0,1,69.91,197.47Z"/><path class="cls-5" d="M84.93,197.47a1.19,1.19,0,1,1-1.18-1.19A1.18,1.18,0,0,1,84.93,197.47Z"/><polygon class="cls-3" points="121.33 173.24 105.5 173.28 105.5 147.16 121.33 147.12 121.33 173.24"/><polygon class="cls-3" points="121.33 205.68 105.5 205.72 105.5 179.6 121.33 179.55 121.33 205.68"/><polygon class="cls-3" points="120.35 238.36 104.52 238.4 104.52 212.28 120.35 212.24 120.35 238.36"/><rect class="cls-4" y="212.28" width="105.29" height="26.12"/><rect class="cls-3" x="4.67" y="217.66" width="20.73" height="3.19"/><rect class="cls-3" x="4.67" y="223.15" width="20.73" height="3.19"/><path class="cls-3" d="M33.6,219.59a1.19,1.19,0,1,1-1.19-1.19A1.18,1.18,0,0,1,33.6,219.59Z"/><path class="cls-3" d="M38.85,219.59a1.19,1.19,0,1,1-1.19-1.19A1.18,1.18,0,0,1,38.85,219.59Z"/><path class="cls-3" d="M44.1,219.59a1.19,1.19,0,1,1-1.19-1.19A1.18,1.18,0,0,1,44.1,219.59Z"/><path class="cls-3" d="M49.35,219.59a1.19,1.19,0,1,1-1.19-1.19A1.19,1.19,0,0,1,49.35,219.59Z"/><path class="cls-3" d="M90,219.59a1.19,1.19,0,1,1-1.19-1.19A1.18,1.18,0,0,1,90,219.59Z"/><path class="cls-3" d="M95.36,219.59a1.19,1.19,0,1,1-1.18-1.19A1.18,1.18,0,0,1,95.36,219.59Z"/><path class="cls-3" d="M54.59,219.59a1.19,1.19,0,1,1-1.18-1.19A1.18,1.18,0,0,1,54.59,219.59Z"/><path class="cls-3" d="M80.37,219.59a1.19,1.19,0,1,1-1.19-1.19A1.19,1.19,0,0,1,80.37,219.59Z"/><path class="cls-1" d="M59.84,219.59a1.19,1.19,0,1,1-1.19-1.19A1.18,1.18,0,0,1,59.84,219.59Z"/><path class="cls-1" d="M65.09,219.59a1.19,1.19,0,1,1-1.19-1.19A1.18,1.18,0,0,1,65.09,219.59Z"/><path class="cls-1" d="M75.74,219.59a1.19,1.19,0,1,1-1.19-1.19A1.19,1.19,0,0,1,75.74,219.59Z"/><path class="cls-1" d="M99.72,219.59a1.19,1.19,0,1,1-1.19-1.19A1.18,1.18,0,0,1,99.72,219.59Z"/><path class="cls-5" d="M70.34,219.59a1.19,1.19,0,1,1-1.19-1.19A1.18,1.18,0,0,1,70.34,219.59Z"/><path class="cls-5" d="M85.36,219.59a1.19,1.19,0,1,1-1.19-1.19A1.18,1.18,0,0,1,85.36,219.59Z"/><path class="cls-3" d="M97.34,225.32a1.19,1.19,0,1,1,1.19,1.19A1.19,1.19,0,0,1,97.34,225.32Z"/><path class="cls-3" d="M92.09,225.32a1.19,1.19,0,1,1,1.19,1.19A1.19,1.19,0,0,1,92.09,225.32Z"/><path class="cls-3" d="M86.84,225.32A1.19,1.19,0,1,1,88,226.51,1.19,1.19,0,0,1,86.84,225.32Z"/><path class="cls-3" d="M81.6,225.32a1.19,1.19,0,1,1,2.38,0,1.19,1.19,0,1,1-2.38,0Z"/><path class="cls-3" d="M40.93,225.32a1.19,1.19,0,1,1,1.19,1.19A1.19,1.19,0,0,1,40.93,225.32Z"/><path class="cls-3" d="M35.58,225.32a1.19,1.19,0,1,1,2.38,0,1.19,1.19,0,1,1-2.38,0Z"/><path class="cls-3" d="M76.35,225.32a1.19,1.19,0,1,1,2.38,0,1.19,1.19,0,1,1-2.38,0Z"/><path class="cls-3" d="M50.58,225.32a1.19,1.19,0,1,1,1.19,1.19A1.19,1.19,0,0,1,50.58,225.32Z"/><path class="cls-1" d="M71.1,225.32a1.19,1.19,0,1,1,1.19,1.19A1.19,1.19,0,0,1,71.1,225.32Z"/><path class="cls-1" d="M65.85,225.32A1.19,1.19,0,1,1,67,226.51,1.19,1.19,0,0,1,65.85,225.32Z"/><path class="cls-1" d="M55.21,225.32a1.19,1.19,0,1,1,1.19,1.19A1.19,1.19,0,0,1,55.21,225.32Z"/><path class="cls-1" d="M31.22,225.32a1.19,1.19,0,1,1,1.19,1.19A1.19,1.19,0,0,1,31.22,225.32Z"/><path class="cls-5" d="M60.61,225.32a1.19,1.19,0,1,1,1.18,1.19A1.18,1.18,0,0,1,60.61,225.32Z"/><path class="cls-5" d="M45.58,225.32a1.19,1.19,0,1,1,1.19,1.19A1.19,1.19,0,0,1,45.58,225.32Z"/><path class="cls-3" d="M33.6,230.42a1.19,1.19,0,1,1-1.19-1.19A1.18,1.18,0,0,1,33.6,230.42Z"/><path class="cls-3" d="M38.85,230.42a1.19,1.19,0,1,1-1.19-1.19A1.18,1.18,0,0,1,38.85,230.42Z"/><path class="cls-3" d="M44.1,230.42a1.19,1.19,0,1,1-1.19-1.19A1.18,1.18,0,0,1,44.1,230.42Z"/><path class="cls-3" d="M49.35,230.42a1.19,1.19,0,1,1-1.19-1.19A1.19,1.19,0,0,1,49.35,230.42Z"/><path class="cls-3" d="M90,230.42a1.19,1.19,0,1,1-1.19-1.19A1.18,1.18,0,0,1,90,230.42Z"/><path class="cls-3" d="M95.36,230.42a1.19,1.19,0,1,1-1.18-1.19A1.18,1.18,0,0,1,95.36,230.42Z"/><path class="cls-3" d="M54.59,230.42a1.19,1.19,0,1,1-1.18-1.19A1.18,1.18,0,0,1,54.59,230.42Z"/><path class="cls-3" d="M80.37,230.42a1.19,1.19,0,1,1-1.19-1.19A1.19,1.19,0,0,1,80.37,230.42Z"/><path class="cls-1" d="M59.84,230.42a1.19,1.19,0,1,1-1.19-1.19A1.18,1.18,0,0,1,59.84,230.42Z"/><path class="cls-1" d="M65.09,230.42a1.19,1.19,0,1,1-1.19-1.19A1.18,1.18,0,0,1,65.09,230.42Z"/><path class="cls-1" d="M75.74,230.42a1.19,1.19,0,1,1-1.19-1.19A1.19,1.19,0,0,1,75.74,230.42Z"/><path class="cls-1" d="M99.72,230.42a1.19,1.19,0,1,1-1.19-1.19A1.18,1.18,0,0,1,99.72,230.42Z"/><path class="cls-5" d="M70.34,230.42a1.19,1.19,0,1,1-1.19-1.19A1.18,1.18,0,0,1,70.34,230.42Z"/><path class="cls-5" d="M85.36,230.42a1.19,1.19,0,1,1-1.19-1.19A1.18,1.18,0,0,1,85.36,230.42Z"/><rect class="cls-6" x="125.02" width="77.82" height="238.4"/><polygon class="cls-2" points="264.24 238.4 202.84 238.4 202.73 0 264.24 0 264.24 238.4"/><rect class="cls-3" x="129.32" y="38.15" width="66.02" height="18.59"/><rect class="cls-4" x="131.17" y="40.49" width="3.7" height="14.22"/><path class="cls-7" d="M139.22,43.48A1.18,1.18,0,1,1,138,42.31,1.18,1.18,0,0,1,139.22,43.48Z"/><path class="cls-7" d="M139.22,48.51A1.18,1.18,0,1,1,138,47.33,1.17,1.17,0,0,1,139.22,48.51Z"/><rect class="cls-4" x="143.92" y="42.31" width="3.63" height="10.93"/><rect class="cls-4" x="149.16" y="42.31" width="3.63" height="10.93"/><rect class="cls-4" x="154.41" y="42.31" width="3.63" height="10.93"/><rect class="cls-4" x="159.66" y="42.31" width="3.63" height="10.93"/><rect class="cls-4" x="164.9" y="42.31" width="3.63" height="10.93"/><rect class="cls-4" x="170.15" y="42.31" width="3.63" height="10.93"/><rect class="cls-4" x="175.4" y="42.31" width="3.63" height="10.93"/><rect class="cls-4" x="180.65" y="42.31" width="3.63" height="10.93"/><rect class="cls-4" x="185.89" y="42.31" width="3.63" height="10.93"/><rect class="cls-4" x="191.14" y="42.31" width="3.63" height="10.93"/><rect class="cls-3" x="129.32" y="64.86" width="66.02" height="18.59"/><rect class="cls-4" x="131.17" y="67.19" width="3.7" height="14.22"/><path class="cls-7" d="M139.22,70.18A1.18,1.18,0,1,1,138,69,1.18,1.18,0,0,1,139.22,70.18Z"/><path class="cls-7" d="M139.22,75.21A1.18,1.18,0,1,1,138,74,1.17,1.17,0,0,1,139.22,75.21Z"/><rect class="cls-4" x="143.92" y="69.01" width="3.63" height="10.93"/><rect class="cls-4" x="149.16" y="69.01" width="3.63" height="10.93"/><rect class="cls-4" x="154.41" y="69.01" width="3.63" height="10.93"/><rect class="cls-4" x="159.66" y="69.01" width="3.63" height="10.93"/><rect class="cls-4" x="164.9" y="69.01" width="3.63" height="10.93"/><rect class="cls-4" x="170.15" y="69.01" width="3.63" height="10.93"/><rect class="cls-4" x="175.4" y="69.01" width="3.63" height="10.93"/><rect class="cls-4" x="180.65" y="69.01" width="3.63" height="10.93"/><rect class="cls-4" x="185.89" y="69.01" width="3.63" height="10.93"/><rect class="cls-4" x="191.14" y="69.01" width="3.63" height="10.93"/><rect class="cls-3" x="129.32" y="91.77" width="66.02" height="18.59"/><rect class="cls-4" x="131.17" y="94.11" width="3.7" height="14.22"/><path class="cls-7" d="M139.22,97.1A1.18,1.18,0,1,1,138,95.92,1.17,1.17,0,0,1,139.22,97.1Z"/><path class="cls-7" d="M139.22,102.12A1.18,1.18,0,1,1,138,101,1.18,1.18,0,0,1,139.22,102.12Z"/><rect class="cls-4" x="143.92" y="95.92" width="3.63" height="10.93"/><rect class="cls-4" x="149.16" y="95.92" width="3.63" height="10.93"/><rect class="cls-4" x="154.41" y="95.92" width="3.63" height="10.93"/><rect class="cls-4" x="159.66" y="95.92" width="3.63" height="10.93"/><rect class="cls-4" x="164.9" y="95.92" width="3.63" height="10.93"/><rect class="cls-4" x="170.15" y="95.92" width="3.63" height="10.93"/><rect class="cls-4" x="175.4" y="95.92" width="3.63" height="10.93"/><rect class="cls-4" x="180.65" y="95.92" width="3.63" height="10.93"/><rect class="cls-4" x="185.89" y="95.92" width="3.63" height="10.93"/><rect class="cls-4" x="191.14" y="95.92" width="3.63" height="10.93"/><rect class="cls-3" x="129.32" y="120.84" width="66.02" height="18.59"/><rect class="cls-4" x="131.17" y="123.18" width="3.7" height="14.22"/><path class="cls-7" d="M139.22,126.17A1.18,1.18,0,1,1,138,125,1.18,1.18,0,0,1,139.22,126.17Z"/><path class="cls-7" d="M139.22,131.2A1.18,1.18,0,1,1,138,130,1.17,1.17,0,0,1,139.22,131.2Z"/><rect class="cls-4" x="143.92" y="125" width="3.63" height="10.93"/><rect class="cls-4" x="149.16" y="125" width="3.63" height="10.93"/><rect class="cls-4" x="154.41" y="125" width="3.63" height="10.93"/><rect class="cls-4" x="159.66" y="125" width="3.63" height="10.93"/><rect class="cls-4" x="164.9" y="125" width="3.63" height="10.93"/><rect class="cls-4" x="170.15" y="125" width="3.63" height="10.93"/><rect class="cls-4" x="175.4" y="125" width="3.63" height="10.93"/><rect class="cls-4" x="180.65" y="125" width="3.63" height="10.93"/><rect class="cls-4" x="185.89" y="125" width="3.63" height="10.93"/><rect class="cls-4" x="191.14" y="125" width="3.63" height="10.93"/><rect class="cls-3" x="129.32" y="150.2" width="66.02" height="18.59"/><rect class="cls-4" x="131.17" y="152.54" width="3.7" height="14.22"/><path class="cls-7" d="M139.22,155.53a1.18,1.18,0,1,1-1.18-1.17A1.18,1.18,0,0,1,139.22,155.53Z"/><path class="cls-7" d="M139.22,160.56a1.18,1.18,0,1,1-1.18-1.18A1.17,1.17,0,0,1,139.22,160.56Z"/><rect class="cls-4" x="143.92" y="154.36" width="3.63" height="10.93"/><rect class="cls-4" x="149.16" y="154.36" width="3.63" height="10.93"/><rect class="cls-4" x="154.41" y="154.36" width="3.63" height="10.93"/><rect class="cls-4" x="159.66" y="154.36" width="3.63" height="10.93"/><rect class="cls-4" x="164.9" y="154.36" width="3.63" height="10.93"/><rect class="cls-4" x="170.15" y="154.36" width="3.63" height="10.93"/><rect class="cls-4" x="175.4" y="154.36" width="3.63" height="10.93"/><rect class="cls-4" x="180.65" y="154.36" width="3.63" height="10.93"/><rect class="cls-4" x="185.89" y="154.36" width="3.63" height="10.93"/><rect class="cls-4" x="191.14" y="154.36" width="3.63" height="10.93"/><rect class="cls-3" x="129.32" y="208.64" width="66.02" height="18.59"/><rect class="cls-4" x="131.17" y="210.98" width="3.7" height="14.22"/><path class="cls-7" d="M139.22,214a1.18,1.18,0,1,1-1.18-1.18A1.17,1.17,0,0,1,139.22,214Z"/><path class="cls-7" d="M139.22,219a1.18,1.18,0,1,1-1.18-1.17A1.18,1.18,0,0,1,139.22,219Z"/><rect class="cls-4" x="143.92" y="212.79" width="3.63" height="10.93"/><rect class="cls-4" x="149.16" y="212.79" width="3.63" height="10.93"/><rect class="cls-4" x="154.41" y="212.79" width="3.63" height="10.93"/><rect class="cls-4" x="159.66" y="212.79" width="3.63" height="10.93"/><rect class="cls-4" x="164.9" y="212.79" width="3.63" height="10.93"/><rect class="cls-4" x="170.15" y="212.79" width="3.63" height="10.93"/><rect class="cls-4" x="175.4" y="212.79" width="3.63" height="10.93"/><rect class="cls-4" x="180.65" y="212.79" width="3.63" height="10.93"/><rect class="cls-4" x="185.89" y="212.79" width="3.63" height="10.93"/><rect class="cls-4" x="191.14" y="212.79" width="3.63" height="10.93"/><rect class="cls-3" x="129.32" y="179.45" width="66.02" height="18.59"/><rect class="cls-4" x="131.17" y="181.78" width="3.7" height="14.22"/><path class="cls-7" d="M139.22,184.78A1.18,1.18,0,1,1,138,183.6,1.18,1.18,0,0,1,139.22,184.78Z"/><path class="cls-7" d="M139.22,189.8a1.18,1.18,0,1,1-1.18-1.17A1.18,1.18,0,0,1,139.22,189.8Z"/><rect class="cls-4" x="143.92" y="183.6" width="3.63" height="10.93"/><rect class="cls-4" x="149.16" y="183.6" width="3.63" height="10.93"/><rect class="cls-4" x="154.41" y="183.6" width="3.63" height="10.93"/><rect class="cls-4" x="159.66" y="183.6" width="3.63" height="10.93"/><rect class="cls-4" x="164.9" y="183.6" width="3.63" height="10.93"/><rect class="cls-4" x="170.15" y="183.6" width="3.63" height="10.93"/><rect class="cls-4" x="175.4" y="183.6" width="3.63" height="10.93"/><rect class="cls-4" x="180.65" y="183.6" width="3.63" height="10.93"/><rect class="cls-4" x="185.89" y="183.6" width="3.63" height="10.93"/><rect class="cls-4" x="191.14" y="183.6" width="3.63" height="10.93"/><path class="cls-3" d="M170.15,38.15a2.64,2.64,0,0,1-.06-.57c0-.38-.05-.93-.07-1.65s0-1.59-.08-2.61a16.94,16.94,0,0,0-.45-3.39,12.31,12.31,0,0,0-1.76-3.72,8.28,8.28,0,0,0-3.62-2.91,17.45,17.45,0,0,0-5.13-1l-5.69-.49c-7.79-.68-14.86-1.11-20-1.2-2.56-.06-4.63,0-6.07,0l-1.65,0a2.12,2.12,0,0,1-.57,0,4.15,4.15,0,0,1,.57-.06l1.65-.1c1.43-.06,3.51-.12,6.07-.1,5.14,0,12.22.4,20,1.08l5.68.5a17.59,17.59,0,0,1,5.25,1.1A8.47,8.47,0,0,1,168,26a12.33,12.33,0,0,1,1.77,3.84,16.87,16.87,0,0,1,.4,3.46c0,1,0,1.9,0,2.62s0,1.23,0,1.65A2.46,2.46,0,0,1,170.15,38.15Z"/><path class="cls-3" d="M150.12,38.15a3.68,3.68,0,0,1,0-.54c0-.4,0-.91,0-1.55s0-1.5-.08-2.45a7.44,7.44,0,0,0-.81-3.06,5.83,5.83,0,0,0-3-2.3,8.31,8.31,0,0,0-4.35-.44,7.39,7.39,0,0,0-2.25.76,4.26,4.26,0,0,0-1.74,1.65,2.35,2.35,0,0,0,0,2.34,3.19,3.19,0,0,0,2,1.49,2.54,2.54,0,0,0,2.32-.67,3.45,3.45,0,0,0,1-2.21,3.36,3.36,0,0,0-.69-2.26,5,5,0,0,0-1.75-1.54,6.27,6.27,0,0,0-2.18-.56c-.75-.11-1.47-.21-2.17-.29-1.41-.16-2.72-.25-3.92-.3-2.41-.09-4.36,0-5.71,0h-1.55l-.54,0a2.5,2.5,0,0,1,.54-.06l1.55-.07c1.35-.06,3.3-.14,5.72-.08,1.21,0,2.53.1,3.94.24l2.19.27,1.15.18a4.46,4.46,0,0,1,1.16.41,5.17,5.17,0,0,1,1.9,1.65,3.77,3.77,0,0,1,.77,2.52,3.85,3.85,0,0,1-1.16,2.48,2.93,2.93,0,0,1-2.7.77,3.52,3.52,0,0,1-2.25-1.69,2.79,2.79,0,0,1,0-2.73,4.7,4.7,0,0,1,1.92-1.81,7.53,7.53,0,0,1,2.37-.79,8.51,8.51,0,0,1,4.55.5,6.13,6.13,0,0,1,3.11,2.47,7.78,7.78,0,0,1,.79,3.2c.05,1,0,1.79,0,2.46s0,1.16-.06,1.55A2.24,2.24,0,0,1,150.12,38.15Z"/><path class="cls-3" d="M175.54,38.15a3.65,3.65,0,0,1-.13-.61c-.07-.41-.19-1-.35-1.77a34.62,34.62,0,0,0-1.94-6.29,18.36,18.36,0,0,0-5.75-7.71,10.73,10.73,0,0,0-5.27-2,53.68,53.68,0,0,0-6.19-.33c-8.53-.16-16.26-.13-21.85-.35-2.8-.09-5.06-.23-6.62-.34l-1.8-.14a2.43,2.43,0,0,1-.62-.09,5,5,0,0,1,.63,0l1.8.07c1.56.06,3.82.15,6.61.21,5.59.14,13.32.06,21.86.22a55.15,55.15,0,0,1,6.24.34,11.2,11.2,0,0,1,5.44,2.11,16.63,16.63,0,0,1,3.64,3.84,22,22,0,0,1,2.15,4.06,31.74,31.74,0,0,1,1.83,6.38c.14.77.23,1.38.27,1.79A3.62,3.62,0,0,1,175.54,38.15Z"/><rect class="cls-3" x="130.23" y="2.96" width="64.2" height="9.32"/><rect class="cls-4" x="144.35" y="7.62" width="34.95" height="4.66"/><path class="cls-3" d="M220.63,196.26s-.71.11-1.94.47a16.57,16.57,0,0,0-4.85,2.38,13.34,13.34,0,0,0-2.73,2.53,9.79,9.79,0,0,0-1.12,1.72,12,12,0,0,0-.7,2.07c-.73,2.95-.51,6.32-.36,9.83s-.09,7-1.47,9.81a10.84,10.84,0,0,1-2.62,3.51,12.72,12.72,0,0,1-6.23,2.94,11,11,0,0,1-2.36.1,8.25,8.25,0,0,1-1.48-.23,1.71,1.71,0,0,1-.49-.16s.7.17,2,.23a11.41,11.41,0,0,0,5.24-1.11,12.83,12.83,0,0,0,3.11-2,10.85,10.85,0,0,0,2.5-3.41c1.32-2.73,1.54-6.14,1.4-9.63s-.36-6.92.41-9.94a11.75,11.75,0,0,1,.74-2.14,10.38,10.38,0,0,1,1.18-1.78,13.83,13.83,0,0,1,2.82-2.56,16.31,16.31,0,0,1,5-2.29,11.47,11.47,0,0,1,1.47-.28A1.72,1.72,0,0,1,220.63,196.26Z"/><rect class="cls-3" x="191.03" y="228.35" width="5.27" height="6.41"/><rect class="cls-4" x="220.63" y="180.06" width="29.55" height="32.38"/><circle class="cls-3" cx="235.4" cy="196.38" r="9.73"/><circle class="cls-4" cx="235.4" cy="196.38" r="4.86"/><circle class="cls-3" cx="224.62" cy="185.09" r="0.9"/><path class="cls-3" d="M246.56,185.09a.9.9,0,1,1-.9-.9A.9.9,0,0,1,246.56,185.09Z"/><path class="cls-3" d="M246.76,209a.91.91,0,1,1-1.81,0,.91.91,0,0,1,1.81,0Z"/><path class="cls-3" d="M225.53,209.37a.91.91,0,1,1-1.81,0,.91.91,0,0,1,1.81,0Z"/><rect class="cls-3" x="250.18" y="180.06" width="2.38" height="32.38"/><path class="cls-3" d="M104,69.9H16.54a2.73,2.73,0,0,0-2.73,2.73v61.76a2.73,2.73,0,0,0,2.73,2.73H50.1a8.43,8.43,0,0,1-4.48,10H77s-7.47-2.56-5.55-10H104a2.73,2.73,0,0,0,2.73-2.73V72.63A2.73,2.73,0,0,0,104,69.9Z"/><path class="cls-4" d="M61.43,130.63A1.68,1.68,0,0,1,59.06,133a.54.54,0,0,1-.15-.15,1.68,1.68,0,0,1,2.37-2.37A.54.54,0,0,1,61.43,130.63Z"/><path class="cls-7" d="M18.16,71h84.2a2.85,2.85,0,0,1,2.85,2.85v51.95a0,0,0,0,1,0,0H15.32a0,0,0,0,1,0,0V73.88A2.85,2.85,0,0,1,18.16,71Z"/><path class="cls-6" d="M18.29,71h84.47a2.45,2.45,0,0,1,2.45,2.45v2.11a0,0,0,0,1,0,0H15.32a0,0,0,0,1,0,0V74A3,3,0,0,1,18.29,71Z"/><path class="cls-2" d="M18.81,73.4a.63.63,0,1,1-.63-.63A.63.63,0,0,1,18.81,73.4Z"/><path class="cls-2" d="M20.69,73.4a.63.63,0,1,1-.63-.63A.63.63,0,0,1,20.69,73.4Z"/><path class="cls-2" d="M22.48,73.4a.63.63,0,1,1-.63-.63A.63.63,0,0,1,22.48,73.4Z"/><path class="cls-4" d="M88.35,137.13s-12.44.05-27.79.05-27.79,0-27.79-.05,12.44,0,27.79,0S88.35,137.1,88.35,137.13Z"/><polygon class="cls-5" points="35.35 89.11 40.95 125.94 73.51 125.94 81.07 89.64 35.35 89.11"/><path class="cls-8" d="M76.52,112.71c0,.11-8.35.2-18.63.2s-18.64-.09-18.64-.2,8.34-.19,18.64-.19S76.52,112.61,76.52,112.71Z"/><path class="cls-8" d="M76.64,110.9c0,.11-8.4.19-18.75.19s-18.76-.08-18.76-.19,8.39-.19,18.76-.19S76.64,110.8,76.64,110.9Z"/><path class="cls-8" d="M76.58,108.86c0,.1-8.4.19-18.76.19s-18.76-.09-18.76-.19,8.4-.19,18.76-.19S76.58,108.75,76.58,108.86Z"/><path class="cls-8" d="M44.69,123.84a29.68,29.68,0,0,1-1-4.64,30.38,30.38,0,0,1-.63-4.7,29,29,0,0,1,1,4.64A28.25,28.25,0,0,1,44.69,123.84Z"/><path class="cls-8" d="M46.91,123.45a35.8,35.8,0,0,1-.4-4.53,38.22,38.22,0,0,1-.22-4.53,20.91,20.91,0,0,1,.6,4.51A22.15,22.15,0,0,1,46.91,123.45Z"/><path class="cls-8" d="M51,123.45a21.94,21.94,0,0,1-.85-4.64,22.63,22.63,0,0,1-.25-4.71,41.54,41.54,0,0,1,.63,4.66A43.13,43.13,0,0,1,51,123.45Z"/><path class="cls-8" d="M53.78,123.64a23.07,23.07,0,0,1-.45-4.71,23.33,23.33,0,0,1,.14-4.74,40.91,40.91,0,0,1,.24,4.72A40.89,40.89,0,0,1,53.78,123.64Z"/><path class="cls-8" d="M58.8,123.45a26.27,26.27,0,0,1-.35-4.48,27.51,27.51,0,0,1,0-4.48,26.08,26.08,0,0,1,.35,4.47A27.67,27.67,0,0,1,58.8,123.45Z"/><path class="cls-8" d="M62.46,123.64a29.29,29.29,0,0,1-.15-4.63,27.38,27.38,0,0,1,.23-4.62,29.29,29.29,0,0,1,.15,4.63A27.38,27.38,0,0,1,62.46,123.64Z"/><path class="cls-8" d="M65.9,123.15a30.74,30.74,0,0,1,.27-4.84,31.69,31.69,0,0,1,.66-4.8,30.11,30.11,0,0,1-.28,4.84A31,31,0,0,1,65.9,123.15Z"/><path class="cls-8" d="M70.33,122.67a16.29,16.29,0,0,1,.54-4.12,17.12,17.12,0,0,1,1.21-4,34.2,34.2,0,0,1-.83,4.06A40.84,40.84,0,0,1,70.33,122.67Z"/><path class="cls-4" d="M67.19,16.44s0,.06,0,.18l-.15.52-.62,2c-.28.86-.61,1.91-1,3.15s-.78,2.63-1.17,4.2-.86,3.27-1.27,5.13-.83,3.83-1.26,5.93c-.78,4.2-1.49,8.84-2,13.74S59,60.88,59,65.15c0,2.14,0,4.17.06,6.06s.13,3.67.23,5.28.22,3.07.32,4.35.21,2.38.31,3.28.17,1.56.22,2.07l0,.54c0,.12,0,.18,0,.18s0-.06,0-.18,0-.31-.09-.53c-.07-.5-.16-1.19-.28-2.06s-.27-2-.38-3.28-.29-2.73-.38-4.35-.23-3.38-.28-5.29-.08-3.93-.09-6.07c0-4.28.25-9,.73-13.91s1.23-9.57,2-13.77c.43-2.1.83-4.09,1.29-5.94S63.56,28,64,26.41s.86-3,1.23-4.19.72-2.29,1-3.14l.69-2,.18-.5C67.16,16.49,67.18,16.44,67.19,16.44Z"/><path class="cls-4" d="M61.31,39.24a12.11,12.11,0,0,1,5.07-6.39,2.86,2.86,0,0,1,2.67-.49c1.14.55,1.23,2.14.89,3.36a8.88,8.88,0,0,1-3.68,5,7.54,7.54,0,0,1-5.53,1.4"/><path class="cls-4" d="M59.34,54.64c.84-3.18,3.37-7.7,6-9.66a3.82,3.82,0,0,1,1.36-.73,1.58,1.58,0,0,1,1.46.31,2.24,2.24,0,0,1,.33,2.11A12.83,12.83,0,0,1,59,56.24"/><path class="cls-4" d="M58.79,68.2a18.63,18.63,0,0,1,6.06-7.63A2.92,2.92,0,0,1,67,59.82c1.15.21,1.67,1.61,1.57,2.78-.21,2.39-2,4.32-3.93,5.81A24.6,24.6,0,0,1,59,71.29"/><path class="cls-4" d="M59.1,77.94a17.87,17.87,0,0,1,5.16-5.87,3.78,3.78,0,0,1,1.54-.7,1.6,1.6,0,0,1,1.52.58c.52.76,0,1.79-.53,2.52a14.71,14.71,0,0,1-7.36,5.4"/><path class="cls-4" d="M58.84,74a56.92,56.92,0,0,0-7.38-7.51A1.63,1.63,0,0,0,50,65.91a1.1,1.1,0,0,0-.67,1,2.77,2.77,0,0,0,.28,1.23,14.32,14.32,0,0,0,9.5,8"/><path class="cls-4" d="M59.08,61.3l-5.8-7.06a7,7,0,0,0-1.88-1.79,2.38,2.38,0,0,0-2.47,0,2.34,2.34,0,0,0-.79,2.34,6,6,0,0,0,1.13,2.32,17.15,17.15,0,0,0,4.22,4.48c1.7,1.17,3.25,1.94,5.29,1.63"/><path class="cls-4" d="M59.88,47a20.18,20.18,0,0,0-5.83-8.76,3.52,3.52,0,0,0-1.52-.89,2.57,2.57,0,0,0-2.66,1.87,4.83,4.83,0,0,0,.53,3.84A10.25,10.25,0,0,0,53.13,46a23.22,23.22,0,0,0,6.44,3.48"/><path class="cls-4" d="M62.2,34.3c-.56-4.1-2.69-7.51-5.17-10.82-.52-.7-1.24-1.44-2.1-1.31a1.65,1.65,0,0,0-1.21,1,3.76,3.76,0,0,0-.23,1.63A12.66,12.66,0,0,0,61.7,36.15"/><path class="cls-4" d="M63.82,27.8a33.63,33.63,0,0,1-.21-6.34,11.33,11.33,0,0,1,2.1-5.9,4.85,4.85,0,0,1,2.11-1.67,2.65,2.65,0,0,1,2.58.34,2.83,2.83,0,0,1,.88,2.27,7.19,7.19,0,0,1-.65,2.43c-1.55,3.71-4.12,7.83-6.81,8.87"/><path class="cls-3" d="M38.57,32.68a1.76,1.76,0,0,1,0,.52c0,.37,0,.87,0,1.48s0,1.44,0,2.35,0,2,.11,3.11c.1,2.31.32,5,.67,8.07s.89,6.34,1.61,9.78,1.59,6.69,2.46,9.61,1.79,5.51,2.63,7.66c.39,1.08.8,2,1.14,2.89s.65,1.58.91,2.17l.59,1.37a2.29,2.29,0,0,1,.17.48,2.92,2.92,0,0,1-.24-.45c-.17-.34-.38-.79-.65-1.34s-.62-1.3-1-2.14-.8-1.8-1.21-2.88c-.86-2.15-1.79-4.74-2.71-7.66s-1.76-6.17-2.5-9.63-1.22-6.78-1.58-9.82-.52-5.78-.59-8.09c-.06-1.16,0-2.21-.06-3.12s0-1.71,0-2.36,0-1.11.06-1.49A2.6,2.6,0,0,1,38.57,32.68Z"/><path class="cls-3" d="M39.48,49.47A8.63,8.63,0,0,1,41.55,44a2.08,2.08,0,0,1,1.72-.92c.89.13,1.3,1.2,1.33,2.1a6.39,6.39,0,0,1-1.43,4.22,5.39,5.39,0,0,1-3.47,2.14"/><path class="cls-3" d="M41.45,60.38a14.58,14.58,0,0,1,2-7.88,2.86,2.86,0,0,1,.77-.78,1.11,1.11,0,0,1,1.07-.1A1.6,1.6,0,0,1,46,53a9.13,9.13,0,0,1-4.41,8.56"/><path class="cls-3" d="M44,69.73a13.3,13.3,0,0,1,2.48-6.5,2.05,2.05,0,0,1,1.28-1c.83-.11,1.49.74,1.67,1.55.37,1.68-.46,3.38-1.43,4.8a17,17,0,0,1-3.2,3.17"/><path class="cls-3" d="M46.3,76.29a12.85,12.85,0,0,1,2.25-5.11,2.64,2.64,0,0,1,.9-.8,1.12,1.12,0,0,1,1.16.06c.52.41.4,1.22.18,1.83a10.46,10.46,0,0,1-3.85,5.27"/><path class="cls-3" d="M45.28,73.65a41,41,0,0,0-6.64-3.52,1.18,1.18,0,0,0-1.13-.07.8.8,0,0,0-.24.82,2,2,0,0,0,.45.78,10.21,10.21,0,0,0,8.19,3.4"/><path class="cls-3" d="M42.71,65l-5.47-3.56a4.93,4.93,0,0,0-1.66-.81,1.5,1.5,0,0,0-1.73,2.27,4.24,4.24,0,0,0,1.27,1.33A12,12,0,0,0,39,66.35a5,5,0,0,0,3.95,0"/><path class="cls-3" d="M40.18,55.08a14.46,14.46,0,0,0-5.85-4.71,2.55,2.55,0,0,0-1.23-.28,1.84,1.84,0,0,0-1.41,1.85,3.46,3.46,0,0,0,1.19,2.5,7.22,7.22,0,0,0,2.47,1.37,16.43,16.43,0,0,0,5.14,1"/><path class="cls-3" d="M39,45.91c-1.27-2.67-3.45-4.53-5.85-6.25a1.76,1.76,0,0,0-1.71-.44,1.15,1.15,0,0,0-.6,1,2.73,2.73,0,0,0,.19,1.16,9,9,0,0,0,8,5.93"/><path class="cls-3" d="M38.72,41.14a24,24,0,0,1-1.5-4.27,8,8,0,0,1,.16-4.47,3.44,3.44,0,0,1,1.07-1.59,1.91,1.91,0,0,1,1.83-.33,2,2,0,0,1,1.09,1.36,5.12,5.12,0,0,1,.08,1.79c-.25,2.87-1.12,6.22-2.73,7.51"/><path class="cls-4" d="M79.74,32.32a2.66,2.66,0,0,1,0,.52c0,.38,0,.87.06,1.48s0,1.44,0,2.36,0,2-.06,3.12c-.06,2.31-.26,5.06-.59,8.1s-.87,6.36-1.58,9.82-1.61,6.7-2.5,9.62S73.3,72.86,72.43,75c-.41,1.08-.84,2-1.2,2.88s-.69,1.56-1,2.14-.48,1-.64,1.34a4.27,4.27,0,0,1-.25.46,2.53,2.53,0,0,1,.18-.49c.14-.35.34-.8.58-1.37s.57-1.31.91-2.17.75-1.8,1.15-2.89c.83-2.15,1.73-4.75,2.62-7.66s1.73-6.16,2.46-9.6,1.23-6.76,1.61-9.78.57-5.77.67-8.07c.08-1.15.08-2.2.11-3.11s0-1.71,0-2.35l0-1.49A3.52,3.52,0,0,1,79.74,32.32Z"/><path class="cls-4" d="M78.83,49.11a8.63,8.63,0,0,0-2.07-5.44A2.07,2.07,0,0,0,75,42.76c-.89.13-1.29,1.2-1.33,2.1a6.38,6.38,0,0,0,1.43,4.21,5.35,5.35,0,0,0,3.47,2.14"/><path class="cls-4" d="M76.86,60a14.54,14.54,0,0,0-2-7.87,2.76,2.76,0,0,0-.77-.79,1.14,1.14,0,0,0-1.07-.1,1.6,1.6,0,0,0-.67,1.36,9.15,9.15,0,0,0,4.41,8.56"/><path class="cls-4" d="M74.32,69.37a13.31,13.31,0,0,0-2.49-6.5,2.09,2.09,0,0,0-1.28-1c-.83-.1-1.48.74-1.67,1.56-.37,1.67.46,3.38,1.43,4.8a17.39,17.39,0,0,0,3.2,3.17"/><path class="cls-4" d="M72,75.94a12.79,12.79,0,0,0-2.25-5.11,2.69,2.69,0,0,0-.9-.81,1.15,1.15,0,0,0-1.16.07c-.52.4-.4,1.21-.18,1.83a10.54,10.54,0,0,0,3.85,5.26"/><path class="cls-4" d="M73,73.3a40.6,40.6,0,0,1,6.64-3.53,1.18,1.18,0,0,1,1.12-.06.77.77,0,0,1,.24.82,2,2,0,0,1-.45.77,10.21,10.21,0,0,1-8.19,3.4"/><path class="cls-4" d="M75.61,64.61l5.46-3.56a4.89,4.89,0,0,1,1.67-.81,1.7,1.7,0,0,1,1.69.51,1.69,1.69,0,0,1,0,1.76,4.38,4.38,0,0,1-1.27,1.34A12.2,12.2,0,0,1,79.35,66a5,5,0,0,1-3.95,0"/><path class="cls-4" d="M78.13,54.72A14.46,14.46,0,0,1,84,50a2.43,2.43,0,0,1,1.23-.27,1.82,1.82,0,0,1,1.41,1.84,3.41,3.41,0,0,1-1.19,2.5A7.22,7.22,0,0,1,83,55.45a16.73,16.73,0,0,1-5.14,1"/><path class="cls-4" d="M79.29,45.55a16.92,16.92,0,0,1,5.85-6.25,1.8,1.8,0,0,1,1.72-.44,1.23,1.23,0,0,1,.6,1,2.9,2.9,0,0,1-.2,1.16,9,9,0,0,1-8,5.93"/><path class="cls-4" d="M79.59,40.78a24.9,24.9,0,0,0,1.51-4.27A8.09,8.09,0,0,0,80.93,32a3.41,3.41,0,0,0-1.07-1.59A1.88,1.88,0,0,0,78,30.13a2,2,0,0,0-1.09,1.35,5.18,5.18,0,0,0-.08,1.8c.25,2.86,1.12,6.21,2.73,7.5"/><path class="cls-5" d="M31.61,81.82v6.89a2.71,2.71,0,0,0,2.72,2.71H81.48a2.71,2.71,0,0,0,2.71-2.71V81.82Z"/><g class="cls-9"><polygon points="35.7 91.42 36.09 93.62 79.6 96.72 80.7 91.42 35.7 91.42"/></g></svg>