<svg id="Layer_1" data-name="Layer 1" xmlns="http://www.w3.org/2000/svg" viewBox="0 0 58.43 73.68"><defs><style>.cls-1{fill:#f6921e;}</style></defs><title>ايقونات وصور الاستضافة</title><path class="cls-1" d="M0,36.66V4C0,.73.71,0,4,0,15,0,25.92,0,36.88.08a6,6,0,0,1,3.75,1.56q8.23,8,16.19,16.2a6,6,0,0,1,1.54,3.75c.1,16.1.06,32.2,0,48.3,0,3-.77,3.78-3.75,3.78q-25.39,0-50.79,0C.75,73.67,0,72.9,0,69.77ZM53.18,68.39V22.93c-4.83,0-9.51,0-14.19,0-2.56,0-3.37-.84-3.44-3.38,0-.91,0-1.82,0-2.72V5.37H5.21v63ZM40.77,17.61h7.75L40.77,9.86Z"/><rect class="cls-1" x="12.77" y="16.38" width="16.79" height="5.13" rx="2.56" ry="2.56"/><rect class="cls-1" x="10.37" y="30.09" width="36.99" height="5.13" rx="2.56" ry="2.56"/><rect class="cls-1" x="11.06" y="41.31" width="36.99" height="5.13" rx="2.56" ry="2.56"/><rect class="cls-1" x="11.42" y="52.53" width="36.99" height="5.13" rx="2.56" ry="2.56"/></svg>