<svg id="Layer_1" data-name="Layer 1" xmlns="http://www.w3.org/2000/svg" viewBox="0 0 100.82 100.75"><defs><style>.cls-1{fill:#010101;}.cls-2{fill:#a9daf5;}.cls-3{fill:#45809f;}.cls-4{fill:#f2f2f2;}.cls-5{fill:#40c5ec;}.cls-6{fill:#e3e3e3;}.cls-7{fill:#3a7191;}.cls-8{fill:#86bfdc;}.cls-9{fill:#87c0dd;}.cls-10{fill:#40c4ea;}.cls-11{fill:#80b5d0;}.cls-12{fill:#e1e0e0;}.cls-13{fill:#44809f;}.cls-14{fill:#e4e3e3;}.cls-15{fill:#427c9a;}.cls-16{fill:#4480a1;}.cls-17{fill:#4580a0;}.cls-18{fill:#e4e4e4;}.cls-19{fill:#1d83ac;}.cls-20{fill:#030506;}.cls-21{fill:#44809e;}.cls-22{fill:#2eb2e7;}.cls-23{fill:#e88635;}.cls-24{fill:#f18c38;}.cls-25{fill:#30b0e1;}.cls-26{fill:#fff;}</style></defs><title>ايقونات وصور الاستضافة</title><path class="cls-1" d="M95.83,100.35c-2.64.69-5.39.28-8.09.18-.41,0-.8-.69-1.19-1-.54-1.21.26-1.71,1.14-2.16A8.73,8.73,0,0,1,90,97.07h0c.71,0,1.41,0,2.12,0h.09a5.68,5.68,0,0,0,3.11-.73,3.11,3.11,0,0,0,1.59-3.29c-.31-1.54-1.7-1.07-2.74-1.17l-.45,0-.33,0a6,6,0,0,0-.61,0c-9.18.12-18.35,0-27.52,0-1.88,0-3.45.22-4.42,2.17a4.55,4.55,0,0,1-4.26,2.27c-4.12.13-8.24.11-12.35,0a5,5,0,0,1-4.62-2.69A3.27,3.27,0,0,0,36.34,92c-9.92,0-19.84,0-29.77,0-1,0-2.24-.2-2.5,1.2a2.85,2.85,0,0,0,1.58,3c1.44.87,3.07.69,4.65.69H77.41a17.11,17.11,0,0,1,3.92.18c1.19.27,2.48.6,2,2.36-.54,1.12-1.51,1.17-2.59,1.17q-36.91,0-73.81,0c-4.1,0-6.78-2.76-6.88-6.85,0-.84.06-1.69,0-2.53-.2-2.57,1.09-3.74,3.51-3.45,2.57.31,3.31-.31,3.26-3.15-.22-13.1-.1-26.2-.09-39.29a10.73,10.73,0,0,1,0-1.5,1.45,1.45,0,0,1,1.2-1.28A1.61,1.61,0,0,1,9.6,43a3.61,3.61,0,0,1,.71,1.65,15.8,15.8,0,0,1,.19,3.64c0,11.24,0,22.48,0,33.73,0,4.5.32,4.81,4.77,4.81,23.52,0,47,0,70.55,0h.63l.53,0c2.89-.14,3.22-.81,3.23-4.27q0-22.71,0-45.42c0-3.5-.28-3.73-3.72-4.23h-.07a5.06,5.06,0,0,1-.55,0c-1.7,0-3.49-.25-5.66.47,2.18,1,4.13.55,5.92.75h0l.47.07a4,4,0,0,1,.68.18c1.64.76,1.87,2.25,1.88,3.77q.1,21.74,0,43.46c0,1.7-.27,3.36-2.26,3.94l-.09,0-.21,0a16.39,16.39,0,0,1-3.43.21H18c-1,0-2.06,0-3.09-.08a3.24,3.24,0,0,1-3.35-3.4c-.12-2-.07-3.93-.07-5.9V40.74c0-1.12,0-2.24.09-3.37A3.32,3.32,0,0,1,15,34c1.39-.12,2.81.14,4.18-.63a15.15,15.15,0,0,0-7.33,0c-1.46.41-1.22,1.93-1.41,3.1a4.25,4.25,0,0,1-.86,2.49,2.06,2.06,0,0,1-1.66.46A4,4,0,0,1,6.7,37.68V34l.12-.57c.08-.34.16-.68.22-1C7.45,30.19,9.51,29,11.9,29q3.93-.11,7.86,0c1.15,0,1.75-.22,1.65-1.52-.14-2.06,1-2.85,2.95-2.77.93,0,1.87.05,2.81,0,2-.1,3.35.55,3.2,2.8C30.28,28.78,30.92,29,32,29s1.7-.36,1.66-1.61c-.07-2.53,0-5.06,0-7.59-.06-2,.79-3,2.82-2.89a5.23,5.23,0,0,0,.56,0c5.65-.07,5.62-.07,5.67,5.48,0,2.13-.94,5,.43,6.17s4.09.37,6.22.41c1.69,0,3.37,0,5.06,0,2,0,3.93.4,3.79-2.68,0-.88.9-1.59,2-1.58,1.31,0,2.62,0,3.93,0,1.8-.06,3,.61,2.84,2.56-.1,1.43.55,1.71,1.81,1.75s1.57-.53,1.52-1.66c-.1-1.91,1-2.69,2.78-2.65,1.22,0,2.44,0,3.65,0,1.56,0,2.64.75,2.5,2.33-.19,2.07,1,2,2.38,2,2.24-.05,4.5-.07,6.74,0C92,29,94,31,94,34.49q0,25.71,0,51.42c0,1.07-.31,1.92,1.39,1.92,2.05,0,4.83-1,5.3,2.45C101.38,95.7,99.69,99.35,95.83,100.35Z"/><path class="cls-2" d="M83.31,99.48c-.2-2.14-1.82-1.73-3.17-1.73H29c-6.93,0-13.85,0-20.78,0a9.5,9.5,0,0,1-2.5-.2C3.63,97,2.49,94.7,2.94,92.12c.41-2.32,2.26-1.19,3.37-1.2,10.2-.1,20.41,0,30.61-.08,1.67,0,2.94-.07,3.27,2.22.23,1.65,1.85,2.5,3.62,2.51,4.3,0,8.61,0,12.91,0,2.12,0,3.65-1,4-3.16.19-1.19.63-1.57,1.78-1.56Q77.91,91,93.35,91c1.9,4.14.5,6.45-3.95,6.51a4.39,4.39,0,0,0-1.65.17,1.8,1.8,0,0,0-1.2,1.77Z"/><path class="cls-3" d="M86.06,87.64q-17.55,0-35.09.1-18.81,0-37.62,0c-3.22,0-3.75-.54-3.76-3.77,0-12.73,0-25.45,0-38.18,0-1.33.47-3-1.68-3.2,0-1.07,0-2.13,0-3.2,1.54-.51,1.68-1.69,1.68-3.12,0-4,.3-4.24,4.35-4.25,2,0,3.94,0,5.9,0,1,0,1.55.23,1.55,1.39S21,34.91,20,34.87c-1.49,0-3,.11-4.49,0-2.34-.23-3.09.7-3.07,3,.09,13.29,0,26.58,0,39.87,0,7.16,0,7.15,7.06,7.16L86.6,85C87.42,86.08,87.29,87,86.06,87.64Z"/><path class="cls-1" d="M30.39,14.56v1.67c0,4.51-.06,4.57-4.51,4.57s-4.48,0-4.48-4.58V13.43c0-5.68,0-5.61,5.76-5.59,2.43,0,3.41,1,3.25,3.36C30.33,12.32,30.39,13.44,30.39,14.56Z"/><path class="cls-4" d="M15.79,81.52a13.88,13.88,0,0,1-.25-1.91c0-13.12.09-26.23-.08-39.34-.05-3,1.6-2.38,3.32-2.55,2-.19,2.71.35,2.68,2.55-.14,9.46-.07,18.92-.06,28.38,0,4.63,2,6.69,6.65,6.69h44.4c4.82,0,6.84-2,6.86-6.76q.06-15.16.13-30.34c1.34-.69,1.9.08,2.23,1.22a10.9,10.9,0,0,1,.25,3.07q0,17.42,0,34.84c0,.47,0,.94,0,1.41,0,2.16-.8,3.15-3.21,3.08-5.43-.18-10.87-.06-16.3-.06q-21.78,0-43.56,0C17.81,81.79,16.76,82.05,15.79,81.52Z"/><path class="cls-5" d="M76.41,49.1H24.29c0-6.6,0-13.33,0-20,0-1.33.57-1.5,1.69-1.53s1.57.47,1.56,1.65c-.06,4.12.07,8.24-.06,12.35-.08,2.69,1,3.84,3.64,3.55a10.8,10.8,0,0,1,2,0c2.74.27,3.66-1.07,3.53-3.67s0-5,0-7.58c0-1.17.07-1.91,1.6-1.87,1.36,0,1.48.67,1.47,1.74,0,1.48-.21,3.41,1.56,3.81,2.13.49,4.5.79,6.59-.27,1.36-.7,1.15-2.24,1.1-3.54,0-1.06.07-1.73,1.45-1.74s1.52.6,1.49,1.7c0,2.06,0,4.12,0,6.18a2.84,2.84,0,0,0,3,3.22c.84.05,1.69,0,2.53,0,2.59.13,3.78-1,3.72-3.68-.07-3.36,0-6.74,0-10.1,0-1.32.35-1.78,1.73-1.78s1.34.87,1.34,1.82c0,4.68.05,9.36,0,14,0,2.39,1,3.48,3.36,3.31a17.8,17.8,0,0,1,2.53,0c2.25.14,3.25-.87,3.22-3.14,0-4.77,0-9.54,0-14.32,0-1.11.17-1.7,1.5-1.71s1.76.41,1.75,1.76C76.38,35.91,76.41,42.55,76.41,49.1Z"/><path class="cls-2" d="M26.26,72.05c-1.76-.4-2-1.77-2-3.23,0-4.49,0-9,0-13.47,0-2.49,1.28-3.62,3.64-3.61q21.47,0,42.95.08c1.2.74,2.1,1.58.92,3-1.76.79-3.63.42-5.46.46a7.65,7.65,0,0,0-4.25.93,4.85,4.85,0,0,1-4.46.24,8.43,8.43,0,0,0-4.57-1.08c-7,0-14,0-21,0-3.61,0-4.05.48-4.12,4-.05,1.86-.06,3.74,0,5.6.11,3.17.61,3.66,3.86,3.76,2,.06,3.93,0,5.89,0,10.09,0,20.18,0,30.27,0,1.46,0,3-.28,4.25.93.41,2.45-1.21,2.47-2.92,2.47-9.31,0-18.63,0-27.94,0C36.3,72.2,31.28,72.48,26.26,72.05Z"/><path class="cls-6" d="M81,40.84c0-1.12.48-2.63-1.54-2.6,1.49-1.12,3.16-.29,4.75-.42,1.1-.09,1,.92,1,1.64,0,13.57,0,27.14,0,40.71,0,1.53-.59,1.85-2,1.85q-33.12,0-66.26,0c-.44,0-.95.11-1.14-.5,20.69,0,41.38,0,62.07,0Z"/><path class="cls-7" d="M86.06,87.64A4,4,0,0,0,86.6,85c1.38-.26,1.7-1.19,1.69-2.46q0-22.66,0-45.32C88.29,36,88,35,86.6,34.77a2.42,2.42,0,0,1-.54-2.65c4.77-.25,5,0,5,4.6q0,23.16,0,46.31C91.11,87.59,90.79,87.89,86.06,87.64Z"/><path class="cls-8" d="M72,54.52a6.6,6.6,0,0,0-1.1-2.7c4.82-.25,5.52.42,5.52,5.29V68.9c0,2.27-1.08,3.53-3.39,3.53q-22.88,0-45.77,0a3,3,0,0,1-1-.4Q47.46,72,68.65,72c1.72,0,3.25,0,3.33-2.3A27.81,27.81,0,0,0,72,54.52Z"/><path class="cls-9" d="M87.75,97.71c.14-.11.28-.29.44-.32,5.21-.9,5.21-.89,5.16-6.36.27,0,.59-.2.81-.12,1.23.43,3.38-1.28,3.61,1.53s-.93,4.94-3.36,5.2C92.21,97.87,90,97.7,87.75,97.71Z"/><path class="cls-10" d="M39.61,24.48c0,1,0,2.05,0,3.06.07,1.18-.59,1.35-1.56,1.38s-1.54-.23-1.5-1.38c.06-2.14.06-4.27,0-6.41,0-1.13.46-1.4,1.5-1.39s1.59.3,1.56,1.4S39.61,23.37,39.61,24.48Z"/><path class="cls-11" d="M50.34,90.85c1.86,0,3.72,0,5.58,0,.7,0,2-.53,1.91.82,0,1-1.18,1-2,1-2.79,0-5.58.12-8.36,0-1.56-.09-4.33.84-4.36-.94s2.71-.56,4.2-.83A17.34,17.34,0,0,1,50.34,90.85Z"/><path class="cls-12" d="M70.49,40.78c-.7,1,1,3-1.69,3s-1.71-1.89-1.75-3.11-.85-3.16,1.84-3S69.69,39.86,70.49,40.78Z"/><path class="cls-13" d="M86.06,32.12a4,4,0,0,1,.54,2.65c-1.94,0-3.89,0-5.84.1-1.05,0-1.48-.33-1.47-1.43S79.73,32,80.77,32C82.53,32.08,84.3,32.09,86.06,32.12Z"/><path class="cls-14" d="M30.45,40c-.24-1.58,0-2.33,1.62-2.31,2.31,0,1.44,1.61,1.63,2.72.26,1.57-.55,1.78-1.9,1.81C29.54,42.27,30.68,40.63,30.45,40Z"/><path class="cls-15" d="M32.16,32c1.23-.16,1.54.5,1.51,1.63-.05,1.47-1.09,1.14-2,1.21-1.14.1-1.33-.52-1.36-1.5C30.32,32,31.15,32,32.16,32Z"/><path class="cls-15" d="M68.63,34.85C67.44,35,67,34.5,67,33.3c0-1.44,1-1.23,1.89-1.3,1.08-.07,1.39.42,1.43,1.45C70.39,34.78,69.68,35,68.63,34.85Z"/><path class="cls-16" d="M58,33.46c.16,1.14-.43,1.42-1.46,1.42S55,34.54,55,33.43,55.48,32,56.51,32,58.11,32.34,58,33.46Z"/><path class="cls-17" d="M45.68,33.55c.14,1.25-.66,1.28-1.58,1.32-1.18.06-1.37-.54-1.38-1.54,0-1.22.65-1.3,1.6-1.32C45.46,32,45.81,32.53,45.68,33.55Z"/><path class="cls-18" d="M56.53,40c-.82,0-1.75.2-1.65-1.16.07-1,.72-1.09,1.52-1.1S58,37.71,58,39,57.24,40,56.53,40Z"/><path class="cls-19" d="M27.59,14.56C27,15.54,28.94,18,25.76,18c-1,0-1.59-.31-1.56-1.43s0-2.42,0-3.63,0-2.37,1.84-2.31,1.54,1.2,1.56,2.29Z"/><path class="cls-20" d="M72,54.52a2.66,2.66,0,0,1,1.53,2.7c-.09,3.25-.08,6.51,0,9.76A2.52,2.52,0,0,1,72,69.66L38.93,69.5c-3,0-6-.09-9,0-2.1.08-2.82-.78-2.75-2.82.11-3.08.11-6.17,0-9.25-.07-2,.74-2.89,2.77-2.88,8.5,0,17,0,25.51,0,1.17,0,2.26.14,2.6,1.55.49,1.7-.69,2.31-1.93,2.39-2.07.13-3.11,1.13-3.89,3a4.86,4.86,0,0,1-5.15,3.16A4.67,4.67,0,0,1,42.84,61c-2.85,5.42-6.11,5-11.19-1.58a8.16,8.16,0,0,0-.29,4.74c.29,1.71,1.8,1.39,3,1.39,7,0,14,0,21.08,0,3.74,0,7.49-.09,11.24,0,2.52.09,3-1.21,2.89-3.32-.08-3.1-.24-3.39-3-3.51a13.15,13.15,0,0,1-3.07-.21c-1.43-.39-2.44-1.09-1.69-2.81.62-1.28,1.81-1.1,2.91-1.11C67.13,54.56,69.56,54.54,72,54.52Z"/><path class="cls-21" d="M61.79,55.71c-.17,1.89,1,2,2.49,2.09,6.24.19,6.16.22,6.11,6.43,0,1.77-.56,2.19-2.25,2.18q-17.82-.1-35.65,0c-1.81,0-2.27-.61-2.15-2.27s.05-3.36,0-5.05c0-1,.4-1.37,1.34-1.31.63.05,1.44-.11,1.47.84.13,3.3,1.61,5.62,5.07,5.32,3.28-.28,4.28-2.88,4-6,1.48.46.93,1.5,1,2.21A4.19,4.19,0,0,0,47.35,64c2.19.18,4-1,4.35-3.14.38-2.8,1.77-3.45,4.23-3.11a1.69,1.69,0,0,0,2.16-1.62C59.34,56.17,60.64,56.54,61.79,55.71Z"/><path class="cls-22" d="M27,14.45c0,.64,0,1.29,0,1.93a1,1,0,0,1-1.33,1c-1.44-.4-.92-1.68-.85-2.55.1-1.17-.8-2.69.79-3.44a.93.93,0,0,1,1.37.88c.05.73,0,1.47,0,2.21Z"/><path class="cls-23" d="M39.27,59.09c-.08.8-.3,1.71-1.5,1.74s-1.31-.78-1.36-1.67.15-1.44,1.17-1.42C38.42,57.76,39.3,57.68,39.27,59.09Z"/><path class="cls-24" d="M47.78,60.84a1.51,1.51,0,0,1-1.64-1.53c-.06-.94.07-1.62,1.28-1.58.91,0,1.64.08,1.57,1.3C48.93,59.93,48.8,60.68,47.78,60.84Z"/><path class="cls-1" d="M9.6,33.44v15.2H6.7V34l.12-.57Z"/><rect class="cls-1" x="21.4" y="7.23" width="8.96" height="14.58" rx="1.95" ry="1.95"/><rect class="cls-25" x="23.92" y="9.85" width="3.91" height="9.33" rx="0.92" ry="0.92"/><rect class="cls-1" x="44.98" y="7.84" width="8.96" height="14.58" rx="1.95" ry="1.95"/><rect class="cls-25" x="47.51" y="10.46" width="3.91" height="9.33" rx="0.92" ry="0.92"/><rect class="cls-1" x="58.03" y="8.34" width="8.96" height="14.58" rx="1.95" ry="1.95"/><rect class="cls-25" x="60.56" y="10.96" width="3.91" height="9.33" rx="0.92" ry="0.92"/><rect class="cls-1" x="71.92" y="7.03" width="8.96" height="14.58" rx="1.95" ry="1.95"/><rect class="cls-25" x="74.45" y="9.65" width="3.91" height="9.33" rx="0.92" ry="0.92"/><rect class="cls-24" x="35.55" y="57.21" width="4.57" height="4.57" rx="2.28" ry="2.28"/><rect class="cls-24" x="45.28" y="57" width="4.57" height="4.57" rx="2.28" ry="2.28"/><rect class="cls-26" x="66.62" y="37.23" width="4.04" height="6.6" rx="1.04" ry="1.04"/><rect class="cls-26" x="30.03" y="37.5" width="4.04" height="4.99" rx="1.04" ry="1.04"/><rect class="cls-5" x="29.99" y="32.01" width="4.04" height="3.18" rx="1.04" ry="1.04"/><rect class="cls-5" x="42.19" y="31.85" width="4.04" height="3.18" rx="1.04" ry="1.04"/><rect class="cls-5" x="54.23" y="31.85" width="4.04" height="3.18" rx="1.04" ry="1.04"/><rect class="cls-5" x="66.62" y="31.85" width="4.04" height="3.18" rx="1.04" ry="1.04"/></svg>